<svg width="24" height="24" viewBox="0 0 24 24" fill="none" xmlns="http://www.w3.org/2000/svg">
<path d="M11.0693 4.7422C9.8519 5.07355 8.7958 5.9714 8.2978 7.1699C8.2978 7.1699 6.3835 11.79 4.6123 11.7285C4.5933 11.7325 4.57987 11.7474 4.55957 11.7519C4.48247 11.7735 4.40874 11.8081 4.34277 11.8535C4.31577 11.8716 4.28825 11.8818 4.26465 11.9023C4.17475 11.9766 4.10396 12.0708 4.05761 12.1777C3.89842 12.5621 4.08046 12.9994 4.46386 13.1582L14.1651 17.1758C14.5494 17.335 14.9844 17.1558 15.1436 16.7715C15.1865 16.6631 15.2034 16.5458 15.1924 16.4297C15.1904 16.3985 15.1787 16.3704 15.1729 16.3399C15.1581 16.2609 15.1306 16.185 15.0909 16.1152C15.0807 16.098 15.0829 16.0772 15.0713 16.0605C14.299 15.3408 14.6679 13.418 15.0909 11.9746C13.8457 11.8663 12.6862 11.2954 11.841 10.3747C10.9958 9.45389 10.5261 8.24994 10.5245 7.00005C10.5264 6.21511 10.713 5.44164 11.0694 4.74225L11.0693 4.7422ZM9.9306 16.5042C10.0042 17.4422 10.7325 18.2256 11.7021 18.3323C12.2718 18.3946 12.8095 18.2081 13.2138 17.8636L9.9306 16.5042Z" fill="white"/>
<path d="M19.5243 7C19.5243 8.06087 19.1029 9.07828 18.3527 9.82843C17.6026 10.5786 16.5852 11 15.5243 11C14.4634 11 13.446 10.5786 12.6959 9.82843C11.9457 9.07828 11.5243 8.06087 11.5243 7C11.5243 5.93913 11.9457 4.92172 12.6959 4.17157C13.446 3.42143 14.4634 3 15.5243 3C16.5852 3 17.6026 3.42143 18.3527 4.17157C19.1029 4.92172 19.5243 5.93913 19.5243 7V7Z" fill="#D33636"/>
</svg>
