<svg width="24" height="24" viewBox="0 0 24 24" fill="none" xmlns="http://www.w3.org/2000/svg">
<path d="M12 3C11.7348 3 11.4804 3.10536 11.2929 3.29289C11.1054 3.48043 11 3.73478 11 4V4.01C9.236 4.466 8.002 6.178 8 8C8 8 8.00003 13 6.34003 13.621C6.32403 13.632 6.31699 13.652 6.29999 13.664C6.23698 13.7134 6.18257 13.7729 6.13898 13.84C6.12098 13.867 6.1 13.888 6.086 13.916C6.03135 14.019 6.00188 14.1334 6 14.25C6 14.666 6.335 15 6.75 15H17.25C17.666 15 18 14.666 18 14.25C17.9981 14.1334 17.9686 14.019 17.914 13.916C17.9 13.888 17.879 13.866 17.862 13.84C17.8181 13.7728 17.7634 13.7133 17.7 13.664C17.684 13.652 17.677 13.632 17.66 13.621C16 13.001 16 8 16 8C15.998 6.177 14.765 4.465 13 4.01V4C13 3.73478 12.8946 3.48043 12.7071 3.29289C12.5196 3.10536 12.2652 3 12 3V3ZM10.067 16C10.1777 16.4287 10.4275 16.8086 10.7773 17.0801C11.1272 17.3515 11.5572 17.4992 12 17.5C12.4433 17.4999 12.874 17.3525 13.2244 17.081C13.5749 16.8095 13.8251 16.4292 13.936 16H10.067Z" fill="white"/>
</svg>
