<?xml version="1.0" encoding="UTF-8" standalone="no"?>
<svg
   width="16"
   height="16"
   version="1.1"
   id="svg2"
   sodipodi:docname="bookmark-missing.svg"
   inkscape:version="1.3.2 (091e20ef0f, 2023-11-25, custom)"
   xmlns:inkscape="http://www.inkscape.org/namespaces/inkscape"
   xmlns:sodipodi="http://sodipodi.sourceforge.net/DTD/sodipodi-0.dtd"
   xmlns="http://www.w3.org/2000/svg"
   xmlns:svg="http://www.w3.org/2000/svg">
  <sodipodi:namedview
     id="namedview2"
     pagecolor="#f8f8f2"
     bordercolor="#000000"
     borderopacity="0.25"
     inkscape:showpageshadow="2"
     inkscape:pageopacity="0.0"
     inkscape:pagecheckerboard="0"
     inkscape:deskcolor="#d1d1d1"
     inkscape:zoom="52.0625"
     inkscape:cx="8"
     inkscape:cy="8"
     inkscape:window-width="1920"
     inkscape:window-height="1040"
     inkscape:window-x="0"
     inkscape:window-y="0"
     inkscape:window-maximized="1"
     inkscape:current-layer="svg2" />
  <defs
     id="defs1">
    <style
       id="current-color-scheme"
       type="text/css">.ColorScheme-Text { color:#f8f8f2; } .ColorScheme-Highlight { color:#515d85; }</style>
  </defs>
  <path
     style="fill:currentColor"
     class="ColorScheme-Text"
     d="m8.0059 0.29297a2.0002 2.0002 0 0 0-1.8711 1.2813l-1.125 2.9141-3.1152 0.16602a2.0002 2.0002 0 0 0-1.1562 3.5469l2.4238 1.9746-0.80078 3.0195a2.0002 2.0002 0 0 0 3.0215 2.1914l2.6172-1.6953 2.6172 1.6953a2.0002 2.0002 0 0 0 1.3828 0.29883v-1.6855a1.0001 1.0001 0 0 1 0.13477-0.5 1.0001 1.0001 0 0 1-0.13477-0.5v-4.7227l-1.4277 1.1621 1.1328 4.2676-3.7051-2.3984-3.7051 2.3984 1.1328-4.2676-3.4277-2.7891 4.4102-0.23242 1.5898-4.125 1.5898 4.125 4.4102 0.23242-0.42969 0.34961h1.4297a1.0001 1.0001 0 0 1 0.83203 0.44336 2.0002 2.0002 0 0 0-1.7266-2.7891l-3.1152-0.16602-1.125-2.9141a2.0002 2.0002 0 0 0-1.8594-1.2813z"
     color="#f8f8f2"
     fill="currentColor"
     opacity=".35"
     id="path1" />
  <path
     class="ColorScheme-Highlight"
     d="M13 8v5h2V8zm0 6v2h2v-2z"
     fill="currentColor"
     id="path2" />
</svg>
