<?xml version="1.0" encoding="UTF-8" standalone="no"?>
<svg
   width="16"
   height="16"
   enable-background="new"
   version="1.1"
   id="svg3"
   sodipodi:docname="battery-level-10-symbolic.svg"
   inkscape:version="1.3.2 (091e20ef0f, 2023-11-25, custom)"
   xmlns:inkscape="http://www.inkscape.org/namespaces/inkscape"
   xmlns:sodipodi="http://sodipodi.sourceforge.net/DTD/sodipodi-0.dtd"
   xmlns="http://www.w3.org/2000/svg"
   xmlns:svg="http://www.w3.org/2000/svg">
  <defs
     id="defs3" />
  <sodipodi:namedview
     id="namedview3"
     pagecolor="#505050"
     bordercolor="#ffffff"
     borderopacity="1"
     inkscape:showpageshadow="0"
     inkscape:pageopacity="0"
     inkscape:pagecheckerboard="1"
     inkscape:deskcolor="#505050"
     inkscape:zoom="49.8125"
     inkscape:cx="8"
     inkscape:cy="8"
     inkscape:window-width="1920"
     inkscape:window-height="1013"
     inkscape:window-x="0"
     inkscape:window-y="0"
     inkscape:window-maximized="1"
     inkscape:current-layer="svg3" />
  <path
     class="error"
     d="m5 12v1h2.2617a4.5 4.5 0 0 1-0.23242-1h-2.0293z"
     fill="#e74c3c"
     stroke-width=".35355"
     id="path1"
     style="fill:#ff5555" />
  <path
     class="warning"
     d="m11.5 8a3.5 3.5 0 0 0-3.5 3.5 3.5 3.5 0 0 0 3.5 3.5 3.5 3.5 0 0 0 3.5-3.5 3.5 3.5 0 0 0-3.5-3.5zm-0.5 1h1v3h-1v-3zm0 4h1v1h-1v-1z"
     fill="#ff7f2a"
     id="path2"
     style="fill:#c7925b" />
  <path
     d="m6 0v1h-2c-0.554 0-1 0.446-1 1v12c0 0.554 0.446 1 1 1h4.6855a4.5 4.5 0 0 1-1.418-2h-2.2676v-10h6v4.0352a4.5 4.5 0 0 1 0.5-0.035156 4.5 4.5 0 0 1 1.5 0.25781v-5.2578c0-0.554-0.446-1-1-1h-2v-1h-4z"
     fill="#f8f8f2"
     id="path3" />
</svg>
