<?xml version="1.0" encoding="UTF-8" standalone="no"?>
<svg
   width="64"
   height="64"
   version="1.1"
   viewBox="0 0 64 64"
   id="svg23"
   sodipodi:docname="4kvideodownloader.svg"
   inkscape:version="1.2.2 (b0a8486541, 2022-12-01)"
   xmlns:inkscape="http://www.inkscape.org/namespaces/inkscape"
   xmlns:sodipodi="http://sodipodi.sourceforge.net/DTD/sodipodi-0.dtd"
   xmlns:xlink="http://www.w3.org/1999/xlink"
   xmlns="http://www.w3.org/2000/svg"
   xmlns:svg="http://www.w3.org/2000/svg">
  <sodipodi:namedview
     id="namedview25"
     pagecolor="#505050"
     bordercolor="#eeeeee"
     borderopacity="1"
     inkscape:showpageshadow="0"
     inkscape:pageopacity="0"
     inkscape:pagecheckerboard="0"
     inkscape:deskcolor="#505050"
     showgrid="false"
     inkscape:zoom="15.921875"
     inkscape:cx="27.76055"
     inkscape:cy="32.031403"
     inkscape:window-width="2560"
     inkscape:window-height="1361"
     inkscape:window-x="0"
     inkscape:window-y="0"
     inkscape:window-maximized="1"
     inkscape:current-layer="svg23" />
  <defs
     id="defs9">
    <linearGradient
       id="a">
      <stop
         stop-color="#3889e9"
         offset="0"
         id="stop2" />
      <stop
         stop-color="#5ea5fb"
         offset="1"
         id="stop4" />
    </linearGradient>
    <linearGradient
       id="d"
       x1="399.57"
       x2="399.57"
       y1="545.8"
       y2="517.8"
       gradientTransform="matrix(1.9175 0 0 1.9175 -736.2 -987.76)"
       gradientUnits="userSpaceOnUse"
       xlink:href="#a" />
    <linearGradient
       id="b"
       x1="-.5"
       x2="536"
       y1="267.75"
       y2="267.75"
       gradientUnits="userSpaceOnUse"
       xlink:href="#a" />
  </defs>
  <circle
     cx="32"
     cy="32"
     r="27"
     fill="#3de365"
     stroke-width="1.4143"
     id="circle11"
     style="fill:#44c367" />
  <circle
     cx="31.89"
     cy="31.955"
     r="0"
     fill="url(#d)"
     stroke-width="1.4062"
     id="circle13" />
  <path
     d="m25.925 24.379c-0.85591-0.67184-1.9309-1.0718-3.0983-1.0718-2.7485 0-4.985 2.2173-5.0552 4.9795-2.8372 1.076-4.8563 3.8436-4.8563 7.0882 0 3.8327 2.8178 7 6.4728 7.4994v0.0685h25.892v-0.01227c3.6101-0.21175 6.4728-3.2391 6.4728-6.9424 0-3.5716-2.6626-6.5142-6.0903-6.9092 0.01424-0.21772 0.02197-0.43738 0.02197-0.6587 0-5.5351-4.6187-10.022-10.316-10.022-4.2172 0-7.8435 2.4586-9.443 5.9807z"
     fill="#195c28"
     stroke-width="1.4956"
     id="path15"
     style="fill:#515d85" />
  <circle
     cx="32.035"
     cy="32.067"
     r="30.001"
     fill-opacity="0"
     stroke-width="1.5715"
     id="circle17" />
  <g
     transform="matrix(.94318 0 0 .94318 -345.86 -469.5)"
     fill="#f8f8f2"
     fill-opacity=".85"
     stroke-width=".73333"
     id="g21">
    <g
       transform="matrix(.059397 0 0 .059397 387.63 521.12)"
       fill="#f8f8f2"
       fill-opacity=".85"
       stroke="url(#b)"
       stroke-width=".73333"
       id="g19" />
  </g>
</svg>
