<?xml version="1.0" encoding="UTF-8" standalone="no"?>
<svg
   width="64"
   height="64"
   viewBox="0 0 16.933 16.933"
   version="1.1"
   id="svg2"
   sodipodi:docname="7zip.svg"
   inkscape:version="1.3.2 (091e20ef0f, 2023-11-25, custom)"
   xmlns:inkscape="http://www.inkscape.org/namespaces/inkscape"
   xmlns:sodipodi="http://sodipodi.sourceforge.net/DTD/sodipodi-0.dtd"
   xmlns="http://www.w3.org/2000/svg"
   xmlns:svg="http://www.w3.org/2000/svg">
  <defs
     id="defs2" />
  <sodipodi:namedview
     id="namedview2"
     pagecolor="#505050"
     bordercolor="#f8f8f2"
     borderopacity="1"
     inkscape:showpageshadow="0"
     inkscape:pageopacity="0"
     inkscape:pagecheckerboard="1"
     inkscape:deskcolor="#505050"
     inkscape:zoom="12.453125"
     inkscape:cx="32"
     inkscape:cy="32"
     inkscape:window-width="1920"
     inkscape:window-height="1013"
     inkscape:window-x="0"
     inkscape:window-y="0"
     inkscape:window-maximized="1"
     inkscape:current-layer="g2" />
  <g
     transform="translate(0 -280.07)"
     id="g2">
    <rect
       width="13.738"
       height="13.229"
       x="-295.4"
       y="-15.081"
       fill="gray"
       rx="1.587"
       ry="1.587"
       transform="matrix(0 -1.04 -1 0 0 -11.541)"
       id="rect1"
       style="fill:#9ea0a6" />
    <rect
       width=".529"
       height="5.423"
       x="8.202"
       y="281.39"
       opacity=".35"
       paint-order="markers stroke fill"
       ry="0"
       id="rect2" />
    <path
       fill="#f8f8f2"
       d="M8.467 286.42a1.06 1.06 0 0 0-1.059 1.058v2.117a1.06 1.06 0 0 0 1.059 1.058 1.06 1.06 0 0 0 1.058-1.058v-2.117a1.06 1.06 0 0 0-1.058-1.058zm0 .529c.292 0 .529.211.529.529 0 .265-.237.53-.53.53a.548.548 0 0 1-.529-.53c0-.318.238-.53.53-.53zm0 1.587a.53.53 0 0 1 .529.53v.529a.53.53 0 0 1-1.059 0v-.53a.53.53 0 0 1 .53-.529z"
       id="path2" />
  </g>
</svg>
