<?xml version="1.0" encoding="UTF-8" standalone="no"?>
<svg
   width="64"
   height="64"
   version="1.1"
   viewBox="0 0 16.933 16.933"
   id="svg10"
   sodipodi:docname="abiword.svg"
   inkscape:version="1.2.2 (b0a8486541, 2022-12-01)"
   xmlns:inkscape="http://www.inkscape.org/namespaces/inkscape"
   xmlns:sodipodi="http://sodipodi.sourceforge.net/DTD/sodipodi-0.dtd"
   xmlns="http://www.w3.org/2000/svg"
   xmlns:svg="http://www.w3.org/2000/svg">
  <defs
     id="defs14" />
  <sodipodi:namedview
     id="namedview12"
     pagecolor="#505050"
     bordercolor="#eeeeee"
     borderopacity="1"
     inkscape:showpageshadow="0"
     inkscape:pageopacity="0"
     inkscape:pagecheckerboard="0"
     inkscape:deskcolor="#505050"
     showgrid="false"
     inkscape:zoom="15.921875"
     inkscape:cx="29.895976"
     inkscape:cy="32.031403"
     inkscape:window-width="2560"
     inkscape:window-height="1361"
     inkscape:window-x="0"
     inkscape:window-y="0"
     inkscape:window-maximized="1"
     inkscape:current-layer="svg10" />
  <g
     transform="translate(0 -280.07)"
     id="g8">
    <rect
       transform="matrix(0,-1,-1,0,0,0)"
       x="-295.68"
       y="-15.61"
       width="14.287"
       height="14.287"
       rx="7.1436"
       ry="7.1436"
       fill="#4c627f"
       id="rect2"
       style="fill:#44475a" />
    <rect
       transform="matrix(0 -1 -1 0 0 0)"
       x="-294.35"
       y="-14.288"
       width="11.642"
       height="11.642"
       rx="5.821"
       ry="5.821"
       fill="#f8f8f2"
       opacity=".15"
       id="rect4"
       style="fill:#6272a4" />
    <path
       d="M5.292 291.042c-.004-1.524 2.2-5.925 3.226-5.947.513-.013 1.282.962 1.928 2.222.647 1.259 1.17 2.804 1.196 3.932 0 0-2.483-4.849-3.102-4.863-.63-.017-2.342 3.416-2.138 3.798.2.373 3.888-.83 3.888-.83-.08.123-2.487 1.715-4.293 2.09-.273-.012-.682 0-.705-.402m0 0"
       fill="#f8f8f2"
       fill-rule="evenodd"
       id="path6"
       style="fill:#f8f8f2" />
  </g>
</svg>
