<?xml version="1.0" encoding="UTF-8" standalone="no"?>
<svg
   width="64"
   height="64"
   version="1.1"
   id="svg1"
   sodipodi:docname="ableton.svg"
   inkscape:version="1.3.2 (091e20ef0f, 2023-11-25, custom)"
   xmlns:inkscape="http://www.inkscape.org/namespaces/inkscape"
   xmlns:sodipodi="http://sodipodi.sourceforge.net/DTD/sodipodi-0.dtd"
   xmlns="http://www.w3.org/2000/svg"
   xmlns:svg="http://www.w3.org/2000/svg">
  <defs
     id="defs1" />
  <sodipodi:namedview
     id="namedview1"
     pagecolor="#505050"
     bordercolor="#f8f8f2"
     borderopacity="1"
     inkscape:showpageshadow="0"
     inkscape:pageopacity="0"
     inkscape:pagecheckerboard="1"
     inkscape:deskcolor="#505050"
     inkscape:zoom="12.453125"
     inkscape:cx="32"
     inkscape:cy="32"
     inkscape:window-width="1920"
     inkscape:window-height="1013"
     inkscape:window-x="0"
     inkscape:window-y="0"
     inkscape:window-maximized="1"
     inkscape:current-layer="svg1" />
  <circle
     cx="32"
     cy="32"
     r="27"
     fill="#ffc831"
     color="#282a36"
     id="circle1"
     style="fill:#ffb86c" />
  <path
     d="M12.39 41.164c-.15-.04-.159-.552-.159-9.158 0-8.23.014-9.123.144-9.172.187-.072 1.98-.072 2.166 0 .13.05.144.942.144 9.168v9.113l-.204.054c-.232.063-1.848.058-2.09-.005zm5.271-.036c-.15-.087-.159-.616-.159-9.077 0-4.942.025-9.05.055-9.129.046-.12.231-.144 1.097-.144.573 0 1.12.043 1.217.095.172.092.176.289.176 9.13 0 8.84-.004 9.038-.176 9.13-.226.12-2 .117-2.21-.005zm5.316.005-.205-.083.002-9.043c.003-8.815.007-9.045.177-9.135.186-.1 1.983-.13 2.223-.038.13.05.144.942.144 9.168v9.113l-.205.054c-.313.084-1.904.057-2.136-.036zm5.317-.005c-.15-.087-.159-.62-.159-9.165v-9.072l.205-.055c.385-.104 2.116-.063 2.23.052.084.083.11 2.234.11 9.13 0 8.825-.004 9.023-.176 9.115-.226.12-2 .117-2.21-.005zm5.215.017c-.176-.112-.175-2.27.002-2.383.067-.043 4.191-.068 9.164-.056l9.043.022.025 1.192c.025 1.175.022 1.194-.182 1.249-.325.087-17.913.064-18.052-.024zm-.063-5.399c-.026-.065-.035-.607-.02-1.204l.025-1.085h18.267l.025 1.204.026 1.204h-9.14c-7.443 0-9.146-.022-9.183-.119zm-.058-6.29c-.015-.625-.014-1.177.003-1.227.02-.057 3.282-.089 9.204-.089h9.174l-.026 1.204-.025 1.205-9.15.023-9.152.023zm.128-4.21c-.14-.09-.185-2.247-.049-2.383.052-.052 3.61-.076 9.168-.062l9.083.023.025 1.193c.025 1.174.022 1.193-.182 1.248-.315.085-17.911.066-18.045-.02z"
     style="fill:#f8f8f2;fill-opacity:1;stroke-width:.0908778"
     id="path1" />
</svg>
