<?xml version="1.0" encoding="UTF-8" standalone="no"?>
<svg
   width="64"
   height="64"
   version="1.1"
   id="svg12"
   sodipodi:docname="accerciser.svg"
   inkscape:version="1.2.2 (b0a8486541, 2022-12-01)"
   xmlns:inkscape="http://www.inkscape.org/namespaces/inkscape"
   xmlns:sodipodi="http://sodipodi.sourceforge.net/DTD/sodipodi-0.dtd"
   xmlns="http://www.w3.org/2000/svg"
   xmlns:svg="http://www.w3.org/2000/svg">
  <defs
     id="defs16" />
  <sodipodi:namedview
     id="namedview14"
     pagecolor="#505050"
     bordercolor="#eeeeee"
     borderopacity="1"
     inkscape:showpageshadow="0"
     inkscape:pageopacity="0"
     inkscape:pagecheckerboard="0"
     inkscape:deskcolor="#505050"
     showgrid="false"
     inkscape:zoom="15.921875"
     inkscape:cx="29.895976"
     inkscape:cy="32.031403"
     inkscape:window-width="2560"
     inkscape:window-height="1361"
     inkscape:window-x="0"
     inkscape:window-y="0"
     inkscape:window-maximized="1"
     inkscape:current-layer="svg12" />
  <path
     fill="#f8f8f2"
     d="M32 5c14.912 0 27 12.088 27 27S46.912 59 32 59 5 46.912 5 32 17.088 5 32 5z"
     id="path2" />
  <rect
     width="36.4"
     height="5.6"
     x="13.8"
     y="29.2"
     fill="#517cb3"
     rx="1.4"
     id="rect4"
     style="fill:#6272a4" />
  <path
     fill="#e04c4c"
     d="M18 22.2c-.776 0-1.4.624-1.4 1.4v16.8c0 .776.624 1.4 1.4 1.4s1.4-.624 1.4-1.4l1.4-8.4-1.4-8.4c0-.776-.624-1.4-1.4-1.4zm28 0c-.776 0-1.4.624-1.4 1.4L43.2 32l1.4 8.4c0 .776.624 1.4 1.4 1.4s1.4-.624 1.4-1.4V23.6c0-.776-.624-1.4-1.4-1.4z"
     id="path6"
     style="fill:#c7484a" />
  <rect
     width="5.6"
     height="28"
     x="19.4"
     y="18"
     fill="#e25454"
     rx="2.1"
     id="rect8"
     style="fill:#ff5555" />
  <rect
     width="5.6"
     height="28"
     x="-44.6"
     y="18"
     fill="#e25454"
     rx="2.1"
     transform="scale(-1 1)"
     id="rect10"
     style="fill:#ff5555" />
</svg>
