<?xml version="1.0" encoding="UTF-8" standalone="no"?>
<svg
   width="64"
   height="64"
   viewBox="0 0 16.933 16.933"
   version="1.1"
   id="svg2"
   sodipodi:docname="accessories-screenshot.svg"
   inkscape:version="1.3.2 (091e20ef0f, 2023-11-25, custom)"
   xmlns:inkscape="http://www.inkscape.org/namespaces/inkscape"
   xmlns:sodipodi="http://sodipodi.sourceforge.net/DTD/sodipodi-0.dtd"
   xmlns="http://www.w3.org/2000/svg"
   xmlns:svg="http://www.w3.org/2000/svg">
  <defs
     id="defs2" />
  <sodipodi:namedview
     id="namedview2"
     pagecolor="#505050"
     bordercolor="#ffffff"
     borderopacity="1"
     inkscape:showpageshadow="0"
     inkscape:pageopacity="0"
     inkscape:pagecheckerboard="1"
     inkscape:deskcolor="#505050"
     inkscape:zoom="12.453125"
     inkscape:cx="32"
     inkscape:cy="32"
     inkscape:window-width="1920"
     inkscape:window-height="1013"
     inkscape:window-x="0"
     inkscape:window-y="0"
     inkscape:window-maximized="1"
     inkscape:current-layer="svg2" />
  <rect
     width="13.758"
     height="9.525"
     x="4.135"
     y="-.066"
     fill="#ffc771"
     rx="1.587"
     ry="1.587"
     transform="rotate(21.906)"
     id="rect1" />
  <rect
     width="13.758"
     height="9.525"
     x="1.587"
     y="3.704"
     fill="#a75dfa"
     rx="1.587"
     ry="1.587"
     id="rect2" />
  <path
     fill="#f8f8f29f9"
     fill-rule="evenodd"
     d="M11.377 9.922V6.614a.397.397 0 0 0-.394-.396H6.35V5.159c0-.132-.132-.397-.397-.397-.264 0-.397.265-.397.397v1.059H4.498c-.132 0-.397.132-.397.397 0 .264.265.396.397.396h1.058v3.308c0 .22.18.397.395.397h4.632v1.058c0 .132.133.397.397.397.265 0 .397-.265.397-.397v-1.058h1.058c.133 0 .397-.133.397-.397 0-.265-.264-.397-.397-.397zm-5.027 0v-2.91h4.233v2.91z"
     id="path2"
     style="fill:#f8f8f2" />
</svg>
