<?xml version="1.0" encoding="UTF-8" standalone="no"?>
<svg
   width="64"
   height="64"
   version="1.1"
   id="svg4"
   sodipodi:docname="accerciser.svg"
   inkscape:version="1.3.2 (091e20ef0f, 2023-11-25, custom)"
   xmlns:inkscape="http://www.inkscape.org/namespaces/inkscape"
   xmlns:sodipodi="http://sodipodi.sourceforge.net/DTD/sodipodi-0.dtd"
   xmlns="http://www.w3.org/2000/svg"
   xmlns:svg="http://www.w3.org/2000/svg">
  <defs
     id="defs4" />
  <sodipodi:namedview
     id="namedview4"
     pagecolor="#505050"
     bordercolor="#f8f8f2"
     borderopacity="1"
     inkscape:showpageshadow="0"
     inkscape:pageopacity="0"
     inkscape:pagecheckerboard="1"
     inkscape:deskcolor="#505050"
     inkscape:zoom="12.453125"
     inkscape:cx="32"
     inkscape:cy="32"
     inkscape:window-width="1920"
     inkscape:window-height="1013"
     inkscape:window-x="0"
     inkscape:window-y="0"
     inkscape:window-maximized="1"
     inkscape:current-layer="svg4" />
  <rect
     width="52"
     height="52"
     x="6"
     y="6"
     fill="#f8f8f2"
     fill-rule="evenodd"
     rx="8"
     ry="8"
     id="rect1"
     style="fill:#f8f8f2" />
  <rect
     width="36.4"
     height="5.6"
     x="13.8"
     y="29.2"
     fill="#517cb3"
     rx="1.4"
     id="rect2"
     style="fill:#6272a4" />
  <path
     fill="#e04c4c"
     d="M18 22.2c-.776 0-1.4.624-1.4 1.4v16.8c0 .776.624 1.4 1.4 1.4s1.4-.624 1.4-1.4l1.4-8.4-1.4-8.4c0-.776-.624-1.4-1.4-1.4zm28 0c-.776 0-1.4.624-1.4 1.4L43.2 32l1.4 8.4c0 .776.624 1.4 1.4 1.4s1.4-.624 1.4-1.4V23.6c0-.776-.624-1.4-1.4-1.4z"
     id="path2"
     style="fill:#c7484a" />
  <rect
     width="5.6"
     height="28"
     x="19.4"
     y="18"
     fill="#e25454"
     rx="2.1"
     id="rect3"
     style="fill:#ff5555" />
  <rect
     width="5.6"
     height="28"
     x="-44.6"
     y="18"
     fill="#e25454"
     rx="2.1"
     transform="scale(-1 1)"
     id="rect4"
     style="fill:#ff5555" />
</svg>
