<?xml version="1.0" encoding="UTF-8" standalone="no"?>
<svg
   width="64"
   height="64"
   viewBox="0 0 16.933 16.933"
   version="1.1"
   id="svg6"
   sodipodi:docname="addressbook.svg"
   inkscape:version="1.3.2 (091e20ef0f, 2023-11-25, custom)"
   xmlns:inkscape="http://www.inkscape.org/namespaces/inkscape"
   xmlns:sodipodi="http://sodipodi.sourceforge.net/DTD/sodipodi-0.dtd"
   xmlns="http://www.w3.org/2000/svg"
   xmlns:svg="http://www.w3.org/2000/svg">
  <defs
     id="defs6" />
  <sodipodi:namedview
     id="namedview6"
     pagecolor="#505050"
     bordercolor="#f8f8f2"
     borderopacity="1"
     inkscape:showpageshadow="0"
     inkscape:pageopacity="0"
     inkscape:pagecheckerboard="1"
     inkscape:deskcolor="#505050"
     inkscape:zoom="12.453125"
     inkscape:cx="32"
     inkscape:cy="32"
     inkscape:window-width="1920"
     inkscape:window-height="1013"
     inkscape:window-x="0"
     inkscape:window-y="0"
     inkscape:window-maximized="1"
     inkscape:current-layer="g6" />
  <g
     transform="translate(0 -280.07)"
     id="g6">
    <rect
       width="4.233"
       height="4.498"
       x="10.583"
       y="282.71"
       fill="#44c367"
       ry=".312"
       id="rect1"
       style="fill:#50fa7b" />
    <rect
       width="4.233"
       height="4.498"
       x="10.583"
       y="286.22"
       fill="#ff5555"
       ry=".351"
       id="rect2"
       style="fill:#ff5555" />
    <rect
       width="4.233"
       height="4.233"
       x="10.583"
       y="289.86"
       fill="#ffb86c"
       ry=".331"
       id="rect3"
       style="fill:#f1fa8c" />
    <rect
       width="12.171"
       height="13.758"
       x="2.117"
       y="-295.41"
       fill="#6272a4"
       rx="1.317"
       ry="1.317"
       transform="scale(1 -1)"
       id="rect4"
       style="fill:#515d85" />
    <path
       fill="#f8f8f2"
       d="M9.478 289.74a1.587 1.587 0 0 1-1.276.645 1.587 1.587 0 0 1-1.275-.644 3.704 2.381 0 0 0-2.43 2.232h7.41a3.704 2.381 0 0 0-2.429-2.234z"
       paint-order="stroke markers fill"
       id="path4" />
    <g
       fill="#f8f8f2"
       paint-order="stroke markers fill"
       transform="translate(0 1.588)"
       id="g5">
      <circle
         cx="8.202"
         cy="284.83"
         r="1.587"
         id="circle4" />
      <path
         d="M6.615 284.83a1.587 2.646 0 0 0 1.587 2.645 1.587 2.646 0 0 0 1.588-2.646z"
         id="path5" />
    </g>
  </g>
</svg>
