<?xml version="1.0" encoding="UTF-8" standalone="no"?>
<svg
   width="64"
   height="64"
   viewBox="0 0 16.933 16.933"
   version="1.1"
   id="svg4"
   sodipodi:docname="aegisub.svg"
   inkscape:version="1.3.2 (091e20ef0f, 2023-11-25, custom)"
   xmlns:inkscape="http://www.inkscape.org/namespaces/inkscape"
   xmlns:sodipodi="http://sodipodi.sourceforge.net/DTD/sodipodi-0.dtd"
   xmlns="http://www.w3.org/2000/svg"
   xmlns:svg="http://www.w3.org/2000/svg">
  <defs
     id="defs4" />
  <sodipodi:namedview
     id="namedview4"
     pagecolor="#505050"
     bordercolor="#f8f8f2"
     borderopacity="1"
     inkscape:showpageshadow="0"
     inkscape:pageopacity="0"
     inkscape:pagecheckerboard="1"
     inkscape:deskcolor="#505050"
     inkscape:zoom="12.453125"
     inkscape:cx="32"
     inkscape:cy="32"
     inkscape:window-width="1920"
     inkscape:window-height="1013"
     inkscape:window-x="0"
     inkscape:window-y="0"
     inkscape:window-maximized="1"
     inkscape:current-layer="svg4" />
  <path
     fill="#f8f8f2"
     fill-rule="evenodd"
     d="M13 4c-2.77 0-5 2.23-5 5v46c0 2.77 2.23 5 5 5h38c2.77 0 5-2.23 5-5V16L44 4H13z"
     style="paint-order:stroke fill markers"
     transform="scale(.26458)"
     id="path1" />
  <path
     fill="#cbcccc"
     fill-rule="evenodd"
     d="m14.816 4.233-3.175-3.175V2.91c0 .733.59 1.323 1.323 1.323z"
     style="paint-order:stroke fill markers"
     id="path2" />
  <g
     transform="matrix(1.25 0 0 1.25 -2.065 -2.567)"
     id="g4">
    <path
       fill="#fd7e7c"
       d="M12.151 10.747c-1.027-1.11-2.302-1.92-3.73-1.92-1.43 0-2.784.929-3.726 1.92-.107.124-.107.27 0 .395 1.02 1.092 2.272 1.918 3.725 1.918 1.453 0 2.797-.922 3.737-1.918.106-.125.106-.271 0-.395"
       id="path3"
       style="fill:#ff5555" />
    <circle
       cx="8.42"
       cy="10.944"
       r="1.693"
       fill="#13b1d5"
       id="circle3"
       style="fill:#8be9fd" />
    <circle
       cx="8.42"
       cy="10.944"
       r=".847"
       fill="#44475a"
       id="circle4"
       style="fill:#44475a" />
  </g>
</svg>
