<?xml version="1.0" encoding="UTF-8" standalone="no"?>
<svg
   width="64"
   height="64"
   version="1.1"
   id="svg5"
   sodipodi:docname="AetherP2P.svg"
   inkscape:version="1.3.2 (091e20ef0f, 2023-11-25, custom)"
   xmlns:inkscape="http://www.inkscape.org/namespaces/inkscape"
   xmlns:sodipodi="http://sodipodi.sourceforge.net/DTD/sodipodi-0.dtd"
   xmlns="http://www.w3.org/2000/svg"
   xmlns:svg="http://www.w3.org/2000/svg">
  <defs
     id="defs5" />
  <sodipodi:namedview
     id="namedview5"
     pagecolor="#505050"
     bordercolor="#f8f8f2"
     borderopacity="1"
     inkscape:showpageshadow="0"
     inkscape:pageopacity="0"
     inkscape:pagecheckerboard="1"
     inkscape:deskcolor="#505050"
     inkscape:zoom="12.453125"
     inkscape:cx="32"
     inkscape:cy="32"
     inkscape:window-width="1920"
     inkscape:window-height="1013"
     inkscape:window-x="0"
     inkscape:window-y="0"
     inkscape:window-maximized="1"
     inkscape:current-layer="svg5" />
  <rect
     width="52"
     height="52"
     x="6"
     y="6"
     fill="#eb6c37"
     fill-rule="evenodd"
     rx="8"
     ry="8"
     style="paint-order:stroke fill markers;fill:#ff5555"
     id="rect1" />
  <path
     fill="#f8f8f2"
     d="M32 9C19.258 9 9 19.258 9 32s10.258 23 23 23 23-10.258 23-23S44.742 9 32 9zm0 4c10.526 0 19 8.474 19 19s-8.474 19-19 19-19-8.474-19-19 8.474-19 19-19z"
     id="path1" />
  <rect
     width="4"
     height="30"
     x="30"
     y="17"
     fill="#f8f8f2"
     fill-rule="evenodd"
     rx="2"
     ry="2"
     style="paint-order:stroke fill markers"
     id="rect2" />
  <rect
     width="4"
     height="30"
     x="43.255"
     y="-15"
     fill="#f8f8f2"
     fill-rule="evenodd"
     rx="2"
     ry="2"
     style="paint-order:stroke fill markers"
     transform="rotate(45)"
     id="rect3" />
  <rect
     width="4"
     height="30"
     x="30"
     y="-47"
     fill="#f8f8f2"
     fill-rule="evenodd"
     rx="2"
     ry="2"
     style="paint-order:stroke fill markers"
     transform="rotate(90)"
     id="rect4" />
  <rect
     width="4"
     height="30"
     x="-2"
     y="-60.255"
     fill="#f8f8f2"
     fill-rule="evenodd"
     rx="2"
     ry="2"
     style="paint-order:stroke fill markers"
     transform="rotate(135)"
     id="rect5" />
</svg>
