<?xml version="1.0" encoding="UTF-8" standalone="no"?>
<svg
   width="64"
   height="64"
   version="1.1"
   id="svg2"
   sodipodi:docname="akregator.svg"
   inkscape:version="1.3.2 (091e20ef0f, 2023-11-25, custom)"
   xmlns:inkscape="http://www.inkscape.org/namespaces/inkscape"
   xmlns:sodipodi="http://sodipodi.sourceforge.net/DTD/sodipodi-0.dtd"
   xmlns="http://www.w3.org/2000/svg"
   xmlns:svg="http://www.w3.org/2000/svg">
  <defs
     id="defs2" />
  <sodipodi:namedview
     id="namedview2"
     pagecolor="#505050"
     bordercolor="#f8f8f2"
     borderopacity="1"
     inkscape:showpageshadow="0"
     inkscape:pageopacity="0"
     inkscape:pagecheckerboard="1"
     inkscape:deskcolor="#505050"
     inkscape:zoom="12.453125"
     inkscape:cx="32"
     inkscape:cy="32"
     inkscape:window-width="1920"
     inkscape:window-height="1013"
     inkscape:window-x="0"
     inkscape:window-y="0"
     inkscape:window-maximized="1"
     inkscape:current-layer="g2" />
  <g
     stroke-linejoin="round"
     stroke-width="4.444"
     id="g2">
    <path
       fill="#c7925b"
       d="M14.45 5.005a4.041 4.041 0 0 0-4.05 4.05v29.808A10.8 10.8 0 0 0 5 48.2 10.8 10.8 0 0 0 15.8 59a10.8 10.8 0 0 0 9.342-5.4H54.95A4.041 4.041 0 0 0 59 49.55V9.05A4.041 4.041 0 0 0 54.95 5z"
       id="path1"
       style="fill:#ff5555" />
    <path
       fill="#f8f8f2"
       d="M15.8 21.205v5.4c11.93 0 21.6 9.67 21.6 21.6h5.4c0-14.917-12.088-27-27-27m0 10.8v5.4c5.964 0 10.8 4.836 10.8 10.8H32c0-8.946-7.254-16.2-16.2-16.2m0 10.8a5.4 5.4 0 1 0 0 10.8 5.4 5.4 0 0 0 0-10.8"
       id="path2" />
  </g>
</svg>
