<?xml version="1.0" encoding="UTF-8" standalone="no"?>
<svg
   width="64"
   height="64"
   viewBox="0 0 16.933 16.933"
   version="1.1"
   id="svg2"
   sodipodi:docname="albert.svg"
   inkscape:version="1.3.2 (091e20ef0f, 2023-11-25, custom)"
   xmlns:inkscape="http://www.inkscape.org/namespaces/inkscape"
   xmlns:sodipodi="http://sodipodi.sourceforge.net/DTD/sodipodi-0.dtd"
   xmlns="http://www.w3.org/2000/svg"
   xmlns:svg="http://www.w3.org/2000/svg">
  <defs
     id="defs2" />
  <sodipodi:namedview
     id="namedview2"
     pagecolor="#505050"
     bordercolor="#f8f8f2"
     borderopacity="1"
     inkscape:showpageshadow="0"
     inkscape:pageopacity="0"
     inkscape:pagecheckerboard="1"
     inkscape:deskcolor="#505050"
     inkscape:zoom="12.453125"
     inkscape:cx="32"
     inkscape:cy="32"
     inkscape:window-width="1920"
     inkscape:window-height="1013"
     inkscape:window-x="0"
     inkscape:window-y="0"
     inkscape:window-maximized="1"
     inkscape:current-layer="svg2" />
  <circle
     cx="8.466"
     cy="8.46"
     r="7.144"
     fill="#5f5f5f"
     style="paint-order:stroke markers fill;fill:#44475a"
     id="circle1" />
  <circle
     cx="8.466"
     cy="8.46"
     r="6.085"
     fill="#f8f8f2"
     opacity=".1"
     style="paint-order:stroke markers fill"
     id="circle2" />
  <path
     fill="#c5f533"
     d="M7.634 6.025c-1.075 0-1.86.824-2.363 1.784-.654 1.25-1.345 3.1-.012 3.1 1.402 0 2.568-.778 3.392-1.367.299.545.734 1.367 1.342 1.367.608 0 1.162-.24 1.432-.452l1.01-1.407-.11-.125c-1.277.633-1.713 1.068-2.431-.298l.906-.834 1.331-1.648-.098-.121L9.638 8.12c-.387-.802-1.184-2.095-2.005-2.096m-.896 1.037c.76 0 1.207 1.121 1.655 1.952-.66.375-1.523.839-2.156.71-.75-.154-.94-.939-.638-1.528.268-.552.596-1.133 1.138-1.133"
     id="path2"
     style="fill:#50fa7b" />
</svg>
