<?xml version="1.0" encoding="UTF-8" standalone="no"?>
<svg
   width="64"
   height="64"
   version="1.1"
   viewBox="0 0 16.933 16.933"
   id="svg10"
   sodipodi:docname="albert.svg"
   inkscape:version="1.2.2 (b0a8486541, 2022-12-01)"
   xmlns:inkscape="http://www.inkscape.org/namespaces/inkscape"
   xmlns:sodipodi="http://sodipodi.sourceforge.net/DTD/sodipodi-0.dtd"
   xmlns="http://www.w3.org/2000/svg"
   xmlns:svg="http://www.w3.org/2000/svg">
  <defs
     id="defs14" />
  <sodipodi:namedview
     id="namedview12"
     pagecolor="#505050"
     bordercolor="#eeeeee"
     borderopacity="1"
     inkscape:showpageshadow="0"
     inkscape:pageopacity="0"
     inkscape:pagecheckerboard="0"
     inkscape:deskcolor="#505050"
     showgrid="false"
     inkscape:zoom="15.921875"
     inkscape:cx="29.895976"
     inkscape:cy="32.031403"
     inkscape:window-width="2560"
     inkscape:window-height="1361"
     inkscape:window-x="0"
     inkscape:window-y="0"
     inkscape:window-maximized="1"
     inkscape:current-layer="svg10" />
  <g
     id="g8">
    <circle
       cx="8.4665"
       cy="8.46"
       r="7.1436"
       fill="#5f5f5f"
       style="paint-order:stroke markers fill;fill:#717380"
       id="circle2" />
    <circle
       cx="8.4665"
       cy="8.46"
       r="6.0853"
       fill="#f8f8f2"
       opacity=".1"
       style="paint-order:stroke markers fill"
       id="circle4" />
    <path
       d="m7.6342 6.0254c-1.075-0.00122-1.8606 0.82312-2.3628 1.7833-0.65459 1.2512-1.3452 3.1004-0.01252 3.1004 1.4026 0 2.568-0.77854 3.392-1.3669 0.2989 0.54498 0.73397 1.3669 1.3418 1.3669 0.60787 0 1.162-0.23936 1.4328-0.45247l1.0097-1.4063-0.1093-0.12579c-1.278 0.63321-1.714 1.0686-2.4321-0.29798l0.90647-0.8335 1.3312-1.6478-0.098005-0.12151-2.3952 2.0975c-0.38774-0.80266-1.1843-2.095-2.005-2.096m-0.8967 1.0368c0.76114 0 1.2075 1.1211 1.6554 1.9518-0.66039 0.37553-1.5232 0.83869-2.1555 0.70924-0.74954-0.15357-0.94036-0.93761-0.6384-1.5266 0.26776-0.552 0.59627-1.1339 1.1376-1.1339"
       fill="#c5f533"
       id="path6"
       style="fill:#7afa99" />
  </g>
</svg>
