<?xml version="1.0" encoding="UTF-8" standalone="no"?>
<svg
   width="64"
   height="64"
   version="1.1"
   id="svg2"
   sodipodi:docname="alienarena.svg"
   inkscape:version="1.3.2 (091e20ef0f, 2023-11-25, custom)"
   xmlns:inkscape="http://www.inkscape.org/namespaces/inkscape"
   xmlns:sodipodi="http://sodipodi.sourceforge.net/DTD/sodipodi-0.dtd"
   xmlns="http://www.w3.org/2000/svg"
   xmlns:svg="http://www.w3.org/2000/svg">
  <defs
     id="defs2" />
  <sodipodi:namedview
     id="namedview2"
     pagecolor="#505050"
     bordercolor="#f8f8f2"
     borderopacity="1"
     inkscape:showpageshadow="0"
     inkscape:pageopacity="0"
     inkscape:pagecheckerboard="1"
     inkscape:deskcolor="#505050"
     inkscape:zoom="12.453125"
     inkscape:cx="32"
     inkscape:cy="32"
     inkscape:window-width="1920"
     inkscape:window-height="1013"
     inkscape:window-x="0"
     inkscape:window-y="0"
     inkscape:window-maximized="1"
     inkscape:current-layer="g2" />
  <g
     stroke-width=".714"
     id="g2">
    <path
       fill="#44c367"
       d="M9.6 25.67C9.6 40.078 21.495 60 32 60c9.89 0 22.4-19.925 22.4-34.33C54.4 11.266 44.371 4 32 4 19.629 4 9.6 11.264 9.6 25.67z"
       id="path1"
       style="fill:#50fa7b" />
    <path
       fill="#282a36"
       d="M38.135 35.335a11.378 11.378 0 0 1 10.418-3.088c.77 3.643-.259 7.59-3.088 10.418a11.378 11.378 0 0 1-10.418 3.088c-.77-3.643.26-7.59 3.088-10.418zM15.446 32.438c3.643-.759 7.59.256 10.418 3.045a11.117 11.117 0 0 1 3.088 10.273c-3.642.76-7.59-.255-10.418-3.044a11.117 11.117 0 0 1-3.088-10.274z"
       id="path2" />
  </g>
</svg>
