<?xml version="1.0" encoding="UTF-8" standalone="no"?>
<svg
   width="64"
   height="64"
   version="1.1"
   viewBox="0 0 16.933 16.933"
   id="svg12"
   sodipodi:docname="amazon-store.svg"
   inkscape:version="1.2.2 (b0a8486541, 2022-12-01)"
   xmlns:inkscape="http://www.inkscape.org/namespaces/inkscape"
   xmlns:sodipodi="http://sodipodi.sourceforge.net/DTD/sodipodi-0.dtd"
   xmlns="http://www.w3.org/2000/svg"
   xmlns:svg="http://www.w3.org/2000/svg">
  <defs
     id="defs16" />
  <sodipodi:namedview
     id="namedview14"
     pagecolor="#505050"
     bordercolor="#eeeeee"
     borderopacity="1"
     inkscape:showpageshadow="0"
     inkscape:pageopacity="0"
     inkscape:pagecheckerboard="0"
     inkscape:deskcolor="#505050"
     showgrid="false"
     inkscape:zoom="15.921875"
     inkscape:cx="29.895976"
     inkscape:cy="32.031403"
     inkscape:window-width="2560"
     inkscape:window-height="1361"
     inkscape:window-x="0"
     inkscape:window-y="0"
     inkscape:window-maximized="1"
     inkscape:current-layer="svg12" />
  <circle
     cx="8.4665"
     cy="8.4665"
     r="7.1436"
     fill="#cbcccc"
     style="paint-order:stroke fill markers"
     id="circle2" />
  <g
     fill-rule="evenodd"
     id="g10">
    <path
       d="M9.073 7.87c0 .446.011.816-.204 1.21-.173.321-.448.518-.754.518-.419 0-.662-.333-.662-.825 0-.972.833-1.149 1.62-1.149v.247m1.099 2.778a.22.22 0 0 1-.257.028c-.361-.314-.426-.46-.626-.76-.598.638-1.02.829-1.796.829-.917 0-1.632-.591-1.632-1.776 0-.925.48-1.555 1.162-1.863.59-.273 1.417-.32 2.049-.396v-.148c0-.27.02-.591-.131-.825-.133-.21-.388-.296-.612-.296-.416 0-.786.222-.876.684-.02.103-.09.204-.19.209l-1.057-.118c-.089-.022-.187-.097-.163-.24.245-1.337 1.402-1.742 2.438-1.742.53 0 1.223.147 1.64.567.531.518.48 1.209.48 1.96v1.776c0 .535.212.768.411 1.057.07.102.086.227-.002.303a52.39 52.39 0 0 0-.836.757l-.004-.004"
       fill="#201f1f"
       id="path4"
       style="fill:#282a36" />
    <path
       d="M11.886 11.625c-.927.7-2.27 1.074-3.428 1.074a6.117 6.117 0 0 1-4.187-1.638c-.087-.08-.01-.19.095-.128a8.27 8.27 0 0 0 4.19 1.139 8.138 8.138 0 0 0 3.196-.67c.157-.068.289.105.135.222"
       fill="#f90"
       id="path6"
       style="fill:#c7925b" />
    <path
       d="M12.272 11.173c-.118-.155-.784-.074-1.081-.037-.092.011-.106-.07-.023-.129.529-.381 1.4-.272 1.5-.143.101.128-.026 1.021-.525 1.447-.076.066-.148.031-.114-.056.11-.286.362-.927.243-1.082"
       fill="#f90"
       id="path8"
       style="fill:#c7925b" />
  </g>
</svg>
