<?xml version="1.0" encoding="UTF-8" standalone="no"?>
<svg
   width="64"
   height="64"
   version="1.1"
   id="svg6"
   sodipodi:docname="anbox.svg"
   inkscape:version="1.2.2 (b0a8486541, 2022-12-01)"
   xmlns:inkscape="http://www.inkscape.org/namespaces/inkscape"
   xmlns:sodipodi="http://sodipodi.sourceforge.net/DTD/sodipodi-0.dtd"
   xmlns="http://www.w3.org/2000/svg"
   xmlns:svg="http://www.w3.org/2000/svg">
  <defs
     id="defs10" />
  <sodipodi:namedview
     id="namedview8"
     pagecolor="#505050"
     bordercolor="#eeeeee"
     borderopacity="1"
     inkscape:showpageshadow="0"
     inkscape:pageopacity="0"
     inkscape:pagecheckerboard="0"
     inkscape:deskcolor="#505050"
     showgrid="false"
     inkscape:zoom="15.921875"
     inkscape:cx="29.895976"
     inkscape:cy="32.031403"
     inkscape:window-width="2560"
     inkscape:window-height="1361"
     inkscape:window-x="0"
     inkscape:window-y="0"
     inkscape:window-maximized="1"
     inkscape:current-layer="svg6" />
  <circle
     cx="32"
     cy="32"
     r="27"
     fill="#4db6ac"
     style="paint-order:stroke fill markers;fill:#72bfd0"
     id="circle2" />
  <path
     d="m25.996 15.02a0.996 0.996 0 0 0-0.695 1.709l1.77 1.77a8.99 8.99 0 0 0-3.837 5.52h17.53a8.993 8.993 0 0 0-4.461-5.896l1.396-1.394a0.996 0.996 0 0 0-0.695-1.71 0.996 0.996 0 0 0-0.713 0.301l-1.998 1.998a8.96 8.96 0 0 0-5.348 0.238l-2.236-2.236a0.996 0.996 0 0 0-0.713-0.3zm3.004 5a1 1 0 0 1 1 1 1 1 0 0 1-1 1 1 1 0 0 1-1-1 1 1 0 0 1 1-1zm6 0a1 1 0 0 1 1 1 1 1 0 0 1-1 1 1 1 0 0 1-1-1 1 1 0 0 1 1-1zm-16 6c-1.108 0-2 0.892-2 2v7c0 1.108 0.892 2 2 2s2-0.892 2-2v-7c0-1.108-0.892-2-2-2zm4 0v14c0 1.662 1.338 3 3 3h1v4c0 1.108 0.892 2 2 2s2-0.892 2-2v-4h2v4c0 1.108 0.892 2 2 2s2-0.892 2-2v-4h1c1.662 0 3-1.338 3-3v-14zm22 0c-1.108 0-2 0.892-2 2v7c0 1.108 0.892 2 2 2s2-0.892 2-2v-7c0-1.108-0.892-2-2-2z"
     fill="#d7f1f1"
     id="path4"
     style="fill:#f8f8f2" />
</svg>
