<?xml version="1.0" encoding="UTF-8" standalone="no"?>
<svg
   width="64"
   height="64"
   version="1.1"
   viewBox="0 0 64 64"
   id="svg26"
   sodipodi:docname="android-file-transfer.svg"
   inkscape:version="1.2.2 (b0a8486541, 2022-12-01)"
   xmlns:inkscape="http://www.inkscape.org/namespaces/inkscape"
   xmlns:sodipodi="http://sodipodi.sourceforge.net/DTD/sodipodi-0.dtd"
   xmlns="http://www.w3.org/2000/svg"
   xmlns:svg="http://www.w3.org/2000/svg">
  <defs
     id="defs30" />
  <sodipodi:namedview
     id="namedview28"
     pagecolor="#505050"
     bordercolor="#eeeeee"
     borderopacity="1"
     inkscape:showpageshadow="0"
     inkscape:pageopacity="0"
     inkscape:pagecheckerboard="0"
     inkscape:deskcolor="#505050"
     showgrid="false"
     inkscape:zoom="15.921875"
     inkscape:cx="29.895976"
     inkscape:cy="32.031403"
     inkscape:window-width="2560"
     inkscape:window-height="1361"
     inkscape:window-x="0"
     inkscape:window-y="0"
     inkscape:window-maximized="1"
     inkscape:current-layer="svg26" />
  <circle
     cx="32"
     cy="34"
     r="26"
     fill="#282a36"
     style="paint-order:stroke fill markers;fill:#44475a"
     id="circle2" />
  <path
     d="m32 3c-6.5343 3.717e-4 -12.877 2.2075-18 6.2637v40.736h36v-40.699c-5.1181-4.0695-11.461-6.2899-18-6.3008z"
     fill="#dce1e4"
     style="paint-order:stroke fill markers;fill:#f8f8f2"
     id="path4" />
  <g
     transform="matrix(.8 0 0 1 4.8 1)"
     stroke-opacity=".55"
     id="g10">
    <rect
       x="19"
       y="13"
       width="10"
       height="10"
       fill="#202224"
       stroke-width="2.8571"
       id="rect6"
       style="fill:#282a36" />
    <rect
       x="21.5"
       y="13"
       width="5"
       height="10"
       fill="#fdbc4a"
       stroke-width="3.0861"
       id="rect8"
       style="fill:#ffb86c" />
  </g>
  <path
     d="m44.502 27.418c-0.44762 0.03101-0.87091 0.27744-1.1133 0.69726l-4.8945 8.4766c-1.9264-0.49812-4.0723-0.79102-6.4941-0.79102s-4.5676 0.2929-6.4941 0.79102l-4.8926-8.4766c-0.29085-0.50386-0.84332-0.75735-1.3848-0.68945-0.18047 0.0224-0.36138 0.08127-0.5293 0.17774-0.67169 0.3878-0.89757 1.2384-0.50977 1.9102l4.6016 7.9707c-6.2474 2.5811-9.5099 7.7303-11.24 12.562a26 26 0 0 0 14.877 9.332 27 27 0 0 0 0.58984 0.13086 26 26 0 0 0 1.5762 0.23828 27 27 0 0 0 1.1621 0.13867 26 26 0 0 0 2.2441 0.11328 27 27 0 0 0 2.2227-0.11133 26 26 0 0 0 1.6172-0.19727 27 27 0 0 0 0.81641-0.12305 26 26 0 0 0 15.783-9.5469c-1.7322-4.8245-4.9915-9.96-11.227-12.537l4.6016-7.9707c0.3878-0.67172 0.15802-1.5224-0.51367-1.9102-0.25188-0.14542-0.53026-0.20415-0.79883-0.18555z"
     fill="#84b938"
     stroke-opacity=".55"
     stroke-width="2.8"
     id="path12"
     style="fill:#44c367" />
  <g
     transform="translate(0,1)"
     fill="#f8f8f2"
     stroke-width="1.0714"
     id="g18">
    <circle
       cx="24"
       cy="48"
       r="3"
       id="circle14" />
    <circle
       cx="40"
       cy="48"
       r="3"
       id="circle16" />
  </g>
  <g
     transform="translate(16,1)"
     stroke-opacity=".55"
     id="g24">
    <rect
       x="20"
       y="13"
       width="8"
       height="10"
       fill="#202224"
       stroke-width="2.5555"
       id="rect20"
       style="fill:#282a36" />
    <rect
       x="22"
       y="13"
       width="4"
       height="10"
       fill="#fdbc4a"
       stroke-width="2.7603"
       id="rect22"
       style="fill:#ffb86c" />
  </g>
</svg>
