<?xml version="1.0" encoding="UTF-8" standalone="no"?>
<svg
   width="64"
   height="64"
   version="1.1"
   id="svg8"
   sodipodi:docname="anjuta.svg"
   inkscape:version="1.2.2 (b0a8486541, 2022-12-01)"
   xmlns:inkscape="http://www.inkscape.org/namespaces/inkscape"
   xmlns:sodipodi="http://sodipodi.sourceforge.net/DTD/sodipodi-0.dtd"
   xmlns="http://www.w3.org/2000/svg"
   xmlns:svg="http://www.w3.org/2000/svg">
  <defs
     id="defs12" />
  <sodipodi:namedview
     id="namedview10"
     pagecolor="#505050"
     bordercolor="#eeeeee"
     borderopacity="1"
     inkscape:showpageshadow="0"
     inkscape:pageopacity="0"
     inkscape:pagecheckerboard="0"
     inkscape:deskcolor="#505050"
     showgrid="false"
     inkscape:zoom="15.921875"
     inkscape:cx="29.895976"
     inkscape:cy="32.031403"
     inkscape:window-width="2560"
     inkscape:window-height="1361"
     inkscape:window-x="0"
     inkscape:window-y="0"
     inkscape:window-maximized="1"
     inkscape:current-layer="svg8" />
  <g
     transform="matrix(1.35 0 0 1.35 -519.39 -675.24)"
     stroke-width=".74074"
     id="g6">
    <rect
       x="388.44"
       y="503.88"
       width="40"
       height="40"
       rx="20"
       fill="#8b50a2"
       stroke-opacity=".55027"
       stroke-width="2.0741"
       id="rect2"
       style="fill:#9576c5" />
    <path
       transform="translate(384.57 499.8)"
       d="m27.123 9s-3.1971 2.193-3.416 3.4375c0 0-6.7639-2.1381-12.707 3.5625h3s-7.8633 4.9141-8 8c0.13672-0.08594 1.4453-0.76837 2-1 0 0-1.9099 4.3991-0.45703 8.6914 2.847 6.1565 9.042 10.395 16.32 10.395 0.21967 0 0.43272-0.02361 0.65039-0.03125 0.25069-0.85842 1.4113-5.2821-0.72266-8.0371-1.8369-2.3766-5.0421-8.8239-0.79101-11.018 0 0 2.6867 3.7708 5.8418 4.1367 0 0 0.36829 3.2323 4.1816 1.1797 1.0178-0.54548 1.3962-2.3501 0.36914-3.8145l-0.80859-1.1699s-2.6773-6.4296-4.584-8.332c0 0-1-3 0-5 0 0-1.133 0.84125-1.5 1.5 0 0 0.25517-2.1366 0.62305-2.5z"
       fill="#f8f8f2"
       id="path4" />
  </g>
</svg>
