<?xml version="1.0" encoding="UTF-8" standalone="no"?>
<svg
   width="64"
   height="64"
   version="1.1"
   viewBox="0 0 16.933 16.933"
   id="svg20"
   sodipodi:docname="ankama-launcher.svg"
   inkscape:version="1.2.2 (b0a8486541, 2022-12-01)"
   xmlns:inkscape="http://www.inkscape.org/namespaces/inkscape"
   xmlns:sodipodi="http://sodipodi.sourceforge.net/DTD/sodipodi-0.dtd"
   xmlns="http://www.w3.org/2000/svg"
   xmlns:svg="http://www.w3.org/2000/svg">
  <defs
     id="defs24" />
  <sodipodi:namedview
     id="namedview22"
     pagecolor="#505050"
     bordercolor="#eeeeee"
     borderopacity="1"
     inkscape:showpageshadow="0"
     inkscape:pageopacity="0"
     inkscape:pagecheckerboard="0"
     inkscape:deskcolor="#505050"
     showgrid="false"
     inkscape:zoom="15.921875"
     inkscape:cx="29.895976"
     inkscape:cy="32.031403"
     inkscape:window-width="2560"
     inkscape:window-height="1361"
     inkscape:window-x="0"
     inkscape:window-y="0"
     inkscape:window-maximized="1"
     inkscape:current-layer="svg20" />
  <g
     transform="translate(0 -280.07)"
     id="g18">
    <circle
       cx="8.4667"
       cy="288.53"
       r="7.1438"
       fill="#f8f8f2"
       style="paint-order:stroke fill markers"
       id="circle2" />
    <g
       id="g16">
      <path
         d="m12.965 292.5c0.14657 0 0.26458-0.11801 0.26458-0.26458v-4.4979c0-0.14657-0.11801-0.26458-0.26458-0.26458h-1.5875v3.7042c0 0.14658-0.11801 0.26459-0.26458 0.26459h-2.6458c-0.14657 0-0.26458-0.11801-0.26458-0.26459v-3.7042h-1.5875c-0.14657 0-0.26458 0.11801-0.26458 0.26458v4.4979c0 0.14657 0.11801 0.26458 0.26458 0.26458z"
         fill="#fdc409"
         style="paint-order:stroke fill markers;fill:#ffb86c"
         id="path4" />
      <path
         transform="matrix(.26458 0 0 .26458 0 280.07)"
         d="m22 28v9l9-9z"
         fill="#b61f1d"
         style="paint-order:stroke fill markers;fill:#c7484a"
         id="path6" />
      <path
         d="m4.2333 284.83c-0.14657 0-0.26458 0.11801-0.26458 0.26458v4.4979c0 0.14657 0.11801 0.26458 0.26458 0.26458h1.5875v-3.7042c0-0.14658 0.11801-0.26459 0.26458-0.26459h2.6458c0.14657 0 0.26458 0.11801 0.26458 0.26459v3.7042h1.5875c0.14657 0 0.26458-0.11801 0.26458-0.26458v-4.4979c0-0.14657-0.11801-0.26458-0.26458-0.26458z"
         fill="#e5381f"
         style="paint-order:stroke fill markers;fill:#ff5555"
         id="path8" />
      <path
         transform="matrix(.26458 0 0 .26458 0 280.07)"
         d="m43 28-9 9h9z"
         fill="#e76f08"
         style="paint-order:stroke fill markers;fill:#c7925b"
         id="path10" />
      <rect
         x="11.642"
         y="285.62"
         width="1.0583"
         height="1.0583"
         ry="0"
         fill="#e76f08"
         style="paint-order:stroke fill markers;fill:#c7925b"
         id="rect12" />
      <rect
         transform="rotate(45)"
         x="208.92"
         y="201.81"
         width="1.0583"
         height="1.0583"
         ry="0"
         fill="#f6aa08"
         style="paint-order:stroke fill markers;fill:#c7925b"
         id="rect14" />
    </g>
  </g>
</svg>
