<?xml version="1.0" encoding="UTF-8" standalone="no"?>
<svg
   width="64"
   height="64"
   version="1.1"
   viewBox="0 0 16.933 16.933"
   id="svg14"
   sodipodi:docname="anydesk.svg"
   inkscape:version="1.2.2 (b0a8486541, 2022-12-01)"
   xmlns:inkscape="http://www.inkscape.org/namespaces/inkscape"
   xmlns:sodipodi="http://sodipodi.sourceforge.net/DTD/sodipodi-0.dtd"
   xmlns="http://www.w3.org/2000/svg"
   xmlns:svg="http://www.w3.org/2000/svg">
  <defs
     id="defs18" />
  <sodipodi:namedview
     id="namedview16"
     pagecolor="#505050"
     bordercolor="#eeeeee"
     borderopacity="1"
     inkscape:showpageshadow="0"
     inkscape:pageopacity="0"
     inkscape:pagecheckerboard="0"
     inkscape:deskcolor="#505050"
     showgrid="false"
     inkscape:zoom="15.921875"
     inkscape:cx="29.895976"
     inkscape:cy="32.031403"
     inkscape:window-width="2560"
     inkscape:window-height="1361"
     inkscape:window-x="0"
     inkscape:window-y="0"
     inkscape:window-maximized="1"
     inkscape:current-layer="svg14" />
  <circle
     cx="8.4665"
     cy="8.4665"
     r="7.1436"
     fill="#f8f8f2"
     style="paint-order:stroke fill markers;fill:#cbcccc"
     id="circle2" />
  <circle
     cx="8.4665"
     cy="8.4665"
     r="6.0853"
     fill="#f8f8f2"
     opacity=".75"
     stroke-width=".85185"
     style="paint-order:stroke fill markers"
     id="circle4" />
  <g
     transform="matrix(1.25 0 0 1.25 -2.4821 -2.2323)"
     stroke-width=".52916"
     id="g12">
    <path
       d="m7.7005 5.3841c-0.16631 0-0.33274 0.06199-0.45706 0.18631l-2.5315 2.5318c-0.24865 0.24864-0.24829 0.66474 3.57e-4 0.91338l2.5315 2.5318c0.24865 0.24864 0.66512 0.24899 0.91377 3.56e-4l2.5315-2.5318c0.24865-0.24864 0.24865-0.6651 0-0.91374l-2.5315-2.5318c-0.12432-0.12432-0.29075-0.18631-0.45706-0.18631z"
       fill="#8e8e8e"
       id="path6"
       style="fill:#9ea0a6" />
    <rect
       transform="rotate(45)"
       x="9.9524"
       y="-.94038"
       width="3.0919"
       height="3.0919"
       rx=".16827"
       ry=".16827"
       fill="#f8f8f2"
       id="rect8" />
    <path
       d="m9.8171 5.3841c-0.16631 0-0.33274 0.06199-0.45706 0.18631l-2.5315 2.5318c-0.24865 0.24864-0.24829 0.66474 3.572e-4 0.91338l2.5315 2.5318c0.24865 0.24864 0.66512 0.24899 0.91377 3.56e-4l2.5315-2.5318c0.24865-0.24864 0.24865-0.6651 0-0.91374l-2.5315-2.5318c-0.12432-0.12432-0.29075-0.18631-0.45706-0.18631z"
       fill="#e52e38"
       id="path10"
       style="fill:#c7484a" />
  </g>
</svg>
