<?xml version="1.0" encoding="UTF-8" standalone="no"?>
<svg
   width="64"
   height="64"
   viewBox="0 0 16.933 16.933"
   version="1.1"
   id="svg2"
   sodipodi:docname="anydesk.svg"
   inkscape:version="1.3.2 (091e20ef0f, 2023-11-25, custom)"
   xmlns:inkscape="http://www.inkscape.org/namespaces/inkscape"
   xmlns:sodipodi="http://sodipodi.sourceforge.net/DTD/sodipodi-0.dtd"
   xmlns="http://www.w3.org/2000/svg"
   xmlns:svg="http://www.w3.org/2000/svg">
  <defs
     id="defs2" />
  <sodipodi:namedview
     id="namedview2"
     pagecolor="#505050"
     bordercolor="#f8f8f2"
     borderopacity="1"
     inkscape:showpageshadow="0"
     inkscape:pageopacity="0"
     inkscape:pagecheckerboard="1"
     inkscape:deskcolor="#505050"
     inkscape:zoom="12.453125"
     inkscape:cx="32"
     inkscape:cy="32"
     inkscape:window-width="1920"
     inkscape:window-height="1013"
     inkscape:window-x="0"
     inkscape:window-y="0"
     inkscape:window-maximized="1"
     inkscape:current-layer="g2" />
  <g
     stroke-width=".529"
     transform="matrix(2 0 0 2 -9.051 -8.652)"
     id="g2">
    <path
       fill="#8e8e8e"
       d="M7.7 5.384a.644.644 0 0 0-.457.186L4.712 8.102a.652.652 0 0 0 0 .914l2.532 2.531a.653.653 0 0 0 .914 0l2.531-2.531a.653.653 0 0 0 0-.914L8.158 5.57a.644.644 0 0 0-.457-.186z"
       id="path1" />
    <rect
       width="3.092"
       height="3.092"
       x="9.952"
       y="-.94"
       fill="#f8f8f2"
       rx=".168"
       ry=".168"
       transform="rotate(45)"
       id="rect1" />
    <path
       fill="#e52e38"
       d="M9.817 5.384a.644.644 0 0 0-.457.186L6.829 8.102a.652.652 0 0 0 0 .914l2.531 2.531a.653.653 0 0 0 .914 0l2.532-2.531a.653.653 0 0 0 0-.914L10.274 5.57a.644.644 0 0 0-.457-.186z"
       id="path2"
       style="fill:#c7484a" />
  </g>
</svg>
