<?xml version="1.0" encoding="UTF-8" standalone="no"?>
<svg
   width="64"
   height="64"
   viewBox="0 0 16.933 16.933"
   version="1.1"
   id="svg3"
   sodipodi:docname="AppImageLauncher.svg"
   inkscape:version="1.3.2 (091e20ef0f, 2023-11-25, custom)"
   xmlns:inkscape="http://www.inkscape.org/namespaces/inkscape"
   xmlns:sodipodi="http://sodipodi.sourceforge.net/DTD/sodipodi-0.dtd"
   xmlns="http://www.w3.org/2000/svg"
   xmlns:svg="http://www.w3.org/2000/svg">
  <defs
     id="defs3" />
  <sodipodi:namedview
     id="namedview3"
     pagecolor="#505050"
     bordercolor="#f8f8f2"
     borderopacity="1"
     inkscape:showpageshadow="0"
     inkscape:pageopacity="0"
     inkscape:pagecheckerboard="1"
     inkscape:deskcolor="#505050"
     inkscape:zoom="12.453125"
     inkscape:cx="32"
     inkscape:cy="32"
     inkscape:window-width="1920"
     inkscape:window-height="1013"
     inkscape:window-x="0"
     inkscape:window-y="0"
     inkscape:window-maximized="1"
     inkscape:current-layer="g2" />
  <g
     transform="translate(0 -280.07)"
     id="g2">
    <circle
       cx="8.466"
       cy="288.54"
       r="7.144"
       fill="#00415a"
       style="paint-order:stroke markers fill;fill:#44475a"
       id="circle1" />
    <circle
       cx="8.466"
       cy="288.54"
       r="5.821"
       fill="#f8f8f2"
       opacity=".1"
       style="paint-order:stroke markers fill"
       id="circle2" />
  </g>
  <g
     fill="#f8f8f2"
     id="g3">
    <path
       d="M32 16.021A15.982 15.978 0 0 0 16.018 32 15.982 15.978 0 0 0 32 47.979 15.982 15.978 0 0 0 47.982 32 15.982 15.978 0 0 0 32 16.021zm0 1.994A13.988 13.984 0 0 1 45.988 32 13.988 13.984 0 0 1 32 45.983 13.988 13.984 0 0 1 18.012 32 13.988 13.984 0 0 1 32 18.015z"
       opacity=".988"
       style="font-feature-settings:normal;font-variant-caps:normal;font-variant-ligatures:normal;font-variant-numeric:normal;paint-order:stroke fill markers"
       transform="matrix(.26458 0 0 .26458 0 0)"
       id="path2" />
    <path
       d="m-8925.2-8160.4-54.587 67.21 47.756-19.744 6.83-2.822zm0 0 54.587 67.21-47.756-19.744-6.83-2.822z"
       opacity=".988"
       style="font-feature-settings:normal;font-variant-caps:normal;font-variant-ligatures:normal;font-variant-numeric:normal;paint-order:stroke fill markers"
       transform="matrix(.05974 0 0 .08124 541.664 667.738)"
       id="path3" />
  </g>
</svg>
