<?xml version="1.0" encoding="UTF-8" standalone="no"?>
<svg
   width="64"
   height="64"
   version="1.0"
   id="svg2"
   sodipodi:docname="applications-electronics-Spice.svg"
   inkscape:version="1.3.2 (091e20ef0f, 2023-11-25, custom)"
   xmlns:inkscape="http://www.inkscape.org/namespaces/inkscape"
   xmlns:sodipodi="http://sodipodi.sourceforge.net/DTD/sodipodi-0.dtd"
   xmlns="http://www.w3.org/2000/svg"
   xmlns:svg="http://www.w3.org/2000/svg">
  <defs
     id="defs2" />
  <sodipodi:namedview
     id="namedview2"
     pagecolor="#505050"
     bordercolor="#ffffff"
     borderopacity="1"
     inkscape:showpageshadow="0"
     inkscape:pageopacity="0"
     inkscape:pagecheckerboard="1"
     inkscape:deskcolor="#505050"
     inkscape:zoom="12.453125"
     inkscape:cx="32"
     inkscape:cy="32"
     inkscape:window-width="1920"
     inkscape:window-height="1013"
     inkscape:window-x="0"
     inkscape:window-y="0"
     inkscape:window-maximized="1"
     inkscape:current-layer="svg2" />
  <rect
     x="6"
     y="6"
     width="52"
     height="52"
     rx="8"
     ry="8"
     fill="#677821"
     fill-opacity=".9098"
     id="rect1"
     style="fill:#44c367" />
  <rect
     x="6"
     y="20"
     width="52"
     height="24"
     fill="#a1972f"
     fill-opacity=".96078"
     opacity=".5"
     stroke-linecap="round"
     stroke-linejoin="round"
     stroke-width=".6368"
     id="rect2"
     style="fill:#25733a;fill-opacity:0.96078002" />
  <path
     d="m41.599 39.237q0 4.1417-2.9372 6.4523-2.9372 2.3106-7.9178 2.3106-2.5541 0-4.7251-0.39237-2.171-0.39237-3.6183-1.0899v-3.7493q1.5325 0.69755 3.7886 1.2643 2.2987 0.56676 4.7251 0.56676 3.4055 0 5.1082-1.3515 1.7453-1.3515 1.7453-3.6621 0-1.5259-0.63853-2.5722-0.63853-1.0463-2.2136-1.9183-1.5325-0.91553-4.2994-1.9183-3.8738-1.4387-5.8745-3.5313-1.9582-2.0926-1.9582-5.7112 0-2.485 1.2345-4.2289 1.2345-1.7875 3.4055-2.7466 2.2136-0.95913 5.0657-0.95913 2.5116 0 4.5974 0.47956 2.0859 0.47956 3.7886 1.2643l-1.1919 3.3569q-1.575-0.69755-3.4481-1.1771-1.8304-0.47956-3.8312-0.47956-2.8521 0-4.2994 1.2643-1.4473 1.2207-1.4473 3.2698 0 1.5695 0.63853 2.6158 0.63853 1.0463 2.0859 1.8747t3.9163 1.7875q2.6818 1.0027 4.5123 2.1798 1.873 1.1335 2.8095 2.7466 0.97907 1.6131 0.97907 4.0545z"
     fill="#f8f8f2"
     stroke-width=".13777"
     aria-label="S"
     id="path2" />
</svg>
