<?xml version="1.0" encoding="UTF-8" standalone="no"?>
<svg
   width="64"
   height="64"
   version="1.1"
   viewBox="0 0 16.933 16.933"
   id="svg1076"
   sodipodi:docname="applications-accessories.svg"
   inkscape:version="1.2.2 (b0a8486541, 2022-12-01)"
   xmlns:inkscape="http://www.inkscape.org/namespaces/inkscape"
   xmlns:sodipodi="http://sodipodi.sourceforge.net/DTD/sodipodi-0.dtd"
   xmlns="http://www.w3.org/2000/svg"
   xmlns:svg="http://www.w3.org/2000/svg">
  <defs
     id="defs1080" />
  <sodipodi:namedview
     id="namedview1078"
     pagecolor="#505050"
     bordercolor="#eeeeee"
     borderopacity="1"
     inkscape:showpageshadow="0"
     inkscape:pageopacity="0"
     inkscape:pagecheckerboard="0"
     inkscape:deskcolor="#505050"
     showgrid="false"
     inkscape:zoom="15.921875"
     inkscape:cx="29.895976"
     inkscape:cy="32.031403"
     inkscape:window-width="2560"
     inkscape:window-height="1361"
     inkscape:window-x="0"
     inkscape:window-y="0"
     inkscape:window-maximized="1"
     inkscape:current-layer="svg1076" />
  <g
     transform="translate(0 -280.07)"
     id="g1074">
    <circle
       cx="8.4665"
       cy="288.53"
       r="7.1436"
       fill="#7091e3"
       style="paint-order:stroke markers fill;fill:#6272a4"
       id="circle1068" />
    <path
       d="m8.467 285.89a2.646 2.646 0 0 0-2.646 2.645 2.646 2.646 0 0 0 2.646 2.646 2.646 2.646 0 0 0 2.645-2.646 2.646 2.646 0 0 0-2.645-2.645zm0 1.322a1.323 1.323 0 0 1 1.323 1.323 1.323 1.323 0 0 1-1.323 1.323 1.323 1.323 0 0 1-1.323-1.323 1.323 1.323 0 0 1 1.323-1.323z"
       opacity=".15"
       paint-order="stroke markers fill"
       id="path1070"
       style="fill:#282a36;opacity:0.3" />
    <path
       d="M7.958 283.77v1.106a1.525 1.525 0 0 0-1.017 1.437 1.525 1.525 0 0 0 .776 1.327l-.734 2.74h-.55v.509h.414l-.411 1.533.29.874.646-2.407H9.56l.644 2.407.291-.874-.41-1.533h.415v-.509h-.552l-.734-2.74a1.525 1.525 0 0 0 .778-1.327 1.525 1.525 0 0 0-1.017-1.436v-1.106zm.509 2.035a.508.508 0 0 1 .508.508.508.508 0 0 1-.508.508.508.508 0 0 1-.509-.508.508.508 0 0 1 .509-.508zm-.27 2.007a1.525 1.525 0 0 0 .27.026 1.525 1.525 0 0 0 .269-.024l.687 2.566H7.508z"
       fill="#f8f8f2"
       id="path1072"
       style="fill:#f8f8f2" />
  </g>
</svg>
