<?xml version="1.0" encoding="UTF-8" standalone="no"?>
<svg
   width="64"
   height="64"
   version="1.1"
   viewBox="0 0 16.933 16.933"
   id="svg5107"
   sodipodi:docname="gnome-games.svg"
   inkscape:version="1.2.2 (b0a8486541, 2022-12-01)"
   xmlns:inkscape="http://www.inkscape.org/namespaces/inkscape"
   xmlns:sodipodi="http://sodipodi.sourceforge.net/DTD/sodipodi-0.dtd"
   xmlns="http://www.w3.org/2000/svg"
   xmlns:svg="http://www.w3.org/2000/svg">
  <defs
     id="defs5111" />
  <sodipodi:namedview
     id="namedview5109"
     pagecolor="#505050"
     bordercolor="#eeeeee"
     borderopacity="1"
     inkscape:showpageshadow="0"
     inkscape:pageopacity="0"
     inkscape:pagecheckerboard="0"
     inkscape:deskcolor="#505050"
     showgrid="false"
     inkscape:zoom="15.921875"
     inkscape:cx="27.76055"
     inkscape:cy="32.09421"
     inkscape:window-width="1280"
     inkscape:window-height="1361"
     inkscape:window-x="1280"
     inkscape:window-y="0"
     inkscape:window-maximized="0"
     inkscape:current-layer="svg5107" />
  <g
     transform="translate(0 -280.07)"
     id="g5105">
    <circle
       cx="8.4665"
       cy="288.53"
       r="7.1436"
       fill="#f88e45"
       style="paint-order:stroke markers fill;fill:#ffb86c"
       id="circle5087" />
    <path
       d="M4.07 287.872l-.344 2.688a.697.697 0 0 0-.022.17c0 .394.328.713.733.713a.74.74 0 0 0 .563-.258v.001l2.001-2.243zm8.793 0l-2.931 1.071 2 2.244.001-.001a.74.74 0 0 0 .563.258c.405 0 .733-.32.733-.714a.693.693 0 0 0-.021-.17z"
       fill="#f8f8f2"
       id="path5089"
       style="fill:#f8f8f2" />
    <path
       d="m6.218 285.09a2.249 2.249 0 1 0 1.24 4.123h2.017a2.249 2.249 0 1 0 1.24-4.123h-2.623z"
       fill="#f8f8f2"
       id="path5091"
       style="fill:#f8f8f2" />
    <path
       d="M10.848 285.887a.397.397 0 0 0-.397.397.397.397 0 0 0 .397.397.397.397 0 0 0 .397-.397.397.397 0 0 0-.397-.397z"
       fill="#27ae60"
       id="path5093"
       style="fill:#44c367" />
    <path
       d="M10.054 286.681a.397.397 0 0 0-.397.397.397.397 0 0 0 .397.397.397.397 0 0 0 .397-.397.397.397 0 0 0-.397-.397z"
       fill="#f36137"
       id="path5095"
       style="fill:#ff5555" />
    <path
       d="M11.642 286.681a.397.397 0 0 0-.397.397.397.397 0 0 0 .397.397.397.397 0 0 0 .397-.397.397.397 0 0 0-.397-.397z"
       fill="#f05242"
       id="path5097"
       style="fill:#c7484a" />
    <path
       d="M10.848 287.475a.397.397 0 0 0-.397.397.397.397 0 0 0 .397.397.397.397 0 0 0 .397-.397.397.397 0 0 0-.397-.397z"
       fill="#2980b9"
       id="path5099"
       style="fill:#6272a4" />
    <circle
       cx="6.085"
       cy="286.95"
       r=".794"
       fill="#f88e45"
       paint-order="stroke markers fill"
       id="circle5101"
       style="fill:#ffb86c" />
    <path
       d="M7.144 288.533a.53.53 0 0 0-.53.53.53.53 0 0 0 .53.529.53.53 0 0 0 .529-.53.53.53 0 0 0-.53-.529zM9.79 288.533a.53.53 0 0 0-.53.53.53.53 0 0 0 .53.529.53.53 0 0 0 .529-.53.53.53 0 0 0-.53-.529z"
       fill="#717380"
       stroke="#e1e1e1"
       stroke-linecap="square"
       stroke-width=".529"
       paint-order="markers stroke fill"
       id="path5103"
       style="fill:#44475a;stroke:#cbcccc" />
  </g>
</svg>
