<?xml version="1.0" encoding="UTF-8" standalone="no"?>
<svg
   width="64"
   height="64"
   version="1"
   id="svg6"
   sodipodi:docname="around.svg"
   inkscape:version="1.3.2 (091e20ef0f, 2023-11-25, custom)"
   xmlns:inkscape="http://www.inkscape.org/namespaces/inkscape"
   xmlns:sodipodi="http://sodipodi.sourceforge.net/DTD/sodipodi-0.dtd"
   xmlns="http://www.w3.org/2000/svg"
   xmlns:svg="http://www.w3.org/2000/svg">
  <defs
     id="defs6" />
  <sodipodi:namedview
     id="namedview6"
     pagecolor="#505050"
     bordercolor="#f8f8f2"
     borderopacity="1"
     inkscape:showpageshadow="0"
     inkscape:pageopacity="0"
     inkscape:pagecheckerboard="1"
     inkscape:deskcolor="#505050"
     inkscape:zoom="12.453125"
     inkscape:cx="32"
     inkscape:cy="32"
     inkscape:window-width="1920"
     inkscape:window-height="1013"
     inkscape:window-x="0"
     inkscape:window-y="0"
     inkscape:window-maximized="1"
     inkscape:current-layer="svg6" />
  <rect
     width="52"
     height="52"
     x="6"
     y="6"
     fill="#44475a"
     fill-rule="evenodd"
     rx="8"
     ry="8"
     style="paint-order:stroke fill markers"
     id="rect1" />
  <path
     fill="#248afd"
     d="M35.375 32A10.125 10.125 0 0 1 25.25 42.125 10.125 10.125 0 0 1 15.125 32 10.125 10.125 0 0 1 25.25 21.875 10.125 10.125 0 0 1 35.375 32Z"
     id="path1"
     style="fill:#13b1d5" />
  <path
     fill="#e97e10"
     d="M28.625 32A10.125 10.125 0 0 0 38.75 42.125 10.125 10.125 0 0 0 48.875 32 10.125 10.125 0 0 0 38.75 21.875 10.125 10.125 0 0 0 28.625 32Z"
     id="path2"
     style="fill:#c7925b" />
  <path
     fill="#e3424a"
     d="M42.125 32A10.125 10.125 0 0 1 32 42.125 10.125 10.125 0 0 1 21.875 32 10.125 10.125 0 0 1 32 21.875 10.125 10.125 0 0 1 42.125 32Z"
     id="path3"
     style="fill:#ff5555" />
  <path
     fill="#50beee"
     d="M28.625 22.481a10.125 10.125 0 0 0-6.75 9.518 10.125 10.125 0 0 0 6.783 9.532A10.125 10.125 0 0 0 35.375 32a10.125 10.125 0 0 0-6.75-9.518z"
     id="path4" />
  <path
     fill="#fecd38"
     d="M35.375 22.481a10.125 10.125 0 0 0-6.75 9.518 10.125 10.125 0 0 0 6.75 9.519A10.125 10.125 0 0 0 42.125 32a10.125 10.125 0 0 0-6.75-9.519z"
     id="path5"
     style="fill:#fdc88e" />
  <path
     fill="#ff90b8"
     d="M32 24.466A10.125 10.125 0 0 0 28.625 32a10.125 10.125 0 0 0 3.382 7.541 10.125 10.125 0 0 0 3.368-7.54A10.125 10.125 0 0 0 32 24.465z"
     id="path6"
     style="fill:#fd7e7c" />
</svg>
