<?xml version="1.0" encoding="UTF-8" standalone="no"?>
<svg
   width="64"
   height="64"
   version="1"
   id="svg18"
   sodipodi:docname="around.svg"
   inkscape:version="1.2.2 (b0a8486541, 2022-12-01)"
   xmlns:inkscape="http://www.inkscape.org/namespaces/inkscape"
   xmlns:sodipodi="http://sodipodi.sourceforge.net/DTD/sodipodi-0.dtd"
   xmlns="http://www.w3.org/2000/svg"
   xmlns:svg="http://www.w3.org/2000/svg">
  <defs
     id="defs22" />
  <sodipodi:namedview
     id="namedview20"
     pagecolor="#505050"
     bordercolor="#eeeeee"
     borderopacity="1"
     inkscape:showpageshadow="0"
     inkscape:pageopacity="0"
     inkscape:pagecheckerboard="0"
     inkscape:deskcolor="#505050"
     showgrid="false"
     inkscape:zoom="15.921875"
     inkscape:cx="29.895976"
     inkscape:cy="32.031403"
     inkscape:window-width="2560"
     inkscape:window-height="1361"
     inkscape:window-x="0"
     inkscape:window-y="0"
     inkscape:window-maximized="1"
     inkscape:current-layer="svg18" />
  <g
     transform="translate(5 5) scale(3.375)"
     id="g16">
    <rect
       width="16"
       height="16"
       fill="#44475a"
       rx="8"
       ry="8"
       id="rect2" />
    <path
       fill="#248afd"
       d="M9 8a3 3 0 0 1-3 3 3 3 0 0 1-3-3 3 3 0 0 1 3-3 3 3 0 0 1 3 3z"
       id="path4"
       style="fill:#168daa" />
    <path
       fill="#e97e10"
       d="M7 8a3 3 0 0 0 3 3 3 3 0 0 0 3-3 3 3 0 0 0-3-3 3 3 0 0 0-3 3z"
       id="path6"
       style="fill:#c7925b" />
    <path
       fill="#e3424a"
       d="M11 8a3 3 0 0 1-3 3 3 3 0 0 1-3-3 3 3 0 0 1 3-3 3 3 0 0 1 3 3z"
       id="path8"
       style="fill:#c7484a" />
    <path
       fill="#50beee"
       d="M7 5.18A3 3 0 0 0 5 8a3 3 0 0 0 2.01 2.824A3 3 0 0 0 9 8a3 3 0 0 0-2-2.82z"
       id="path10"
       style="fill:#13b1d5" />
    <path
       fill="#fecd38"
       d="M9 5.18A3 3 0 0 0 7 8a3 3 0 0 0 2 2.82A3 3 0 0 0 11 8a3 3 0 0 0-2-2.82z"
       id="path12"
       style="fill:#fdc88e" />
    <path
       fill="#ff90b8"
       d="M8 5.768A3 3 0 0 0 7 8a3 3 0 0 0 1.002 2.234A3 3 0 0 0 9 8a3 3 0 0 0-1-2.232z"
       id="path14"
       style="fill:#fd7e7c" />
  </g>
</svg>
