<?xml version="1.0" encoding="UTF-8" standalone="no"?>
<svg
   width="64"
   height="64"
   version="1.1"
   id="svg9"
   sodipodi:docname="asc-de.svg"
   inkscape:version="1.3.2 (091e20ef0f, 2023-11-25, custom)"
   xmlns:inkscape="http://www.inkscape.org/namespaces/inkscape"
   xmlns:sodipodi="http://sodipodi.sourceforge.net/DTD/sodipodi-0.dtd"
   xmlns="http://www.w3.org/2000/svg"
   xmlns:svg="http://www.w3.org/2000/svg">
  <defs
     id="defs9" />
  <sodipodi:namedview
     id="namedview9"
     pagecolor="#505050"
     bordercolor="#f8f8f2"
     borderopacity="1"
     inkscape:showpageshadow="0"
     inkscape:pageopacity="0"
     inkscape:pagecheckerboard="1"
     inkscape:deskcolor="#505050"
     inkscape:zoom="12.453125"
     inkscape:cx="32"
     inkscape:cy="32"
     inkscape:window-width="1920"
     inkscape:window-height="1013"
     inkscape:window-x="0"
     inkscape:window-y="0"
     inkscape:window-maximized="1"
     inkscape:current-layer="g9" />
  <g
     font-weight="400"
     id="g9">
    <path
       fill="#f35a23"
       d="M32 35.55c.637 0 1.342.226 2.834.723l21.95 8.978c.874.44 1.216 1.023 1.216 1.55 0 .525-.342 1.108-1.217 1.548l-21.99 8.996-.016.01c-1.88.94-3.674.94-5.554 0l-.016-.01-21.99-8.996C6.342 47.909 6 47.326 6 46.8s.342-1.109 1.217-1.549l21.941-8.976h.008c1.492-.497 2.197-.723 2.834-.723z"
       overflow="visible"
       style="font-feature-settings:normal;font-variant-alternates:normal;font-variant-caps:normal;font-variant-ligatures:normal;font-variant-numeric:normal;font-variant-position:normal;isolation:auto;mix-blend-mode:normal;shape-padding:0;text-decoration-color:#282a36;text-decoration-line:none;text-decoration-style:solid;text-indent:0;text-orientation:mixed;text-transform:none;white-space:normal;fill:#ff5555"
       transform="translate(0 -1.805)"
       id="path1" />
    <path
       fill-opacity=".078"
       d="M32 35.55v.003c-.637 0-1.342.225-2.834.722h-.008L13.11 42.842l15.702 6.424c2.097 1.037 4.28 1.037 6.378 0l15.702-6.424-16.057-6.569c-1.492-.497-2.197-.722-2.834-.722z"
       overflow="visible"
       style="font-feature-settings:normal;font-variant-alternates:normal;font-variant-caps:normal;font-variant-ligatures:normal;font-variant-numeric:normal;font-variant-position:normal;isolation:auto;mix-blend-mode:normal;shape-padding:0;text-decoration-color:#282a36;text-decoration-line:none;text-decoration-style:solid;text-indent:0;text-orientation:mixed;text-transform:none;white-space:normal"
       transform="translate(0 -1.805)"
       id="path2" />
    <path
       fill="#8bc34a"
       d="M32 22.55c.637 0 1.342.226 2.834.723l21.95 8.979c.874.44 1.216 1.022 1.216 1.548 0 .527-.342 1.11-1.217 1.55l-21.99 8.995-.016.01c-1.88.94-3.674.94-5.554 0l-.016-.01-21.99-8.996C6.342 34.91 6 34.327 6 33.8c0-.526.342-1.109 1.217-1.548l21.941-8.977h.008c1.492-.497 2.197-.723 2.834-.723z"
       overflow="visible"
       style="font-feature-settings:normal;font-variant-alternates:normal;font-variant-caps:normal;font-variant-ligatures:normal;font-variant-numeric:normal;font-variant-position:normal;isolation:auto;mix-blend-mode:normal;shape-padding:0;text-decoration-color:#282a36;text-decoration-line:none;text-decoration-style:solid;text-indent:0;text-orientation:mixed;text-transform:none;white-space:normal;fill:#44c367"
       transform="translate(0 -1.805)"
       id="path3" />
    <path
       fill="#7eb73d"
       d="M32 34.543v.01c-.861 0-1.658.275-3.158.775l-.016.01-.015.01-10.801 4.42 11.197 4.58.016.01c1.88.94 3.674.94 5.554 0l.016-.01 11.209-4.586-10.828-4.43-.016-.011c-1.5-.5-2.297-.776-3.158-.776z"
       overflow="visible"
       style="font-feature-settings:normal;font-variant-alternates:normal;font-variant-caps:normal;font-variant-ligatures:normal;font-variant-numeric:normal;font-variant-position:normal;isolation:auto;mix-blend-mode:normal;shape-padding:0;text-decoration-color:#282a36;text-decoration-line:none;text-decoration-style:solid;text-indent:0;text-orientation:mixed;text-transform:none;white-space:normal;fill:#329d50;fill-opacity:1"
       transform="translate(0 -1.805)"
       id="path4" />
    <path
       fill="#83be3f"
       d="M32 35.55v.003c-.637 0-1.342.225-2.834.722h-.008l-9.84 4.026 9.889 4.045.016.01c1.88.94 3.674.94 5.554 0l.016-.01L44.68 40.3l-9.846-4.028c-1.492-.497-2.197-.722-2.834-.722z"
       overflow="visible"
       style="font-feature-settings:normal;font-variant-alternates:normal;font-variant-caps:normal;font-variant-ligatures:normal;font-variant-numeric:normal;font-variant-position:normal;isolation:auto;mix-blend-mode:normal;shape-padding:0;text-decoration-color:#282a36;text-decoration-line:none;text-decoration-style:solid;text-indent:0;text-orientation:mixed;text-transform:none;white-space:normal;fill:#37ac57;fill-opacity:1"
       transform="translate(0 -1.805)"
       id="path5" />
    <path
       fill-opacity=".078"
       d="M32 22.55v.003c-.637 0-1.342.225-2.834.722h-.008L13.11 29.842l15.702 6.424c2.097 1.037 4.28 1.037 6.378 0l15.702-6.424-16.057-6.569c-1.492-.497-2.197-.722-2.834-.722z"
       overflow="visible"
       style="font-feature-settings:normal;font-variant-alternates:normal;font-variant-caps:normal;font-variant-ligatures:normal;font-variant-numeric:normal;font-variant-position:normal;isolation:auto;mix-blend-mode:normal;shape-padding:0;text-decoration-color:#282a36;text-decoration-line:none;text-decoration-style:solid;text-indent:0;text-orientation:mixed;text-transform:none;white-space:normal"
       transform="translate(0 -1.805)"
       id="path6" />
    <path
       fill="#29b6f6"
       d="M32 9.55c.637 0 1.342.226 2.834.723l21.95 8.979c.874.44 1.216 1.022 1.216 1.548 0 .527-.342 1.11-1.217 1.55l-21.99 8.995-.016.01c-1.88.94-3.674.94-5.554 0l-.016-.01-21.99-8.996C6.342 21.91 6 21.327 6 20.8c0-.526.342-1.109 1.217-1.548l21.941-8.977h.008c1.492-.497 2.197-.723 2.834-.723z"
       overflow="visible"
       style="font-feature-settings:normal;font-variant-alternates:normal;font-variant-caps:normal;font-variant-ligatures:normal;font-variant-numeric:normal;font-variant-position:normal;isolation:auto;mix-blend-mode:normal;shape-padding:0;text-decoration-color:#282a36;text-decoration-line:none;text-decoration-style:solid;text-indent:0;text-orientation:mixed;text-transform:none;white-space:normal"
       transform="translate(0 -1.805)"
       id="path7" />
    <path
       fill="#0aa8f0"
       d="M32 21.545v.006c-.861 0-1.658.275-3.158.775l-.016.01-.015.01-10.801 4.42 11.197 4.58.016.01c1.88.94 3.674.94 5.554 0l.016-.01 11.209-4.586-10.828-4.43-.016-.01c-1.5-.5-2.297-.775-3.158-.775z"
       overflow="visible"
       style="font-feature-settings:normal;font-variant-alternates:normal;font-variant-caps:normal;font-variant-ligatures:normal;font-variant-numeric:normal;font-variant-position:normal;isolation:auto;mix-blend-mode:normal;shape-padding:0;text-decoration-color:#282a36;text-decoration-line:none;text-decoration-style:solid;text-indent:0;text-orientation:mixed;text-transform:none;white-space:normal"
       transform="translate(0 -1.805)"
       id="path8" />
    <path
       fill="#10adf5"
       d="M32 22.55v.003c-.637 0-1.342.225-2.834.722h-.008l-9.84 4.026 9.889 4.045.016.01c1.88.94 3.674.94 5.554 0l.016-.01L44.68 27.3l-9.846-4.028c-1.492-.497-2.197-.722-2.834-.722z"
       overflow="visible"
       style="font-feature-settings:normal;font-variant-alternates:normal;font-variant-caps:normal;font-variant-ligatures:normal;font-variant-numeric:normal;font-variant-position:normal;isolation:auto;mix-blend-mode:normal;shape-padding:0;text-decoration-color:#282a36;text-decoration-line:none;text-decoration-style:solid;text-indent:0;text-orientation:mixed;text-transform:none;white-space:normal"
       transform="translate(0 -1.805)"
       id="path9" />
  </g>
</svg>
