<?xml version="1.0" encoding="UTF-8" standalone="no"?>
<svg
   width="64"
   height="64"
   viewBox="0 0 16.933 16.933"
   version="1.1"
   id="svg8"
   sodipodi:docname="autofirma.svg"
   inkscape:version="1.2.2 (b0a8486541, 2022-12-01)"
   xmlns:inkscape="http://www.inkscape.org/namespaces/inkscape"
   xmlns:sodipodi="http://sodipodi.sourceforge.net/DTD/sodipodi-0.dtd"
   xmlns="http://www.w3.org/2000/svg"
   xmlns:svg="http://www.w3.org/2000/svg">
  <defs
     id="defs12" />
  <sodipodi:namedview
     id="namedview10"
     pagecolor="#505050"
     bordercolor="#eeeeee"
     borderopacity="1"
     inkscape:showpageshadow="0"
     inkscape:pageopacity="0"
     inkscape:pagecheckerboard="0"
     inkscape:deskcolor="#505050"
     showgrid="false"
     inkscape:zoom="15.921875"
     inkscape:cx="29.895976"
     inkscape:cy="32.031403"
     inkscape:window-width="2560"
     inkscape:window-height="1361"
     inkscape:window-x="0"
     inkscape:window-y="0"
     inkscape:window-maximized="1"
     inkscape:current-layer="svg8" />
  <circle
     cx="8.502"
     cy="8.466"
     r="7.144"
     fill="#98141b"
     style="paint-order:stroke fill markers;fill:#c7484a"
     id="circle2" />
  <circle
     cx="8.502"
     cy="8.466"
     r="6.35"
     fill="#f8f8f2"
     opacity=".15"
     style="paint-order:stroke fill markers;opacity:0.2"
     id="circle4" />
  <path
     fill="#f8f8f2"
     d="M8.466 4.685c1.89 0 3.109.238 3.663.7.555.47.835 1.506.835 3.097v.347H8.467V7.811h3.29c-.054-.877-.225-1.432-.511-1.67-.342-.292-1.274-.438-2.78-.438V4.685zm0 6.552c1.384 0 2.286-.08 2.694-.244.415-.165.616-.512.616-1.055h1.188c0 .97-.28 1.597-.835 1.884-.554.286-1.773.426-3.663.426zm-.006 1.011c-1.889 0-3.108-.231-3.663-.695-.554-.463-.828-1.493-.828-3.077 0-1.591.274-2.621.828-3.09.555-.464 1.774-.701 3.663-.701h.006v1.018H8.46c-1.505 0-2.437.146-2.79.438-.275.238-.446.793-.5 1.67h3.297V8.83H5.15c.037 1.042.207 1.7.53 1.975.348.286 1.274.432 2.78.432h.005v1.012z"
     id="path6" />
</svg>
