<?xml version="1.0" encoding="UTF-8" standalone="no"?>
<svg
   width="64"
   height="64"
   version="1.1"
   id="svg6"
   sodipodi:docname="babe.svg"
   inkscape:version="1.2.2 (b0a8486541, 2022-12-01)"
   xmlns:inkscape="http://www.inkscape.org/namespaces/inkscape"
   xmlns:sodipodi="http://sodipodi.sourceforge.net/DTD/sodipodi-0.dtd"
   xmlns="http://www.w3.org/2000/svg"
   xmlns:svg="http://www.w3.org/2000/svg">
  <defs
     id="defs10" />
  <sodipodi:namedview
     id="namedview8"
     pagecolor="#505050"
     bordercolor="#eeeeee"
     borderopacity="1"
     inkscape:showpageshadow="0"
     inkscape:pageopacity="0"
     inkscape:pagecheckerboard="0"
     inkscape:deskcolor="#505050"
     showgrid="false"
     inkscape:zoom="15.921875"
     inkscape:cx="29.895976"
     inkscape:cy="32.031403"
     inkscape:window-width="2560"
     inkscape:window-height="1361"
     inkscape:window-x="0"
     inkscape:window-y="0"
     inkscape:window-maximized="1"
     inkscape:current-layer="svg6" />
  <circle
     cx="32"
     cy="32"
     r="27"
     fill="#f06292"
     style="paint-order:stroke fill markers;fill:#c7639f"
     id="circle2" />
  <path
     d="m24 18v4h4v-4zm12 0v4h4v-4zm-18 2v4h4v-4zm24 0v4h4v-4zm-30 2v4h4v-4zm18 0v4h4v-4zm18 0v4h4v-4zm-24 2v4h4v-4zm12 0v4h4v-4zm-18 2v4h4v-4zm24 0v4h4v-4zm-30 2v4h4v-4zm18 0v4h4v-4zm18 0v4h4v-4zm-24 2v4h4v-4zm12 0v4h4v-4zm-18 2v4h4v-4zm24 0v4h4v-4zm-30 2v4h4v-4zm18 0v4h4v-4zm18 0v4h4v-4zm-24 2v4h4v-4zm12 0v4h4v-4zm-18 2v4h4v-4zm24 0v4h4v-4zm-12 2v4h4v-4zm-6 2v4h4v-4zm12 0v4h4v-4zm-6 4v4h4v-4z"
     fill="#fce4ec"
     id="path4"
     style="fill:#f8f8f2" />
</svg>
