<?xml version="1.0" encoding="UTF-8" standalone="no"?>
<svg
   width="64"
   height="64"
   version="1.1"
   id="svg1"
   sodipodi:docname="babe.svg"
   inkscape:version="1.3.2 (091e20ef0f, 2023-11-25, custom)"
   xmlns:inkscape="http://www.inkscape.org/namespaces/inkscape"
   xmlns:sodipodi="http://sodipodi.sourceforge.net/DTD/sodipodi-0.dtd"
   xmlns="http://www.w3.org/2000/svg"
   xmlns:svg="http://www.w3.org/2000/svg">
  <defs
     id="defs1" />
  <sodipodi:namedview
     id="namedview1"
     pagecolor="#505050"
     bordercolor="#f8f8f2"
     borderopacity="1"
     inkscape:showpageshadow="0"
     inkscape:pageopacity="0"
     inkscape:pagecheckerboard="1"
     inkscape:deskcolor="#505050"
     inkscape:zoom="12.453125"
     inkscape:cx="32"
     inkscape:cy="32"
     inkscape:window-width="1920"
     inkscape:window-height="1013"
     inkscape:window-x="0"
     inkscape:window-y="0"
     inkscape:window-maximized="1"
     inkscape:current-layer="g1" />
  <g
     transform="translate(0 -1058.5)"
     id="g1">
    <rect
       width="52"
       height="52"
       x="6"
       y="1064.5"
       fill="#f06292"
       rx="6"
       ry="6"
       id="rect1"
       style="fill:#c7639f" />
    <path
       fill="#fce4ec"
       d="M24 1076.5v4h4v-4h-4zm12 0v4h4v-4h-4zm-18 2v4h4v-4h-4zm24 0v4h4v-4h-4zm-30 2v4h4v-4h-4zm18 0v4h4v-4h-4zm18 0v4h4v-4h-4zm-24 2v4h4v-4h-4zm12 0v4h4v-4h-4zm-18 2v4h4v-4h-4zm24 0v4h4v-4h-4zm-30 2v4h4v-4h-4zm18 0v4h4v-4h-4zm18 0v4h4v-4h-4zm-24 2v4h4v-4h-4zm12 0v4h4v-4h-4zm-18 2v4h4v-4h-4zm24 0v4h4v-4h-4zm-30 2v4h4v-4h-4zm18 0v4h4v-4h-4zm18 0v4h4v-4h-4zm-24 2v4h4v-4h-4zm12 0v4h4v-4h-4zm-18 2v4h4v-4h-4zm24 0v4h4v-4h-4zm-12 2v4h4v-4h-4zm-6 2v4h4v-4h-4zm12 0v4h4v-4h-4zm-6 4v4h4v-4h-4z"
       id="path1" />
  </g>
</svg>
