<?xml version="1.0" encoding="UTF-8" standalone="no"?>
<svg
   width="64"
   height="64"
   version="1.1"
   id="svg9821"
   sodipodi:docname="baobab.svg"
   inkscape:version="1.2.2 (b0a8486541, 2022-12-01)"
   xmlns:inkscape="http://www.inkscape.org/namespaces/inkscape"
   xmlns:sodipodi="http://sodipodi.sourceforge.net/DTD/sodipodi-0.dtd"
   xmlns="http://www.w3.org/2000/svg"
   xmlns:svg="http://www.w3.org/2000/svg">
  <defs
     id="defs9825" />
  <sodipodi:namedview
     id="namedview9823"
     pagecolor="#505050"
     bordercolor="#eeeeee"
     borderopacity="1"
     inkscape:showpageshadow="0"
     inkscape:pageopacity="0"
     inkscape:pagecheckerboard="0"
     inkscape:deskcolor="#505050"
     showgrid="false"
     inkscape:zoom="15.921875"
     inkscape:cx="29.83317"
     inkscape:cy="32.031403"
     inkscape:window-width="1280"
     inkscape:window-height="1361"
     inkscape:window-x="1280"
     inkscape:window-y="0"
     inkscape:window-maximized="0"
     inkscape:current-layer="svg9821" />
  <circle
     cx="32"
     cy="32"
     r="27"
     fill="#9ea0a6"
     style="paint-order:stroke fill markers;fill:#9ea0a6"
     id="circle9769" />
  <path
     d="m32 6.0004a26 26 0 0 0-26 26 26 26 0 0 0 1.04 7.2352v-2.0352c0-1.7285 1.3915-3.12 3.12-3.12h1.2736a21.84 21.84 0 0 0 18.486 14.454v5.3056c0 1.7285-1.3915 3.12-3.12 3.12h-2.0069a26 26 0 0 0 7.2068 1.04 26 26 0 0 0 26-26 26 26 0 0 0-26-26z"
     fill="#cbcccc"
     stroke-width="1.04"
     style="paint-order:stroke fill markers;fill:#cbcccc"
     id="path9771" />
  <g
     transform="translate(-2,2)"
     id="g9777">
    <path
       d="m53 13a2 2 0 1 1-4 0 2 2 0 0 1 4 0z"
       fill="#717380"
       id="path9773"
       style="fill:#717380" />
    <path
       d="m52 13a1 1 0 1 0-2 0 1 1 0 0 0 2 0z"
       fill="#f8f8f2"
       id="path9775"
       style="fill:#f8f8f2" />
  </g>
  <g
     transform="translate(0,4)"
     id="g9783">
    <path
       d="m17 11a2 2 0 1 1-4 0 2 2 0 0 1 4 0z"
       fill="#717380"
       id="path9779"
       style="fill:#717380" />
    <path
       d="m16 11a1 1 0 1 0-2 0 1 1 0 0 0 2 0z"
       fill="#f8f8f2"
       id="path9781"
       style="fill:#f8f8f2" />
  </g>
  <path
     d="M48 27.122C48 35.837 40.837 43 32 43s-16-7.163-16-15.878C16 18.164 23.163 11 32 11s16 7.164 16 16.122"
     fill="#44475a"
     fill-rule="evenodd"
     id="path9785"
     style="fill:#44475a" />
  <path
     d="M32 10c-9.388 0-17 7.61-17 17 0 9.388 7.612 17 17 17s17-7.612 17-17c0-9.39-7.612-17-17-17zm10.417 27.418a14.714 14.714 0 0 1-4.683 3.159A14.646 14.646 0 0 1 32 41.732c-1.99 0-3.92-.388-5.734-1.155a14.714 14.714 0 0 1-4.683-3.16A14.67 14.67 0 0 1 17.266 27a14.676 14.676 0 0 1 4.316-10.417 14.658 14.658 0 0 1 4.684-3.16A14.632 14.632 0 0 1 32 12.268c1.99 0 3.92.39 5.734 1.157a14.655 14.655 0 0 1 4.683 3.158A14.676 14.676 0 0 1 46.734 27a14.673 14.673 0 0 1-4.316 10.418z"
     fill="gray"
     id="path9787"
     style="fill:#717380" />
  <g
     transform="matrix(-1,0,0,1,44,46)"
     fill="#9ea0a6"
     fill-rule="evenodd"
     id="g9799"
     style="fill:#9ea0a6">
    <rect
       width="1"
       height="7"
       rx=".5"
       id="rect9789"
       style="fill:#9ea0a6" />
    <rect
       x="2"
       width="1"
       height="7"
       rx=".5"
       id="rect9791"
       style="fill:#9ea0a6" />
    <rect
       x="4"
       width="1"
       height="7"
       rx=".5"
       id="rect9793"
       style="fill:#9ea0a6" />
    <rect
       x="6"
       width="1"
       height="7"
       rx=".5"
       id="rect9795"
       style="fill:#9ea0a6" />
    <rect
       x="8"
       width="1"
       height="7"
       rx=".5"
       id="rect9797"
       style="fill:#9ea0a6" />
  </g>
  <g
     transform="translate(-3,-2)"
     id="g9805">
    <path
       d="m53 51a2 2 0 1 1-4 0 2 2 0 0 1 4 0z"
       fill="#717380"
       id="path9801"
       style="fill:#717380" />
    <path
       d="m52 51a1 1 0 1 0-2 0 1 1 0 0 0 2 0z"
       fill="#f8f8f2"
       id="path9803"
       style="fill:#f8f8f2" />
  </g>
  <g
     transform="translate(0,-4)"
     id="g9811">
    <path
       d="m17 53a2 2 0 1 1-4 0 2 2 0 0 1 4 0z"
       fill="#717380"
       id="path9807"
       style="fill:#717380;fill-opacity:1" />
    <path
       d="m16 53a1 1 0 1 0-2 0 1 1 0 0 0 2 0z"
       fill="#f8f8f2"
       id="path9809"
       style="fill:#f8f8f2" />
  </g>
  <circle
     cx="32"
     cy="27"
     r="12"
     fill="#ff964a"
     paint-order="markers stroke fill"
     id="circle9813"
     style="fill:#ffb86c" />
  <path
     d="m23.515 18.515a12 12 0 0 0 0 16.97 12 12 0 0 0 16.97 0z"
     fill="#6fbb55"
     paint-order="markers stroke fill"
     id="path9815"
     style="fill:#44c367" />
  <path
     d="m32 15a12 12 0 0 0-12 12 12 12 0 0 0 12 12z"
     fill="#4babbe"
     paint-order="markers stroke fill"
     id="path9817"
     style="fill:#70b7c8" />
  <circle
     cx="32"
     cy="27"
     r="2"
     fill="#f8f8f2"
     paint-order="markers stroke fill"
     id="circle9819"
     style="fill:#f8f8f2" />
</svg>
