<?xml version="1.0" encoding="UTF-8" standalone="no"?>
<svg
   width="64"
   height="64"
   version="1.1"
   id="svg25"
   sodipodi:docname="barrier.svg"
   inkscape:version="1.2.2 (b0a8486541, 2022-12-01)"
   xmlns:inkscape="http://www.inkscape.org/namespaces/inkscape"
   xmlns:sodipodi="http://sodipodi.sourceforge.net/DTD/sodipodi-0.dtd"
   xmlns="http://www.w3.org/2000/svg"
   xmlns:svg="http://www.w3.org/2000/svg">
  <sodipodi:namedview
     id="namedview27"
     pagecolor="#505050"
     bordercolor="#eeeeee"
     borderopacity="1"
     inkscape:showpageshadow="0"
     inkscape:pageopacity="0"
     inkscape:pagecheckerboard="0"
     inkscape:deskcolor="#505050"
     showgrid="false"
     inkscape:zoom="15.921875"
     inkscape:cx="29.895976"
     inkscape:cy="32.031403"
     inkscape:window-width="2560"
     inkscape:window-height="1361"
     inkscape:window-x="0"
     inkscape:window-y="0"
     inkscape:window-maximized="1"
     inkscape:current-layer="svg25" />
  <defs
     id="defs5">
    <filter
       id="filter928"
       x="-0.097610191"
       y="-0.12086494"
       width="1.1952204"
       height="1.2417299"
       color-interpolation-filters="sRGB">
      <feGaussianBlur
         stdDeviation="0.41617325"
         id="feGaussianBlur2" />
    </filter>
  </defs>
  <rect
     x="5"
     y="5"
     width="54"
     height="54"
     rx="27"
     ry="27"
     fill="#f8f8f2"
     stroke-width="3.6445"
     id="rect7" />
  <path
     d="m26.178 26.136c-0.401 7.1913-6.8905 11.752-10.852 11.752-1.7183-6.2e-5 -3.1111 1.3929-3.1111 3.1111s1.3929 3.1111 3.1111 3.1111c8.0814 3.42e-4 16.691-7.2666 17.075-17.934a6.2222 6.2222 0 0 1-3.0747 0.82335 6.2222 6.2222 0 0 1-3.1475-0.86285z"
     fill="#97c33d"
     stroke-width="1.5556"
     id="path9"
     style="fill:#7afa99" />
  <path
     d="m23.744 32.827c-1.338 1.8258-3.0602 3.21-4.767 4.0651 1.5321 1.7719 3.3533 3.2163 5.4141 4.1987 1.8449-1.2887 3.4958-2.9588 4.8186-4.9431-2.0302-0.42311-3.9268-1.5923-5.4657-3.3208z"
     filter="url(#filter928)"
     opacity=".1"
     stroke-width="1.5556"
     id="path11" />
  <path
     d="m18.539 22.601c-0.8666 0.82575-2.0174 1.2869-3.2144 1.2882-1.0899-7.7e-5 -2.1454-0.38165-2.9835-1.0786 0.82744 9.8707 7.6502 18.189 16.984 18.189 1.7183 0 3.1111-1.3929 3.1111-3.1111s-1.3929-3.1111-3.1111-3.1111c-5.2578 0-10.064-5.1455-10.786-12.177z"
     fill="#3f96b9"
     stroke-width="1.5556"
     id="path13"
     style="fill:#168daa" />
  <path
     d="m15.325 16.111a3.1111 3.1111 0 0 0-3.1111 3.1111 3.1111 3.1111 0 0 0 3.1111 3.1111 3.1111 3.1111 0 0 0 3.1111-3.1111 3.1111 3.1111 0 0 0-3.1111-3.1111zm0 1.5556a1.5556 1.5556 0 0 1 1.5556 1.5556 1.5556 1.5556 0 0 1-1.5556 1.5556 1.5556 1.5556 0 0 1-1.5556-1.5556 1.5556 1.5556 0 0 1 1.5556-1.5556z"
     fill="#196260"
     stroke-width="1.5556"
     style="paint-order:normal;fill:#44c367"
     id="path15" />
  <path
     d="m29.325 16.111a4.6667 4.6667 0 0 0-4.6667 4.6667 4.6667 4.6667 0 0 0 4.6667 4.6667 4.6667 4.6667 0 0 0 4.6667-4.6667 4.6667 4.6667 0 0 0-4.6667-4.6667zm0 1.5556a3.1111 3.1111 0 0 1 3.1111 3.1111 3.1111 3.1111 0 0 1-3.1111 3.1111 3.1111 3.1111 0 0 1-3.1111-3.1111 3.1111 3.1111 0 0 1 3.1111-3.1111zm0 1.5556a1.5556 1.5556 0 0 0-1.5556 1.5556 1.5556 1.5556 0 0 0 1.5556 1.5556 1.5556 1.5556 0 0 0 1.5556-1.5556 1.5556 1.5556 0 0 0-1.5556-1.5556z"
     fill="#3f96b9"
     stroke-width="1.5556"
     style="paint-order:normal;fill:#168daa"
     id="path17" />
  <path
     d="m34.734 17.666c0.53118 0.93346 0.81167 2.0371 0.81424 3.1111-0.0026 1.1169-0.30598 2.2126-0.87803 3.1719 4.9616 0.67335 10.211 6.1614 10.211 9.2725 0 1.7183 1.3929 3.1111 3.1111 3.1111s3.1111-1.3929 3.1111-3.1111c0-7.7778-9.3333-15.556-16.369-15.556z"
     fill="#5d7dbd"
     stroke-width="1.5556"
     id="path19"
     style="fill:#6272a4" />
  <path
     d="m49.547 22.333c-7.4276 0-14.35 7.7778-15.313 14.55 0.91272-0.36275 1.8859-0.54934 2.8681-0.54992 1.1912 0.0031 2.3657 0.27942 3.4331 0.80816 0.29682-3.9192 5.9002-8.5859 9.0113-8.5859 1.7183 0 3.1111-1.3929 3.1111-3.1111s-1.3929-3.1111-3.1111-3.1111z"
     fill="#196260"
     stroke-width="1.5556"
     id="path21"
     style="fill:#44c367" />
  <path
     d="m37.103 37.888a6.2222 6.2222 0 0 0-6.2222 6.2222 6.2222 6.2222 0 0 0 6.2222 6.2222 6.2222 6.2222 0 0 0 6.2222-6.2222 6.2222 6.2222 0 0 0-6.2222-6.2222zm0 1.5556a4.6667 4.6667 0 0 1 4.6667 4.6667 4.6667 4.6667 0 0 1-4.6667 4.6667 4.6667 4.6667 0 0 1-4.6667-4.6667 4.6667 4.6667 0 0 1 4.6667-4.6667zm0 1.5556a3.1111 3.1111 0 0 0-3.1111 3.1111 3.1111 3.1111 0 0 0 3.1111 3.1111 3.1111 3.1111 0 0 0 3.1111-3.1111 3.1111 3.1111 0 0 0-3.1111-3.1111zm0 1.5556a1.5556 1.5556 0 0 1 1.5556 1.5556 1.5556 1.5556 0 0 1-1.5556 1.5556 1.5556 1.5556 0 0 1-1.5556-1.5556 1.5556 1.5556 0 0 1 1.5556-1.5556z"
     fill="#5d7dbd"
     stroke-width="1.5556"
     id="path23"
     style="fill:#6272a4" />
</svg>
