<?xml version="1.0" encoding="UTF-8" standalone="no"?>
<svg
   width="64"
   height="64"
   version="1.1"
   id="svg16"
   sodipodi:docname="bashtop.svg"
   inkscape:version="1.2.2 (b0a8486541, 2022-12-01)"
   xmlns:inkscape="http://www.inkscape.org/namespaces/inkscape"
   xmlns:sodipodi="http://sodipodi.sourceforge.net/DTD/sodipodi-0.dtd"
   xmlns="http://www.w3.org/2000/svg"
   xmlns:svg="http://www.w3.org/2000/svg">
  <defs
     id="defs20" />
  <sodipodi:namedview
     id="namedview18"
     pagecolor="#505050"
     bordercolor="#eeeeee"
     borderopacity="1"
     inkscape:showpageshadow="0"
     inkscape:pageopacity="0"
     inkscape:pagecheckerboard="0"
     inkscape:deskcolor="#505050"
     showgrid="false"
     inkscape:zoom="15.921875"
     inkscape:cx="29.895976"
     inkscape:cy="32.031403"
     inkscape:window-width="2560"
     inkscape:window-height="1361"
     inkscape:window-x="0"
     inkscape:window-y="0"
     inkscape:window-maximized="1"
     inkscape:current-layer="svg16" />
  <rect
     width="54"
     height="54"
     x="5"
     y="5"
     fill="#443838"
     rx="27"
     ry="27"
     id="rect2"
     style="fill:#44475a" />
  <g
     stroke-width="1.217"
     id="g14">
    <path
       fill="#e82626"
       d="M21.043 22.26v6.087l2.435 1.218 3.652-1.218V22.26l-3.652-1.217zm15.826 0v6.087l2.435 1.218 2.435-1.218h2.434V22.26H41.74l-2.435-1.217z"
       id="path4"
       style="fill:#fd7e7c;opacity:0.7" />
    <path
       fill="#e83b3b"
       d="M21.043 16.174h20.696v6.087H21.043z"
       id="path6"
       style="fill:#fd7e7c" />
    <path
       fill="#be1818"
       d="M21.043 35.652v6.087l2.435 1.218 3.652-1.218v-6.087l-3.652-1.217zm15.826 0v6.087l2.435 1.218 2.435-1.218h2.434v-6.087H41.74l-2.435-1.217z"
       id="path8"
       style="fill:#ff5555;opacity:0.8" />
    <path
       fill="#d81818"
       d="M21.043 28.347h20.696v7.304H21.043z"
       id="path10"
       style="fill:#ff5555" />
    <path
       fill="#a81515"
       d="M21.043 41.74h20.696v6.086H21.043z"
       id="path12"
       style="fill:#c7484a" />
  </g>
</svg>
