<?xml version="1.0" encoding="UTF-8" standalone="no"?>
<svg
   width="64"
   height="64"
   version="1.1"
   id="svg5"
   sodipodi:docname="bashtop.svg"
   inkscape:version="1.3.2 (091e20ef0f, 2023-11-25, custom)"
   xmlns:inkscape="http://www.inkscape.org/namespaces/inkscape"
   xmlns:sodipodi="http://sodipodi.sourceforge.net/DTD/sodipodi-0.dtd"
   xmlns="http://www.w3.org/2000/svg"
   xmlns:svg="http://www.w3.org/2000/svg">
  <defs
     id="defs5" />
  <sodipodi:namedview
     id="namedview5"
     pagecolor="#505050"
     bordercolor="#f8f8f2"
     borderopacity="1"
     inkscape:showpageshadow="0"
     inkscape:pageopacity="0"
     inkscape:pagecheckerboard="1"
     inkscape:deskcolor="#505050"
     inkscape:zoom="12.453125"
     inkscape:cx="32"
     inkscape:cy="32"
     inkscape:window-width="1920"
     inkscape:window-height="1013"
     inkscape:window-x="0"
     inkscape:window-y="0"
     inkscape:window-maximized="1"
     inkscape:current-layer="svg5" />
  <rect
     width="52"
     height="52"
     x="6"
     y="6"
     fill="#443838"
     rx="8"
     ry="8"
     id="rect1"
     style="fill:#44475a" />
  <g
     stroke-width="1.217"
     id="g5">
    <path
       fill="#e82626"
       d="M21.043 22.26v6.087l2.435 1.218 3.652-1.218V22.26l-3.652-1.217zm15.826 0v6.087l2.435 1.218 2.435-1.218h2.434V22.26H41.74l-2.435-1.217z"
       id="path1" />
    <path
       fill="#e83b3b"
       d="M21.043 16.174h20.696v6.087H21.043z"
       id="path2" />
    <path
       fill="#be1818"
       d="M21.043 35.652v6.087l2.435 1.218 3.652-1.218v-6.087l-3.652-1.217zm15.826 0v6.087l2.435 1.218 2.435-1.218h2.434v-6.087H41.74l-2.435-1.217z"
       id="path3" />
    <path
       fill="#d81818"
       d="M21.043 28.347h20.696v7.304H21.043z"
       id="path4" />
    <path
       fill="#a81515"
       d="M21.043 41.74h20.696v6.086H21.043z"
       id="path5" />
  </g>
</svg>
