<?xml version="1.0" encoding="UTF-8" standalone="no"?>
<svg
   width="64"
   height="64"
   viewBox="0 0 16.933 16.933"
   version="1.1"
   id="svg15"
   sodipodi:docname="bcloud.svg"
   inkscape:version="1.3.2 (091e20ef0f, 2023-11-25, custom)"
   xmlns:inkscape="http://www.inkscape.org/namespaces/inkscape"
   xmlns:sodipodi="http://sodipodi.sourceforge.net/DTD/sodipodi-0.dtd"
   xmlns="http://www.w3.org/2000/svg"
   xmlns:svg="http://www.w3.org/2000/svg">
  <sodipodi:namedview
     id="namedview15"
     pagecolor="#505050"
     bordercolor="#f8f8f2"
     borderopacity="1"
     inkscape:showpageshadow="0"
     inkscape:pageopacity="0"
     inkscape:pagecheckerboard="1"
     inkscape:deskcolor="#505050"
     inkscape:zoom="12.453125"
     inkscape:cx="32"
     inkscape:cy="32"
     inkscape:window-width="1920"
     inkscape:window-height="1013"
     inkscape:window-x="0"
     inkscape:window-y="0"
     inkscape:window-maximized="1"
     inkscape:current-layer="g15" />
  <defs
     id="defs2">
    <filter
       id="a"
       color-interpolation-filters="sRGB"
       x="-1.4942099"
       y="-1.222743"
       width="3.9884199"
       height="3.445486">
      <feColorMatrix
         result="result7"
         values="1 0 0 0 0 0 1 0 0 0 0 0 1 0 0 0 0 0 1 0"
         id="feColorMatrix1" />
      <feGaussianBlur
         result="result6"
         stdDeviation="5"
         id="feGaussianBlur1" />
      <feComposite
         in="result6"
         in2="result7"
         operator="atop"
         result="result91"
         id="feComposite1" />
      <feComposite
         in2="result91"
         operator="in"
         id="feComposite2" />
    </filter>
  </defs>
  <g
     transform="translate(0 -280.07)"
     id="g15">
    <circle
       cx="8.466"
       cy="288.53"
       r="7.144"
       fill="#0b93d3"
       style="paint-order:stroke markers fill;fill:#515d85"
       id="circle2" />
    <g
       fill="#f8f8f2"
       paint-order="stroke markers fill"
       id="g11">
      <circle
         cx="11.906"
         cy="287.58"
         r="1.389"
         opacity=".25"
         id="circle3" />
      <circle
         cx="11.906"
         cy="287.58"
         r="1.389"
         opacity=".25"
         id="circle4" />
      <circle
         cx="8.819"
         cy="287.74"
         r="3.087"
         id="circle5" />
      <circle
         cx="8.731"
         cy="288.27"
         r="2.646"
         id="circle6" />
      <circle
         cx="5.424"
         cy="288.97"
         r="2.469"
         id="circle7" />
      <circle
         cx="5.821"
         cy="289.33"
         r="2.117"
         id="circle8" />
      <circle
         cx="12.215"
         cy="289.59"
         r="1.852"
         id="circle9" />
      <circle
         cx="11.642"
         cy="289.86"
         r="1.587"
         id="circle10" />
      <path
         d="M5.424 288.05h6.791v3.395H5.424z"
         id="path10" />
      <path
         d="M5.821 288.53h5.821v2.91H5.821z"
         id="path11" />
    </g>
    <path
       fill="#1793e6"
       d="M8.475 286.474a1.426 1.426 0 1 0 0 2.852 1.426 1.426 0 0 0 0-2.852zm.006.626a.805.805 0 0 1 .805.805.805.805 0 0 1-.805.805.805.805 0 0 1-.805-.805.805.805 0 0 1 .805-.805z"
       id="path12" />
    <path
       fill="#1793e6"
       d="M10.088 288.004c-.374 0-.708.148-.962.382l.408.472a.851.851 0 0 1 .108-.09.716.716 0 0 1 .356-.127c.044-.004.09-.002.14 0a.751.751 0 0 1 .663.433.829.829 0 0 1 .085.402v.002a.313.313 0 0 0 .625 0V289.427a.893.893 0 0 0-.004-.073l-.001-.01-.001-.025h-.001a1.421 1.421 0 0 0-1.417-1.315M6.833 288a1.426 1.426 0 1 0 0 2.852 1.426 1.426 0 0 0 0-2.852zm.006.626a.805.805 0 0 1 .804.805.805.805 0 0 1-.804.805.805.805 0 0 1-.805-.805.805.805 0 0 1 .805-.805z"
       id="path13" />
    <path
       fill="#f44"
       d="M6.973 7.471c-.365 0-.744.04-1.094.094a2.842 2.842 0 0 1 1.719 2.594c0 .16-.036.316-.063.469a3.839 3.839 0 0 1 2.938 2.063c.791 1.577.522 3.357-.719 4.594.962-.959 2.934-2.702 4.156-3.844-.512-3.375-3.409-5.969-6.938-5.969z"
       filter="url(#a)"
       transform="translate(5.407 286.47) scale(.20374)"
       id="path14" />
    <path
       fill="#1793e6"
       d="m7.452 290.53-.652.026 2.295-2.13.41.46-1.78 1.653z"
       id="path15" />
    <circle
       cx="11.213"
       cy="290.31"
       r=".306"
       fill="#1793e6"
       id="circle15" />
  </g>
</svg>
