<?xml version="1.0" encoding="UTF-8" standalone="no"?>
<svg
   width="64"
   height="64"
   viewBox="0 0 16.933 16.933"
   version="1.1"
   id="svg5"
   sodipodi:docname="bcompare.svg"
   inkscape:version="1.3.2 (091e20ef0f, 2023-11-25, custom)"
   xmlns:inkscape="http://www.inkscape.org/namespaces/inkscape"
   xmlns:sodipodi="http://sodipodi.sourceforge.net/DTD/sodipodi-0.dtd"
   xmlns="http://www.w3.org/2000/svg"
   xmlns:svg="http://www.w3.org/2000/svg">
  <defs
     id="defs5" />
  <sodipodi:namedview
     id="namedview5"
     pagecolor="#505050"
     bordercolor="#f8f8f2"
     borderopacity="1"
     inkscape:showpageshadow="0"
     inkscape:pageopacity="0"
     inkscape:pagecheckerboard="1"
     inkscape:deskcolor="#505050"
     inkscape:zoom="12.453125"
     inkscape:cx="32"
     inkscape:cy="32"
     inkscape:window-width="1920"
     inkscape:window-height="1013"
     inkscape:window-x="0"
     inkscape:window-y="0"
     inkscape:window-maximized="1"
     inkscape:current-layer="g5" />
  <g
     stroke-width=".274"
     transform="translate(17.876 .648) scale(.96429)"
     id="g5">
    <path
       fill="#464646"
       d="M-2.35 8.108A7.392 7.392 0 0 0-9.758.7c-.734 0-1.087.851-1.755 1.049-2.505.738-4.806 2.014-5.436 4.564a7.475 7.475 0 0 0-.217 1.795 7.392 7.392 0 0 0 7.408 7.408c.377 0 .812-.677 1.174-.73 2.72-.405 4.885-1.63 5.794-4.147.285-.789.44-1.641.44-2.531z"
       id="path1"
       style="fill:#44475a" />
    <circle
       cx="-9.758"
       cy="8.108"
       r="4.233"
       fill="#cbcccc"
       id="circle1"
       style="fill:#cbcccc" />
    <path
       fill="#fb4848"
       d="M-16.726 2.287a.447.447 0 0 0-.44.446v3.87a.447.447 0 0 0 .446.446h3.87a.447.447 0 0 0 .316-.762l-3.87-3.87a.447.447 0 0 0-.322-.13z"
       id="path2"
       style="fill:#ff5555" />
    <path
       fill="#486afb"
       d="M-2.79 13.928a.447.447 0 0 0 .44-.446v-3.87a.447.447 0 0 0-.446-.447h-3.87a.447.447 0 0 0-.316.763l3.87 3.87a.447.447 0 0 0 .322.13z"
       id="path3"
       style="fill:#13b1d5" />
    <circle
       cx="-9.758"
       cy="8.108"
       r="1.587"
       fill="#f8f8f2"
       id="circle3" />
    <path
       fill="#486afb"
       d="M-2.791 10.633a7.411 7.411 0 0 1-6.967 4.883V12.34a4.232 4.232 0 0 0 3.709-2.191z"
       id="path4"
       style="fill:#13b1d5" />
    <path
       fill="#fb4848"
       d="M-9.758.7a7.408 7.408 0 0 0-6.612 4.064l2.662 1.819a4.235 4.235 0 0 1 3.95-2.709z"
       id="path5"
       style="fill:#ff5555" />
  </g>
</svg>
