<?xml version="1.0" encoding="UTF-8" standalone="no"?>
<svg
   width="64"
   height="64"
   version="1.1"
   viewBox="0 0 64 64"
   id="svg10"
   sodipodi:docname="beekeeper-studio.svg"
   inkscape:version="1.2.2 (b0a8486541, 2022-12-01)"
   xmlns:inkscape="http://www.inkscape.org/namespaces/inkscape"
   xmlns:sodipodi="http://sodipodi.sourceforge.net/DTD/sodipodi-0.dtd"
   xmlns="http://www.w3.org/2000/svg"
   xmlns:svg="http://www.w3.org/2000/svg">
  <defs
     id="defs14" />
  <sodipodi:namedview
     id="namedview12"
     pagecolor="#505050"
     bordercolor="#eeeeee"
     borderopacity="1"
     inkscape:showpageshadow="0"
     inkscape:pageopacity="0"
     inkscape:pagecheckerboard="0"
     inkscape:deskcolor="#505050"
     showgrid="false"
     inkscape:zoom="15.921875"
     inkscape:cx="29.895976"
     inkscape:cy="32.031403"
     inkscape:window-width="2560"
     inkscape:window-height="1361"
     inkscape:window-x="0"
     inkscape:window-y="0"
     inkscape:window-maximized="1"
     inkscape:current-layer="svg10" />
  <circle
     cx="32.001"
     cy="32.001"
     r="27.001"
     fill="#282a36"
     stroke-width="1.0385"
     style="paint-order:markers stroke fill;fill:#44475a"
     id="circle2" />
  <g
     transform="matrix(.71794 0 0 .71794 6.1026 5.4361)"
     stroke-linecap="round"
     stroke-linejoin="round"
     id="g8">
    <path
       d="m36.071 10c-2.8929 0-5.7857 1.9286-5.7857 1.9286-1.4947 0.85409-2.549 1.4279-3.8571 2.1546l-1.9286 2.6668-1.9286-0.51227c-7.9245 4.416-11.571 6.8283-11.571 12.084v17.357c0 6.75 5.7857 8.6786 19.286 16.393 0 0 2.8929 1.9286 5.7857 1.9286 2.8929 0 5.7857-1.9286 5.7857-1.9286 13.5-7.7143 19.286-9.6429 19.286-16.393v-17.357c0-6.75-5.7857-8.6786-19.286-16.393 0 0-2.8929-1.9286-5.7857-1.9286z"
       fill="#f9d73a"
       stroke-width="7.3087"
       id="path4"
       style="fill:#ffb86c" />
    <path
       d="m26.429 14.089c-1.3082 0.72665-2.7303 1.5266-3.8571 2.1546v23.656c0 3.8571 1.9286 6.75 9.6429 10.607 0 0 1.9286 0.96429 3.8571 0.96429 1.9286 0 3.8571-0.96429 3.8571-0.96429 7.7143-3.8571 9.6429-6.75 9.6429-10.607v-5.7857c0-3.8571-1.9286-6.75-9.6429-10.607 0 0-1.9286-0.96429-3.8571-0.96429v4.8214c5.3256 0 9.6429 4.3171 9.6429 9.6429 0 5.3256-4.3173 9.6429-9.6429 9.6429s-9.6429-4.3173-9.6429-9.6429zm7.7143 8.738c-1.0908 0.28495-1.9286 0.67809-1.9286 0.67809v4.6706c0.61448-0.26904 1.2552-0.48484 1.9286-0.62138zm-3.8571 1.7365c-0.68628 0.38417-1.3567 0.76815-1.9286 1.1375v5.5711c0.5475-0.73498 1.1976-1.3834 1.9286-1.9361z"
       fill="#282a36"
       stroke-width="3.8571"
       id="path6"
       style="fill:#44475a" />
  </g>
</svg>
