<?xml version="1.0" encoding="UTF-8" standalone="no"?>
<svg
   width="64"
   height="64"
   version="1.1"
   id="svg2"
   sodipodi:docname="beekeeper-studio.svg"
   inkscape:version="1.3.2 (091e20ef0f, 2023-11-25, custom)"
   xmlns:inkscape="http://www.inkscape.org/namespaces/inkscape"
   xmlns:sodipodi="http://sodipodi.sourceforge.net/DTD/sodipodi-0.dtd"
   xmlns="http://www.w3.org/2000/svg"
   xmlns:svg="http://www.w3.org/2000/svg">
  <defs
     id="defs2" />
  <sodipodi:namedview
     id="namedview2"
     pagecolor="#505050"
     bordercolor="#f8f8f2"
     borderopacity="1"
     inkscape:showpageshadow="0"
     inkscape:pageopacity="0"
     inkscape:pagecheckerboard="1"
     inkscape:deskcolor="#505050"
     inkscape:zoom="12.453125"
     inkscape:cx="32"
     inkscape:cy="32"
     inkscape:window-width="1920"
     inkscape:window-height="1013"
     inkscape:window-x="0"
     inkscape:window-y="0"
     inkscape:window-maximized="1"
     inkscape:current-layer="g2" />
  <g
     stroke-linecap="round"
     stroke-linejoin="round"
     id="g2">
    <path
       fill="#f9d73a"
       d="M31.998 4c-3 0-6 2-6 2-1.55.885-2.643 1.48-4 2.234l-2 2.765-2-.53C9.782 15.047 6 17.548 6 22.998v18c0 7 6 9 20 17 0 0 3 1.999 5.999 1.999 3 0 6-2 6-2 14-8 20-10 20-17V23c0-7-6-9-20-17 0 0-3-2-6-2z"
       id="path1"
       style="fill:#c7925b" />
    <path
       fill="#282a36"
       d="M22 8.24c-1.357.754-2.832 1.583-4 2.234v24.532c0 4 2 7 10 10.999 0 0 2 1 4 1s3.999-1 3.999-1c8-4 10-7 10-11v-6c0-3.999-2-6.999-10-10.999 0 0-2-1-4-1v5c5.523 0 10 4.477 10 10s-4.477 10-10 10c-5.522 0-10-4.477-10-10zm8 9.061c-1.132.296-2 .703-2 .703v4.844a9.87 9.87 0 0 1 2-.644zm-4 1.801a38.18 38.18 0 0 0-2 1.18v5.777a10.03 10.03 0 0 1 2-2.008z"
       id="path2" />
  </g>
</svg>
