<?xml version="1.0" encoding="UTF-8" standalone="no"?>
<svg
   width="64"
   height="64"
   version="1.1"
   id="svg1"
   sodipodi:docname="Binance.svg"
   inkscape:version="1.3.2 (091e20ef0f, 2023-11-25, custom)"
   xmlns:inkscape="http://www.inkscape.org/namespaces/inkscape"
   xmlns:sodipodi="http://sodipodi.sourceforge.net/DTD/sodipodi-0.dtd"
   xmlns="http://www.w3.org/2000/svg"
   xmlns:svg="http://www.w3.org/2000/svg">
  <defs
     id="defs1" />
  <sodipodi:namedview
     id="namedview1"
     pagecolor="#505050"
     bordercolor="#f8f8f2"
     borderopacity="1"
     inkscape:showpageshadow="0"
     inkscape:pageopacity="0"
     inkscape:pagecheckerboard="1"
     inkscape:deskcolor="#505050"
     inkscape:zoom="12.453125"
     inkscape:cx="32"
     inkscape:cy="32"
     inkscape:window-width="1920"
     inkscape:window-height="1013"
     inkscape:window-x="0"
     inkscape:window-y="0"
     inkscape:window-maximized="1"
     inkscape:current-layer="svg1" />
  <rect
     width="54"
     height="54"
     x="5"
     y="5"
     fill="#fdcf71"
     rx="27"
     ry="27"
     id="rect1"
     style="fill:#ffb86c" />
  <path
     d="m23.795 32-3.366 3.39-3.39-3.39 3.39-3.39ZM32 23.795l5.797 5.797 3.39-3.39-5.798-5.773L32 17.039l-3.39 3.39-5.773 5.774 3.39 3.39zm11.571 4.816L40.205 32l3.39 3.39L46.96 32ZM32 40.205l-5.797-5.797-3.366 3.39 5.797 5.796L32 46.96l3.39-3.389 5.797-5.797-3.39-3.366Zm0-4.816L35.39 32 32 28.61 28.61 32Z"
     style="fill:#282a36;fill-opacity:1;stroke-width:0.45834726;opacity:0.65"
     id="path1" />
</svg>
