<?xml version="1.0" encoding="UTF-8" standalone="no"?>
<svg
   width="64"
   height="64"
   version="1.1"
   id="svg1"
   sodipodi:docname="bitcoin128.svg"
   inkscape:version="1.3.2 (091e20ef0f, 2023-11-25, custom)"
   xmlns:inkscape="http://www.inkscape.org/namespaces/inkscape"
   xmlns:sodipodi="http://sodipodi.sourceforge.net/DTD/sodipodi-0.dtd"
   xmlns="http://www.w3.org/2000/svg"
   xmlns:svg="http://www.w3.org/2000/svg">
  <defs
     id="defs1" />
  <sodipodi:namedview
     id="namedview1"
     pagecolor="#505050"
     bordercolor="#f8f8f2"
     borderopacity="1"
     inkscape:showpageshadow="0"
     inkscape:pageopacity="0"
     inkscape:pagecheckerboard="1"
     inkscape:deskcolor="#505050"
     inkscape:zoom="12.453125"
     inkscape:cx="32"
     inkscape:cy="32"
     inkscape:window-width="1920"
     inkscape:window-height="1013"
     inkscape:window-x="0"
     inkscape:window-y="0"
     inkscape:window-maximized="1"
     inkscape:current-layer="g1" />
  <g
     stroke-width=".741"
     transform="matrix(1.35 0 0 1.35 -.4 -.4)"
     id="g1">
    <circle
       cx="24"
       cy="24"
       r="20"
       fill="#f89d30"
       id="circle1"
       style="fill:#ffb86c" />
    <path
       fill="#f8f8f2"
       d="M20 12v4c-.492.02-1.394 0-1.865 0H15v2s1.719-.03 1.691 0c.92-.014 1.214.654 1.309 1.1V29c-.035.282-.005.98-.648 1 .03.026-2.352 0-2.352 0v2h3.254c.55-.02 1.214 0 1.746 0v4l2-.037V32h1.969l.062 4h2l-.062-4C32 32 32 29 32 27.498 32 26 31.366 24.002 29 24c1.366.002 2-2.257 2-4 0-2.257-2-4-5-4v-4h-2v4c-.597 0-1.394-.022-2 0v-4zm2 6c2 0 5 0 5 2.5S24 23 22 23zm0 7c4 0 6 0 6 2.5S26 30 22 30z"
       id="path1" />
  </g>
</svg>
