<?xml version="1.0" encoding="UTF-8" standalone="no"?>
<svg
   width="64"
   height="64"
   version="1"
   id="svg6"
   sodipodi:docname="bitwarden.svg"
   inkscape:version="1.2.2 (b0a8486541, 2022-12-01)"
   xmlns:inkscape="http://www.inkscape.org/namespaces/inkscape"
   xmlns:sodipodi="http://sodipodi.sourceforge.net/DTD/sodipodi-0.dtd"
   xmlns="http://www.w3.org/2000/svg"
   xmlns:svg="http://www.w3.org/2000/svg">
  <defs
     id="defs10" />
  <sodipodi:namedview
     id="namedview8"
     pagecolor="#505050"
     bordercolor="#eeeeee"
     borderopacity="1"
     inkscape:showpageshadow="0"
     inkscape:pageopacity="0"
     inkscape:pagecheckerboard="0"
     inkscape:deskcolor="#505050"
     showgrid="false"
     inkscape:zoom="15.921875"
     inkscape:cx="29.895976"
     inkscape:cy="32.031403"
     inkscape:window-width="2560"
     inkscape:window-height="1361"
     inkscape:window-x="0"
     inkscape:window-y="0"
     inkscape:window-maximized="1"
     inkscape:current-layer="svg6" />
  <rect
     transform="matrix(0,-1,-1,0,0,0)"
     x="-59"
     y="-59"
     width="54"
     height="54"
     rx="27"
     ry="27"
     fill="#175ddc"
     stroke-width=".93103"
     id="rect2"
     style="fill:#168daa" />
  <path
     d="m17.714 16c-0.71413 0-0.71381-0.10764-0.71381 10.398 0 10.661-0.01324 10.448 0.80645 12.515 0.94322 2.3779 2.4626 4.3878 4.9561 6.5725 2.0929 1.8326 4.574 3.4923 7.3419 4.9014 0.93616 0.47646 1.4197 0.69351 1.8953 0.68557 0.47558 8e-3 0.9591-0.20911 1.8953-0.68557 2.7679-1.4091 5.249-3.0688 7.3419-4.9014 2.4935-2.1847 4.0129-4.1946 4.9561-6.5725 0.81969-2.0673 0.80645-1.8538 0.80645-12.515 0-10.506 3.19e-4 -10.398-0.71381-10.398zm14.286 5h9.7057v14.191s-0.0053 0.6891-0.43411 1.7717c-0.60263 1.5185-1.4382 2.7176-3.5223 4.5423-1.582 1.3853-3.5761 2.6682-5.7493 3.8258z"
     fill="#f8f8f2"
     stroke-width=".88233"
     id="path4" />
</svg>
