<?xml version="1.0" encoding="UTF-8" standalone="no"?>
<svg
   width="64"
   height="64"
   version="1.1"
   id="svg18"
   sodipodi:docname="blackmagicraw-player.svg"
   inkscape:version="1.2.2 (b0a8486541, 2022-12-01)"
   xmlns:inkscape="http://www.inkscape.org/namespaces/inkscape"
   xmlns:sodipodi="http://sodipodi.sourceforge.net/DTD/sodipodi-0.dtd"
   xmlns="http://www.w3.org/2000/svg"
   xmlns:svg="http://www.w3.org/2000/svg">
  <defs
     id="defs22" />
  <sodipodi:namedview
     id="namedview20"
     pagecolor="#505050"
     bordercolor="#eeeeee"
     borderopacity="1"
     inkscape:showpageshadow="0"
     inkscape:pageopacity="0"
     inkscape:pagecheckerboard="0"
     inkscape:deskcolor="#505050"
     showgrid="false"
     inkscape:zoom="15.921875"
     inkscape:cx="29.895976"
     inkscape:cy="32.031403"
     inkscape:window-width="2560"
     inkscape:window-height="1361"
     inkscape:window-x="0"
     inkscape:window-y="0"
     inkscape:window-maximized="1"
     inkscape:current-layer="svg18" />
  <circle
     cx="32"
     cy="32"
     r="27"
     fill="#44475a"
     id="circle2" />
  <path
     fill="#f8f8f2"
     d="M32 5a27 27 0 0 0-12 2.867v48.266A27 27 0 0 0 32 59a27 27 0 0 0 27-27A27 27 0 0 0 32 5z"
     opacity=".1"
     id="path4" />
  <path
     fill="#ffa119"
     d="M22.551 16.572A1.516 1.523 0 0 0 21 18.094v27.813a1.516 1.523 0 0 0 2.272 1.319l11.984-6.952 11.986-6.954a1.516 1.523 0 0 0 0-2.639L35.256 23.73l-11.984-6.953a1.516 1.523 0 0 0-.721-.204z"
     id="path6"
     style="fill:#ffb86c" />
  <rect
     width="5.786"
     height="5.786"
     x="24.286"
     y="11.75"
     fill="#282a36"
     rx="1.446"
     ry="1.446"
     id="rect8" />
  <rect
     width="5.786"
     height="5.786"
     x="24.286"
     y="29.107"
     fill="#282a36"
     rx="1.446"
     ry="1.446"
     id="rect10" />
  <rect
     width="5.786"
     height="5.786"
     x="24.286"
     y="37.786"
     fill="#282a36"
     rx="1.446"
     ry="1.446"
     id="rect12" />
  <rect
     width="5.786"
     height="5.786"
     x="24.286"
     y="46.464"
     fill="#282a36"
     rx="1.446"
     ry="1.446"
     id="rect14" />
  <rect
     width="5.786"
     height="5.786"
     x="24.286"
     y="20.429"
     fill="#282a36"
     rx="1.446"
     ry="1.446"
     id="rect16" />
</svg>
