<?xml version="1.0" encoding="UTF-8" standalone="no"?>
<svg
   width="64"
   height="64"
   version="1.1"
   id="svg12"
   sodipodi:docname="blackmagicraw-speedtest.svg"
   inkscape:version="1.2.2 (b0a8486541, 2022-12-01)"
   xmlns:inkscape="http://www.inkscape.org/namespaces/inkscape"
   xmlns:sodipodi="http://sodipodi.sourceforge.net/DTD/sodipodi-0.dtd"
   xmlns="http://www.w3.org/2000/svg"
   xmlns:svg="http://www.w3.org/2000/svg">
  <defs
     id="defs16" />
  <sodipodi:namedview
     id="namedview14"
     pagecolor="#505050"
     bordercolor="#eeeeee"
     borderopacity="1"
     inkscape:showpageshadow="0"
     inkscape:pageopacity="0"
     inkscape:pagecheckerboard="0"
     inkscape:deskcolor="#505050"
     showgrid="false"
     inkscape:zoom="15.921875"
     inkscape:cx="29.895976"
     inkscape:cy="32.031403"
     inkscape:window-width="2560"
     inkscape:window-height="1361"
     inkscape:window-x="0"
     inkscape:window-y="0"
     inkscape:window-maximized="1"
     inkscape:current-layer="svg12" />
  <circle
     cx="32"
     cy="32"
     r="27"
     fill="#424242"
     id="circle2"
     style="fill:#44475a" />
  <path
     fill="#9def75"
     d="m32 10.4 13.5 4.05 6.75 10.8L32 32Z"
     opacity=".2"
     id="path4"
     style="fill:#7afa99" />
  <path
     fill="#9def75"
     d="M32.033 8.79c-12.837 0-23.244 10.407-23.244 23.244a23.242 23.242 0 0 0 6.819 16.425c.93.811 1.69.17 2.668-.726l3.332-3.33c.911-.885.278-2.435-.995-2.437a1.41 1.41 0 0 0-1.016.425l-3.053 3.055c-2.901-3.362-4.57-7.584-4.861-12.025h4.198a1.417 1.417 0 0 0 1.434-1.443 1.417 1.417 0 0 0-1.434-1.399h-4.194a20.288 20.288 0 0 1 4.94-11.942l2.97 2.972a1.417 1.417 0 0 0 2.035-.008 1.417 1.417 0 0 0-.024-2.004l-2.971-2.97a20.288 20.288 0 0 1 11.942-4.94v4.195c-.028 1.911 2.869 1.911 2.842 0v-4.199a20.315 20.315 0 0 1 11.986 4.9l-3.016 3.014a1.418 1.418 0 0 0-.024 2.004c.558.577 1.48.58 2.035.008l3.027-3.03c2.816 3.228 4.63 7.37 4.939 12h2.842c-.723-12.275-10.881-21.775-23.177-21.79z"
     id="path6"
     style="fill:#7afa99" />
  <path
     fill="none"
     stroke="#9def75"
     stroke-linecap="round"
     stroke-linejoin="round"
     stroke-width="2.842"
     d="m51.895 25.368-19.876 6.625"
     id="path8"
     style="stroke:#7afa99" />
  <path
     fill="#f14133"
     d="M48.152 30.579a1.417 1.417 0 0 0-1.434 1.399 1.417 1.417 0 0 0 1.434 1.443h4.198a21.15 21.15 0 0 1-.453 3.173l-3.242-.867-.366 1.373 3.247.87a20.32 20.32 0 0 1-1.463 3.642l-2.95-1.702-.71 1.232 2.966 1.712a19.848 19.848 0 0 1-1.89 2.592l-3.052-3.055a1.41 1.41 0 0 0-1.016-.425c-1.274.002-1.907 1.552-.996 2.437l3.333 3.33c.977.896 1.737 1.538 2.668.726a23.243 23.243 0 0 0 6.818-16.425c0-.49-.003-.973-.033-1.455h-2.864z"
     id="path10"
     style="fill:#ff5555" />
</svg>
