<?xml version="1.0" encoding="UTF-8" standalone="no"?>
<svg
   width="64"
   height="64"
   version="1.1"
   id="svg12"
   sodipodi:docname="blanket.svg"
   inkscape:version="1.2.2 (b0a8486541, 2022-12-01)"
   xmlns:inkscape="http://www.inkscape.org/namespaces/inkscape"
   xmlns:sodipodi="http://sodipodi.sourceforge.net/DTD/sodipodi-0.dtd"
   xmlns="http://www.w3.org/2000/svg"
   xmlns:svg="http://www.w3.org/2000/svg">
  <defs
     id="defs16" />
  <sodipodi:namedview
     id="namedview14"
     pagecolor="#505050"
     bordercolor="#eeeeee"
     borderopacity="1"
     inkscape:showpageshadow="0"
     inkscape:pageopacity="0"
     inkscape:pagecheckerboard="0"
     inkscape:deskcolor="#505050"
     showgrid="false"
     inkscape:zoom="15.921875"
     inkscape:cx="29.895976"
     inkscape:cy="32.031403"
     inkscape:window-width="2560"
     inkscape:window-height="1361"
     inkscape:window-x="0"
     inkscape:window-y="0"
     inkscape:window-maximized="1"
     inkscape:current-layer="svg12" />
  <g
     transform="translate(3.826 3.826) scale(1.1739)"
     id="g10">
    <circle
       cx="24"
       cy="24"
       r="23"
       fill="#28416e"
       style="paint-order:stroke fill markers;fill:#515d85"
       id="circle2" />
    <path
       fill="#a5c8f3"
       d="m21 12-5 5 2 18v1h2v-3h2v3h2v-3l3-1 3 1v3h2v-3h2v3h2v-6l-2-3 2-3v-6l-4-3c0-1.662-3.338-3-5-3z"
       id="path4"
       style="fill:#8be9fd" />
    <path
       fill="#428ce6"
       d="M15 12v6h9v-3c0-1.662-1.338-3-3-3zm9 6v6h6v-6zm6 0h6v-3c0-1.662-1.338-3-3-3h-6c1.662 0 3 1.338 3 3zm0 6v6h6v-6zm0 6h-6v3h2v3h2v-3h2zm-6 0v-6h-9v6z"
       id="path6"
       style="fill:#13b1d5" />
    <path
       fill="#1d5aa5"
       d="M15 12c-1.662 0-3 1.338-3 3v19h2v-3h2v3h2V15c0-1.662-1.338-3-3-3z"
       id="path8"
       style="fill:#6272a4" />
  </g>
</svg>
