<?xml version="1.0" encoding="UTF-8" standalone="no"?>
<svg
   width="64"
   height="64"
   version="1.1"
   id="svg3"
   sodipodi:docname="bleachbit.svg"
   inkscape:version="1.3.2 (091e20ef0f, 2023-11-25, custom)"
   xmlns:inkscape="http://www.inkscape.org/namespaces/inkscape"
   xmlns:sodipodi="http://sodipodi.sourceforge.net/DTD/sodipodi-0.dtd"
   xmlns="http://www.w3.org/2000/svg"
   xmlns:svg="http://www.w3.org/2000/svg">
  <defs
     id="defs3" />
  <sodipodi:namedview
     id="namedview3"
     pagecolor="#505050"
     bordercolor="#f8f8f2"
     borderopacity="1"
     inkscape:showpageshadow="0"
     inkscape:pageopacity="0"
     inkscape:pagecheckerboard="1"
     inkscape:deskcolor="#505050"
     inkscape:zoom="12.453125"
     inkscape:cx="32"
     inkscape:cy="32"
     inkscape:window-width="1920"
     inkscape:window-height="1013"
     inkscape:window-x="0"
     inkscape:window-y="0"
     inkscape:window-maximized="1"
     inkscape:current-layer="svg3" />
  <path
     fill="#6272a4"
     d="M31.665 5.002a27 27 0 1 1 0 53.996 27 27 0 0 1 0-53.996z"
     id="path1"
     style="fill:#515d85" />
  <g
     fill="#f8f8f2"
     stroke-width="1.251"
     id="g3">
    <path
       d="M34.588 16.015s-5.115.028-5.36.036c-.587.087-1.245.575-1.245.575.015.004.03-.02.047-.017.452-.27 1.16-.323 1.602.123l.971 1.682 1.667 2.885 2.101 3.64c-.949.542-2.77 1.6-2.77 1.6l8.737 2.34 2.344-8.732s-2.774 1.59-2.772 1.594l-2.892-5.008c-.324-.457-.858-.63-1.318-.706-.102-.014-.587-.02-1.111-.012zM24.99 27.802l-8.736 2.337s2.767 1.606 2.769 1.602L16.13 36.75c-.234.51-.116 1.058.048 1.495.039.096.276.519.545.97 0 0 2.581 4.415 2.71 4.623.37.464 1.12.792 1.12.792-.003-.015-.031-.015-.037-.032-.46-.256-.86-.844-.695-1.45l.971-1.682 1.667-2.886 2.101-3.64c.945.551 2.77 1.6 2.77 1.6zm12.597 7.393-6.396 6.396 6.39 6.397s.01-3.198.006-3.198h5.782c.558-.053.974-.43 1.27-.79.063-.08.312-.498.568-.956 0 0 2.533-4.444 2.648-4.66.218-.551.125-1.365.125-1.365-.01.011.004.036-.008.049.008.526-.3 1.165-.908 1.325h-9.478c.005-1.093 0-3.198 0-3.198z"
       id="path2" />
    <path
       d="m23.2 24.434 5.413 3.137c.015-.01.496-.819 1.064-1.802.568-.98 1.388-2.387 1.814-3.123l.003-.001.776-1.345-2.637-4.568a1.238 1.238 0 0 0-1.616-.116c-.288.23-.384.341-.64.766-.362.6-4.174 7.05-4.181 7.054M43.472 28.892l-5.286 3.2c.002.018.462.838 1.03 1.822l1.796 3.132v.003l.777 1.345h5.274c.613-.161.99-.768.91-1.341-.057-.365-.105-.503-.345-.937-.338-.614-4.156-7.22-4.156-7.228M29.59 44.788l.002-6.394s-4.887-.002-7.132 0l-2.637 4.753c-.166.612.171 1.24.708 1.458.343.134.487.162.983.17.7.015 8.073.011 8.079.015"
       opacity=".5"
       id="path3" />
  </g>
</svg>
