<?xml version="1.0" encoding="UTF-8" standalone="no"?>
<svg
   width="64"
   height="64"
   version="1"
   id="svg5"
   sodipodi:docname="blinken.svg"
   inkscape:version="1.3.2 (091e20ef0f, 2023-11-25, custom)"
   xmlns:inkscape="http://www.inkscape.org/namespaces/inkscape"
   xmlns:sodipodi="http://sodipodi.sourceforge.net/DTD/sodipodi-0.dtd"
   xmlns="http://www.w3.org/2000/svg"
   xmlns:svg="http://www.w3.org/2000/svg">
  <sodipodi:namedview
     id="namedview5"
     pagecolor="#505050"
     bordercolor="#f8f8f2"
     borderopacity="1"
     inkscape:showpageshadow="0"
     inkscape:pageopacity="0"
     inkscape:pagecheckerboard="1"
     inkscape:deskcolor="#505050"
     inkscape:zoom="12.453125"
     inkscape:cx="32"
     inkscape:cy="32"
     inkscape:window-width="1920"
     inkscape:window-height="1013"
     inkscape:window-x="0"
     inkscape:window-y="0"
     inkscape:window-maximized="1"
     inkscape:current-layer="g4" />
  <defs
     id="defs1">
    <style
       id="current-color-scheme"
       type="text/css">.ColorScheme-Text{color:#44475a}</style>
  </defs>
  <g
     stroke-width=".741"
     id="g5">
    <g
       transform="matrix(1.35 0 0 1.35 -.4 -22)"
       id="g4">
      <path
         fill="#ffb74f"
         d="M24 20C12.92 20 4 28.92 4 40h20z"
         id="path1"
         style="fill:#bcc373" />
      <path
         fill="#e26c5c"
         d="M24 20c11.08 0 20 8.92 20 20H24z"
         id="path2"
         style="fill:#c7484a" />
      <path
         fill="#4dce7a"
         d="M24 60c11.08 0 20-8.92 20-20H24z"
         id="path3"
         style="fill:#44c367" />
      <path
         fill="#559bcb"
         d="M24 60C12.92 60 4 51.08 4 40h20z"
         id="path4"
         style="fill:#168daa" />
      <circle
         cx="24"
         cy="40"
         r="12"
         fill="#2c3d3d"
         id="circle4" />
    </g>
    <path
       fill="#f8f8f2"
       d="m34.473 20.765-3.823.359v14.768l3.781-.517v-6.313l5.044 6.988 3.95-1.192-5.168-6.708 5.21-6.354-4.034-.873-5.002 6.352zm-9.281 4.048a.3.3 0 0 0-.127.042l-1.47 1.429c-.063.062-.089.165-.043.237l1.724 2.7a6.85 6.85 0 0 0-.714 1.588l-3.193.635c-.09.023-.169.074-.169.16v1.984c0 .083.083.177.169.197l3.108.718c.166.647.418 1.26.757 1.824l-1.806 2.582c-.05.073-.024.176.042.237l1.469 1.39c.062.056.177.088.253.042l2.816-1.63a7.596 7.596 0 0 0 1.764.715l.672 2.98c.02.086.078.157.169.157h2.101c.089 0 .19-.076.211-.158l.754-2.98a7.86 7.86 0 0 0 1.851-.753l2.774 1.748c.077.046.186.021.25-.042l1.472-1.39c.063-.062.088-.165.042-.237L39.061 37.4l-.338.12c-.048.022-.098 0-.126-.04 0 0-.636-.91-1.471-2.065-.999 1.846-3.034 3.096-5.38 3.096-3.332 0-6.05-2.528-6.05-5.677 0-2.317 1.473-4.31 3.572-5.203v-1.468c-.382.127-.74.256-1.091.437h-.043l-2.816-1.748a.218.218 0 0 0-.126-.037v-.002z"
       color="#44475a"
       id="path5" />
  </g>
</svg>
