<?xml version="1.0" encoding="UTF-8" standalone="no"?>
<svg
   width="64"
   height="64"
   version="1.1"
   id="svg1"
   sodipodi:docname="bomi.svg"
   inkscape:version="1.3.2 (091e20ef0f, 2023-11-25, custom)"
   xmlns:inkscape="http://www.inkscape.org/namespaces/inkscape"
   xmlns:sodipodi="http://sodipodi.sourceforge.net/DTD/sodipodi-0.dtd"
   xmlns="http://www.w3.org/2000/svg"
   xmlns:svg="http://www.w3.org/2000/svg">
  <defs
     id="defs1" />
  <sodipodi:namedview
     id="namedview1"
     pagecolor="#505050"
     bordercolor="#f8f8f2"
     borderopacity="1"
     inkscape:showpageshadow="0"
     inkscape:pageopacity="0"
     inkscape:pagecheckerboard="1"
     inkscape:deskcolor="#505050"
     inkscape:zoom="12.453125"
     inkscape:cx="32"
     inkscape:cy="32"
     inkscape:window-width="1920"
     inkscape:window-height="1013"
     inkscape:window-x="0"
     inkscape:window-y="0"
     inkscape:window-maximized="1"
     inkscape:current-layer="g1" />
  <g
     transform="matrix(1.3 0 0 1.3 -499.14 -648.94)"
     id="g1">
    <rect
       width="40"
       height="40"
       x="388.57"
       y="503.8"
       fill="#dd5563"
       rx="6.155"
       ry="6.155"
       id="rect1"
       style="fill:#ff5555" />
    <path
       fill="#f8f8f2"
       d="M408.57 511.49a12.308 12.308 0 0 0-2.051.174v17.262c0 .568-.458 1.026-1.026 1.026h-1.026a1.023 1.023 0 0 1-1.025-1.026v-16.3a12.308 12.308 0 0 0-7.18 11.171 12.308 12.308 0 0 0 12.308 12.308 12.308 12.308 0 0 0 12.308-12.308 12.308 12.308 0 0 0-12.308-12.308m-.508 6.154a.513.56 0 0 1 .244.07l9.23 5.595a.513.56 0 0 1 0 .978l-9.23 5.595a.513.56 0 0 1-.761-.49v-11.19a.513.56 0 0 1 .517-.558"
       id="path1" />
  </g>
</svg>
