<?xml version="1.0" encoding="UTF-8" standalone="no"?>
<svg
   width="64"
   height="64"
   version="1.1"
   id="svg8"
   sodipodi:docname="bomi.svg"
   inkscape:version="1.2.2 (b0a8486541, 2022-12-01)"
   xmlns:inkscape="http://www.inkscape.org/namespaces/inkscape"
   xmlns:sodipodi="http://sodipodi.sourceforge.net/DTD/sodipodi-0.dtd"
   xmlns="http://www.w3.org/2000/svg"
   xmlns:svg="http://www.w3.org/2000/svg">
  <defs
     id="defs12" />
  <sodipodi:namedview
     id="namedview10"
     pagecolor="#505050"
     bordercolor="#eeeeee"
     borderopacity="1"
     inkscape:showpageshadow="0"
     inkscape:pageopacity="0"
     inkscape:pagecheckerboard="0"
     inkscape:deskcolor="#505050"
     showgrid="false"
     inkscape:zoom="15.921875"
     inkscape:cx="29.895976"
     inkscape:cy="32.031403"
     inkscape:window-width="2560"
     inkscape:window-height="1361"
     inkscape:window-x="0"
     inkscape:window-y="0"
     inkscape:window-maximized="1"
     inkscape:current-layer="svg8" />
  <circle
     cx="32"
     cy="32"
     r="27"
     fill="#dd5563"
     style="paint-order:stroke fill markers;fill:#fd7e7c"
     id="circle2" />
  <text
     x="451.004"
     y="-477.09299"
     font-family="'Droid Sans'"
     font-size="16.466px"
     id="text4" />
  <path
     d="m32.001 15.997a16 16 0 0 0-2.6667 0.22655v22.441c0 0.73867-0.59467 1.3333-1.3333 1.3333h-1.3333c-0.73867 0-1.3333-0.59466-1.3333-1.3333v-21.191a16 16 0 0 0-9.3334 14.524 16 16 0 0 0 16 16 16 16 0 0 0 16-16 16 16 0 0 0-16-16m-0.66145 7.9999a0.66673 0.72734 0 0 1 0.31771 0.09126l12 7.2734a0.66673 0.72734 0 0 1 0 1.2708l-12 7.2734a0.66673 0.72734 0 0 1-0.98959-0.6354v-14.547a0.66673 0.72734 0 0 1 0.67188-0.72656"
     fill="#f8f8f2"
     stroke-linejoin="round"
     stroke-width="4"
     id="path6" />
</svg>
