<?xml version="1.0" encoding="UTF-8" standalone="no"?>
<svg
   width="64"
   height="64"
   version="1"
   id="svg3"
   sodipodi:docname="boostnote.svg"
   inkscape:version="1.3.2 (091e20ef0f, 2023-11-25, custom)"
   xmlns:inkscape="http://www.inkscape.org/namespaces/inkscape"
   xmlns:sodipodi="http://sodipodi.sourceforge.net/DTD/sodipodi-0.dtd"
   xmlns="http://www.w3.org/2000/svg"
   xmlns:svg="http://www.w3.org/2000/svg">
  <defs
     id="defs3" />
  <sodipodi:namedview
     id="namedview3"
     pagecolor="#505050"
     bordercolor="#f8f8f2"
     borderopacity="1"
     inkscape:showpageshadow="0"
     inkscape:pageopacity="0"
     inkscape:pagecheckerboard="1"
     inkscape:deskcolor="#505050"
     inkscape:zoom="12.453125"
     inkscape:cx="32"
     inkscape:cy="32"
     inkscape:window-width="1920"
     inkscape:window-height="1013"
     inkscape:window-x="0"
     inkscape:window-y="0"
     inkscape:window-maximized="1"
     inkscape:current-layer="svg3" />
  <circle
     cx="32"
     cy="32"
     r="27"
     fill="#00c586"
     id="circle1"
     style="fill:#44c367" />
  <circle
     cx="32"
     cy="32"
     r="23"
     fill="#f8f8f2"
     opacity=".1"
     id="circle2"
     style="fill:#50fa7b;opacity:0.42684562" />
  <path
     fill="#f8f8f2"
     d="m44 20-30 9.6 11.105 4.619 3.894.781.836 3.994L34.4 50 44 20zM23.65 38.006c-.125.01-.287.038-.436.076-1.138.297-2.791 1.52-3.677 2.72-1.005 1.363-1.54 2.958-1.537 4.585 0 .455.02.532.154.59.152.065 1.439-.013 1.96-.12 1.506-.307 2.787-1.012 3.932-2.16.72-.721 1.147-1.316 1.565-2.187.273-.57.458-1.262.363-1.358-.019-.018-.17.07-.334.2-1.242.796-2.233 1.372-3.64 1.648.365-1.384.754-2.438 1.48-3.432.21-.283.383-.526.383-.54 0-.027-.088-.033-.213-.022z"
     id="path2" />
  <path
     fill="#c4f1e3"
     d="m14 29.6 11.105 4.618L29 35l15-15z"
     id="path3" />
</svg>
