<?xml version="1.0" encoding="UTF-8" standalone="no"?>
<svg
   width="64"
   height="64"
   version="1.1"
   viewBox="0 0 16.933 16.933"
   id="svg18"
   sodipodi:docname="brasero.svg"
   inkscape:version="1.2.2 (b0a8486541, 2022-12-01)"
   xmlns:inkscape="http://www.inkscape.org/namespaces/inkscape"
   xmlns:sodipodi="http://sodipodi.sourceforge.net/DTD/sodipodi-0.dtd"
   xmlns="http://www.w3.org/2000/svg"
   xmlns:svg="http://www.w3.org/2000/svg">
  <defs
     id="defs22" />
  <sodipodi:namedview
     id="namedview20"
     pagecolor="#505050"
     bordercolor="#eeeeee"
     borderopacity="1"
     inkscape:showpageshadow="0"
     inkscape:pageopacity="0"
     inkscape:pagecheckerboard="0"
     inkscape:deskcolor="#505050"
     showgrid="false"
     inkscape:zoom="15.921875"
     inkscape:cx="27.76055"
     inkscape:cy="32.031403"
     inkscape:window-width="2560"
     inkscape:window-height="1361"
     inkscape:window-x="0"
     inkscape:window-y="0"
     inkscape:window-maximized="1"
     inkscape:current-layer="svg18" />
  <g
     transform="translate(0 -280.07)"
     paint-order="stroke markers fill"
     id="g10">
    <circle
       cx="8.4665"
       cy="288.53"
       r="7.1436"
       fill="#cbcccc"
       id="circle2"
       style="fill:#cbcccc" />
    <circle
       cx="8.467"
       cy="288.53"
       r="4.762"
       fill="#f8f8f2"
       opacity=".5"
       id="circle4"
       style="fill:#f8f8f2" />
    <circle
       cx="8.467"
       cy="288.53"
       r="3.969"
       fill="#44475a"
       id="circle6"
       style="fill:#44475a" />
    <circle
       cx="8.467"
       cy="288.53"
       r="1.588"
       fill="#f8f8f2"
       id="circle8"
       style="fill:#f8f8f2" />
  </g>
  <g
     transform="matrix(1.5 0 0 1.5 -6.982 -426.85)"
     stroke-width=".667"
     id="g16">
    <circle
       cx="13.121"
       cy="293.03"
       r="2.117"
       fill="#ff5722"
       id="circle12"
       style="fill:#ff5555" />
    <path
       d="M13.366 291.973c-.649.264-1.039.885-1.039 1.323 0 .433.341.785.765.793a.393.393 0 0 1-.382-.396c0-.22.194-.53.52-.662 0 .463.348.53.259.794-.05.15-.173.263-.386.264h.004c.43 0 .678-.228.779-.529.178-.527-.52-.661-.52-1.587z"
       fill="#f8f8f2"
       id="path14"
       style="fill:#f8f8f2" />
  </g>
</svg>
