<?xml version="1.0" encoding="UTF-8" standalone="no"?>
<svg
   width="64"
   height="64"
   viewBox="0 0 16.933 16.933"
   version="1.1"
   id="svg5"
   sodipodi:docname="brasero.svg"
   inkscape:version="1.3.2 (091e20ef0f, 2023-11-25, custom)"
   xmlns:inkscape="http://www.inkscape.org/namespaces/inkscape"
   xmlns:sodipodi="http://sodipodi.sourceforge.net/DTD/sodipodi-0.dtd"
   xmlns="http://www.w3.org/2000/svg"
   xmlns:svg="http://www.w3.org/2000/svg">
  <defs
     id="defs5" />
  <sodipodi:namedview
     id="namedview5"
     pagecolor="#505050"
     bordercolor="#f8f8f2"
     borderopacity="1"
     inkscape:showpageshadow="0"
     inkscape:pageopacity="0"
     inkscape:pagecheckerboard="1"
     inkscape:deskcolor="#505050"
     inkscape:zoom="12.453125"
     inkscape:cx="32"
     inkscape:cy="32"
     inkscape:window-width="1920"
     inkscape:window-height="1013"
     inkscape:window-x="0"
     inkscape:window-y="0"
     inkscape:window-maximized="1"
     inkscape:current-layer="g5" />
  <g
     paint-order="stroke markers fill"
     transform="translate(0 -280.07)"
     id="g4">
    <circle
       cx="8.466"
       cy="288.53"
       r="7.144"
       fill="#cbcccc"
       id="circle1" />
    <circle
       cx="8.467"
       cy="288.53"
       r="4.762"
       fill="#f8f8f2"
       opacity=".5"
       id="circle2" />
    <circle
       cx="8.467"
       cy="288.53"
       r="3.969"
       fill="#44475a"
       id="circle3" />
    <circle
       cx="8.467"
       cy="288.53"
       r="1.588"
       fill="#f8f8f2"
       id="circle4" />
  </g>
  <g
     stroke-width=".667"
     transform="matrix(1.5 0 0 1.5 -6.982 -426.85)"
     id="g5">
    <circle
       cx="13.121"
       cy="293.03"
       r="2.117"
       fill="#ff5722"
       id="circle5"
       style="fill:#c7484a" />
    <path
       fill="#f8f8f2"
       d="M13.366 291.973c-.649.264-1.039.885-1.039 1.323 0 .433.341.785.765.793a.393.393 0 0 1-.382-.396c0-.22.194-.53.52-.662 0 .463.348.53.259.794-.05.15-.173.263-.386.264h.004c.43 0 .678-.228.779-.529.178-.527-.52-.661-.52-1.587z"
       id="path5" />
  </g>
</svg>
