<?xml version="1.0" encoding="UTF-8" standalone="no"?>
<svg
   width="64"
   height="64"
   version="1.1"
   id="svg2"
   sodipodi:docname="brave.svg"
   inkscape:version="1.3.2 (091e20ef0f, 2023-11-25, custom)"
   xmlns:inkscape="http://www.inkscape.org/namespaces/inkscape"
   xmlns:sodipodi="http://sodipodi.sourceforge.net/DTD/sodipodi-0.dtd"
   xmlns="http://www.w3.org/2000/svg"
   xmlns:svg="http://www.w3.org/2000/svg">
  <defs
     id="defs2" />
  <sodipodi:namedview
     id="namedview2"
     pagecolor="#505050"
     bordercolor="#f8f8f2"
     borderopacity="1"
     inkscape:showpageshadow="0"
     inkscape:pageopacity="0"
     inkscape:pagecheckerboard="1"
     inkscape:deskcolor="#505050"
     inkscape:zoom="12.453125"
     inkscape:cx="32"
     inkscape:cy="32"
     inkscape:window-width="1920"
     inkscape:window-height="1013"
     inkscape:window-x="0"
     inkscape:window-y="0"
     inkscape:window-maximized="1"
     inkscape:current-layer="svg2" />
  <path
     fill="#fd4932"
     d="M23.692 5c-1.039 0-4.673 4.153-5.193 4.153h-2.596c-1.038 0-4.673 3.635-4.673 4.673v3.116c0 .519-4.13 4.153-4.154 5.192s7.27 25.442 8.308 26.48S27.845 59 30.961 59h2.077c3.115 0 14.538-9.346 15.576-10.385s8.329-25.442 8.308-26.48c-.023-1.032-4.154-4.673-4.154-5.192v-3.116c0-1.038-3.634-4.673-4.673-4.673H45.5C44.98 9.153 41.345 5 40.307 5z"
     id="path1"
     style="fill:#ff5555" />
  <path
     fill="#f8f8f2"
     d="M32 12.252c-1.035 0-2.065.355-3.116 1.055-3.115 2.077-7.27-1.038-8.308-1.038s-7.269 7.566-7.269 10.384c0 2.077 7.788 6.854 7.788 8.308 0 1.038-1.557 1.537-1.557 3.74 0 1.452 2.077 4.048 4.154 4.048s7.273-4.077 7.269-5.086v-.625c0-1.246-4.673-2.817-4.673-5.193 0-2.077 1.557-2.845 1.557-5.192 0-2.019-4.153-2.596-7.269-3.115-1.038 0 3.116-3.417 8.827.276 1.446.935-1.558 4.63-1.038 8.031.778.727 2.207 1.09 3.634 1.09 1.43 0 2.856-.363 3.635-1.09.519-3.402-2.484-7.096-1.039-8.031 5.712-3.693 9.866-.276 8.827-.276-3.115.519-7.269 1.096-7.269 3.115 0 2.347 1.558 3.115 1.558 5.192 0 2.376-4.673 3.947-4.673 5.193v.625c-.005 1.01 5.192 5.086 7.269 5.086s4.154-2.596 4.154-4.048c0-2.201-1.558-2.702-1.558-3.74 0-1.454 7.788-6.23 7.788-8.308 0-2.818-6.23-10.384-7.269-10.384s-5.192 3.115-8.307 1.038c-1.051-.7-2.077-1.055-3.116-1.055zm0 24.732c-2.078 0-6.75 3.219-6.75 3.842s4.672 5.712 6.75 5.712 6.75-5.089 6.75-5.712-4.674-3.842-6.75-3.842z"
     id="path2" />
</svg>
