<?xml version="1.0" encoding="UTF-8" standalone="no"?>
<svg
   width="64"
   height="64"
   version="1.1"
   id="svg10"
   sodipodi:docname="brave-beta.svg"
   inkscape:version="1.2.2 (b0a8486541, 2022-12-01)"
   xmlns:inkscape="http://www.inkscape.org/namespaces/inkscape"
   xmlns:sodipodi="http://sodipodi.sourceforge.net/DTD/sodipodi-0.dtd"
   xmlns="http://www.w3.org/2000/svg"
   xmlns:svg="http://www.w3.org/2000/svg">
  <defs
     id="defs14" />
  <sodipodi:namedview
     id="namedview12"
     pagecolor="#505050"
     bordercolor="#eeeeee"
     borderopacity="1"
     inkscape:showpageshadow="0"
     inkscape:pageopacity="0"
     inkscape:pagecheckerboard="0"
     inkscape:deskcolor="#505050"
     showgrid="false"
     inkscape:zoom="15.921875"
     inkscape:cx="27.76055"
     inkscape:cy="32.031403"
     inkscape:window-width="2560"
     inkscape:window-height="1361"
     inkscape:window-x="0"
     inkscape:window-y="0"
     inkscape:window-maximized="1"
     inkscape:current-layer="svg10" />
  <circle
     cx="32"
     cy="32"
     r="27"
     color="#282a36"
     fill="#ff5f34"
     id="circle2"
     style="fill:#fd7e7c" />
  <g
     transform="matrix(1.5 0 0 1.5 -16 -17.918)"
     id="g8">
    <path
       d="m28 20.279c-0.5 0-2.25 2-2.5 2h-1.25c-0.5 0-2.25 1.75-2.25 2.25v1.5c0 0.25-1.989 2-2 2.5s3.5 12.25 4 12.75 6 5 7.5 5h1c1.5 0 7-4.5 7.5-5s4.01-12.25 4-12.75c-0.011-0.497-2-2.25-2-2.5v-1.5c0-0.5-1.75-2.25-2.25-2.25h-1.25c-0.25 0-2-2-2.5-2z"
       fill="#ffcf2b"
       stroke-width=".66667"
       id="path4"
       style="fill:#fdc88e" />
    <path
       d="m32 23.771c-0.498 0-0.994 0.171-1.5 0.508-1.5 1-3.5-0.5-4-0.5s-3.5 3.643-3.5 5c0 1 3.75 3.3 3.75 4 0 0.5-0.75 0.74-0.75 1.801 0 0.699 1 1.949 2 1.949s3.502-1.963 3.5-2.449v-0.301c0-0.6-2.25-1.356-2.25-2.5 0-1 0.75-1.37 0.75-2.5 0-0.972-2-1.25-3.5-1.5-0.5 0 1.5-1.645 4.25 0.133 0.696 0.45-0.75 2.229-0.5 3.867 0.375 0.35 1.063 0.525 1.75 0.525 0.688 0 1.375-0.175 1.75-0.525 0.25-1.638-1.196-3.417-0.5-3.867 2.75-1.778 4.75-0.133 4.25-0.133-1.5 0.25-3.5 0.528-3.5 1.5 0 1.13 0.75 1.5 0.75 2.5 0 1.144-2.25 1.9-2.25 2.5v0.301c-2e-3 0.486 2.5 2.449 3.5 2.449s2-1.25 2-1.949c0-1.06-0.75-1.301-0.75-1.801 0-0.7 3.75-3 3.75-4 0-1.357-3-5-3.5-5s-2.5 1.5-4 0.5c-0.506-0.337-1-0.508-1.5-0.508zm0 11.908c-1 0-3.25 1.55-3.25 1.85s2.25 2.75 3.25 2.75 3.25-2.45 3.25-2.75-2.25-1.85-3.25-1.85z"
       fill="#f8f8f2"
       stroke-width=".77778"
       id="path6" />
  </g>
</svg>
