<?xml version="1.0" encoding="UTF-8" standalone="no"?>
<svg
   width="64"
   height="64"
   viewBox="0 0 16.933 16.933"
   version="1.1"
   id="svg6"
   sodipodi:docname="budgiewprviews.svg"
   inkscape:version="1.3.2 (091e20ef0f, 2023-11-25, custom)"
   xmlns:inkscape="http://www.inkscape.org/namespaces/inkscape"
   xmlns:sodipodi="http://sodipodi.sourceforge.net/DTD/sodipodi-0.dtd"
   xmlns="http://www.w3.org/2000/svg"
   xmlns:svg="http://www.w3.org/2000/svg">
  <defs
     id="defs6" />
  <sodipodi:namedview
     id="namedview6"
     pagecolor="#505050"
     bordercolor="#f8f8f2"
     borderopacity="1"
     inkscape:showpageshadow="0"
     inkscape:pageopacity="0"
     inkscape:pagecheckerboard="1"
     inkscape:deskcolor="#505050"
     inkscape:zoom="12.453125"
     inkscape:cx="32"
     inkscape:cy="32"
     inkscape:window-width="1920"
     inkscape:window-height="1013"
     inkscape:window-x="0"
     inkscape:window-y="0"
     inkscape:window-maximized="1"
     inkscape:current-layer="svg6" />
  <rect
     width="13.229"
     height="13.229"
     x="1.852"
     y="281.92"
     fill="#13b1d5"
     stroke-width=".962"
     paint-order="markers stroke fill"
     rx="2.035"
     ry="2.035"
     transform="matrix(1.04 0 0 1.04 -.339 -291.61)"
     id="rect1"
     style="fill:#515d85" />
  <g
     fill="#f8f8f2"
     id="g6">
    <g
       transform="matrix(.16297 0 0 .16297 4.07 3.89)"
       id="g5">
      <rect
         width="16.695"
         height="12.328"
         x=".524"
         y="14.445"
         ry="2.636"
         id="rect2" />
      <rect
         width="16.695"
         height="12.328"
         x="19.651"
         y="14.445"
         ry="2.636"
         id="rect3" />
      <rect
         width="16.695"
         height="12.328"
         x=".305"
         y="29.384"
         ry="2.636"
         id="rect4" />
      <rect
         width="16.695"
         height="12.328"
         x="19.432"
         y="29.384"
         ry="2.636"
         id="rect5" />
    </g>
    <path
       d="M8.575 4.233a4.233 4.233 0 0 0-2.83 1.1h1.37a3.465 3.465 0 0 1 1.461-.331 3.465 3.465 0 0 1 3.468 3.46v.005A3.465 3.465 0 0 1 8.58 11.93a3.465 3.465 0 0 1-1.468-.33H5.74A4.233 4.233 0 0 0 8.58 12.7a4.233 4.233 0 0 0 4.232-4.233v-.005a4.233 4.233 0 0 0-4.237-4.229z"
       id="path5" />
  </g>
</svg>
