<?xml version="1.0" encoding="UTF-8" standalone="no"?>
<svg
   width="64"
   height="64"
   version="1.1"
   id="svg6"
   sodipodi:docname="buho.svg"
   inkscape:version="1.3.2 (091e20ef0f, 2023-11-25, custom)"
   xmlns:inkscape="http://www.inkscape.org/namespaces/inkscape"
   xmlns:sodipodi="http://sodipodi.sourceforge.net/DTD/sodipodi-0.dtd"
   xmlns="http://www.w3.org/2000/svg"
   xmlns:svg="http://www.w3.org/2000/svg">
  <defs
     id="defs6" />
  <sodipodi:namedview
     id="namedview6"
     pagecolor="#505050"
     bordercolor="#f8f8f2"
     borderopacity="1"
     inkscape:showpageshadow="0"
     inkscape:pageopacity="0"
     inkscape:pagecheckerboard="1"
     inkscape:deskcolor="#505050"
     inkscape:zoom="12.453125"
     inkscape:cx="32"
     inkscape:cy="32"
     inkscape:window-width="1920"
     inkscape:window-height="1013"
     inkscape:window-x="0"
     inkscape:window-y="0"
     inkscape:window-maximized="1"
     inkscape:current-layer="svg6" />
  <rect
     width="52"
     height="52"
     x="6"
     y="6"
     fill="#f8f8f2"
     rx="7"
     ry="7"
     style="paint-order:normal"
     id="rect1" />
  <path
     fill="#f2a638"
     d="M13.059 29A4.05 4.05 0 0 0 9 33.059V50.94A4.05 4.05 0 0 0 13.06 55H45.53L55 45.529V33.058a4.05 4.05 0 0 0-4.058-4.059z"
     style="paint-order:normal;fill:#ffb86c"
     id="path1" />
  <path
     fill="#f67400"
     d="m45.529 55 9.47-9.47-5.29-.092c-2.248-.04-4.008 1.81-4.058 4.058z"
     style="paint-order:normal;fill:#c7925b"
     id="path2" />
  <path
     fill="#db4957"
     d="M13.059 19A4.05 4.05 0 0 0 9 23.059V40.94A4.05 4.05 0 0 0 13.06 45H45.53L55 35.529V23.058a4.05 4.05 0 0 0-4.058-4.059z"
     style="paint-order:normal;fill:#ff5555"
     id="path3" />
  <path
     fill="#239cf3"
     d="M13.059 9A4.05 4.05 0 0 0 9 13.059V30.94A4.05 4.05 0 0 0 13.06 35H45.53L55 25.529V13.058a4.05 4.05 0 0 0-4.058-4.059z"
     style="paint-order:normal;fill:#13b1d5"
     id="path4" />
  <path
     fill="#c0392b"
     d="m45.529 45 9.47-9.47-5.29-.092c-2.248-.04-4.008 1.81-4.058 4.058z"
     style="paint-order:normal;fill:#c7484a"
     id="path5" />
  <path
     fill="#2980b9"
     d="m45.468 35 9.531-9.517-5.379-.046c-2.248-.019-4.113 1.811-4.058 4.06-.02 2.27-.094 5.503-.094 5.503z"
     style="paint-order:normal"
     id="path6" />
</svg>
