<?xml version="1.0" encoding="UTF-8" standalone="no"?>
<svg
   width="64"
   height="64"
   version="1.1"
   id="svg16"
   sodipodi:docname="buho.svg"
   inkscape:version="1.2.2 (b0a8486541, 2022-12-01)"
   xmlns:inkscape="http://www.inkscape.org/namespaces/inkscape"
   xmlns:sodipodi="http://sodipodi.sourceforge.net/DTD/sodipodi-0.dtd"
   xmlns="http://www.w3.org/2000/svg"
   xmlns:svg="http://www.w3.org/2000/svg">
  <defs
     id="defs20" />
  <sodipodi:namedview
     id="namedview18"
     pagecolor="#505050"
     bordercolor="#eeeeee"
     borderopacity="1"
     inkscape:showpageshadow="0"
     inkscape:pageopacity="0"
     inkscape:pagecheckerboard="0"
     inkscape:deskcolor="#505050"
     showgrid="false"
     inkscape:zoom="15.921875"
     inkscape:cx="29.895976"
     inkscape:cy="32.031403"
     inkscape:window-width="2560"
     inkscape:window-height="1361"
     inkscape:window-x="0"
     inkscape:window-y="0"
     inkscape:window-maximized="1"
     inkscape:current-layer="svg16" />
  <rect
     width="54"
     height="54"
     x="5"
     y="5"
     fill="#f8f8f2"
     rx="27"
     ry="27"
     style="paint-order:normal"
     id="rect2" />
  <path
     fill="#f2a638"
     d="M11.059 27a4.06 4.06 0 0 0-1.586.32A23.266 23.266 0 0 0 9 32c0 9.399 5.593 17.425 13.635 21H43.53l9.471-9.47V31.057A4.05 4.05 0 0 0 48.943 27H11.06z"
     style="paint-order:normal;fill:#ffb86c"
     id="path4" />
  <path
     fill="#f67400"
     d="m43.529 53.001 9.47-9.47-5.29-.092c-2.248-.04-4.008 1.81-4.058 4.058z"
     style="paint-order:normal;fill:#c7925b"
     id="path6" />
  <path
     fill="#db4957"
     d="M14.545 17A22.92 22.92 0 0 0 9 32a22.97 22.97 0 0 0 2.78 11h31.75L53 33.53V22.592a22.92 22.92 0 0 0-3.51-5.552 4.107 4.107 0 0 0-.549-.041H14.545z"
     style="paint-order:normal;fill:#ff5555"
     id="path8" />
  <path
     fill="#239cf3"
     d="M32 9A22.95 22.95 0 0 0 9 32c0 .15.009.297.012.445.6.351 1.298.555 2.047.555h32.47L53 23.53v-.936A22.943 22.943 0 0 0 32 9z"
     style="paint-order:normal;fill:#6272a4"
     id="path10" />
  <path
     fill="#c0392b"
     d="m43.529 43.001 9.47-9.47-5.29-.092c-2.248-.04-4.008 1.81-4.058 4.058z"
     style="paint-order:normal;fill:#c7484a"
     id="path12" />
  <path
     fill="#2980b9"
     d="m43.468 33.001 9.531-9.517-5.379-.046c-2.248-.019-4.113 1.811-4.058 4.06-.02 2.27-.094 5.503-.094 5.503z"
     style="paint-order:normal;fill:#515d85"
     id="path14" />
</svg>
