<?xml version="1.0" encoding="UTF-8" standalone="no"?>
<svg
   width="64"
   height="64"
   image-rendering="optimizeSpeed"
   version="1.1"
   id="svg4"
   sodipodi:docname="cadence.svg"
   inkscape:version="1.3.2 (091e20ef0f, 2023-11-25, custom)"
   xmlns:inkscape="http://www.inkscape.org/namespaces/inkscape"
   xmlns:sodipodi="http://sodipodi.sourceforge.net/DTD/sodipodi-0.dtd"
   xmlns="http://www.w3.org/2000/svg"
   xmlns:svg="http://www.w3.org/2000/svg">
  <defs
     id="defs4" />
  <sodipodi:namedview
     id="namedview4"
     pagecolor="#505050"
     bordercolor="#f8f8f2"
     borderopacity="1"
     inkscape:showpageshadow="0"
     inkscape:pageopacity="0"
     inkscape:pagecheckerboard="1"
     inkscape:deskcolor="#505050"
     inkscape:zoom="12.453125"
     inkscape:cx="32"
     inkscape:cy="32"
     inkscape:window-width="1920"
     inkscape:window-height="1013"
     inkscape:window-x="0"
     inkscape:window-y="0"
     inkscape:window-maximized="1"
     inkscape:current-layer="svg4" />
  <circle
     cx="22.667"
     cy="42.667"
     r="0"
     fill="#b0b0b0"
     style="paint-order:normal"
     id="circle1" />
  <circle
     cx="32"
     cy="32"
     r="27"
     fill="#ff4b68"
     style="paint-order:stroke markers fill;fill:#c7484a;fill-opacity:1"
     id="circle2" />
  <path
     d="M36.971 19.05c0 2.236-4.971 9.057-4.971 9.057s-4.971-6.82-4.971-9.057S29.255 15 32 15s4.971 1.813 4.971 4.05z"
     style="fill:#f8f8f2;fill-opacity:1;stroke:none;stroke-width:.492728;stroke-opacity:1;paint-order:markers fill stroke"
     id="path2" />
  <path
     d="m32.14 29.302 1.758 3.045 1.758 3.045h-7.032l1.758-3.045z"
     style="fill:#f8f8f2;fill-opacity:1;stroke:none;stroke-width:2;stroke-miterlimit:4;stroke-dasharray:none;stroke-opacity:1;paint-order:markers fill stroke"
     transform="matrix(1.40034 0 0 1.4091 -13.007 -13.182)"
     id="path3" />
  <path
     d="M42.233 45.549c-1.925-1.118-5.309-8.86-5.309-8.86s8.355-.922 10.28.196c1.925 1.118 2.373 3.964 1 6.357-1.373 2.392-4.046 3.425-5.97 2.307zM16.796 36.885c1.925-1.118 10.28-.196 10.28-.196s-3.384 7.742-5.31 8.86c-1.924 1.118-4.597.085-5.97-2.307-1.373-2.393-.925-5.239 1-6.357z"
     style="fill:#f8f8f2;fill-opacity:1;stroke:none;stroke-width:.492728;stroke-opacity:1;paint-order:markers fill stroke"
     id="path4" />
</svg>
