<?xml version="1.0" encoding="UTF-8" standalone="no"?>
<svg
   width="64"
   height="64"
   version="1.1"
   id="svg2"
   sodipodi:docname="caffeine.svg"
   inkscape:version="1.3.2 (091e20ef0f, 2023-11-25, custom)"
   xmlns:inkscape="http://www.inkscape.org/namespaces/inkscape"
   xmlns:sodipodi="http://sodipodi.sourceforge.net/DTD/sodipodi-0.dtd"
   xmlns="http://www.w3.org/2000/svg"
   xmlns:svg="http://www.w3.org/2000/svg">
  <defs
     id="defs2" />
  <sodipodi:namedview
     id="namedview2"
     pagecolor="#505050"
     bordercolor="#f8f8f2"
     borderopacity="1"
     inkscape:showpageshadow="0"
     inkscape:pageopacity="0"
     inkscape:pagecheckerboard="1"
     inkscape:deskcolor="#505050"
     inkscape:zoom="12.453125"
     inkscape:cx="32"
     inkscape:cy="32"
     inkscape:window-width="1920"
     inkscape:window-height="1013"
     inkscape:window-x="0"
     inkscape:window-y="0"
     inkscape:window-maximized="1"
     inkscape:current-layer="svg2" />
  <path
     fill="#9f7642"
     d="M32 5c14.912 0 27 12.088 27 27S46.912 59 32 59 5 46.912 5 32 17.088 5 32 5z"
     id="path1"
     style="fill:#c7925b" />
  <path
     fill="#f8f8f2"
     d="M20.261 28.478v12.913a4.685 4.685 0 0 0 4.696 4.696h11.739a4.685 4.685 0 0 0 4.695-4.696h1.174a4.685 4.685 0 0 0 4.696-4.696v-1.174a4.685 4.685 0 0 0-4.696-4.695h-1.174v-2.348zm21.13 4.696h1.174c1.3 0 2.348 1.047 2.348 2.348v1.173c0 1.301-1.047 2.348-2.348 2.348H41.39zM24.957 17.913c-2.348 0-4.109 1.878-4.109 3.052 0 2.165 2.935 2.818 2.935 3.991 0 1.41-1.174 1.77-2.348 2.348 2.348 0 4.109-1.056 4.109-2.348 0-2.347-2.935-2.732-2.935-4.108 0-1.761 2.678-2.935 2.348-2.935zm7.043 0c-2.347 0-4.108 1.878-4.108 3.052 0 2.165 2.935 2.818 2.935 3.991 0 1.41-1.174 1.77-2.348 2.348 2.348 0 4.109-1.056 4.109-2.348 0-2.347-2.935-2.732-2.935-4.108 0-1.761 2.677-2.935 2.348-2.935zm6.457 0c-2.348 0-4.109 1.878-4.109 3.052 0 2.165 2.935 2.818 2.935 3.991 0 1.41-1.174 1.77-2.348 2.348 2.348 0 4.109-1.056 4.109-2.348 0-2.347-2.935-2.732-2.935-4.108 0-1.761 2.678-2.935 2.348-2.935z"
     id="path2" />
</svg>
