<?xml version="1.0" encoding="UTF-8" standalone="no"?>
<svg
   width="64"
   height="64"
   version="1.1"
   viewBox="0 0 64 64"
   id="svg10"
   sodipodi:docname="caffeine.svg"
   inkscape:version="1.2.2 (b0a8486541, 2022-12-01)"
   xmlns:inkscape="http://www.inkscape.org/namespaces/inkscape"
   xmlns:sodipodi="http://sodipodi.sourceforge.net/DTD/sodipodi-0.dtd"
   xmlns="http://www.w3.org/2000/svg"
   xmlns:svg="http://www.w3.org/2000/svg">
  <defs
     id="defs14" />
  <sodipodi:namedview
     id="namedview12"
     pagecolor="#505050"
     bordercolor="#eeeeee"
     borderopacity="1"
     inkscape:showpageshadow="0"
     inkscape:pageopacity="0"
     inkscape:pagecheckerboard="0"
     inkscape:deskcolor="#505050"
     showgrid="false"
     inkscape:zoom="15.921875"
     inkscape:cx="29.895976"
     inkscape:cy="32.031403"
     inkscape:window-width="2560"
     inkscape:window-height="1361"
     inkscape:window-x="0"
     inkscape:window-y="0"
     inkscape:window-maximized="1"
     inkscape:current-layer="svg10" />
  <path
     d="m32 5c14.912 0 27 12.088 27 27s-12.088 27-27 27-27-12.088-27-27 12.088-27 27-27z"
     fill="#9f7642"
     stroke-width="1.1739"
     id="path2"
     style="fill:#c7925b" />
  <g
     transform="matrix(1.1739 0 0 1.1739 5 5)"
     id="g4" />
  <path
     d="m20.261 28.478v12.913c0 2.6014 2.0943 4.6957 4.6957 4.6957h11.739c2.6014 0 4.6957-2.0943 4.6957-4.6957h1.1739c2.6014 0 4.6957-2.0943 4.6957-4.6957v-1.1739c0-2.6014-2.0943-4.6957-4.6957-4.6957h-1.1739v-2.3478zm21.13 4.6957h1.1739c1.3007 0 2.3478 1.0471 2.3478 2.3478v1.1739c0 1.3007-1.0471 2.3478-2.3478 2.3478h-1.1739z"
     fill="#f8f8f2"
     id="path6" />
  <path
     d="m24.957 17.913c-2.3478 0-4.1087 1.8783-4.1087 3.0522 0 2.1647 2.9348 2.8174 2.9348 3.9913 0 1.4087-1.1739 1.7703-2.3478 2.3478 2.3478 0 4.1087-1.0565 4.1087-2.3478 0-2.3478-2.9348-2.7329-2.9348-4.1087 0-1.7609 2.6777-2.9348 2.3478-2.9348zm7.0435 0c-2.3478 0-4.1087 1.8783-4.1087 3.0522 0 2.1647 2.9348 2.8174 2.9348 3.9913 0 1.4087-1.1739 1.7703-2.3478 2.3478 2.3478 0 4.1087-1.0565 4.1087-2.3478 0-2.3478-2.9348-2.7329-2.9348-4.1087 0-1.7609 2.6777-2.9348 2.3478-2.9348zm6.4565 0c-2.3478 0-4.1087 1.8783-4.1087 3.0522 0 2.1647 2.9348 2.8174 2.9348 3.9913 0 1.4087-1.1739 1.7703-2.3478 2.3478 2.3478 0 4.1087-1.0565 4.1087-2.3478 0-2.3478-2.9348-2.7329-2.9348-4.1087 0-1.7609 2.6777-2.9348 2.3478-2.9348z"
     fill="#f8f8f2"
     id="path8" />
</svg>
