<?xml version="1.0" encoding="UTF-8" standalone="no"?>
<svg
   width="64"
   height="64"
   viewBox="0 0 16.933 16.933"
   version="1.1"
   id="svg7"
   sodipodi:docname="cairo-dock.svg"
   inkscape:version="1.3.2 (091e20ef0f, 2023-11-25, custom)"
   xmlns:inkscape="http://www.inkscape.org/namespaces/inkscape"
   xmlns:sodipodi="http://sodipodi.sourceforge.net/DTD/sodipodi-0.dtd"
   xmlns="http://www.w3.org/2000/svg"
   xmlns:svg="http://www.w3.org/2000/svg">
  <sodipodi:namedview
     id="namedview7"
     pagecolor="#505050"
     bordercolor="#f8f8f2"
     borderopacity="1"
     inkscape:showpageshadow="0"
     inkscape:pageopacity="0"
     inkscape:pagecheckerboard="1"
     inkscape:deskcolor="#505050"
     inkscape:zoom="12.453125"
     inkscape:cx="32"
     inkscape:cy="31.919699"
     inkscape:window-width="1920"
     inkscape:window-height="1013"
     inkscape:window-x="0"
     inkscape:window-y="0"
     inkscape:window-maximized="1"
     inkscape:current-layer="svg7" />
  <defs
     id="defs2">
    <linearGradient
       id="a"
       x1="13.229"
       x2="2.117"
       y1="297"
       y2="280.07"
       gradientTransform="matrix(.96429 0 0 1.1739 .303 -330.25)"
       gradientUnits="userSpaceOnUse">
      <stop
         offset="0"
         stop-color="#6fe347"
         id="stop1" />
      <stop
         offset="1"
         stop-color="#80e8c4"
         id="stop2" />
    </linearGradient>
  </defs>
  <rect
     width="14.287"
     height="14.287"
     x="1.323"
     y="1.323"
     fill="url(#a)"
     ry="7.144"
     style="paint-order:stroke markers fill;fill:#44c367"
     id="rect2" />
  <path
     d="M8.467 1.323c-1.383 0-2.67.388-3.755 1.058h7.51a7.123 7.123 0 0 0-3.756-1.058z"
     opacity=".35"
     style="paint-order:stroke markers fill"
     id="path2" />
  <rect
     width="2.646"
     height=".529"
     x="7.12"
     y="1.588"
     opacity=".35"
     ry=".265"
     style="paint-order:stroke markers fill"
     id="rect3" />
  <path
     fill="#f8f8f2"
     d="M4.057 11.377h8.996c.293 0 .529.118.529.264v.794c0 .147-.236.265-.53.265H4.058c-.293 0-.53-.118-.53-.265v-.794c0-.146.237-.264.53-.264z"
     opacity=".35"
     style="paint-order:stroke markers fill"
     id="path3" />
  <g
     fill="#dbffd4"
     id="g7">
    <rect
       width="1.323"
       height="1.323"
       x="4.586"
       y="10.583"
       ry=".132"
       style="paint-order:stroke markers fill"
       id="rect4" />
    <rect
       width="1.323"
       height="1.323"
       x="6.791"
       y="10.583"
       ry=".132"
       style="paint-order:stroke markers fill"
       id="rect5" />
    <rect
       width="1.323"
       height="1.323"
       x="8.996"
       y="10.583"
       ry=".132"
       style="paint-order:stroke markers fill"
       id="rect6" />
    <rect
       width="1.323"
       height="1.323"
       x="11.201"
       y="10.583"
       ry=".132"
       style="paint-order:stroke markers fill"
       id="rect7" />
  </g>
</svg>
