<?xml version="1.0" encoding="UTF-8" standalone="no"?>
<svg
   width="64"
   height="64"
   version="1.1"
   viewBox="0 0 16.933 16.933"
   id="svg20"
   sodipodi:docname="cairo-dock.svg"
   inkscape:version="1.2.2 (b0a8486541, 2022-12-01)"
   xmlns:inkscape="http://www.inkscape.org/namespaces/inkscape"
   xmlns:sodipodi="http://sodipodi.sourceforge.net/DTD/sodipodi-0.dtd"
   xmlns="http://www.w3.org/2000/svg"
   xmlns:svg="http://www.w3.org/2000/svg">
  <defs
     id="defs24" />
  <sodipodi:namedview
     id="namedview22"
     pagecolor="#505050"
     bordercolor="#eeeeee"
     borderopacity="1"
     inkscape:showpageshadow="0"
     inkscape:pageopacity="0"
     inkscape:pagecheckerboard="0"
     inkscape:deskcolor="#505050"
     showgrid="false"
     inkscape:zoom="15.921875"
     inkscape:cx="29.895976"
     inkscape:cy="32.031403"
     inkscape:window-width="2560"
     inkscape:window-height="1361"
     inkscape:window-x="0"
     inkscape:window-y="0"
     inkscape:window-maximized="1"
     inkscape:current-layer="svg20" />
  <rect
     x="1.3229"
     y="1.3229"
     width="14.287"
     height="14.287"
     ry="7.1436"
     fill="#78e689"
     style="paint-order:stroke markers fill;fill:#44c367"
     id="rect2" />
  <path
     d="m8.4668 1.3226c-1.3832 0-2.6695 0.38883-3.7548 1.0588h7.5092c-1.0851-0.67002-2.3715-1.0588-3.7548-1.0588z"
     opacity=".35"
     style="paint-order:stroke markers fill"
     id="path4" />
  <rect
     x="7.12"
     y="1.5876"
     width="2.646"
     height=".529"
     ry=".265"
     opacity=".35"
     style="paint-order:stroke markers fill"
     id="rect6" />
  <path
     d="m4.057 11.377h8.996c0.293 0 0.529 0.118 0.529 0.264v0.794c0 0.147-0.236 0.265-0.53 0.265h-8.994c-0.293 0-0.53-0.118-0.53-0.265v-0.794c0-0.146 0.237-0.264 0.53-0.264z"
     fill="#f8f8f2"
     opacity=".35"
     style="paint-order:stroke markers fill"
     id="path8" />
  <g
     fill="#dbffd4"
     id="g18"
     style="fill:#f8f8f2">
    <rect
       x="4.586"
       y="10.583"
       width="1.323"
       height="1.323"
       ry=".132"
       style="paint-order:stroke markers fill;fill:#f8f8f2"
       id="rect10" />
    <rect
       x="6.791"
       y="10.583"
       width="1.323"
       height="1.323"
       ry=".132"
       style="paint-order:stroke markers fill;fill:#f8f8f2"
       id="rect12" />
    <rect
       x="8.996"
       y="10.583"
       width="1.323"
       height="1.323"
       ry=".132"
       style="paint-order:stroke markers fill;fill:#f8f8f2"
       id="rect14" />
    <rect
       x="11.201"
       y="10.583"
       width="1.323"
       height="1.323"
       ry=".132"
       style="paint-order:stroke markers fill;fill:#f8f8f2"
       id="rect16" />
  </g>
</svg>
