<?xml version="1.0" encoding="UTF-8" standalone="no"?>
<svg
   width="64"
   height="64"
   version="1.1"
   viewBox="0 0 64 64"
   id="svg30"
   sodipodi:docname="calamares.svg"
   inkscape:version="1.2.2 (b0a8486541, 2022-12-01)"
   xmlns:inkscape="http://www.inkscape.org/namespaces/inkscape"
   xmlns:sodipodi="http://sodipodi.sourceforge.net/DTD/sodipodi-0.dtd"
   xmlns="http://www.w3.org/2000/svg"
   xmlns:svg="http://www.w3.org/2000/svg">
  <defs
     id="defs34" />
  <sodipodi:namedview
     id="namedview32"
     pagecolor="#505050"
     bordercolor="#eeeeee"
     borderopacity="1"
     inkscape:showpageshadow="0"
     inkscape:pageopacity="0"
     inkscape:pagecheckerboard="0"
     inkscape:deskcolor="#505050"
     showgrid="false"
     inkscape:zoom="15.921875"
     inkscape:cx="29.895976"
     inkscape:cy="32.031403"
     inkscape:window-width="2560"
     inkscape:window-height="1361"
     inkscape:window-x="0"
     inkscape:window-y="0"
     inkscape:window-maximized="1"
     inkscape:current-layer="svg30" />
  <g
     transform="translate(0 -1058.5)"
     id="g28">
    <ellipse
       transform="rotate(-15)"
       cx="-251.33"
       cy="1061.6"
       rx="27"
       ry="27"
       fill="#cbcccc"
       id="ellipse2" />
    <circle
       cx="32"
       cy="1090.5"
       r="10"
       fill="#bdbdbd"
       id="circle4"
       style="fill:#9ea0a6" />
    <circle
       cx="32"
       cy="1090.5"
       r="5"
       fill="#424242"
       id="circle6"
       style="fill:#44475a" />
    <rect
       x="44"
       y="1089.5"
       width="9"
       height="10"
       ry=".99995"
       fill="#4a606a"
       id="rect8"
       style="fill:#717380" />
    <path
       transform="translate(0 1058.5)"
       d="m43 39c-0.55397 0-1 0.44603-1 1v16c0 1.662 1.338 3 3 3h7c1.662 0 3-1.338 3-3v-16c0-0.55397-0.44603-1-1-1h-11z"
       fill="#f6744a"
       id="path10"
       style="fill:#fd7e7c" />
    <g
       fill="#f8f8f2"
       id="g18">
      <rect
         x="45"
         y="1100.5"
         width="7"
         height="1"
         ry=".5"
         id="rect12" />
      <rect
         x="46"
         y="1102.5"
         width="5"
         height=".99995"
         ry=".45312"
         id="rect14" />
      <rect
         x="47"
         y="1104.5"
         width="3"
         height="1"
         ry=".45312"
         id="rect16" />
    </g>
    <g
       fill="#ffd54f"
       id="g26"
       style="fill:#ffb86c">
      <rect
         x="46"
         y="1091.5"
         width="1"
         height="5"
         id="rect20"
         style="fill:#ffb86c" />
      <rect
         x="50"
         y="1091.5"
         width="1"
         height="5"
         id="rect22"
         style="fill:#ffb86c" />
      <rect
         x="48"
         y="1093.5"
         width="1"
         height="3"
         id="rect24"
         style="fill:#ffb86c" />
    </g>
  </g>
</svg>
