<?xml version="1.0" encoding="UTF-8" standalone="no"?>
<svg
   width="64"
   height="64"
   viewBox="0 0 16.933 16.933"
   version="1.1"
   id="svg7"
   sodipodi:docname="calc.svg"
   inkscape:version="1.3.2 (091e20ef0f, 2023-11-25, custom)"
   xmlns:inkscape="http://www.inkscape.org/namespaces/inkscape"
   xmlns:sodipodi="http://sodipodi.sourceforge.net/DTD/sodipodi-0.dtd"
   xmlns="http://www.w3.org/2000/svg"
   xmlns:svg="http://www.w3.org/2000/svg">
  <defs
     id="defs7" />
  <sodipodi:namedview
     id="namedview7"
     pagecolor="#505050"
     bordercolor="#f8f8f2"
     borderopacity="1"
     inkscape:showpageshadow="0"
     inkscape:pageopacity="0"
     inkscape:pagecheckerboard="1"
     inkscape:deskcolor="#505050"
     inkscape:zoom="12.453125"
     inkscape:cx="32"
     inkscape:cy="31.919699"
     inkscape:window-width="1920"
     inkscape:window-height="1013"
     inkscape:window-x="0"
     inkscape:window-y="0"
     inkscape:window-maximized="1"
     inkscape:current-layer="svg7" />
  <path
     fill="#e5e5e5"
     d="M1.587 8.463v4.766c0 1.136.887 2.058 2.008 2.114h4.872v-6.88h-6.88z"
     style="paint-order:stroke markers fill"
     id="path1" />
  <path
     fill="#f8f8f2"
     d="M3.704 1.587a2.112 2.112 0 0 0-2.117 2.117v4.76h6.88V1.587H3.704z"
     style="paint-order:stroke markers fill"
     id="path2" />
  <path
     fill="#d96b5f"
     d="M8.467 1.587v13.756h4.87a2.112 2.112 0 0 0 2.009-2.114V3.704a2.112 2.112 0 0 0-2.117-2.117H8.467z"
     style="paint-order:stroke markers fill;fill:#515d85"
     id="path3" />
  <rect
     width="3.175"
     height=".529"
     x="3.704"
     y="5.02"
     fill="#787878"
     ry="0"
     style="paint-order:stroke markers fill"
     id="rect3" />
  <rect
     width="3.175"
     height=".529"
     x="3.7"
     y="-5.556"
     fill="#787878"
     ry="0"
     style="paint-order:stroke markers fill"
     transform="rotate(90)"
     id="rect4" />
  <rect
     width="3.175"
     height=".529"
     x="10.319"
     y="7.408"
     fill="#f8f8f2"
     ry="0"
     style="paint-order:stroke markers fill"
     id="rect5" />
  <rect
     width="3.175"
     height=".529"
     x="10.319"
     y="8.996"
     fill="#f8f8f2"
     ry="0"
     style="paint-order:stroke markers fill"
     id="rect6" />
  <rect
     width="3.175"
     height=".529"
     x="3.704"
     y="11.64"
     fill="#787878"
     ry="0"
     style="paint-order:stroke markers fill"
     id="rect7" />
</svg>
