<?xml version="1.0" encoding="UTF-8" standalone="no"?>
<svg
   width="64"
   height="64"
   version="1.1"
   viewBox="0 0 64 64"
   id="svg20"
   sodipodi:docname="calibre-ebook-edit.svg"
   inkscape:version="1.2.2 (b0a8486541, 2022-12-01)"
   xmlns:inkscape="http://www.inkscape.org/namespaces/inkscape"
   xmlns:sodipodi="http://sodipodi.sourceforge.net/DTD/sodipodi-0.dtd"
   xmlns="http://www.w3.org/2000/svg"
   xmlns:svg="http://www.w3.org/2000/svg">
  <defs
     id="defs24" />
  <sodipodi:namedview
     id="namedview22"
     pagecolor="#505050"
     bordercolor="#eeeeee"
     borderopacity="1"
     inkscape:showpageshadow="0"
     inkscape:pageopacity="0"
     inkscape:pagecheckerboard="0"
     inkscape:deskcolor="#505050"
     showgrid="false"
     inkscape:zoom="15.921875"
     inkscape:cx="29.895976"
     inkscape:cy="32.031403"
     inkscape:window-width="2560"
     inkscape:window-height="1361"
     inkscape:window-x="0"
     inkscape:window-y="0"
     inkscape:window-maximized="1"
     inkscape:current-layer="svg20" />
  <g
     transform="matrix(1.1739 0 0 1.1739 3.8261 -14.956)"
     stroke-width=".85185"
     id="g14">
    <g
       transform="translate(0,16)"
       fill="#c7484a"
       id="g4">
      <path
         d="m24 0.99949c12.703 0 23 10.297 23 23s-10.297 23-23 23-23-10.297-23-23 10.297-23 23-23z"
         stroke-width=".85186"
         id="path2" />
    </g>
    <g
       transform="translate(0,16)"
       id="g12">
      <g
         stroke-width=".85185"
         id="g10">
        <g
           stroke-width=".85185"
           id="g8">
          <path
             d="m11.996 13v17l9 6v-17.5zm2 0 8 5h4l8-5c-4 0-6 0.52-10 4-4-3.395-6-4-10-4zm22 0-9 5.5v17.5l9-6zm-14 6v18h4v-18z"
             fill="#f8f8f2"
             id="path6" />
        </g>
      </g>
    </g>
  </g>
  <circle
     cx="48"
     cy="46"
     r="15"
     fill="#8561c5"
     stroke-width=".9375"
     id="circle16"
     style="fill:#9576c5" />
  <path
     d="m46 38-0.1764 2.1072a6.2858 6.2858 0 0 0-1.837 1.0625l-1.9152-0.9018-2 3.4642 1.7388 1.2076a6.2858 6.2858 0 0 0-0.096 1.0603 6.2858 6.2858 0 0 0 0.0914 1.0647l-1.734 1.204 2 3.4642 1.9107-0.89956a6.2858 6.2858 0 0 0 1.8415 1.0558l0.1764 2.1116h4l0.1764-2.1072a6.2858 6.2858 0 0 0 1.8371-1.0625l1.9152 0.9018 2-3.4642-1.7388-1.2076a6.2858 6.2858 0 0 0 0.096-1.0603 6.2858 6.2858 0 0 0-0.0914-1.0647l1.7344-1.2031-2-3.4642-1.9107 0.89956a6.2858 6.2858 0 0 0-1.8415-1.0558l-0.1764-2.1116h-4zm2 5.7144a2.2858 2.2858 0 0 1 2.286 2.286 2.2858 2.2858 0 0 1-2.286 2.286 2.2858 2.2858 0 0 1-2.286-2.286 2.2858 2.2858 0 0 1 2.286-2.286z"
     fill="#f8f8f2"
     id="path18" />
</svg>
