<?xml version="1.0" encoding="UTF-8" standalone="no"?>
<svg
   width="64"
   height="64"
   version="1.1"
   id="svg2"
   sodipodi:docname="cantata.svg"
   inkscape:version="1.3.2 (091e20ef0f, 2023-11-25, custom)"
   xmlns:inkscape="http://www.inkscape.org/namespaces/inkscape"
   xmlns:sodipodi="http://sodipodi.sourceforge.net/DTD/sodipodi-0.dtd"
   xmlns="http://www.w3.org/2000/svg"
   xmlns:svg="http://www.w3.org/2000/svg">
  <defs
     id="defs2" />
  <sodipodi:namedview
     id="namedview2"
     pagecolor="#505050"
     bordercolor="#f8f8f2"
     borderopacity="1"
     inkscape:showpageshadow="0"
     inkscape:pageopacity="0"
     inkscape:pagecheckerboard="1"
     inkscape:deskcolor="#505050"
     inkscape:zoom="12.453125"
     inkscape:cx="32"
     inkscape:cy="32"
     inkscape:window-width="1920"
     inkscape:window-height="1013"
     inkscape:window-x="0"
     inkscape:window-y="0"
     inkscape:window-maximized="1"
     inkscape:current-layer="g2" />
  <g
     stroke-linejoin="round"
     stroke-width="1.482"
     transform="matrix(1.35 0 0 1.35 -.4 -22)"
     id="g2">
    <circle
       cx="24"
       cy="24"
       r="20"
       fill="#9ea0a6"
       transform="translate(0 16)"
       id="circle1"
       style="fill:#cbcccc" />
    <path
       fill="#39c458"
       d="M24 20A20 20 0 0 0 4 40a20 20 0 0 0 20 20 20 20 0 0 0 14.133-5.867L24 40l14.13-14.133A20 20 0 0 0 24 20"
       id="path1"
       style="fill:#44c367" />
    <circle
       cx="24"
       cy="40"
       r="16"
       fill="#f8f8f2"
       id="circle2"
       style="fill:#f8f8f2" />
  </g>
  <path
     fill="#44475a"
     fill-rule="evenodd"
     d="m32 4.308 4.154 1.385s1.72 5.292 3.104 6.676C41.448 14.56 50 19.54 50 30.616c0 8.308-5.538 13.846-12.462 18 6.923-6.923 9.693-9.692 9.693-18 0-11.077-11.077-12.462-11.077-12.462v30.151c0 3.081-2.904 8.195-7.642 10.162-6.007 2.488-12.3 1.068-14.054-3.172-1.754-4.238 1.69-9.691 7.694-12.178 3.588-1.487 6.951-1.828 9.85-.577z"
     id="path2"
     style="fill:#282a36" />
</svg>
