<?xml version="1.0" encoding="UTF-8" standalone="no"?>
<svg
   width="64"
   height="64"
   image-rendering="optimizeSpeed"
   version="1.1"
   id="svg6"
   sodipodi:docname="carla.svg"
   inkscape:version="1.3.2 (091e20ef0f, 2023-11-25, custom)"
   xmlns:inkscape="http://www.inkscape.org/namespaces/inkscape"
   xmlns:sodipodi="http://sodipodi.sourceforge.net/DTD/sodipodi-0.dtd"
   xmlns="http://www.w3.org/2000/svg"
   xmlns:svg="http://www.w3.org/2000/svg">
  <defs
     id="defs6" />
  <sodipodi:namedview
     id="namedview6"
     pagecolor="#505050"
     bordercolor="#f8f8f2"
     borderopacity="1"
     inkscape:showpageshadow="0"
     inkscape:pageopacity="0"
     inkscape:pagecheckerboard="1"
     inkscape:deskcolor="#505050"
     inkscape:zoom="12.453125"
     inkscape:cx="32"
     inkscape:cy="32"
     inkscape:window-width="1920"
     inkscape:window-height="1013"
     inkscape:window-x="0"
     inkscape:window-y="0"
     inkscape:window-maximized="1"
     inkscape:current-layer="svg6" />
  <rect
     width="52"
     height="52"
     x="6"
     y="6"
     fill="#ff4b68"
     rx="8"
     ry="8"
     id="rect1"
     style="fill:#ff5555" />
  <rect
     width="32"
     height="32"
     x="16"
     y="16"
     fill="#3d3d3d"
     rx="2.667"
     style="paint-order:normal"
     id="rect2" />
  <circle
     cx="-42"
     cy="32"
     r="3"
     fill="gray"
     style="paint-order:normal"
     transform="rotate(-90)"
     id="circle2" />
  <path
     fill="#f8f8f2"
     d="M35 42a3 3 0 0 0-.407-1.5H32a1.5 1.5 0 0 0-1.5 1.5 1.5 1.5 0 0 0 1.5 1.5h2.596A3 3 0 0 0 35 42z"
     opacity=".25"
     style="paint-order:normal"
     id="path2" />
  <circle
     cx="-42"
     cy="22.407"
     r="3"
     fill="gray"
     style="paint-order:normal"
     transform="rotate(-90)"
     id="circle3" />
  <path
     fill="#f8f8f2"
     d="M22.407 39a3 3 0 0 0-1.5.407V42a1.5 1.5 0 0 0 1.5 1.5 1.5 1.5 0 0 0 1.5-1.5v-2.596a3 3 0 0 0-1.5-.404z"
     opacity=".25"
     style="paint-order:normal"
     id="path3" />
  <circle
     cx="-42"
     cy="41"
     r="3"
     fill="gray"
     style="paint-order:normal"
     transform="rotate(-90)"
     id="circle4" />
  <path
     fill="#f8f8f2"
     d="M41 45a3 3 0 0 0 1.5-.407V42a1.5 1.5 0 0 0-1.5-1.5 1.5 1.5 0 0 0-1.5 1.5v2.596A3 3 0 0 0 41 45z"
     opacity=".25"
     style="paint-order:normal"
     id="path4" />
  <rect
     width="26"
     height="18"
     x="19"
     y="19"
     fill="#202020"
     ry="1"
     style="paint-order:normal"
     id="rect4" />
  <circle
     cx="22.667"
     cy="42.667"
     r="0"
     fill="#b0b0b0"
     style="paint-order:normal"
     id="circle5" />
  <path
     fill="#3af684"
     d="M21 20h5v16h-5zM29 30h6v6h-6z"
     style="paint-order:normal;fill:#50fa7b"
     id="path5" />
  <path
     fill="#0eabe7"
     d="M38 26h5v10h-5z"
     style="paint-order:normal;fill:#13b1d5"
     id="path6" />
</svg>
