<?xml version="1.0" encoding="UTF-8" standalone="no"?>
<svg
   id="Flamingo"
   width="64"
   height="64"
   enable-background="new 0 0 1024 1024"
   image-rendering="optimizeSpeed"
   version="1.1"
   viewBox="0 0 64 64"
   sodipodi:docname="carla.svg"
   inkscape:version="1.2.2 (b0a8486541, 2022-12-01)"
   xmlns:inkscape="http://www.inkscape.org/namespaces/inkscape"
   xmlns:sodipodi="http://sodipodi.sourceforge.net/DTD/sodipodi-0.dtd"
   xmlns="http://www.w3.org/2000/svg"
   xmlns:svg="http://www.w3.org/2000/svg">
  <defs
     id="defs291" />
  <sodipodi:namedview
     id="namedview289"
     pagecolor="#505050"
     bordercolor="#eeeeee"
     borderopacity="1"
     inkscape:showpageshadow="0"
     inkscape:pageopacity="0"
     inkscape:pagecheckerboard="0"
     inkscape:deskcolor="#505050"
     showgrid="false"
     inkscape:zoom="15.921875"
     inkscape:cx="29.83317"
     inkscape:cy="32.031403"
     inkscape:window-width="1280"
     inkscape:window-height="1361"
     inkscape:window-x="0"
     inkscape:window-y="0"
     inkscape:window-maximized="0"
     inkscape:current-layer="Flamingo" />
  <circle
     cx="32"
     cy="32"
     r="27"
     fill="#ff4b68"
     stroke-width=".9"
     style="paint-order:stroke markers fill;fill:#c7639f"
     id="circle262" />
  <rect
     x="16"
     y="16"
     width="32"
     height="32"
     rx="2.6667"
     fill="#3d3d3d"
     stroke-width="1.3333"
     style="paint-order:normal;fill:#44475a"
     id="rect264" />
  <circle
     transform="rotate(-90)"
     cx="-42"
     cy="32"
     r="3"
     fill="#717380"
     stroke-width="1.5"
     style="paint-order:normal"
     id="circle266" />
  <path
     d="m35 42a3 3 0 0 0-0.40722-1.5h-2.5927a1.5 1.5 0 0 0-1.5 1.5 1.5 1.5 0 0 0 1.5 1.5h2.5957a3 3 0 0 0 0.40429-1.5z"
     fill="#f8f8f2"
     opacity=".25"
     stroke-width="1.5"
     style="paint-order:normal"
     id="path268" />
  <circle
     transform="rotate(-90)"
     cx="-42"
     cy="22.407"
     r="3"
     fill="#717380"
     stroke-width="1.5"
     style="paint-order:normal"
     id="circle270" />
  <path
     d="m22.407 39a3 3 0 0 0-1.5 0.40722v2.5927a1.5 1.5 0 0 0 1.5 1.5 1.5 1.5 0 0 0 1.5-1.5v-2.5957a3 3 0 0 0-1.5-0.40429z"
     fill="#f8f8f2"
     opacity=".25"
     stroke-width="1.5"
     style="paint-order:normal"
     id="path272" />
  <circle
     transform="rotate(-90)"
     cx="-42"
     cy="41"
     r="3"
     fill="#717380"
     stroke-width="1.5"
     style="paint-order:normal"
     id="circle274" />
  <path
     d="m41 45a3 3 0 0 0 1.5-0.40722v-2.5927a1.5 1.5 0 0 0-1.5-1.5 1.5 1.5 0 0 0-1.5 1.5v2.5957a3 3 0 0 0 1.5 0.40429z"
     fill="#f8f8f2"
     opacity=".25"
     stroke-width="1.5"
     style="paint-order:normal"
     id="path276" />
  <rect
     x="19"
     y="19"
     width="26"
     height="18"
     ry="1"
     fill="#202020"
     stroke-width="1.2928"
     style="paint-order:normal;fill:#1e1f29"
     id="rect278" />
  <ellipse
     cx="22.667"
     cy="42.667"
     r="2.6667"
     fill="#b0b0b0"
     stroke-width="1.3333"
     style="paint-order:normal"
     id="ellipse280" />
  <rect
     x="21"
     y="20"
     width="5"
     height="16"
     fill="#3af684"
     stroke-width="1.291"
     style="paint-order:normal;fill:#7afa99"
     id="rect282" />
  <rect
     x="29"
     y="30"
     width="6"
     height="6"
     fill="#3af684"
     stroke-width="1.5"
     style="paint-order:normal;fill:#7afa99"
     id="rect284" />
  <rect
     x="38"
     y="26"
     width="5"
     height="10"
     fill="#0eabe7"
     stroke-width="1.3363"
     style="paint-order:normal;fill:#13b1d5"
     id="rect286" />
</svg>
