<?xml version="1.0" encoding="UTF-8" standalone="no"?>
<svg
   id="App-Store"
   width="64"
   height="64"
   enable-background="new 0 0 1024 1024"
   image-rendering="optimizeSpeed"
   version="1.1"
   viewBox="0 0 64 64"
   sodipodi:docname="cawbird.svg"
   inkscape:version="1.2.2 (b0a8486541, 2022-12-01)"
   xmlns:inkscape="http://www.inkscape.org/namespaces/inkscape"
   xmlns:sodipodi="http://sodipodi.sourceforge.net/DTD/sodipodi-0.dtd"
   xmlns="http://www.w3.org/2000/svg"
   xmlns:svg="http://www.w3.org/2000/svg">
  <sodipodi:namedview
     id="namedview24"
     pagecolor="#505050"
     bordercolor="#eeeeee"
     borderopacity="1"
     inkscape:showpageshadow="0"
     inkscape:pageopacity="0"
     inkscape:pagecheckerboard="0"
     inkscape:deskcolor="#505050"
     showgrid="false"
     inkscape:zoom="15.921875"
     inkscape:cx="29.895976"
     inkscape:cy="32.031403"
     inkscape:window-width="2560"
     inkscape:window-height="1361"
     inkscape:window-x="0"
     inkscape:window-y="0"
     inkscape:window-maximized="1"
     inkscape:current-layer="App-Store" />
  <defs
     id="defs7">
    <linearGradient
       id="b-3"
       x1="399.57"
       x2="399.57"
       y1="545.8"
       y2="517.8"
       gradientTransform="matrix(2.1429,0,0,2.1429,-826.36,-1107.5)"
       gradientUnits="userSpaceOnUse">
      <stop
         stop-color="#3889e9"
         offset="0"
         id="stop2" />
      <stop
         stop-color="#5ea5fb"
         offset="1"
         id="stop4" />
    </linearGradient>
  </defs>
  <circle
     cx="32.02"
     cy="32.044"
     r="30.001"
     fill-opacity="0"
     stroke-width="1.5715"
     id="circle9" />
  <circle
     cx="32.02"
     cy="32.044"
     r="0"
     fill="url(#b-3)"
     stroke-width="1.5715"
     id="circle11"
     style="fill:#168daa" />
  <g
     transform="matrix(1.4359 0 0 1.4444 -13.949 -14.222)"
     id="g21">
    <ellipse
       cx="32"
       cy="32"
       rx="19.5"
       ry="18"
       fill="#6f467c"
       stroke-width="1.2928"
       style="paint-order:normal;fill:#7b7bbd"
       id="ellipse13" />
    <path
       d="m26.15 23c-3.9489-0.0019-7.15 3.1659-7.15 7.0714s3.2011 7.0714 7.15 7.0714h11.7c3.9489 0 7.15-3.1659 7.15-7.0714s-3.2011-7.0725-7.15-7.0714c-2.3313 5.72e-4 -4.5156 1.1271-5.8526 3.0159-1.336-1.8874-3.5179-3.0147-5.8474-3.0159z"
       fill="#f8f8f2"
       stroke-width="1.2928"
       style="paint-order:normal"
       id="path15" />
    <path
       d="m32.001 33.286c-2.5987 0-5.2013 1.9286-5.2013 3.8571 0 1.9286 4.1944 9 5.2013 9s5.1987-7.0714 5.1987-9-2.6-3.8571-5.1987-3.8571z"
       fill="#c6557f"
       stroke-width=".7778"
       id="path17"
       style="fill:#c7639f" />
    <path
       d="m26.8 28.143c-1.436 0-2.6 1.1513-2.6 2.5714 0 1.4202 1.1641 2.5714 2.6 2.5714s2.6-1.1513 2.6-2.5714c0-1.4202-1.1641-2.5714-2.6-2.5714zm10.4 0c-1.436 0-2.6 1.1513-2.6 2.5714 0 1.4202 1.1641 2.5714 2.6 2.5714s2.6-1.1513 2.6-2.5714c0-1.4202-1.1641-2.5714-2.6-2.5714zm-11.05 1.2857c0.35898 0 0.65 0.28782 0.65 0.64286s-0.29102 0.64286-0.65 0.64286-0.65-0.28782-0.65-0.64286 0.29102-0.64286 0.65-0.64286zm10.4 0c0.35898 0 0.65 0.28782 0.65 0.64286s-0.29102 0.64286-0.65 0.64286-0.65-0.28782-0.65-0.64286 0.29102-0.64286 0.65-0.64286z"
       fill="#2f5b93"
       stroke-width="1.2928"
       style="paint-order:normal;fill:#515d85"
       id="path19" />
  </g>
</svg>
