<?xml version="1.0" encoding="UTF-8" standalone="no"?>
<svg
   width="64"
   height="64"
   version="1.1"
   id="svg3"
   sodipodi:docname="cellwriter.svg"
   inkscape:version="1.3.2 (091e20ef0f, 2023-11-25, custom)"
   xmlns:inkscape="http://www.inkscape.org/namespaces/inkscape"
   xmlns:sodipodi="http://sodipodi.sourceforge.net/DTD/sodipodi-0.dtd"
   xmlns="http://www.w3.org/2000/svg"
   xmlns:svg="http://www.w3.org/2000/svg">
  <defs
     id="defs3" />
  <sodipodi:namedview
     id="namedview3"
     pagecolor="#505050"
     bordercolor="#f8f8f2"
     borderopacity="1"
     inkscape:showpageshadow="0"
     inkscape:pageopacity="0"
     inkscape:pagecheckerboard="1"
     inkscape:deskcolor="#505050"
     inkscape:zoom="12.453125"
     inkscape:cx="32"
     inkscape:cy="32"
     inkscape:window-width="1920"
     inkscape:window-height="1013"
     inkscape:window-x="0"
     inkscape:window-y="0"
     inkscape:window-maximized="1"
     inkscape:current-layer="g3" />
  <g
     stroke-width=".852"
     id="g3">
    <path
       fill="#e9e9e9"
       d="M32 5c14.912 0 27 12.087 27 26.999s-12.088 27-27 27-27-12.088-27-27 12.088-27 27-27z"
       id="path1"
       style="fill:#f8f8f2" />
    <path
       fill="#969696"
       fill-rule="evenodd"
       d="M16.739 21.434v21.13H47.26v-21.13H16.74zm1.174 1.174h12.913V41.39H17.913zm15.26 0h12.913V41.39H33.174z"
       id="path2" />
    <path
       fill="#282a36"
       d="M23.336 37.638c-1.908-.594-3.79-2.405-3.655-4.73.13-2.649 1.973-4.743 3.957-6.059.594-.536 1.923-1.28 2.257-.073.265 1.253-1.155 1.417-1.95 1.582-1.597.814-2.749 2.711-2.74 4.641.284 2.04 2.186 3.21 3.903 3.557 1.32.285 2.731.15 3.958-.47-1.52 1.475-3.914 2.171-5.729 1.547zM35.686 37.481c-1.392-1.938-.45-6.378-.36-8.832 0 0 1.272-.139 1.274.435-.95 1.628-.771 8.664 1.232 5.426.54-.875.702-1.923 1.109-2.864.312-.722 1.224-.794 1.487-.04.314.897 1.411 4.275 1.922 3.095.376-.866.52-1.804.621-2.728.151-2.527-.706-4.954-1.098-7.42 1.49 2.403 2.513 7.079 2.444 9.462-.034 1.213-.47 2.63-1.535 3.22-2.463.979-2.62-4.583-3.917-1.584-.706 1.63-2.423 2.885-3.18 1.832z"
       id="path3" />
  </g>
</svg>
