<?xml version="1.0" encoding="UTF-8" standalone="no"?>
<svg
   width="64"
   height="64"
   version="1.1"
   id="svg2"
   sodipodi:docname="celluloid.svg"
   inkscape:version="1.3.2 (091e20ef0f, 2023-11-25, custom)"
   xmlns:inkscape="http://www.inkscape.org/namespaces/inkscape"
   xmlns:sodipodi="http://sodipodi.sourceforge.net/DTD/sodipodi-0.dtd"
   xmlns="http://www.w3.org/2000/svg"
   xmlns:svg="http://www.w3.org/2000/svg">
  <defs
     id="defs2" />
  <sodipodi:namedview
     id="namedview2"
     pagecolor="#505050"
     bordercolor="#f8f8f2"
     borderopacity="1"
     inkscape:showpageshadow="0"
     inkscape:pageopacity="0"
     inkscape:pagecheckerboard="1"
     inkscape:deskcolor="#505050"
     inkscape:zoom="12.453125"
     inkscape:cx="32"
     inkscape:cy="32"
     inkscape:window-width="1920"
     inkscape:window-height="1013"
     inkscape:window-x="0"
     inkscape:window-y="0"
     inkscape:window-maximized="1"
     inkscape:current-layer="svg2" />
  <rect
     width="58"
     height="46"
     x="3"
     y="9"
     fill="#e1434f"
     rx="4"
     ry="4"
     id="rect1"
     style="fill:#c7484a" />
  <path
     d="M7 9v5h4V9zm46 0v5h4V9zM7 18v4h4v-4zm46 0v4h4v-4zM7 26v4h4v-4zm46 0v4h4v-4zM7 34v4h4v-4zm46 0v4h4v-4zM7 42v4h4v-4zm46 0v4h4v-4zM7 50v5h4v-5zm46 0v5h4v-5z"
     opacity=".3"
     id="path1" />
  <rect
     width="30"
     height="3"
     x="17"
     y="43"
     fill="#f8f8f2"
     opacity=".5"
     rx="1.5"
     ry="1.5"
     style="paint-order:normal"
     id="rect2" />
  <circle
     cx="24.5"
     cy="44.5"
     r="3.5"
     fill="#f8f8f2"
     style="paint-order:normal"
     id="circle2" />
  <path
     fill="#f8f8f2"
     d="M32 17c-5.523 0-10 4.477-10 10s4.477 10 10 10 10-4.477 10-10-4.477-10-10-10zm-3 4 9 6-9 6z"
     style="paint-order:normal"
     id="path2" />
</svg>
