<?xml version="1.0" encoding="UTF-8" standalone="no"?>
<svg
   width="64"
   height="64"
   version="1.1"
   viewBox="0 0 64 64"
   id="svg16"
   sodipodi:docname="cellwriter.svg"
   inkscape:version="1.2.2 (b0a8486541, 2022-12-01)"
   xmlns:inkscape="http://www.inkscape.org/namespaces/inkscape"
   xmlns:sodipodi="http://sodipodi.sourceforge.net/DTD/sodipodi-0.dtd"
   xmlns="http://www.w3.org/2000/svg"
   xmlns:svg="http://www.w3.org/2000/svg">
  <defs
     id="defs20" />
  <sodipodi:namedview
     id="namedview18"
     pagecolor="#505050"
     bordercolor="#eeeeee"
     borderopacity="1"
     inkscape:showpageshadow="0"
     inkscape:pageopacity="0"
     inkscape:pagecheckerboard="0"
     inkscape:deskcolor="#505050"
     showgrid="false"
     inkscape:zoom="15.921875"
     inkscape:cx="29.895976"
     inkscape:cy="32.031403"
     inkscape:window-width="2560"
     inkscape:window-height="1361"
     inkscape:window-x="0"
     inkscape:window-y="0"
     inkscape:window-maximized="1"
     inkscape:current-layer="svg16" />
  <g
     transform="matrix(1.1739 0 0 1.1739 3.8261 -14.957)"
     stroke-width=".85185"
     id="g14">
    <g
       transform="translate(0,16)"
       id="g4">
      <path
         d="m24 1c12.703 0 23 10.297 23 23s-10.297 23-23 23-23-10.297-23-23 10.297-23 23-23z"
         fill="#e9e9e9"
         stroke-width=".85185"
         id="path2"
         style="fill:#f8f8f2" />
    </g>
    <g
       transform="translate(0,16)"
       id="g12">
      <path
         d="m11 15v18h26v-18h-26zm1 1h11v16h-11zm13 0h11v16h-11z"
         fill="#969696"
         fill-rule="evenodd"
         id="path6"
         style="fill:#9ea0a6" />
      <path
         d="m16.62 28.804c-1.626-0.506-3.229-2.049-3.114-4.03 0.111-2.256 1.681-4.04 3.371-5.161 0.506-0.457 1.638-1.09 1.923-0.062 0.225 1.067-0.984 1.207-1.661 1.347-1.361 0.694-2.342 2.31-2.334 3.954 0.241 1.738 1.862 2.734 3.324 3.03 1.125 0.243 2.327 0.128 3.372-0.4-1.295 1.256-3.334 1.849-4.88 1.317z"
         fill="#282a36"
         stroke-width=".85185"
         id="path8" />
      <path
         d="m27.14 28.67c-1.186-1.651-0.383-5.433-0.307-7.524 0 0 1.084-0.118 1.086 0.371-0.81 1.387-0.657 7.38 1.049 4.622 0.461-0.745 0.598-1.638 0.945-2.44 0.266-0.615 1.043-0.676 1.267-0.034 0.267 0.764 1.202 3.642 1.637 2.637 0.32-0.738 0.443-1.537 0.529-2.324 0.129-2.153-0.601-4.22-0.935-6.321 1.269 2.047 2.14 6.03 2.082 8.06-0.029 1.034-0.4 2.241-1.308 2.744-2.098 0.833-2.232-3.905-3.337-1.35-0.601 1.389-2.064 2.458-2.709 1.561z"
         fill="#282a36"
         stroke-width=".85185"
         id="path10" />
    </g>
  </g>
</svg>
