<?xml version="1.0" encoding="UTF-8" standalone="no"?>
<svg
   width="64"
   height="64"
   viewBox="0 0 16.933 16.933"
   version="1.1"
   id="svg4"
   sodipodi:docname="cheese.svg"
   inkscape:version="1.3.2 (091e20ef0f, 2023-11-25, custom)"
   xmlns:inkscape="http://www.inkscape.org/namespaces/inkscape"
   xmlns:sodipodi="http://sodipodi.sourceforge.net/DTD/sodipodi-0.dtd"
   xmlns="http://www.w3.org/2000/svg"
   xmlns:svg="http://www.w3.org/2000/svg">
  <defs
     id="defs4" />
  <sodipodi:namedview
     id="namedview4"
     pagecolor="#505050"
     bordercolor="#f8f8f2"
     borderopacity="1"
     inkscape:showpageshadow="0"
     inkscape:pageopacity="0"
     inkscape:pagecheckerboard="1"
     inkscape:deskcolor="#505050"
     inkscape:zoom="12.453125"
     inkscape:cx="32"
     inkscape:cy="32"
     inkscape:window-width="1920"
     inkscape:window-height="1013"
     inkscape:window-x="0"
     inkscape:window-y="0"
     inkscape:window-maximized="1"
     inkscape:current-layer="svg4" />
  <rect
     width="14.287"
     height="14.287"
     x="-15.61"
     y="-15.61"
     fill="#f8f8f2"
     stroke="#282a36"
     stroke-linecap="round"
     stroke-opacity=".137"
     stroke-width=".264"
     rx="7.144"
     ry="7.144"
     style="paint-order:markers stroke fill;fill:#f8f8f2"
     transform="matrix(0 -1 -1 0 0 0)"
     id="rect1" />
  <circle
     cx="8.532"
     cy="8.466"
     r="4.233"
     fill="#282a36"
     id="circle1"
     style="fill:#1e1f29" />
  <circle
     cx="8.466"
     cy="-8.466"
     r="2.91"
     fill="#e91e63"
     transform="scale(1 -1)"
     id="circle2"
     style="fill:#ff5555" />
  <g
     fill="#f8f8f2"
     stroke-width=".579"
     id="g4">
    <path
       d="M9.589 7.344a1.587 1.587 0 0 0-2.245 0l1.123 1.123z"
       opacity=".2"
       id="path2" />
    <path
       d="M9.589 7.344a1.587 1.587 0 0 1 0 2.245L8.467 8.466zM7.344 9.589a1.587 1.587 0 0 1 0-2.245l1.123 1.123z"
       opacity=".4"
       id="path3" />
    <path
       d="M7.344 9.589a1.587 1.587 0 0 0 2.245 0L8.466 8.467z"
       opacity=".6"
       id="path4" />
  </g>
</svg>
