<?xml version="1.0" encoding="UTF-8" standalone="no"?>
<svg
   width="64"
   height="64"
   version="1.1"
   viewBox="0 0 16.933 16.933"
   id="svg16"
   sodipodi:docname="cheese.svg"
   inkscape:version="1.2.2 (b0a8486541, 2022-12-01)"
   xmlns:inkscape="http://www.inkscape.org/namespaces/inkscape"
   xmlns:sodipodi="http://sodipodi.sourceforge.net/DTD/sodipodi-0.dtd"
   xmlns="http://www.w3.org/2000/svg"
   xmlns:svg="http://www.w3.org/2000/svg">
  <defs
     id="defs20" />
  <sodipodi:namedview
     id="namedview18"
     pagecolor="#505050"
     bordercolor="#eeeeee"
     borderopacity="1"
     inkscape:showpageshadow="0"
     inkscape:pageopacity="0"
     inkscape:pagecheckerboard="0"
     inkscape:deskcolor="#505050"
     showgrid="false"
     inkscape:zoom="15.921875"
     inkscape:cx="27.76055"
     inkscape:cy="32.031403"
     inkscape:window-width="2560"
     inkscape:window-height="1361"
     inkscape:window-x="0"
     inkscape:window-y="0"
     inkscape:window-maximized="1"
     inkscape:current-layer="svg16" />
  <rect
     transform="matrix(0,-1,-1,0,0,0)"
     x="-15.61"
     y="-15.61"
     width="14.287"
     height="14.287"
     rx="7.1441"
     ry="7.1441"
     fill="#f8f8f2"
     stroke="#282a36"
     stroke-linecap="round"
     stroke-opacity=".13725"
     stroke-width=".26438"
     style="paint-order:markers stroke fill;fill:#f8f8f2;stroke:#282a36"
     id="rect2" />
  <circle
     cx="8.532"
     cy="8.4665"
     r="4.2332"
     fill="#282a36"
     stroke-width=".51435"
     id="circle4"
     style="fill:#282a36" />
  <circle
     transform="scale(1,-1)"
     cx="8.4665"
     cy="-8.4665"
     r="2.9104"
     fill="#e91e63"
     stroke-width=".51435"
     id="circle6"
     style="fill:#c7639f" />
  <g
     transform="matrix(.88887 0 0 .88887 .94133 .94044)"
     fill="#f8f8f2"
     stroke-width=".57866"
     id="g14"
     style="fill:#f8f8f2">
    <path
       d="m9.7288 7.2042a1.7855 1.7855 0 0 0-2.5255 0l1.2628 1.2628z"
       opacity=".2"
       id="path8"
       style="fill:#f8f8f2" />
    <path
       d="m9.7288 7.2042a1.7855 1.7855 0 0 1 0 2.5255l-1.2628-1.2628zm-2.5255 2.5255a1.7855 1.7855 0 0 1 0-2.5255l1.2628 1.2628z"
       opacity=".4"
       id="path10"
       style="fill:#f8f8f2" />
    <path
       d="m7.2032 9.7298a1.7855 1.7855 0 0 0 2.5255 0l-1.2628-1.2628z"
       opacity=".6"
       id="path12"
       style="fill:#f8f8f2" />
  </g>
</svg>
