<?xml version="1.0" encoding="UTF-8" standalone="no"?>
<svg
   width="64"
   height="64"
   version="1.1"
   viewBox="0 0 16.933 16.933"
   id="svg18"
   sodipodi:docname="cherrytree.svg"
   inkscape:version="1.2.2 (b0a8486541, 2022-12-01)"
   xmlns:inkscape="http://www.inkscape.org/namespaces/inkscape"
   xmlns:sodipodi="http://sodipodi.sourceforge.net/DTD/sodipodi-0.dtd"
   xmlns="http://www.w3.org/2000/svg"
   xmlns:svg="http://www.w3.org/2000/svg">
  <defs
     id="defs22" />
  <sodipodi:namedview
     id="namedview20"
     pagecolor="#505050"
     bordercolor="#eeeeee"
     borderopacity="1"
     inkscape:showpageshadow="0"
     inkscape:pageopacity="0"
     inkscape:pagecheckerboard="0"
     inkscape:deskcolor="#505050"
     showgrid="false"
     inkscape:zoom="15.921875"
     inkscape:cx="29.895976"
     inkscape:cy="32.031403"
     inkscape:window-width="2560"
     inkscape:window-height="1361"
     inkscape:window-x="0"
     inkscape:window-y="0"
     inkscape:window-maximized="1"
     inkscape:current-layer="svg18" />
  <circle
     cx="8.4665"
     cy="8.4665"
     r="7.1436"
     fill="#f8f8f2"
     stroke-width="1.0013"
     style="paint-order:stroke markers fill"
     id="circle2" />
  <g
     transform="matrix(.33674 0 0 .33674 -17.921 .87468)"
     stroke-width=".78571"
     id="g16">
    <g
       stroke-width=".78571"
       id="g14">
      <g
         stroke-width=".78571"
         id="g12">
        <g
           stroke-width=".78571"
           id="g10">
          <path
             d="m76.025 10.148c-4.097-0.021-7.346 6.984-5.662 11.203 4.653-4.534 9.09-3.73 8.184-9.443 0.491 0.591 1.173 1.605 1.318 2.982 0.227 2.155-0.843 5.189-6.754 8.637l0.504 0.865c6.091-3.553 7.519-7.02 7.246-9.613-0.191-1.808-0.939-2.289-1.516-2.928 1.555 0.236 2.959 0.589 3.619 1.447 0.839 1.091 1.142 2.597 1.143 4.158 0 3.122-1.211 6.326-1.211 6.326l0.934 0.359s1.282-3.307 1.281-6.686c0-1.689-0.322-3.421-1.357-4.768-1.851-1.9-3.914-2.137-6.27-2.229-0.493-0.208-0.982-0.31-1.459-0.313z"
             color="#282a36"
             color-rendering="auto"
             fill="#50b721"
             image-rendering="auto"
             shape-rendering="auto"
             solid-color="#282a36"
             style="isolation:auto;mix-blend-mode:normal;white-space:normal;fill:#44c367"
             isolation="auto"
             mix-blend-mode="normal"
             id="path4" />
          <path
             d="m73.363 22.945c-3.313 0-6 2.688-6 6 0 3.313 2.688 6 6 6 1.715 0 3.25-0.723 4.344-1.875-0.852-1.16-1.344-2.578-1.344-4.125s0.492-2.965 1.344-4.125c-1.094-1.152-2.629-1.875-4.344-1.875"
             fill="#e94040"
             id="path6"
             style="fill:#ff5555" />
          <path
             d="m89.363 28.945c0 3.313-2.688 6-6 6-3.313 0-6-2.688-6-6 0-3.313 2.688-6 6-6 3.313 0 6 2.688 6 6"
             fill="#e94040"
             id="path8"
             style="fill:#ff5555" />
        </g>
      </g>
    </g>
  </g>
</svg>
