<?xml version="1.0" encoding="UTF-8" standalone="no"?>
<svg
   width="64"
   height="64"
   viewBox="0 0 16.933 16.933"
   version="1.1"
   id="svg3"
   sodipodi:docname="cherrytree.svg"
   inkscape:version="1.3.2 (091e20ef0f, 2023-11-25, custom)"
   xmlns:inkscape="http://www.inkscape.org/namespaces/inkscape"
   xmlns:sodipodi="http://sodipodi.sourceforge.net/DTD/sodipodi-0.dtd"
   xmlns="http://www.w3.org/2000/svg"
   xmlns:svg="http://www.w3.org/2000/svg">
  <defs
     id="defs3" />
  <sodipodi:namedview
     id="namedview3"
     pagecolor="#505050"
     bordercolor="#f8f8f2"
     borderopacity="1"
     inkscape:showpageshadow="0"
     inkscape:pageopacity="0"
     inkscape:pagecheckerboard="1"
     inkscape:deskcolor="#505050"
     inkscape:zoom="12.453125"
     inkscape:cx="32"
     inkscape:cy="32"
     inkscape:window-width="1920"
     inkscape:window-height="1013"
     inkscape:window-x="0"
     inkscape:window-y="0"
     inkscape:window-maximized="1"
     inkscape:current-layer="svg3" />
  <circle
     cx="8.466"
     cy="8.466"
     r="7.144"
     fill="#f8f8f2"
     style="paint-order:stroke markers fill;fill:#f8f8f2"
     id="circle1" />
  <g
     stroke-width=".786"
     id="g3">
    <path
       fill="#50b721"
       d="M76.025 10.148c-4.097-.021-7.346 6.984-5.662 11.203 4.653-4.534 9.09-3.73 8.184-9.443.491.591 1.173 1.605 1.318 2.982.227 2.155-.843 5.189-6.754 8.637l.504.865c6.091-3.553 7.519-7.02 7.246-9.613-.191-1.808-.939-2.289-1.516-2.928 1.555.236 2.959.589 3.619 1.447.839 1.091 1.142 2.597 1.143 4.158 0 3.122-1.211 6.326-1.211 6.326l.934.359s1.282-3.307 1.281-6.686c0-1.689-.322-3.421-1.357-4.768-1.851-1.9-3.914-2.137-6.27-2.229a3.8 3.8 0 0 0-1.459-.313z"
       color="#282a36"
       style="isolation:auto;mix-blend-mode:normal;white-space:normal;fill:#44c367"
       transform="translate(-17.921 .875) scale(.33674)"
       id="path1" />
    <path
       fill="#e94040"
       d="M6.783 8.601a2.021 2.021 0 0 0 0 4.041c.578 0 1.095-.243 1.463-.631-.287-.39-.453-.868-.453-1.39s.166-.998.453-1.388A2.009 2.009 0 0 0 6.783 8.6"
       id="path2"
       style="fill:#ff5555" />
    <path
       fill="#e94040"
       d="M12.171 10.622a2.021 2.021 0 1 1-4.042-.001 2.021 2.021 0 0 1 4.042 0"
       id="path3"
       style="fill:#ff5555" />
  </g>
</svg>
