<?xml version="1.0" encoding="UTF-8" standalone="no"?>
<svg
   width="64"
   height="64"
   version="1.1"
   id="svg1"
   sodipodi:docname="chess.svg"
   inkscape:version="1.3.2 (091e20ef0f, 2023-11-25, custom)"
   xmlns:inkscape="http://www.inkscape.org/namespaces/inkscape"
   xmlns:sodipodi="http://sodipodi.sourceforge.net/DTD/sodipodi-0.dtd"
   xmlns="http://www.w3.org/2000/svg"
   xmlns:svg="http://www.w3.org/2000/svg">
  <defs
     id="defs1" />
  <sodipodi:namedview
     id="namedview1"
     pagecolor="#505050"
     bordercolor="#f8f8f2"
     borderopacity="1"
     inkscape:showpageshadow="0"
     inkscape:pageopacity="0"
     inkscape:pagecheckerboard="1"
     inkscape:deskcolor="#505050"
     inkscape:zoom="12.453125"
     inkscape:cx="32"
     inkscape:cy="32"
     inkscape:window-width="1920"
     inkscape:window-height="1013"
     inkscape:window-x="0"
     inkscape:window-y="0"
     inkscape:window-maximized="1"
     inkscape:current-layer="g1" />
  <g
     transform="translate(3 -3)"
     id="g1">
    <circle
       cx="29"
       cy="35"
       r="27"
       fill="#44475a"
       style="paint-order:stroke markers fill;fill:#44475a"
       id="circle1" />
    <path
       fill="#f8f8f2"
       d="M22.241 22.4a.588.588 0 0 0-.594.59v5.119a.59.59 0 0 0 .594.591h.456l-1.05 1.05 1.05 1.05-1.047 11.55a2.092 2.092 0 0 0-2.1 2.096c0 .381.115.738.292 1.05l-.292.004-1.05 2.1h21l-1.05-2.1-.294-.004c.18-.312.295-.669.295-1.05 0-1.164-.941-2.096-2.101-2.096L35.3 30.8l1.05-1.05-1.05-1.05h.46a.586.586 0 0 0 .595-.591V22.99a.586.586 0 0 0-.594-.59H34.25v2.1h-2.1v-2.1h-2.1v2.1h-2.1v-2.1h-2.1v2.1h-2.1v-2.1"
       id="path1" />
  </g>
</svg>
