<?xml version="1.0" encoding="UTF-8" standalone="no"?>
<svg
   width="64"
   height="64"
   version="1.1"
   id="svg1"
   sodipodi:docname="cider.svg"
   inkscape:version="1.3.2 (091e20ef0f, 2023-11-25, custom)"
   xmlns:inkscape="http://www.inkscape.org/namespaces/inkscape"
   xmlns:sodipodi="http://sodipodi.sourceforge.net/DTD/sodipodi-0.dtd"
   xmlns="http://www.w3.org/2000/svg"
   xmlns:svg="http://www.w3.org/2000/svg">
  <defs
     id="defs1" />
  <sodipodi:namedview
     id="namedview1"
     pagecolor="#505050"
     bordercolor="#f8f8f2"
     borderopacity="1"
     inkscape:showpageshadow="0"
     inkscape:pageopacity="0"
     inkscape:pagecheckerboard="1"
     inkscape:deskcolor="#505050"
     inkscape:zoom="12.453125"
     inkscape:cx="32"
     inkscape:cy="32"
     inkscape:window-width="1920"
     inkscape:window-height="1013"
     inkscape:window-x="0"
     inkscape:window-y="0"
     inkscape:window-maximized="1"
     inkscape:current-layer="svg1" />
  <rect
     width="52"
     height="52"
     x="6"
     y="6"
     fill="#ff1e52"
     fill-rule="evenodd"
     rx="8"
     ry="8"
     style="paint-order:stroke fill markers;fill:#c7639f"
     id="rect1" />
  <path
     fill="#1e1e1e"
     d="M32 15.125A16.875 16.875 0 0 0 15.125 32 16.875 16.875 0 0 0 32 48.875 16.875 16.875 0 0 0 48.875 32 16.875 16.875 0 0 0 32 15.125zm-.204 3.375a13.5 13.5 0 0 1 .178 0 13.5 13.5 0 0 1 .026 0A13.5 13.5 0 0 1 45.5 32 13.5 13.5 0 0 1 32 45.5 13.5 13.5 0 0 1 18.5 32a13.5 13.5 0 0 1 13.296-13.5zm-2.387 7.541a.903.903 0 0 0-.784.897v10.125a.903.903 0 0 0 1.404.751l7.317-4.878a1.125 1.125 0 0 0 0-1.872l-7.317-4.878a.903.903 0 0 0-.62-.145z"
     id="path1" />
</svg>
