<?xml version="1.0" encoding="UTF-8" standalone="no"?>
<svg
   width="64"
   height="64"
   viewBox="0 0 16.933 16.933"
   version="1.1"
   id="svg12"
   sodipodi:docname="cinnamon-panel-launcher.svg"
   inkscape:version="1.3.2 (091e20ef0f, 2023-11-25, custom)"
   xmlns:inkscape="http://www.inkscape.org/namespaces/inkscape"
   xmlns:sodipodi="http://sodipodi.sourceforge.net/DTD/sodipodi-0.dtd"
   xmlns="http://www.w3.org/2000/svg"
   xmlns:svg="http://www.w3.org/2000/svg">
  <sodipodi:namedview
     id="namedview12"
     pagecolor="#505050"
     bordercolor="#f8f8f2"
     borderopacity="1"
     inkscape:showpageshadow="0"
     inkscape:pageopacity="0"
     inkscape:pagecheckerboard="1"
     inkscape:deskcolor="#505050"
     inkscape:zoom="12.453125"
     inkscape:cx="32"
     inkscape:cy="32"
     inkscape:window-width="1920"
     inkscape:window-height="1013"
     inkscape:window-x="0"
     inkscape:window-y="0"
     inkscape:window-maximized="1"
     inkscape:current-layer="svg12" />
  <defs
     id="defs2">
    <linearGradient
       id="a"
       x1="14.679"
       x2="2.293"
       y1="293.79"
       y2="282.98"
       gradientTransform="matrix(1.0714 0 0 1 -.605 -280.07)"
       gradientUnits="userSpaceOnUse">
      <stop
         offset="0"
         stop-color="#66bcff"
         id="stop1" />
      <stop
         offset="1"
         stop-color="#b29aff"
         id="stop2" />
    </linearGradient>
  </defs>
  <rect
     width="15.875"
     height="12.171"
     x=".529"
     y="2.381"
     fill="url(#a)"
     rx="1.587"
     ry="1.587"
     id="rect2"
     style="fill:#44475a" />
  <rect
     width="14.287"
     height="1.058"
     x="1.323"
     y="2.91"
     opacity=".35"
     rx=".529"
     ry=".529"
     id="rect3" />
  <rect
     width="1.058"
     height=".529"
     x="1.587"
     y="3.175"
     opacity=".35"
     ry=".265"
     style="paint-order:stroke markers fill"
     id="rect4" />
  <rect
     width="2.646"
     height=".529"
     x="7.144"
     y="3.175"
     opacity=".35"
     ry=".265"
     style="paint-order:stroke markers fill"
     id="rect5" />
  <rect
     width=".529"
     height=".529"
     x="14.817"
     y="3.175"
     opacity=".35"
     ry=".265"
     style="paint-order:stroke markers fill"
     id="rect6" />
  <rect
     width=".794"
     height=".529"
     x="13.759"
     y="3.175"
     opacity=".35"
     ry=".265"
     style="paint-order:stroke markers fill"
     id="rect7" />
  <rect
     width=".529"
     height=".529"
     x="12.965"
     y="3.175"
     opacity=".35"
     ry=".265"
     style="paint-order:stroke markers fill"
     id="rect8" />
  <path
     fill="#f8f8f2"
     d="M3.704 13.504a.528.528 0 0 0-.529.53v.53h10.583v-.53a.528.528 0 0 0-.529-.53z"
     opacity=".35"
     style="paint-order:stroke markers fill"
     id="path8" />
  <g
     stroke-width="2"
     id="g12">
    <path
       fill="#525292"
       d="M9.393 10.05s1.176 1.044 1.19 2.647a.53.53 0 1 1-1.058 0c.199-1.858-.397-1.852-.397-1.852z"
       color="#282a36"
       overflow="visible"
       id="path9"
       style="fill:#6272a4" />
    <path
       fill="#6969a6"
       d="M7.54 10.05s-1.176 1.044-1.19 2.647a.53.53 0 1 0 1.058 0c-.198-1.858.397-1.852.397-1.852z"
       color="#282a36"
       overflow="visible"
       id="path10"
       style="fill:#6272a4" />
    <path
       fill="#6969a6"
       d="M8.467 4.76s-.573.787-.897 2.116h.367v.794h1.059v-.794h.368c-.325-1.329-.897-2.117-.897-2.117zm.897 2.116c.025.103.051.21.074.318-.022-.111-.049-.214-.074-.318zm-.368.794v.793h.583a7.681 7.681 0 0 0-.058-.793zm.563 1.587h-.563v.794H7.937v-.794h-.562c.02.257.05.521.1.794l.33 1.852h1.323l.33-1.852a7.96 7.96 0 0 0 .1-.794zm-2.204-.794h.582V7.67h-.525a7.68 7.68 0 0 0-.057.793zm.582 0v.794h1.059v-.794zM7.57 6.876c-.026.104-.053.207-.075.318.023-.108.05-.215.075-.318z"
       id="path11"
       style="fill:#9576c5" />
    <path
       fill="#f8f8f2"
       d="M7.57 6.88c-.061.248-.12.509-.158.794h.525V6.88zm.367.794v.793h1.059v-.793zm1.059 0h.525a7.35 7.35 0 0 0-.157-.794h-.368zm0 .793v.794h.562c.021-.275.028-.539.02-.794zm0 .794H7.937v.794h1.059zm-1.059 0v-.794h-.582c-.007.255 0 .519.02.794z"
       color="#282a36"
       opacity=".5"
       overflow="visible"
       id="path12" />
  </g>
</svg>
