<?xml version="1.0" encoding="UTF-8" standalone="no"?>
<svg
   width="64"
   height="64"
   version="1.1"
   id="svg7"
   sodipodi:docname="clapper.svg"
   inkscape:version="1.3.2 (091e20ef0f, 2023-11-25, custom)"
   xmlns:inkscape="http://www.inkscape.org/namespaces/inkscape"
   xmlns:sodipodi="http://sodipodi.sourceforge.net/DTD/sodipodi-0.dtd"
   xmlns="http://www.w3.org/2000/svg"
   xmlns:svg="http://www.w3.org/2000/svg">
  <defs
     id="defs7" />
  <sodipodi:namedview
     id="namedview7"
     pagecolor="#505050"
     bordercolor="#f8f8f2"
     borderopacity="1"
     inkscape:showpageshadow="0"
     inkscape:pageopacity="0"
     inkscape:pagecheckerboard="1"
     inkscape:deskcolor="#505050"
     inkscape:zoom="12.453125"
     inkscape:cx="32"
     inkscape:cy="32"
     inkscape:window-width="1920"
     inkscape:window-height="1013"
     inkscape:window-x="0"
     inkscape:window-y="0"
     inkscape:window-maximized="1"
     inkscape:current-layer="svg7" />
  <path
     fill="#4747d1"
     d="M10 57.153V32.222h44v24.931C54 58.723 52.794 60 51.279 60H12.72C11.206 60 10 58.722 10 57.153z"
     id="path1"
     style="fill:#6272a4" />
  <path
     fill="#4747d1"
     d="M9 27.207v5.587c0 .69.53 1.207 1.239 1.207h45.523c.672 0 1.238-.518 1.238-1.207v-5.587c0-.69-.566-1.207-1.238-1.207H10.239C9.53 26 9 26.517 9 27.207z"
     id="path2"
     style="fill:#6272a4" />
  <path
     fill="#f1f1f1"
     d="m42.239 34 8.246-8H41.46l-8.248 8zM20.611 34l8.248-8h-9.062l-8.248 8z"
     id="path3" />
  <path
     fill="#4747d1"
     d="M7.953 19.315c.177.565 1.518 4.978 1.695 5.508.212.67.882 1.023 1.553.812 4.486-1.377 40.362-12.36 44.846-13.736.671-.177 1.024-.883.848-1.519-.177-.564-1.519-4.977-1.695-5.507a1.216 1.216 0 0 0-1.553-.812C44.677 6.779 13.287 16.42 8.8 17.797c-.671.176-1.024.883-.848 1.518z"
     id="path4"
     style="fill:#6272a4" />
  <path
     fill="#f1f1f1"
     d="m42.699 15.997-10.276-5.51 8.652-2.612 10.276 5.507zM21.759 22.422 11.483 16.95l8.652-2.648 10.276 5.472z"
     id="path5" />
  <path
     fill="#9ea0a6"
     d="M7 18.386V32.65c0 .766.648 1.35 1.41 1.35H22.56c1.03 0 1.716-.985 1.334-1.86-.648-1.423-5.757-12.879-6.405-14.302-.23-.51-.725-.802-1.297-.802h-7.78c-.763 0-1.411.583-1.411 1.35z"
     id="path6" />
  <path
     fill="#f1f1f1"
     d="M27 39v15l12-7.483z"
     id="path7" />
</svg>
