<?xml version="1.0" encoding="UTF-8" standalone="no"?>
<svg
   width="64"
   height="64"
   viewBox="0 0 16.933 16.933"
   version="1.1"
   id="svg2"
   sodipodi:docname="clion.svg"
   inkscape:version="1.3.2 (091e20ef0f, 2023-11-25, custom)"
   xmlns:inkscape="http://www.inkscape.org/namespaces/inkscape"
   xmlns:sodipodi="http://sodipodi.sourceforge.net/DTD/sodipodi-0.dtd"
   xmlns="http://www.w3.org/2000/svg"
   xmlns:svg="http://www.w3.org/2000/svg">
  <defs
     id="defs2" />
  <sodipodi:namedview
     id="namedview2"
     pagecolor="#505050"
     bordercolor="#f8f8f2"
     borderopacity="1"
     inkscape:showpageshadow="0"
     inkscape:pageopacity="0"
     inkscape:pagecheckerboard="1"
     inkscape:deskcolor="#505050"
     inkscape:zoom="12.453125"
     inkscape:cx="32"
     inkscape:cy="32"
     inkscape:window-width="1920"
     inkscape:window-height="1013"
     inkscape:window-x="0"
     inkscape:window-y="0"
     inkscape:window-maximized="1"
     inkscape:current-layer="svg2" />
  <path
     fill="#3ecac7"
     d="M15.61 8.466a7.144 7.144 0 0 1-7.144 7.144 7.144 7.144 0 0 1-7.143-7.144 7.144 7.144 0 0 1 7.143-7.143 7.144 7.144 0 0 1 7.144 7.143z"
     id="path1"
     style="fill:#4cc3dc" />
  <rect
     width="7.937"
     height="7.937"
     x="4.498"
     y="4.498"
     fill="#282a36"
     rx="1.323"
     ry="1.323"
     style="paint-order:markers stroke fill"
     id="rect1" />
  <path
     fill="#f8f8f2"
     d="M6.913 5.36c-1.028 0-1.553.737-1.553 1.69s.563 1.745 1.553 1.727c.636 0 1.022-.25 1.358-.624l-.426-.434c-.261.243-.558.436-.932.436-.576 0-.927-.538-.93-1.114.003-.575.373-1.06.93-1.06.337 0 .622.125.884.368l.406-.486c-.318-.318-.654-.503-1.29-.503zm1.864 0v3.417h2.174v-.621H9.398V5.36zM5.05 10.952h3.106v.621H5.05z"
     id="path2" />
</svg>
