<?xml version="1.0" encoding="UTF-8" standalone="no"?>
<svg
   width="64"
   height="64"
   version="1.1"
   viewBox="0 0 16.933 16.933"
   id="svg10"
   sodipodi:docname="clion.svg"
   inkscape:version="1.2.2 (b0a8486541, 2022-12-01)"
   xmlns:inkscape="http://www.inkscape.org/namespaces/inkscape"
   xmlns:sodipodi="http://sodipodi.sourceforge.net/DTD/sodipodi-0.dtd"
   xmlns="http://www.w3.org/2000/svg"
   xmlns:svg="http://www.w3.org/2000/svg">
  <defs
     id="defs14" />
  <sodipodi:namedview
     id="namedview12"
     pagecolor="#505050"
     bordercolor="#eeeeee"
     borderopacity="1"
     inkscape:showpageshadow="0"
     inkscape:pageopacity="0"
     inkscape:pagecheckerboard="0"
     inkscape:deskcolor="#505050"
     showgrid="false"
     inkscape:zoom="15.921875"
     inkscape:cx="29.895976"
     inkscape:cy="32.031403"
     inkscape:window-width="2560"
     inkscape:window-height="1361"
     inkscape:window-x="0"
     inkscape:window-y="0"
     inkscape:window-maximized="1"
     inkscape:current-layer="svg10" />
  <path
     d="m15.61 8.4665a7.1436 7.1436 0 0 1-7.1436 7.1436 7.1436 7.1436 0 0 1-7.1436-7.1436 7.1436 7.1436 0 0 1 7.1436-7.1436 7.1436 7.1436 0 0 1 7.1436 7.1436z"
     fill="#3ecac7"
     stroke-width=".26458"
     id="path2"
     style="fill:#72bfd0" />
  <rect
     x="4.4978"
     y="4.4978"
     width="7.9373"
     height="7.9373"
     rx="1.3229"
     ry="1.3229"
     fill="#282a36"
     style="paint-order:markers stroke fill"
     id="rect4" />
  <path
     d="m6.9135 5.36c-1.0281 0-1.553 0.73671-1.553 1.6901 0 0.95334 0.56223 1.7451 1.553 1.7265 0.63556 0 1.0212-0.24975 1.3576-0.62361l-0.42585-0.43374c-0.2617 0.24301-0.55791 0.43616-0.93178 0.43616-0.57621 0-0.92722-0.53856-0.93117-1.1144 0.00394-0.57541 0.37338-1.0598 0.93117-1.0598 0.33647 0 0.62154 0.12521 0.88325 0.36822l0.40583-0.48651c-0.31778-0.31778-0.65351-0.50289-1.2891-0.50289zm1.8636 6.212e-4v3.4165h2.1741v-0.62118h-1.553v-2.7953z"
     fill="#f8f8f2"
     stroke-width=".26458"
     id="path6" />
  <path
     d="m5.05 10.952h3.1059v0.62118h-3.1059z"
     fill="#f8f8f2"
     stroke-width=".26458"
     id="path8" />
</svg>
