<?xml version="1.0" encoding="UTF-8" standalone="no"?>
<svg
   width="64"
   height="64"
   version="1.1"
   viewBox="0 0 16.933 16.933"
   id="svg18"
   sodipodi:docname="cmake.svg"
   inkscape:version="1.2.2 (b0a8486541, 2022-12-01)"
   xmlns:inkscape="http://www.inkscape.org/namespaces/inkscape"
   xmlns:sodipodi="http://sodipodi.sourceforge.net/DTD/sodipodi-0.dtd"
   xmlns="http://www.w3.org/2000/svg"
   xmlns:svg="http://www.w3.org/2000/svg">
  <defs
     id="defs22" />
  <sodipodi:namedview
     id="namedview20"
     pagecolor="#505050"
     bordercolor="#eeeeee"
     borderopacity="1"
     inkscape:showpageshadow="0"
     inkscape:pageopacity="0"
     inkscape:pagecheckerboard="0"
     inkscape:deskcolor="#505050"
     showgrid="false"
     inkscape:zoom="15.921875"
     inkscape:cx="29.895976"
     inkscape:cy="32.031403"
     inkscape:window-width="2560"
     inkscape:window-height="1361"
     inkscape:window-x="0"
     inkscape:window-y="0"
     inkscape:window-maximized="1"
     inkscape:current-layer="svg18" />
  <circle
     cx="8.4665"
     cy="8.4665"
     r="7.1436"
     fill="#f8f8f2"
     style="paint-order:stroke fill markers"
     id="circle2" />
  <g
     transform="matrix(.73072 0 0 .73072 2.2799 1.1764)"
     stroke-width=".92742"
     id="g16">
    <path
       d="m8.821 5.682-4.586 7.944h9.172z"
       fill="#f8f8f2"
       id="path4" />
    <path
       d="m8.467 11.274c-0.471 1.02-0.727 2.032 0 3.014h6.879c-1.841-0.931-2.409-2.803-5.84-2.559z"
       fill="#44c367"
       id="path6"
       style="fill:#44c367" />
    <path
       d="m6.723 10.51c-2.429 0.542-3.77 2.171-5.136 3.778h6.88v-3.014z"
       fill="#44c367"
       id="path8" />
    <path
       d="m8.467 2.373-6.88 11.915 7.584-5.58c0.965-2.438-0.032-4.343-0.704-6.335z"
       fill="#13b1d5"
       id="path10" />
    <path
       d="m8.467 2.373 1.04 9.356 5.839 2.559z"
       fill="#ff5555"
       id="path12" />
    <path
       d="m15.34 14.288-5.834-2.559-0.168-1.51zm-6.873-11.915 0.701 6.332-1.224 0.9zm-6.88 11.915 5.133-3.774 1.392 0.61z"
       opacity=".1"
       id="path14" />
  </g>
</svg>
