<?xml version="1.0" encoding="UTF-8" standalone="no"?>
<svg
   width="64"
   height="64"
   viewBox="0 0 16.933 16.933"
   version="1.1"
   id="svg13"
   sodipodi:docname="colorgrab.svg"
   inkscape:version="1.3.2 (091e20ef0f, 2023-11-25, custom)"
   xmlns:inkscape="http://www.inkscape.org/namespaces/inkscape"
   xmlns:sodipodi="http://sodipodi.sourceforge.net/DTD/sodipodi-0.dtd"
   xmlns="http://www.w3.org/2000/svg"
   xmlns:svg="http://www.w3.org/2000/svg">
  <defs
     id="defs13" />
  <sodipodi:namedview
     id="namedview13"
     pagecolor="#505050"
     bordercolor="#f8f8f2"
     borderopacity="1"
     inkscape:showpageshadow="0"
     inkscape:pageopacity="0"
     inkscape:pagecheckerboard="1"
     inkscape:deskcolor="#505050"
     inkscape:zoom="12.453125"
     inkscape:cx="32"
     inkscape:cy="32"
     inkscape:window-width="1920"
     inkscape:window-height="1013"
     inkscape:window-x="0"
     inkscape:window-y="0"
     inkscape:window-maximized="1"
     inkscape:current-layer="svg13" />
  <path
     fill="#2268ab"
     d="M3.175 1.587c-.88 0-1.588.709-1.588 1.588v9.54a1.584 1.584 0 0 0 1.588 1.572H12.7l1.587-1.586V3.175c0-.88-.708-1.587-1.587-1.587z"
     color="#282a36"
     style="isolation:auto;mix-blend-mode:normal;paint-order:fill markers stroke"
     id="path1" />
  <path
     fill="#3d8dd8"
     d="M5.82 5.82h4.234v4.234H5.821z"
     color="#282a36"
     display="block"
     overflow="visible"
     style="isolation:auto;mix-blend-mode:normal;paint-order:fill markers stroke;fill:#56dffc;fill-opacity:1"
     id="path2" />
  <path
     fill="#2777c4"
     d="M5.82 1.587h4.234v4.234H5.821z"
     color="#282a36"
     display="block"
     overflow="visible"
     style="isolation:auto;mix-blend-mode:normal;paint-order:fill markers stroke;fill:#13b1d5"
     id="path3" />
  <path
     fill="#1f609e"
     d="M3.175 1.587c-.88 0-1.588.709-1.588 1.588v2.646h4.234V1.588z"
     color="#282a36"
     style="isolation:auto;mix-blend-mode:normal;paint-order:fill markers stroke;fill:#4cc3dc"
     id="path4" />
  <path
     fill="#3b83c8"
     d="M1.587 5.82h4.234v4.234H1.587z"
     color="#282a36"
     display="block"
     overflow="visible"
     style="isolation:auto;mix-blend-mode:normal;paint-order:fill markers stroke;fill:#60cae2;fill-opacity:1"
     id="path5" />
  <path
     fill="#63a3e0"
     d="M10.054 5.82h4.232v4.234h-4.232z"
     color="#282a36"
     display="block"
     overflow="visible"
     style="isolation:auto;mix-blend-mode:normal;paint-order:fill markers stroke;fill:#8be9fd"
     id="path6" />
  <path
     fill="#3b8bd8"
     d="M10.054 1.587v4.234h4.232V3.134A1.583 1.583 0 0 0 12.7 1.588z"
     color="#282a36"
     style="isolation:auto;mix-blend-mode:normal;paint-order:fill markers stroke;fill:#4cc3dc"
     id="path7" />
  <path
     fill="#61a2e0"
     d="M5.82 10.054h4.234v4.232H5.821z"
     color="#282a36"
     display="block"
     overflow="visible"
     style="isolation:auto;mix-blend-mode:normal;paint-order:fill markers stroke;fill:#a6edfa"
     id="path8" />
  <path
     fill="#4893db"
     d="M1.587 10.054V12.7c0 .865.686 1.565 1.547 1.586H5.82v-4.232H1.587z"
     color="#282a36"
     style="isolation:auto;mix-blend-mode:normal;paint-order:fill markers stroke;fill:#8be9fd"
     id="path9" />
  <path
     fill-opacity=".152"
     d="M10.737 6.128a4.609 4.609 0 0 0-.15.005c-.01-.001-.017-.005-.026-.005H6.317a.184.184 0 0 0-.184.184v4.317a4.609 4.609 0 0 0-.005.108 4.609 4.609 0 0 0 4.609 4.609 4.609 4.609 0 0 0 4.609-4.61 4.609 4.609 0 0 0-4.61-4.608z"
     color="#282a36"
     overflow="visible"
     style="isolation:auto;mix-blend-mode:normal;paint-order:fill markers stroke"
     id="path10" />
  <path
     fill="#f8f8f2"
     d="M10.737 6.328a4.41 4.41 0 0 0-.144.005c-.008-.001-.015-.005-.024-.005H6.507a.176.176 0 0 0-.176.175v4.13a4.41 4.41 0 0 0-.005.104 4.41 4.41 0 0 0 4.41 4.41 4.41 4.41 0 0 0 4.41-4.41 4.41 4.41 0 0 0-4.41-4.41z"
     color="#282a36"
     overflow="visible"
     style="isolation:auto;mix-blend-mode:normal;paint-order:fill markers stroke"
     id="path11" />
  <path
     fill="#5299dc"
     d="M13.004 10.737a2.267 2.267 0 0 1-2.268 2.268 2.267 2.267 0 0 1-2.267-2.268 2.267 2.267 0 0 1 2.268-2.267 2.267 2.267 0 0 1 2.267 2.267z"
     color="#282a36"
     overflow="visible"
     style="isolation:auto;mix-blend-mode:normal;paint-order:fill markers stroke"
     id="path12" />
  <path
     fill="#f8f8f2"
     d="M10.648 9.855v.794h-.794v.265h.794l.017.793h.248v-.793h.793l.017-.265h-.81v-.794z"
     color="#282a36"
     overflow="visible"
     style="isolation:auto;mix-blend-mode:normal;paint-order:fill markers stroke"
     id="path13" />
</svg>
