<?xml version="1.0" encoding="UTF-8" standalone="no"?>
<svg
   width="64"
   height="64"
   image-rendering="optimizeSpeed"
   version="1.1"
   id="svg1"
   sodipodi:docname="com.github.artemanufrij.hashit.svg"
   inkscape:version="1.3.2 (091e20ef0f, 2023-11-25, custom)"
   xmlns:inkscape="http://www.inkscape.org/namespaces/inkscape"
   xmlns:sodipodi="http://sodipodi.sourceforge.net/DTD/sodipodi-0.dtd"
   xmlns="http://www.w3.org/2000/svg"
   xmlns:svg="http://www.w3.org/2000/svg">
  <defs
     id="defs1" />
  <sodipodi:namedview
     id="namedview1"
     pagecolor="#505050"
     bordercolor="#f8f8f2"
     borderopacity="1"
     inkscape:showpageshadow="0"
     inkscape:pageopacity="0"
     inkscape:pagecheckerboard="1"
     inkscape:deskcolor="#505050"
     inkscape:zoom="12.453125"
     inkscape:cx="32"
     inkscape:cy="32"
     inkscape:window-width="1920"
     inkscape:window-height="1013"
     inkscape:window-x="0"
     inkscape:window-y="0"
     inkscape:window-maximized="1"
     inkscape:current-layer="svg1" />
  <rect
     width="52"
     height="52"
     x="6"
     y="6"
     fill="#44475a"
     rx="8"
     ry="8"
     id="rect1"
     style="fill:#44475a" />
  <path
     fill="#f8f8f2"
     d="m35.253 19.027.026 2.989 3.132-.028L38.385 19zm-14.846 1.57-1.487 7.106-4.767.041.016 1.877 4.385-.038-1.301 6.428-3.916.033.016 1.878 3.498-.03-1.402 7.106 1.916-.017 1.4-7.106 6.315-.055-1.434 7.107 1.913-.016 1.47-7.107 4.924-.043-.016-1.877-4.524.039 1.302-6.427 4.054-.035-.016-1.877-3.672.032 1.47-7.106-1.913.017-1.47 7.105-6.316.054 1.47-7.105zm24.18 1.13-.886 4.216-2.297.02.02 2.277 2.175-.018.108 12.55c.024 2.84 1.29 4.25 3.795 4.228a12.122 12.122 0 0 0 3.163-.446l-.02-2.311c-.787.168-1.39.255-1.808.259-.73.006-1.248-.166-1.552-.525-.294-.369-.444-1.006-.452-1.91l-.102-11.872 3.48-.03-.02-2.277-3.48.03-.036-4.207zm-9.273 4.288.162 18.81 3.132-.027-.162-18.81zM20.52 29.567l6.263-.054-1.302 6.427-6.3.054z"
     id="path1" />
</svg>
