<?xml version="1.0" encoding="UTF-8" standalone="no"?>
<svg
   width="64"
   height="64"
   image-rendering="optimizeSpeed"
   version="1.1"
   id="svg9"
   sodipodi:docname="com.github.louis77.tuner.svg"
   inkscape:version="1.3.2 (091e20ef0f, 2023-11-25, custom)"
   xmlns:inkscape="http://www.inkscape.org/namespaces/inkscape"
   xmlns:sodipodi="http://sodipodi.sourceforge.net/DTD/sodipodi-0.dtd"
   xmlns="http://www.w3.org/2000/svg"
   xmlns:svg="http://www.w3.org/2000/svg">
  <defs
     id="defs9" />
  <sodipodi:namedview
     id="namedview9"
     pagecolor="#505050"
     bordercolor="#f8f8f2"
     borderopacity="1"
     inkscape:showpageshadow="0"
     inkscape:pageopacity="0"
     inkscape:pagecheckerboard="1"
     inkscape:deskcolor="#505050"
     inkscape:zoom="12.453125"
     inkscape:cx="32"
     inkscape:cy="32"
     inkscape:window-width="1920"
     inkscape:window-height="1013"
     inkscape:window-x="0"
     inkscape:window-y="0"
     inkscape:window-maximized="1"
     inkscape:current-layer="svg9" />
  <rect
     width="52"
     height="52"
     x="6"
     y="6"
     fill="#dd3f80"
     rx="9.287"
     ry="9.287"
     id="rect1"
     style="fill:#c7639f" />
  <path
     fill="#f8f8f2"
     d="M52.067 30H11.884C10.32 30 9 28.6 9 26.823v-7.646C9 17.454 10.27 16 11.884 16h40.232C53.68 16 55 17.4 55 19.177v7.7C54.951 28.6 53.68 30 52.067 30z"
     class="st7"
     id="path1" />
  <g
     fill="none"
     stroke-miterlimit="10"
     id="g3">
    <g
       stroke="#9ea0a6"
       stroke-width=".87"
       id="g2">
      <path
         d="M12.035 18.777v8.279M15.443 20.238v5.357M18.365 20.238v5.357M21.774 18.777v8.279M25.183 20.238v5.357M28.591 20.238v5.357M32 18.777v8.279M35.409 20.238v5.357M38.817 20.238v5.357M42.226 18.777v8.279M51.965 18.777v8.279M45.635 20.238v5.357M48.557 20.238v5.357"
         class="st8"
         id="path2" />
    </g>
    <path
       stroke="#de3e80"
       stroke-width="1.067"
       d="M27.13 16.83v12.66"
       class="st9"
       id="path3" />
  </g>
  <circle
     cx="32"
     cy="42"
     r="8"
     fill="#f8f8f2"
     class="st10"
     id="circle3" />
  <rect
     width="2"
     height="5"
     x="31"
     y="35"
     opacity=".15"
     rx="1"
     ry="1"
     style="paint-order:stroke fill markers"
     id="rect3" />
  <rect
     width="12"
     height="2"
     x="8"
     y="36"
     fill="#1a1a1a"
     rx="1"
     ry="1"
     style="paint-order:stroke fill markers"
     id="rect4" />
  <rect
     width="12"
     height="2"
     x="8"
     y="46"
     fill="#1a1a1a"
     rx="1"
     ry="1"
     style="paint-order:stroke fill markers"
     id="rect5" />
  <rect
     width="10"
     height="2"
     x="8"
     y="41"
     fill="#1a1a1a"
     rx="1"
     ry="1"
     style="paint-order:stroke fill markers"
     id="rect6" />
  <rect
     width="12"
     height="2"
     x="-56"
     y="36"
     fill="#1a1a1a"
     rx="1"
     ry="1"
     style="paint-order:stroke fill markers"
     transform="scale(-1 1)"
     id="rect7" />
  <rect
     width="12"
     height="2"
     x="-56"
     y="46"
     fill="#1a1a1a"
     rx="1"
     ry="1"
     style="paint-order:stroke fill markers"
     transform="scale(-1 1)"
     id="rect8" />
  <rect
     width="10"
     height="2"
     x="-56"
     y="41"
     fill="#1a1a1a"
     rx="1"
     ry="1"
     style="paint-order:stroke fill markers"
     transform="scale(-1 1)"
     id="rect9" />
</svg>
