<?xml version="1.0" encoding="UTF-8" standalone="no"?>
<svg
   width="64"
   height="64"
   version="1.1"
   id="svg2230"
   sodipodi:docname="com.github.paolostivanin.OTPClient.svg"
   inkscape:version="1.2.2 (b0a8486541, 2022-12-01)"
   xmlns:inkscape="http://www.inkscape.org/namespaces/inkscape"
   xmlns:sodipodi="http://sodipodi.sourceforge.net/DTD/sodipodi-0.dtd"
   xmlns="http://www.w3.org/2000/svg"
   xmlns:svg="http://www.w3.org/2000/svg">
  <defs
     id="defs2234" />
  <sodipodi:namedview
     id="namedview2232"
     pagecolor="#505050"
     bordercolor="#eeeeee"
     borderopacity="1"
     inkscape:showpageshadow="0"
     inkscape:pageopacity="0"
     inkscape:pagecheckerboard="0"
     inkscape:deskcolor="#505050"
     showgrid="false"
     inkscape:zoom="15.921875"
     inkscape:cx="29.895976"
     inkscape:cy="32.031403"
     inkscape:window-width="2560"
     inkscape:window-height="1361"
     inkscape:window-x="0"
     inkscape:window-y="0"
     inkscape:window-maximized="1"
     inkscape:current-layer="svg2230" />
  <circle
     cx="32"
     cy="32"
     r="27"
     fill="#fa6e6e"
     id="circle2218"
     style="fill:#fd7e7c" />
  <circle
     cx="32"
     cy="32"
     r="22"
     fill="#f8f8f2"
     id="circle2220" />
  <path
     fill="#fa6e6e"
     d="M32.006 14.391c-.352 0-3.245-.133-6.069 1.243-2.161 1.052-.564 4.251 1.573 3.15 1.873-.966 3.674-.871 4.496-.871 7.865 0 14.087 6.222 14.087 14.087 0 7.865-6.222 14.087-14.087 14.087S17.92 39.866 17.919 32c0-.82-.095-2.622.871-4.496 1.101-2.137-2.098-3.734-3.15-1.573-1.375 2.824-1.242 5.716-1.242 6.07.002 9.742 7.865 17.608 17.609 17.608 9.743 0 17.609-7.865 17.609-17.609 0-9.743-7.866-17.609-17.61-17.609z"
     id="path2222"
     style="fill:#fd7e7c" />
  <rect
     width="4.696"
     height="18.783"
     x="29.652"
     y="22.609"
     fill="#65b5f7"
     ry="2.348"
     style="paint-order:stroke fill markers;fill:#13b1d5"
     id="rect2224" />
  <rect
     width="4.696"
     height="18.783"
     x="-46.061"
     y="2.321"
     fill="#65b5f7"
     ry="2.348"
     style="paint-order:stroke fill markers;fill:#13b1d5"
     transform="rotate(240)"
     id="rect2226" />
  <rect
     width="4.696"
     height="18.783"
     x="9.365"
     y="-53.105"
     fill="#65b5f7"
     ry="2.348"
     style="paint-order:stroke fill markers;fill:#13b1d5"
     transform="rotate(120)"
     id="rect2228" />
</svg>
