<?xml version="1.0" encoding="UTF-8" standalone="no"?>
<svg
   width="64"
   height="64"
   version="1.1"
   id="svg14"
   sodipodi:docname="com.github.gi_lom.dialect.svg"
   inkscape:version="1.2.2 (b0a8486541, 2022-12-01)"
   xmlns:inkscape="http://www.inkscape.org/namespaces/inkscape"
   xmlns:sodipodi="http://sodipodi.sourceforge.net/DTD/sodipodi-0.dtd"
   xmlns="http://www.w3.org/2000/svg"
   xmlns:svg="http://www.w3.org/2000/svg">
  <defs
     id="defs18" />
  <sodipodi:namedview
     id="namedview16"
     pagecolor="#505050"
     bordercolor="#eeeeee"
     borderopacity="1"
     inkscape:showpageshadow="0"
     inkscape:pageopacity="0"
     inkscape:pagecheckerboard="0"
     inkscape:deskcolor="#505050"
     showgrid="false"
     inkscape:zoom="15.921875"
     inkscape:cx="29.895976"
     inkscape:cy="32.031403"
     inkscape:window-width="2560"
     inkscape:window-height="1361"
     inkscape:window-x="0"
     inkscape:window-y="0"
     inkscape:window-maximized="1"
     inkscape:current-layer="svg14" />
  <circle
     cx="31.998"
     cy="31.998"
     r="27.001"
     fill="#cbcccc"
     style="paint-order:stroke fill markers"
     id="circle2" />
  <path
     fill="#f8f8f2"
     d="M31.333 23.93h16.315c1.304 0 2.352 1.034 2.352 2.32v17.707c0 1.285-1.048 2.318-2.352 2.318H34.667c-.667 0-1.103-.196-1.5-.658z"
     id="path4" />
  <path
     fill="#6b6a6e"
     d="m38.588 30.978-1.085-.06a5.71 5.71 0 0 1-.06 1.005c-.025.205-.074.844-.122 1.158h-.208c-.742 0-1.67-.086-2.315-.194l.013.944c.707.061 1.474.122 2.315.122h.012c-.305 1.367-.792 3.109-1.413 4.319l.9.327a4.21 4.21 0 0 1 .379-.57c.816-.955 2.157-1.88 3.606-1.88 1.426 0 2.17 1.13 2.17 2.025 0 1.999-2.73 2.47-5.557 2.083l.256.969c3.704.387 6.3-.545 6.3-3.075 0-1.405-1.134-2.825-3.071-2.825-1.268 0-2.364.73-3.424 1.47.255-.692.535-1.85.756-2.868a38.563 38.563 0 0 0 4.837-.508l-.012-.92c-1.499.326-3.217.495-4.643.556.06-.266.098-.88.134-1.061.073-.327.134-.703.232-1.017zm4.57-.424-.646.278c.329.449.743 1.186.986 1.683l.659-.29a15.227 15.227 0 0 0-1-1.671zm1.352-.484-.645.278c.34.448.743 1.138 1.011 1.67l.658-.301c-.232-.449-.708-1.2-1.024-1.647z"
     id="path6"
     style="fill:#717380" />
  <path
     fill="#7d45a8"
     d="M37.752 40.646c.233.578.176 1.198-.667 1.656l-2.752 1.987c-.494.242-1.333 1.324 0 1.97-1.134-.147-1.375-.951-1.667-1.639l-5.334-14.24 8.42 5.298z"
     id="path8"
     style="fill:#9576c5" />
  <path
     fill="#cd50dc"
     d="m16.351 17.754 12.631-.03c1.303-.003 1.88 1.15 2.351 2.349.777 2.226 6.58 20.98 6.58 20.98-.268-.565-.914-.984-1.58-.984H16.35c-1.303 0-2.351-1.036-2.351-2.321V20.073a2.355 2.355 0 0 1 2.351-2.349z"
     id="path10"
     style="fill:#c7639f" />
  <path
     fill="#f8f8f2"
     d="M19.586 33.241h3.772c2.753 0 4.918-1.911 4.918-4.318 0-2.445-2.165-4.371-4.918-4.371h-3.772zm3.72-6.827c1.462 0 2.487 1.118 2.487 2.509 0 1.362-1.032 2.31-2.486 2.456h-1.238v-4.965z"
     opacity=".75"
     id="path12"
     style="opacity:0.8" />
</svg>
