<?xml version="1.0" encoding="UTF-8" standalone="no"?>
<svg
   width="64"
   height="64"
   version="1.1"
   id="svg10"
   sodipodi:docname="com.github.bleakgrey.tootle.svg"
   inkscape:version="1.2.2 (b0a8486541, 2022-12-01)"
   xmlns:inkscape="http://www.inkscape.org/namespaces/inkscape"
   xmlns:sodipodi="http://sodipodi.sourceforge.net/DTD/sodipodi-0.dtd"
   xmlns="http://www.w3.org/2000/svg"
   xmlns:svg="http://www.w3.org/2000/svg">
  <defs
     id="defs14" />
  <sodipodi:namedview
     id="namedview12"
     pagecolor="#505050"
     bordercolor="#eeeeee"
     borderopacity="1"
     inkscape:showpageshadow="0"
     inkscape:pageopacity="0"
     inkscape:pagecheckerboard="0"
     inkscape:deskcolor="#505050"
     showgrid="false"
     inkscape:zoom="15.921875"
     inkscape:cx="29.895976"
     inkscape:cy="32.031403"
     inkscape:window-width="2560"
     inkscape:window-height="1361"
     inkscape:window-x="0"
     inkscape:window-y="0"
     inkscape:window-maximized="1"
     inkscape:current-layer="svg10" />
  <g
     transform="translate(4 4)"
     id="g8">
    <circle
       cx="28"
       cy="28"
       r="27"
       fill="#7c8ea3"
       id="circle2"
       style="fill:#717380" />
    <circle
       cx="28"
       cy="28"
       r="23"
       fill="#f8f8f2"
       opacity=".1"
       id="circle4"
       style="opacity:0.2" />
    <path
       fill="#f8f8f2"
       d="M34.22 11.582v8.217l-6.042 6.042-1.173-1.174a.585.585 0 0 0-.83 0c-.23.23-.23.6 0 .83l1.174 1.174-1.69 1.69-2.105-2.105.93-.931a1.174 1.174 0 1 0-1.66-1.66l-3.52 3.522a1.174 1.174 0 1 0 1.66 1.66l.93-.931 2.105 2.105-1.69 1.69-1.174-1.174a.585.585 0 0 0-.83 0c-.23.229-.23.6 0 .83l1.174 1.173-4.868 4.868H13.09l4.695 4.696v-3.522l1.197-1.197c.117.87.491 1.71 1.151 2.37 1.605 1.605 4.265 1.605 5.87 0l1.346-1.345 1.174 1.174a.587.587 0 1 0 .83-.83l-1.174-1.174 1.69-1.69 2.347 2.348a1.174 1.174 0 1 0 1.66-1.66l-2.348-2.348 1.69-1.69 1.174 1.174a.586.586 0 1 0 .83-.83l-1.174-1.174 1.346-1.345c1.605-1.605 1.605-4.266 0-5.87a4.097 4.097 0 0 0-2.37-1.151l2.37-2.37h8.218zm-1.76 14.087a1.76 1.76 0 0 1 1.245 3.006l-1.347 1.346-2.49-2.49 1.346-1.346a1.755 1.755 0 0 1 1.245-.516zm-3.422 2.692 2.49 2.49-1.69 1.69-2.49-2.49zm-3.35 3.35 2.49 2.49-1.69 1.69-2.49-2.49zm-2.52 2.52 2.49 2.49-1.345 1.345a1.76 1.76 0 1 1-2.49-2.49z"
       style="paint-order:normal"
       id="path6" />
  </g>
</svg>
