<?xml version="1.0" encoding="UTF-8" standalone="no"?>
<svg
   width="64"
   height="64"
   version="1.1"
   id="svg14291"
   sodipodi:docname="com.github.maoschanz.drawing.svg"
   inkscape:version="1.2.2 (b0a8486541, 2022-12-01)"
   xmlns:inkscape="http://www.inkscape.org/namespaces/inkscape"
   xmlns:sodipodi="http://sodipodi.sourceforge.net/DTD/sodipodi-0.dtd"
   xmlns="http://www.w3.org/2000/svg"
   xmlns:svg="http://www.w3.org/2000/svg">
  <defs
     id="defs14295" />
  <sodipodi:namedview
     id="namedview14293"
     pagecolor="#505050"
     bordercolor="#eeeeee"
     borderopacity="1"
     inkscape:showpageshadow="0"
     inkscape:pageopacity="0"
     inkscape:pagecheckerboard="0"
     inkscape:deskcolor="#505050"
     showgrid="false"
     inkscape:zoom="15.921875"
     inkscape:cx="29.895976"
     inkscape:cy="32.031403"
     inkscape:window-width="2560"
     inkscape:window-height="1361"
     inkscape:window-x="0"
     inkscape:window-y="0"
     inkscape:window-maximized="1"
     inkscape:current-layer="svg14291" />
  <path
     d="M58.652 36.33c-39.101 18.447-19.55 9.223 0 0zm0 0L36.33 58.652A26.924 26.924 0 0 0 58.652 36.33ZM36.33 58.652Z"
     style="fill:#9ea0a6;stroke-width:0.91037774"
     id="path14271" />
  <path
     d="M31.98 1.978A29.932 29.932 0 0 0 1.982 31.977 29.932 29.932 0 0 0 31.98 61.975h.002a30.43 30.43 0 0 0 4.81-.385l24.801-24.801a30.45 30.45 0 0 0 .387-4.813A29.932 29.932 0 0 0 31.982 1.978h-.002z"
     style="fill:#cbcccc"
     transform="translate(3.216 3.22) scale(.90003)"
     id="path14273" />
  <path
     d="m36.793 61.59 24.801-24.801c-12.749 2.04-22.761 12.052-24.801 24.801Z"
     style="fill:#f8f8f2"
     transform="translate(3.216 3.22) scale(.90003)"
     id="path14275" />
  <path
     d="M21.901 230.5c13.385 4.543-5.589 17.696 13.921 18.944 11.465.734 11.376 16.553 11.376 16.553"
     style="fill:none;stroke:#c7484a;stroke-width:4;stroke-linecap:round"
     transform="translate(2.257 -75.71) scale(.44441)"
     id="path14277" />
  <g
     style="enable-background:new"
     id="g14289">
    <path
       d="M-318.5 69.75h20v84h-20z"
       style="fill:#ff5555;fill-opacity:1;enable-background:new"
       transform="rotate(-135 -52.938 .047) scale(.44441)"
       id="path14279" />
    <path
       d="M-318.5 137.75h20v4h-20zm0-56h20v4h-20z"
       style="fill:#282a36;enable-background:new"
       transform="rotate(-135 -52.938 .047) scale(.44441)"
       id="path14281" />
    <path
       d="M69.75 316.5v-16l-16 6v4z"
       style="fill:#ff5555;fill-opacity:1;enable-background:new"
       transform="rotate(-45 -90.29 90.451) scale(.44441)"
       id="path14283" />
    <path
       d="M-318.5-71.75h20v2h-20z"
       style="fill-opacity:0.25925999;enable-background:new;fill:#1e1f29"
       transform="scale(-.44441 .44441) rotate(-45 .257 -287.58)"
       id="path14285" />
    <path
       d="M101.75 298.5a10 5 0 0 0 10 5 10 5 0 0 0 10-5z"
       style="fill:#282a36;enable-background:new"
       transform="rotate(-45 -90.29 90.451) scale(.44441)"
       id="path14287" />
  </g>
</svg>
