<?xml version="1.0" encoding="UTF-8" standalone="no"?>
<svg
   width="64"
   height="64"
   version="1.1"
   viewBox="0 0 64 64"
   id="svg8"
   sodipodi:docname="com.github.cryptowyrm.copypastegrab.svg"
   inkscape:version="1.2.2 (b0a8486541, 2022-12-01)"
   xmlns:inkscape="http://www.inkscape.org/namespaces/inkscape"
   xmlns:sodipodi="http://sodipodi.sourceforge.net/DTD/sodipodi-0.dtd"
   xmlns="http://www.w3.org/2000/svg"
   xmlns:svg="http://www.w3.org/2000/svg">
  <defs
     id="defs12" />
  <sodipodi:namedview
     id="namedview10"
     pagecolor="#505050"
     bordercolor="#eeeeee"
     borderopacity="1"
     inkscape:showpageshadow="0"
     inkscape:pageopacity="0"
     inkscape:pagecheckerboard="0"
     inkscape:deskcolor="#505050"
     showgrid="false"
     inkscape:zoom="15.921875"
     inkscape:cx="29.895976"
     inkscape:cy="32.031403"
     inkscape:window-width="2560"
     inkscape:window-height="1361"
     inkscape:window-x="0"
     inkscape:window-y="0"
     inkscape:window-maximized="1"
     inkscape:current-layer="svg8" />
  <rect
     x="5"
     y="5"
     width="54"
     height="54"
     rx="27"
     ry="27"
     fill="#f43d53"
     stroke-width="3.6445"
     id="rect2"
     style="fill:#c7484a" />
  <path
     d="m26.039 24c-0.04576 0.03106-0.05483 15.936-0.0098 15.986 0.017 0.0184 0.06562 0.0177 0.10742 0 0.04182-0.0178 2.7848-1.5733 6.0957-3.457v2e-3c7.9372-4.5159 7.7676-4.4172 7.7676-4.5078 0-0.08484-13.893-8.0694-13.961-8.0234z"
     fill="#f8f8f2"
     stroke-width="1.5811"
     id="path4" />
  <path
     d="m12 13.826c-0.90205 0.99267-1.7275 2.0537-2.4746 3.1738h2.4746v-3.1738zm40 0v3.1738h2.4746c-0.74713-1.1201-1.5726-2.1812-2.4746-3.1738zm-43 5.1738v5h3v-5h-3zm43 0v5h3v-5h-3zm-43 7v5h3v-5h-3zm43 0v5h3v-5h-3zm-43 7v5h3v-5h-3zm43 0v5h3v-5h-3zm-43 7v5h3v-5h-3zm43 0v5h3v-5h-3zm-42.475 7c0.74713 1.1201 1.5726 2.1812 2.4746 3.1738v-3.1738h-2.4746zm42.475 0v3.1738c0.90205-0.99267 1.7275-2.0537 2.4746-3.1738h-2.4746z"
     fill="#f8f8f2"
     id="path6" />
</svg>
