<?xml version="1.0" encoding="UTF-8" standalone="no"?>
<svg
   width="64"
   height="64"
   version="1.1"
   id="svg28"
   sodipodi:docname="com.usebottles.bottles.svg"
   inkscape:version="1.2.2 (b0a8486541, 2022-12-01)"
   xmlns:inkscape="http://www.inkscape.org/namespaces/inkscape"
   xmlns:sodipodi="http://sodipodi.sourceforge.net/DTD/sodipodi-0.dtd"
   xmlns="http://www.w3.org/2000/svg"
   xmlns:svg="http://www.w3.org/2000/svg">
  <defs
     id="defs32" />
  <sodipodi:namedview
     id="namedview30"
     pagecolor="#505050"
     bordercolor="#eeeeee"
     borderopacity="1"
     inkscape:showpageshadow="0"
     inkscape:pageopacity="0"
     inkscape:pagecheckerboard="0"
     inkscape:deskcolor="#505050"
     showgrid="false"
     inkscape:zoom="15.921875"
     inkscape:cx="29.83317"
     inkscape:cy="32.031403"
     inkscape:window-width="1280"
     inkscape:window-height="1361"
     inkscape:window-x="1280"
     inkscape:window-y="0"
     inkscape:window-maximized="0"
     inkscape:current-layer="svg28" />
  <circle
     cx="32"
     cy="32"
     r="27"
     fill="#e5e5e5"
     id="circle2"
     style="fill:#f8f8f2" />
  <path
     fill="#f8f8f2"
     d="M29.091 19.693s-1.706 4.187-1.706 4.466v23.84h9.23v-23.84l-1.538-4.466z"
     id="path4"
     style="fill:#cbcccc" />
  <path
     fill="#f0f0eb"
     d="M28.923 19.693s-1.538 4.187-1.538 4.465h9.23c0-.15-1.538-4.465-1.538-4.465z"
     id="path6"
     style="fill:#cbcccc" />
  <path
     fill="#deddda"
     d="M16 27.045c.153.004 11.385 0 11.385 0 0-3.944-3.644-7.352-3.692-9.814h-4c0 2.462-3.694 5.87-3.693 9.814z"
     id="path8"
     style="fill:#cbcccc" />
  <path
     fill="#297bde"
     d="M28.923 18.136v1.557h6.154v-1.557z"
     id="path10"
     style="fill:#515d85" />
  <path
     fill="#1f74da"
     d="M32 29.55c-2.308 0-2.308 2.91-2.308 2.91h-2.307v4.451h9.23V32.46h-2.307s0-2.91-2.308-2.91zm0 .615s1.678 2.047 1.064 3.059c-.614 1.012-1.515 1.012-2.129 0S32 30.165 32 30.165z"
     id="path12"
     style="fill:#515d85" />
  <path
     fill="#ffbe6f"
     d="m18.894 19.693-.003.003c-1.087 2.094-2.892 4.59-2.89 7.347v18.495a2.91 2.91 0 0 0 .045.498 2.355 2.355 0 0 0 .133.462 2.51 2.51 0 0 0 .488.783 2.5 2.5 0 0 0 .527.423c.065.038.132.072.2.104.069.03.139.057.21.081l.109.034a1.872 1.872 0 0 0 .338.064 1.91 1.91 0 0 0 .234.013h9.1V27.043c0-2.758-1.782-5.253-2.87-7.347l-.003-.003z"
     id="path14"
     style="fill:#ffb86c" />
  <path
     fill="#ee393e"
     d="M39.077 23.676c-1.309.64-2.461 2.065-2.461 3.547V48h8.862C46.876 47.994 48 46.842 48 45.412v-18.19c0-1.485-1.148-2.908-2.462-3.546z"
     id="path16"
     style="fill:#ff5555" />
  <path
     fill="#57e389"
     d="M19.693 16h4v1.231h-4z"
     id="path18"
     style="fill:#44c367" />
  <path
     fill="#67656c"
     d="M39.077 23.06h6.462v.626h-6.462z"
     id="path20"
     style="fill:#717380" />
  <path
     fill="#cecdca"
     d="M39.077 20.923h6.462v2.137h-6.462z"
     id="path22"
     style="fill:#cbcccc" />
  <path
     fill="#cac9c6"
     d="M44.308 42.92H48v1.388h-3.692z"
     id="path24"
     style="fill:#cbcccc" />
  <path
     fill="#33d17a"
     fill-opacity=".855"
     d="M21.693 28.923a3.077 3.077 0 1 0 0 6.154 3.077 3.077 0 0 0 0-6.154z"
     id="path26"
     style="fill:#44c367" />
</svg>
