<?xml version="1.0" encoding="UTF-8" standalone="no"?>
<svg
   width="64"
   height="64"
   version="1.1"
   id="svg5"
   sodipodi:docname="com.github.gi_lom.dialect.svg"
   inkscape:version="1.3.2 (091e20ef0f, 2023-11-25, custom)"
   xmlns:inkscape="http://www.inkscape.org/namespaces/inkscape"
   xmlns:sodipodi="http://sodipodi.sourceforge.net/DTD/sodipodi-0.dtd"
   xmlns="http://www.w3.org/2000/svg"
   xmlns:svg="http://www.w3.org/2000/svg">
  <defs
     id="defs5" />
  <sodipodi:namedview
     id="namedview5"
     pagecolor="#505050"
     bordercolor="#f8f8f2"
     borderopacity="1"
     inkscape:showpageshadow="0"
     inkscape:pageopacity="0"
     inkscape:pagecheckerboard="1"
     inkscape:deskcolor="#505050"
     inkscape:zoom="12.453125"
     inkscape:cx="32"
     inkscape:cy="32"
     inkscape:window-width="1920"
     inkscape:window-height="1013"
     inkscape:window-x="0"
     inkscape:window-y="0"
     inkscape:window-maximized="1"
     inkscape:current-layer="svg5" />
  <path
     fill="#cbcccc"
     d="M30.926 19h26.286c2.1 0 3.789 1.665 3.789 3.735v28.53C61 53.335 59.312 55 57.212 55H36.297c-1.074 0-1.777-.317-2.417-1.06z"
     id="path1" />
  <path
     fill="#6b6a6e"
     d="m42.615 30.354-1.748-.098c.02.527-.018.994-.098 1.62-.04.33-.118 1.36-.195 1.866h-.336c-1.196 0-2.69-.138-3.73-.313l.021 1.522c1.14.098 2.375.196 3.73.196h.019c-.491 2.203-1.276 5.009-2.276 6.958l1.451.527c.198-.35.374-.623.609-.917 1.315-1.54 3.476-3.03 5.81-3.03 2.298 0 3.496 1.821 3.496 3.263 0 3.22-4.397 3.98-8.952 3.356l.411 1.56c5.969.624 10.151-.877 10.151-4.953 0-2.264-1.827-4.552-4.948-4.552-2.042 0-3.808 1.177-5.516 2.367.411-1.113.862-2.98 1.217-4.619 2.492-.098 5.496-.41 7.793-.819l-.018-1.482c-2.415.525-5.184.798-7.481.896.098-.429.157-1.418.216-1.71.117-.527.216-1.132.373-1.638zm7.361-.684-1.04.449c.53.723 1.198 1.91 1.59 2.711l1.061-.467c-.392-.8-1.12-1.99-1.61-2.693zm2.18-.779-1.04.448c.549.721 1.197 1.834 1.63 2.69l1.059-.485c-.374-.723-1.14-1.932-1.65-2.653z"
     id="path2" />
  <path
     fill="#7d45a8"
     d="M41.267 45.93c.376.932.284 1.93-1.074 2.668l-4.434 3.201c-.795.39-2.148 2.134 0 3.174-1.827-.237-2.215-1.532-2.685-2.64L24.48 29.39l13.564 8.536z"
     id="path3"
     style="fill:#a83c7d;fill-opacity:1" />
  <path
     fill="#cd50dc"
     d="M6.788 9.048 27.138 9c2.1-.005 3.03 1.854 3.788 3.784 1.252 3.586 10.602 33.802 10.602 33.802-.432-.91-1.473-1.586-2.547-1.586H6.788C4.688 45 3 43.332 3 41.261V12.784A3.794 3.794 0 0 1 6.788 9z"
     id="path4"
     style="fill:#c7639f" />
  <path
     fill="#f8f8f2"
     d="M12 34h6.077C22.512 34 26 30.921 26 27.043 26 23.103 22.512 20 18.077 20H12zm5.994-11C20.349 23 22 24.802 22 27.043c0 2.194-1.662 3.722-4.006 3.957H16v-8z"
     opacity=".75"
     id="path5" />
</svg>
