<?xml version="1.0" encoding="UTF-8" standalone="no"?>
<svg
   width="64"
   height="64"
   viewBox="0 0 16.933 16.933"
   version="1.1"
   id="svg992"
   sodipodi:docname="com.github.GradienceTeam.Gradience.svg"
   inkscape:version="1.2.2 (b0a8486541, 2022-12-01)"
   xmlns:inkscape="http://www.inkscape.org/namespaces/inkscape"
   xmlns:sodipodi="http://sodipodi.sourceforge.net/DTD/sodipodi-0.dtd"
   xmlns="http://www.w3.org/2000/svg"
   xmlns:svg="http://www.w3.org/2000/svg">
  <defs
     id="defs996" />
  <sodipodi:namedview
     id="namedview994"
     pagecolor="#505050"
     bordercolor="#eeeeee"
     borderopacity="1"
     inkscape:showpageshadow="0"
     inkscape:pageopacity="0"
     inkscape:pagecheckerboard="0"
     inkscape:deskcolor="#505050"
     showgrid="false"
     inkscape:zoom="15.921875"
     inkscape:cx="29.895976"
     inkscape:cy="32.031403"
     inkscape:window-width="2560"
     inkscape:window-height="1361"
     inkscape:window-x="0"
     inkscape:window-y="0"
     inkscape:window-maximized="1"
     inkscape:current-layer="svg992" />
  <circle
     cx="8.466"
     cy="8.466"
     r="7.144"
     fill="#ebebeb"
     style="paint-order:stroke fill markers;fill:#cbcccc"
     id="circle970" />
  <circle
     cx="8.466"
     cy="8.466"
     r="5.82"
     fill="#f8f8f2"
     style="paint-order:stroke fill markers"
     id="circle972" />
  <g
     stroke-linecap="round"
     stroke-linejoin="round"
     transform="rotate(-45 7.966 9.021)"
     id="g990">
    <path
       fill="#9ea0a6"
       d="M12.699 8.467a.265.265 0 0 0-.264.263.265.265 0 0 0 .264.266h.53v1.852H8.466a.265.265 0 0 0-.266.263v5.823a.265.265 0 0 0 .266.263.265.265 0 0 0 .263-.263v-5.557h4.764a.265.265 0 0 0 .264-.266v-2.38a.265.265 0 0 0-.264-.264z"
       color="#282a36"
       id="path974" />
    <g
       fill-rule="evenodd"
       stroke-width=".961"
       id="g984">
      <path
         fill="#70a7ea"
         d="M6.35 2.24a7.144 7.144 0 0 0-2.117 1.182v6.37c0 .293.236.528.53.528h1.586V2.24z"
         style="paint-order:stroke fill markers;fill:#4cc3dc"
         id="path976" />
      <path
         fill="#6fdda0"
         d="M8.466 1.843a7.144 7.144 0 0 0-2.116.396v8.082h2.116V1.843z"
         style="paint-order:stroke fill markers;fill:#7afa99"
         id="path978" />
      <path
         fill="#f7de6a"
         d="M10.583 2.088a7.144 7.144 0 0 0-2.117-.245v8.478h2.117V2.088z"
         style="paint-order:stroke fill markers;fill:#fdc88e"
         id="path980" />
      <path
         fill="#e35a60"
         d="M12.699 3.06a7.144 7.144 0 0 0-2.116-.972v8.233h1.587c.293 0 .53-.236.53-.53l-.001-6.731z"
         style="paint-order:stroke fill markers;fill:#fd7e7c"
         id="path982" />
    </g>
    <rect
       width="8.466"
       height="3.175"
       x="4.233"
       y="7.146"
       fill-rule="evenodd"
       opacity=".5"
       rx=".529"
       ry=".529"
       style="mix-blend-mode:soft-light;paint-order:stroke fill markers;fill:#1e1f29;opacity:0.55"
       id="rect986" />
    <rect
       width="1.587"
       height="4.233"
       x="7.673"
       y="13.229"
       fill="#ad7c55"
       fill-rule="evenodd"
       rx=".529"
       ry=".529"
       style="paint-order:stroke fill markers;fill:#c7925b"
       id="rect988" />
  </g>
</svg>
