<?xml version="1.0" encoding="UTF-8" standalone="no"?>
<svg
   width="64"
   height="64"
   version="1.1"
   id="svg11450"
   sodipodi:docname="converseen.svg"
   inkscape:version="1.2.2 (b0a8486541, 2022-12-01)"
   xmlns:inkscape="http://www.inkscape.org/namespaces/inkscape"
   xmlns:sodipodi="http://sodipodi.sourceforge.net/DTD/sodipodi-0.dtd"
   xmlns="http://www.w3.org/2000/svg"
   xmlns:svg="http://www.w3.org/2000/svg">
  <defs
     id="defs11454" />
  <sodipodi:namedview
     id="namedview11452"
     pagecolor="#505050"
     bordercolor="#eeeeee"
     borderopacity="1"
     inkscape:showpageshadow="0"
     inkscape:pageopacity="0"
     inkscape:pagecheckerboard="0"
     inkscape:deskcolor="#505050"
     showgrid="false"
     inkscape:zoom="15.921875"
     inkscape:cx="29.895976"
     inkscape:cy="32.031403"
     inkscape:window-width="2560"
     inkscape:window-height="1361"
     inkscape:window-x="0"
     inkscape:window-y="0"
     inkscape:window-maximized="1"
     inkscape:current-layer="svg11450" />
  <g
     transform="matrix(1.35 0 0 1.35 -519.57 -675.13)"
     stroke-width=".74074"
     id="g11448">
    <rect
       x="388.57"
       y="503.8"
       width="40"
       height="40"
       rx="20"
       fill="#1da0f6"
       id="rect11444"
       style="fill:#13b1d5" />
    <path
       d="m409.75 508.24c3.8293 3.3058 4.7867 6.6565 4.7867 11.922l1.5707-4.0688c1.6536 1.6258 2.7806 3.7799 3.1114 6.1928 0.12172 1.8554-0.18123 3.498-0.65988 4.934 1.9533-1.2437 4.4204-2.6649 5.4764-4.934-0.70487-7.5082-6.7399-13.472-14.285-14.046zm-2.6913 0.0886c-7.5082 0.70487-13.472 6.7398-14.046 14.285 3.3058-3.8293 6.6564-4.7866 11.922-4.7866l-4.0686-1.5707c1.6258-1.6536 3.7799-2.7805 6.1928-3.1112 1.8554-0.12173 3.498 0.18108 4.934 0.65975-1.2437-1.9533-2.6649-4.4204-4.934-5.4764zm-8.4807 12.043c-1.9533 1.2437-4.4206 2.6649-5.4766 4.934 0.70488 7.5082 6.7399 13.472 14.285 14.046-3.8293-3.3058-4.7867-6.6565-4.7867-11.922l-1.5707 4.0687c-1.6536-1.6258-2.7805-3.7799-3.1112-6.1928-0.12173-1.8554 0.18122-3.498 0.65988-4.934zm25.546 4.606c-3.3058 3.8293-6.6564 4.7867-11.922 4.7867l4.0686 1.5707c-1.6258 1.6536-3.7799 2.7806-6.1928 3.1114-1.8554 0.12172-3.498-0.18123-4.934-0.6599 1.2437 1.9533 2.6649 4.4204 4.934 5.4764 7.5081-0.70487 13.472-6.7399 14.046-14.285z"
       fill="#f8f8f2"
       fill-rule="evenodd"
       id="path11446" />
  </g>
</svg>
