<?xml version="1.0" encoding="UTF-8" standalone="no"?>
<svg
   width="64"
   height="64"
   version="1.1"
   id="svg10307"
   sodipodi:docname="crossover.svg"
   inkscape:version="1.2.2 (b0a8486541, 2022-12-01)"
   xmlns:inkscape="http://www.inkscape.org/namespaces/inkscape"
   xmlns:sodipodi="http://sodipodi.sourceforge.net/DTD/sodipodi-0.dtd"
   xmlns="http://www.w3.org/2000/svg"
   xmlns:svg="http://www.w3.org/2000/svg">
  <defs
     id="defs10311" />
  <sodipodi:namedview
     id="namedview10309"
     pagecolor="#505050"
     bordercolor="#eeeeee"
     borderopacity="1"
     inkscape:showpageshadow="0"
     inkscape:pageopacity="0"
     inkscape:pagecheckerboard="0"
     inkscape:deskcolor="#505050"
     showgrid="false"
     inkscape:zoom="15.921875"
     inkscape:cx="29.895976"
     inkscape:cy="32.031403"
     inkscape:window-width="2560"
     inkscape:window-height="1361"
     inkscape:window-x="0"
     inkscape:window-y="0"
     inkscape:window-maximized="1"
     inkscape:current-layer="svg10307" />
  <rect
     x="5"
     y="5"
     width="54"
     height="54"
     rx="27"
     ry="27"
     fill="#f8f8f2"
     stroke-width="3.6445"
     id="rect10301" />
  <path
     d="m33.837 11.001c23.032 28 16.666 39.026-19.098 33.078 24.011-0.84031 30.377-11.866 19.098-33.078"
     fill="#ffd300"
     stroke-width="1.2732"
     id="path10303"
     style="fill:#ffb86c" />
  <path
     d="m32.248 18.351c-17 0.28392-20.073 8.5941-9.3109 24.908 1.0147-0.17952 1.9849-0.36796 2.894-0.59713-4.1086-14.462 3.6948-22.067 23.435-22.738-6.7098-1.114-12.384-1.6259-17.029-1.552m-7.918 26.954c1.6806 2.3974 3.6108 4.9591 5.844 7.6774-1.4069-2.6508-2.5591-5.1437-3.4173-7.48-0.78556-0.04456-1.5966-0.12477-2.4267-0.19862"
     fill="#008add"
     stroke-width="1.2732"
     id="path10305"
     style="fill:#168daa" />
</svg>
