<?xml version="1.0" encoding="UTF-8" standalone="no"?>
<svg
   width="64"
   height="64"
   version="1.1"
   viewBox="0 0 16.933 16.933"
   id="svg3544"
   sodipodi:docname="crystal-picnic.svg"
   inkscape:version="1.2.2 (b0a8486541, 2022-12-01)"
   xmlns:inkscape="http://www.inkscape.org/namespaces/inkscape"
   xmlns:sodipodi="http://sodipodi.sourceforge.net/DTD/sodipodi-0.dtd"
   xmlns="http://www.w3.org/2000/svg"
   xmlns:svg="http://www.w3.org/2000/svg">
  <defs
     id="defs3548" />
  <sodipodi:namedview
     id="namedview3546"
     pagecolor="#505050"
     bordercolor="#eeeeee"
     borderopacity="1"
     inkscape:showpageshadow="0"
     inkscape:pageopacity="0"
     inkscape:pagecheckerboard="0"
     inkscape:deskcolor="#505050"
     showgrid="false"
     inkscape:zoom="15.921875"
     inkscape:cx="29.895976"
     inkscape:cy="32.031403"
     inkscape:window-width="2560"
     inkscape:window-height="1361"
     inkscape:window-x="0"
     inkscape:window-y="0"
     inkscape:window-maximized="1"
     inkscape:current-layer="svg3544" />
  <circle
     cx="8.4665"
     cy="8.46"
     r="7.1436"
     fill="#f8f8f2"
     style="paint-order:stroke markers fill"
     id="circle3520" />
  <g
     transform="matrix(.33072 0 0 .33072 .59589 .1317)"
     stroke-width=".8"
     id="g3542">
    <rect
       x="21"
       y="20"
       width="5"
       height="8"
       fill="#e9e9f8"
       id="rect3522"
       style="fill:#f8f8f2" />
    <path
       d="m17 16v2h2v-2zm0 2h-2v2h2zm-2 2h-2v8h2zm0 8v2h2v-2zm2 2v2h2v-2zm0 2h-2v2h2zm-2 2h-2v2h2zm13-18v2h2v-2zm2 2v2h2v-2zm2 2v6h-9v2h12v-2h-1v-6zm3 8v4h2v-4zm0 4h-12v2h4v2h4v-2h4zm-12 0v-4h-2v4z"
       fill="#351135"
       id="path3524"
       style="fill:#515d85" />
    <path
       d="m19 12v2h-2v2h2v2h9v-4h-2v-2z"
       fill="#684fc9"
       id="path3526"
       style="fill:#7b7bbd" />
    <rect
       x="20"
       y="14"
       width="6"
       height="2"
       fill="#e9e9f8"
       id="rect3528"
       style="fill:#f8f8f2" />
    <path
       d="m17 18v2h2v-2zm0 2h-2v8h2v2h2v2h-2v2h5v2h5v-2h-4v-2h-2v-5h-2v-2h-2zm6 12h12v-2h-9v-2h-3v2zm-6 2h-2v2h2zm11-16v2h2v-2z"
       fill="#996000"
       id="path3530"
       style="fill:#c7925b" />
    <path
       d="m19 18v2h-2v5h2v2h2v-7h5v6h2v-8h-2zm-2 16v2h5v-2z"
       fill="#f8c123"
       id="path3532"
       style="fill:#ffb86c" />
    <rect
       x="26"
       y="28"
       width="9"
       height="2"
       fill="#f88107"
       id="rect3534"
       style="fill:#fd7e7c" />
    <rect
       x="24"
       y="21"
       width="2"
       height="4"
       fill="#684fc9"
       id="rect3536"
       style="fill:#7b7bbd" />
    <rect
       x="28"
       y="20"
       width="4"
       height="6"
       fill="#e9e9f8"
       id="rect3538"
       style="fill:#f8f8f2" />
    <rect
       x="28"
       y="21"
       width="2"
       height="4"
       fill="#684fc9"
       id="rect3540"
       style="fill:#7b7bbd" />
  </g>
</svg>
