<?xml version="1.0" encoding="UTF-8" standalone="no"?>
<svg
   width="64"
   height="64"
   version="1.1"
   id="svg1"
   sodipodi:docname="cs-actions.svg"
   inkscape:version="1.3.2 (091e20ef0f, 2023-11-25, custom)"
   xmlns:inkscape="http://www.inkscape.org/namespaces/inkscape"
   xmlns:sodipodi="http://sodipodi.sourceforge.net/DTD/sodipodi-0.dtd"
   xmlns="http://www.w3.org/2000/svg"
   xmlns:svg="http://www.w3.org/2000/svg">
  <sodipodi:namedview
     id="namedview1"
     pagecolor="#505050"
     bordercolor="#ffffff"
     borderopacity="1"
     inkscape:showpageshadow="0"
     inkscape:pageopacity="0"
     inkscape:pagecheckerboard="1"
     inkscape:deskcolor="#505050"
     inkscape:zoom="12.453125"
     inkscape:cx="32"
     inkscape:cy="32"
     inkscape:window-width="1920"
     inkscape:window-height="1013"
     inkscape:window-x="0"
     inkscape:window-y="0"
     inkscape:window-maximized="1"
     inkscape:current-layer="svg1" />
  <defs
     id="defs1">
    <style
       id="current-color-scheme"
       type="text/css">.ColorScheme-Text {
        color:#282a36;
      }
      .ColorScheme-Highlight {
        color:#6272a4;
      }</style>
  </defs>
  <rect
     x="6"
     y="6"
     width="52"
     height="52"
     rx="8"
     ry="8"
     fill="#4b8ef5"
     stroke-width=".92853"
     id="rect1"
     style="fill:#6272a4" />
  <path
     d="m22 14c-3.324 0-6 2.676-6 6v24c0 3.324 2.676 6 6 6h20c3.324 0 6-2.676 6-6v-24c0-3.324-2.676-6-6-6zm1 10h18a1 1 0 1 1 0 2h-18a1 1 0 1 1 0-2zm0 8h18a1 1 0 1 1 0 2h-18a1 1 0 1 1 0-2zm0 8h18a1 1 0 1 1 0 2h-18a1 1 0 1 1 0-2z"
     fill="#f8f8f2"
     fill-rule="evenodd"
     stroke-width="2"
     style="paint-order:stroke fill markers"
     id="path1" />
</svg>
