<?xml version="1.0" encoding="UTF-8" standalone="no"?>
<svg
   width="64"
   height="64"
   viewBox="0 0 16.933 16.933"
   version="1.1"
   id="svg6"
   sodipodi:docname="cs-user-accounts.svg"
   inkscape:version="1.2.2 (b0a8486541, 2022-12-01)"
   xmlns:inkscape="http://www.inkscape.org/namespaces/inkscape"
   xmlns:sodipodi="http://sodipodi.sourceforge.net/DTD/sodipodi-0.dtd"
   xmlns="http://www.w3.org/2000/svg"
   xmlns:svg="http://www.w3.org/2000/svg">
  <defs
     id="defs10" />
  <sodipodi:namedview
     id="namedview8"
     pagecolor="#505050"
     bordercolor="#eeeeee"
     borderopacity="1"
     inkscape:showpageshadow="0"
     inkscape:pageopacity="0"
     inkscape:pagecheckerboard="0"
     inkscape:deskcolor="#505050"
     showgrid="false"
     inkscape:zoom="15.921875"
     inkscape:cx="27.76055"
     inkscape:cy="32.031403"
     inkscape:window-width="2560"
     inkscape:window-height="1361"
     inkscape:window-x="0"
     inkscape:window-y="0"
     inkscape:window-maximized="1"
     inkscape:current-layer="svg6" />
  <circle
     cx="8.466"
     cy="8.46"
     r="7.144"
     fill="#44475a"
     style="paint-order:stroke markers fill;fill:#168daa"
     id="circle2" />
  <path
     fill="#f8f8f2"
     d="M8.467 4.893A1.587 1.587 0 0 0 6.88 6.48a1.587 2.646 0 0 0 1.587 2.645 1.587 2.646 0 0 0 1.588-2.646h-.001a1.587 1.587 0 0 0-1.587-1.586zm1.276 4.909a1.587 1.587 0 0 1-1.276.646 1.587 1.587 0 0 1-1.276-.645 3.704 2.381 0 0 0-2.43 2.232h7.41a3.704 2.381 0 0 0-2.428-2.233z"
     style="paint-order:stroke markers fill;fill:#f8f8f2"
     id="path4" />
</svg>
