<?xml version="1.0" encoding="UTF-8" standalone="no"?>
<svg
   width="64"
   height="64"
   version="1.1"
   id="svg267"
   sodipodi:docname="darktable.svg"
   inkscape:version="1.2.2 (b0a8486541, 2022-12-01)"
   xmlns:inkscape="http://www.inkscape.org/namespaces/inkscape"
   xmlns:sodipodi="http://sodipodi.sourceforge.net/DTD/sodipodi-0.dtd"
   xmlns="http://www.w3.org/2000/svg"
   xmlns:svg="http://www.w3.org/2000/svg">
  <defs
     id="defs271" />
  <sodipodi:namedview
     id="namedview269"
     pagecolor="#505050"
     bordercolor="#eeeeee"
     borderopacity="1"
     inkscape:showpageshadow="0"
     inkscape:pageopacity="0"
     inkscape:pagecheckerboard="0"
     inkscape:deskcolor="#505050"
     showgrid="false"
     inkscape:zoom="15.921875"
     inkscape:cx="29.895976"
     inkscape:cy="32.031403"
     inkscape:window-width="2560"
     inkscape:window-height="1361"
     inkscape:window-x="0"
     inkscape:window-y="0"
     inkscape:window-maximized="1"
     inkscape:current-layer="svg267" />
  <g
     transform="matrix(1.35 0 0 1.35 -.4 -22)"
     stroke-width=".74074"
     id="g265">
    <g
       id="g259">
      <circle
         cx="24"
         cy="40"
         r="19.259"
         fill="#282a3693e"
         id="circle245"
         style="fill:#282a36" />
      <g
         stroke-width=".74074"
         id="g257">
        <path
           d="m27.64 20.379-4.7684 13.484 18.773-3.1379c-2.7815-5.306-7.9062-9.2044-14.009-10.346"
           fill="#e99f4b"
           id="path247"
           style="fill:#ffb86c" />
        <path
           d="m42.879 33.664-14.139 2.6401 12.125 14.584c3.2355-5.0452 4.0725-11.403 2.0145-17.225"
           fill="#f6d152"
           id="path249"
           style="fill:#f1fa8c" />
        <path
           d="m39.04 53.102-9.3709-10.844-6.6526 17.723c6.016 0.25977 11.978-2.1986 16.025-6.8794"
           fill="#369557"
           id="path251"
           style="fill:#44c367" />
        <path
           d="m20.237 59.631 4.7684-13.484-18.773 3.1379c2.7815 5.306 7.9062 9.2044 14.009 10.346"
           fill="#4c8fbf"
           id="path253"
           style="fill:#168daa" />
        <path
           d="m5.1206 46.326 14.139-2.6401-12.125-14.584c-3.2355 5.0452-4.0725 11.403-2.0145 17.225"
           fill="#8e52a8"
           id="path255"
           style="fill:#9576c5" />
      </g>
    </g>
    <circle
       cx="24"
       cy="40"
       r="2.963"
       fill="#f8f8f2"
       stroke-width=".74074"
       id="circle261" />
    <path
       d="m8.9154 26.898 9.3709 10.844 6.6526-17.723c-6.016-0.25977-11.978 2.1986-16.025 6.8794"
       fill="#e06959"
       stroke-width=".74074"
       id="path263"
       style="fill:#fd7e7c" />
  </g>
</svg>
