<?xml version="1.0" encoding="UTF-8" standalone="no"?>
<svg
   width="64"
   height="64"
   version="1"
   id="svg34"
   sodipodi:docname="dbeaver.svg"
   inkscape:version="1.2.2 (b0a8486541, 2022-12-01)"
   xmlns:inkscape="http://www.inkscape.org/namespaces/inkscape"
   xmlns:sodipodi="http://sodipodi.sourceforge.net/DTD/sodipodi-0.dtd"
   xmlns="http://www.w3.org/2000/svg"
   xmlns:svg="http://www.w3.org/2000/svg">
  <defs
     id="defs38" />
  <sodipodi:namedview
     id="namedview36"
     pagecolor="#505050"
     bordercolor="#eeeeee"
     borderopacity="1"
     inkscape:showpageshadow="0"
     inkscape:pageopacity="0"
     inkscape:pagecheckerboard="0"
     inkscape:deskcolor="#505050"
     showgrid="false"
     inkscape:zoom="15.921875"
     inkscape:cx="27.76055"
     inkscape:cy="32.031403"
     inkscape:window-width="2560"
     inkscape:window-height="1361"
     inkscape:window-x="0"
     inkscape:window-y="0"
     inkscape:window-maximized="1"
     inkscape:current-layer="svg34" />
  <g
     transform="matrix(.96429 0 0 .96429 1.1429 1.1419)"
     id="g32">
    <circle
       cx="32"
       cy="32.001"
       r="28"
       fill="#cbcccc"
       id="circle2" />
    <g
       stroke-opacity=".098039"
       stroke-width="1.037"
       id="g10">
      <circle
         cx="19"
         cy="27.001"
         r="9"
         fill="#6d4c41"
         id="circle4"
         style="fill:#c7925b" />
      <circle
         cx="44.999"
         cy="27.001"
         r="9"
         fill="#6d4c41"
         id="circle6"
         style="fill:#c7925b" />
      <path
         d="m32 16.001c-13.255 0-22 10.745-22 24v9.3122a28 28 0 0 0 22 10.687 28 28 0 0 0 22-10.73v-9.2694c0-13.255-8.745-24-22-24z"
         fill="#a1887f"
         id="path8"
         style="fill:#fdc88e" />
    </g>
    <rect
       x="26"
       y="46"
       width="6"
       height="8"
       fill="#f8f8f2"
       id="rect12" />
    <rect
       x="32"
       y="45"
       width="6"
       height="9"
       fill="#f8f8f2"
       id="rect14" />
    <path
       d="m26.204 40.001c-2.76-0.08196-4.2039 4.4257-4.2039 7.1205 0 2.6942 2.2386 4.8784 4.9999 4.8784 2.5454 0 4.9663-2.1682 4.9663-2.1682h0.0706s2.419 2.1652 4.9631 2.1682c2.7614 0 4.9999-2.1842 4.9999-4.8784s-1.3559-6.6941-4.1161-6.7757z"
       fill="#6d4c41"
       stroke="#282a36"
       stroke-opacity=".098039"
       stroke-width="1.037"
       id="path16"
       style="fill:#c7925b" />
    <path
       d="m37.938 39.781c0.60195 2.4539-3.3359 5.2191-5.8752 5.2191s-6.6058-2.736-6.0029-5.2191c0.46196-1.903 3.4636-1.7792 6.0029-1.7792s5.4177-0.08597 5.8752 1.7792z"
       fill="#3e2723"
       id="path18"
       style="fill:#282a36;opacity:0.99999999" />
    <g
       transform="matrix(.21876 0 0 .21876 -89.004 1532.2)"
       id="g24">
      <circle
         cx="502.86"
         cy="-6853.1"
         r="22.857"
         fill="#fefefe"
         stroke="#282a36"
         stroke-opacity=".098039"
         stroke-width="4.7406"
         id="circle20"
         style="stroke:#282a36;fill:#f8f8f2" />
      <circle
         transform="scale(-1,1)"
         cx="-498.29"
         cy="-6857.7"
         r="9.143"
         fill="#282a36"
         id="circle22"
         style="fill:#282a36" />
    </g>
    <g
       transform="matrix(.21876 0 0 .21876 -66.999 1532.2)"
       id="g30">
      <circle
         cx="502.86"
         cy="-6853.1"
         r="22.857"
         fill="#fefefe"
         stroke="#282a36"
         stroke-opacity=".098039"
         stroke-width="4.7406"
         id="circle26"
         style="fill:#f8f8f2;stroke:#282a36" />
      <circle
         transform="scale(-1,1)"
         cx="-498.29"
         cy="-6857.7"
         r="9.143"
         fill="#282a36"
         id="circle28"
         style="fill:#282a36" />
    </g>
  </g>
</svg>
