<?xml version="1.0" encoding="UTF-8" standalone="no"?>
<svg
   width="64"
   height="64"
   version="1.1"
   id="svg20"
   sodipodi:docname="ddnet.svg"
   inkscape:version="1.2.2 (b0a8486541, 2022-12-01)"
   xmlns:inkscape="http://www.inkscape.org/namespaces/inkscape"
   xmlns:sodipodi="http://sodipodi.sourceforge.net/DTD/sodipodi-0.dtd"
   xmlns="http://www.w3.org/2000/svg"
   xmlns:svg="http://www.w3.org/2000/svg">
  <defs
     id="defs24" />
  <sodipodi:namedview
     id="namedview22"
     pagecolor="#505050"
     bordercolor="#eeeeee"
     borderopacity="1"
     inkscape:showpageshadow="0"
     inkscape:pageopacity="0"
     inkscape:pagecheckerboard="0"
     inkscape:deskcolor="#505050"
     showgrid="false"
     inkscape:zoom="15.921875"
     inkscape:cx="29.895976"
     inkscape:cy="32.031403"
     inkscape:window-width="2560"
     inkscape:window-height="1361"
     inkscape:window-x="0"
     inkscape:window-y="0"
     inkscape:window-maximized="1"
     inkscape:current-layer="svg20" />
  <circle
     cx="32"
     cy="32"
     r="27"
     fill="#f8f8f2"
     stroke-width=".96429"
     id="circle2" />
  <g
     transform="matrix(.57143 0 0 .57143 13.714 13.714)"
     id="g18">
    <path
       d="m7 54.491c0.00486 4.109 0.98216 5.4792 13.405 5.4792 3.5316 0 7.8305 0.32254 10.094-1.1536 2.137-1.3938 1.3663-3.4393 1.3663-5.5211 0-4.2864-4.0381-7.2955-10.904-7.2955-6.8662 0-13.965 4.2-13.96 8.491z"
       fill="#9d7730"
       id="path4"
       style="fill:#c7925b" />
    <path
       d="m32 4c12.81 0 23.611 8.6028 26.941 20.346 0.68975 2.4326-0.84809 5.5449-0.84809 8.1986-3e-6 15.464-9.5393 23.096-25.003 23.096-9.8964 0-19.683-0.77534-24.663-8.5254-2.8016-4.3601-4.4266-9.5482-4.4266-15.116 0-15.464 12.536-28 28-28z"
       fill="#ffa500"
       id="path6"
       style="fill:#ffb86c" />
    <ellipse
       transform="scale(-1,1)"
       cx="-37"
       cy="28"
       rx="4"
       ry="7"
       fill="#44475a"
       id="ellipse8" />
    <path
       d="m58.803 23.976c-0.70116 16.644-14.388 29.004-31.047 29.024-7.0676-0.010171-13.921-1.6487-19.432-6.0734 5.1247 8.1333 14.064 13.069 23.677 13.073 15.464 0 28-12.536 28-28-0.00742-2.7186-0.41062-5.4215-1.197-8.0239z"
       fill="#f27300"
       id="path10"
       style="fill:#fd7e7c" />
    <ellipse
       transform="scale(-1,1)"
       cx="-25"
       cy="28"
       rx="4"
       ry="7"
       fill="#44475a"
       id="ellipse12" />
    <path
       d="m57 54.491c-0.0049 4.109-0.98216 5.4792-13.405 5.4792-3.5316 0-7.8305 0.32254-10.094-1.1536-2.137-1.3938-1.3663-3.4393-1.3663-5.5211 0-4.2864 4.0381-7.2955 10.904-7.2955 6.8662 0 13.965 4.2 13.96 8.491z"
       fill="#9d7730"
       id="path14"
       style="fill:#c7925b" />
    <path
       d="m55.644 51.19a30.864 31.111 0 0 1-13.162 8.791c0.37015-0.0043 0.75486-0.01092 1.1122-0.01092 12.423 1e-6 13.401-1.3707 13.406-5.4797 0.0014-1.1329-0.50234-2.2558-1.3563-3.3004z"
       opacity=".2"
       id="path16"
       style="fill:#1e1f29" />
  </g>
</svg>
