<?xml version="1.0" encoding="UTF-8" standalone="no"?>
<svg
   width="64"
   height="64"
   version="1.0"
   id="svg42"
   sodipodi:docname="de.haeckerfelix.Fragments.svg"
   inkscape:version="1.2.2 (b0a8486541, 2022-12-01)"
   xmlns:inkscape="http://www.inkscape.org/namespaces/inkscape"
   xmlns:sodipodi="http://sodipodi.sourceforge.net/DTD/sodipodi-0.dtd"
   xmlns="http://www.w3.org/2000/svg"
   xmlns:svg="http://www.w3.org/2000/svg">
  <defs
     id="defs46" />
  <sodipodi:namedview
     id="namedview44"
     pagecolor="#505050"
     bordercolor="#eeeeee"
     borderopacity="1"
     inkscape:showpageshadow="0"
     inkscape:pageopacity="0"
     inkscape:pagecheckerboard="0"
     inkscape:deskcolor="#505050"
     showgrid="false"
     inkscape:zoom="15.921875"
     inkscape:cx="29.895976"
     inkscape:cy="32.031403"
     inkscape:window-width="2560"
     inkscape:window-height="1361"
     inkscape:window-x="0"
     inkscape:window-y="0"
     inkscape:window-maximized="1"
     inkscape:current-layer="svg42" />
  <circle
     cx="32"
     cy="32"
     r="27"
     fill="#f8f8f2"
     stroke-width="3.7796"
     style="paint-order:stroke fill markers"
     id="circle2" />
  <g
     transform="matrix(.875 0 0 .875 4 4.3459)"
     stroke-width=".39546"
     id="g40">
    <path
       d="m32 8.4829v0.00195c-0.80872 0-1.617 0.30769-2.2363 0.92773l-20.656 19.979c-0.59459 0.59208-0.9279 1.3972-0.92578 2.2363h-0.00195c-0.00213 0.84006 0.33194 1.646 0.92773 2.2383l20.656 20.812c1.2336 1.2387 3.2391 1.2387 4.4727 0l20.836-20.836c0.59507-0.59255 0.92842-1.3985 0.92578-2.2383h0.001953c0.0017-0.8394-0.33235-1.6446-0.92773-2.2363l-20.836-19.955c-0.59193-0.59529-1.3968-0.9299-2.2363-0.92969z"
       fill="#1c71d8"
       id="path4"
       style="fill:#6272a4" />
    <path
       d="m25.672 25.277 6.3274-6.3274v12.655l-6.3274 6.3274z"
       fill="#26a269"
       id="path6"
       style="fill:#44c367" />
    <path
       d="m19.354 31.594-6.3359 6.3379 6.3281 6.3281 6.3262-6.3281z"
       fill="#813d9c"
       id="path8"
       style="fill:#9576c5" />
    <path
       d="m38.327 37.932-12.655 12.655v-12.655l12.612-12.751z"
       fill="#98c1f1"
       id="path10"
       style="fill:#8be9fd" />
    <path
       d="m38.327 12.623-6.3265 6.3265v12.655l12.655-12.655z"
       fill="#2ec27e"
       id="path12"
       style="fill:#50fa7b" />
    <path
       d="m19.359 18.938-4.8164 4.8145-5.75 5.7637a3.1447 3.1447 0 0 0-0.79297 2.0879 3.1447 3.1447 0 0 0 0.92773 2.2383l4.0898 4.0898 12.654-12.654zm-11.344 13.771a3.1447 3.1447 0 0 0 0.12305 0.61524 3.1447 3.1447 0 0 1-0.12305-0.61524z"
       fill="#613583"
       id="path14"
       style="fill:#7b7bbd" />
    <path
       d="m32 7.6027c-0.80872 0-1.6178 0.30934-2.237 0.92938l-10.418 10.418 6.3265 6.3281 12.65-12.661-4.0846-4.0846a3.1526 3.1526 0 0 0-2.237-0.92938z"
       fill="#f5c211"
       id="path16"
       style="fill:#f1fa8c" />
    <path
       d="m44.654 18.949-0.02539 13.406 5.9648 5.9648 4.4785-4.4785a3.1447 3.1447 0 0 0 0.92578-2.2383 3.1439 3.1439 0 0 0-0.92578-2.2363z"
       fill="#e01b24"
       id="path18"
       style="fill:#c7484a" />
    <path
       d="m32 31.604 12.655-12.655v12.655l-6.3274 6.3274z"
       fill="#ff7800"
       id="path20"
       style="fill:#c7925b" />
    <path
       d="m32 18.95 6.3274 6.3274 6.3274-6.3274-6.3274-6.3274z"
       fill="#f8f8f2"
       opacity=".2"
       id="path22"
       style="opacity:0.35" />
    <path
       d="m19.345 18.95-10.419 10.418a3.1447 3.1447 0 0 0-0.21013 0.23276l10.63-10.65z"
       fill="#dc8add"
       id="path24"
       style="fill:#c7639f" />
    <path
       d="m19.345 18.95 6.3274 6.3274 6.3274-6.3274z"
       fill="#e5a50a"
       id="path26"
       style="fill:#fdc88e" />
    <path
       d="m38.327 37.932 6.3321 6.3227-0.0047-12.65z"
       fill="#ffa348"
       id="path28"
       style="fill:#ffb86c" />
    <path
       d="m25.672 37.932 6.3274-6.3274-6.3214-6.2811z"
       fill="#3584e4"
       id="path30"
       style="fill:#6272a4" />
    <path
       d="m44.654 31.604 0.0059 12.65 6.3184-6.3184z"
       fill="#f66151"
       id="path32"
       style="fill:#ff5555" />
    <path
       d="m25.672 37.932-6.3262 6.3262v2e-3l6.3262 6.3262z"
       fill="#c061cb"
       id="path34"
       style="fill:#bd93f9" />
    <path
       d="m32 31.604-6.3274-6.3274-6.3274 6.3274z"
       fill="#1a5fb4"
       id="path36"
       style="fill:#168daa" />
    <path
       d="m32 31.604-6.3274 6.3274-6.3183-6.3365z"
       fill="#3584e4"
       id="path38"
       style="fill:#13b1d5" />
  </g>
</svg>
