<?xml version="1.0" encoding="UTF-8" standalone="no"?>
<svg
   width="64"
   height="64"
   version="1.1"
   id="svg9"
   sodipodi:docname="deepin.com.qq.office.svg"
   inkscape:version="1.2.2 (b0a8486541, 2022-12-01)"
   xmlns:inkscape="http://www.inkscape.org/namespaces/inkscape"
   xmlns:sodipodi="http://sodipodi.sourceforge.net/DTD/sodipodi-0.dtd"
   xmlns="http://www.w3.org/2000/svg"
   xmlns:svg="http://www.w3.org/2000/svg">
  <defs
     id="defs13" />
  <sodipodi:namedview
     id="namedview11"
     pagecolor="#505050"
     bordercolor="#eeeeee"
     borderopacity="1"
     inkscape:showpageshadow="0"
     inkscape:pageopacity="0"
     inkscape:pagecheckerboard="0"
     inkscape:deskcolor="#505050"
     showgrid="false"
     inkscape:zoom="15.921875"
     inkscape:cx="29.895976"
     inkscape:cy="32.031403"
     inkscape:window-width="2560"
     inkscape:window-height="1361"
     inkscape:window-x="0"
     inkscape:window-y="0"
     inkscape:window-maximized="1"
     inkscape:current-layer="svg9" />
  <circle
     cx="32"
     cy="32"
     r="27"
     fill="#f8f8f2"
     stroke-width="1.823"
     id="circle2" />
  <g
     transform="matrix(.8421 0 0 .8421 5.0529 4.7362)"
     id="g7">
    <path
       id="Combined-Shape"
       d="m44.294 47.883h1.1193c3.0933 0 5.5866-2.4989 5.5866-5.5816v-25.719c0-3.0755-2.5012-5.5816-5.5866-5.5816h-26.827c-3.0933 0-5.5866 2.4989-5.5866 5.5816v25.719c0 3.0755 2.5012 5.5816 5.5866 5.5816h14.662l11.045 8.9412z"
       fill="#38aeff"
       stroke-width="1.1176"
       style="fill:#13b1d5" />
    <polygon
       transform="translate(8,8.9998)"
       points="24 24.618 17.276 31.342 13.991 28.056 19.809 22.238 12 17.73 14.323 13.706 21.735 17.985 21.735 9 26.382 9 26.382 17.918 33.677 13.706 36 17.73 28.191 22.238 34.009 28.056 30.724 31.342"
       fill="#f8f8f2eff"
       id="polygon5"
       style="fill:#282a36" />
  </g>
</svg>
