<?xml version="1.0" encoding="UTF-8" standalone="no"?>
<svg
   width="64"
   height="64"
   version="1.1"
   viewBox="0 0 16.933 16.933"
   id="svg10"
   sodipodi:docname="desktop-environment-gnome.svg"
   inkscape:version="1.2.2 (b0a8486541, 2022-12-01)"
   xmlns:inkscape="http://www.inkscape.org/namespaces/inkscape"
   xmlns:sodipodi="http://sodipodi.sourceforge.net/DTD/sodipodi-0.dtd"
   xmlns="http://www.w3.org/2000/svg"
   xmlns:svg="http://www.w3.org/2000/svg">
  <defs
     id="defs14" />
  <sodipodi:namedview
     id="namedview12"
     pagecolor="#505050"
     bordercolor="#eeeeee"
     borderopacity="1"
     inkscape:showpageshadow="0"
     inkscape:pageopacity="0"
     inkscape:pagecheckerboard="0"
     inkscape:deskcolor="#505050"
     showgrid="false"
     inkscape:zoom="15.921875"
     inkscape:cx="29.895976"
     inkscape:cy="32.031403"
     inkscape:window-width="2560"
     inkscape:window-height="1361"
     inkscape:window-x="0"
     inkscape:window-y="0"
     inkscape:window-maximized="1"
     inkscape:current-layer="svg10" />
  <g
     transform="translate(0 -280.07)"
     id="g8">
    <g
       transform="matrix(1.0385 0 0 1.0385 -.32619 -11.098)"
       stroke-width=".92729"
       id="g4">
      <circle
         cx="8.467"
         cy="288.53"
         r="6.879"
         fill="#569c3b"
         style="paint-order:markers stroke fill;fill:#44c367"
         id="circle2" />
    </g>
    <path
       d="M11.164 284.3c-1.672 0-1.985 2.54-1.045 2.54.94 0 2.717-2.54 1.045-2.54zm-2.654.288c-.956.135-.62 1.936-.11 1.97.508.033 1.067-2.104.11-1.97zm-1.73.56a.586.586 0 0 0-.157.04c-.895.34-.136 1.742.366 1.648.47-.089.524-1.759-.208-1.687zm-1.176 1.128a.475.475 0 0 0-.259.074c-.736.434.248 1.482.68 1.32.38-.143.138-1.378-.421-1.395zm3.432.847c-1.317-.024-3.055.668-3.351 2.056-.321 1.503 1.321 3.588 3.035 3.588.843 0 1.815-.797 1.997-1.806.139-.769-1.748-.46-1.684.048.052.416-.166.632-.466.64-.41-.05-.61-.287-.665-.645-.073-.938 2.884-1.608 2.65-3.063-.086-.533-.725-.804-1.516-.818z"
       fill="#f8f8f2"
       id="path6" />
  </g>
</svg>
