<?xml version="1.0" encoding="UTF-8" standalone="no"?>
<svg
   width="64"
   height="64"
   version="1.1"
   id="svg12"
   sodipodi:docname="desktop-profiler.svg"
   inkscape:version="1.3.2 (091e20ef0f, 2023-11-25, custom)"
   xmlns:inkscape="http://www.inkscape.org/namespaces/inkscape"
   xmlns:sodipodi="http://sodipodi.sourceforge.net/DTD/sodipodi-0.dtd"
   xmlns="http://www.w3.org/2000/svg"
   xmlns:svg="http://www.w3.org/2000/svg">
  <sodipodi:namedview
     id="namedview12"
     pagecolor="#505050"
     bordercolor="#ffffff"
     borderopacity="1"
     inkscape:showpageshadow="0"
     inkscape:pageopacity="0"
     inkscape:pagecheckerboard="1"
     inkscape:deskcolor="#505050"
     inkscape:zoom="12.453125"
     inkscape:cx="32"
     inkscape:cy="31.919699"
     inkscape:window-width="1920"
     inkscape:window-height="1013"
     inkscape:window-x="0"
     inkscape:window-y="0"
     inkscape:window-maximized="1"
     inkscape:current-layer="svg12" />
  <defs
     id="defs2">
    <linearGradient
       id="a"
       x1="14.679"
       x2="2.293"
       y1="293.79"
       y2="282.98"
       gradientTransform="matrix(4.0495 0 0 3.7796 -2.287 -1058.6)"
       gradientUnits="userSpaceOnUse">
      <stop
         offset="0"
         stop-color="#66bcff"
         id="stop1" />
      <stop
         offset="1"
         stop-color="#b29aff"
         id="stop2" />
    </linearGradient>
  </defs>
  <rect
     width="60.001"
     height="46.002"
     x="2"
     y="9"
     fill="url(#a)"
     rx="6"
     ry="6"
     id="rect2"
     style="fill:#44475a" />
  <rect
     width="53.999"
     height="4"
     x="5"
     y="11"
     opacity=".35"
     rx="2"
     ry="2"
     id="rect3" />
  <rect
     width="3.999"
     height="1.999"
     x="5.998"
     y="12"
     opacity=".35"
     ry="1.002"
     style="paint-order:stroke markers fill"
     id="rect4" />
  <rect
     width="10.001"
     height="1.999"
     x="27.001"
     y="12"
     opacity=".35"
     ry="1.002"
     style="paint-order:stroke markers fill"
     id="rect5" />
  <rect
     width="1.999"
     height="1.999"
     x="56.002"
     y="12"
     opacity=".35"
     ry="1.002"
     style="paint-order:stroke markers fill"
     id="rect6" />
  <rect
     width="3.001"
     height="1.999"
     x="52.004"
     y="12"
     opacity=".35"
     ry="1.002"
     style="paint-order:stroke markers fill"
     id="rect7" />
  <rect
     width="1.999"
     height="1.999"
     x="49.003"
     y="12"
     opacity=".35"
     ry="1.002"
     style="paint-order:stroke markers fill"
     id="rect8" />
  <path
     fill="#f8f8f2"
     d="M14.001 51.04c-1.108 0-2 .892-2 2v2.01h40v-2.01c0-1.108-.892-2-2-2z"
     opacity=".35"
     style="paint-order:stroke markers fill"
     id="path8" />
  <rect
     width="5"
     height="5"
     x="17"
     y="48.001"
     fill="#ccdfff"
     rx=".999"
     ry=".999"
     style="paint-order:stroke markers fill"
     id="rect9" />
  <rect
     width="5"
     height="5"
     x="26"
     y="48.001"
     fill="#ccdfff"
     rx=".999"
     ry=".999"
     style="paint-order:stroke markers fill"
     id="rect10" />
  <rect
     width="5"
     height="5"
     x="35"
     y="48.001"
     fill="#ccdfff"
     rx=".999"
     ry=".999"
     style="paint-order:stroke markers fill"
     id="rect11" />
  <rect
     width="5"
     height="5"
     x="43.998"
     y="48.001"
     fill="#ccdfff"
     rx=".999"
     ry=".999"
     style="paint-order:stroke markers fill"
     id="rect12" />
  <circle
     cx="52"
     cy="48"
     r="12"
     fill="#9ea0a6"
     id="circle12" />
  <path
     fill="#f8f8f2"
     d="m50.201 40.8-.159 1.897a5.658 5.658 0 0 0-1.655.957l-1.724-.813-1.799 3.118 1.565 1.085a5.658 5.658 0 0 0-.087.956 5.658 5.658 0 0 0 .083.96l-1.56 1.081 1.798 3.118 1.72-.808a5.658 5.658 0 0 0 1.66.948L50.2 55.2h3.598l.159-1.897a5.658 5.658 0 0 0 1.655-.956l1.724.812 1.799-3.118-1.565-1.088a5.658 5.658 0 0 0 .087-.953 5.658 5.658 0 0 0-.083-.96l1.56-1.08-1.798-3.12-1.72.81a5.658 5.658 0 0 0-1.66-.949L53.8 40.8zm1.8 4.8a2.4 2.4 0 0 1 2.4 2.4 2.4 2.4 0 0 1-2.4 2.4 2.4 2.4 0 0 1-2.4-2.4 2.4 2.4 0 0 1 2.4-2.4z"
     id="path12" />
</svg>
