<?xml version="1.0" encoding="UTF-8" standalone="no"?>
<svg
   width="64"
   height="64"
   version="1.1"
   id="svg10036"
   sodipodi:docname="desktop-profiler.svg"
   inkscape:version="1.2.2 (b0a8486541, 2022-12-01)"
   xmlns:inkscape="http://www.inkscape.org/namespaces/inkscape"
   xmlns:sodipodi="http://sodipodi.sourceforge.net/DTD/sodipodi-0.dtd"
   xmlns="http://www.w3.org/2000/svg"
   xmlns:svg="http://www.w3.org/2000/svg">
  <defs
     id="defs10040" />
  <sodipodi:namedview
     id="namedview10038"
     pagecolor="#505050"
     bordercolor="#eeeeee"
     borderopacity="1"
     inkscape:showpageshadow="0"
     inkscape:pageopacity="0"
     inkscape:pagecheckerboard="0"
     inkscape:deskcolor="#505050"
     showgrid="false"
     inkscape:zoom="15.921875"
     inkscape:cx="29.83317"
     inkscape:cy="32.062807"
     inkscape:window-width="1280"
     inkscape:window-height="1361"
     inkscape:window-x="0"
     inkscape:window-y="0"
     inkscape:window-maximized="0"
     inkscape:current-layer="svg10036" />
  <g
     transform="matrix(3.7796 0 0 3.7796 -4.8598e-8 -1058.6)"
     id="g10030">
    <rect
       x="1.3229"
       y="281.39"
       width="14.287"
       height="14.287"
       ry="7.1436"
       fill="#8daaff"
       style="paint-order:stroke markers fill;fill:#6272a4"
       id="rect10012" />
    <rect
       x="3.44"
       y="291.18"
       width="10.054"
       height="1.323"
       ry=".265"
       fill="#f8f8f2"
       opacity=".35"
       style="paint-order:markers stroke fill"
       id="rect10014" />
    <g
       fill="#ccdfff"
       id="g10024"
       style="fill:#cbcccc">
      <rect
         x="4.498"
         y="290.38"
         width="1.323"
         height="1.323"
         ry=".132"
         style="paint-order:stroke markers fill;fill:#cbcccc"
         id="rect10016" />
      <rect
         x="6.703"
         y="290.38"
         width="1.323"
         height="1.323"
         ry=".132"
         style="paint-order:stroke markers fill;fill:#cbcccc"
         id="rect10018" />
      <rect
         x="8.908"
         y="290.38"
         width="1.323"
         height="1.323"
         ry=".132"
         style="paint-order:stroke markers fill;fill:#cbcccc"
         id="rect10020" />
      <rect
         x="11.113"
         y="290.38"
         width="1.323"
         height="1.323"
         ry=".132"
         style="paint-order:stroke markers fill;fill:#cbcccc"
         id="rect10022" />
    </g>
    <path
       transform="matrix(.26458 0 0 .26458 0 280.07)"
       d="m32 5c-5.2094 0-10.063 1.4644-14.18 4h28.359c-4.1165-2.5356-8.9703-4-14.18-4z"
       opacity=".35"
       stroke-width="3.7796"
       style="paint-order:stroke markers fill"
       id="path10026" />
    <rect
       x="7.1436"
       y="281.65"
       width="2.6458"
       height=".52916"
       ry=".26508"
       opacity=".35"
       style="paint-order:stroke markers fill"
       id="rect10028" />
  </g>
  <circle
     cx="48"
     cy="48"
     r="12"
     fill="#9ea0a6"
     stroke-width="3.7796"
     id="circle10032" />
  <path
     d="m46.201 40.8-0.15874 1.8974a5.6581 5.6581 0 0 0-1.6555 0.95624l-1.7235-0.81261-1.7991 3.1182 1.5648 1.0847a5.6581 5.6581 0 0 0-0.08693 0.95624 5.6581 5.6581 0 0 0 0.08315 0.96002l-1.561 1.081 1.7991 3.1182 1.7197-0.80884a5.6581 5.6581 0 0 0 1.6592 0.94868l0.15874 1.9011h3.5982l0.15874-1.8974a5.6581 5.6581 0 0 0 1.6555-0.95624l1.7235 0.81261 1.7991-3.1182-1.5648-1.0885a5.6581 5.6581 0 0 0 0.08693-0.95246 5.6581 5.6581 0 0 0-0.08315-0.96002l1.561-1.081-1.7991-3.1182-1.7197 0.80883a5.6581 5.6581 0 0 0-1.6592-0.94868l-0.15874-1.9011zm1.7991 4.8001a2.4 2.4 0 0 1 2.4 2.4 2.4 2.4 0 0 1-2.4 2.4 2.4 2.4 0 0 1-2.4-2.4 2.4 2.4 0 0 1 2.4-2.4z"
     fill="#f8f8f2"
     stroke-width="3.7796"
     id="path10034" />
</svg>
