<?xml version="1.0" encoding="UTF-8" standalone="no"?>
<svg
   width="64"
   height="64"
   version="1.1"
   viewBox="0 0 16.933 16.933"
   id="svg8"
   sodipodi:docname="desktop-environment-lxde.svg"
   inkscape:version="1.2.2 (b0a8486541, 2022-12-01)"
   xmlns:inkscape="http://www.inkscape.org/namespaces/inkscape"
   xmlns:sodipodi="http://sodipodi.sourceforge.net/DTD/sodipodi-0.dtd"
   xmlns="http://www.w3.org/2000/svg"
   xmlns:svg="http://www.w3.org/2000/svg">
  <defs
     id="defs12" />
  <sodipodi:namedview
     id="namedview10"
     pagecolor="#505050"
     bordercolor="#eeeeee"
     borderopacity="1"
     inkscape:showpageshadow="0"
     inkscape:pageopacity="0"
     inkscape:pagecheckerboard="0"
     inkscape:deskcolor="#505050"
     showgrid="false"
     inkscape:zoom="15.921875"
     inkscape:cx="29.895976"
     inkscape:cy="32.031403"
     inkscape:window-width="2560"
     inkscape:window-height="1361"
     inkscape:window-x="0"
     inkscape:window-y="0"
     inkscape:window-maximized="1"
     inkscape:current-layer="svg8" />
  <g
     transform="matrix(1.0385 0 0 1.0385 -.41232 -.32567)"
     stroke-width=".92729"
     id="g4">
    <path
       d="m8.467 1.588a6.879 6.879 0 1 1 0 13.757 6.879 6.879 0 0 1 0-13.757z"
       fill="#235292"
       id="path2"
       style="fill:#515d85" />
  </g>
  <path
     d="M10.578 7.501c-.52-.603-.987-.993-1.679.023-.413.603-2.884 4.066-3.337 4.617-.133.16-.21.27-.31.337 0-.22 1.707-3.003 2.183-3.81.575-.968.557-.912.488-.912-.097 0-.295.148-.596.478-.549.603-2.175 2.847-2.288 2.813.039-.163 1.312-2.172 1.89-3.003.497-.716.307-.772.022-.701-1.216.3-2.67 1.02-2.718.993.018-.037 4.9-3.569 5.552-3.636.076-.009.236-.148.521-.265.31-.125.519-.229.57-.196-.227.327-.345.393-.348.498-.003.172-.062.45-.128.54 1.262.865 1.755 3.813 2.114 6.186.085.562.166.986.186 1.237-.106-.282-1.115-4.03-2.124-5.199m0 0"
     fill="#f8f8f2"
     id="path6" />
</svg>
