<?xml version="1.0" encoding="UTF-8" standalone="no"?>
<svg
   width="64"
   height="64"
   version="1.1"
   viewBox="0 0 64 64"
   id="svg32"
   sodipodi:docname="dia.svg"
   inkscape:version="1.2.2 (b0a8486541, 2022-12-01)"
   xmlns:inkscape="http://www.inkscape.org/namespaces/inkscape"
   xmlns:sodipodi="http://sodipodi.sourceforge.net/DTD/sodipodi-0.dtd"
   xmlns="http://www.w3.org/2000/svg"
   xmlns:svg="http://www.w3.org/2000/svg">
  <defs
     id="defs36" />
  <sodipodi:namedview
     id="namedview34"
     pagecolor="#505050"
     bordercolor="#eeeeee"
     borderopacity="1"
     inkscape:showpageshadow="0"
     inkscape:pageopacity="0"
     inkscape:pagecheckerboard="0"
     inkscape:deskcolor="#505050"
     showgrid="false"
     inkscape:zoom="12.96875"
     inkscape:cx="29.378313"
     inkscape:cy="32"
     inkscape:window-width="1920"
     inkscape:window-height="1001"
     inkscape:window-x="0"
     inkscape:window-y="0"
     inkscape:window-maximized="1"
     inkscape:current-layer="g30" />
  <g
     transform="matrix(1.1739 0 0 1.1739 3.8261 -14.957)"
     stroke-width=".85185"
     id="g30">
    <g
       stroke-width=".85185"
       id="g26">
      <g
         transform="translate(0,16)"
         id="g4">
        <path
           d="m24 1c12.703 0 23 10.297 23 23s-10.297 23-23 23-23-10.297-23-23 10.297-23 23-23z"
           fill="#383838"
           stroke-width=".85185"
           id="path2"
           style="fill:#44475a" />
      </g>
      <g
         transform="translate(0,16)"
         id="g16">
        <g
           stroke-width=".85185"
           id="g14">
          <g
             transform="translate(1,1)"
             stroke-width=".85185"
             id="g12">
            <g
               opacity=".1"
               stroke-width=".85185"
               id="g10">
              <g
                 stroke-width=".85185"
                 id="g8">
                <path
                   d="m16.5 11h2v1.996h-2"
                   id="path6" />
              </g>
            </g>
          </g>
        </g>
      </g>
      <g
         transform="translate(1,16)"
         id="g24">
        <g
           stroke-width=".85185"
           id="g22">
          <g
             stroke-width=".85185"
             id="g20">
            <path
               d="m24 19-5 9h10m-3.2-2h-3.6l1.8-3.4"
               fill="#ff9409"
               id="path18"
               style="fill:#ffb86c" />
          </g>
        </g>
      </g>
    </g>
    <path
       d="m15 26v3h1v1h-2v3h2v14h-2v3h2v0.877h-1l2 3.123 2-3.123h-1v-0.877h9c5.54 0 10-4.46 10-10s-4.46-10-10-10h-9v-1h1v-3zm3 7h9c3.878 0 7 3.122 7 7s-3.122 7-7 7h-9z"
       fill="#f8f8f2"
       id="path28"
       style="fill:#f8f8f2" />
  </g>
</svg>
