<svg width="64" height="64" viewBox="0 0 64 64" fill="none" xmlns="http://www.w3.org/2000/svg">
<path d="M58.75 32C58.75 46.7736 46.7736 58.75 32 58.75C17.2264 58.75 5.25003 46.7736 5.25003 32C5.25003 17.2264 17.2264 5.25004 32 5.25004C46.7736 5.25004 58.75 17.2264 58.75 32Z" fill="url(#paint0_linear)" stroke="url(#paint1_linear)" stroke-width="0.5"/>
<path d="M27.3598 19.9897C26.9141 19.9916 23.2271 20.0967 19.3376 22.9865C19.3376 22.9865 15.1887 30.4488 15.1887 39.6399C15.1887 39.6399 17.6088 43.7888 23.9758 43.9904C23.9758 43.9904 25.0418 42.7227 25.9061 41.6278C22.2471 40.533 20.8641 38.2569 20.8641 38.2569C20.8641 38.2569 21.1523 38.4586 21.6709 38.7466C21.6997 38.7466 21.7284 38.7807 21.7861 38.8061C21.8725 38.8654 21.959 38.8925 22.0454 38.9501C22.7657 39.3534 23.486 39.6702 24.1486 39.9297C25.3299 40.4202 26.7417 40.8515 28.384 41.1684C30.5448 41.5717 33.0802 41.7157 35.8462 41.2023C37.2003 40.943 38.5834 40.5687 40.0239 39.9636C41.0324 39.5891 42.156 39.0415 43.3372 38.2637C43.3372 38.2637 41.8967 40.5974 38.1224 41.6635C38.9867 42.7295 40.024 43.9682 40.024 43.9682C46.3914 43.7665 48.8112 39.6175 48.8112 39.6463C48.8112 30.4551 44.6623 22.993 44.6623 22.993C40.5422 19.9102 36.5949 19.9967 36.5949 19.9967L36.1916 20.4577C41.0896 21.927 43.3657 24.0879 43.3657 24.0879C40.3692 22.4745 37.4306 21.6677 34.6938 21.3507C32.6193 21.1203 30.6313 21.1778 28.8738 21.4099C28.7009 21.4099 28.5569 21.444 28.384 21.4694C27.3756 21.5846 24.9266 21.9301 21.8438 23.2844C20.7778 23.7453 20.1439 24.091 20.1439 24.091C20.1439 24.091 22.5065 21.8148 27.6925 20.3455L27.4044 19.9998C27.4044 19.9998 27.3892 19.9995 27.3594 19.9996L27.3598 19.9897ZM26.6268 30.6213C28.2691 30.6213 29.5945 32.0331 29.5657 33.7906C29.5657 35.5481 28.2691 36.9598 26.6268 36.9598C25.0133 36.9598 23.688 35.5481 23.688 33.7906C23.688 32.0331 24.9845 30.6213 26.6268 30.6213ZM37.1431 30.6213C38.7566 30.6213 40.0819 32.0331 40.0819 33.7906C40.0819 35.5481 38.7854 36.9598 37.1431 36.9598C35.5296 36.9598 34.2043 35.5481 34.2043 33.7906C34.2043 32.0331 35.5008 30.6213 37.1431 30.6213Z" fill="white"/>
<defs>
<linearGradient id="paint0_linear" x1="14" y1="11.5" x2="41.5" y2="56" gradientUnits="userSpaceOnUse">
<stop stop-color="#4F74FC"/>
<stop offset="0.359375" stop-color="#724FFC"/>
<stop offset="0.583333" stop-color="#772EF3"/>
<stop offset="1" stop-color="#8B46FF"/>
</linearGradient>
<linearGradient id="paint1_linear" x1="5" y1="26" x2="32" y2="59" gradientUnits="userSpaceOnUse">
<stop stop-color="#8381F2" stop-opacity="0"/>
<stop offset="1" stop-color="#8842FD" stop-opacity="0.47"/>
</linearGradient>
</defs>
</svg>
