<?xml version="1.0" encoding="UTF-8" standalone="no"?>
<svg
   width="64"
   height="64"
   version="1"
   id="svg10"
   sodipodi:docname="disk-check.svg"
   inkscape:version="1.2.2 (b0a8486541, 2022-12-01)"
   xmlns:inkscape="http://www.inkscape.org/namespaces/inkscape"
   xmlns:sodipodi="http://sodipodi.sourceforge.net/DTD/sodipodi-0.dtd"
   xmlns="http://www.w3.org/2000/svg"
   xmlns:svg="http://www.w3.org/2000/svg">
  <defs
     id="defs14" />
  <sodipodi:namedview
     id="namedview12"
     pagecolor="#505050"
     bordercolor="#eeeeee"
     borderopacity="1"
     inkscape:showpageshadow="0"
     inkscape:pageopacity="0"
     inkscape:pagecheckerboard="0"
     inkscape:deskcolor="#505050"
     showgrid="false"
     inkscape:zoom="15.921875"
     inkscape:cx="29.895976"
     inkscape:cy="32.031403"
     inkscape:window-width="2560"
     inkscape:window-height="1361"
     inkscape:window-x="0"
     inkscape:window-y="0"
     inkscape:window-maximized="1"
     inkscape:current-layer="svg10" />
  <circle
     cx="32"
     cy="32"
     r="18"
     fill="#f8f8f2"
     fill-rule="evenodd"
     style="paint-order:normal"
     id="circle2" />
  <path
     d="m32 5a27 27 0 0 0-27 27 27 27 0 0 0 27 27 27 27 0 0 0 27-27 27 27 0 0 0-27-27zm0 15.428a11.572 11.572 0 0 1 11.572 11.572 11.572 11.572 0 0 1-11.572 11.572 11.572 11.572 0 0 1-11.572-11.572 11.572 11.572 0 0 1 11.572-11.572z"
     fill="#fa4d6f"
     id="path4"
     style="fill:#c7484a" />
  <path
     d="M32 9A23 23 0 0 0 9 32a23 23 0 0 0 23 23 23 23 0 0 0 23-23A23 23 0 0 0 32 9zm0 13.143A9.857 9.857 0 0 1 41.857 32 9.857 9.857 0 0 1 32 41.857 9.857 9.857 0 0 1 22.143 32 9.857 9.857 0 0 1 32 22.143z"
     fill="#f8f8f2"
     opacity=".15"
     id="path6" />
  <path
     d="m32 17a15 15 0 0 0-15 15 15 15 0 0 0 15 15 15 15 0 0 0 15-15 15 15 0 0 0-15-15zm0 9a6 6 0 0 1 6 6 6 6 0 0 1-6 6 6 6 0 0 1-6-6 6 6 0 0 1 6-6z"
     opacity=".35"
     id="path8" />
</svg>
