<?xml version="1.0" encoding="UTF-8" standalone="no"?>
<svg
   width="64"
   height="64"
   version="1.1"
   viewBox="0 0 16.933 16.933"
   id="svg6"
   sodipodi:docname="distributor-logo-archlinux.svg"
   inkscape:version="1.2.2 (b0a8486541, 2022-12-01)"
   xmlns:inkscape="http://www.inkscape.org/namespaces/inkscape"
   xmlns:sodipodi="http://sodipodi.sourceforge.net/DTD/sodipodi-0.dtd"
   xmlns="http://www.w3.org/2000/svg"
   xmlns:svg="http://www.w3.org/2000/svg">
  <defs
     id="defs10" />
  <sodipodi:namedview
     id="namedview8"
     pagecolor="#505050"
     bordercolor="#eeeeee"
     borderopacity="1"
     inkscape:showpageshadow="0"
     inkscape:pageopacity="0"
     inkscape:pagecheckerboard="0"
     inkscape:deskcolor="#505050"
     showgrid="false"
     inkscape:zoom="15.921875"
     inkscape:cx="29.895976"
     inkscape:cy="32.031403"
     inkscape:window-width="2560"
     inkscape:window-height="1361"
     inkscape:window-x="0"
     inkscape:window-y="0"
     inkscape:window-maximized="1"
     inkscape:current-layer="svg6" />
  <circle
     cx="8.4665"
     cy="8.4665"
     r="7.1436"
     fill="#138ed3"
     stroke-width=".96296"
     style="paint-order:stroke markers fill;fill:#168daa"
     id="circle2" />
  <path
     d="m8.466 3.769c-0.377 0.924-0.604 1.529-1.024 2.425 0.257 0.273 0.573 0.59 1.086 0.95-0.551-0.227-0.928-0.455-1.209-0.692-0.537 1.121-1.378 2.717-3.086 5.785 1.342-0.774 2.383-1.252 3.352-1.434a2.457 2.457 0 0 1-0.063-0.575l1e-3 -0.043c0.022-0.86 0.469-1.521 0.999-1.476s0.941 0.779 0.92 1.638a2.427 2.427 0 0 1-0.054 0.462c0.959 0.188 1.988 0.664 3.312 1.428-0.261-0.48-0.494-0.913-0.717-1.326-0.35-0.272-0.716-0.625-1.461-1.008 0.512 0.133 0.88 0.287 1.165 0.459-2.262-4.212-2.445-4.772-3.221-6.593z"
     fill="#f8f8f2"
     fill-rule="evenodd"
     id="path4" />
</svg>
