<?xml version="1.0" encoding="UTF-8" standalone="no"?>
<svg
   width="64"
   height="64"
   version="1.1"
   viewBox="0 0 16.933 16.933"
   id="svg15"
   sodipodi:docname="distributor-logo-manjaro.svg"
   inkscape:version="1.2.2 (b0a8486541, 2022-12-01)"
   xmlns:inkscape="http://www.inkscape.org/namespaces/inkscape"
   xmlns:sodipodi="http://sodipodi.sourceforge.net/DTD/sodipodi-0.dtd"
   xmlns="http://www.w3.org/2000/svg"
   xmlns:svg="http://www.w3.org/2000/svg">
  <sodipodi:namedview
     id="namedview17"
     pagecolor="#505050"
     bordercolor="#eeeeee"
     borderopacity="1"
     inkscape:showpageshadow="0"
     inkscape:pageopacity="0"
     inkscape:pagecheckerboard="0"
     inkscape:deskcolor="#505050"
     showgrid="false"
     inkscape:zoom="15.921875"
     inkscape:cx="29.895976"
     inkscape:cy="32.031403"
     inkscape:window-width="2560"
     inkscape:window-height="1361"
     inkscape:window-x="0"
     inkscape:window-y="0"
     inkscape:window-maximized="1"
     inkscape:current-layer="svg15" />
  <defs
     id="defs7">
    <linearGradient
       id="b"
       x1="1"
       x2="47"
       gradientTransform="matrix(0 -1.1304 1.1304 0 -.13 48.13)"
       gradientUnits="userSpaceOnUse">
      <stop
         stop-color="#31af54"
         offset="0"
         id="stop2" />
      <stop
         stop-color="#35bf5c"
         offset="1"
         id="stop4" />
    </linearGradient>
  </defs>
  <g
     transform="matrix(1.0384 0 0 1.0385 -.32571 -.32524)"
     stroke-width=".92734"
     id="g11">
    <path
       transform="matrix(.26458 0 0 .26458 1.323 2.91)"
       d="m27-5c14.36 0 26 11.64 26 26s-11.64 26-26 26-26-11.64-26-26 11.64-26 26-26z"
       fill="url(#b)"
       id="path9"
       style="fill:#44c367;stroke-width:0.92733707;stroke-dasharray:none" />
  </g>
  <path
     d="m4.7624 4.233v2.513h0.00117l-0.00117 0.92677h2.1166v-1.0583h2.6458v-2.3812l-4.7624 0.00675m5.2916-0.00675v8.4665h2.1166v-8.4665m-4.7624 2.9104v5.5561h2.1166v-5.5561m-4.7624 1.0583 0.0011669 4.4981 2.1155-2.5e-4v-4.4978"
     fill="#f8f8f2"
     fill-rule="evenodd"
     stroke-width=".75"
     id="path13"
     style="stroke-width:0.75007898;stroke-dasharray:none" />
</svg>
