<?xml version="1.0" encoding="UTF-8" standalone="no"?>
<svg
   width="64"
   height="64"
   version="1.1"
   viewBox="0 0 64 64"
   id="svg10"
   sodipodi:docname="distributor-logo-nixos.svg"
   inkscape:version="1.2.2 (b0a8486541, 2022-12-01)"
   xmlns:inkscape="http://www.inkscape.org/namespaces/inkscape"
   xmlns:sodipodi="http://sodipodi.sourceforge.net/DTD/sodipodi-0.dtd"
   xmlns="http://www.w3.org/2000/svg"
   xmlns:svg="http://www.w3.org/2000/svg">
  <defs
     id="defs14" />
  <sodipodi:namedview
     id="namedview12"
     pagecolor="#505050"
     bordercolor="#eeeeee"
     borderopacity="1"
     inkscape:showpageshadow="0"
     inkscape:pageopacity="0"
     inkscape:pagecheckerboard="0"
     inkscape:deskcolor="#505050"
     showgrid="false"
     inkscape:zoom="15.921875"
     inkscape:cx="29.895976"
     inkscape:cy="32.031403"
     inkscape:window-width="2560"
     inkscape:window-height="1361"
     inkscape:window-x="0"
     inkscape:window-y="0"
     inkscape:window-maximized="1"
     inkscape:current-layer="svg10" />
  <g
     transform="matrix(1.1739 0 0 1.1739 3.8261 3.8261)"
     id="g4">
    <path
       d="m24 1c12.703 0 23 10.297 23 23s-10.297 23-23 23-23-10.297-23-23 10.297-23 23-23z"
       fill="#c6e3f2"
       id="path2"
       style="fill:#a6edfa" />
  </g>
  <path
     d="m30.943 16.739 8.0296 13.964 1.3641-2.3337-2.504-4.3564 4.1498-6.1842-0.58696-1.0894h-1.5085l-3.3586 5.0032-2.8773-5.0032h-2.7082m-5.7968 9.3913-2.7446 4.6957h-7.3733l-0.63274 1.1739 0.63274 1.1739h6.0022l-3.125 5.3472 1.3042 2.4194 8.6553-14.809h-2.7188m4.5489 12.913 1.35 2.3478h5.1746l3.746 5.8696h1.4287l0.62335-1.1575-2.9712-4.7074h5.5068l1.2655-2.3478h-16.125z"
     fill="#64addc"
     id="path6"
     style="fill:#13b1d5" />
  <path
     d="m22.609 16.739-0.62335 1.1575 2.9712 4.7074h-5.5068l-1.2655 2.3478h16.125l-1.35-2.3478h-5.1746l-3.746-5.8696h-1.4287m22.185 6.3215-8.6553 14.809h2.7188l2.7446-4.6957h7.3733l0.63274-1.1739-0.63274-1.1739h-6.0022l3.125-5.3472-1.3042-2.4194zm-19.762 10.238-1.3641 2.3337 2.504 4.3564-4.1498 6.1842 0.58696 1.0894h1.5085l3.3586-5.0032 2.8773 5.0032h2.7082l-8.0296-13.964"
     fill="#4e66b2"
     id="path8"
     style="fill:#515d85" />
</svg>
