<?xml version="1.0" encoding="UTF-8" standalone="no"?>
<svg
   width="64"
   height="64"
   version="1.1"
   id="svg14"
   sodipodi:docname="distributor-logo-pop-os.svg"
   inkscape:version="1.2.2 (b0a8486541, 2022-12-01)"
   xmlns:inkscape="http://www.inkscape.org/namespaces/inkscape"
   xmlns:sodipodi="http://sodipodi.sourceforge.net/DTD/sodipodi-0.dtd"
   xmlns="http://www.w3.org/2000/svg"
   xmlns:svg="http://www.w3.org/2000/svg">
  <defs
     id="defs18" />
  <sodipodi:namedview
     id="namedview16"
     pagecolor="#505050"
     bordercolor="#eeeeee"
     borderopacity="1"
     inkscape:showpageshadow="0"
     inkscape:pageopacity="0"
     inkscape:pagecheckerboard="0"
     inkscape:deskcolor="#505050"
     showgrid="false"
     inkscape:zoom="15.921875"
     inkscape:cx="29.895976"
     inkscape:cy="32.031403"
     inkscape:window-width="2560"
     inkscape:window-height="1361"
     inkscape:window-x="0"
     inkscape:window-y="0"
     inkscape:window-maximized="1"
     inkscape:current-layer="svg14" />
  <circle
     cx="32"
     cy="32"
     r="27"
     fill="#48b9c7"
     stroke-width=".96429"
     id="circle2"
     style="fill:#70b7c8" />
  <g
     transform="matrix(.9 0 0 .9 3.74 4)"
     fill="#f8f8f2"
     id="g12">
    <rect
       x="18"
       y="46"
       width="28"
       height="4"
       rx="2.258"
       ry="2"
       id="rect4" />
    <path
       d="m35.401 24.453c-1.4127 3.0576-3.7671 5.5157-7.0633 6.7148l2.8253 7.4942c0.52975 1.3789 1.0006 2.8178 0.58861 4.1368-0.41203 1.319-2.2956 1.7386-3.6494 0.29976-2.5899-2.8178-11.301-20.564-11.949-21.883-0.64747-1.319-1.3538-2.3981-1.3538-3.7171 0.05886-1.9785 3.0608-4.0169 4.5323-5.0361 1.4715-1.0192 4.3557-2.3981 6.8867-2.4581 2.531-0.059954 3.5905 0.53958 5.062 1.4988 2.2367 1.4988 3.826 3.837 4.4146 6.5349 0.58861 2.6979 0.41203 4.7963-0.29431 6.2951m-6.6513-3.2375c-0.52975-1.8586-1.6481-3.6572-3.1196-4.8562-0.29431-0.23981-0.64747-0.53958-1.0595-0.65949-2.7076-0.8993-1.5304 3.7171-1.1184 4.9162 0.41203 1.1991 1.5304 3.7171 2.7665 4.9761 0.2943 0.29977 0.58861 0.53958 0.94178 0.59953 0.35317 0.05994 1.0595-0.29977 1.3538-0.77939 0.2943-0.47963 0.35317-0.83935 0.35317-1.319a7.5342 7.674 0 0 0-0.11772-2.8778z"
       id="path6" />
    <path
       d="m41.913 42.628c-0.1218 0.48706-0.42624 0.92001-0.91337 1.1906-0.48713 0.27059-1.6441 0.27059-2.3139-0.21647s-0.79159-1.2988-0.60891-1.9482c0.18266-0.64942 0.79159-1.353 1.6441-1.5694 1.7658-0.48706 2.5574 1.2447 2.1921 2.5435z"
       id="path8" />
    <path
       d="m40.12 36.918c-1.0196-0.41408-0.67975-6.0929 0.28323-13.014 0.28323-1.8929 0.7364-2.8394 1.2462-3.3126 0.50982-0.47324 2.0393-0.70985 2.9456-0.53239a5.0982 5.3239 0 0 1 2.7757 1.4197c0.67975 0.6507 0.7364 1.3605 0.50981 2.2479-0.22658 0.88731-1.0196 2.7803-1.6427 4.1408l-1.5861 3.1352c-3.0589 5.6788-3.682 6.2704-4.5317 5.9154z"
       id="path10" />
  </g>
</svg>
