<?xml version="1.0" encoding="UTF-8" standalone="no"?>
<svg
   width="64"
   height="64"
   version="1.1"
   viewBox="0 0 16.933 16.933"
   id="svg10"
   sodipodi:docname="distributor-logo-gentoo.svg"
   inkscape:version="1.2.2 (b0a8486541, 2022-12-01)"
   xmlns:inkscape="http://www.inkscape.org/namespaces/inkscape"
   xmlns:sodipodi="http://sodipodi.sourceforge.net/DTD/sodipodi-0.dtd"
   xmlns="http://www.w3.org/2000/svg"
   xmlns:svg="http://www.w3.org/2000/svg">
  <defs
     id="defs14" />
  <sodipodi:namedview
     id="namedview12"
     pagecolor="#505050"
     bordercolor="#eeeeee"
     borderopacity="1"
     inkscape:showpageshadow="0"
     inkscape:pageopacity="0"
     inkscape:pagecheckerboard="0"
     inkscape:deskcolor="#505050"
     showgrid="false"
     inkscape:zoom="15.921875"
     inkscape:cx="29.895976"
     inkscape:cy="32.031403"
     inkscape:window-width="2560"
     inkscape:window-height="1361"
     inkscape:window-x="0"
     inkscape:window-y="0"
     inkscape:window-maximized="1"
     inkscape:current-layer="svg10" />
  <g
     transform="translate(0 -280.07)"
     id="g8">
    <g
       transform="matrix(1.0385 0 0 1.0385 -.32619 -11.098)"
       stroke-width=".92729"
       id="g4">
      <circle
         cx="8.467"
         cy="288.53"
         r="6.879"
         fill="#b6057c"
         style="paint-order:stroke markers fill;fill:#c7639f"
         id="circle2" />
    </g>
    <path
       d="M7.592 284.303c-1.818.086-3.241 1.735-3.168 2.631.07.873 2.281 1.639 2.255 1.665-.452.382-.75.64-1.128.985-.908.83-1.535 1.445-1.217 2.309.367.996 1.17.955 2.112.77 2.432-.48 6.433-3.556 6.23-4.69-.165-.919-2.402-2.734-3.724-3.384a2.798 2.798 0 0 0-1.36-.286zm.376 1.575c.227-.021.492.036.787.18.645.311 1.313 1.139 0 1.61-.357.128-1.502-.308-1.467-.913.031-.558.3-.841.68-.877z"
       fill="#f8f8f2"
       fill-rule="evenodd"
       id="path6" />
  </g>
</svg>
