<?xml version="1.0" encoding="UTF-8" standalone="no"?>
<svg
   width="64"
   height="64"
   version="1.1"
   viewBox="0 0 16.933 16.933"
   id="svg22"
   sodipodi:docname="distributor-logo-centos.svg"
   inkscape:version="1.2.2 (b0a8486541, 2022-12-01)"
   xmlns:inkscape="http://www.inkscape.org/namespaces/inkscape"
   xmlns:sodipodi="http://sodipodi.sourceforge.net/DTD/sodipodi-0.dtd"
   xmlns="http://www.w3.org/2000/svg"
   xmlns:svg="http://www.w3.org/2000/svg">
  <defs
     id="defs26" />
  <sodipodi:namedview
     id="namedview24"
     pagecolor="#505050"
     bordercolor="#eeeeee"
     borderopacity="1"
     inkscape:showpageshadow="0"
     inkscape:pageopacity="0"
     inkscape:pagecheckerboard="0"
     inkscape:deskcolor="#505050"
     showgrid="false"
     inkscape:zoom="15.921875"
     inkscape:cx="29.895976"
     inkscape:cy="32.031403"
     inkscape:window-width="2560"
     inkscape:window-height="1361"
     inkscape:window-x="0"
     inkscape:window-y="0"
     inkscape:window-maximized="1"
     inkscape:current-layer="svg22" />
  <g
     transform="matrix(1.0385 0 0 1.0385 -.32619 -.32516)"
     stroke-width=".92729"
     id="g4">
    <path
       d="m8.467 1.587a6.879 6.879 0 1 1 0 13.758 6.879 6.879 0 0 1 0-13.758z"
       fill="#f8f8f2"
       id="path2" />
  </g>
  <path
     d="M8.466 4.343l-.94.941h.676v2.162l.264.265.265-.265V5.284h.676z"
     fill="#efa724"
     id="path6"
     style="fill:#ffb86c" />
  <path
     d="M11.641 7.518v.677H9.48l-.265.264.265.265h2.162V9.4l.941-.94"
     fill="#262577"
     id="path8"
     style="fill:#515d85" />
  <path
     d="M8.466 9.207l-.264.265v2.162h-.677l.941.941.941-.94h-.676V9.471"
     fill="#9ccd2a"
     id="path10"
     style="fill:#7afa99" />
  <path
     d="M5.291 7.518l-.94.941.94.941v-.676h2.162l.265-.265-.265-.264H5.291"
     fill="#932279"
     id="path12"
     style="fill:#c7639f" />
  <path
     d="M8.995 8.989v.374l1.529 1.529-.478.478h1.33v-1.331l-.477.478-1.53-1.528zm.749 0l1.155 1.154.478-.478v-.677H9.744zm-.749.748v1.633h.677l.478-.478-1.154-1.155z"
     fill="#efa724"
     id="path14"
     style="fill:#ffb86c" />
  <path
     d="M5.556 8.989v.676l.478.478L7.189 8.99H5.556zm2.007 0l-1.53 1.528-.477-.478v1.33h1.33l-.477-.477 1.528-1.53V8.99zm.374.748l-1.154 1.155.478.478h.676V9.737z"
     fill="#262577"
     id="path16"
     style="fill:#515d85" />
  <path
     d="M8.995 5.549v1.633l1.155-1.155-.478-.478h-.677zm1.051 0l.478.478-1.528 1.529v.374h.374l1.529-1.528.478.478V5.549zm.853 1.227L9.744 7.93h1.633v-.676l-.478-.479z"
     fill="#932279"
     id="path18"
     style="fill:#c7639f" />
  <path
     d="M5.556 5.549v1.33l.478-.477L7.563 7.93h.374v-.374L6.41 6.027l.478-.478zm1.705 0l-.479.478 1.155 1.155V5.549H7.26zM6.034 6.776l-.478.478v.676h1.633L6.034 6.776z"
     fill="#9ccd2a"
     id="path20"
     style="fill:#7afa99" />
</svg>
