<?xml version="1.0" encoding="UTF-8" standalone="no"?>
<svg
   width="64"
   height="64"
   version="1.1"
   viewBox="0 0 16.933 16.933"
   id="svg8"
   sodipodi:docname="distributor-logo-ubuntu-gnome.svg"
   inkscape:version="1.2.2 (b0a8486541, 2022-12-01)"
   xmlns:inkscape="http://www.inkscape.org/namespaces/inkscape"
   xmlns:sodipodi="http://sodipodi.sourceforge.net/DTD/sodipodi-0.dtd"
   xmlns="http://www.w3.org/2000/svg"
   xmlns:svg="http://www.w3.org/2000/svg">
  <defs
     id="defs12" />
  <sodipodi:namedview
     id="namedview10"
     pagecolor="#505050"
     bordercolor="#eeeeee"
     borderopacity="1"
     inkscape:showpageshadow="0"
     inkscape:pageopacity="0"
     inkscape:pagecheckerboard="0"
     inkscape:deskcolor="#505050"
     showgrid="false"
     inkscape:zoom="15.921875"
     inkscape:cx="29.895976"
     inkscape:cy="32.031403"
     inkscape:window-width="2560"
     inkscape:window-height="1361"
     inkscape:window-x="0"
     inkscape:window-y="0"
     inkscape:window-maximized="1"
     inkscape:current-layer="svg8" />
  <g
     transform="matrix(1.0385 0 0 1.0385 -.41232 -.32567)"
     stroke-width=".92729"
     id="g4">
    <path
       d="m8.467 1.588a6.879 6.879 0 1 1 0 13.757 6.879 6.879 0 0 1 0-13.757z"
       fill="#0087ed"
       id="path2"
       style="fill:#168daa" />
  </g>
  <path
     d="M7.648 4.154a12.69 12.69 0 0 0-.776.517c-.31.218-.639.502-.989.852-.304.304-.517.603-.639.897-.116.3-.157.594-.121.883.035.289.134.57.296.844a4.3 4.3 0 0 0 .654.821l2.221 2.22.708-.706-2.07-2.07c-.48-.48-.75-.902-.805-1.262-.056-.36.096-.72.456-1.08.076-.076.157-.152.243-.228l.244-.213a5.34 5.34 0 0 0 .213-.167.988.988 0 0 1 .16-.099l4.55 4.55.707-.707zM7.428 6.4l-.708.708 3.34 3.338a.985.985 0 0 1-.1.16 5.38 5.38 0 0 0-.167.213l-.213.243a5.362 5.362 0 0 1-.228.244c-.36.36-.72.512-1.08.456-.36-.056-.781-.324-1.263-.806L4.941 8.888l-.708.708 2.221 2.22a4.3 4.3 0 0 0 .822.654c.273.163.555.262.844.297.289.036.583-.005.882-.122.294-.121.593-.334.897-.638.35-.35.634-.68.852-.99.223-.314.396-.572.517-.775z"
     fill="#f8f8f2"
     id="path6" />
</svg>
