<?xml version="1.0" encoding="UTF-8" standalone="no"?>
<svg
   width="64"
   height="64"
   version="1.1"
   id="svg12"
   sodipodi:docname="distributor-logo-void.svg"
   inkscape:version="1.2.2 (b0a8486541, 2022-12-01)"
   xmlns:inkscape="http://www.inkscape.org/namespaces/inkscape"
   xmlns:sodipodi="http://sodipodi.sourceforge.net/DTD/sodipodi-0.dtd"
   xmlns="http://www.w3.org/2000/svg"
   xmlns:svg="http://www.w3.org/2000/svg">
  <defs
     id="defs16" />
  <sodipodi:namedview
     id="namedview14"
     pagecolor="#505050"
     bordercolor="#eeeeee"
     borderopacity="1"
     inkscape:showpageshadow="0"
     inkscape:pageopacity="0"
     inkscape:pagecheckerboard="0"
     inkscape:deskcolor="#505050"
     showgrid="false"
     inkscape:zoom="15.921875"
     inkscape:cx="29.895976"
     inkscape:cy="32.031403"
     inkscape:window-width="2560"
     inkscape:window-height="1361"
     inkscape:window-x="0"
     inkscape:window-y="0"
     inkscape:window-maximized="1"
     inkscape:current-layer="svg12" />
  <path
     d="m32 5a27 27 0 0 0-27 27 27 27 0 0 0 27 27 27 27 0 0 0 27-27 27 27 0 0 0-27-27z"
     fill="#f8f8f2"
     stroke-width=".96429"
     id="path2" />
  <g
     transform="matrix(.81818 0 0 .81818 5.8182 5.8182)"
     id="g10">
    <path
       d="m32 10a22 22 0 0 0-12.92 4.219l4.9414 4.9414a15.125 15.125 0 0 1 7.9788-2.2854 15.125 15.125 0 0 1 15.125 15.125 15.125 15.125 0 0 1-2.2935 7.9707l4.9441 4.9441a22 22 0 0 0 4.2244-12.915 22 22 0 0 0-22-22z"
       fill="#91cd91"
       id="path4"
       style="fill:#7afa99" />
    <path
       d="m14.224 19.085a22 22 0 0 0-4.2244 12.915 22 22 0 0 0 22 22 22 22 0 0 0 12.92-4.219l-4.9414-4.9414a15.125 15.125 0 0 1-7.9788 2.2854 15.125 15.125 0 0 1-15.125-15.125 15.125 15.125 0 0 1 2.2935-7.9707z"
       fill="#33855a"
       id="path6"
       style="fill:#44c367" />
    <circle
       cx="32"
       cy="32"
       r="8"
       fill="#91cd91"
       id="circle8"
       style="fill:#7afa99" />
  </g>
</svg>
