<?xml version="1.0" encoding="UTF-8" standalone="no"?>
<svg
   width="64"
   height="64"
   version="1.1"
   viewBox="0 0 16.933 16.933"
   id="svg10"
   sodipodi:docname="distributor-logo-fedora.svg"
   inkscape:version="1.2.2 (b0a8486541, 2022-12-01)"
   xmlns:inkscape="http://www.inkscape.org/namespaces/inkscape"
   xmlns:sodipodi="http://sodipodi.sourceforge.net/DTD/sodipodi-0.dtd"
   xmlns="http://www.w3.org/2000/svg"
   xmlns:svg="http://www.w3.org/2000/svg">
  <defs
     id="defs14" />
  <sodipodi:namedview
     id="namedview12"
     pagecolor="#505050"
     bordercolor="#eeeeee"
     borderopacity="1"
     inkscape:showpageshadow="0"
     inkscape:pageopacity="0"
     inkscape:pagecheckerboard="0"
     inkscape:deskcolor="#505050"
     showgrid="false"
     inkscape:zoom="15.921875"
     inkscape:cx="29.895976"
     inkscape:cy="32.031403"
     inkscape:window-width="2560"
     inkscape:window-height="1361"
     inkscape:window-x="0"
     inkscape:window-y="0"
     inkscape:window-maximized="1"
     inkscape:current-layer="svg10" />
  <g
     transform="translate(0 -280.07)"
     id="g8">
    <g
       transform="matrix(1.0385 0 0 1.0385 -.32619 -11.098)"
       stroke-width=".92729"
       id="g4">
      <circle
         cx="8.467"
         cy="288.53"
         r="6.879"
         fill="#225a84"
         style="paint-order:stroke markers fill;fill:#515d85"
         id="circle2" />
    </g>
    <path
       d="M8.731 284.035a4.234 4.234 0 0 0-4.233 4.231V291.845c0 .364.293.657.657.657H8.733a4.233 4.233 0 0 0-.002-8.467zm1.276.928c.17 0 .291.02.448.06.23.06.417.249.417.468 0 .264-.191.457-.479.457-.136 0-.186-.027-.386-.027-.591 0-1.07.48-1.071 1.07v.926c0 .084.067.152.15.152h.705a.472.472 0 1 1 0 .945h-.855v1.081a2.03 2.03 0 0 1-2.03 2.03c-.17 0-.291-.02-.448-.061-.23-.06-.418-.248-.418-.467 0-.265.192-.457.48-.457.136 0 .186.026.386.026.591 0 1.07-.479 1.071-1.07v-.93a.151.151 0 0 0-.151-.152h-.704a.472.472 0 1 1 .005-.945h.85v-1.076a2.03 2.03 0 0 1 2.03-2.03z"
       fill="#f8f8f2"
       id="path6" />
  </g>
</svg>
