<?xml version="1.0" encoding="UTF-8" standalone="no"?>
<svg
   width="64"
   height="64"
   version="1.1"
   id="svg10"
   sodipodi:docname="distributor-logo-zorin.svg"
   inkscape:version="1.2.2 (b0a8486541, 2022-12-01)"
   xmlns:inkscape="http://www.inkscape.org/namespaces/inkscape"
   xmlns:sodipodi="http://sodipodi.sourceforge.net/DTD/sodipodi-0.dtd"
   xmlns="http://www.w3.org/2000/svg"
   xmlns:svg="http://www.w3.org/2000/svg">
  <defs
     id="defs14" />
  <sodipodi:namedview
     id="namedview12"
     pagecolor="#505050"
     bordercolor="#eeeeee"
     borderopacity="1"
     inkscape:showpageshadow="0"
     inkscape:pageopacity="0"
     inkscape:pagecheckerboard="0"
     inkscape:deskcolor="#505050"
     showgrid="false"
     inkscape:zoom="15.921875"
     inkscape:cx="29.895976"
     inkscape:cy="32.031403"
     inkscape:window-width="2560"
     inkscape:window-height="1361"
     inkscape:window-x="0"
     inkscape:window-y="0"
     inkscape:window-maximized="1"
     inkscape:current-layer="svg10" />
  <circle
     cx="32"
     cy="32"
     r="27"
     fill="#17b5f9"
     stroke-linecap="square"
     stroke-width=".98182"
     style="paint-order:markers stroke fill;fill:#13b1d5"
     id="circle2" />
  <g
     transform="matrix(.64286 0 0 .64286 11.429 11.429)"
     fill="#f8f8f2"
     id="g8">
    <path
       d="m19.154 60c-1.7108 0-3.8095-1.2266-4.6638-2.7258l-12.85-22.548c-0.85427-1.4992-0.85427-3.9523 0-5.4515l12.85-22.548c0.85427-1.4992 2.953-2.7258 4.6638-2.7258h25.692c1.7108 0 3.8095 1.2266 4.6637 2.7258l12.85 22.548c0.85427 1.4992 0.85427 3.9523 0 5.4515l-12.85 22.548c-0.85415 1.4992-2.9529 2.7258-4.6637 2.7258z"
       opacity=".35"
       id="path4" />
    <path
       d="m10.348 14-4.5625 8h36.812l-37.211 19.297 4.9609 8.7031h43.305l4.5625-8h-36.812l37.211-19.297-4.9609-8.7031z"
       id="path6" />
  </g>
</svg>
