<?xml version="1.0" encoding="UTF-8" standalone="no"?>
<svg
   width="64"
   height="64"
   version="1.1"
   viewBox="0 0 16.933 16.933"
   id="svg8"
   sodipodi:docname="distributor-logo-korora.svg"
   inkscape:version="1.2.2 (b0a8486541, 2022-12-01)"
   xmlns:inkscape="http://www.inkscape.org/namespaces/inkscape"
   xmlns:sodipodi="http://sodipodi.sourceforge.net/DTD/sodipodi-0.dtd"
   xmlns="http://www.w3.org/2000/svg"
   xmlns:svg="http://www.w3.org/2000/svg">
  <defs
     id="defs12" />
  <sodipodi:namedview
     id="namedview10"
     pagecolor="#505050"
     bordercolor="#eeeeee"
     borderopacity="1"
     inkscape:showpageshadow="0"
     inkscape:pageopacity="0"
     inkscape:pagecheckerboard="0"
     inkscape:deskcolor="#505050"
     showgrid="false"
     inkscape:zoom="15.921875"
     inkscape:cx="29.895976"
     inkscape:cy="32.031403"
     inkscape:window-width="2560"
     inkscape:window-height="1361"
     inkscape:window-x="0"
     inkscape:window-y="0"
     inkscape:window-maximized="1"
     inkscape:current-layer="svg8" />
  <g
     transform="matrix(1.0385 0 0 1.0385 -.41232 -.32567)"
     stroke-width=".92729"
     id="g4">
    <path
       d="m8.467 1.588a6.879 6.879 0 1 1 0 13.757 6.879 6.879 0 0 1 0-13.757z"
       fill="#4380b4"
       id="path2"
       style="fill:#6272a4" />
  </g>
  <path
     d="M9.596 4.233a3.104 3.104 0 0 0-3.01 2.355 3.104 3.104 0 0 0-2.353 3.008V12.7h3.105a3.104 3.104 0 0 0 3.01-2.354A3.104 3.104 0 0 0 12.7 7.338V4.233zm0 .444h2.66v2.66a2.661 2.661 0 0 1-1.827 2.524 3.104 3.104 0 0 0 .013-.265A3.104 3.104 0 0 0 7.338 6.49a3.104 3.104 0 0 0-.268.013 2.661 2.661 0 0 1 2.526-1.827zM7.338 6.935a2.661 2.661 0 0 1 2.66 2.66 2.661 2.661 0 0 1-.03.374 2.661 2.661 0 0 1-.372.03 2.661 2.661 0 0 1-2.661-2.661 2.661 2.661 0 0 1 .03-.374 2.661 2.661 0 0 1 .373-.03zm-.834.137a3.104 3.104 0 0 0-.013.266 3.104 3.104 0 0 0 3.105 3.104 3.104 3.104 0 0 0 .267-.013 2.661 2.661 0 0 1-2.525 1.827h-2.66v-2.66a2.661 2.661 0 0 1 1.826-2.524z"
     fill="#f8f8f2"
     id="path6" />
</svg>
