<?xml version="1.0" encoding="UTF-8" standalone="no"?>
<svg
   width="64"
   height="64"
   version="1.1"
   viewBox="0 0 16.933 16.933"
   id="svg8"
   sodipodi:docname="distributor-logo-linux-mint.svg"
   inkscape:version="1.2.2 (b0a8486541, 2022-12-01)"
   xmlns:inkscape="http://www.inkscape.org/namespaces/inkscape"
   xmlns:sodipodi="http://sodipodi.sourceforge.net/DTD/sodipodi-0.dtd"
   xmlns="http://www.w3.org/2000/svg"
   xmlns:svg="http://www.w3.org/2000/svg">
  <defs
     id="defs12" />
  <sodipodi:namedview
     id="namedview10"
     pagecolor="#505050"
     bordercolor="#eeeeee"
     borderopacity="1"
     inkscape:showpageshadow="0"
     inkscape:pageopacity="0"
     inkscape:pagecheckerboard="0"
     inkscape:deskcolor="#505050"
     showgrid="false"
     inkscape:zoom="15.921875"
     inkscape:cx="25.687929"
     inkscape:cy="32.031403"
     inkscape:window-width="2560"
     inkscape:window-height="1361"
     inkscape:window-x="0"
     inkscape:window-y="0"
     inkscape:window-maximized="1"
     inkscape:current-layer="svg8" />
  <g
     transform="matrix(1.0385 0 0 1.0385 -.41232 -.32567)"
     stroke-width=".92729"
     id="g4"
     style="fill:#44c367">
    <path
       d="m8.467 1.588a6.879 6.879 0 1 1 0 13.757 6.879 6.879 0 0 1 0-13.757z"
       fill="#78b75b"
       id="path2"
       style="fill:#44c367" />
  </g>
  <path
     d="m 3.664141,4.161564 v 2.7519835 h 1.1332366 v 0.5524391 l 0.00108,2.1666485 c 0,1.7843619 1.5495504,3.1388009 3.3350502,3.1388009 H 13.268859 V 7.3241903 c 0,-1.7866344 -1.548424,-3.1388052 -3.33505,-3.1388052 l -1.4939699,-0.00343 z m 0.729401,0.7316689 4.0440309,0.01815 v 0.00343 H 9.933812 c 1.440646,0 2.609053,1.0787863 2.609053,2.4105376 v 3.9850545 c 0,0.442401 -0.399301,0.731664 -0.854183,0.731664 H 8.1346966 C 6.6951797,12.042058 5.5279123,10.963271 5.5279123,9.6315166 L 5.52451,6.8999373 A 0.72032551,0.72032551 0 0 0 4.8472899,6.1864159 H 4.393542 Z m 1.8320081,0.8099408 v 3.9589544 c 0,0.4197149 0.1531408,0.7883889 0.4526139,1.0855949 0.2552332,0.252969 0.5626478,0.416307 0.9074976,0.45375 h 0.976693 v -0.777052 l -0.8394344,-0.003 C 7.316815,10.421124 6.9674291,10.024093 6.9674291,9.5147603 V 5.7032038 Z M 9.0251782,6.354303 c -0.3380428,0 -0.6375173,0.1247806 -0.8791383,0.3686701 A 1.2330608,1.2330608 0 0 0 7.7796382,7.6123204 V 9.3433702 H 8.564623 V 7.6123204 c 0,-0.1315875 0.043112,-0.2348146 0.136125,-0.3289677 A 0.4253891,0.4253891 0 0 1 9.0251782,7.1449596 c 0.1315868,0 0.2302762,0.043115 0.32443,0.1383931 0.094145,0.094145 0.1361244,0.1973802 0.1361244,0.3289677 V 9.3433702 H 10.271849 V 7.6123204 c 0,-0.1315875 0.04316,-0.2348146 0.136125,-0.3289677 a 0.42425467,0.42425467 0 0 1 0.324432,-0.1383931 c 0.12932,0 0.229145,0.043115 0.323294,0.1383931 0.09418,0.094146 0.136126,0.1973802 0.136126,0.3289677 l 0.005,1.7219748 h 0.782732 l -0.002,-1.7219748 c 0,-0.3425803 -0.124775,-0.6465921 -0.366399,-0.8893473 A 1.2047024,1.2047024 0 0 0 10.732394,6.354303 c -0.331243,0 -0.620506,0.1225122 -0.854184,0.348252 A 1.1990301,1.1990301 0 0 0 9.0251782,6.354303 Z"
     fill="#f8f8f2"
     fill-rule="evenodd"
     overflow="visible"
     id="path6"
     style="fill:#515d85;stroke-width:1.13426" />
</svg>
