<?xml version="1.0" encoding="UTF-8" standalone="no"?>
<svg
   width="64"
   height="64"
   viewBox="0 0 16.933 16.933"
   version="1.1"
   id="svg1"
   sodipodi:docname="distributor-logo-blackarch.svg"
   inkscape:version="1.3.2 (091e20ef0f, 2023-11-25, custom)"
   xmlns:inkscape="http://www.inkscape.org/namespaces/inkscape"
   xmlns:sodipodi="http://sodipodi.sourceforge.net/DTD/sodipodi-0.dtd"
   xmlns="http://www.w3.org/2000/svg"
   xmlns:svg="http://www.w3.org/2000/svg">
  <defs
     id="defs1" />
  <sodipodi:namedview
     id="namedview1"
     pagecolor="#505050"
     bordercolor="#ffffff"
     borderopacity="1"
     inkscape:showpageshadow="0"
     inkscape:pageopacity="0"
     inkscape:pagecheckerboard="1"
     inkscape:deskcolor="#505050"
     inkscape:zoom="12.453125"
     inkscape:cx="32"
     inkscape:cy="32"
     inkscape:window-width="1920"
     inkscape:window-height="1013"
     inkscape:window-x="0"
     inkscape:window-y="0"
     inkscape:window-maximized="1"
     inkscape:current-layer="svg1" />
  <circle
     cx="8.466"
     cy="8.466"
     r="7.144"
     fill="#44475a"
     style="paint-order:stroke markers fill"
     id="circle1" />
  <path
     fill="#f8f8f2"
     fill-rule="evenodd"
     d="M8.466 3.77c-.377.924-.604 1.529-1.024 2.425.257.273.573.59 1.086.95-.552-.228-.928-.455-1.209-.692-.537 1.12-1.378 2.717-3.086 5.785 1.342-.775 2.383-1.252 3.352-1.435a2.457 2.457 0 0 1-.063-.574l.001-.043c.021-.86.469-1.521.999-1.476s.941.778.92 1.638a2.427 2.427 0 0 1-.054.462c.959.188 1.988.664 3.312 1.428-.261-.48-.494-.913-.717-1.326-.35-.272-.716-.625-1.461-1.008.512.133.88.287 1.165.459C9.425 6.151 9.242 5.591 8.466 3.77z"
     id="path1"
     style="fill:#c7484a" />
</svg>
