<?xml version="1.0" encoding="UTF-8" standalone="no"?>
<svg
   width="64"
   height="64"
   version="1.1"
   viewBox="0 0 16.933 16.933"
   id="svg10"
   sodipodi:docname="distributor-logo-mageia.svg"
   inkscape:version="1.2.2 (b0a8486541, 2022-12-01)"
   xmlns:inkscape="http://www.inkscape.org/namespaces/inkscape"
   xmlns:sodipodi="http://sodipodi.sourceforge.net/DTD/sodipodi-0.dtd"
   xmlns="http://www.w3.org/2000/svg"
   xmlns:svg="http://www.w3.org/2000/svg">
  <defs
     id="defs14" />
  <sodipodi:namedview
     id="namedview12"
     pagecolor="#505050"
     bordercolor="#eeeeee"
     borderopacity="1"
     inkscape:showpageshadow="0"
     inkscape:pageopacity="0"
     inkscape:pagecheckerboard="0"
     inkscape:deskcolor="#505050"
     showgrid="false"
     inkscape:zoom="15.921875"
     inkscape:cx="29.895976"
     inkscape:cy="32.031403"
     inkscape:window-width="2560"
     inkscape:window-height="1361"
     inkscape:window-x="0"
     inkscape:window-y="0"
     inkscape:window-maximized="1"
     inkscape:current-layer="svg10" />
  <g
     transform="matrix(1.0385 0 0 1.0385 -.41232 -.32567)"
     stroke-width=".92729"
     id="g4">
    <path
       d="m8.467 1.588a6.879 6.879 0 1 1 0 13.757 6.879 6.879 0 0 1 0-13.757z"
       fill="#405474"
       id="path2"
       style="fill:#515d85" />
  </g>
  <g
     fill="#f8f8f2"
     stroke-width=".75"
     id="g8">
    <path
       d="M6.767 7.392a.465.465 0 0 0-.296.105 3.233 3.233 0 0 0-1.18 2.507c0 1.778 1.426 3.224 3.176 3.224 1.75 0 3.175-1.446 3.175-3.224 0-.978-.43-1.892-1.18-2.507a.468.468 0 0 0-.591 0 2.187 2.187 0 0 1-1.404.506c-.515 0-1-.174-1.403-.506a.47.47 0 0 0-.297-.105zm.203 1.167c.43.282.956.436 1.497.436.541 0 1.069-.154 1.497-.436a2.116 2.116 0 1 1-2.994 0zM8.114 3.705a.353.353 0 1 0 .001.707.353.353 0 0 0 0-.707zm1.094.705a.353.353 0 1 0 0 .707.353.353 0 0 0 0-.707zm-.918.353a.53.53 0 0 0 0 1.058.53.53 0 0 0 0-1.058zM9.35 5.821a.53.53 0 0 0 0 1.059.53.53 0 0 0 0-1.059zm-1.764.353a.53.53 0 0 0 0 1.058.53.53 0 0 0 0-1.058z"
       id="path6"
       style="fill:#f8f8f2" />
  </g>
</svg>
