<?xml version="1.0" encoding="UTF-8" standalone="no"?>
<svg
   width="64"
   height="64"
   version="1.1"
   viewBox="0 0 64 64"
   id="svg566"
   sodipodi:docname="distributor-logo-qubes.svg"
   inkscape:version="1.2.2 (b0a8486541, 2022-12-01)"
   xmlns:inkscape="http://www.inkscape.org/namespaces/inkscape"
   xmlns:sodipodi="http://sodipodi.sourceforge.net/DTD/sodipodi-0.dtd"
   xmlns="http://www.w3.org/2000/svg"
   xmlns:svg="http://www.w3.org/2000/svg">
  <defs
     id="defs570" />
  <sodipodi:namedview
     id="namedview568"
     pagecolor="#505050"
     bordercolor="#eeeeee"
     borderopacity="1"
     inkscape:showpageshadow="0"
     inkscape:pageopacity="0"
     inkscape:pagecheckerboard="0"
     inkscape:deskcolor="#505050"
     showgrid="false"
     inkscape:zoom="15.921875"
     inkscape:cx="29.895976"
     inkscape:cy="32.031403"
     inkscape:window-width="2560"
     inkscape:window-height="1361"
     inkscape:window-x="0"
     inkscape:window-y="0"
     inkscape:window-maximized="1"
     inkscape:current-layer="svg566" />
  <g
     transform="matrix(1.1739 0 0 1.1739 3.8261 3.8261)"
     id="g564">
    <g
       fill="#ececec"
       id="g554">
      <path
         d="m24 1c12.703 0 23 10.297 23 23s-10.297 23-23 23-23-10.297-23-23 10.297-23 23-23z"
         fill="#ececec"
         id="path552"
         style="fill:#f8f8f2" />
    </g>
    <path
       d="m24 11-11 6.5c0.582 2.761 2.792 2.517 5 3l6-3.5 6 3.5c2.81 1.045 4.181-0.064 5-3z"
       fill="#7dadff"
       id="path556"
       style="fill:#8894b8" />
    <path
       d="m30 20.5v7l-6 3.5c-2.061 2-1.226 4 0 6l11-6.5v-13z"
       fill="#2764c9"
       id="path558"
       style="fill:#515d85" />
    <path
       d="m13 17.5v13l11 6.5v-6l-6-3.5v-7z"
       fill="#418bff"
       id="path560"
       style="fill:#6272a4" />
    <path
       d="m28 30 7 4v2l-2 1h-2l-7-4z"
       fill="#2764c9"
       id="path562"
       style="fill:#515d85" />
  </g>
</svg>
