<?xml version="1.0" encoding="UTF-8" standalone="no"?>
<svg
   width="64"
   height="64"
   version="1.1"
   id="svg20"
   sodipodi:docname="distributor-logo-ubuntu-studio.svg"
   inkscape:version="1.2.2 (b0a8486541, 2022-12-01)"
   xmlns:inkscape="http://www.inkscape.org/namespaces/inkscape"
   xmlns:sodipodi="http://sodipodi.sourceforge.net/DTD/sodipodi-0.dtd"
   xmlns="http://www.w3.org/2000/svg"
   xmlns:svg="http://www.w3.org/2000/svg">
  <defs
     id="defs24" />
  <sodipodi:namedview
     id="namedview22"
     pagecolor="#505050"
     bordercolor="#eeeeee"
     borderopacity="1"
     inkscape:showpageshadow="0"
     inkscape:pageopacity="0"
     inkscape:pagecheckerboard="0"
     inkscape:deskcolor="#505050"
     showgrid="false"
     inkscape:zoom="15.921875"
     inkscape:cx="29.895976"
     inkscape:cy="32.031403"
     inkscape:window-width="2560"
     inkscape:window-height="1361"
     inkscape:window-x="0"
     inkscape:window-y="0"
     inkscape:window-maximized="1"
     inkscape:current-layer="svg20" />
  <g
     transform="translate(4,4)"
     id="g18">
    <circle
       cx="28"
       cy="28"
       r="27"
       fill="#0094f0"
       stroke-width=".96429"
       id="circle2"
       style="fill:#168daa" />
    <g
       transform="matrix(.85714 0 0 .85714 .57143 .57143)"
       fill="none"
       stroke="#f8f8f2"
       stroke-linecap="round"
       stroke-width="4"
       id="g16">
      <circle
         cx="32"
         cy="32"
         r="6"
         id="circle4" />
      <path
         d="M 22.015,22.187 A 14,14 0 0 1 37.301,19.043 14,14 0 0 1 46,32 14,14 0 0 1 37.301,44.958 14,14 0 0 1 22.015,41.813"
         id="path6" />
      <path
         d="m10.852 38.065a22 22 0 0 1 0-12.128"
         id="path8" />
      <path
         d="m36.949 10.564a22 22 0 0 1 11.141 6.432"
         id="path10" />
      <path
         d="m48.09 47.004a22 22 0 0 1-11.141 6.432"
         id="path12" />
      <path
         d="m18.612 36.093a14 14 0 0 1-0.07-7.952"
         id="path14" />
    </g>
  </g>
</svg>
