<?xml version="1.0" encoding="UTF-8" standalone="no"?>
<svg
   width="64"
   height="64"
   version="1.1"
   viewBox="0 0 16.933 16.933"
   id="svg12"
   sodipodi:docname="distributor-logo-solus.svg"
   inkscape:version="1.2.2 (b0a8486541, 2022-12-01)"
   xmlns:inkscape="http://www.inkscape.org/namespaces/inkscape"
   xmlns:sodipodi="http://sodipodi.sourceforge.net/DTD/sodipodi-0.dtd"
   xmlns="http://www.w3.org/2000/svg"
   xmlns:svg="http://www.w3.org/2000/svg">
  <defs
     id="defs16" />
  <sodipodi:namedview
     id="namedview14"
     pagecolor="#505050"
     bordercolor="#eeeeee"
     borderopacity="1"
     inkscape:showpageshadow="0"
     inkscape:pageopacity="0"
     inkscape:pagecheckerboard="0"
     inkscape:deskcolor="#505050"
     showgrid="false"
     inkscape:zoom="15.921875"
     inkscape:cx="29.895976"
     inkscape:cy="32.031403"
     inkscape:window-width="2560"
     inkscape:window-height="1361"
     inkscape:window-x="0"
     inkscape:window-y="0"
     inkscape:window-maximized="1"
     inkscape:current-layer="svg12" />
  <g
     transform="matrix(1.2272 0 0 1.2266 20.757 -346.41)"
     stroke-width=".88136"
     id="g8">
    <circle
       cx="-10.015"
       cy="289.32"
       r="5.821"
       fill="#4c5263"
       id="circle2"
       style="fill:#44475a" />
    <path
       d="m-4.331 290.52c-0.85 1.145-2.418 1.757-4.286 2.029-1.95 0.283-4.21 0.199-6.226 0.027 0.096 0.144 0.202 0.284 0.311 0.419 1.942 0.154 3.964 0.755 5.854 0.48 1.577-0.23 3.119-1.232 4.096-2.096a5.61 5.61 0 0 0 0.25-0.86z"
       color="#282a36"
       fill="#f8f8f2"
       fill-rule="evenodd"
       font-weight="400"
       overflow="visible"
       solid-color="#282a36"
       style="isolation:auto;mix-blend-mode:normal;text-decoration-color:#282a36;text-decoration-line:none;text-decoration-style:solid;text-indent:0;text-transform:none;white-space:normal"
       id="path4" />
    <path
       d="m-8.561 292.94c-1.976 0.279-3.988 0.21-5.97 0.058 1.275 1.627 3.493 2.447 5.54 2.052 1.978-0.34 3.71-1.788 4.408-3.666-1.174 0.833-2.56 1.338-3.978 1.556z"
       fill="#6272a4"
       id="path6" />
  </g>
  <path
     d="m6.1077 2.9157c-0.66262 2.7052-2.5704 6.0315-3.7711 8.1541 2.0932 0.50355 4.4165 0.65046 6.2169 0.81463-0.031409-0.40831-0.33435-4.8511-0.40831-5.7072-0.74064-1.3425-1.3425-2.0365-2.0375-3.2614zm2.5471 3.4651c0.98275 2.0234 0.98275 4.0254 0.40831 5.5036 0.81058 0.0051 2.1328 0.09524 3.5664-0.61196-1.1783-2.691-3.9747-4.8916-3.9747-4.8916zm1.9372 1.2239c0.60892 0.40831 1.1905 0.78016 1.6302 1.2219 0.59575 0.59778 0.90072 1.4053 0.81564 2.2432 0.79841-0.40223 1.3273-1.0709 1.6312-1.6312-0.53192-0.48936-1.4539-0.97269-2.4469-1.3242-0.54712-0.19453-1.1246-0.37082-1.6312-0.50963z"
     fill="#f8f8f2"
     fill-rule="evenodd"
     stroke-width=".84894"
     id="path10" />
</svg>
