<?xml version="1.0" encoding="UTF-8" standalone="no"?>
<svg
   width="64"
   height="64"
   viewBox="0 0 16.933 16.933"
   version="1.1"
   id="svg6"
   sodipodi:docname="document-open-recent.svg"
   inkscape:version="1.3.2 (091e20ef0f, 2023-11-25, custom)"
   xmlns:inkscape="http://www.inkscape.org/namespaces/inkscape"
   xmlns:sodipodi="http://sodipodi.sourceforge.net/DTD/sodipodi-0.dtd"
   xmlns="http://www.w3.org/2000/svg"
   xmlns:svg="http://www.w3.org/2000/svg">
  <sodipodi:namedview
     id="namedview6"
     pagecolor="#505050"
     bordercolor="#ffffff"
     borderopacity="1"
     inkscape:showpageshadow="0"
     inkscape:pageopacity="0"
     inkscape:pagecheckerboard="1"
     inkscape:deskcolor="#505050"
     inkscape:zoom="12.453125"
     inkscape:cx="32"
     inkscape:cy="32"
     inkscape:window-width="1920"
     inkscape:window-height="1013"
     inkscape:window-x="0"
     inkscape:window-y="0"
     inkscape:window-maximized="1"
     inkscape:current-layer="svg6" />
  <defs
     id="defs2">
    <linearGradient
       id="a"
       x1="-197.72"
       x2="-197.72"
       y1="263.86"
       y2="273.76"
       gradientTransform="matrix(.18709 -.18709 .18709 .18709 1.12 -74.45)"
       gradientUnits="userSpaceOnUse">
      <stop
         offset="0"
         id="stop1" />
      <stop
         offset="1"
         stop-opacity="0"
         id="stop2" />
    </linearGradient>
  </defs>
  <path
     fill="#6272a4"
     d="m7.144 2.377-3.704.001c-.294 0-.395.268-.53.529v.003h-.264c-.586 0-1.058.472-1.058 1.059v7.408c0 .586.472 1.058 1.058 1.058h11.642c.586 0 1.058-.472 1.058-1.058V3.969c0-.587-.472-1.059-1.058-1.059h-4.46c-.013 0-.025-.003-.038-.003H7.674c-.155-.25-.235-.53-.53-.53z"
     style="paint-order:stroke fill markers"
     id="path2" />
  <path
     d="m7.144 2.377-3.704.001c-.294 0-.395.268-.53.529v.003h-.264c-.586 0-1.058.472-1.058 1.059v7.408c0 .586.472 1.058 1.058 1.058h11.642c.586 0 1.058-.472 1.058-1.058V3.969c0-.587-.472-1.059-1.058-1.059l-6.614-.003c-.155-.25-.235-.53-.53-.53z"
     opacity=".18"
     style="paint-order:stroke fill markers"
     id="path3" />
  <rect
     width="12.171"
     height="5.027"
     x="2.381"
     y="3.7"
     fill="#f8f8f2"
     paint-order="markers stroke fill"
     ry=".533"
     id="rect3" />
  <rect
     width="3.175"
     height=".529"
     x="3.704"
     y="2.64"
     opacity=".25"
     paint-order="stroke markers fill"
     ry=".265"
     id="rect4" />
  <path
     fill="#6272a4"
     d="m8.996 4.233-.794 1.059H1.587C1.001 5.292.53 5.764.53 6.35v7.408c0 .586.472 1.058 1.058 1.058h13.758c.587 0 1.059-.472 1.059-1.058V5.292c0-.587-.472-1.059-1.059-1.059z"
     style="paint-order:stroke fill markers"
     id="path4" />
  <path
     fill="url(#a)"
     d="m16.404 10.583-4.233 4.233h3.175c.586 0 1.058-.472 1.058-1.058z"
     opacity=".2"
     style="paint-order:stroke fill markers"
     id="path5" />
  <rect
     width="4.233"
     height=".529"
     x="10.318"
     y="4.762"
     opacity=".25"
     ry=".265"
     style="paint-order:stroke markers fill"
     id="rect5" />
  <path
     fill="#282a36"
     d="M32.002 28a10.001 10.001 0 0 0-10 10 10.001 10.001 0 0 0 10 10 10.001 10.001 0 0 0 9.996-10 10.001 10.001 0 0 0-9.996-10zm-.014 1a9 9 0 0 1 .014 0 9 9 0 0 1 8.996 8.996A9 9 0 0 1 32.002 47a9 9 0 0 1-9.004-9 9 9 0 0 1 8.99-9zM32 31.998c-.554 0-1 .447-1 1.002v3.272A2 2 0 0 0 30.002 38a2 2 0 0 0 2 2 2 2 0 0 0 1.014-.277l3.375 3.375c.195.195.51.195.705 0l.004-.004a.497.497 0 0 0 0-.705l-3.375-3.375A2 2 0 0 0 34.002 38 2 2 0 0 0 33 36.27V33a1 1 0 0 0-1-1.002z"
     opacity=".15"
     style="paint-order:stroke markers fill;opacity:0.45;fill:#1e1f29"
     transform="scale(.26458)"
     id="path6" />
</svg>
