<?xml version="1.0" encoding="UTF-8" standalone="no"?>
<svg
   width="64"
   height="64"
   version="1.1"
   id="svg24"
   sodipodi:docname="document-print-preview.svg"
   inkscape:version="1.2.2 (b0a8486541, 2022-12-01)"
   xmlns:inkscape="http://www.inkscape.org/namespaces/inkscape"
   xmlns:sodipodi="http://sodipodi.sourceforge.net/DTD/sodipodi-0.dtd"
   xmlns="http://www.w3.org/2000/svg"
   xmlns:svg="http://www.w3.org/2000/svg"
   xmlns:rdf="http://www.w3.org/1999/02/22-rdf-syntax-ns#"
   xmlns:cc="http://creativecommons.org/ns#"
   xmlns:dc="http://purl.org/dc/elements/1.1/">
  <defs
     id="defs28" />
  <sodipodi:namedview
     id="namedview26"
     pagecolor="#505050"
     bordercolor="#eeeeee"
     borderopacity="1"
     inkscape:showpageshadow="0"
     inkscape:pageopacity="0"
     inkscape:pagecheckerboard="0"
     inkscape:deskcolor="#505050"
     showgrid="false"
     inkscape:zoom="15.921875"
     inkscape:cx="29.895976"
     inkscape:cy="32.031403"
     inkscape:window-width="2560"
     inkscape:window-height="1361"
     inkscape:window-x="0"
     inkscape:window-y="0"
     inkscape:window-maximized="1"
     inkscape:current-layer="svg24" />
  <metadata
     id="metadata2">
    <rdf:RDF>
      <cc:Work
         rdf:about="">
        <dc:format>image/svg+xml</dc:format>
        <dc:type
           rdf:resource="http://purl.org/dc/dcmitype/StillImage" />
        <dc:title />
      </cc:Work>
    </rdf:RDF>
  </metadata>
  <circle
     cx="32"
     cy="32"
     r="27"
     fill="#f8f8f2"
     style="paint-order:stroke fill markers;fill:#cbcccc"
     id="circle4" />
  <path
     d="m32 9a23 23 0 0 0-15 5.5645v13.436c0 0.554 0.446 1 1 1h28c0.554 0 1-0.446 1-1v-13.434a23 23 0 0 0-15-5.5664z"
     fill="#2a2a2a"
     stroke-width=".88889"
     style="paint-order:stroke fill markers;fill:#44475a"
     id="path6" />
  <path
     d="m32 7c-3.9851 0.00231-7.4589 0.95725-11 2.7852v10.215h22v-10.197c-3.5402-1.8343-7.0128-2.7953-11-2.8027z"
     color="#282a36"
     fill="#f8f8f2"
     style="isolation:auto;mix-blend-mode:normal;paint-order:markers stroke fill;fill:#f8f8f2"
     id="path8" />
  <path
     d="m16 40-2.7286 3.5099c0.88838 1.4488 1.9416 2.7898 3.1387 3.9961h31.174c1.3409-1.3503 2.501-2.8688 3.4512-4.5176l-2.0353-2.9884z"
     fill="#282a36"
     style="isolation:auto;mix-blend-mode:normal;fill:#44475a"
     id="path10" />
  <path
     d="m17 41-2.8401 7.0121c4.5438 5.0735 11.029 7.9775 17.84 7.9883 6.9039-0.0077 13.47-2.9881 18.021-8.1797l-3.0209-6.8207z"
     color="#282a36"
     fill="#f8f8f2"
     style="isolation:auto;mix-blend-mode:normal;paint-order:markers stroke fill;fill:#f8f8f2"
     id="path12" />
  <path
     d="m11.271 20c-2.1261 3.643-3.2544 7.782-3.2715 12 0.00381 3.8682 0.94257 7.6783 2.7363 11.105l3.2637-4.1055h36l3.2578 4.1035c1.7955-3.4261 2.7363-7.2354 2.7422-11.104-0.0099-4.2158-1.1302-8.3547-3.248-12z"
     fill="#282a36"
     style="isolation:auto;mix-blend-mode:normal;fill:#282a36"
     id="path14" />
  <circle
     cx="32"
     cy="35"
     r="14"
     fill="#717380"
     paint-order="stroke markers fill"
     id="circle16" />
  <circle
     cx="32"
     cy="35"
     r="12"
     fill="#f8f8f2"
     paint-order="stroke markers fill"
     id="circle18" />
  <circle
     cx="32"
     cy="35"
     r="10"
     fill="#44475a"
     paint-order="stroke markers fill"
     id="circle20" />
  <circle
     cx="36.78"
     cy="31"
     r="2"
     fill="#f8f8f2"
     opacity=".5"
     paint-order="stroke markers fill"
     id="circle22" />
</svg>
