<?xml version="1.0" encoding="UTF-8" standalone="no"?>
<svg
   width="64"
   height="64"
   version="1.1"
   viewBox="0 0 64 64"
   id="svg14"
   sodipodi:docname="dolphin-emu.svg"
   inkscape:version="1.2.2 (b0a8486541, 2022-12-01)"
   xmlns:inkscape="http://www.inkscape.org/namespaces/inkscape"
   xmlns:sodipodi="http://sodipodi.sourceforge.net/DTD/sodipodi-0.dtd"
   xmlns="http://www.w3.org/2000/svg"
   xmlns:svg="http://www.w3.org/2000/svg">
  <defs
     id="defs18" />
  <sodipodi:namedview
     id="namedview16"
     pagecolor="#505050"
     bordercolor="#eeeeee"
     borderopacity="1"
     inkscape:showpageshadow="0"
     inkscape:pageopacity="0"
     inkscape:pagecheckerboard="0"
     inkscape:deskcolor="#505050"
     showgrid="false"
     inkscape:zoom="15.921875"
     inkscape:cx="29.895976"
     inkscape:cy="32.031403"
     inkscape:window-width="2560"
     inkscape:window-height="1361"
     inkscape:window-x="0"
     inkscape:window-y="0"
     inkscape:window-maximized="1"
     inkscape:current-layer="svg14" />
  <g
     transform="matrix(1.1739 0 0 1.1739 3.8261 3.8261)"
     id="g12">
    <path
       d="m24 1c12.703 0 23 10.297 23 23s-10.297 23-23 23-23-10.297-23-23 10.297-23 23-23z"
       fill="#01ade7"
       id="path2"
       style="fill:#13b1d5" />
    <g
       fill="#f8f8f2"
       id="g10">
      <g
         fill="#f8f8f2"
         id="g8">
        <g
           fill="#f8f8f2"
           id="g6">
          <path
             d="m20.383 14c0.078-4e-3 0.133 0.023 0.176 0.09 0.215 0.379-0.215 1.613 0.109 2.254 0.324 0.645 0.324 0.805 2.906 0.484 2.582-0.324 6.457 0.801 7.859 2.195 1.398 1.395 3.82 4.938 4.305 6.973 0.484 2.039 0.273 2.145-0.375 1.824-0.645-0.32-1.184-3.16-5.01-5.04-3.824-1.879-5.602-0.379-5.602-0.379s3.285-0.43 5.707 1.555c2.426 1.984 3.93 3.539 3.879 4.129-0.055 0.59-0.273 0.484-0.648 0-0.379-0.48-2.637-3.434-5.328-4.395-2.688-0.965-3.82-0.91-4.84-0.375-1.023 0.535-1.242 1.07 0.211 1.449 1.453 0.375 2.047 0.215 2.047 0.215s-1.238 1.121-3.01 1.121c-1.777 0-2.852-0.105-2.852-0.105s-4.414 4.559-5.547 5.473c-1.129 0.91-2.367 0.484-2.367-0.055 0-0.535 0.539-2.035 0.539-2.035s-1.125-2.523 0.164-5.367c1.293-2.84 4.844-5.789 4.844-5.789s0.375-1.609 1.18-2.68c0.656-0.871 1.316-1.527 1.652-1.543"
             fill="#f8f8f2"
             id="path4" />
        </g>
      </g>
    </g>
  </g>
</svg>
