<?xml version="1.0" encoding="UTF-8" standalone="no"?>
<svg
   width="64"
   height="64"
   version="1.1"
   viewBox="0 0 64 64"
   id="svg10"
   sodipodi:docname="dosbox.svg"
   inkscape:version="1.2.2 (b0a8486541, 2022-12-01)"
   xmlns:inkscape="http://www.inkscape.org/namespaces/inkscape"
   xmlns:sodipodi="http://sodipodi.sourceforge.net/DTD/sodipodi-0.dtd"
   xmlns="http://www.w3.org/2000/svg"
   xmlns:svg="http://www.w3.org/2000/svg">
  <defs
     id="defs14" />
  <sodipodi:namedview
     id="namedview12"
     pagecolor="#505050"
     bordercolor="#eeeeee"
     borderopacity="1"
     inkscape:showpageshadow="0"
     inkscape:pageopacity="0"
     inkscape:pagecheckerboard="0"
     inkscape:deskcolor="#505050"
     showgrid="false"
     inkscape:zoom="15.921875"
     inkscape:cx="29.895976"
     inkscape:cy="32.031403"
     inkscape:window-width="2560"
     inkscape:window-height="1361"
     inkscape:window-x="0"
     inkscape:window-y="0"
     inkscape:window-maximized="1"
     inkscape:current-layer="svg10" />
  <g
     transform="matrix(1.1739 0 0 1.1739 3.8261 3.8261)"
     id="g8">
    <g
       fill="#696859"
       id="g4">
      <path
         d="m24 1c12.703 0 23 10.297 23 23s-10.297 23-23 23-23-10.297-23-23 10.297-23 23-23z"
         fill="#696859"
         id="path2"
         style="fill:#717380" />
    </g>
    <path
       d="m15.09 12c0.766 0.035 1.531 0.387 2.063 0.938l6.844 6.844 6.938-6.844c0.801-0.691 1.34-0.906 2.063-0.938m-21 3v18c0-0.797 0.277-1.594 0.852-2.156l6.844-6.75-6.844-6.844c-0.629-0.57-0.91-1.41-0.852-2.25m24 0c0 0.859-0.102 1.652-0.75 2.25l-6.844 6.844 6.75 6.75c0.566 0.57 0.844 1.348 0.844 2.156m-12-4.688-6.844 6.844c-0.563 0.57-1.363 0.844-2.156 0.844h18c-0.797 0-1.594-0.277-2.148-0.844"
       fill="#dcb200"
       id="path6"
       style="fill:#ffb86c" />
  </g>
</svg>
