<?xml version="1.0" encoding="UTF-8" standalone="no"?>
<svg
   xml:space="preserve"
   width="64"
   height="64"
   version="1.1"
   id="svg6"
   sodipodi:docname="dota2.svg"
   inkscape:version="1.2.2 (b0a8486541, 2022-12-01)"
   xmlns:inkscape="http://www.inkscape.org/namespaces/inkscape"
   xmlns:sodipodi="http://sodipodi.sourceforge.net/DTD/sodipodi-0.dtd"
   xmlns="http://www.w3.org/2000/svg"
   xmlns:svg="http://www.w3.org/2000/svg"><defs
     id="defs10" /><sodipodi:namedview
     id="namedview8"
     pagecolor="#505050"
     bordercolor="#eeeeee"
     borderopacity="1"
     inkscape:showpageshadow="0"
     inkscape:pageopacity="0"
     inkscape:pagecheckerboard="0"
     inkscape:deskcolor="#505050"
     showgrid="false"
     inkscape:zoom="15.921875"
     inkscape:cx="29.895976"
     inkscape:cy="32.031403"
     inkscape:window-width="2560"
     inkscape:window-height="1361"
     inkscape:window-x="0"
     inkscape:window-y="0"
     inkscape:window-maximized="1"
     inkscape:current-layer="svg6" /><rect
     width="54"
     height="54"
     x="5"
     y="5"
     fill="#f8f8f2"
     ry="27"
     style="fill:#c7484a;fill-opacity:1;stroke:none"
     id="rect2" /><path
     d="M35.723 18.463c-1.47.063-.994-1.675-8.296-.17-1.508.31-3.219-.367-10.67-.281-.09 10.234 1.08 8.903.689 13.903-.114 1.455-.298 11.152-.362 14.78 5.743.159 11.418.194 12.964 1.189.62.399 3.331-.705 17.04-.866-.031-5.612.284-13.921-1.002-17.658-.203-.59.832-1.3.585-11.046-8.74-1.122-9.645.093-10.948.149zM22.799 23.09l20.45 13.82-1.726 5.066-3.537-.158-16.93-17.998zm17.533.64c.531.408-.063 4.408-.063 4.408l-4.699-3.791s4.15-1.09 4.762-.618zM22.954 36.314l5.09 4.77s-2.108.619-4.123 1.345c-.625-1.293-2.888-1.99-2.888-1.99z"
     style="fill:#f8f8f2;fill-opacity:1;stroke:none;stroke-width:0.639176;stroke-linecap:butt;stroke-linejoin:miter;stroke-dasharray:none;stroke-opacity:1"
     id="path4" /></svg>
