<?xml version="1.0" encoding="UTF-8" standalone="no"?>
<svg
   width="64"
   height="64"
   version="1.1"
   id="svg8"
   sodipodi:docname="draw-io.svg"
   inkscape:version="1.2.2 (b0a8486541, 2022-12-01)"
   xmlns:inkscape="http://www.inkscape.org/namespaces/inkscape"
   xmlns:sodipodi="http://sodipodi.sourceforge.net/DTD/sodipodi-0.dtd"
   xmlns="http://www.w3.org/2000/svg"
   xmlns:svg="http://www.w3.org/2000/svg">
  <defs
     id="defs12" />
  <sodipodi:namedview
     id="namedview10"
     pagecolor="#505050"
     bordercolor="#eeeeee"
     borderopacity="1"
     inkscape:showpageshadow="0"
     inkscape:pageopacity="0"
     inkscape:pagecheckerboard="0"
     inkscape:deskcolor="#505050"
     showgrid="false"
     inkscape:zoom="15.921875"
     inkscape:cx="29.895976"
     inkscape:cy="32.031403"
     inkscape:window-width="2560"
     inkscape:window-height="1361"
     inkscape:window-x="0"
     inkscape:window-y="0"
     inkscape:window-maximized="1"
     inkscape:current-layer="svg8" />
  <rect
     x="5"
     y="5"
     width="54"
     height="54"
     rx="27"
     ry="27"
     fill="#ff7008"
     stroke-width="3.6445"
     id="rect2"
     style="fill:#c7925b" />
  <path
     d="m28 25.59-10 17.32 2.5977 1.5 10-17.32-2.5977-1.5zm8 0-2.5977 1.5 10 17.32 2.5977-1.5-10-17.32z"
     fill="#f8f8f2"
     opacity=".5"
     id="path4" />
  <path
     d="m28 16c-1.662 0-3 1.338-3 3v6c0 1.662 1.338 3 3 3h8c1.662 0 3-1.338 3-3v-6c0-1.662-1.338-3-3-3h-8zm-11 20c-1.662 0-3 1.338-3 3v6c0 1.662 1.338 3 3 3h8c1.662 0 3-1.338 3-3v-6c0-1.662-1.338-3-3-3h-8zm22 0c-1.662 0-3 1.338-3 3v6c0 1.662 1.338 3 3 3h8c1.662 0 3-1.338 3-3v-6c0-1.662-1.338-3-3-3h-8z"
     fill="#ffd1ba"
     id="path6"
     style="fill:#fdc88e" />
</svg>
