<?xml version="1.0" encoding="UTF-8" standalone="no"?>
<svg
   width="64"
   height="64"
   version="1.1"
   id="svg6"
   sodipodi:docname="droidcam.svg"
   inkscape:version="1.2.2 (b0a8486541, 2022-12-01)"
   xmlns:inkscape="http://www.inkscape.org/namespaces/inkscape"
   xmlns:sodipodi="http://sodipodi.sourceforge.net/DTD/sodipodi-0.dtd"
   xmlns="http://www.w3.org/2000/svg"
   xmlns:svg="http://www.w3.org/2000/svg">
  <defs
     id="defs10" />
  <sodipodi:namedview
     id="namedview8"
     pagecolor="#505050"
     bordercolor="#eeeeee"
     borderopacity="1"
     inkscape:showpageshadow="0"
     inkscape:pageopacity="0"
     inkscape:pagecheckerboard="0"
     inkscape:deskcolor="#505050"
     showgrid="false"
     inkscape:zoom="15.921875"
     inkscape:cx="29.895976"
     inkscape:cy="32.031403"
     inkscape:window-width="2560"
     inkscape:window-height="1361"
     inkscape:window-x="0"
     inkscape:window-y="0"
     inkscape:window-maximized="1"
     inkscape:current-layer="svg6" />
  <rect
     width="54"
     height="54"
     x="5"
     y="5"
     fill="#75aa03"
     rx="27"
     ry="27"
     id="rect2"
     style="fill:#44c367" />
  <path
     fill="#f8f8f2"
     d="m24.008 14.332-.816.54 2.07 3.105c-2.803 1.777-4.793 4.788-5.535 8.023H44.27c-.741-3.235-2.729-6.245-5.532-8.023l2.07-3.106-.816-.539-2.105 3.152A12.599 12.599 0 0 0 32 16a12.58 12.58 0 0 0-5.894 1.477zM26.5 20a1.5 1.5 0 1 1 0 3 1.5 1.5 0 0 1 0-3zm11 0a1.5 1.5 0 1 1 0 3 1.5 1.5 0 0 1 0-3zm-21.53 8c-1.104.019-1.985 1.004-1.97 2.203v11.594c0 2.898 4 2.898 4 0V30.203c.016-1.225-.903-2.222-2.03-2.203zM20 28v19.25c0 1.524 1.191 2.75 2.668 2.75H27v-2h4v-2.047c-.523-.091-1.301-.245-1.699-.433a8 8 0 0 1-5.3-7.52 8 8 0 1 1 16 0 8 8 0 0 1-5.165 7.477c-.453.208-1.275.382-1.836.48V48h4v2h4.332C42.81 50 44 48.774 44 47.25V28zm27.97 0c-1.104.019-1.984 1.004-1.97 2.203v11.594c0 2.898 4 2.898 4 0V30.203c.016-1.225-.903-2.222-2.03-2.203zM32 34a4 4 0 1 0 0 8 4 4 0 0 0 0-8zm0 1.332A2.667 2.667 0 0 1 34.668 38 2.667 2.667 0 0 1 32 40.668a2.667 2.667 0 0 1-2.547-3.453A1.333 1.333 0 0 0 32 36.668c0-.524-.307-1-.785-1.215.254-.08.519-.12.785-.12z"
     id="path4" />
</svg>
