<?xml version="1.0" encoding="UTF-8" standalone="no"?>
<svg
   width="64"
   height="64"
   version="1.1"
   id="svg26"
   sodipodi:docname="dropbox.svg"
   inkscape:version="1.2.2 (b0a8486541, 2022-12-01)"
   xmlns:inkscape="http://www.inkscape.org/namespaces/inkscape"
   xmlns:sodipodi="http://sodipodi.sourceforge.net/DTD/sodipodi-0.dtd"
   xmlns="http://www.w3.org/2000/svg"
   xmlns:svg="http://www.w3.org/2000/svg">
  <defs
     id="defs30" />
  <sodipodi:namedview
     id="namedview28"
     pagecolor="#505050"
     bordercolor="#eeeeee"
     borderopacity="1"
     inkscape:showpageshadow="0"
     inkscape:pageopacity="0"
     inkscape:pagecheckerboard="0"
     inkscape:deskcolor="#505050"
     showgrid="false"
     inkscape:zoom="15.921875"
     inkscape:cx="29.895976"
     inkscape:cy="32.031403"
     inkscape:window-width="2560"
     inkscape:window-height="1361"
     inkscape:window-x="0"
     inkscape:window-y="0"
     inkscape:window-maximized="1"
     inkscape:current-layer="svg26" />
  <circle
     cx="32"
     cy="32"
     r="27"
     fill="#f8f8f2"
     stroke-width="3.7796"
     style="paint-order:stroke fill markers"
     id="circle2" />
  <g
     transform="matrix(.80769 0 0 .80769 6.1538 6.1538)"
     id="g24">
    <g
       fill="#7ed6fb"
       id="g10"
       style="fill:#8be9fd">
      <path
         d="m31.895 17.43 15.437 9.555-15.332 9.619-15.513-9.619z"
         id="path4"
         style="fill:#8be9fd" />
      <path
         d="m6 18.33 15.437-9.555 10.484 8.631-15.433 9.58z"
         id="path6"
         style="fill:#8be9fd" />
      <path
         d="m31.898 17.424 15.47 9.574 10.563-8.592-15.514-9.619z"
         id="path8"
         style="fill:#8be9fd" />
    </g>
    <path
       d="m31.895 17.43v16.398l-15.332 9.618-0.075-16.46z"
       fill="#62c8f7"
       id="path12"
       style="fill:#4cc3dc" />
    <path
       d="m31.895 17.43v16.398l15.331 9.618 0.076-16.46z"
       fill="#1f97cf"
       id="path14"
       style="fill:#13b1d5" />
    <path
       d="m47.302 26.985v18.608l-15.332 9.62-0.076-18.672z"
       fill="#62c8f7"
       id="path16"
       style="fill:#4cc3dc" />
    <path
       d="m32 36.553 15.437-9.555 10.563 8.592-15.513 9.619z"
       fill="#7ed6fb"
       id="path18"
       style="fill:#8be9fd" />
    <path
       d="m16.488 26.985v18.608l15.476 9.632-0.07-18.685z"
       fill="#1581ce"
       id="path20"
       style="fill:#168daa" />
    <path
       d="m6 35.64 15.437 9.556 10.563-8.592-15.513-9.619z"
       fill="#7ed6fb"
       id="path22"
       style="fill:#8be9fd" />
  </g>
</svg>
