<?xml version="1.0" encoding="UTF-8" standalone="no"?>
<svg
   width="64"
   height="64"
   viewBox="0 0 16.933 16.933"
   version="1.1"
   id="svg8"
   sodipodi:docname="duolingo.svg"
   inkscape:version="1.2.2 (b0a8486541, 2022-12-01)"
   xmlns:inkscape="http://www.inkscape.org/namespaces/inkscape"
   xmlns:sodipodi="http://sodipodi.sourceforge.net/DTD/sodipodi-0.dtd"
   xmlns="http://www.w3.org/2000/svg"
   xmlns:svg="http://www.w3.org/2000/svg">
  <defs
     id="defs12" />
  <sodipodi:namedview
     id="namedview10"
     pagecolor="#505050"
     bordercolor="#eeeeee"
     borderopacity="1"
     inkscape:showpageshadow="0"
     inkscape:pageopacity="0"
     inkscape:pagecheckerboard="0"
     inkscape:deskcolor="#505050"
     showgrid="false"
     inkscape:zoom="15.921875"
     inkscape:cx="29.895976"
     inkscape:cy="32.031403"
     inkscape:window-width="2560"
     inkscape:window-height="1361"
     inkscape:window-x="0"
     inkscape:window-y="0"
     inkscape:window-maximized="1"
     inkscape:current-layer="svg8" />
  <g
     transform="translate(0 -280.07)"
     id="g6">
    <circle
       cx="8.466"
       cy="288.53"
       r="7.144"
       fill="#98e357"
       style="paint-order:stroke markers fill;fill:#44c367"
       id="circle2" />
    <path
       fill="#f8f8f2"
       d="M5.093 288.9c-.32.047-.656.216-.96.324-.201.072-.441.116-.626.224a.372.372 0 0 0-.164.426c.065.207.283.393.442.53.51.439 1.177.694 1.85.694.19 0 .385-.027.57-.064.08-.016.199-.073.28-.06.104.017.224.18.305.246.194.157.404.279.626.39.85.42 1.937.393 2.769-.057 1.119-.606 1.685-1.727 1.655-2.973a2.57 2.57 0 0 0-.107-.626c-.026-.09-.106-.229-.097-.32.013-.125.214-.306.281-.417a2.95 2.95 0 0 0 .345-.877 2.756 2.756 0 0 0-.144-1.641c-.087-.21-.186-.469-.445-.492-.225-.02-.369.19-.503.339-.158.174-.325.34-.482.514-.127.14-.25.308-.406.418-.079-.248-.305-.49-.444-.71-.12-.19-.234-.406-.395-.564a1.073 1.073 0 0 0-1.442-.032c-.15.135-.254.32-.367.485-.258.375-.56.842-.969 1.067-.378.208-.847.287-1.266.371-.483.097-.92.21-1.12.718-.32.803.507 1.43.814 2.087m7.317.8c-.335.063-.362.46-.43.73-.03.123-.074.248-.05.376.04.208.24.361.453.328.352-.057.38-.434.45-.718.03-.12.08-.251.058-.375a.41.41 0 0 0-.48-.342m-4.09 2.657c-.322.061-.431.473-.205.7.163.162.49.153.705.193.101.019.204.046.306.024.308-.066.443-.473.208-.698-.166-.158-.467-.152-.68-.192-.11-.02-.223-.048-.335-.027z"
       id="path4" />
  </g>
</svg>
