<?xml version="1.0" encoding="UTF-8" standalone="no"?>
<svg
   width="64"
   height="64"
   version="1"
   id="svg4"
   sodipodi:docname="eclipse.svg"
   inkscape:version="1.3.2 (091e20ef0f, 2023-11-25, custom)"
   xmlns:inkscape="http://www.inkscape.org/namespaces/inkscape"
   xmlns:sodipodi="http://sodipodi.sourceforge.net/DTD/sodipodi-0.dtd"
   xmlns="http://www.w3.org/2000/svg"
   xmlns:svg="http://www.w3.org/2000/svg">
  <defs
     id="defs4" />
  <sodipodi:namedview
     id="namedview4"
     pagecolor="#505050"
     bordercolor="#ffffff"
     borderopacity="1"
     inkscape:showpageshadow="0"
     inkscape:pageopacity="0"
     inkscape:pagecheckerboard="1"
     inkscape:deskcolor="#505050"
     inkscape:zoom="12.453125"
     inkscape:cx="32"
     inkscape:cy="32"
     inkscape:window-width="1920"
     inkscape:window-height="1013"
     inkscape:window-x="0"
     inkscape:window-y="0"
     inkscape:window-maximized="1"
     inkscape:current-layer="g4" />
  <g
     transform="translate(-3)"
     id="g4">
    <rect
       width="52"
       height="52"
       x="-58"
       y="-58"
       fill="#f7941e"
       rx="26"
       ry="26"
       transform="matrix(0 -1 -1 0 0 0)"
       id="rect1"
       style="fill:#ce9147;fill-opacity:1" />
    <g
       stroke-width=".871"
       id="g3">
      <path
         fill="#4c3a91"
         d="M38 6a25.938 25.938 0 0 0-24.63 17.642h49.26A25.938 25.938 0 0 0 37.999 6zM12.42 27.358a26.183 26.183 0 0 0-.346 2.785h51.855a26.183 26.183 0 0 0-.346-2.786zM12.073 33.856c.066.945.183 1.873.346 2.786h51.163c.163-.913.28-1.841.346-2.786zM13.37 40.357A25.938 25.938 0 0 0 38.001 58a25.938 25.938 0 0 0 24.63-17.643z"
         id="path1"
         style="fill:#4f4f9c;fill-opacity:1" />
      <path
         fill="#6e5dae"
         d="M21.245 39.429A18.2 18.2 0 0 0 38 50.57a18.2 18.2 0 0 0 16.747-11.142z"
         id="path2"
         style="fill:#7b7bbd" />
      <path
         fill="#f8f8f2"
         d="M13.37 23.643a25.884 25.884 0 0 0-.952 3.714h51.163a25.884 25.884 0 0 0-.95-3.714zm-1.298 6.5A26.547 26.547 0 0 0 12 32c0 .625.03 1.243.072 1.857h51.855A26.71 26.71 0 0 0 64 32c0-.625-.03-1.243-.073-1.857zm.346 6.5a25.884 25.884 0 0 0 .951 3.714h49.26a25.884 25.884 0 0 0 .951-3.714z"
         id="path3" />
    </g>
  </g>
</svg>
