<?xml version="1.0" encoding="UTF-8" standalone="no"?>
<svg
   width="64"
   height="64"
   version="1"
   id="svg1176"
   sodipodi:docname="eclipse.svg"
   inkscape:version="1.2.2 (b0a8486541, 2022-12-01)"
   xmlns:inkscape="http://www.inkscape.org/namespaces/inkscape"
   xmlns:sodipodi="http://sodipodi.sourceforge.net/DTD/sodipodi-0.dtd"
   xmlns="http://www.w3.org/2000/svg"
   xmlns:svg="http://www.w3.org/2000/svg">
  <defs
     id="defs1180" />
  <sodipodi:namedview
     id="namedview1178"
     pagecolor="#505050"
     bordercolor="#eeeeee"
     borderopacity="1"
     inkscape:showpageshadow="0"
     inkscape:pageopacity="0"
     inkscape:pagecheckerboard="0"
     inkscape:deskcolor="#505050"
     showgrid="false"
     inkscape:zoom="15.921875"
     inkscape:cx="29.864573"
     inkscape:cy="32.031403"
     inkscape:window-width="2560"
     inkscape:window-height="1361"
     inkscape:window-x="0"
     inkscape:window-y="0"
     inkscape:window-maximized="1"
     inkscape:current-layer="svg1176" />
  <g
     transform="translate(-3)"
     id="g1174">
    <rect
       transform="matrix(0,-1,-1,0,0,0)"
       x="-58"
       y="-58"
       width="52"
       height="52"
       rx="26"
       ry="26"
       fill="#f7941e"
       stroke-width=".83871"
       id="rect1164"
       style="fill:#c7925b" />
    <g
       transform="matrix(.96296 0 0 .96296 1.3766 4.5714)"
       stroke-width=".87097"
       id="g1172">
      <path
         d="m38.032 1.4836a26.936 26.936 0 0 0-25.578 18.321h51.155a26.936 26.936 0 0 0-25.578-18.321zm-25.582 18.337m-0.98164 3.8417a27.19 27.19 0 0 0-0.35968 2.8929h53.85a27.19 27.19 0 0 0-0.35968-2.8929zm53.13 0m-53.489 2.9131m-0.07715 1.9083m53.925-1.9083m0.07522 1.9083m-53.925 1.9286c0.06847 0.98068 0.18996 1.945 0.35968 2.8929h53.131c0.16971-0.94789 0.29122-1.9122 0.35968-2.8929zm53.489 2.8929m-53.128 0m0.98743 3.8571a26.936 26.936 0 0 0 25.577 18.321 26.936 26.936 0 0 0 25.578-18.321z"
         fill="#4c3a91"
         id="path1166"
         style="fill:#515d85" />
      <path
         d="m20.633 36.198a18.9 18.9 0 0 0 17.399 11.571 18.9 18.9 0 0 0 17.391-11.571z"
         fill="#6e5dae"
         id="path1168"
         style="fill:#6272a4;opacity:1" />
      <path
         d="m12.454 19.805a26.88 26.88 0 0 0-0.98743 3.8571h53.131a26.88 26.88 0 0 0-0.98743-3.8571zm-1.3471 6.75a27.568 27.568 0 0 0-0.07522 1.9286c0 0.64896 0.03086 1.2912 0.07522 1.9286h53.85c0.04436-0.63739 0.07522-1.2796 0.07522-1.9286 0-0.64896-0.03086-1.2912-0.07522-1.9286zm0.35968 6.75a26.88 26.88 0 0 0 0.98743 3.8571h51.155a26.88 26.88 0 0 0 0.98743-3.8571z"
         fill="#f8f8f2"
         id="path1170" />
    </g>
  </g>
</svg>
