<?xml version="1.0" encoding="UTF-8" standalone="no"?>
<svg
   width="64"
   height="64"
   version="1.1"
   viewBox="0 0 16.933 16.933"
   id="svg6"
   sodipodi:docname="element-desktop.svg"
   inkscape:version="1.2.2 (b0a8486541, 2022-12-01)"
   xmlns:inkscape="http://www.inkscape.org/namespaces/inkscape"
   xmlns:sodipodi="http://sodipodi.sourceforge.net/DTD/sodipodi-0.dtd"
   xmlns="http://www.w3.org/2000/svg"
   xmlns:svg="http://www.w3.org/2000/svg">
  <defs
     id="defs10" />
  <sodipodi:namedview
     id="namedview8"
     pagecolor="#505050"
     bordercolor="#eeeeee"
     borderopacity="1"
     inkscape:showpageshadow="0"
     inkscape:pageopacity="0"
     inkscape:pagecheckerboard="0"
     inkscape:deskcolor="#505050"
     showgrid="false"
     inkscape:zoom="15.921875"
     inkscape:cx="29.895976"
     inkscape:cy="32.031403"
     inkscape:window-width="2560"
     inkscape:window-height="1361"
     inkscape:window-x="0"
     inkscape:window-y="0"
     inkscape:window-maximized="1"
     inkscape:current-layer="svg6" />
  <circle
     cx="8.4665"
     cy="8.46"
     r="7.1436"
     fill="#0dbc8a"
     style="paint-order:stroke markers fill;fill:#44c367"
     id="circle2" />
  <path
     d="m7.6199 3.1749c-0.35069 0-0.63475 0.28405-0.63475 0.63475s0.28406 0.63561 0.63475 0.63561c1.6366 0 2.9636 1.3262 2.9636 2.9627 0 0.3507 0.28405 0.63475 0.63475 0.63475s0.63475-0.28405 0.63475-0.63475c0-2.338-1.8951-4.2331-4.2331-4.2331zm-0.21187 1.9051c-2.338 4.5e-6 -4.2331 1.8951-4.2331 4.2331 0 0.3507 0.28405 0.63475 0.63475 0.63475 0.35069 0 0.63561-0.28405 0.63561-0.63475 0-1.6366 1.3262-2.9636 2.9627-2.9636 0.3507 0 0.63475-0.28405 0.63475-0.63475 0-0.35069-0.28405-0.63475-0.63475-0.63475zm5.7153 1.9051c-0.3507 0-0.63561 0.28406-0.63561 0.63475 0 1.6366-1.3261 2.9636-2.9627 2.9636-0.3507 0-0.63475 0.28405-0.63475 0.63475s0.28405 0.63475 0.63475 0.63475c2.3379 0 4.2331-1.8951 4.2331-4.2331 0-0.35069-0.28405-0.63475-0.63475-0.63475zm-7.4085 1.9051c-0.35069 0-0.63475 0.28405-0.63475 0.63475 0 2.3379 1.8951 4.2331 4.2331 4.2331 0.3507 0 0.63475-0.28405 0.63475-0.63475 0-0.3507-0.28405-0.63561-0.63475-0.63561-1.6366 0-2.9636-1.3261-2.9636-2.9627 0-0.3507-0.28405-0.63475-0.63475-0.63475z"
     fill="#f8f8f2"
     stroke-width=".26458"
     id="path4" />
</svg>
