<?xml version="1.0" encoding="UTF-8" standalone="no"?>
<svg
   width="64"
   height="64"
   version="1.1"
   viewBox="0 0 64 64"
   id="svg58"
   sodipodi:docname="equaliser.svg"
   inkscape:version="1.2.2 (b0a8486541, 2022-12-01)"
   xmlns:inkscape="http://www.inkscape.org/namespaces/inkscape"
   xmlns:sodipodi="http://sodipodi.sourceforge.net/DTD/sodipodi-0.dtd"
   xmlns="http://www.w3.org/2000/svg"
   xmlns:svg="http://www.w3.org/2000/svg">
  <defs
     id="defs62" />
  <sodipodi:namedview
     id="namedview60"
     pagecolor="#505050"
     bordercolor="#eeeeee"
     borderopacity="1"
     inkscape:showpageshadow="0"
     inkscape:pageopacity="0"
     inkscape:pagecheckerboard="0"
     inkscape:deskcolor="#505050"
     showgrid="false"
     inkscape:zoom="15.921875"
     inkscape:cx="29.895976"
     inkscape:cy="32.031403"
     inkscape:window-width="2560"
     inkscape:window-height="1361"
     inkscape:window-x="0"
     inkscape:window-y="0"
     inkscape:window-maximized="1"
     inkscape:current-layer="svg58" />
  <path
     d="m32 5c14.912 0 27 12.088 27 27s-12.088 27-27 27-27-12.088-27-27 12.088-27 27-27z"
     fill="#383838"
     stroke-width="1.1739"
     id="path2"
     style="fill:#44475a" />
  <g
     transform="translate(1.0027 -.99951)"
     id="g56">
    <path
       d="m21.034 43.009h5.9287c0.01798 0 0.02997 6e-3 0.02997 6e-3v2.9846s-0.01199 6e-3 -0.02997 6e-3h-5.9287c-0.01798 0-0.03447-6e-3 -0.03447-6e-3v-2.9846s0.01798-6e-3 0.03447-6e-3"
       fill="#e4c82f"
       id="path4"
       style="fill:#f1fa8c" />
    <path
       d="m21.034 38.99h5.9287c0.01798 0 0.02997 6e-3 0.02997 6e-3v2.9846s-0.01199 6e-3 -0.02997 6e-3h-5.9287c-0.01798 0-0.03447-6e-3 -0.03447-6e-3v-2.9846s0.01798-6e-3 0.03447-6e-3"
       fill="#e4c82f"
       fill-opacity=".902"
       id="path6"
       style="fill:#f1fa8c" />
    <path
       d="m21.034 34.97h5.9287c0.01798 0 0.02997 0 0.02997 6e-3v2.9441c0 6e-3 -0.01199 6e-3 -0.02997 6e-3h-5.9287c-0.01798 0-0.03447 0-0.03447-6e-3v-2.9441c0-6e-3 0.01798-6e-3 0.03447-6e-3"
       fill="#e4c82f"
       fill-opacity=".8"
       id="path8"
       style="fill:#f1fa8c" />
    <path
       d="m21.034 31.011h5.9287c0.01798 0 0.02997 6e-3 0.02997 6e-3v2.9261s-0.01199 6e-3 -0.02997 6e-3h-5.9287c-0.01798 0-0.03447-6e-3 -0.03447-6e-3v-2.9261s0.01798-6e-3 0.03447-6e-3"
       fill="#e4c82f"
       fill-opacity=".702"
       id="path10"
       style="fill:#f1fa8c" />
    <path
       d="m21.034 27.012h5.9287c0.01798 0 0.02997 0 0.02997 6e-3v2.9082s-0.01199 6e-3 -0.02997 6e-3h-5.9287c-0.01798 0-0.03447-6e-3 -0.03447-6e-3v-2.9081c4e-6 -6e-3 0.01799-6e-3 0.03447-6e-3"
       fill="#e4c82f"
       fill-opacity=".6"
       id="path12"
       style="fill:#f1fa8c" />
    <path
       d="m35.03 43.024h5.9347c0.01798 0 0.02997 0 0.02997 6e-3v2.9621s-0.01198 6e-3 -0.02997 6e-3h-5.9347c-0.01798 0-0.02997-6e-3 -0.02997-6e-3v-2.9621c0-6e-3 0.01198-6e-3 0.02997-6e-3"
       fill="#3e8ded"
       id="path14"
       style="fill:#168daa" />
    <path
       d="m35.03 39.044h5.9347c0.01798 0 0.02997 6e-3 0.02997 6e-3v2.9441c0 6e-3 -0.01198 6e-3 -0.02997 6e-3h-5.9347c-0.01798 0-0.02997 0-0.02997-6e-3v-2.9441s0.01198-6e-3 0.02997-6e-3"
       fill="#3e8ded"
       fill-opacity=".902"
       id="path16"
       style="fill:#168daa" />
    <path
       d="m35.03 35.015h5.9347c0.01798 0 0.02997 6e-3 0.02997 6e-3v2.9321s-0.01198 6e-3 -0.02997 6e-3h-5.9347c-0.01798 0-0.02997-6e-3 -0.02997-6e-3v-2.9321s0.01198-6e-3 0.02997-6e-3"
       fill="#3e8ded"
       fill-opacity=".8"
       id="path18"
       style="fill:#168daa" />
    <path
       d="m35.03 31.086h5.9347c0.01798 0 0.02997 0 0.02997 6e-3v2.9082s-0.01198 6e-3 -0.02997 6e-3h-5.9347c-0.01798 0-0.02997-6e-3 -0.02997-6e-3v-2.9082c0-6e-3 0.01198-6e-3 0.02997-6e-3"
       fill="#3e8ded"
       fill-opacity=".702"
       id="path20"
       style="fill:#168daa" />
    <path
       d="m35.03 27.102h5.9347c0.01798 0 0.02997 6e-3 0.02997 6e-3v2.8857c0 6e-3 -0.01198 6e-3 -0.02997 6e-3h-5.9347c-0.01798 0-0.02997 0-0.02997-6e-3v-2.8857s0.01198-6e-3 0.02997-6e-3"
       fill="#3e8ded"
       fill-opacity=".6"
       id="path22"
       style="fill:#168daa" />
    <path
       d="m35.03 23h5.9347c0.01798 0 0.02997 6e-3 0.02997 6e-3v2.9846c0 6e-3 -0.01198 6e-3 -0.02997 6e-3h-5.9347c-0.01798 0-0.02997 0-0.02997-6e-3v-2.9846s0.01198-6e-3 0.02997-6e-3"
       fill="#3e8ded"
       fill-opacity=".502"
       id="path24"
       style="fill:#168daa" />
    <path
       d="m42.03 43.009h5.9347c0.01798 0 0.02997 6e-3 0.02997 6e-3v2.9846s-0.01198 6e-3 -0.02997 6e-3h-5.9347c-0.01798 0-0.02997-6e-3 -0.02997-6e-3v-2.9846s0.01198-6e-3 0.02997-6e-3"
       fill="#db4ddb"
       id="path26"
       style="fill:#c7639f" />
    <path
       d="m42.03 39.014h5.9347c0.01798 0 0.02997 0 0.02997 6e-3v2.9666s-0.01198 6e-3 -0.02997 6e-3h-5.9347c-0.01798 0-0.02997-6e-3 -0.02997-6e-3v-2.9666c0-6e-3 0.01198-6e-3 0.02997-6e-3"
       fill="#db4ddb"
       fill-opacity=".902"
       id="path28"
       style="fill:#c7639f" />
    <path
       d="m42.03 34.97h5.9347c0.01798 0 0.02997 0 0.02997 6e-3v2.9441c0 6e-3 -0.01198 6e-3 -0.02997 6e-3h-5.9347c-0.01798 0-0.02997 0-0.02997-6e-3v-2.9441c0-6e-3 0.01198-6e-3 0.02997-6e-3"
       fill="#db4ddb"
       fill-opacity=".8"
       id="path30"
       style="fill:#c7639f" />
    <path
       d="m42.03 31.011h5.9347c0.01798 0 0.02997 6e-3 0.02997 6e-3v2.9261s-0.01198 6e-3 -0.02997 6e-3h-5.9347c-0.01798 0-0.02997-6e-3 -0.02997-6e-3v-2.9261s0.01198-6e-3 0.02997-6e-3"
       fill="#db4ddb"
       fill-opacity=".702"
       id="path32"
       style="fill:#c7639f" />
    <path
       d="m42.03 27.012h5.9347c0.01798 0 0.02997 0 0.02997 6e-3v2.9082s-0.01198 6e-3 -0.02997 6e-3h-5.9347c-0.01798 0-0.02997-6e-3 -0.02997-6e-3v-2.9081c-4e-6 -6e-3 0.01198-6e-3 0.02997-6e-3"
       fill="#db4ddb"
       fill-opacity=".6"
       id="path34"
       style="fill:#c7639f" />
    <path
       d="m28.034 43.009h5.9287c0.01798 0 0.02997 6e-3 0.02997 6e-3v2.9846s-0.01198 6e-3 -0.02997 6e-3h-5.9287c-0.01798 0-0.03446-6e-3 -0.03446-6e-3v-2.9846s0.01798-6e-3 0.03446-6e-3"
       fill="#7fcf5b"
       id="path36"
       style="fill:#44c367" />
    <path
       d="m28.034 39.014h5.9287c0.01798 0 0.02997 0 0.02997 6e-3v2.9666s-0.01198 6e-3 -0.02997 6e-3h-5.9287c-0.01798 0-0.03446-6e-3 -0.03446-6e-3v-2.9666c0-6e-3 0.01798-6e-3 0.03446-6e-3"
       fill="#7fcf5b"
       fill-opacity=".902"
       id="path38"
       style="fill:#44c367" />
    <path
       d="m28.034 34.97h5.9287c0.01798 0 0.02997 0 0.02997 6e-3v2.9441c0 6e-3 -0.01198 6e-3 -0.02997 6e-3h-5.9287c-0.01798 0-0.03446 0-0.03446-6e-3v-2.9441c0-6e-3 0.01798-6e-3 0.03446-6e-3"
       fill="#7fcf5b"
       fill-opacity=".8"
       id="path40"
       style="fill:#44c367" />
    <path
       d="m14.034 43.009h5.9287c0.01798 0 0.02996 6e-3 0.02996 6e-3v2.9846s-0.01198 6e-3 -0.02996 6e-3h-5.9287c-0.017981-1.2e-5 -0.03446-0.006007-0.03446-0.006007v-2.9846s0.01798-6e-3 0.03447-6e-3"
       fill="#c52f2f"
       id="path42"
       style="fill:#c7484a" />
    <path
       d="m14.034 39.044h5.9287c0.01798 0 0.02996 6e-3 0.02996 6e-3v2.9501h-0.02996-5.9287-0.03446v-2.9501s0.01798-6e-3 0.03446-6e-3"
       fill="#c52f2f"
       fill-opacity=".902"
       id="path44"
       style="fill:#c7484a" />
    <path
       d="m14.034 35h5.9287 0.02996v2.9321c0 6e-3 -0.01198 6e-3 -0.02996 6e-3h-5.9287c-0.01798 0-0.03446 0-0.03446-6e-3v-2.9321h0.03446"
       fill="#c52f2f"
       fill-opacity=".8"
       id="path46"
       style="fill:#c7484a" />
    <path
       d="m14.034 31.086h5.9287c0.01798 0 0.02996 0 0.02996 6e-3v2.9082s-0.01198 6e-3 -0.02996 6e-3h-5.9287c-0.01798 0-0.03446-6e-3 -0.03446-6e-3v-2.9082c0-6e-3 0.01798-6e-3 0.03446-6e-3"
       fill="#c52f2f"
       fill-opacity=".702"
       id="path48"
       style="fill:#c7484a" />
    <path
       d="m14.034 27.102h5.9287c0.01798 0 0.02996 6e-3 0.02996 6e-3v2.8917h-0.02996-5.9287-0.03446v-2.8917s0.01798-6e-3 0.03446-6e-3"
       fill="#c52f2f"
       fill-opacity=".6"
       id="path50"
       style="fill:#c7484a" />
    <path
       d="m14.034 23h5.9287c0.01798 0 0.02996 0 0.02996 6e-3v2.9786c0 6e-3 -0.01198 6e-3 -0.02996 6e-3h-5.9287c-0.01798 0-0.03446 0-0.03446-6e-3v-2.9786c0-6e-3 0.01798-6e-3 0.03446-6e-3"
       fill="#c52f2f"
       fill-opacity=".502"
       id="path52"
       style="fill:#c7484a" />
    <path
       d="m14.034 19.009h5.9287c0.01798 0 0.02996 6e-3 0.02996 6e-3v2.9846s-0.01198 6e-3 -0.02996 6e-3h-5.9287c-0.01798 0-0.03446-6e-3 -0.03446-6e-3v-2.9846s0.01798-6e-3 0.03446-6e-3"
       fill="#c52f2f"
       fill-opacity=".4"
       id="path54"
       style="fill:#c7484a" />
  </g>
</svg>
