<?xml version="1.0" encoding="UTF-8" standalone="no"?>
<svg
   width="64"
   height="64"
   version="1.1"
   id="svg14"
   sodipodi:docname="etcher.svg"
   inkscape:version="1.2.2 (b0a8486541, 2022-12-01)"
   xmlns:inkscape="http://www.inkscape.org/namespaces/inkscape"
   xmlns:sodipodi="http://sodipodi.sourceforge.net/DTD/sodipodi-0.dtd"
   xmlns="http://www.w3.org/2000/svg"
   xmlns:svg="http://www.w3.org/2000/svg">
  <defs
     id="defs18" />
  <sodipodi:namedview
     id="namedview16"
     pagecolor="#505050"
     bordercolor="#eeeeee"
     borderopacity="1"
     inkscape:showpageshadow="0"
     inkscape:pageopacity="0"
     inkscape:pagecheckerboard="0"
     inkscape:deskcolor="#505050"
     showgrid="false"
     inkscape:zoom="15.921875"
     inkscape:cx="24.243376"
     inkscape:cy="32.031403"
     inkscape:window-width="2560"
     inkscape:window-height="1361"
     inkscape:window-x="0"
     inkscape:window-y="0"
     inkscape:window-maximized="1"
     inkscape:current-layer="svg14" />
  <circle
     cx="32"
     cy="32"
     r="27"
     fill="#c8f178"
     id="circle2"
     style="fill:#7afa99" />
  <path
     fill="#86bd1f"
     d="M31.561 9a2.573 2.573 0 0 0-1.369.355l-16.898 9.933c-.754.443-1.295 1.403-1.295 2.28v19.873c0 .877.55 1.84 1.295 2.278l16.9 9.935a2.633 2.633 0 0 0 2.61 0l16.9-9.935c.745-.438 1.295-1.4 1.295-2.278V21.567c0-.878-.55-1.84-1.295-2.278L32.806 9.355a1.887 1.93 0 0 0-.003 0 2.555 2.555 0 0 0-1.24-.354 1.887 1.93 0 0 0-.003 0z"
     id="path4"
     style="fill:#44c367" />
  <path
     fill="#c8f178"
     d="M54.193 16.637 31.5 29.852 9.541 17.065a27 27 0 0 0-1.418 2.469l21.961 12.789v26.54a27 27 0 0 0 1.916.138 27 27 0 0 0 .918-.067V32.325L55.691 19.06a27 27 0 0 0-1.498-2.422z"
     id="path6"
     style="fill:#7afa99" />
  <rect
     width="32"
     height="32"
     x="30"
     y="30"
     fill="#f8f8f2"
     rx="16"
     ry="16"
     id="rect8" />
  <path
     fill="#44475a"
     d="M57.2 46a11.2 11.2 0 0 1-22.4 0 11.2 11.2 0 1 1 22.4 0"
     id="path10" />
  <path
     fill="#f8f8f2"
     d="M46.112 42.267a3.732 3.732 0 0 0-3.842 3.732c0 4.978 7.466 4.978 7.466 0a3.733 3.733 0 0 0-3.624-3.732zm-.109 2.985a.747.747 0 1 1 0 1.494.747.747 0 0 1 0-1.494z"
     id="path12" />
</svg>
