<?xml version="1.0" encoding="UTF-8" standalone="no"?>
<svg
   width="64"
   height="64"
   version="1.1"
   viewBox="0 0 64 64"
   id="svg12"
   sodipodi:docname="exfalso.svg"
   inkscape:version="1.2.2 (b0a8486541, 2022-12-01)"
   xmlns:inkscape="http://www.inkscape.org/namespaces/inkscape"
   xmlns:sodipodi="http://sodipodi.sourceforge.net/DTD/sodipodi-0.dtd"
   xmlns="http://www.w3.org/2000/svg"
   xmlns:svg="http://www.w3.org/2000/svg">
  <defs
     id="defs16" />
  <sodipodi:namedview
     id="namedview14"
     pagecolor="#505050"
     bordercolor="#eeeeee"
     borderopacity="1"
     inkscape:showpageshadow="0"
     inkscape:pageopacity="0"
     inkscape:pagecheckerboard="0"
     inkscape:deskcolor="#505050"
     showgrid="false"
     inkscape:zoom="15.921875"
     inkscape:cx="29.895976"
     inkscape:cy="32.031403"
     inkscape:window-width="2560"
     inkscape:window-height="1361"
     inkscape:window-x="0"
     inkscape:window-y="0"
     inkscape:window-maximized="1"
     inkscape:current-layer="svg12" />
  <g
     transform="matrix(1.1739 0 0 1.1739 3.8261 3.8261)"
     id="g10">
    <path
       d="m24 1c12.703 0 23 10.297 23 23s-10.297 23-23 23-23-10.297-23-23 10.297-23 23-23z"
       fill="#1e3d4d"
       id="path2"
       style="fill:#44475a" />
    <g
       transform="translate(1,1)"
       id="g6">
      <g
         opacity=".1"
         id="g4" />
    </g>
    <path
       d="m11 11c3.191 3.359 1.805 5.512 3.543 9.473 1.625 3.68 5.164 0.926 7.59 3.523-2.426 2.602-5.977-0.164-7.602 3.512-1.75 3.961-0.355 6.125-3.543 9.488 3.363-3.191 5.527-1.797 9.488-3.543 3.68-1.629 0.926-5.168 3.523-7.59 2.578 2.422-0.16 5.977 3.512 7.602 3.961 1.754 6.109 0.34 9.473 3.535-3.191-3.363-1.781-5.516-3.535-9.477-1.625-3.668-5.168-0.941-7.59-3.52 2.422-2.582 5.965 0.148 7.59-3.523 1.754-3.961 0.34-6.113 3.535-9.477-3.363 3.195-5.512 1.785-9.473 3.539-3.672 1.621-0.934 5.176-3.512 7.598-2.602-2.422 0.152-5.961-3.523-7.59-3.961-1.75-6.125-0.352-9.488-3.543"
       fill="#f8f8f2"
       fill-rule="evenodd"
       id="path8" />
  </g>
</svg>
