<?xml version="1.0" encoding="UTF-8" standalone="no"?>
<svg
   width="64"
   height="64"
   version="1.1"
   viewBox="0 0 16.933 16.933"
   id="svg31295"
   sodipodi:docname="extensions.svg"
   inkscape:version="1.2.2 (b0a8486541, 2022-12-01)"
   xmlns:inkscape="http://www.inkscape.org/namespaces/inkscape"
   xmlns:sodipodi="http://sodipodi.sourceforge.net/DTD/sodipodi-0.dtd"
   xmlns="http://www.w3.org/2000/svg"
   xmlns:svg="http://www.w3.org/2000/svg">
  <defs
     id="defs31299" />
  <sodipodi:namedview
     id="namedview31297"
     pagecolor="#505050"
     bordercolor="#eeeeee"
     borderopacity="1"
     inkscape:showpageshadow="0"
     inkscape:pageopacity="0"
     inkscape:pagecheckerboard="0"
     inkscape:deskcolor="#505050"
     showgrid="false"
     inkscape:zoom="15.921875"
     inkscape:cx="29.895976"
     inkscape:cy="32.031403"
     inkscape:window-width="2560"
     inkscape:window-height="1361"
     inkscape:window-x="0"
     inkscape:window-y="0"
     inkscape:window-maximized="1"
     inkscape:current-layer="svg31295" />
  <g
     transform="translate(0 -280.07)"
     id="g31293">
    <circle
       cx="8.4665"
       cy="288.53"
       r="7.1436"
       fill="#a2ca4c"
       style="paint-order:stroke markers fill;fill:#44c367"
       id="circle31287" />
    <circle
       cx="8.467"
       cy="288.53"
       r="5.821"
       fill="#f8f8f2"
       opacity=".1"
       paint-order="stroke markers fill"
       id="circle31289"
       style="fill:#f8f8f2" />
    <path
       d="M5.556 286.417v1.852s1.323-.918 1.323.661c0 1.586-1.323.662-1.323.662v1.852h1.852s-.633-1.323.794-1.323c1.461 0 .794 1.323.794 1.323h1.852v-1.852s1.058.662 1.058-.662c0-1.058-.529-.926-1.058-.661v-1.852H8.996s.794-1.323-.794-1.323c-1.587 0-.794 1.323-.794 1.323m-1.852 0"
       fill="#f8f8f2"
       id="path31291"
       style="fill:#f8f8f2" />
  </g>
</svg>
