<?xml version="1.0" encoding="UTF-8" standalone="no"?>
<svg
   width="64"
   height="64"
   version="1"
   id="svg8"
   sodipodi:docname="factorio.svg"
   inkscape:version="1.2.2 (b0a8486541, 2022-12-01)"
   xmlns:inkscape="http://www.inkscape.org/namespaces/inkscape"
   xmlns:sodipodi="http://sodipodi.sourceforge.net/DTD/sodipodi-0.dtd"
   xmlns="http://www.w3.org/2000/svg"
   xmlns:svg="http://www.w3.org/2000/svg">
  <defs
     id="defs12" />
  <sodipodi:namedview
     id="namedview10"
     pagecolor="#505050"
     bordercolor="#eeeeee"
     borderopacity="1"
     inkscape:showpageshadow="0"
     inkscape:pageopacity="0"
     inkscape:pagecheckerboard="0"
     inkscape:deskcolor="#505050"
     showgrid="false"
     inkscape:zoom="15.921875"
     inkscape:cx="29.895976"
     inkscape:cy="32.031403"
     inkscape:window-width="2560"
     inkscape:window-height="1361"
     inkscape:window-x="0"
     inkscape:window-y="0"
     inkscape:window-maximized="1"
     inkscape:current-layer="svg8" />
  <circle
     cx="32"
     cy="32"
     r="27"
     fill="#f8f8f2"
     fill-rule="evenodd"
     style="paint-order:stroke fill markers"
     id="circle2" />
  <path
     fill="#be7c2e"
     d="M28.111 13.001a.977.977 0 0 0-.83.772l-.802 4.067a15.292 15.292 0 0 0-3.978 2.286l-3.948-1.336a.98.98 0 0 0-1.128.415l-3.8 6.59a.98.98 0 0 0 .208 1.188l3.146 2.76c-.11.741-.178 1.486-.178 2.257 0 .771.068 1.516.178 2.256l-3.146 2.761a.98.98 0 0 0-.208 1.188l3.8 6.59a.98.98 0 0 0 1.128.416l3.948-1.336a15.296 15.296 0 0 0 3.978 2.286l.802 4.066a.98.98 0 0 0 .92.772h7.6a.98.98 0 0 0 .92-.772l.8-4.066a15.292 15.292 0 0 0 3.979-2.286l3.948 1.336a.98.98 0 0 0 1.128-.416l3.8-6.59a.98.98 0 0 0-.208-1.188l-3.147-2.76c.111-.741.179-1.486.179-2.257 0-.771-.068-1.516-.179-2.256l3.147-2.76a.98.98 0 0 0 .208-1.188l-3.8-6.59a.98.98 0 0 0-1.128-.416L41.5 20.126a15.294 15.294 0 0 0-3.978-2.287l-.801-4.067A.98.98 0 0 0 35.8 13h-7.689z"
     id="path4"
     style="fill:#c7925b" />
  <path
     fill="#f8f8f2"
     d="M32 24a8 8 0 1 1 0 15.999 8 8 0 0 1 0-16z"
     id="path6" />
</svg>
