<?xml version="1.0" encoding="UTF-8" standalone="no"?>
<svg
   width="64"
   height="64"
   version="1.1"
   id="svg6"
   sodipodi:docname="feh.svg"
   inkscape:version="1.2.2 (b0a8486541, 2022-12-01)"
   xmlns:inkscape="http://www.inkscape.org/namespaces/inkscape"
   xmlns:sodipodi="http://sodipodi.sourceforge.net/DTD/sodipodi-0.dtd"
   xmlns="http://www.w3.org/2000/svg"
   xmlns:svg="http://www.w3.org/2000/svg">
  <defs
     id="defs10" />
  <sodipodi:namedview
     id="namedview8"
     pagecolor="#505050"
     bordercolor="#eeeeee"
     borderopacity="1"
     inkscape:showpageshadow="0"
     inkscape:pageopacity="0"
     inkscape:pagecheckerboard="0"
     inkscape:deskcolor="#505050"
     showgrid="false"
     inkscape:zoom="15.921875"
     inkscape:cx="29.895976"
     inkscape:cy="32.031403"
     inkscape:window-width="2560"
     inkscape:window-height="1361"
     inkscape:window-x="0"
     inkscape:window-y="0"
     inkscape:window-maximized="1"
     inkscape:current-layer="svg6" />
  <circle
     cx="32"
     cy="32"
     r="27"
     fill="#383737"
     id="circle2"
     style="fill:#44475a" />
  <path
     fill="#f8f8f2"
     d="M16.739 19.087v25.826h30.522V19.087zm2.348 2.348h25.826v14.087h-1.174v-1.174h-1.174v-1.174h-1.174V32h-1.174v-1.174H37.87V32h-1.02v1.174h-1.328v1.174h-1.173v1.174h-1.174v-1.174H32v-1.174h-1.174V32h-1.174v-1.174h-1.174v-1.174h-1.174v1.174H26.13V32h-1.174v1.174h-1.174v1.174H22.61v1.174h-1.174v1.174H20.26v1.174h-1.174zm14.087 1.174v1.174H32v1.173h-1.174v2.348H32v1.174h1.174v1.174h2.348v-1.174h1.174v-1.174h1.173v-2.348h-1.173v-1.173h-1.174v-1.174z"
     style="paint-order:normal"
     id="path4" />
</svg>
