<?xml version="1.0" encoding="UTF-8" standalone="no"?>
<svg
   width="64"
   height="64"
   version="1.1"
   viewBox="0 0 16.933 16.933"
   id="svg18"
   sodipodi:docname="figma.svg"
   inkscape:version="1.2.2 (b0a8486541, 2022-12-01)"
   xmlns:inkscape="http://www.inkscape.org/namespaces/inkscape"
   xmlns:sodipodi="http://sodipodi.sourceforge.net/DTD/sodipodi-0.dtd"
   xmlns="http://www.w3.org/2000/svg"
   xmlns:svg="http://www.w3.org/2000/svg">
  <defs
     id="defs22" />
  <sodipodi:namedview
     id="namedview20"
     pagecolor="#505050"
     bordercolor="#eeeeee"
     borderopacity="1"
     inkscape:showpageshadow="0"
     inkscape:pageopacity="0"
     inkscape:pagecheckerboard="0"
     inkscape:deskcolor="#505050"
     showgrid="false"
     inkscape:zoom="15.921875"
     inkscape:cx="29.895976"
     inkscape:cy="32.031403"
     inkscape:window-width="2560"
     inkscape:window-height="1361"
     inkscape:window-x="0"
     inkscape:window-y="0"
     inkscape:window-maximized="1"
     inkscape:current-layer="svg18" />
  <g
     transform="matrix(.9 0 0 .9 .84661 .84661)"
     id="g16">
    <circle
       cx="8.4665"
       cy="8.4665"
       r="7.9373"
       fill="#313642"
       stroke-width="1.07"
       style="paint-order:stroke markers fill;fill:#44475a"
       id="circle2" />
    <g
       transform="translate(16.159,-1.5739)"
       stroke-width=".29398"
       id="g14">
      <path
         d="m-9.6765 12.025a1.9843 1.9843 0 0 0-1.9843 1.9843 1.9843 1.9843 0 0 0 1.9843 1.9843 1.9843 1.9843 0 0 0 1.9843-1.9843v-1.9843z"
         fill="#09c37b"
         id="path4"
         style="fill:#44c367" />
      <path
         d="m-9.6765 8.0561h1.9843v3.9687h-1.9843c-1.0993 0-1.9843-0.88502-1.9843-1.9843 0-1.0993 0.88501-1.9843 1.9843-1.9843z"
         fill="#9154dd"
         id="path6"
         style="fill:#9576c5" />
      <circle
         cx="-5.7079"
         cy="10.04"
         r="1.9843"
         fill="#01b1f8"
         id="circle8"
         style="fill:#13b1d5" />
      <path
         d="m-9.6765 4.0874c-1.0993 0-1.9843 0.88501-1.9843 1.9843 0 1.0993 0.88501 1.9843 1.9843 1.9843h1.9843v-3.9687z"
         fill="#f24e1e"
         id="path10"
         style="fill:#c7484a" />
      <path
         d="m-7.6922 4.0874h1.9843c1.0993 0 1.9843 0.88501 1.9843 1.9843 0 1.0993-0.88501 1.9843-1.9843 1.9843h-1.9843z"
         fill="#ff7262"
         id="path12"
         style="fill:#fd7e7c" />
    </g>
  </g>
</svg>
