<svg width="48" height="48" viewBox="0 0 48 48" fill="none" xmlns="http://www.w3.org/2000/svg">
<path d="M24 42.7501C34.3554 42.7501 42.7501 34.3554 42.7501 24C42.7501 13.6446 34.3554 5.24986 24 5.24986C13.6446 5.24986 5.24986 13.6446 5.24986 24C5.24986 34.3554 13.6446 42.7501 24 42.7501Z" fill="#363949"/>
<path d="M14.5486 10.5001C12.3756 12.0186 10.6005 14.0383 9.37347 16.3882C8.14648 18.7382 7.50377 21.3492 7.49976 24.0002C7.49976 28.3763 9.23816 32.5731 12.3325 35.6675C13.8647 37.1997 15.6837 38.4151 17.6856 39.2443C19.6874 40.0735 21.833 40.5003 23.9999 40.5003C28.376 40.5003 32.5728 38.7619 35.6672 35.6675C38.7616 32.5731 40.5 28.3763 40.5 24.0002C40.4983 21.351 39.8587 18.7412 38.6354 16.3913C37.412 14.0415 35.6408 12.0208 33.4716 10.5001H14.5486Z" fill="#7E82A0"/>
<path opacity="0.15" d="M24 5.24986C19.9666 5.26472 16.0455 6.5798 12.8188 8.99989H35.2061C31.9726 6.57471 28.0419 5.25935 24 5.24986V5.24986Z" fill="url(#paint0_linear)"/>
<path d="M23.9986 11.9999C23.1705 12.0018 22.9176 12.7822 22.4986 13.5013L21.6255 14.9984L5.88583 14.9998C4.4891 17.7949 3.75812 20.8752 3.75008 23.9997C3.75008 29.3704 5.88355 34.521 9.68116 38.3186C11.5615 40.199 13.7939 41.6906 16.2507 42.7083C18.7076 43.7259 21.3408 44.2497 24.0001 44.2497C29.3707 44.2497 34.5213 42.1162 38.3189 38.3186C42.1166 34.521 44.25 29.3704 44.25 23.9997C44.2414 19.6789 42.8509 15.474 40.2817 11.9999H24.0015L23.9986 11.9999Z" fill="#363949"/>
<path d="M22.7145 13.6273L22.7146 13.6272C22.7867 13.5035 22.8559 13.3745 22.9212 13.2527C22.9526 13.1943 22.983 13.1376 23.0125 13.0838C23.1068 12.9118 23.1961 12.7607 23.2934 12.634C23.4809 12.39 23.6849 12.2506 23.9992 12.2499L23.9998 12.2499H24.0015H40.1552C42.645 15.6614 43.9916 19.7746 44 24.0002C43.9999 29.3044 41.8928 34.3913 38.1422 38.1419C34.3914 41.8926 29.3044 43.9997 24.0001 43.9997C21.3736 43.9997 18.7729 43.4824 16.3464 42.4773C13.9199 41.4722 11.7151 39.999 9.85793 38.1419C6.10729 34.3912 4.00016 29.3043 4.00008 24.0001C4.00793 20.9656 4.70616 17.9734 6.04104 15.2498L21.6255 15.2484L21.7691 15.2484L21.8415 15.1243L22.7145 13.6273Z" stroke="#292B34" stroke-opacity="0.55" stroke-width="0.5"/>
<path opacity="0.25" d="M36.7488 13.4989H27.0003C26.5854 13.4989 26.2491 13.8345 26.2491 14.2486C26.2491 14.6627 26.5854 14.9984 27.0003 14.9984H36.7488C37.1637 14.9984 37.5 14.6627 37.5 14.2486C37.5 13.8345 37.1637 13.4989 36.7488 13.4989Z" fill="black"/>
<path opacity="0.15" d="M44.2503 24.0002L24.0002 44.2503C29.3708 44.2503 34.5215 42.1168 38.3192 38.3192C42.1168 34.5215 44.2503 29.3708 44.2503 24.0002Z" fill="url(#paint1_linear)"/>
<defs>
<linearGradient id="paint0_linear" x1="24.0002" y1="9.75007" x2="24.0002" y2="6.75004" gradientUnits="userSpaceOnUse">
<stop/>
<stop offset="1" stop-opacity="0"/>
</linearGradient>
<linearGradient id="paint1_linear" x1="22.5002" y1="33.0002" x2="42.7503" y2="33.0002" gradientUnits="userSpaceOnUse">
<stop/>
<stop offset="1" stop-opacity="0"/>
</linearGradient>
</defs>
</svg>
