<?xml version="1.0" encoding="UTF-8" standalone="no"?>
<svg
   width="64"
   height="64"
   version="1.1"
   viewBox="0 0 64 64"
   id="svg20"
   sodipodi:docname="flatpak-software.svg"
   inkscape:version="1.2.2 (b0a8486541, 2022-12-01)"
   xmlns:inkscape="http://www.inkscape.org/namespaces/inkscape"
   xmlns:sodipodi="http://sodipodi.sourceforge.net/DTD/sodipodi-0.dtd"
   xmlns="http://www.w3.org/2000/svg"
   xmlns:svg="http://www.w3.org/2000/svg">
  <defs
     id="defs24" />
  <sodipodi:namedview
     id="namedview22"
     pagecolor="#505050"
     bordercolor="#eeeeee"
     borderopacity="1"
     inkscape:showpageshadow="0"
     inkscape:pageopacity="0"
     inkscape:pagecheckerboard="0"
     inkscape:deskcolor="#505050"
     showgrid="false"
     inkscape:zoom="15.921875"
     inkscape:cx="29.895976"
     inkscape:cy="32.031403"
     inkscape:window-width="2560"
     inkscape:window-height="1361"
     inkscape:window-x="0"
     inkscape:window-y="0"
     inkscape:window-maximized="1"
     inkscape:current-layer="svg20" />
  <circle
     cx="32"
     cy="32"
     r="27"
     fill="#f8f8f2"
     stroke-width="1.9662"
     id="circle2" />
  <g
     transform="matrix(.88889 0 0 .88889 3.5556 3.5555)"
     stroke-linecap="round"
     stroke-linejoin="round"
     id="g18">
    <path
       d="m14 41 9-4 9-7v-21l-18 14z"
       fill="#b8a98b"
       stroke-width="1.7481"
       id="path4"
       style="fill:#c7925b" />
    <path
       d="m14 23 18 14v18l-18-14z"
       fill="#dfcca8"
       stroke-width="1.7481"
       id="path6"
       style="fill:#ffb86c" />
    <path
       d="m50 41-9-4-9-7v-21l18 14z"
       fill="#ddc79b"
       stroke-width="1.7481"
       id="path8"
       style="fill:#ffb86c" />
    <path
       d="m50 23-18 14v18l18-14z"
       fill="#bbac8e"
       stroke-width="1.7481"
       id="path10"
       style="fill:#c7925b" />
    <path
       d="m32 9-18 14 18 14 18-14zm0 3 15 11-15 11-15-11z"
       fill="#ece1cd"
       stroke-width="1.7269"
       id="path12"
       style="fill:#fdc88e" />
    <path
       d="m14 39.713v1.2871l18 14v-1.2871z"
       opacity=".1"
       stroke-width="1.7481"
       id="path14" />
    <path
       d="m50 39.713-18 14v1.2871l18-14z"
       opacity=".1"
       stroke-width="1.7481"
       id="path16" />
  </g>
</svg>
