<?xml version="1.0" encoding="UTF-8" standalone="no"?>
<svg
   width="64"
   height="64"
   version="1.1"
   id="svg19"
   sodipodi:docname="flatseal.svg"
   inkscape:version="1.2.2 (b0a8486541, 2022-12-01)"
   xmlns:inkscape="http://www.inkscape.org/namespaces/inkscape"
   xmlns:sodipodi="http://sodipodi.sourceforge.net/DTD/sodipodi-0.dtd"
   xmlns="http://www.w3.org/2000/svg"
   xmlns:svg="http://www.w3.org/2000/svg">
  <sodipodi:namedview
     id="namedview21"
     pagecolor="#505050"
     bordercolor="#eeeeee"
     borderopacity="1"
     inkscape:showpageshadow="0"
     inkscape:pageopacity="0"
     inkscape:pagecheckerboard="0"
     inkscape:deskcolor="#505050"
     showgrid="false"
     inkscape:zoom="15.921875"
     inkscape:cx="29.895976"
     inkscape:cy="32.031403"
     inkscape:window-width="2560"
     inkscape:window-height="1361"
     inkscape:window-x="0"
     inkscape:window-y="0"
     inkscape:window-maximized="1"
     inkscape:current-layer="svg19" />
  <defs
     id="defs7">
    <linearGradient
       id="b"
       x1="399.57"
       x2="399.57"
       y1="545.8"
       y2="517.8"
       gradientTransform="matrix(2.1429 0 0 2.1429 -826.34 -1107.5)"
       gradientUnits="userSpaceOnUse">
      <stop
         stop-color="#3889e9"
         offset="0"
         id="stop2" />
      <stop
         stop-color="#5ea5fb"
         offset="1"
         id="stop4" />
    </linearGradient>
  </defs>
  <rect
     x="5"
     y="5"
     width="54"
     height="54"
     rx="27"
     ry="27"
     fill="#f8f8f2"
     stroke-width="3.6445"
     id="rect9" />
  <circle
     cx="32.017"
     cy="31.998"
     r="30"
     fill-opacity="0"
     stroke-width="1.5715"
     id="circle11" />
  <path
     d="M 32,23.5 A 8.5,8.5 0 0 0 23.5,32 8.5,8.5 0 0 0 32,40.5 8.5,8.5 0 0 0 40.5,32 8.5,8.5 0 0 0 32,23.5 Z m 0,2.8333 A 5.6667,5.6667 0 0 1 37.6667,32 5.6667,5.6667 0 0 1 32,37.6667 5.6667,5.6667 0 0 1 26.3333,32 5.6667,5.6667 0 0 1 32,26.3333 Z"
     fill="#d59a79"
     stroke-width="1.4167"
     style="paint-order:normal;fill:#c7925b"
     id="path15" />
  <path
     d="m32 15a17 17 0 0 0-17 17 17 17 0 0 0 17 17h17.143l2.8574-3h-10.359a17 17 0 0 0 7.3594-14 17 17 0 0 0-17-17zm0 9.916a7.0833 7.0833 0 0 1 7.084 7.084 7.0833 7.0833 0 0 1-7.084 7.084 7.0833 7.0833 0 0 1-7.084-7.084 7.0833 7.0833 0 0 1 7.084-7.084z"
     fill="#717380"
     stroke-width="1.4167"
     style="paint-order:normal"
     id="path17" />
</svg>
