<?xml version="1.0" encoding="UTF-8" standalone="no"?>
<svg
   width="64"
   height="64"
   version="1.1"
   viewBox="0 0 64 64"
   id="svg12"
   sodipodi:docname="fondo.svg"
   inkscape:version="1.2.2 (b0a8486541, 2022-12-01)"
   xmlns:inkscape="http://www.inkscape.org/namespaces/inkscape"
   xmlns:sodipodi="http://sodipodi.sourceforge.net/DTD/sodipodi-0.dtd"
   xmlns="http://www.w3.org/2000/svg"
   xmlns:svg="http://www.w3.org/2000/svg">
  <defs
     id="defs16" />
  <sodipodi:namedview
     id="namedview14"
     pagecolor="#505050"
     bordercolor="#eeeeee"
     borderopacity="1"
     inkscape:showpageshadow="0"
     inkscape:pageopacity="0"
     inkscape:pagecheckerboard="0"
     inkscape:deskcolor="#505050"
     showgrid="false"
     inkscape:zoom="15.921875"
     inkscape:cx="29.895976"
     inkscape:cy="32.031403"
     inkscape:window-width="2560"
     inkscape:window-height="1361"
     inkscape:window-x="0"
     inkscape:window-y="0"
     inkscape:window-maximized="1"
     inkscape:current-layer="svg12" />
  <path
     d="m31.665 5.0021a27 27 0 1 1 0 53.996 27 27 0 0 1 0-53.996z"
     fill="#232f3e"
     stroke-width="3.7796"
     id="path2"
     style="fill:#44475a" />
  <g
     transform="matrix(1.3333 0 0 1.3333 -103.15 -21.794)"
     id="g10">
    <path
       d="m95.365 28.346c-3.324 0-6 2.676-6 6v12c0 3.324 2.676 6 6 6h12c3.324 0 6-2.676 6-6v-12c0-3.324-2.676-6-6-6zm6 6a6 6 0 0 1 6 6 6 6 0 0 1-6 6 6 6 0 0 1-6-6 6 6 0 0 1 6-6z"
       fill="#e7e7e7"
       style="paint-order:normal;fill:#f8f8f2"
       id="path4" />
    <path
       d="m99.244 42.467c-0.54289-0.54289-0.87868-1.2929-0.87868-2.1213 0-1.6569 1.3431-3 3-3 0.82843 0 1.5784 0.33579 2.1213 0.87868-0.12132 1.1213-3.1213 4.1213-4.2426 4.2426z"
       fill="#6eb92e"
       style="paint-order:normal;fill:#44c367"
       id="path6" />
    <path
       d="m104.36 40.346c0 1.6569-1.3431 3-3 3-0.82843 0-1.5784-0.33579-2.1213-0.87868l4.2426-4.2426c0.54289 0.54289 0.87868 1.2929 0.87868 2.1213z"
       fill="#4592d6"
       style="paint-order:normal;fill:#168daa"
       id="path8" />
  </g>
</svg>
