<?xml version="1.0" encoding="UTF-8" standalone="no"?>
<svg
   width="64"
   height="64"
   version="1.1"
   viewBox="0 0 16.933 16.933"
   id="svg8"
   sodipodi:docname="foursquare.svg"
   inkscape:version="1.2.2 (b0a8486541, 2022-12-01)"
   xmlns:inkscape="http://www.inkscape.org/namespaces/inkscape"
   xmlns:sodipodi="http://sodipodi.sourceforge.net/DTD/sodipodi-0.dtd"
   xmlns="http://www.w3.org/2000/svg"
   xmlns:svg="http://www.w3.org/2000/svg">
  <defs
     id="defs12" />
  <sodipodi:namedview
     id="namedview10"
     pagecolor="#505050"
     bordercolor="#eeeeee"
     borderopacity="1"
     inkscape:showpageshadow="0"
     inkscape:pageopacity="0"
     inkscape:pagecheckerboard="0"
     inkscape:deskcolor="#505050"
     showgrid="false"
     inkscape:zoom="15.921875"
     inkscape:cx="29.83317"
     inkscape:cy="32.031403"
     inkscape:window-width="2560"
     inkscape:window-height="1361"
     inkscape:window-x="0"
     inkscape:window-y="0"
     inkscape:window-maximized="1"
     inkscape:current-layer="svg8" />
  <g
     transform="translate(0 -280.07)"
     id="g6">
    <circle
       cx="8.4665"
       cy="288.53"
       r="7.1436"
       fill="#fa4778"
       style="paint-order:stroke markers fill;fill:#c7639f"
       id="circle2" />
    <path
       d="M11.133 286.44c-.016.08-.158.239-.238.239H8.517a.341.341 0 0 0-.317.317v.159c0 .158.158.317.317.317h2.061c.159 0 .278.142.238.317a9.38 9.38 0 0 1-.238.793c-.079.198-.158.476-.475.476H8.517c-.238 0-.317.174-.476.396-.143.174-1.427 1.982-1.427 1.982v-5.47c0-.477.317-.873.872-.873h3.647c.159 0 .278.159.238.317zm-3.647-2.14c-1.269 0-1.665.317-1.665 1.665v7.216c0 .317.119.396.198.396.08 0 .182-.087.278-.238.063-.095 2.458-3.489 2.458-3.489H10.3c.793 0 .872-.475 1.03-1.03.08-.397.556-2.22.793-3.33.159-.794-.079-1.19-.872-1.19z"
       fill="#f8f8f2"
       id="path4" />
  </g>
</svg>
