<?xml version="1.0" encoding="UTF-8" standalone="no"?>
<svg
   width="64"
   height="64"
   version="1.1"
   viewBox="0 0 16.933 16.933"
   id="svg26"
   sodipodi:docname="four-in-a-row.svg"
   inkscape:version="1.2.2 (b0a8486541, 2022-12-01)"
   xmlns:inkscape="http://www.inkscape.org/namespaces/inkscape"
   xmlns:sodipodi="http://sodipodi.sourceforge.net/DTD/sodipodi-0.dtd"
   xmlns="http://www.w3.org/2000/svg"
   xmlns:svg="http://www.w3.org/2000/svg">
  <defs
     id="defs30" />
  <sodipodi:namedview
     id="namedview28"
     pagecolor="#505050"
     bordercolor="#eeeeee"
     borderopacity="1"
     inkscape:showpageshadow="0"
     inkscape:pageopacity="0"
     inkscape:pagecheckerboard="0"
     inkscape:deskcolor="#505050"
     showgrid="false"
     inkscape:zoom="15.921875"
     inkscape:cx="29.895976"
     inkscape:cy="32.031403"
     inkscape:window-width="2560"
     inkscape:window-height="1361"
     inkscape:window-x="0"
     inkscape:window-y="0"
     inkscape:window-maximized="1"
     inkscape:current-layer="svg26" />
  <g
     transform="translate(0 -280.07)"
     id="g24">
    <circle
       cx="8.4665"
       cy="288.53"
       r="7.1436"
       fill="#8144a3"
       style="paint-order:stroke markers fill;fill:#9576c5"
       id="circle2" />
    <circle
       cx="8.467"
       cy="288.53"
       r="5.821"
       opacity=".25"
       paint-order="stroke markers fill"
       id="circle4" />
    <path
       d="M6.562 291.073a.635.635 0 0 1-.635.635.635.635 0 0 1-.635-.635.635.635 0 0 1 .635-.635.635.635 0 0 1 .635.635z"
       fill="#f8f8f2"
       id="path6" />
    <path
       d="M8.255 291.073a.635.635 0 0 1-.635.635.635.635 0 0 1-.635-.635.635.635 0 0 1 .635-.635.635.635 0 0 1 .635.635z"
       fill="#f55"
       id="path8"
       style="fill:#ff5555" />
    <path
       d="M9.948 291.073a.635.635 0 0 1-.635.635.635.635 0 0 1-.635-.635.635.635 0 0 1 .635-.635.635.635 0 0 1 .635.635zM11.642 291.073a.635.635 0 0 1-.635.635.635.635 0 0 1-.635-.635.635.635 0 0 1 .635-.635.635.635 0 0 1 .635.635z"
       fill="#f8f8f2"
       id="path10" />
    <path
       d="M6.562 289.38a.635.635 0 0 1-.635.635.635.635 0 0 1-.635-.635.635.635 0 0 1 .635-.635.635.635 0 0 1 .635.635z"
       fill="#f55"
       id="path12" />
    <path
       d="M8.255 289.38a.635.635 0 0 1-.635.635.635.635 0 0 1-.635-.635.635.635 0 0 1 .635-.635.635.635 0 0 1 .635.635z"
       fill="#f8f8f2"
       id="path14" />
    <path
       d="M9.948 289.38a.635.635 0 0 1-.635.635.635.635 0 0 1-.635-.635.635.635 0 0 1 .635-.635.635.635 0 0 1 .635.635zM11.642 289.38a.635.635 0 0 1-.635.635.635.635 0 0 1-.635-.635.635.635 0 0 1 .635-.635.635.635 0 0 1 .635.635z"
       fill="#f55"
       id="path16" />
    <path
       d="M9.948 287.687a.635.635 0 0 1-.635.635.635.635 0 0 1-.635-.635.635.635 0 0 1 .635-.635.635.635 0 0 1 .635.635z"
       fill="#f8f8f2"
       id="path18" />
    <path
       d="M11.642 287.687a.635.635 0 0 1-.635.635.635.635 0 0 1-.635-.635.635.635 0 0 1 .635-.635.635.635 0 0 1 .635.635z"
       fill="#f55"
       id="path20" />
    <path
       d="M11.642 285.993a.635.635 0 0 1-.635.635.635.635 0 0 1-.635-.635.635.635 0 0 1 .635-.635.635.635 0 0 1 .635.635z"
       fill="#f8f8f2"
       id="path22" />
  </g>
</svg>
