<?xml version="1.0" encoding="UTF-8" standalone="no"?>
<svg
   width="64"
   height="64"
   version="1"
   id="svg8"
   sodipodi:docname="foxit-reader.svg"
   inkscape:version="1.2.2 (b0a8486541, 2022-12-01)"
   xmlns:inkscape="http://www.inkscape.org/namespaces/inkscape"
   xmlns:sodipodi="http://sodipodi.sourceforge.net/DTD/sodipodi-0.dtd"
   xmlns="http://www.w3.org/2000/svg"
   xmlns:svg="http://www.w3.org/2000/svg">
  <defs
     id="defs12" />
  <sodipodi:namedview
     id="namedview10"
     pagecolor="#505050"
     bordercolor="#eeeeee"
     borderopacity="1"
     inkscape:showpageshadow="0"
     inkscape:pageopacity="0"
     inkscape:pagecheckerboard="0"
     inkscape:deskcolor="#505050"
     showgrid="false"
     inkscape:zoom="15.921875"
     inkscape:cx="29.895976"
     inkscape:cy="32.031403"
     inkscape:window-width="2560"
     inkscape:window-height="1361"
     inkscape:window-x="0"
     inkscape:window-y="0"
     inkscape:window-maximized="1"
     inkscape:current-layer="svg8" />
  <rect
     x="5"
     y="5"
     width="54"
     height="54"
     rx="27"
     ry="27"
     fill="#f18d00"
     stroke-width=".96429"
     id="rect2"
     style="fill:#c7925b" />
  <rect
     x="9"
     y="9"
     width="46"
     height="46"
     rx="23"
     ry="23"
     fill="#f8f8f2"
     opacity=".15"
     stroke-width=".82143"
     id="rect4" />
  <path
     d="m50 26.542c-3.3736-14.262-16.332-14.143-24.155-10.419-8.2334 4.1612-14.196 14.826-10.944 23.757 5.026 13.473 23.527 13.271 29.788 0.74169 1.8578-4.5941 3.2224-7.8561-1.8884-12.222v5.4006l-1.8002-3.6004s-1.5978 3.7768-3.2951 5.4995c-2.3619 2.3961-5.7067 1.7012-5.7067 1.7012 0.63133 2.3865 5.4006 3.6004 5.4006 3.6004-12.381 5.8597-12.743-3.9336-12.601-6.3007 0.40631-6.8127 5.8836-12.1 13.1-11.721 2.3007 0.17642 6.7022 1.82 6.7022 1.82-1.6562-3.7896-4.0145-4.6913-5.4006-5.4006 5.4338-1.7967 8.3339 3.8757 10.801 7.1418z"
     fill="#f8f8f2"
     fill-rule="evenodd"
     stroke-width=".90012"
     id="path6" />
</svg>
