<?xml version="1.0" encoding="UTF-8" standalone="no"?>
<svg
   width="64"
   height="64"
   version="1"
   id="svg14"
   sodipodi:docname="fs-uae-launcher.svg"
   inkscape:version="1.2.2 (b0a8486541, 2022-12-01)"
   xmlns:inkscape="http://www.inkscape.org/namespaces/inkscape"
   xmlns:sodipodi="http://sodipodi.sourceforge.net/DTD/sodipodi-0.dtd"
   xmlns="http://www.w3.org/2000/svg"
   xmlns:svg="http://www.w3.org/2000/svg">
  <defs
     id="defs18" />
  <sodipodi:namedview
     id="namedview16"
     pagecolor="#505050"
     bordercolor="#eeeeee"
     borderopacity="1"
     inkscape:showpageshadow="0"
     inkscape:pageopacity="0"
     inkscape:pagecheckerboard="0"
     inkscape:deskcolor="#505050"
     showgrid="false"
     inkscape:zoom="15.921875"
     inkscape:cx="29.895976"
     inkscape:cy="32.031403"
     inkscape:window-width="2560"
     inkscape:window-height="1361"
     inkscape:window-x="0"
     inkscape:window-y="0"
     inkscape:window-maximized="1"
     inkscape:current-layer="svg14" />
  <rect
     x="5"
     y="5"
     width="54"
     height="54"
     rx="27"
     ry="27"
     fill="#762276"
     stroke-width=".96429"
     id="rect2"
     style="fill:#c7639f" />
  <g
     transform="translate(.20405 -.21814)"
     id="g12">
    <path
       d="m43.363 18.218-14.33 23.002-3.4473-5.3181h-4.9158l6.6293 10.316 3.5141-0.01819 17.433-27.982z"
       fill="#ff8118"
       stroke-width=".73684"
       id="path4"
       style="fill:#c7925b" />
    <path
       d="m37.173 18.218-14.33 23.002-3.4473-5.3181h-4.9158l6.6293 10.316 3.5141-0.01819 17.433-27.982z"
       fill="#abe619"
       stroke-width=".73684"
       id="path6"
       style="fill:#7afa99" />
    <path
       d="m48.006 37.081s-2.9318-0.7521-2.9318 1.8635c0 2.6155 2.9318 1.4374 2.9318 4.053 0 2.6155-2.9318 2.0631-2.9318 2.0631"
       fill="none"
       stroke="#ffffff"
       stroke-linecap="round"
       stroke-linejoin="round"
       stroke-width="2.2105"
       id="path8"
       style="stroke:#f8f8f2" />
    <path
       d="m41.375 40.692h-2.1791m2.9159-3.6842c-3.4938 0-2.9159 0.83188-2.9159 8.0529"
       fill="none"
       stroke="#ffffff"
       stroke-linecap="round"
       stroke-linejoin="round"
       stroke-width="2.2105"
       id="path10"
       style="stroke:#f8f8f2" />
  </g>
</svg>
