<?xml version="1.0" encoding="UTF-8" standalone="no"?>
<svg
   width="64"
   height="64"
   version="1.1"
   viewBox="0 0 64 64"
   id="svg14"
   sodipodi:docname="fuse-emulator.svg"
   inkscape:version="1.2.2 (b0a8486541, 2022-12-01)"
   xmlns:inkscape="http://www.inkscape.org/namespaces/inkscape"
   xmlns:sodipodi="http://sodipodi.sourceforge.net/DTD/sodipodi-0.dtd"
   xmlns="http://www.w3.org/2000/svg"
   xmlns:svg="http://www.w3.org/2000/svg">
  <defs
     id="defs18" />
  <sodipodi:namedview
     id="namedview16"
     pagecolor="#505050"
     bordercolor="#eeeeee"
     borderopacity="1"
     inkscape:showpageshadow="0"
     inkscape:pageopacity="0"
     inkscape:pagecheckerboard="0"
     inkscape:deskcolor="#505050"
     showgrid="false"
     inkscape:zoom="15.921875"
     inkscape:cx="29.895976"
     inkscape:cy="32.031403"
     inkscape:window-width="2560"
     inkscape:window-height="1361"
     inkscape:window-x="0"
     inkscape:window-y="0"
     inkscape:window-maximized="1"
     inkscape:current-layer="svg14" />
  <path
     d="m32 5c14.909 0 27 12.091 27 27s-12.091 27-27 27-27-12.091-27-27 12.091-27 27-27z"
     fill="#414141"
     stroke-width="1.1739"
     id="path2"
     style="fill:#44475a" />
  <g
     transform="matrix(1.076 0 0 1.076 -2.4517 -3.0643)"
     stroke-width="1.1739"
     id="g12">
    <path
       d="m24.839 21.435-8.1235 22.304 4.4022 1.7e-5 8.1235-22.304-4.4022-6e-6z"
       fill="#f47171"
       id="path4"
       style="fill:#fd7e7c" />
    <path
       d="m30.826 21.435-8.1235 22.304 4.4022 1.8e-5 8.1235-22.304z"
       fill="#f4dd6c"
       id="path6"
       style="fill:#f3faa6" />
    <path
       d="m36.813 21.435-8.1235 22.304 4.4022 1.7e-5 8.1235-22.304z"
       fill="#6add55"
       id="path8"
       style="fill:#7afa99" />
    <path
       d="m42.917 21.435-8.1235 22.304 4.4022 1.7e-5 8.1235-22.304z"
       fill="#6ad6ec"
       id="path10"
       style="fill:#8be9fd" />
  </g>
</svg>
