<?xml version="1.0" encoding="UTF-8" standalone="no"?>
<svg
   width="64"
   height="64"
   version="1.1"
   viewBox="0 0 16.933 16.933"
   id="svg20"
   sodipodi:docname="gcr-key-pair.svg"
   inkscape:version="1.2.2 (b0a8486541, 2022-12-01)"
   xmlns:inkscape="http://www.inkscape.org/namespaces/inkscape"
   xmlns:sodipodi="http://sodipodi.sourceforge.net/DTD/sodipodi-0.dtd"
   xmlns="http://www.w3.org/2000/svg"
   xmlns:svg="http://www.w3.org/2000/svg">
  <defs
     id="defs24" />
  <sodipodi:namedview
     id="namedview22"
     pagecolor="#505050"
     bordercolor="#eeeeee"
     borderopacity="1"
     inkscape:showpageshadow="0"
     inkscape:pageopacity="0"
     inkscape:pagecheckerboard="0"
     inkscape:deskcolor="#505050"
     showgrid="false"
     inkscape:zoom="15.921875"
     inkscape:cx="29.895976"
     inkscape:cy="32.031403"
     inkscape:window-width="2560"
     inkscape:window-height="1361"
     inkscape:window-x="0"
     inkscape:window-y="0"
     inkscape:window-maximized="1"
     inkscape:current-layer="svg20" />
  <g
     transform="translate(0 -280.07)"
     id="g18">
    <circle
       cx="8.4665"
       cy="288.53"
       r="7.1436"
       fill="#f39c12"
       style="paint-order:stroke markers fill;fill:#c7925b"
       id="circle2" />
    <circle
       cx="8.467"
       cy="288.53"
       r="5.821"
       fill="#f8f8f2"
       opacity=".15"
       paint-order="stroke markers fill"
       id="circle4" />
    <g
       opacity=".75"
       id="g8">
      <path
         d="M7.389 293.294l1.053-.615v-.55l-.47-.502.47-.416v-.157l-.474-.49.474-.507-.478-.514.478-.459v-1.017c-.247.11-.652.257-1.043.251-.001 0-.008 1.656-.01 4.976z"
         fill="#f8f8f2"
         fill-rule="evenodd"
         opacity=".6"
         stroke-width="1.112"
         id="path6" />
    </g>
    <path
       d="M7.412 283.77a2.281 2.281 0 0 0-2.283 2.284 2.29 2.29 0 0 0 1.235 2.037v4.588l1.026.617c.008-3.302.016-4.938.015-4.952h.007a2.287 2.287 0 0 0 0-4.573zm-.007.677c.374 0 .676.302.676.677a.675.675 0 0 1-.676.677.675.675 0 0 1-.677-.677c0-.375.302-.677.677-.677z"
       fill="#f8f8f2"
       fill-rule="evenodd"
       opacity=".75"
       id="path10" />
    <g
       fill="#f8f8f2"
       fill-rule="evenodd"
       stroke-width="1.112"
       id="g16">
      <path
         d="M9.521 283.77a2.281 2.281 0 0 0-2.282 2.284 2.29 2.29 0 0 0 1.234 2.037v4.588l1.026.617c.009-3.302.016-4.938.015-4.952h.007a2.287 2.287 0 0 0 0-4.573zm-.007.677c.375 0 .676.302.676.677a.675.675 0 0 1-.676.677.675.675 0 0 1-.677-.677c0-.375.302-.677.677-.677z"
         id="path12" />
      <path
         d="M9.498 293.294l1.053-.615v-.55l-.47-.502.47-.416v-.157l-.474-.49.474-.507-.477-.514.477-.459v-1.017c-.247.11-.651.257-1.043.251-.001 0-.007 1.656-.01 4.976z"
         opacity=".6"
         id="path14" />
    </g>
  </g>
</svg>
