<?xml version="1.0" encoding="UTF-8" standalone="no"?>
<svg
   width="64"
   height="64"
   version="1.1"
   viewBox="0 0 16.933 16.933"
   id="svg14"
   sodipodi:docname="gda-control-center.svg"
   inkscape:version="1.2.2 (b0a8486541, 2022-12-01)"
   xmlns:inkscape="http://www.inkscape.org/namespaces/inkscape"
   xmlns:sodipodi="http://sodipodi.sourceforge.net/DTD/sodipodi-0.dtd"
   xmlns="http://www.w3.org/2000/svg"
   xmlns:svg="http://www.w3.org/2000/svg">
  <defs
     id="defs18" />
  <sodipodi:namedview
     id="namedview16"
     pagecolor="#505050"
     bordercolor="#eeeeee"
     borderopacity="1"
     inkscape:showpageshadow="0"
     inkscape:pageopacity="0"
     inkscape:pagecheckerboard="0"
     inkscape:deskcolor="#505050"
     showgrid="false"
     inkscape:zoom="15.921875"
     inkscape:cx="29.895976"
     inkscape:cy="32.031403"
     inkscape:window-width="2560"
     inkscape:window-height="1361"
     inkscape:window-x="0"
     inkscape:window-y="0"
     inkscape:window-maximized="1"
     inkscape:current-layer="svg14" />
  <g
     transform="translate(0 -280.07)"
     id="g12">
    <rect
       transform="matrix(0,-1,-1,0,0,0)"
       x="-295.68"
       y="-15.61"
       width="14.287"
       height="14.287"
       rx="7.1436"
       ry="7.1436"
       fill="#268bcf"
       id="rect2"
       style="fill:#168daa" />
    <rect
       transform="matrix(0 -1 -1 0 0 0)"
       x="-294.35"
       y="-14.288"
       width="11.642"
       height="11.642"
       rx="5.821"
       ry="5.821"
       opacity=".15"
       id="rect4" />
    <path
       d="M8.512 285.036c-1.7 0-3.386.43-3.386.962v.77c0 .531 1.686 1.039 3.386 1.039 1.7 0 3.386-.508 3.386-1.04v-.769c0-.532-1.686-.962-3.386-.962"
       fill="#f8f8f2"
       opacity=".5"
       id="path6" />
    <path
       d="M8.82 288.422c-1.378 0-3.167-.282-3.559-.673a.405.405 0 0 0-.135.289v.77c0 .53 1.994.846 3.694.846s3.078-.315 3.078-.847v-.77c0-.1-.054-.197-.146-.288-.392.39-1.555.673-2.932.673M8.82 290.577c-1.378 0-3.167-.399-3.559-.789a.405.405 0 0 0-.135.29v.769c0 .531 1.994.962 3.694.962s3.078-.43 3.078-.962v-.77c0-.1-.054-.197-.146-.289-.392.39-1.555.79-2.932.79"
       fill="#f8f8f2"
       opacity=".5"
       id="path8" />
    <path
       d="M8.703 287.74a1.355 1.355 0 0 0-.461.088l.792.792a.526.526 0 1 1-.744.744l-.791-.791a1.319 1.319 0 0 0 .293 1.411c.381.38.941.478 1.412.294l2.058 2.059a.525.525 0 1 0 .744-.743l-2.058-2.057a1.319 1.319 0 0 0-.294-1.412 1.31 1.31 0 0 0-.95-.383m2.927 4.041a.178.178 0 1 1 0 .356.178.178 0 0 1 0-.356"
       fill="#f8f8f2"
       id="path10" />
  </g>
</svg>
