<?xml version="1.0" encoding="UTF-8" standalone="no"?>
<svg
   width="64"
   height="64"
   version="1.1"
   viewBox="0 0 64 64"
   id="svg8"
   sodipodi:docname="GDevelop.svg"
   inkscape:version="1.2.2 (b0a8486541, 2022-12-01)"
   xmlns:inkscape="http://www.inkscape.org/namespaces/inkscape"
   xmlns:sodipodi="http://sodipodi.sourceforge.net/DTD/sodipodi-0.dtd"
   xmlns="http://www.w3.org/2000/svg"
   xmlns:svg="http://www.w3.org/2000/svg">
  <defs
     id="defs12" />
  <sodipodi:namedview
     id="namedview10"
     pagecolor="#505050"
     bordercolor="#eeeeee"
     borderopacity="1"
     inkscape:showpageshadow="0"
     inkscape:pageopacity="0"
     inkscape:pagecheckerboard="0"
     inkscape:deskcolor="#505050"
     showgrid="false"
     inkscape:zoom="15.921875"
     inkscape:cx="29.895976"
     inkscape:cy="32.031403"
     inkscape:window-width="2560"
     inkscape:window-height="1361"
     inkscape:window-x="0"
     inkscape:window-y="0"
     inkscape:window-maximized="1"
     inkscape:current-layer="svg8" />
  <g
     transform="matrix(1.1739 0 0 1.1739 3.8261 3.8261)"
     stroke-width=".85185"
     id="g4">
    <path
       d="m24 1c12.703 0 23 10.297 23 23s-10.297 23-23 23-23-10.297-23-23 10.297-23 23-23z"
       fill="#644b7d"
       stroke-width=".85185"
       id="path2"
       style="fill:#9576c5" />
  </g>
  <path
     d="m34.347 19.087c-8.2174 0-10.565 3.8633-10.565 9.3913s2.3478 9.3913 10.565 9.3913c2.3478 0 4.3423-0.58696 4.3423-0.58696l2.7012-8.8043c0.55174-1.7973 0.837-2.3478-1.1739-2.3478h-7.6304c-0.97552 0-1.7609 0.78535-1.7609 1.7609 0 0.97552 0.78535 1.7609 1.7609 1.7609h3.7882l-1.2631 4.6358s-0.22656 0.05987-0.76304 0.05987c-5.2826 0-7.0435-1.9006-7.0435-5.8696s1.7609-5.8696 7.0435-5.8696h12.913l-1.1739-3.5217h-11.739zm-17.609 7.0435v3.5217c0 8.4287 5.8696 15.261 17.609 15.261 7.0435 0 10.565-2.3478 12.913-5.8696h-4.813c-1.7609 1.1739-3.4043 2.3478-8.1 2.3478-8.2174 0-14.087-5.2556-14.087-11.739v-3.5217z"
     fill="#78c2e0"
     id="path6"
     style="fill:#8be9fd" />
</svg>
