<?xml version="1.0" encoding="UTF-8" standalone="no"?>
<svg
   width="64"
   height="64"
   version="1.1"
   viewBox="0 0 16.933 16.933"
   id="svg8"
   sodipodi:docname="gksu-root-terminal.svg"
   inkscape:version="1.2.2 (b0a8486541, 2022-12-01)"
   xmlns:inkscape="http://www.inkscape.org/namespaces/inkscape"
   xmlns:sodipodi="http://sodipodi.sourceforge.net/DTD/sodipodi-0.dtd"
   xmlns="http://www.w3.org/2000/svg"
   xmlns:svg="http://www.w3.org/2000/svg">
  <defs
     id="defs12" />
  <sodipodi:namedview
     id="namedview10"
     pagecolor="#505050"
     bordercolor="#eeeeee"
     borderopacity="1"
     inkscape:showpageshadow="0"
     inkscape:pageopacity="0"
     inkscape:pagecheckerboard="0"
     inkscape:deskcolor="#505050"
     showgrid="false"
     inkscape:zoom="15.921875"
     inkscape:cx="29.895976"
     inkscape:cy="32.031403"
     inkscape:window-width="2560"
     inkscape:window-height="1361"
     inkscape:window-x="0"
     inkscape:window-y="0"
     inkscape:window-maximized="1"
     inkscape:current-layer="svg8" />
  <circle
     cx="8.4665"
     cy="8.4665"
     r="7.1436"
     fill="#e35c58"
     style="paint-order:stroke fill markers;fill:#c7484a"
     id="circle2" />
  <rect
     x="5.821"
     y="9.7895"
     width="4.233"
     height=".529"
     ry=".265"
     fill="#f8f8f2"
     style="paint-order:stroke markers fill"
     id="rect4" />
  <path
     d="m4.502 4.9915a0.264 0.264 0 0 0-0.262 0.13 0.264 0.264 0 0 0 0.097 0.362l2.842 1.64-2.842 1.641a0.264 0.264 0 0 0-0.097 0.361c0.074 0.127 0.235 0.17 0.362 0.097l3.208-1.852a0.26 0.26 0 0 0 0.127-0.224c2e-3 -8e-3 1e-3 -0.015 2e-3 -0.023 0-8e-3 0-0.014-2e-3 -0.022a0.26 0.26 0 0 0-0.127-0.225l-3.208-1.852a0.266 0.266 0 0 0-0.1-0.033z"
     fill="#f8f8f2"
     style="paint-order:stroke markers fill"
     id="path6" />
</svg>
