<?xml version="1.0" encoding="UTF-8" standalone="no"?>
<svg
   width="64"
   height="64"
   viewBox="0 0 16.933 16.933"
   version="1.1"
   id="svg14"
   sodipodi:docname="glowing-bear.svg"
   inkscape:version="1.2.2 (b0a8486541, 2022-12-01)"
   xmlns:inkscape="http://www.inkscape.org/namespaces/inkscape"
   xmlns:sodipodi="http://sodipodi.sourceforge.net/DTD/sodipodi-0.dtd"
   xmlns="http://www.w3.org/2000/svg"
   xmlns:svg="http://www.w3.org/2000/svg">
  <defs
     id="defs18" />
  <sodipodi:namedview
     id="namedview16"
     pagecolor="#505050"
     bordercolor="#eeeeee"
     borderopacity="1"
     inkscape:showpageshadow="0"
     inkscape:pageopacity="0"
     inkscape:pagecheckerboard="0"
     inkscape:deskcolor="#505050"
     showgrid="false"
     inkscape:zoom="15.921875"
     inkscape:cx="29.895976"
     inkscape:cy="32.031403"
     inkscape:window-width="2560"
     inkscape:window-height="1361"
     inkscape:window-x="0"
     inkscape:window-y="0"
     inkscape:window-maximized="1"
     inkscape:current-layer="svg14" />
  <circle
     cx="8.502"
     cy="8.466"
     r="7.144"
     fill="#d9cdbd"
     style="paint-order:stroke fill markers;fill:#f3faa6"
     id="circle2" />
  <path
     fill="#907b62"
     fill-rule="evenodd"
     stroke="#282a36"
     stroke-width=".191"
     d="M12.569 7.86a2.137 2.137 0 0 0-3.02-3.02 4.248 4.248 0 0 0-2.165.002 2.137 2.137 0 0 0-3.02 3.02 4.242 4.242 0 1 0 8.204 0z"
     id="path4"
     style="fill:#c7925b" />
  <path
     fill="#907b62"
     fill-rule="evenodd"
     stroke="#282a36"
     stroke-width=".191"
     d="M12.407 7.37a1.7 1.7 0 0 0-2.366-2.366 4.255 4.255 0 0 1 2.366 2.366zm-5.52-2.364a1.7 1.7 0 0 0-2.358 2.358 4.255 4.255 0 0 1 2.358-2.358z"
     id="path6"
     style="fill:#c7925b" />
  <path
     fill="#d9cdbd"
     fill-rule="evenodd"
     d="M8.456 12.569a1.7 1.7 0 1 0 0-3.402 1.7 1.7 0 0 0 0 3.402z"
     id="path8"
     style="fill:#fdc88e" />
  <path
     fill="#f8f8f2"
     fill-rule="evenodd"
     d="M6.38 8.752c.726.194 1.425-.062 1.562-.572.136-.51-.341-1.082-1.067-1.277-.726-.194-1.425.062-1.562.572s.34 1.082 1.067 1.277zm4.173 0c.726-.195 1.204-.766 1.067-1.277s-.836-.766-1.562-.572c-.726.195-1.204.766-1.067 1.277.137.51.836.766 1.562.572z"
     id="path10" />
  <path
     fill="#4a4a4a"
     fill-rule="evenodd"
     d="M8.477 11.251c-.425 0-1.276-.85-.85-1.276.425-.425 1.275-.425 1.7 0 .426.426-.425 1.276-.85 1.276z"
     id="path12"
     style="fill:#44475a" />
</svg>
