<?xml version="1.0" encoding="UTF-8" standalone="no"?>
<svg
   width="64"
   height="64"
   version="1.1"
   viewBox="0 0 16.933 16.933"
   id="svg10"
   sodipodi:docname="gmail.svg"
   inkscape:version="1.2.2 (b0a8486541, 2022-12-01)"
   xmlns:inkscape="http://www.inkscape.org/namespaces/inkscape"
   xmlns:sodipodi="http://sodipodi.sourceforge.net/DTD/sodipodi-0.dtd"
   xmlns="http://www.w3.org/2000/svg"
   xmlns:svg="http://www.w3.org/2000/svg">
  <defs
     id="defs14" />
  <sodipodi:namedview
     id="namedview12"
     pagecolor="#505050"
     bordercolor="#eeeeee"
     borderopacity="1"
     inkscape:showpageshadow="0"
     inkscape:pageopacity="0"
     inkscape:pagecheckerboard="0"
     inkscape:deskcolor="#505050"
     showgrid="false"
     inkscape:zoom="15.921875"
     inkscape:cx="29.895976"
     inkscape:cy="32.031403"
     inkscape:window-width="2560"
     inkscape:window-height="1361"
     inkscape:window-x="0"
     inkscape:window-y="0"
     inkscape:window-maximized="1"
     inkscape:current-layer="svg10" />
  <path
     transform="scale(.26458)"
     d="m32 5a27 27 0 0 0-25.787 19h51.545a27 27 0 0 0-25.758-19z"
     fill="#cc4d44"
     stroke-width="3.7796"
     style="paint-order:stroke fill markers;fill:#c7484a"
     id="path2" />
  <circle
     cx="8.4665"
     cy="8.4665"
     r="6.3499"
     fill="#f8f8f2"
     stroke-width=".88889"
     style="paint-order:stroke fill markers"
     id="circle4" />
  <path
     d="m14.866 5.3009-11.464 8.1993a7.1436 7.1436 0 0 0 5.0637 2.1099 7.1436 7.1436 0 0 0 7.1436-7.1436 7.1436 7.1436 0 0 0-0.74361-3.1656z"
     fill="#f4685c"
     style="paint-order:markers stroke fill;fill:#ff5555"
     id="path6" />
  <path
     d="m2.0706 5.304a7.1436 7.1436 0 0 0-0.74774 3.1625 7.1436 7.1436 0 0 0 7.1436 7.1436 7.1436 7.1436 0 0 0 5.0621-2.1109z"
     fill="#ff7a6e"
     style="paint-order:markers stroke fill;fill:#fd7e7c"
     id="path8" />
</svg>
