<?xml version="1.0" encoding="UTF-8" standalone="no"?>
<svg
   width="64"
   height="64"
   version="1.1"
   viewBox="0 0 16.933 16.933"
   id="svg46"
   sodipodi:docname="gnome-builder.svg"
   inkscape:version="1.2.2 (b0a8486541, 2022-12-01)"
   xmlns:inkscape="http://www.inkscape.org/namespaces/inkscape"
   xmlns:sodipodi="http://sodipodi.sourceforge.net/DTD/sodipodi-0.dtd"
   xmlns="http://www.w3.org/2000/svg"
   xmlns:svg="http://www.w3.org/2000/svg">
  <defs
     id="defs50" />
  <sodipodi:namedview
     id="namedview48"
     pagecolor="#505050"
     bordercolor="#eeeeee"
     borderopacity="1"
     inkscape:showpageshadow="0"
     inkscape:pageopacity="0"
     inkscape:pagecheckerboard="0"
     inkscape:deskcolor="#505050"
     showgrid="false"
     inkscape:zoom="15.921875"
     inkscape:cx="29.895976"
     inkscape:cy="32.031403"
     inkscape:window-width="2560"
     inkscape:window-height="1361"
     inkscape:window-x="0"
     inkscape:window-y="0"
     inkscape:window-maximized="1"
     inkscape:current-layer="svg46" />
  <circle
     cx="8.4665"
     cy="8.4665"
     r="7.1436"
     fill="#f8f8f2"
     style="paint-order:stroke fill markers"
     id="circle2" />
  <g
     transform="matrix(.67859 0 0 .67859 3.2507 2.3673)"
     id="g44">
    <path
       d="m8.5145 3.1397-5.59 5.591 1.58 1.581 5.592-5.59z"
       fill="none"
       font-weight="400"
       overflow="visible"
       stroke="#f5ce17"
       stroke-width="1.058"
       style="font-feature-settings:normal;font-variant-alternates:normal;font-variant-caps:normal;font-variant-ligatures:normal;font-variant-numeric:normal;font-variant-position:normal;isolation:auto;mix-blend-mode:normal;shape-padding:0;text-decoration-color:#282a36;text-decoration-line:none;text-decoration-style:solid;text-indent:0;text-orientation:mixed;text-transform:none;white-space:normal;stroke:#ffb86c"
       id="path4" />
    <path
       d="m1.058 14.287h6.615v1.059h-6.615z"
       fill="#424048"
       id="path6"
       style="fill:#44475a" />
    <path
       d="m2.712 7.9815v4.41c0 0.609-0.494 1.102-1.102 1.102h-0.552v1.0585h6.615v-1.0585h-0.551c-0.60901 5.53e-4 -1.103-0.49299-1.103-1.102v-4.41z"
       fill="#717380"
       font-weight="400"
       overflow="visible"
       style="font-feature-settings:normal;font-variant-alternates:normal;font-variant-caps:normal;font-variant-ligatures:normal;font-variant-numeric:normal;font-variant-position:normal;isolation:auto;mix-blend-mode:normal;shape-padding:0;text-decoration-color:#282a36;text-decoration-line:none;text-decoration-style:solid;text-indent:0;text-orientation:mixed;text-transform:none;white-space:normal"
       id="path8" />
    <path
       d="m1.058 13.493h6.615v1.059h-6.615z"
       fill="#68676b"
       id="path10"
       style="fill:#717380" />
    <path
       d="m10.842 10.588 2.236-2.236 2.237 2.236"
       fill="none"
       stroke="#424048"
       stroke-width="1.0583"
       id="path12"
       style="stroke:#44475a" />
    <path
       d="m15.035 9.471a0.84 0.84 0 0 1 0.839 0.839v1.677l-0.839 0.84h-0.838v-2.517c0-0.463 0.375-0.839 0.838-0.839z"
       fill="#7a8599"
       id="path14"
       style="fill:#9ea0a6" />
    <path
       d="m8.654 3.088-5.59 5.592 1.58 1.58 5.592-5.59z"
       fill="none"
       font-weight="400"
       overflow="visible"
       style="font-feature-settings:normal;font-variant-alternates:normal;font-variant-caps:normal;font-variant-ligatures:normal;font-variant-numeric:normal;font-variant-position:normal;isolation:auto;mix-blend-mode:normal;shape-padding:0;text-decoration-color:#282a36;text-decoration-line:none;text-decoration-style:solid;text-indent:0;text-orientation:mixed;text-transform:none;white-space:normal"
       id="path16" />
    <circle
       cx="4.498"
       cy="8.731"
       r="3.175"
       fill="#f9f06b"
       id="circle18"
       style="fill:#f1fa8c" />
    <path
       d="M 13.672,8.632 9.2,4.159"
       fill="#424048"
       stroke="#424048"
       stroke-width="1.058"
       id="path20"
       style="fill:#44475a" />
    <circle
       cx="9.128"
       cy="4.101"
       r="2.514"
       fill="#f9f06b"
       id="circle22"
       style="fill:#f1fa8c" />
    <circle
       cx="12.965"
       cy="8.202"
       r="1.587"
       fill="#f9f06b"
       id="circle24"
       style="fill:#f1fa8c" />
    <circle
       cx="9.128"
       cy="4.101"
       r="1.455"
       fill="#4a4850"
       id="circle26"
       style="fill:#44475a" />
    <circle
       cx="4.498"
       cy="8.731"
       r="1.852"
       fill="#4a4850"
       id="circle28"
       style="fill:#44475a" />
    <circle
       cx="4.498"
       cy="8.731"
       r="1.058"
       fill="#1a1723"
       id="circle30" />
    <circle
       cx="9.128"
       cy="4.101"
       r=".661"
       fill="#1a1723"
       id="circle32"
       style="fill:#1e1f29" />
    <circle
       cx="12.965"
       cy="8.202"
       r="1.058"
       fill="#4a4850"
       id="circle34"
       style="fill:#44475a" />
    <circle
       cx="12.965"
       cy="8.202"
       r=".529"
       fill="#1a1723"
       id="circle36"
       style="fill:#1e1f29" />
    <circle
       cx="15.035"
       cy="10.31"
       r=".28"
       fill="#282a36"
       id="circle38" />
    <path
       d="m11.121 9.471a0.839 0.839 0 0 0-0.838 0.839v1.677l0.838 0.84h0.84v-2.517a0.839 0.839 0 0 0-0.84-0.839z"
       fill="#7a8599"
       id="path40"
       style="fill:#9ea0a6" />
    <circle
       transform="scale(-1,1)"
       cx="-11.121"
       cy="10.31"
       r=".28"
       fill="#282a36"
       id="circle42" />
  </g>
</svg>
