<?xml version="1.0" encoding="UTF-8" standalone="no"?>
<svg
   width="64"
   height="64"
   version="1.1"
   id="svg4"
   sodipodi:docname="gnome-network-displays.svg"
   inkscape:version="1.3.2 (091e20ef0f, 2023-11-25, custom)"
   xmlns:inkscape="http://www.inkscape.org/namespaces/inkscape"
   xmlns:sodipodi="http://sodipodi.sourceforge.net/DTD/sodipodi-0.dtd"
   xmlns="http://www.w3.org/2000/svg"
   xmlns:svg="http://www.w3.org/2000/svg">
  <defs
     id="defs4" />
  <sodipodi:namedview
     id="namedview4"
     pagecolor="#f8f8f2"
     bordercolor="#282a36"
     borderopacity="0.25"
     inkscape:showpageshadow="2"
     inkscape:pageopacity="0.0"
     inkscape:pagecheckerboard="0"
     inkscape:deskcolor="#d1d1d1"
     inkscape:zoom="12.875"
     inkscape:cx="31.961165"
     inkscape:cy="32"
     inkscape:window-width="1920"
     inkscape:window-height="1040"
     inkscape:window-x="0"
     inkscape:window-y="0"
     inkscape:window-maximized="1"
     inkscape:current-layer="g4" />
  <g
     transform="translate(-22.518 -24.518) scale(1.7037)"
     id="g4">
    <path
       fill="#9ea0a6"
       d="m32 36.696-4.696 3.522c0 4.108-.587 4.108-3.521 5.87l8.217.586 8.217-.587c-2.934-1.76-3.521-1.76-3.521-5.87z"
       id="path1" />
    <path
       fill="#cbcccc"
       d="M23.783 46.087v1.174h16.435v-1.174z"
       id="path2" />
    <rect
       width="30.522"
       height="21.13"
       x="16.739"
       y="19.087"
       fill="#282a36"
       ry="1.174"
       id="rect2" />
    <path
       fill="#6a60cb"
       d="M19.087 21.435h25.826V37.87H19.087z"
       style="paint-order:normal;fill:#bd93f9"
       id="path3" />
    <circle
       cx="32"
       cy="33.174"
       r="2.348"
       fill="#f8f8f2"
       style="paint-order:normal"
       id="circle3" />
    <path
       fill="#f8f8f2"
       d="M32 23.783c-3.354.001-6.543 1.79-8.217 4.696l2.123 1.176c1.256-2.178 3.58-3.525 6.094-3.524s4.836 1.348 6.092 3.526l2.125-1.178c-1.675-2.906-4.863-4.697-8.217-4.696zm0 3.522a5.863 5.863 0 0 0-5.076 2.94l2.029 1.17c.628-1.089 1.79-1.762 3.047-1.762s2.42.673 3.047 1.763l2.032-1.174A5.864 5.864 0 0 0 32 27.305z"
       style="paint-order:normal"
       id="path4" />
  </g>
</svg>
