<?xml version="1.0" encoding="UTF-8" standalone="no"?>
<svg
   width="64"
   height="64"
   version="1.1"
   viewBox="0 0 16.933 16.933"
   id="svg18"
   sodipodi:docname="gnome-klotski.svg"
   inkscape:version="1.2.2 (b0a8486541, 2022-12-01)"
   xmlns:inkscape="http://www.inkscape.org/namespaces/inkscape"
   xmlns:sodipodi="http://sodipodi.sourceforge.net/DTD/sodipodi-0.dtd"
   xmlns="http://www.w3.org/2000/svg"
   xmlns:svg="http://www.w3.org/2000/svg">
  <defs
     id="defs22" />
  <sodipodi:namedview
     id="namedview20"
     pagecolor="#505050"
     bordercolor="#eeeeee"
     borderopacity="1"
     inkscape:showpageshadow="0"
     inkscape:pageopacity="0"
     inkscape:pagecheckerboard="0"
     inkscape:deskcolor="#505050"
     showgrid="false"
     inkscape:zoom="15.921875"
     inkscape:cx="29.895976"
     inkscape:cy="32.031403"
     inkscape:window-width="2560"
     inkscape:window-height="1361"
     inkscape:window-x="0"
     inkscape:window-y="0"
     inkscape:window-maximized="1"
     inkscape:current-layer="svg18" />
  <g
     transform="translate(0 -280.07)"
     id="g16">
    <rect
       transform="matrix(0,-1,-1,0,0,0)"
       x="-295.68"
       y="-15.61"
       width="14.287"
       height="14.287"
       rx="7.1436"
       ry="7.1436"
       fill="#268bcf"
       id="rect2"
       style="fill:#168daa" />
    <rect
       transform="matrix(0 -1 -1 0 0 0)"
       x="-294.35"
       y="-14.288"
       width="11.642"
       height="11.642"
       rx="5.821"
       ry="5.821"
       opacity=".15"
       id="rect4" />
    <path
       d="M6.173 285.888h1.412c.194 0 .352.158.352.352v1.412a.353.353 0 0 1-.352.352H6.173a.353.353 0 0 1-.352-.352v-1.412c0-.194.158-.352.352-.352m0 0M9.348 289.063h1.412c.195 0 .352.158.352.352v1.412a.352.352 0 0 1-.352.352H9.348a.352.352 0 0 1-.352-.352v-1.412c0-.194.158-.352.352-.352m0 0"
       fill="#f8f8f2"
       id="path6" />
    <g
       fill="#ffcf36"
       id="g14"
       style="fill:#ffb86c">
      <path
         d="M5.82 288.533a.528.528 0 0 0-.528.53v2.116c0 .294.235.53.529.53h2.116c.294 0 .53-.236.53-.53v-2.116a.528.528 0 0 0-.53-.53m-2.116.265h2.116c.147 0 .265.118.265.265v2.116a.264.264 0 0 1-.265.265H5.821a.264.264 0 0 1-.265-.265v-2.116c0-.147.118-.265.265-.265m0 0"
         id="path8"
         style="fill:#ffb86c" />
      <path
         d="M6.085 289.063h1.588c.146 0 .264.118.264.264v1.588a.265.265 0 0 1-.264.264H6.085a.265.265 0 0 1-.264-.264v-1.588c0-.146.119-.264.264-.264m0 0M8.996 285.358a.528.528 0 0 0-.53.53v2.116c0 .294.236.53.53.53h2.116c.294 0 .53-.236.53-.53v-2.116a.528.528 0 0 0-.53-.53m-2.116.265h2.116c.147 0 .265.118.265.265v2.116a.264.264 0 0 1-.265.265H8.996a.264.264 0 0 1-.265-.265v-2.116c0-.147.118-.265.265-.265m0 0"
         id="path10"
         style="fill:#ffb86c" />
      <path
         d="M9.26 285.888h1.588c.146 0 .264.118.264.264v1.588a.265.265 0 0 1-.264.264H9.26a.265.265 0 0 1-.264-.264v-1.588c0-.146.119-.264.264-.264m0 0"
         id="path12"
         style="fill:#ffb86c" />
    </g>
  </g>
</svg>
