<?xml version="1.0" encoding="UTF-8" standalone="no"?>
<svg
   width="64"
   height="64"
   version="1.1"
   viewBox="0 0 16.933 16.933"
   id="svg50"
   sodipodi:docname="gnome-documents.svg"
   inkscape:version="1.2.2 (b0a8486541, 2022-12-01)"
   xmlns:inkscape="http://www.inkscape.org/namespaces/inkscape"
   xmlns:sodipodi="http://sodipodi.sourceforge.net/DTD/sodipodi-0.dtd"
   xmlns="http://www.w3.org/2000/svg"
   xmlns:svg="http://www.w3.org/2000/svg">
  <defs
     id="defs54" />
  <sodipodi:namedview
     id="namedview52"
     pagecolor="#505050"
     bordercolor="#eeeeee"
     borderopacity="1"
     inkscape:showpageshadow="0"
     inkscape:pageopacity="0"
     inkscape:pagecheckerboard="0"
     inkscape:deskcolor="#505050"
     showgrid="false"
     inkscape:zoom="15.921875"
     inkscape:cx="29.895976"
     inkscape:cy="32.031403"
     inkscape:window-width="2560"
     inkscape:window-height="1361"
     inkscape:window-x="0"
     inkscape:window-y="0"
     inkscape:window-maximized="1"
     inkscape:current-layer="svg50" />
  <circle
     cx="8.4665"
     cy="8.4665"
     r="7.1436"
     fill="#f8f8f2"
     style="paint-order:stroke fill markers;fill:#f8f8f2"
     id="circle2" />
  <g
     transform="matrix(1.0012 0 0 .99475 .78861 -.7241)"
     fill-rule="evenodd"
     id="g8">
    <path
       d="m4.7918 3.9196c-0.30944 8e-7 -0.55855 0.24911-0.55855 0.55855v8.192c0 0.30944 0.24911 0.55855 0.55855 0.55855h7.0749c0.30944 0 0.55855-0.24911 0.55855-0.55855l5.7e-5 -6.3568-2.3783-2.3938z"
       fill="#f7d83f"
       stroke-width=".18618"
       style="paint-order:fill markers stroke;fill:#bcc373"
       id="path4" />
    <path
       d="m12.425 6.3134-2.3783-2.3938v1.7953c0 0.33154 0.26519 0.59844 0.5946 0.59844z"
       fill="#ffec8c"
       stroke-width=".75153"
       style="paint-order:fill markers stroke;fill:#f1fa8c"
       id="path6" />
  </g>
  <g
     transform="matrix(1.0012 0 0 .99475 -.0051257 .069633)"
     fill-rule="evenodd"
     id="g14">
    <path
       d="m4.7918 3.9196c-0.30944 8e-7 -0.55855 0.24911-0.55855 0.55855v8.192c0 0.30944 0.24911 0.55855 0.55855 0.55855h7.0749c0.30944 0 0.55855-0.24911 0.55855-0.55855l5.7e-5 -6.3568-2.3783-2.3938z"
       fill="#6272a4"
       stroke-width=".18618"
       style="paint-order:fill markers stroke;fill:#6272a4"
       id="path10" />
    <path
       d="m12.425 6.3134-2.3783-2.3938v1.7953c0 0.33154 0.26519 0.59844 0.5946 0.59844z"
       fill="#88aaf8"
       stroke-width=".75153"
       style="paint-order:fill markers stroke;fill:#8894b8"
       id="path12" />
  </g>
  <rect
     x="8.4665"
     y="9.2602"
     width=".52916"
     height="1.0583"
     enable-background="new"
     fill="#f8f8f2"
     opacity=".5"
     stroke-width=".17639"
     id="rect16"
     style="fill:#f8f8f2" />
  <path
     d="m5.2916 6.0853v-0.26458h3.7041v0.26458z"
     color="#282a36"
     enable-background="new"
     fill="#f8f8f2"
     opacity=".35"
     stroke-width=".22913"
     style="paint-order:normal;fill:#f8f8f2"
     id="path18" />
  <path
     d="m5.2916 5.5561v-0.26458h3.7041v0.26458z"
     color="#282a36"
     enable-background="new"
     fill="#f8f8f2"
     opacity=".35"
     stroke-width=".22913"
     style="paint-order:normal;fill:#f8f8f2"
     id="path20" />
  <path
     d="m5.2916 6.879v-0.26458h6.0853v0.26458z"
     color="#282a36"
     enable-background="new"
     fill="#f8f8f2"
     opacity=".35"
     stroke-width=".28983"
     style="paint-order:normal;fill:#f8f8f2"
     id="path22" />
  <path
     d="m5.2916 7.4082v-0.26458h6.0853v0.26458z"
     color="#282a36"
     enable-background="new"
     fill="#f8f8f2"
     opacity=".35"
     stroke-width=".28983"
     style="paint-order:normal;fill:#f8f8f2"
     id="path24" />
  <path
     d="m5.2916 8.2019v-0.26458h1.852v0.26458z"
     color="#282a36"
     enable-background="new"
     fill="#f8f8f2"
     opacity=".35"
     stroke-width=".16733"
     style="paint-order:normal;fill:#f8f8f2"
     id="path26" />
  <path
     d="m5.2916 8.7311v-0.26458h1.852v0.26458z"
     color="#282a36"
     enable-background="new"
     fill="#f8f8f2"
     opacity=".35"
     stroke-width=".16733"
     style="paint-order:normal;fill:#f8f8f2"
     id="path28" />
  <path
     d="m5.2916 9.2602v-0.26458h1.852v0.26458z"
     color="#282a36"
     enable-background="new"
     fill="#f8f8f2"
     opacity=".35"
     stroke-width=".16733"
     style="paint-order:normal;fill:#f8f8f2"
     id="path30" />
  <path
     d="m5.2916 9.7894v-0.26458h1.852v0.26458z"
     color="#282a36"
     enable-background="new"
     fill="#f8f8f2"
     opacity=".35"
     stroke-width=".16733"
     style="paint-order:normal;fill:#f8f8f2"
     id="path32" />
  <path
     d="m5.2916 10.319v-0.26458h1.852v0.26458z"
     color="#282a36"
     enable-background="new"
     fill="#f8f8f2"
     opacity=".35"
     stroke-width=".16733"
     style="paint-order:normal;fill:#f8f8f2"
     id="path34" />
  <path
     d="m5.2916 10.848v-0.26458h1.0583v0.26458z"
     color="#282a36"
     enable-background="new"
     fill="#f8f8f2"
     opacity=".35"
     stroke-width=".13229"
     style="paint-order:normal;fill:#f8f8f2"
     id="path36" />
  <path
     d="m5.2916 11.641v-0.26458h6.0853v0.26458z"
     color="#282a36"
     enable-background="new"
     fill="#f8f8f2"
     opacity=".35"
     stroke-width=".28983"
     style="paint-order:normal;fill:#f8f8f2"
     id="path38" />
  <path
     d="m5.2916 12.171v-0.26458h4.4978v0.26458z"
     color="#282a36"
     enable-background="new"
     fill="#f8f8f2"
     opacity=".35"
     stroke-width=".251"
     style="paint-order:normal;fill:#f8f8f2"
     id="path40" />
  <path
     d="m7.6728 7.9373h0.26458v2.9104h-0.26458z"
     color="#282a36"
     enable-background="new"
     fill="#f8f8f2"
     opacity=".35"
     stroke-width=".19622"
     style="paint-order:normal;fill:#f8f8f2"
     id="path42" />
  <path
     d="m7.9373 10.848v-0.26458h3.4395v0.26458z"
     color="#282a36"
     enable-background="new"
     fill="#f8f8f2"
     opacity=".35"
     stroke-width=".21331"
     style="paint-order:normal;fill:#f8f8f2"
     id="path44" />
  <rect
     x="9.5248"
     y="7.9373"
     width=".52916"
     height="2.3812"
     enable-background="new"
     fill="#f8f8f2"
     opacity=".5"
     stroke-width=".26458"
     id="rect46"
     style="fill:#f8f8f2" />
  <rect
     x="10.583"
     y="8.7311"
     width=".52916"
     height="1.5875"
     enable-background="new"
     fill="#f8f8f2"
     opacity=".5"
     stroke-width=".21603"
     id="rect48"
     style="fill:#f8f8f2" />
</svg>
