<?xml version="1.0" encoding="UTF-8" standalone="no"?>
<svg
   width="64"
   height="64"
   version="1.1"
   viewBox="0 0 16.933 16.933"
   id="svg5616"
   sodipodi:docname="gnome-paint.svg"
   inkscape:version="1.2.2 (b0a8486541, 2022-12-01)"
   xmlns:inkscape="http://www.inkscape.org/namespaces/inkscape"
   xmlns:sodipodi="http://sodipodi.sourceforge.net/DTD/sodipodi-0.dtd"
   xmlns="http://www.w3.org/2000/svg"
   xmlns:svg="http://www.w3.org/2000/svg">
  <defs
     id="defs5620" />
  <sodipodi:namedview
     id="namedview5618"
     pagecolor="#505050"
     bordercolor="#eeeeee"
     borderopacity="1"
     inkscape:showpageshadow="0"
     inkscape:pageopacity="0"
     inkscape:pagecheckerboard="0"
     inkscape:deskcolor="#505050"
     showgrid="false"
     inkscape:zoom="15.921875"
     inkscape:cx="29.895976"
     inkscape:cy="32.031403"
     inkscape:window-width="2560"
     inkscape:window-height="1361"
     inkscape:window-x="0"
     inkscape:window-y="0"
     inkscape:window-maximized="1"
     inkscape:current-layer="svg5616" />
  <path
     d="m8.5087 1.3234a7.1002 7.1436 0 1 0 0 14.286c1.9608 0 1.5924-1.6405 2.0867-2.2635 0.37255-0.4714 0.88546-0.95733 1.4799-1.0207 0.69351-0.07476 1.0495 0.23881 1.5965 0.22532 0.84212-0.02077 1.4417-0.68321 1.7658-1.5679 0.20537-0.55758 0.17028-2.0226 0.17028-2.5158 0-3.9456-3.1786-7.1436-7.1002-7.1436zm4.6368 7.7012a1.0919 1.0985 0 1 1 0 2.1971 1.0919 1.0985 0 0 1 0-2.1971z"
     fill="#f8f8f2"
     stroke="#282a36"
     stroke-opacity=".13725"
     stroke-width=".26458"
     style="paint-order:stroke markers fill;fill:#282a36;stroke:#282a36"
     id="path5606" />
  <path
     d="m8.5087 1.3234a7.1002 7.1436 0 1 0 0 14.286c1.9608 0 1.5924-1.6405 2.0867-2.2635 0.37255-0.4714 0.88546-0.95733 1.4799-1.0207 0.69351-0.07476 1.0495 0.23881 1.5965 0.22532 0.84212-0.02077 1.4417-0.68321 1.7658-1.5679 0.20537-0.55758 0.17028-2.0226 0.17028-2.5158 0-3.9456-3.1786-7.1436-7.1002-7.1436zm4.6368 7.7012a1.0919 1.0985 0 1 1 0 2.1971 1.0919 1.0985 0 0 1 0-2.1971z"
     fill="#f8f8f2"
     style="paint-order:stroke markers fill;fill:#f8f8f2"
     id="path5608" />
  <path
     d="M4.97 10.831s1.346.366 2.008-.012c.661-.378.826-1.015.59-1.547s-.579-.602-1.063-.59c-.484.011-.957.188-1.051.66-.095.473.094.851-.06 1.158a.571.571 0 0 1-.424.331z"
     fill="#ff8e3d"
     id="path5610"
     style="fill:#ffb86c" />
  <path
     d="M6.15 9.935c.88.06 1.387-.62 1.224-.924-.162-.305-.397-.345-.73-.339-.334.007-.658.109-.723.38-.065.27-.093.422.008.85a.669.669 0 0 1 .457-.303c-.029.118-.13.224-.236.336z"
     fill="#ffd13d"
     id="path5612"
     style="fill:#fdc88e" />
  <path
     d="M11.802 5.217L8.074 9.18c-.172.182-.431.218-.56.088l-.466-.466c-.129-.13-.094-.383.089-.556l3.965-3.729c.183-.172.424-.216.554-.087l.233.233c.13.13.085.372-.087.554z"
     fill="#282a36"
     paint-order="stroke markers fill"
     id="path5614"
     style="fill:#44475a" />
</svg>
