<?xml version="1.0" encoding="UTF-8" standalone="no"?>
<svg
   width="64"
   height="64"
   version="1.1"
   viewBox="0 0 16.933 16.933"
   id="svg18"
   sodipodi:docname="gnome-aisleriot.svg"
   inkscape:version="1.2.2 (b0a8486541, 2022-12-01)"
   xmlns:inkscape="http://www.inkscape.org/namespaces/inkscape"
   xmlns:sodipodi="http://sodipodi.sourceforge.net/DTD/sodipodi-0.dtd"
   xmlns="http://www.w3.org/2000/svg"
   xmlns:svg="http://www.w3.org/2000/svg">
  <defs
     id="defs22" />
  <sodipodi:namedview
     id="namedview20"
     pagecolor="#505050"
     bordercolor="#eeeeee"
     borderopacity="1"
     inkscape:showpageshadow="0"
     inkscape:pageopacity="0"
     inkscape:pagecheckerboard="0"
     inkscape:deskcolor="#505050"
     showgrid="false"
     inkscape:zoom="15.921875"
     inkscape:cx="29.895976"
     inkscape:cy="32.031403"
     inkscape:window-width="2560"
     inkscape:window-height="1361"
     inkscape:window-x="0"
     inkscape:window-y="0"
     inkscape:window-maximized="1"
     inkscape:current-layer="svg18" />
  <circle
     cx="8.4665"
     cy="8.4665"
     r="7.1436"
     fill="#282a36"
     style="paint-order:stroke fill markers;fill:#44475a"
     id="circle2" />
  <g
     transform="matrix(.61539 0 0 .61539 3.256 3.256)"
     id="g16">
    <path
       d="m14.658 2.138v9.906a0.55 0.55 0 0 1-0.55 0.55h-7.843a0.55 0.55 0 0 1-0.55-0.55v-9.906a0.55 0.55 0 0 1 0.55-0.55h7.843a0.55 0.55 0 0 1 0.55 0.55z"
       fill="#ebebeb"
       id="path4"
       style="fill:#f8f8f2;opacity:0.9" />
    <g
       fill="#44475a"
       stroke-width=".769"
       id="g10">
      <path
         d="m10.186 4.349a1.338 1.338 0 0 0-1.336 1.337 1.338 1.338 0 0 0 0.183 0.672 1.338 1.338 0 0 0-1.253 1.335 1.338 1.338 0 0 0 1.336 1.337 1.338 1.338 0 0 0 1.07-0.537 1.338 1.338 0 0 0 1.07 0.537 1.338 1.338 0 0 0 1.338-1.337 1.338 1.338 0 0 0-1.253-1.334 1.338 1.338 0 0 0 0.183-0.673 1.338 1.338 0 0 0-1.338-1.337z"
         id="path6" />
      <path
         d="m10.53 8.467h-0.688s0 1.032-1.031 1.032v0.344h2.751v-0.344c-1.032 0-1.032-1.032-1.032-1.032z"
         fill-rule="evenodd"
         id="path8" />
    </g>
    <path
       d="m11.218 4.89v9.906a0.55 0.55 0 0 1-0.55 0.55h-7.842a0.55 0.55 0 0 1-0.55-0.55v-9.906a0.55 0.55 0 0 1 0.55-0.55h7.842a0.55 0.55 0 0 1 0.55 0.55z"
       fill="#f8f8f2"
       style="paint-order:stroke fill markers"
       id="path12" />
    <path
       d="m7.8 7.779c-0.428 0-0.805 0.202-1.053 0.512a1.346 1.346 0 0 0-1.053-0.512c-0.749 0-1.355 0.606-1.355 1.354 0 0.015 4e-3 0.03 5e-3 0.044h-5e-3c0 1.389 2.408 3.417 2.408 3.417s2.408-2.028 2.408-3.417h-5e-3c0-0.015 5e-3 -0.029 5e-3 -0.044 0-0.748-0.607-1.354-1.355-1.354z"
       fill="#f34235"
       id="path14"
       style="fill:#ff5555" />
  </g>
</svg>
