<?xml version="1.0" encoding="UTF-8" standalone="no"?>
<svg
   width="64"
   height="64"
   version="1.1"
   viewBox="0 0 64 64"
   id="svg30"
   sodipodi:docname="gnucash-icon.svg"
   inkscape:version="1.2.2 (b0a8486541, 2022-12-01)"
   xmlns:inkscape="http://www.inkscape.org/namespaces/inkscape"
   xmlns:sodipodi="http://sodipodi.sourceforge.net/DTD/sodipodi-0.dtd"
   xmlns="http://www.w3.org/2000/svg"
   xmlns:svg="http://www.w3.org/2000/svg"
   xmlns:rdf="http://www.w3.org/1999/02/22-rdf-syntax-ns#"
   xmlns:cc="http://creativecommons.org/ns#"
   xmlns:dc="http://purl.org/dc/elements/1.1/">
  <defs
     id="defs34" />
  <sodipodi:namedview
     id="namedview32"
     pagecolor="#505050"
     bordercolor="#eeeeee"
     borderopacity="1"
     inkscape:showpageshadow="0"
     inkscape:pageopacity="0"
     inkscape:pagecheckerboard="0"
     inkscape:deskcolor="#505050"
     showgrid="false"
     inkscape:zoom="15.921875"
     inkscape:cx="29.895976"
     inkscape:cy="32.031403"
     inkscape:window-width="2560"
     inkscape:window-height="1361"
     inkscape:window-x="0"
     inkscape:window-y="0"
     inkscape:window-maximized="1"
     inkscape:current-layer="svg30" />
  <metadata
     id="metadata2">
    <rdf:RDF>
      <cc:Work
         rdf:about="">
        <dc:format>image/svg+xml</dc:format>
        <dc:type
           rdf:resource="http://purl.org/dc/dcmitype/StillImage" />
        <dc:title />
      </cc:Work>
    </rdf:RDF>
  </metadata>
  <g
     transform="translate(0,16)"
     id="g8">
    <g
       transform="translate(1,1)"
       id="g6">
      <g
         opacity=".1"
         id="g4">
        <!-- color: #5968a2 -->
      </g>
    </g>
  </g>
  <g
     transform="matrix(1.1739 0 0 1.1739 3.8267 -14.957)"
     id="g28">
    <g
       id="g16">
      <path
         d="m22.367 24.504c-9.922 0.238-19.483 5.305-21.352 14.842v2e-3c-6e-3 0.217-0.016 0.434-0.016 0.652 0 12.703 10.297 23 23 23 11.747 0 21.429-8.809 22.82-20.18-1.498-12.655-13.208-18.587-24.453-18.316zm24.453 18.316c0.055-0.449 0.1-0.901 0.129-1.357-0.031 0.456-0.074 0.908-0.129 1.357zm0.18-2.82c0 0.472-0.017 0.94-0.047 1.404 0.028-0.465 0.047-0.932 0.047-1.404z"
         fill="#55649b"
         id="path10"
         style="fill:#515d85" />
      <path
         d="m24 17c-12.484 0-22.638 9.947-22.984 22.348l12.984-8.348 6 7 13-9 13.82 13.82c0.113-0.925 0.18-1.865 0.18-2.82 0-12.703-10.297-23-23-23z"
         fill="#7e8cc0"
         id="path12"
         style="fill:#8894b8" />
      <path
         d="m33 28-13 9-6-7-12.932 8.313c-0.041 0.558-0.068 1.119-0.068 1.688 0 0.118 6e-3 0.234 8e-3 0.352l12.992-8.352 6 7 13-9 13.699 13.699c0.095-0.588 0.165-1.183 0.215-1.785l-13.914-13.914z"
         fill="#bac5e5"
         id="path14"
         style="fill:#cbcccc" />
    </g>
    <g
       transform="translate(0,16)"
       id="g26">
      <!-- color: #5968a2 -->
      <g
         fill="#ffcf67"
         id="g24"
         style="fill:#ffb86c">
        <path
           d="m16 15c0 1.105-0.895 2-2 2s-2-0.895-2-2 0.895-2 2-2 2 0.895 2 2"
           id="path18"
           style="fill:#ffb86c" />
        <path
           d="m22 22c0 1.105-0.895 2-2 2s-2-0.895-2-2 0.895-2 2-2 2 0.895 2 2"
           id="path20"
           style="fill:#ffb86c" />
        <path
           d="m35 13c0 1.105-0.895 2-2 2s-2-0.895-2-2 0.895-2 2-2 2 0.895 2 2"
           id="path22"
           style="fill:#ffb86c" />
      </g>
    </g>
  </g>
</svg>
