<?xml version="1.0" encoding="UTF-8" standalone="no"?>
<svg
   width="64"
   height="64"
   version="1.1"
   viewBox="0 0 16.933 16.933"
   id="svg18"
   sodipodi:docname="goa-account-owncloud.svg"
   inkscape:version="1.2.2 (b0a8486541, 2022-12-01)"
   xmlns:inkscape="http://www.inkscape.org/namespaces/inkscape"
   xmlns:sodipodi="http://sodipodi.sourceforge.net/DTD/sodipodi-0.dtd"
   xmlns="http://www.w3.org/2000/svg"
   xmlns:svg="http://www.w3.org/2000/svg">
  <defs
     id="defs22" />
  <sodipodi:namedview
     id="namedview20"
     pagecolor="#505050"
     bordercolor="#eeeeee"
     borderopacity="1"
     inkscape:showpageshadow="0"
     inkscape:pageopacity="0"
     inkscape:pagecheckerboard="0"
     inkscape:deskcolor="#505050"
     showgrid="false"
     inkscape:zoom="15.921875"
     inkscape:cx="29.895976"
     inkscape:cy="32.031403"
     inkscape:window-width="2560"
     inkscape:window-height="1361"
     inkscape:window-x="0"
     inkscape:window-y="0"
     inkscape:window-maximized="1"
     inkscape:current-layer="svg18" />
  <g
     transform="translate(0 -280.07)"
     id="g16">
    <circle
       cx="8.4665"
       cy="288.53"
       r="7.1436"
       fill="#1c2d44"
       style="paint-order:stroke markers fill;fill:#44475a"
       id="circle2" />
    <g
       fill="#f8f8f2"
       stroke="#1c2d44"
       stroke-width=".265"
       id="g14"
       style="stroke:#44475a">
      <path
         d="M6.814 286.592a.884.884 0 1 1-1.766 0 .884.884 0 1 1 1.766 0zM5.93 289.668c0 .896-.725 1.622-1.619 1.622a1.62 1.62 0 0 1-1.617-1.622 1.619 1.619 0 1 1 3.236 0z"
         id="path4"
         style="stroke:#44475a" />
      <path
         d="m7.886 288.59c0 0.967-0.783 1.753-1.75 1.753a1.752 1.752 0 0 1-1.748-1.754 1.75 1.75 0 0 1 1.749-1.752 1.75 1.75 0 0 1 1.749 1.752zm3.436-0.711a1.619 1.619 0 0 1-3.235 0 1.62 1.62 0 0 1 1.617-1.622 1.62 1.62 0 0 1 1.618 1.622z"
         id="path6"
         style="stroke:#44475a" />
      <path
         d="M9.548 286.617a1.619 1.619 0 1 1-3.236 0 1.619 1.619 0 0 1 3.236 0zM14.24 290.295a.926.926 0 1 1-1.853 0 .926.926 0 0 1 1.853 0z"
         id="path8"
         style="stroke:#44475a" />
      <path
         d="M13.097 289.581a1.75 1.75 0 0 1-1.75 1.753 1.75 1.75 0 0 1-1.749-1.753c0-.97.783-1.754 1.749-1.754.967 0 1.75.785 1.75 1.754zM6.955 290.384a.925.925 0 1 1-1.85 0 .925.925 0 1 1 1.85 0z"
         id="path10"
         style="stroke:#44475a" />
      <path
         d="M10.693 289.063c0 1.234-1 2.234-2.23 2.234-1.232 0-2.23-1-2.23-2.235 0-1.234.998-2.234 2.23-2.234 1.23 0 2.23 1 2.23 2.235z"
         id="path12"
         style="stroke:#44475a" />
    </g>
  </g>
</svg>
