<?xml version="1.0" encoding="UTF-8" standalone="no"?>
<svg
   width="64"
   height="64"
   version="1.1"
   id="svg2"
   sodipodi:docname="goa-account-fedora.svg"
   inkscape:version="1.3.2 (091e20ef0f, 2023-11-25, custom)"
   xmlns:inkscape="http://www.inkscape.org/namespaces/inkscape"
   xmlns:sodipodi="http://sodipodi.sourceforge.net/DTD/sodipodi-0.dtd"
   xmlns="http://www.w3.org/2000/svg"
   xmlns:svg="http://www.w3.org/2000/svg">
  <defs
     id="defs2" />
  <sodipodi:namedview
     id="namedview2"
     pagecolor="#f8f8f2"
     bordercolor="#282a36"
     borderopacity="0.25"
     inkscape:showpageshadow="2"
     inkscape:pageopacity="0.0"
     inkscape:pagecheckerboard="0"
     inkscape:deskcolor="#d1d1d1"
     inkscape:zoom="12.875"
     inkscape:cx="31.961165"
     inkscape:cy="32"
     inkscape:window-width="1920"
     inkscape:window-height="1040"
     inkscape:window-x="0"
     inkscape:window-y="0"
     inkscape:window-maximized="1"
     inkscape:current-layer="svg2" />
  <path
     fill="#42a5e9"
     d="M32 5C17.128 5 5 17.168 5 32v19.8c0 3.989 3.211 7.2 7.2 7.2H32c14.912 0 27-12.088 27-27S46.872 5 32 5z"
     id="path1"
     style="fill:#515d85" />
  <path
     fill="#f8f8f2"
     d="M37.4 14a9 9 0 0 1 9 9v.9a2.7 2.7 0 1 1-5.4 0V23a3.6 3.6 0 0 0-7.2 0v7.2h4.5c1.496 0 2.7 1.204 2.7 2.7 0 1.496-1.204 2.7-2.7 2.7h-4.5V41c0 5.965-4.835 10.8-10.8 10.8S12.2 46.965 12.2 41c0-5.965 4.835-10.8 10.8-10.8h3.6v5.4H23a5.4 5.4 0 1 0 5.4 5.4V23a9 9 0 0 1 9-9z"
     id="path2" />
</svg>
