<?xml version="1.0" encoding="UTF-8" standalone="no"?>
<svg
   width="64"
   height="64"
   version="1.1"
   viewBox="0 0 16.933 16.933"
   id="svg16"
   sodipodi:docname="goa-account-google.svg"
   inkscape:version="1.2.2 (b0a8486541, 2022-12-01)"
   xmlns:inkscape="http://www.inkscape.org/namespaces/inkscape"
   xmlns:sodipodi="http://sodipodi.sourceforge.net/DTD/sodipodi-0.dtd"
   xmlns="http://www.w3.org/2000/svg"
   xmlns:svg="http://www.w3.org/2000/svg">
  <defs
     id="defs20" />
  <sodipodi:namedview
     id="namedview18"
     pagecolor="#505050"
     bordercolor="#eeeeee"
     borderopacity="1"
     inkscape:showpageshadow="0"
     inkscape:pageopacity="0"
     inkscape:pagecheckerboard="0"
     inkscape:deskcolor="#505050"
     showgrid="false"
     inkscape:zoom="15.921875"
     inkscape:cx="27.069676"
     inkscape:cy="32.031403"
     inkscape:window-width="1280"
     inkscape:window-height="1361"
     inkscape:window-x="0"
     inkscape:window-y="0"
     inkscape:window-maximized="0"
     inkscape:current-layer="svg16" />
  <g
     transform="translate(0 -280.07)"
     id="g14">
    <circle
       cx="8.4665"
       cy="288.53"
       r="7.1436"
       fill="#f8f8f2"
       style="paint-order:stroke markers fill"
       id="circle2" />
    <g
       stroke-width=".429"
       id="g12">
      <path
         d="M5.663 286.119c-.355.409-.629.9-.778 1.456-.077.29-.116.582-.121.87a3.619 3.619 0 0 0 .898 2.503l.761-1.024a2.433 2.433 0 0 1-.425-1.28c-.001-.039-.003-.077-.003-.116l.002-.068c.006-.187.03-.376.081-.565.074-.277.194-.529.345-.752l-.76-1.024"
         fill="#fbbc05"
         style="isolation:auto;mix-blend-mode:normal;white-space:normal;fill:#fdc88e"
         id="path4" />
      <path
         d="M6.133 289.35l-1 .791a3.717 3.717 0 0 0 3.33 2.097c.298 0 .586-.039.863-.106l.015-.003.005-.001a3.96 3.96 0 0 0 .359-.107l.014-.004.002-.001a3.663 3.663 0 0 0 1.798-1.401l-1.186-.47c-.173.2-.381.377-.624.519l-.022.013a2.395 2.395 0 0 1-.564.235l-.016.004a2.485 2.485 0 0 1-.645.086 2.458 2.458 0 0 1-2.33-1.652"
         fill="#34a853"
         style="isolation:auto;mix-blend-mode:normal;white-space:normal;fill:#44c367"
         id="path6" />
      <path
         d="M8.466 287.916v1.234h2.392a2.457 2.457 0 0 1-1.061 1.465l1 .791a3.7 3.7 0 0 0 1.374-2.873c0-.21-.022-.416-.056-.617H8.467z"
         fill="#4285f4"
         style="isolation:auto;mix-blend-mode:normal;white-space:normal;fill:#168daa"
         id="path8" />
      <path
         d="M8.463 284.83a3.71 3.71 0 0 0-3.33 2.096l1 .792a2.458 2.458 0 0 1 2.33-1.654c.633 0 1.206.236 1.641.624l.868-.868a3.685 3.685 0 0 0-2.509-.99"
         fill="#ea4335"
         style="isolation:auto;mix-blend-mode:normal;white-space:normal;fill:#c7484a"
         id="path10" />
    </g>
  </g>
</svg>
