<?xml version="1.0" encoding="UTF-8" standalone="no"?>
<svg
   width="64"
   height="64"
   version="1.1"
   viewBox="0 0 16.933 16.933"
   id="svg8"
   sodipodi:docname="goa-account-todoist.svg"
   inkscape:version="1.2.2 (b0a8486541, 2022-12-01)"
   xmlns:inkscape="http://www.inkscape.org/namespaces/inkscape"
   xmlns:sodipodi="http://sodipodi.sourceforge.net/DTD/sodipodi-0.dtd"
   xmlns="http://www.w3.org/2000/svg"
   xmlns:svg="http://www.w3.org/2000/svg">
  <defs
     id="defs12" />
  <sodipodi:namedview
     id="namedview10"
     pagecolor="#505050"
     bordercolor="#eeeeee"
     borderopacity="1"
     inkscape:showpageshadow="0"
     inkscape:pageopacity="0"
     inkscape:pagecheckerboard="0"
     inkscape:deskcolor="#505050"
     showgrid="false"
     inkscape:zoom="15.921875"
     inkscape:cx="29.895976"
     inkscape:cy="32.031403"
     inkscape:window-width="2560"
     inkscape:window-height="1361"
     inkscape:window-x="0"
     inkscape:window-y="0"
     inkscape:window-maximized="1"
     inkscape:current-layer="svg8" />
  <g
     transform="matrix(1.0384 0 0 1.0385 -.32504 -291.17)"
     stroke-width=".92739"
     id="g6">
    <circle
       cx="8.467"
       cy="288.53"
       r="6.879"
       fill="#c2352a"
       style="paint-order:stroke markers fill;fill:#c7484a"
       id="circle2" />
    <path
       d="m9.356 284.75a0.445 0.445 0 0 0-0.242 0.065l-5.135 2.995-2.144-1.071a6.88 6.88 0 0 0-0.182 0.905l2.144 1.071a0.445 0.445 0 0 0 0.422-0.013l5.344-3.118a0.445 0.445 0 0 0-0.207-0.833zm0 1.782a0.445 0.445 0 0 0-0.242 0.064l-5.135 2.996-2.385-1.192a6.88 6.88 0 0 0-7e-3 0.137 6.88 6.88 0 0 0 0.066 0.888l2.144 1.071a0.445 0.445 0 0 0 0.422-0.013l5.344-3.118a0.445 0.445 0 0 0-0.207-0.833zm0 1.781a0.445 0.445 0 0 0-0.242 0.064l-5.134 2.997-2.16-1.08a6.88 6.88 0 0 0 0.453 1.222l1.525 0.762a0.445 0.445 0 0 0 0.422-0.013l5.344-3.117a0.445 0.445 0 0 0-0.207-0.834z"
       fill="#f8f8f2"
       fill-rule="evenodd"
       id="path4" />
  </g>
</svg>
