<?xml version="1.0" encoding="UTF-8" standalone="no"?>
<svg
   width="64"
   height="64"
   viewBox="0 0 16.933 16.933"
   version="1.1"
   id="svg1"
   sodipodi:docname="goa-account-todoist.svg"
   inkscape:version="1.3.2 (091e20ef0f, 2023-11-25, custom)"
   xmlns:inkscape="http://www.inkscape.org/namespaces/inkscape"
   xmlns:sodipodi="http://sodipodi.sourceforge.net/DTD/sodipodi-0.dtd"
   xmlns="http://www.w3.org/2000/svg"
   xmlns:svg="http://www.w3.org/2000/svg">
  <defs
     id="defs1" />
  <sodipodi:namedview
     id="namedview1"
     pagecolor="#f8f8f2"
     bordercolor="#282a36"
     borderopacity="0.25"
     inkscape:showpageshadow="2"
     inkscape:pageopacity="0.0"
     inkscape:pagecheckerboard="0"
     inkscape:deskcolor="#d1d1d1"
     inkscape:zoom="12.875"
     inkscape:cx="31.961165"
     inkscape:cy="32"
     inkscape:window-width="1920"
     inkscape:window-height="1040"
     inkscape:window-x="0"
     inkscape:window-y="0"
     inkscape:window-maximized="1"
     inkscape:current-layer="g1" />
  <g
     stroke-width=".927"
     transform="matrix(1.0384 0 0 1.0385 -.325 -291.17)"
     id="g1">
    <circle
       cx="8.467"
       cy="288.53"
       r="6.879"
       fill="#c2352a"
       style="paint-order:stroke markers fill;fill:#c7484a"
       id="circle1" />
    <path
       fill="#f8f8f2"
       fill-rule="evenodd"
       d="M9.356 284.75a.445.445 0 0 0-.242.065l-5.135 2.995-2.144-1.071a6.88 6.88 0 0 0-.182.905l2.144 1.071a.445.445 0 0 0 .422-.013l5.344-3.118a.445.445 0 0 0-.207-.833zm0 1.782a.445.445 0 0 0-.242.064l-5.135 2.996-2.385-1.192a6.88 6.88 0 0 0-.007.137 6.88 6.88 0 0 0 .066.888l2.144 1.071a.445.445 0 0 0 .422-.013l5.344-3.118a.445.445 0 0 0-.207-.833zm0 1.781a.445.445 0 0 0-.242.064l-5.134 2.997-2.16-1.08a6.88 6.88 0 0 0 .453 1.222l1.525.762a.445.445 0 0 0 .422-.013l5.344-3.117a.445.445 0 0 0-.207-.834z"
       id="path1" />
  </g>
</svg>
