<?xml version="1.0" encoding="UTF-8" standalone="no"?>
<svg
   width="64"
   height="64"
   version="1.1"
   id="svg10"
   sodipodi:docname="godot-nightly.svg"
   inkscape:version="1.2.2 (b0a8486541, 2022-12-01)"
   xmlns:inkscape="http://www.inkscape.org/namespaces/inkscape"
   xmlns:sodipodi="http://sodipodi.sourceforge.net/DTD/sodipodi-0.dtd"
   xmlns="http://www.w3.org/2000/svg"
   xmlns:svg="http://www.w3.org/2000/svg">
  <defs
     id="defs14" />
  <sodipodi:namedview
     id="namedview12"
     pagecolor="#505050"
     bordercolor="#eeeeee"
     borderopacity="1"
     inkscape:showpageshadow="0"
     inkscape:pageopacity="0"
     inkscape:pagecheckerboard="0"
     inkscape:deskcolor="#505050"
     showgrid="false"
     inkscape:zoom="15.921875"
     inkscape:cx="29.895976"
     inkscape:cy="32.031403"
     inkscape:window-width="2560"
     inkscape:window-height="1361"
     inkscape:window-x="0"
     inkscape:window-y="0"
     inkscape:window-maximized="1"
     inkscape:current-layer="svg10" />
  <rect
     width="54"
     height="54"
     x="5"
     y="5"
     fill="#f8f8f2"
     ry="27"
     id="rect2" />
  <g
     stroke-width=".75"
     id="g8">
    <path
       fill="#47a5bf"
       d="m28.665 17.237-3.957 1.334.625 4-3.416 1.874L20 22.57l-4 4 2.666 2.666v7.25l.668.043v2.166L22 39.736v-2.291c1.98.43 2.872.616 4 .707v2.084l2.666.793V38.57h6.668v2.459L38 40.236v-2.084c1.128-.09 2.02-.276 4-.707v2.291l2.666-1.041v-2.166l.668-.043v-7.25L48 26.57l-4-4-1.918 1.875-3.416-1.875.625-4-3.96-1.333-1.499 2.666h-3.666l-1.5-2.666zm-3.998 12a3.334 3.334 0 1 1 0 6.667 3.334 3.334 0 0 1 0-6.668zm14.666 0a3.334 3.334 0 1 1 0 6.667 3.334 3.334 0 0 1 0-6.668zM32 31.901a1.33 1.33 0 0 1 1.332 1.334v2.666A1.33 1.33 0 0 1 32 37.235a1.331 1.331 0 0 1-1.334-1.334v-2.666c0-.738.595-1.334 1.334-1.334zM16.417 36.57l.043 2.666c3.222 4.921 8.08 7.815 15.541 7.5 7.465.315 12.32-2.579 15.54-7.5l.042-2.666-2.25.707v1.96c-.652.419-2.667.97-4 1.333v-2.168l-2.668.418v1.75c-.755.637-2.161 1.058-4 1.334v-2.666h-5.332v2.666c-1.839-.276-3.245-.697-4-1.334v-1.75l-2.668-.418v2.168c-1.333-.363-3.348-.914-4-1.334v-1.959z"
       style="fill:#44475a;fill-opacity:1"
       transform="translate(-7.066 -7.063) scale(1.2208)"
       id="path4" />
    <path
       fill="#44475a"
       d="M26.667 32.57a2 2 0 1 1-4 0 2 2 0 1 1 4 0zm14.666 0a2 2 0 1 1-4 0 2 2 0 1 1 4 0z"
       style="fill:#13b1d5;fill-opacity:1"
       transform="translate(-7.066 -7.063) scale(1.2208)"
       id="path6" />
  </g>
</svg>
