<?xml version="1.0" encoding="UTF-8" standalone="no"?>
<svg
   width="64"
   height="64"
   version="1.1"
   id="svg4"
   sodipodi:docname="google-translate.svg"
   inkscape:version="1.3.2 (091e20ef0f, 2023-11-25, custom)"
   xmlns:inkscape="http://www.inkscape.org/namespaces/inkscape"
   xmlns:sodipodi="http://sodipodi.sourceforge.net/DTD/sodipodi-0.dtd"
   xmlns="http://www.w3.org/2000/svg"
   xmlns:svg="http://www.w3.org/2000/svg">
  <defs
     id="defs4" />
  <sodipodi:namedview
     id="namedview4"
     pagecolor="#f8f8f2"
     bordercolor="#282a36"
     borderopacity="0.25"
     inkscape:showpageshadow="2"
     inkscape:pageopacity="0.0"
     inkscape:pagecheckerboard="0"
     inkscape:deskcolor="#d1d1d1"
     inkscape:zoom="12.875"
     inkscape:cx="31.961165"
     inkscape:cy="32"
     inkscape:window-width="1920"
     inkscape:window-height="1040"
     inkscape:window-x="0"
     inkscape:window-y="0"
     inkscape:window-maximized="1"
     inkscape:current-layer="svg4" />
  <rect
     width="52"
     height="52"
     x="6"
     y="6"
     fill="#44475a"
     rx="8"
     ry="8"
     style="paint-order:stroke fill markers;fill:#282a36"
     id="rect1" />
  <g
     stroke-width="1.5"
     id="g2">
    <rect
       width="22.5"
       height="22.5"
       x="14"
       y="14"
       fill="#f8f8f2"
       ry="1.5"
       style="paint-order:normal"
       id="rect2" />
    <path
       fill="#535352"
       d="M18.5 30.5c-.006-.035.12-.052.471-.205 1.377-.563 2.736-1.366 4.337-2.555.375-.282.685-.544.685-.597 0-.047-.094-.17-.211-.282-.405-.375-1.436-1.647-1.857-2.303-.416-.639-1.067-1.977-1.067-2.158h2.127l.282.588c.34.75 1.032 1.81 1.611 2.472.234.264.452.492.486.504 1.868-1.464 2.136-3.281 2.136-5.18V20h-9v-1.5h6V17H26v1.5h6V20h-3v.901c0 1.518-.279 3.932-2.09 5.813l-.357.369.345.282c.194.153.551.415.809.58.252.17.463.341.463.341l-.691 1.635c-.03 0-.464-.317-.972-.704-.51-.387-1.24-.895-1.24-.895l-1.222.895c-.51.387-1.336.956-1.834 1.266-.891.551-2.56 1.517-2.708 1.517"
       id="path2" />
  </g>
  <path
     fill="#367ff3"
     d="M29 27.5c-.831 0-1.5.669-1.5 1.5v12H23v-4.5h1.5l-3.75-3.75L17 36.5h1.5V41l4.5 4.5h4.5v3c0 .831.669 1.5 1.5 1.5h19.5c.831 0 1.5-.669 1.5-1.5V29c0-.831-.669-1.5-1.5-1.5z"
     id="path3"
     style="fill:#13b1d5" />
  <path
     fill="#f8f8f2"
     d="M38 32c-1.567 4.175-3.157 8.417-4.5 12H35l1.11-3h5.28l1.11 3H44l-4.5-12zm.75 1.875 2.083 5.625h-4.166z"
     style="paint-order:normal"
     id="path4" />
</svg>
