<?xml version="1.0" encoding="UTF-8" standalone="no"?>
<svg
   width="64"
   height="64"
   image-rendering="optimizeSpeed"
   version="1.1"
   id="svg4"
   sodipodi:docname="google-drive.svg"
   inkscape:version="1.3.2 (091e20ef0f, 2023-11-25, custom)"
   xmlns:inkscape="http://www.inkscape.org/namespaces/inkscape"
   xmlns:sodipodi="http://sodipodi.sourceforge.net/DTD/sodipodi-0.dtd"
   xmlns="http://www.w3.org/2000/svg"
   xmlns:svg="http://www.w3.org/2000/svg">
  <defs
     id="defs4" />
  <sodipodi:namedview
     id="namedview4"
     pagecolor="#f8f8f2"
     bordercolor="#282a36"
     borderopacity="0.25"
     inkscape:showpageshadow="2"
     inkscape:pageopacity="0.0"
     inkscape:pagecheckerboard="0"
     inkscape:deskcolor="#d1d1d1"
     inkscape:zoom="12.875"
     inkscape:cx="31.961165"
     inkscape:cy="32"
     inkscape:window-width="1920"
     inkscape:window-height="1040"
     inkscape:window-x="0"
     inkscape:window-y="0"
     inkscape:window-maximized="1"
     inkscape:current-layer="svg4" />
  <path
     fill="#44475a"
     d="M58.182 25.136a25.576 25.576 0 0 0-2.016-5.354 27.163 27.163 0 0 0-.704-1.282h-.001q-1.751-2.975-4.367-5.591C45.824 7.638 39.456 5 32 5S18.18 7.638 12.908 12.91C7.638 18.18 5 24.544 5 32c0 7.456 2.637 13.823 7.908 19.094 3.893 3.893 8.38 6.347 13.437 7.359A28.66 28.66 0 0 0 32 59c7.457 0 13.823-2.634 19.094-7.905 2.78-2.78 4.828-5.863 6.14-9.256.973-2.514 1.545-5.194 1.714-8.051.034-.584.052-1.181.052-1.788 0-2.388-.27-4.668-.818-6.864z"
     id="path1"
     style="fill:#282a36" />
  <g
     fill-rule="evenodd"
     id="g4">
    <path
       fill="#2c88fa"
       d="M26.002 37.078H50L44.002 47.23H19.998"
       id="path2" />
    <path
       fill="#fbc549"
       d="M50 37.078 37.998 16.77H26.002l11.996 20.31"
       id="path3" />
    <path
       fill="#0bb36f"
       d="M19.998 47.23 32 26.921l-5.998-10.152L14 37.08"
       id="path4" />
  </g>
</svg>
