<?xml version="1.0" encoding="UTF-8" standalone="no"?>
<svg
   width="64"
   height="64"
   version="1"
   id="svg14"
   sodipodi:docname="google-chrome-unstable.svg"
   inkscape:version="1.2.2 (b0a8486541, 2022-12-01)"
   xmlns:inkscape="http://www.inkscape.org/namespaces/inkscape"
   xmlns:sodipodi="http://sodipodi.sourceforge.net/DTD/sodipodi-0.dtd"
   xmlns="http://www.w3.org/2000/svg"
   xmlns:svg="http://www.w3.org/2000/svg">
  <defs
     id="defs18" />
  <sodipodi:namedview
     id="namedview16"
     pagecolor="#505050"
     bordercolor="#eeeeee"
     borderopacity="1"
     inkscape:showpageshadow="0"
     inkscape:pageopacity="0"
     inkscape:pagecheckerboard="0"
     inkscape:deskcolor="#505050"
     showgrid="false"
     inkscape:zoom="15.921875"
     inkscape:cx="29.895976"
     inkscape:cy="32.031403"
     inkscape:window-width="2560"
     inkscape:window-height="1361"
     inkscape:window-x="0"
     inkscape:window-y="0"
     inkscape:window-maximized="1"
     inkscape:current-layer="svg14" />
  <g
     fill-rule="evenodd"
     stroke-width="1.0947"
     id="g8">
    <path
       d="m10.407 15.799a27.151 27.149 0 0 0-5.4067 16.285c0 14.958 12.043 26.916 27.003 26.916l9.4504-19.355-17.551-3.5955z"
       fill="#f66f6f"
       id="path2"
       style="fill:#ff5555" />
    <path
       d="m33.348 19.846 8.0998 19.711-9.4504 19.44a26.943 26.941 0 0 0 27.003-27c0-4.3822-1.0572-8.4995-2.8932-12.152z"
       fill="#f69696"
       id="path4"
       style="fill:#fd7e7c" />
    <path
       d="m31.995 5c-8.8649 0-16.679 4.248-21.597 10.806l13.496 20.245 17.551 3.5091-8.101-19.711h22.759c-4.4336-8.8143-13.532-14.849-24.11-14.849z"
       fill="#db4437"
       id="path6"
       style="fill:#c7484a" />
  </g>
  <path
     d="m31.995 18.993c7.2028 0 13.002 5.7981 13.002 13s-5.7986 13-13.002 13c-7.2028 0-13.002-5.7981-13.002-13s5.7986-13 13.002-13z"
     fill="#f8f8f2"
     stroke-width="1.0542"
     id="path10" />
  <path
     d="m31.995 21.994c5.5418 0 10.001 4.4601 10.001 10 0 5.5403-4.4593 10-10.001 10a9.9786 9.978 0 0 1-10.001-10c0-5.5403 4.4604-10 10.001-10z"
     fill="#e64646"
     stroke-width="1.0542"
     id="path12"
     style="fill:#ff5555" />
</svg>
