<?xml version="1.0" encoding="UTF-8" standalone="no"?>
<svg
   width="64"
   height="64"
   version="1"
   id="svg26"
   sodipodi:docname="google-chrome-beta.svg"
   inkscape:version="1.2.2 (b0a8486541, 2022-12-01)"
   xmlns:inkscape="http://www.inkscape.org/namespaces/inkscape"
   xmlns:sodipodi="http://sodipodi.sourceforge.net/DTD/sodipodi-0.dtd"
   xmlns="http://www.w3.org/2000/svg"
   xmlns:svg="http://www.w3.org/2000/svg">
  <defs
     id="defs30" />
  <sodipodi:namedview
     id="namedview28"
     pagecolor="#505050"
     bordercolor="#eeeeee"
     borderopacity="1"
     inkscape:showpageshadow="0"
     inkscape:pageopacity="0"
     inkscape:pagecheckerboard="0"
     inkscape:deskcolor="#505050"
     showgrid="false"
     inkscape:zoom="15.921875"
     inkscape:cx="29.83317"
     inkscape:cy="32.031403"
     inkscape:window-width="1280"
     inkscape:window-height="1361"
     inkscape:window-x="1280"
     inkscape:window-y="0"
     inkscape:window-maximized="0"
     inkscape:current-layer="svg26" />
  <g
     transform="matrix(1.1368,0,0,1.1367,-432.42,-563.15)"
     fill-rule="evenodd"
     stroke-width=".963"
     id="g8">
    <path
       d="m389.53 509.3a23.883 23.883 0 0 0-4.756 14.326c0 13.159 10.594 23.678 23.753 23.678l8.313-17.027-15.439-3.163z"
       fill="#0f9d58"
       id="path2"
       style="fill:#44c367" />
    <path
       d="m409.71 512.86 7.125 17.34-8.313 17.101a23.7 23.7 0 0 0 23.753-23.752c0-3.855-0.93-7.477-2.545-10.69z"
       fill="#ffcd40"
       id="path4"
       style="fill:#fdc88e" />
    <path
       d="m408.52 499.8c-7.798 0-14.672 3.737-18.998 9.506l11.872 17.81 15.439 3.087-7.126-17.34h20.02c-3.9-7.754-11.903-13.063-21.208-13.063z"
       fill="#db4437"
       id="path6"
       style="fill:#c7484a" />
  </g>
  <path
     d="m31.986 18.965c7.2027 0 13.002 5.7979 13.002 12.999s-5.7985 12.999-13.002 12.999c-7.2027 0-13.002-5.7979-13.002-12.999s5.7985-12.999 13.002-12.999z"
     fill="#f8f8f2"
     stroke-width="1.0542"
     id="path10" />
  <path
     d="m31.986 21.966c5.5417 0 10.001 4.46 10.001 10 0 5.54-4.4592 10-10.001 10a9.9785 9.9776 0 0 1-10.001-10c0-5.54 4.4603-10 10.001-10z"
     fill="#2566d3"
     stroke-width="1.0542"
     id="path12"
     style="fill:#168daa" />
  <path
     d="m6.2422 40a27 27 0 0 0 25.758 19 27 27 0 0 0 25.787-19h-51.545z"
     fill="#44475a"
     id="path14" />
  <g
     fill="#f8f8f2"
     stroke-width=".24005"
     aria-label="BETA"
     id="g24">
    <path
       d="m21.287 47.657v2.5646h1.5191q0.76423 0 1.1299-0.31413 0.3704-0.31882 0.3704-0.97053 0-0.6564-0.3704-0.96584-0.36571-0.31413-1.1299-0.31413zm0-2.8788v2.1098h1.4019q0.6939 0 1.0315-0.25787 0.34226-0.26256 0.34226-0.79705 0-0.52981-0.34226-0.79236-0.33758-0.26256-1.0315-0.26256zm-0.94709-0.7783h2.4193q1.0831 0 1.6691 0.4501 0.58607 0.4501 0.58607 1.28 0 0.64233-0.30007 1.0221t-0.88145 0.47354q0.69859 0.15003 1.0831 0.62826 0.38915 0.47354 0.38915 1.1862 0 0.93771-0.63764 1.4488-0.63764 0.51105-1.8145 0.51105h-2.5131z"
       id="path16" />
    <path
       d="m26.927 44h4.426v0.79705h-3.4789v2.0723h3.3336v0.79705h-3.3336v2.5365h3.5633v0.79705h-4.5104z"
       id="path18" />
    <path
       d="m32.023 44h5.9216v0.79705h-2.4849v6.2029h-0.95178v-6.2029h-2.4849z"
       id="path20" />
    <path
       d="m40.453 44.933-1.2847 3.4836h2.574zm-0.53449-0.93302h1.0737l2.6678 7h-0.9846l-0.63764-1.7957h-3.1554l-0.63764 1.7957h-0.99866z"
       id="path22" />
  </g>
</svg>
