<?xml version="1.0" encoding="UTF-8" standalone="no"?>
<svg
   width="64"
   height="64"
   version="1.1"
   id="svg14"
   sodipodi:docname="google-earth.svg"
   inkscape:version="1.2.2 (b0a8486541, 2022-12-01)"
   xmlns:inkscape="http://www.inkscape.org/namespaces/inkscape"
   xmlns:sodipodi="http://sodipodi.sourceforge.net/DTD/sodipodi-0.dtd"
   xmlns="http://www.w3.org/2000/svg"
   xmlns:svg="http://www.w3.org/2000/svg">
  <defs
     id="defs18" />
  <sodipodi:namedview
     id="namedview16"
     pagecolor="#505050"
     bordercolor="#eeeeee"
     borderopacity="1"
     inkscape:showpageshadow="0"
     inkscape:pageopacity="0"
     inkscape:pagecheckerboard="0"
     inkscape:deskcolor="#505050"
     showgrid="false"
     inkscape:zoom="15.921875"
     inkscape:cx="29.895976"
     inkscape:cy="32.031403"
     inkscape:window-width="2560"
     inkscape:window-height="1361"
     inkscape:window-x="0"
     inkscape:window-y="0"
     inkscape:window-maximized="1"
     inkscape:current-layer="svg14" />
  <g
     transform="matrix(3.375 0 0 3.375 5 4.9999)"
     id="g12">
    <path
       d="m5.5173 9.6664c-2.7273-3.6082-5.5273-0.86637-4.7964 1.6555 1.2555 2.7591 4.0573 4.6782 7.2764 4.6782 2.8546 0 5.3227-1.4882 6.7246-3.6546-2.1091 1.9736-5.9373 1.6436-9.2046-2.6791z"
       fill="#255fdb"
       id="path2"
       style="fill:#168daa" />
    <path
       d="m7.9555 7.1818c-3.7509-5.6891-7.9555-2.6573-7.9555 0.82 0 1.1927 0.26 2.3182 0.72637 3.3346-0.49818-2.3555 2.2082-4.1718 4.7282-0.79091 3.6591 4.9091 7.25 4.0455 9.2591 1.8118 0.54273-0.80909 1.0718-2.05 1.22-3.2836l-0.0028 0.015456c-0.85994 2.6746-4.6672 3.11-7.9754-1.9073z"
       fill="#4285f4"
       id="path4"
       style="fill:#13b1d5" />
    <path
       d="m10.526 4.6364c-2.7855-4.5955-6.3173-4.1818-8.7055-1.7191-1.1355 1.3809-1.8209 3.1509-1.8209 5.0827 0.25-3.3673 4.3182-5.7046 8 0 3.2773 5.0773 7.35 3.7546 7.93 1.1018l0.0036-0.025452c0.05818-0.36455 0.06455-0.71273 0.06455-1.0873 0-0.12091 0.0045-0.24091-9.2e-4 -0.36-1.42 1.0073-3.2836 0.61546-5.4709-2.9927z"
       fill="#91bfff"
       id="path6"
       style="fill:#4cc3dc" />
    <path
       d="m10.545 5.4545c2.5509 4.1009 4.75 3.0518 5.4518 2.1746-0.027272-0.62546-0.12909-1.2309-0.29273-1.81-1.1891 0.024544-1.4664-0.17364-2.6318-1.9555-1.7927-2.7409-4.0455-4.5891-7.9782-3.3191-1.2873 0.50273-2.4127 1.3282-3.2764 2.3764 2.7046-2.4891 6.0227-1.8136 8.7273 2.5336z"
       fill="#c4e1ff"
       id="path8"
       style="fill:#8be9fd" />
    <path
       d="m12.894 4.2154c1.1655 1.7818 1.8755 1.8764 2.8109 1.6036-0.95182-3.3627-4.0373-5.8191-7.7073-5.8191-1.0245 0-2.0055 0.19546-2.9055 0.54546 3.5155-1.1091 6.0091 0.92909 7.8018 3.67z"
       fill="#f5f5f5"
       id="path10"
       style="fill:#f8f8f2" />
  </g>
</svg>
