<?xml version="1.0" encoding="UTF-8" standalone="no"?>
<svg
   width="64"
   height="64"
   viewBox="0 0 16.933 16.933"
   version="1.1"
   id="svg14"
   sodipodi:docname="google-chrome.svg"
   inkscape:version="1.2.2 (b0a8486541, 2022-12-01)"
   xmlns:inkscape="http://www.inkscape.org/namespaces/inkscape"
   xmlns:sodipodi="http://sodipodi.sourceforge.net/DTD/sodipodi-0.dtd"
   xmlns="http://www.w3.org/2000/svg"
   xmlns:svg="http://www.w3.org/2000/svg">
  <defs
     id="defs18" />
  <sodipodi:namedview
     id="namedview16"
     pagecolor="#505050"
     bordercolor="#eeeeee"
     borderopacity="1"
     inkscape:showpageshadow="0"
     inkscape:pageopacity="0"
     inkscape:pagecheckerboard="0"
     inkscape:deskcolor="#505050"
     showgrid="false"
     inkscape:zoom="15.921875"
     inkscape:cx="29.895976"
     inkscape:cy="32.031403"
     inkscape:window-width="2560"
     inkscape:window-height="1361"
     inkscape:window-x="0"
     inkscape:window-y="0"
     inkscape:window-maximized="1"
     inkscape:current-layer="svg14" />
  <g
     fill-rule="evenodd"
     stroke-width=".29"
     id="g8">
    <path
       fill="#db4437"
       d="M8.465 1.323a7.117 7.117 0 0 0-5.714 2.859l3.57 5.356 4.645.929-2.144-5.215h6.022a7.122 7.122 0 0 0-6.379-3.93z"
       id="path2"
       style="fill:#c7484a" />
    <path
       fill="#0f9d58"
       d="M2.753 4.18a7.184 7.183 0 0 0-1.43 4.309 7.11 7.11 0 0 0 7.144 7.12l2.5-5.12-4.643-.951z"
       id="path4"
       style="fill:#44c367" />
    <path
       fill="#ffcd40"
       d="m8.823 5.25 2.143 5.216-2.5 5.143a7.129 7.128 0 0 0 7.144-7.144c0-1.16-.28-2.248-.765-3.215z"
       id="path6"
       style="fill:#fdc88e" />
  </g>
  <path
     fill="#fff"
     d="M8.469 5.025a3.432 3.432 0 0 1 3.44 3.44 3.432 3.432 0 0 1-3.44 3.44 3.432 3.432 0 0 1-3.44-3.44 3.432 3.432 0 0 1 3.44-3.44z"
     id="path10"
     style="fill:#f8f8f2" />
  <path
     fill="#2566d3"
     d="M8.469 5.819a2.64 2.64 0 0 1 2.646 2.646 2.64 2.64 0 0 1-2.646 2.645 2.64 2.64 0 0 1-2.646-2.645 2.64 2.64 0 0 1 2.646-2.646z"
     id="path12"
     style="fill:#168daa" />
</svg>
