<?xml version="1.0" encoding="UTF-8" standalone="no"?>
<svg
   width="64"
   height="64"
   version="1.1"
   id="svg8"
   sodipodi:docname="goverlay.svg"
   inkscape:version="1.2.2 (b0a8486541, 2022-12-01)"
   xmlns:inkscape="http://www.inkscape.org/namespaces/inkscape"
   xmlns:sodipodi="http://sodipodi.sourceforge.net/DTD/sodipodi-0.dtd"
   xmlns="http://www.w3.org/2000/svg"
   xmlns:svg="http://www.w3.org/2000/svg">
  <defs
     id="defs12" />
  <sodipodi:namedview
     id="namedview10"
     pagecolor="#505050"
     bordercolor="#eeeeee"
     borderopacity="1"
     inkscape:showpageshadow="0"
     inkscape:pageopacity="0"
     inkscape:pagecheckerboard="0"
     inkscape:deskcolor="#505050"
     showgrid="false"
     inkscape:zoom="15.921875"
     inkscape:cx="29.895976"
     inkscape:cy="32.031403"
     inkscape:window-width="2560"
     inkscape:window-height="1361"
     inkscape:window-x="0"
     inkscape:window-y="0"
     inkscape:window-maximized="1"
     inkscape:current-layer="svg8" />
  <circle
     cx="32"
     cy="32"
     r="27"
     fill="#c9e11c"
     id="circle2"
     style="fill:#7afa99" />
  <path
     fill="#f8f8f2"
     d="M20.261 19.087a2.343 2.343 0 0 0-2.348 2.348v14.087c0 1.3 1.047 2.348 2.348 2.348h16.435c1.3 0 2.348-1.047 2.348-2.348V21.435c0-1.3-1.047-2.348-2.348-2.348zm19.957 3.522v14.087c0 1.3-1.047 2.348-2.348 2.348H21.435c0 1.3 1.047 2.347 2.348 2.347h16.435c1.3 0 2.348-1.047 2.348-2.347V24.957a2.343 2.343 0 0 0-2.348-2.348zm3.522 3.521v14.087a2.343 2.343 0 0 1-2.348 2.348H24.957c0 1.3 1.047 2.348 2.348 2.348H43.74c1.3 0 2.348-1.047 2.348-2.348V28.478c0-1.3-1.048-2.348-2.348-2.348z"
     style="paint-order:normal"
     id="path4" />
  <path
     fill="#4b4b4b"
     d="M20.261 21.435h16.435v14.087H20.261z"
     style="paint-order:normal;fill:#44475a"
     id="path6" />
</svg>
