<?xml version="1.0" encoding="UTF-8" standalone="no"?>
<svg
   width="64"
   height="64"
   version="1.1"
   id="svg75"
   sodipodi:docname="gparted.svg"
   inkscape:version="1.2.2 (b0a8486541, 2022-12-01)"
   xmlns:inkscape="http://www.inkscape.org/namespaces/inkscape"
   xmlns:sodipodi="http://sodipodi.sourceforge.net/DTD/sodipodi-0.dtd"
   xmlns:xlink="http://www.w3.org/1999/xlink"
   xmlns="http://www.w3.org/2000/svg"
   xmlns:svg="http://www.w3.org/2000/svg">
  <sodipodi:namedview
     id="namedview77"
     pagecolor="#505050"
     bordercolor="#eeeeee"
     borderopacity="1"
     inkscape:showpageshadow="0"
     inkscape:pageopacity="0"
     inkscape:pagecheckerboard="0"
     inkscape:deskcolor="#505050"
     showgrid="false"
     inkscape:zoom="15.921875"
     inkscape:cx="29.895976"
     inkscape:cy="32.031403"
     inkscape:window-width="2560"
     inkscape:window-height="1361"
     inkscape:window-x="0"
     inkscape:window-y="0"
     inkscape:window-maximized="1"
     inkscape:current-layer="svg75" />
  <defs
     id="defs9">
    <path
       id="a"
       d="M5 10A5 5 0 1 1 5 0a5 5 0 0 1 0 10z" />
    <path
       id="b"
       d="M2.429 9.29A5.023 5.023 0 0 1 .507 7.196l8.979-4.408a5.02 5.02 0 0 0-1.399-1.722L2.43 9.289z" />
    <linearGradient
       id="c"
       x1="5"
       x2="5"
       y1="6"
       y2="4"
       gradientTransform="translate(27,22)"
       gradientUnits="userSpaceOnUse">
      <stop
         stop-color="#E2E096"
         offset="0"
         id="stop4"
         style="stop-color:#f1fa8c;stop-opacity:1;" />
      <stop
         stop-color="#F9F8D2"
         offset="1"
         id="stop6"
         style="stop-color:#f3faa6;stop-opacity:1;" />
    </linearGradient>
  </defs>
  <path
     d="m48 27.122c0 8.715-7.163 15.878-16 15.878s-16-7.163-16-15.878c0-8.958 7.163-16.122 16-16.122s16 7.164 16 16.122"
     fill="#44475a"
     fill-rule="evenodd"
     id="path11"
     style="fill:#44475a" />
  <circle
     cx="32"
     cy="32"
     r="27"
     fill="#9ea0a6"
     style="paint-order:stroke fill markers;fill:#9ea0a6"
     id="circle13" />
  <path
     d="m32 6.0004a26 26 0 0 0-26 26 26 26 0 0 0 1.04 7.2352v-2.0352c0-1.7285 1.3915-3.12 3.12-3.12h1.2736a21.84 21.84 0 0 0 18.486 14.454v5.3056c0 1.7285-1.3915 3.12-3.12 3.12h-2.0069a26 26 0 0 0 7.2068 1.04 26 26 0 0 0 26-26 26 26 0 0 0-26-26z"
     fill="#cbcccc"
     stroke-width="1.04"
     style="paint-order:stroke fill markers;fill:#cbcccc"
     id="path15" />
  <g
     transform="translate(-2,2)"
     id="g21">
    <path
       d="m53 13a2 2 0 1 1-4 0 2 2 0 0 1 4 0z"
       fill="#717380"
       id="path17"
       style="fill:#717380" />
    <path
       d="m52 13a1 1 0 1 0-2 0 1 1 0 0 0 2 0z"
       fill="#f8f8f2"
       id="path19"
       style="fill:#f8f8f2" />
  </g>
  <g
     transform="translate(0,4)"
     id="g27">
    <path
       d="m17 11a2 2 0 1 1-4 0 2 2 0 0 1 4 0z"
       fill="#717380"
       id="path23"
       style="fill:#717380" />
    <path
       d="m16 11a1 1 0 1 0-2 0 1 1 0 0 0 2 0z"
       fill="#f8f8f2"
       id="path25"
       style="fill:#f8f8f2" />
  </g>
  <path
     d="m48 27.122c0 8.715-7.163 15.878-16 15.878s-16-7.163-16-15.878c0-8.958 7.163-16.122 16-16.122s16 7.164 16 16.122"
     fill="#44475a"
     fill-rule="evenodd"
     id="path29"
     style="fill:#44475a" />
  <path
     d="m32 10c-9.388 0-17 7.61-17 17 0 9.388 7.612 17 17 17s17-7.612 17-17c0-9.39-7.612-17-17-17zm10.417 27.418a14.714 14.714 0 0 1-4.683 3.159 14.646 14.646 0 0 1-5.734 1.155c-1.99 0-3.92-0.388-5.734-1.155a14.714 14.714 0 0 1-4.683-3.16 14.67 14.67 0 0 1-4.317-10.417 14.676 14.676 0 0 1 4.316-10.417 14.658 14.658 0 0 1 4.684-3.16 14.632 14.632 0 0 1 5.734-1.155c1.99 0 3.92 0.39 5.734 1.157a14.655 14.655 0 0 1 4.683 3.158 14.676 14.676 0 0 1 4.317 10.417 14.673 14.673 0 0 1-4.316 10.418z"
     fill="#717380"
     id="path31"
     style="fill:#717380" />
  <g
     transform="matrix(-1,0,0,1,44,46)"
     fill="#9ea0a6"
     fill-rule="evenodd"
     id="g43"
     style="fill:#9ea0a6">
    <rect
       width="1"
       height="7"
       rx=".5"
       id="rect33"
       style="fill:#9ea0a6" />
    <rect
       x="2"
       width="1"
       height="7"
       rx=".5"
       id="rect35"
       style="fill:#9ea0a6" />
    <rect
       x="4"
       width="1"
       height="7"
       rx=".5"
       id="rect37"
       style="fill:#9ea0a6" />
    <rect
       x="6"
       width="1"
       height="7"
       rx=".5"
       id="rect39"
       style="fill:#9ea0a6" />
    <rect
       x="8"
       width="1"
       height="7"
       rx=".5"
       id="rect41"
       style="fill:#9ea0a6" />
  </g>
  <g
     transform="translate(-3,-2)"
     id="g49">
    <path
       d="m53 51a2 2 0 1 1-4 0 2 2 0 0 1 4 0z"
       fill="#717380"
       id="path45"
       style="fill:#717380" />
    <path
       d="m52 51a1 1 0 1 0-2 0 1 1 0 0 0 2 0z"
       fill="#f8f8f2"
       id="path47"
       style="fill:#f8f8f2" />
  </g>
  <g
     transform="translate(0,-4)"
     id="g55">
    <path
       d="m17 53a2 2 0 1 1-4 0 2 2 0 0 1 4 0z"
       fill="#717380"
       id="path51"
       style="fill:#717380" />
    <path
       d="m16 53a1 1 0 1 0-2 0 1 1 0 0 0 2 0z"
       fill="#f8f8f2"
       id="path53"
       style="fill:#f8f8f2" />
  </g>
  <circle
     cx="32"
     cy="27"
     r="2"
     fill="#f8f8f2"
     style="paint-order:markers stroke fill;fill:#f8f8f2"
     id="circle57" />
  <g
     fill-rule="evenodd"
     id="g69">
    <path
       d="M 18.292,17.277 25,12 39.387,42.27 45.873,36.775 Z"
       fill="#f8f8f2"
       opacity=".1"
       id="path59"
       style="fill:#f8f8f2" />
    <use
       transform="translate(27,22)"
       width="100%"
       height="100%"
       fill="#1a1a1a"
       xlink:href="#a"
       id="use61"
       style="fill:#282a36" />
    <use
       transform="translate(27.003,22.007)"
       width="100%"
       height="100%"
       fill="#f8f8f2"
       opacity=".1"
       xlink:href="#b"
       id="use63"
       style="fill:#f8f8f2" />
    <path
       d="m32 30a3 3 0 1 1 0-6 3 3 0 0 1 0 6z"
       fill="#717380"
       id="path65" />
    <path
       d="m33 27a1 1 0 1 1-2 0 1 1 0 0 1 2 0"
       fill="url(#c)"
       id="path67" />
  </g>
  <path
     d="m32 10c-9.388 0-17 7.61-17 17 0 9.388 7.612 17 17 17s17-7.612 17-17c0-9.39-7.612-17-17-17zm10.417 27.418a14.714 14.714 0 0 1-4.683 3.159 14.646 14.646 0 0 1-5.734 1.155c-1.99 0-3.92-0.388-5.734-1.155a14.714 14.714 0 0 1-4.683-3.16 14.67 14.67 0 0 1-4.317-10.417 14.676 14.676 0 0 1 4.316-10.417 14.658 14.658 0 0 1 4.684-3.16 14.632 14.632 0 0 1 5.734-1.155c1.99 0 3.92 0.39 5.734 1.157a14.655 14.655 0 0 1 4.683 3.158 14.676 14.676 0 0 1 4.317 10.417 14.673 14.673 0 0 1-4.316 10.418z"
     fill="#717380"
     id="path71"
     style="fill:#717380" />
  <path
     d="m25.298 50.578 12.326-15.323c0.176-0.205 0.282-0.468 0.282-0.755 0-0.643-0.533-1.165-1.191-1.165-0.293 0-0.562 0.102-0.77 0.276l-15.644 12.074a3.47 3.47 0 0 0-1.452 2.815c0 1.935 1.6 3.5 3.574 3.5a3.59 3.59 0 0 0 2.875-1.422z"
     fill="#f8f8f2"
     id="path73"
     style="fill:#f8f8f2" />
</svg>
