<?xml version="1.0" encoding="UTF-8" standalone="no"?>
<svg
   width="64"
   height="64"
   version="1.1"
   viewBox="0 0 16.933 16.933"
   id="svg14"
   sodipodi:docname="gtkhash.svg"
   inkscape:version="1.2.2 (b0a8486541, 2022-12-01)"
   xmlns:inkscape="http://www.inkscape.org/namespaces/inkscape"
   xmlns:sodipodi="http://sodipodi.sourceforge.net/DTD/sodipodi-0.dtd"
   xmlns="http://www.w3.org/2000/svg"
   xmlns:svg="http://www.w3.org/2000/svg">
  <defs
     id="defs18" />
  <sodipodi:namedview
     id="namedview16"
     pagecolor="#505050"
     bordercolor="#eeeeee"
     borderopacity="1"
     inkscape:showpageshadow="0"
     inkscape:pageopacity="0"
     inkscape:pagecheckerboard="0"
     inkscape:deskcolor="#505050"
     showgrid="false"
     inkscape:zoom="12.96875"
     inkscape:cx="29.378313"
     inkscape:cy="32"
     inkscape:window-width="1920"
     inkscape:window-height="1001"
     inkscape:window-x="0"
     inkscape:window-y="0"
     inkscape:window-maximized="1"
     inkscape:current-layer="svg14" />
  <circle
     cx="8.4665"
     cy="8.46"
     r="7.1436"
     fill="#f55"
     style="paint-order:stroke markers fill"
     id="circle2" />
  <path
     transform="scale(.26458)"
     d="m58.072 25.008-26.072 6.9863v26.98a27 27 0 0 0 27-27 27 27 0 0 0-0.92773-6.9668z"
     fill="#7cce44"
     fill-rule="evenodd"
     style="paint-order:stroke fill markers;fill:#44c367"
     id="path4" />
  <path
     d="m1.5683 6.6165 6.8982 1.8484v7.1384a7.1436 7.1436 0 0 1-7.1436-7.1436 7.1436 7.1436 0 0 1 0.24546-1.8433z"
     fill="#5f8bea"
     fill-rule="evenodd"
     style="paint-order:stroke fill markers;fill:#6272a4"
     id="path6" />
  <circle
     cx="8.4665"
     cy="8.46"
     r="6.0853"
     fill="#f8f8f2"
     opacity=".1"
     style="paint-order:stroke markers fill"
     id="circle8" />
  <g
     fill="#f8f8f2"
     aria-label="#"
     id="g12">
    <path
       d="m10.147 7.6157-0.33202 1.7016h1.4526v0.70554h-1.5771l-0.45653 2.2411h-0.74704l0.45653-2.2411h-1.5356l-0.41502 2.2411h-0.74704l0.41502-2.2411h-1.3696v-0.70554h1.4941l0.33202-1.7016h-1.4111v-0.70554h1.5356l0.45653-2.2411h0.74704l-0.41502 2.2411h1.4941l0.45653-2.2411h0.74704l-0.45653 2.2411h1.3696v0.70554zm-2.6147 1.7016h1.5356l0.33202-1.7016h-1.5356z"
       fill="#f8f8f2"
       stroke-width=".26458"
       id="path10" />
  </g>
</svg>
