<?xml version="1.0" encoding="UTF-8" standalone="no"?>
<svg
   width="64"
   height="64"
   version="1.1"
   id="svg16"
   sodipodi:docname="gtranslator.svg"
   inkscape:version="1.2.2 (b0a8486541, 2022-12-01)"
   xmlns:inkscape="http://www.inkscape.org/namespaces/inkscape"
   xmlns:sodipodi="http://sodipodi.sourceforge.net/DTD/sodipodi-0.dtd"
   xmlns="http://www.w3.org/2000/svg"
   xmlns:svg="http://www.w3.org/2000/svg">
  <defs
     id="defs20" />
  <sodipodi:namedview
     id="namedview18"
     pagecolor="#505050"
     bordercolor="#eeeeee"
     borderopacity="1"
     inkscape:showpageshadow="0"
     inkscape:pageopacity="0"
     inkscape:pagecheckerboard="0"
     inkscape:deskcolor="#505050"
     showgrid="false"
     inkscape:zoom="15.921875"
     inkscape:cx="29.895976"
     inkscape:cy="32.031403"
     inkscape:window-width="2560"
     inkscape:window-height="1361"
     inkscape:window-x="0"
     inkscape:window-y="0"
     inkscape:window-maximized="1"
     inkscape:current-layer="svg16" />
  <circle
     cx="32"
     cy="32"
     r="27"
     fill="#cbcccc"
     id="circle2" />
  <g
     transform="translate(13.037 13.037) scale(.59259)"
     id="g14">
    <rect
       width="36"
       height="36"
       x="5"
       y="23"
       fill="#f8f8f2"
       rx="5"
       ry="5"
       style="paint-order:stroke fill markers"
       id="rect4" />
    <path
       fill="#5e5c64"
       d="M21.681 40.717a93.578 93.578 0 0 0 1.213-4.426h.096c.404 1.463.789 3.017 1.231 4.426l.424 1.481h-3.387zm-4.926 7.059h2.886l1-3.475h4.62l1 3.475h2.983l-4.58-13.551h-3.349z"
       aria-label="A"
       id="path6"
       style="fill:#717380" />
    <rect
       width="36"
       height="36"
       x="23"
       y="5"
       fill="#5aa9f6"
       rx="5"
       ry="5"
       style="paint-order:stroke fill markers;fill:#13b1d5"
       id="rect8" />
    <path
       fill="#f8f8f2"
       d="M44.005 28.429h2.974V27.25h1.22v2.912h-6.527v-1.82q1.39-.3 2.102-1.733t.712-3.94q0-2.78-.89-4.23-.89-1.462-2.6-1.462t-2.6 1.461q-.882 1.451-.882 4.25 0 2.46.722 3.911.72 1.442 2.092 1.744v1.819h-6.536V27.25h1.211v1.178h2.983q-2.11-.867-3.196-2.375-1.087-1.517-1.087-3.59 0-2.979 1.995-4.798 2.003-1.828 5.298-1.828 3.294 0 5.297 1.828 2.004 1.82 2.004 4.797 0 2.074-1.086 3.59-1.087 1.509-3.206 2.376z"
       aria-label="ð›€"
       id="path10" />
    <path
       fill="#33d17a"
       d="m27.48 21.814.742 2.267 5.17-5.696L25.877 16l.438 2.097c-7.413 3.735-8.186 7.005-9.207 10.293l4.003.708c.945-3.993 3.438-6.032 6.368-7.285zm8.992 18.877-.742-2.267-5.17 5.696 7.514 2.385-.438-2.097c7.413-3.735 8.186-7.005 9.207-10.293l-4.003-.708c-.945 3.993-3.438 6.032-6.368 7.285z"
       id="path12"
       style="fill:#7afa99" />
  </g>
</svg>
