<?xml version="1.0" encoding="UTF-8" standalone="no"?>
<svg
   width="64"
   height="64"
   version="1.1"
   viewBox="0 0 16.933 16.933"
   id="svg31800"
   sodipodi:docname="gufw.svg"
   inkscape:version="1.2.2 (b0a8486541, 2022-12-01)"
   xmlns:inkscape="http://www.inkscape.org/namespaces/inkscape"
   xmlns:sodipodi="http://sodipodi.sourceforge.net/DTD/sodipodi-0.dtd"
   xmlns="http://www.w3.org/2000/svg"
   xmlns:svg="http://www.w3.org/2000/svg">
  <defs
     id="defs31804" />
  <sodipodi:namedview
     id="namedview31802"
     pagecolor="#505050"
     bordercolor="#eeeeee"
     borderopacity="1"
     inkscape:showpageshadow="0"
     inkscape:pageopacity="0"
     inkscape:pagecheckerboard="0"
     inkscape:deskcolor="#505050"
     showgrid="false"
     inkscape:zoom="15.921875"
     inkscape:cx="29.895976"
     inkscape:cy="32.031403"
     inkscape:window-width="2560"
     inkscape:window-height="1361"
     inkscape:window-x="0"
     inkscape:window-y="0"
     inkscape:window-maximized="1"
     inkscape:current-layer="svg31800" />
  <circle
     cx="8.4665"
     cy="8.4665"
     r="7.1436"
     fill="#f8f8f2"
     style="paint-order:stroke fill markers;fill:#cbcccc"
     id="circle31788" />
  <g
     transform="matrix(.66665 0 0 .66665 2.8219 -183.18)"
     id="g31798">
    <path
       d="m8.45 281.65a17.984 16.236 0 0 0-6.333 1.048v4.17c0.03 1.967 0.157 3.596 1.069 4.799 1.099 1.443 2.925 2.715 5.28 3.742 2.35-1.024 4.19-2.299 5.287-3.742 0.911-1.203 1.033-2.832 1.064-4.8v-4.145a17.984 16.236 0 0 0-6.366-1.072z"
       fill="#67d388"
       style="paint-order:markers stroke fill;fill:#44c367"
       id="path31790" />
    <path
       d="m8.467 281.66v13.758c2.35-1.024 4.188-2.299 5.286-3.742 0.912-1.203 1.033-2.832 1.064-4.8v-4.146a17.984 16.236 0 0 0-6.35-1.07z"
       opacity=".1"
       id="path31792" />
    <rect
       transform="rotate(45)"
       x="207.09"
       y="198.97"
       width="4.233"
       height=".794"
       ry="0"
       fill="#f8f8f2"
       style="paint-order:markers stroke fill;fill:#f8f8f2"
       id="rect31794" />
    <rect
       transform="rotate(-45)"
       x="-199.77"
       y="210.53"
       width="6.35"
       height=".794"
       ry="0"
       fill="#f8f8f2"
       style="paint-order:markers stroke fill;fill:#f8f8f2"
       id="rect31796" />
  </g>
</svg>
