<?xml version="1.0" encoding="UTF-8" standalone="no"?>
<svg
   width="64"
   height="64"
   version="1.1"
   viewBox="0 0 64 64"
   id="svg20"
   sodipodi:docname="guiscrcpy.svg"
   inkscape:version="1.2.2 (b0a8486541, 2022-12-01)"
   xmlns:inkscape="http://www.inkscape.org/namespaces/inkscape"
   xmlns:sodipodi="http://sodipodi.sourceforge.net/DTD/sodipodi-0.dtd"
   xmlns="http://www.w3.org/2000/svg"
   xmlns:svg="http://www.w3.org/2000/svg">
  <defs
     id="defs24" />
  <sodipodi:namedview
     id="namedview22"
     pagecolor="#505050"
     bordercolor="#eeeeee"
     borderopacity="1"
     inkscape:showpageshadow="0"
     inkscape:pageopacity="0"
     inkscape:pagecheckerboard="0"
     inkscape:deskcolor="#505050"
     showgrid="false"
     inkscape:zoom="15.921875"
     inkscape:cx="29.895976"
     inkscape:cy="32.031403"
     inkscape:window-width="2560"
     inkscape:window-height="1361"
     inkscape:window-x="0"
     inkscape:window-y="0"
     inkscape:window-maximized="1"
     inkscape:current-layer="svg20" />
  <circle
     cx="32"
     cy="32"
     r="27"
     fill="#5bd79d"
     stroke-width=".96429"
     id="circle2"
     style="fill:#7afa99" />
  <g
     transform="matrix(1.2005 0 0 1.2005 -6.4176 -5.0604)"
     stroke-width="1.1304"
     id="g18">
    <path
       d="m22.957 20.696-4.5217 2.2609v5.6522l4.5217 2.2609 4.5217-2.2609v-5.6522zm16.957 10.174-4.5217 2.2609v5.6522l4.5217 2.2609 4.5217-2.2609v-5.6522z"
       fill="#e6a042"
       id="path4"
       style="fill:#ffb86c" />
    <rect
       x="24.087"
       y="16.174"
       width="15.826"
       height="29.391"
       ry="1.1304"
       fill="#3d3d3d"
       id="rect6"
       style="fill:#44475a" />
    <path
       d="m44.435 20.696-3.3913 1.6957v4.5217l3.3913 1.6957 3.3913-1.6957v-4.5217zm-24.87 13-3.3913 1.6957v4.5217l3.3913 1.6957 3.3913-1.6957v-4.5217z"
       fill="#495dae"
       id="path8"
       style="fill:#515d85" />
    <rect
       x="25.217"
       y="18.435"
       width="13.565"
       height="23.739"
       fill="#933bb9"
       id="rect10"
       style="fill:#9576c5" />
    <rect
       x="29.739"
       y="43.304"
       width="4.5217"
       height="1.1304"
       ry=".56522"
       fill="#717380"
       id="rect12" />
    <path
       d="m26.909 33.13a0.56369 0.56369 0 0 0-0.46144 0.88315l1.7133 2.5699c-1.7776 1.2228-2.9431 3.2697-2.9431 5.5903h13.565c0-2.3207-1.1655-4.3675-2.9431-5.5903l1.7133-2.5699a0.56369 0.56369 0 0 0-0.47911-0.88315 0.56369 0.56369 0 0 0-0.45924 0.25833l-1.7596 2.6384c-0.86863-0.40421-1.8336-0.63587-2.8548-0.63587s-1.9862 0.23166-2.8548 0.63587l-1.7596-2.6384a0.56369 0.56369 0 0 0-0.47691-0.25833zm2.2653 5.6522a0.56522 0.56522 0 0 1 0.56522 0.56522 0.56522 0.56522 0 0 1-0.56522 0.56522 0.56522 0.56522 0 0 1-0.56522-0.56522 0.56522 0.56522 0 0 1 0.56522-0.56522zm5.6522 0a0.56522 0.56522 0 0 1 0.56522 0.56522 0.56522 0.56522 0 0 1-0.56522 0.56522 0.56522 0.56522 0 0 1-0.56522-0.56522 0.56522 0.56522 0 0 1 0.56522-0.56522z"
       fill="#5be19b"
       id="path14"
       style="fill:#50fa7b" />
    <path
       d="m30.87 16.174v0.56522c0 0.31313 0.25209 0.56522 0.56522 0.56522h1.1304c0.31313 0 0.56522-0.25209 0.56522-0.56522v-0.56522z"
       fill="#717380"
       id="path16" />
  </g>
</svg>
