<?xml version="1.0" encoding="UTF-8" standalone="no"?>
<svg
   width="64"
   height="64"
   version="1"
   id="svg28"
   sodipodi:docname="guitarix.svg"
   inkscape:version="1.2.2 (b0a8486541, 2022-12-01)"
   xmlns:inkscape="http://www.inkscape.org/namespaces/inkscape"
   xmlns:sodipodi="http://sodipodi.sourceforge.net/DTD/sodipodi-0.dtd"
   xmlns="http://www.w3.org/2000/svg"
   xmlns:svg="http://www.w3.org/2000/svg">
  <defs
     id="defs32" />
  <sodipodi:namedview
     id="namedview30"
     pagecolor="#505050"
     bordercolor="#eeeeee"
     borderopacity="1"
     inkscape:showpageshadow="0"
     inkscape:pageopacity="0"
     inkscape:pagecheckerboard="0"
     inkscape:deskcolor="#505050"
     showgrid="false"
     inkscape:zoom="15.921875"
     inkscape:cx="29.895976"
     inkscape:cy="32.031403"
     inkscape:window-width="2560"
     inkscape:window-height="1361"
     inkscape:window-x="0"
     inkscape:window-y="0"
     inkscape:window-maximized="1"
     inkscape:current-layer="svg28" />
  <circle
     cx="32"
     cy="32"
     r="27"
     fill="#f8f8f2"
     stroke-linecap="square"
     stroke-width=".92733"
     id="circle2" />
  <g
     transform="matrix(.69231 0 0 .69231 9.8462 9.8462)"
     id="g26">
    <g
       transform="translate(2)"
       fill="#44475a"
       id="g8">
      <rect
         x="4"
         y="24.778"
         width="52"
         height="31.778"
         rx="4"
         ry="3.9722"
         stroke-width=".90535"
         id="rect4" />
      <rect
         x="4"
         y="7.4444"
         width="52"
         height="17.333"
         rx="4"
         ry="3.8519"
         stroke-width=".85534"
         id="rect6" />
    </g>
    <path
       d="m20.444 29.111a11.556 11.556 0 0 0-11.556 11.556 11.556 11.556 0 0 0 11.556 11.556 11.556 11.556 0 0 0 11.556-11.556 11.556 11.556 0 0 0-11.556-11.556zm0 6.7407a4.8148 4.8148 0 0 1 4.8148 4.8148 4.8148 4.8148 0 0 1-4.8148 4.8148 4.8148 4.8148 0 0 1-4.8148-4.8148 4.8148 4.8148 0 0 1 4.8148-4.8148z"
       fill="#cbcccc"
       stroke-width=".96296"
       id="path10" />
    <rect
       x="8"
       y="9"
       width="48"
       height="14"
       rx="2"
       ry="2"
       fill="#63a535"
       id="rect12"
       style="fill:#44c367" />
    <circle
       cx="14.667"
       cy="16.111"
       r="2.8889"
       fill="#44475a"
       stroke-width=".96296"
       id="circle14" />
    <rect
       x="45"
       y="13.222"
       width="5.7778"
       height="5.7778"
       rx="2.8889"
       ry="2.8889"
       fill="#983a0e"
       stroke-width=".96296"
       id="rect16"
       style="fill:#c7484a" />
    <rect
       x="46.444"
       y="14.667"
       width="2.8889"
       height="2.8889"
       rx="1.4444"
       ry="1.4444"
       fill="#f7bf32"
       stroke-width="1.4444"
       id="rect18"
       style="fill:#ffb86c" />
    <circle
       cx="21.889"
       cy="16.111"
       r="2.8889"
       fill="#44475a"
       stroke-width=".96296"
       id="circle20" />
    <circle
       cx="29.111"
       cy="16.111"
       r="2.8889"
       fill="#44475a"
       stroke-width=".96296"
       id="circle22" />
    <path
       d="m43.556 29.111a11.556 11.556 0 0 0-11.556 11.556 11.556 11.556 0 0 0 11.556 11.556 11.556 11.556 0 0 0 11.556-11.556 11.556 11.556 0 0 0-11.556-11.556zm0 6.7407a4.8148 4.8148 0 0 1 4.8148 4.8148 4.8148 4.8148 0 0 1-4.8148 4.8148 4.8148 4.8148 0 0 1-4.8148-4.8148 4.8148 4.8148 0 0 1 4.8148-4.8148z"
       fill="#cbcccc"
       stroke-width=".96296"
       id="path24" />
  </g>
</svg>
