<?xml version="1.0" encoding="UTF-8" standalone="no"?>
<svg
   width="64"
   height="64"
   version="1.1"
   id="svg4"
   sodipodi:docname="gwenview.svg"
   inkscape:version="1.3.2 (091e20ef0f, 2023-11-25, custom)"
   xmlns:inkscape="http://www.inkscape.org/namespaces/inkscape"
   xmlns:sodipodi="http://sodipodi.sourceforge.net/DTD/sodipodi-0.dtd"
   xmlns="http://www.w3.org/2000/svg"
   xmlns:svg="http://www.w3.org/2000/svg">
  <defs
     id="defs4" />
  <sodipodi:namedview
     id="namedview4"
     pagecolor="#505050"
     bordercolor="#ffffff"
     borderopacity="1"
     inkscape:showpageshadow="0"
     inkscape:pageopacity="0"
     inkscape:pagecheckerboard="1"
     inkscape:deskcolor="#505050"
     inkscape:zoom="12.453125"
     inkscape:cx="32"
     inkscape:cy="32"
     inkscape:window-width="1920"
     inkscape:window-height="1013"
     inkscape:window-x="0"
     inkscape:window-y="0"
     inkscape:window-maximized="1"
     inkscape:current-layer="svg4" />
  <rect
     width="58"
     height="46"
     x="3"
     y="9"
     fill="#37474f"
     rx="6"
     ry="6"
     id="rect1" />
  <rect
     width="50"
     height="38"
     x="7"
     y="13"
     fill="#a341b4"
     rx="2"
     ry="2"
     id="rect2"
     style="fill:#c7639f" />
  <path
     fill="#f4416b"
     fill-rule="evenodd"
     d="M9 13c-1.108 0-2 .892-2 2v34c0 .477.172.909.45 1.252L29.917 13H9z"
     id="path2"
     style="fill:#c7484a" />
  <path
     fill="#8a5cd8"
     fill-rule="evenodd"
     d="M57 18.211 7.717 50.525c.333.28.756.455 1.225.469h46.117A1.992 1.992 0 0 0 57 49V18.21z"
     id="path3"
     style="fill:#9576c5" />
  <path
     fill="#46a9d6"
     fill-rule="evenodd"
     d="M57 41.006 8.102 50.779c.271.137.573.221.898.221h46c1.108 0 2-.892 2-2v-7.994z"
     id="path4"
     style="fill:#168daa" />
</svg>
