<?xml version="1.0" encoding="UTF-8" standalone="no"?>
<svg
   width="64"
   height="64"
   version="1.1"
   id="svg6"
   sodipodi:docname="hatari.svg"
   inkscape:version="1.2.2 (b0a8486541, 2022-12-01)"
   xmlns:inkscape="http://www.inkscape.org/namespaces/inkscape"
   xmlns:sodipodi="http://sodipodi.sourceforge.net/DTD/sodipodi-0.dtd"
   xmlns="http://www.w3.org/2000/svg"
   xmlns:svg="http://www.w3.org/2000/svg">
  <defs
     id="defs10" />
  <sodipodi:namedview
     id="namedview8"
     pagecolor="#505050"
     bordercolor="#eeeeee"
     borderopacity="1"
     inkscape:showpageshadow="0"
     inkscape:pageopacity="0"
     inkscape:pagecheckerboard="0"
     inkscape:deskcolor="#505050"
     showgrid="false"
     inkscape:zoom="15.921875"
     inkscape:cx="29.895976"
     inkscape:cy="32.031403"
     inkscape:window-width="2560"
     inkscape:window-height="1361"
     inkscape:window-x="0"
     inkscape:window-y="0"
     inkscape:window-maximized="1"
     inkscape:current-layer="svg6" />
  <circle
     cx="32"
     cy="32"
     r="27"
     fill="#1a861c"
     id="circle2"
     style="fill:#44c367" />
  <path
     d="m20.571 16c-0.94674 9.5e-5 -1.7142 0.76755-1.7143 1.7143v28.571c9.5e-5 0.94673 0.76755 1.7142 1.7143 1.7143h5.1429c0.94674-9.5e-5 1.7142-0.76755 1.7143-1.7143v-9.1429h9.1429v9.1429c9.5e-5 0.94673 0.76755 1.7142 1.7143 1.7143h5.1429c0.94673-9.5e-5 1.7142-0.76755 1.7143-1.7143v-28.571c-9.5e-5 -0.94673-0.76755-1.7142-1.7143-1.7143h-5.1429c-0.94673 9.5e-5 -1.7142 0.76755-1.7143 1.7143v10.857h-9.1429v-10.857c-9.5e-5 -0.94673-0.76755-1.7142-1.7143-1.7143z"
     fill="#ffffff"
     stroke-width=".57143"
     id="path4"
     style="fill:#f8f8f2" />
</svg>
