<?xml version="1.0" encoding="UTF-8" standalone="no"?>
<svg
   width="64"
   height="64"
   version="1"
   id="svg32"
   sodipodi:docname="hedgewars.svg"
   inkscape:version="1.2.2 (b0a8486541, 2022-12-01)"
   xmlns:inkscape="http://www.inkscape.org/namespaces/inkscape"
   xmlns:sodipodi="http://sodipodi.sourceforge.net/DTD/sodipodi-0.dtd"
   xmlns="http://www.w3.org/2000/svg"
   xmlns:svg="http://www.w3.org/2000/svg">
  <defs
     id="defs36" />
  <sodipodi:namedview
     id="namedview34"
     pagecolor="#505050"
     bordercolor="#eeeeee"
     borderopacity="1"
     inkscape:showpageshadow="0"
     inkscape:pageopacity="0"
     inkscape:pagecheckerboard="0"
     inkscape:deskcolor="#505050"
     showgrid="false"
     inkscape:zoom="15.921875"
     inkscape:cx="29.895976"
     inkscape:cy="32.031403"
     inkscape:window-width="2560"
     inkscape:window-height="1361"
     inkscape:window-x="0"
     inkscape:window-y="0"
     inkscape:window-maximized="1"
     inkscape:current-layer="svg32" />
  <circle
     cx="32"
     cy="30.583"
     r="27"
     fill="#f8f8f2"
     style="paint-order:stroke fill markers"
     id="circle2" />
  <g
     transform="translate(8.615 8.615) scale(.73077)"
     id="g30">
    <rect
       width="14"
       height="14"
       x="-54"
       y="-54"
       fill="#df82d9"
       rx="7"
       ry="7"
       transform="matrix(0 -1 -1 0 0 0)"
       id="rect4"
       style="fill:#fd99d1" />
    <path
       fill="#72acef"
       d="m8 38 8.43-12.768 6.842 11.851z"
       id="path6"
       style="fill:#4cc3dc" />
    <path
       fill="#4c95eb"
       d="m6 27 14-7v14z"
       id="path8"
       style="fill:#70b7c8" />
    <path
       fill="#3a8ae9"
       d="m8 17.849 14.988-3.067L19.447 28z"
       id="path10"
       style="fill:#13b1d5" />
    <path
       fill="#3074c3"
       d="m14 9.232 15.272.917L22.43 22Z"
       id="path12"
       style="fill:#168daa" />
    <rect
       width="40"
       height="40"
       x="-48"
       y="-58"
       fill="#d761cf"
       rx="20"
       ry="20"
       transform="matrix(0 -1 -1 0 0 0)"
       id="rect14"
       style="fill:#ff79c6" />
    <rect
       width="14"
       height="14"
       x="-56"
       y="-36"
       fill="#df82d9"
       rx="7"
       ry="7"
       transform="matrix(0 -1 -1 0 0 0)"
       id="rect16"
       style="fill:#fd99d1" />
    <g
       fill="#f8f8f2"
       transform="matrix(1.3333 0 0 1.2727 8.667 -2.364)"
       id="g22">
      <ellipse
         cx="26"
         cy="22"
         rx="4"
         ry="5"
         id="ellipse18" />
      <ellipse
         cx="30"
         cy="21"
         rx="4"
         ry="5"
         id="ellipse20" />
    </g>
    <ellipse
       cx="45.5"
       cy="26"
       fill="#1b1b1b"
       rx="1.5"
       ry="2"
       id="ellipse24"
       style="fill:#1e1f29" />
    <path
       fill-rule="evenodd"
       d="M50.598 36c-2.185.525-3.53 2.285-5.685 2.763-1.551.302-3.593-.98-5.046-.264-.814.4-2.923 1.458-1.221 2.14 0 0 1.003.405 2.267.767 1.265.361 2.73.773 4.28.511 1.75-.296 3.16-1.31 4.355-2.202 1.195-.892 2.08-1.73 2.08-1.73.824-.758.192-1.976-1.03-1.986z"
       opacity=".6"
       id="path26"
       style="fill:#1e1f29" />
    <ellipse
       cx="51.5"
       cy="24"
       fill="#1b1b1b"
       rx="1.5"
       ry="2"
       id="ellipse28"
       style="fill:#1e1f29" />
  </g>
</svg>
