<?xml version="1.0" encoding="UTF-8" standalone="no"?>
<svg
   width="64"
   height="64"
   version="1.1"
   id="svg8"
   sodipodi:docname="heroic.svg"
   inkscape:version="1.2.2 (b0a8486541, 2022-12-01)"
   xmlns:inkscape="http://www.inkscape.org/namespaces/inkscape"
   xmlns:sodipodi="http://sodipodi.sourceforge.net/DTD/sodipodi-0.dtd"
   xmlns="http://www.w3.org/2000/svg"
   xmlns:svg="http://www.w3.org/2000/svg">
  <defs
     id="defs12" />
  <sodipodi:namedview
     id="namedview10"
     pagecolor="#505050"
     bordercolor="#eeeeee"
     borderopacity="1"
     inkscape:showpageshadow="0"
     inkscape:pageopacity="0"
     inkscape:pagecheckerboard="0"
     inkscape:deskcolor="#505050"
     showgrid="false"
     inkscape:zoom="15.921875"
     inkscape:cx="29.895976"
     inkscape:cy="32.031403"
     inkscape:window-width="2560"
     inkscape:window-height="1361"
     inkscape:window-x="0"
     inkscape:window-y="0"
     inkscape:window-maximized="1"
     inkscape:current-layer="svg8" />
  <rect
     width="54"
     height="54"
     x="5"
     y="5"
     fill="#3584e4"
     rx="27"
     ry="27"
     id="rect2"
     style="fill:#6272a4" />
  <path
     fill="#3d3846"
     d="m32 10-18 5.803 9.196 31.424L32 54.002l8.804-6.773L50 15.804z"
     id="path4"
     style="fill:#44475a" />
  <path
     fill="#ffc414"
     d="M31.984 11 28 16.2l2.004 24.237L31.996 43l1.984-2.543L36 16.207zm-7.16 30L24 42.992 24.84 45l4.285-.758.875-1.246-.875-1.25zm14.148 0-4.297.746-.875 1.25.875 1.246L38.96 45l.84-2.008zm-6.969 4-1.246.875-.758 4.29 2.008.835 1.992-.824-.75-4.301z"
     id="path6"
     style="fill:#ffb86c" />
</svg>
