<?xml version="1.0" encoding="UTF-8" standalone="no"?>
<svg
   width="64"
   height="64"
   version="1.1"
   viewBox="0 0 16.933 16.933"
   id="svg13"
   sodipodi:docname="hp_logo.svg"
   inkscape:version="1.2.2 (b0a8486541, 2022-12-01)"
   xmlns:inkscape="http://www.inkscape.org/namespaces/inkscape"
   xmlns:sodipodi="http://sodipodi.sourceforge.net/DTD/sodipodi-0.dtd"
   xmlns="http://www.w3.org/2000/svg"
   xmlns:svg="http://www.w3.org/2000/svg">
  <sodipodi:namedview
     id="namedview15"
     pagecolor="#505050"
     bordercolor="#eeeeee"
     borderopacity="1"
     inkscape:showpageshadow="0"
     inkscape:pageopacity="0"
     inkscape:pagecheckerboard="0"
     inkscape:deskcolor="#505050"
     showgrid="false"
     inkscape:zoom="15.921875"
     inkscape:cx="29.895976"
     inkscape:cy="32.031403"
     inkscape:window-width="2560"
     inkscape:window-height="1361"
     inkscape:window-x="0"
     inkscape:window-y="0"
     inkscape:window-maximized="1"
     inkscape:current-layer="svg13" />
  <defs
     id="defs7">
    <linearGradient
       id="linearGradient853"
       x1="1"
       x2="47"
       gradientTransform="matrix(0 -.31062 .31062 0 1.0114 15.916)"
       gradientUnits="userSpaceOnUse">
      <stop
         stop-color="#015093"
         offset="0"
         id="stop2" />
      <stop
         stop-color="#015ca7"
         offset="1"
         id="stop4" />
    </linearGradient>
  </defs>
  <path
     d="m8.4668 1.3146a7.1438 7.1438 0 1 1 0 14.288 7.1438 7.1438 0 0 1 0-14.288z"
     fill="url(#linearGradient853)"
     stroke-width=".96299"
     id="path9"
     style="fill:#6272a4" />
  <path
     transform="scale(.26458)"
     d="m31.182 4.9805a27.001 27.001 0 0 0-5.2949 0.68945l-12.676 36.898h5.0176l6.4043-18.787h3.4746l-6.3203 18.787h5.0488l5.9668-17.49c0.87138-2.516-0.49951-4.8164-3.0391-4.8164h-3.9062l5.3242-15.281zm16.301 15.27-9.2754 0.011719-12.996 37.84a27.001 27.001 0 0 0 4.8125 0.79688l5.6445-16.338h6.6602c1.1854 0 2.4766-0.95532 2.8809-2.125l5.3145-15.371c0.86745-2.516-0.50146-4.8145-3.041-4.8145zm-5.4883 3.5195h3.7832l-5.2461 15.262h-3.7812l5.2441-15.262z"
     fill="#f8f8f2"
     stroke-width="3.6397"
     id="path11" />
</svg>
