<?xml version="1.0" encoding="UTF-8" standalone="no"?>
<svg
   width="64"
   height="64"
   version="1.1"
   id="svg18047"
   sodipodi:docname="hwinfo.svg"
   inkscape:version="1.2.2 (732a01da63, 2022-12-09)"
   xmlns:inkscape="http://www.inkscape.org/namespaces/inkscape"
   xmlns:sodipodi="http://sodipodi.sourceforge.net/DTD/sodipodi-0.dtd"
   xmlns="http://www.w3.org/2000/svg"
   xmlns:svg="http://www.w3.org/2000/svg">
  <defs
     id="defs18051" />
  <sodipodi:namedview
     id="namedview18049"
     pagecolor="#505050"
     bordercolor="#eeeeee"
     borderopacity="1"
     inkscape:showpageshadow="0"
     inkscape:pageopacity="0"
     inkscape:pagecheckerboard="0"
     inkscape:deskcolor="#505050"
     showgrid="false"
     inkscape:zoom="15.921875"
     inkscape:cx="30.932287"
     inkscape:cy="32.125613"
     inkscape:window-width="2560"
     inkscape:window-height="1373"
     inkscape:window-x="-9"
     inkscape:window-y="-9"
     inkscape:window-maximized="1"
     inkscape:current-layer="svg18047" />
  <path
     d="M 32,5 A 27,27 0 0 0 5,32 27,27 0 0 0 13.9082,52 h 36.184 a 27,27 0 0 0 8.9082,-20 27,27 0 0 0 -27,-27 z"
     fill="#388e3c"
     stroke-width="3.7796"
     style="mix-blend-mode:darken;fill:#44c367;paint-order:stroke fill markers;opacity:1"
     id="path17999" />
  <path
     d="m13.928 52.02a27 27 0 0 0 5.7988 4h3.2734c0.554 0 1-0.446 1-1v-3h-10.072zm13.072 0v3c0 0.554 0.446 1 1 1h16.322a27 27 0 0 0 5.748-4h-23.07z"
     fill="#fbc02d"
     id="path18001"
     style="fill:#ffb86c" />
  <path
     d="m18 37-9.7461 7.7969a27 27 0 0 0 1.2969 2.1699l4.4492-2.9668v2l-3.4805 2.3203a27 27 0 0 0 1.3984 1.6797h0.082031l0.10742 0.21484a27 27 0 0 0 1.8008 1.7852h4.0918v-5l6-5h3l-6 5v5h29.092a27 27 0 0 0 6.3555-8.6133l-3.4473-4.3867h-2l-2-2h-31z"
     fill="#43a047"
     fill-rule="evenodd"
     id="path18003"
     style="fill:#50fa7b;opacity:0.7" />
  <circle
     cx="53.5"
     cy="39.5"
     r="1.5"
     fill="#fbc02d"
     id="circle18005"
     style="fill:#ffb86c" />
  <circle
     cx="53.5"
     cy="39.5"
     r=".5"
     fill="#263238"
     id="circle18007"
     style="fill:#282a36" />
  <circle
     cx="10.5"
     cy="39.5"
     r="1.5"
     fill="#fbc02d"
     id="circle18009"
     style="fill:#ffb86c" />
  <circle
     cx="10.5"
     cy="39.5"
     r=".5"
     fill="#263238"
     id="circle18011"
     style="fill:#282a36" />
  <path
     d="m32 5a27 27 0 0 0-21.822 11.146l-0.17773 1.8535-2 2v2l3 3h38l6.084-6.9531a27 27 0 0 0-1.9375-2.8359l-5.1465 5.7891h-3l6.6543-7.4863a27 27 0 0 0-19.654-8.5137z"
     fill="#43a047"
     fill-rule="evenodd"
     id="path18013"
     style="fill:#50fa7b;opacity:0.7" />
  <circle
     cx="53.5"
     cy="21.5"
     r="1.5"
     fill="#fbc02d"
     id="circle18015"
     style="fill:#ffb86c" />
  <g
     fill="#263238"
     id="g18023"
     style="fill:#282a36">
    <circle
       cx="53.5"
       cy="21.5"
       r=".5"
       id="circle18017"
       style="fill:#282a36" />
    <rect
       x="18"
       y="23"
       width="28"
       height="16"
       ry="1"
       id="rect18019"
       style="fill:#282a36" />
    <rect
       x="15"
       y="13"
       width="14"
       height="6"
       ry="1"
       id="rect18021"
       style="fill:#282a36" />
  </g>
  <rect
     x="16"
     y="14"
     width="9"
     height="1"
     ry="0"
     fill="#90a4ae"
     id="rect18025"
     style="fill:#f8f8f2;opacity:0.5" />
  <path
     d="m16 16h5v1h-5zm6 0h2v1h-2z"
     fill="#90a4ae"
     id="path18027"
     style="fill:#f8f8f2;opacity:0.5" />
  <rect
     x="33"
     y="43"
     width="17"
     height="6"
     ry="1"
     fill="#eceff1"
     id="rect18029"
     style="fill:#cbcccc" />
  <g
     fill="#37474f"
     id="g18037">
    <rect
       x="34"
       y="44"
       width="9"
       height="1"
       ry="0"
       id="rect18031"
       style="fill:#44475a" />
    <path
       d="m34 46h5v1h-5z"
       id="path18033"
       style="fill:#44475a" />
    <path
       d="m45 48 2-3 2 3z"
       fill-rule="evenodd"
       id="path18035"
       style="fill:#44475a" />
  </g>
  <rect
     x="26"
     y="16"
     width="2"
     height="2"
     ry="0"
     fill="#90a4ae"
     id="rect18039"
     style="fill:#f8f8f2;opacity:0.5" />
  <path
     d="m21 26h2v10h-2zm4 0h2v10h-2zm4 0h2v10h-2zm4 0h2v10h-2zm4 0h2v10h-2zm4 0h2v10h-2z"
     fill="#90a4ae"
     fill-rule="evenodd"
     opacity=".5"
     style="paint-order:fill markers stroke;fill:#9ea0a6"
     id="path18041" />
  <circle
     cx="10.5"
     cy="21.5"
     r="1.5"
     fill="#fbc02d"
     id="circle18043"
     style="fill:#ffb86c" />
  <circle
     cx="10.5"
     cy="21.5"
     r=".5"
     fill="#263238"
     id="circle18045"
     style="fill:#282a36" />
</svg>
