<?xml version="1.0" encoding="UTF-8" standalone="no"?>
<svg
   width="64"
   height="64"
   version="1.1"
   id="svg30"
   sodipodi:docname="hwloc.svg"
   inkscape:version="1.2.2 (b0a8486541, 2022-12-01)"
   xmlns:inkscape="http://www.inkscape.org/namespaces/inkscape"
   xmlns:sodipodi="http://sodipodi.sourceforge.net/DTD/sodipodi-0.dtd"
   xmlns="http://www.w3.org/2000/svg"
   xmlns:svg="http://www.w3.org/2000/svg">
  <defs
     id="defs34" />
  <sodipodi:namedview
     id="namedview32"
     pagecolor="#505050"
     bordercolor="#eeeeee"
     borderopacity="1"
     inkscape:showpageshadow="0"
     inkscape:pageopacity="0"
     inkscape:pagecheckerboard="0"
     inkscape:deskcolor="#505050"
     showgrid="false"
     inkscape:zoom="15.921875"
     inkscape:cx="29.83317"
     inkscape:cy="32.031403"
     inkscape:window-width="1280"
     inkscape:window-height="1361"
     inkscape:window-x="0"
     inkscape:window-y="0"
     inkscape:window-maximized="0"
     inkscape:current-layer="svg30" />
  <circle
     cx="32"
     cy="32"
     r="27"
     fill="#388e3c"
     style="paint-order:stroke fill markers;fill:#44c367"
     id="circle2" />
  <path
     fill="#43a047"
     fill-rule="evenodd"
     d="M32 5A27 27 0 0 0 6.691 22.691L9 25h38l7-8h.423a27 27 0 0 0-2.273-2.92L46 21h-3l7.59-8.537A27 27 0 0 0 32 5zM16 37l-8.326 6.66a27 27 0 0 0 1.285 2.367L12 44v2l-2.127 1.418A27 27 0 0 0 16 53.711v-6.71l6-5h3l-6 5v8.661A27 27 0 0 0 32 59a27 27 0 0 0 23.686-14.037L51 39h-2l-2-2H16z"
     id="path4"
     style="fill:#50fa7b;opacity:0.7" />
  <path
     fill="#fbc02d"
     fill-rule="evenodd"
     d="M21 22h2v20h-2zm4 0h2v20h-2zm4 0h2v20h-2zm4 0h2v20h-2zm4 0h2v20h-2zm4 0h2v20h-2z"
     style="paint-order:fill markers stroke;fill:#ffb86c"
     id="path6" />
  <rect
     width="28"
     height="16"
     x="18"
     y="24"
     fill="#263238"
     ry="1"
     id="rect8" />
  <rect
     width="17"
     height="6"
     x="15"
     y="13"
     fill="#263238"
     ry="1"
     id="rect10" />
  <rect
     width="17"
     height="6"
     x="33"
     y="44"
     fill="#eceff1"
     ry="1"
     id="rect12"
     style="fill:#cbcccc" />
  <g
     fill="#37474f"
     id="g20"
     style="fill:#44475a">
    <rect
       width="9"
       height="1"
       x="34"
       y="45"
       ry="0"
       id="rect14"
       style="fill:#44475a" />
    <path
       d="M34 47h5v1h-5z"
       id="path16"
       style="fill:#44475a" />
    <path
       fill-rule="evenodd"
       d="m45 49 2-3 2 3z"
       id="path18"
       style="fill:#44475a" />
  </g>
  <g
     fill="#f8f8f2"
     id="g28">
    <path
       d="M16 14h4v1h-4zm0 2h8v1h-8zm11 0h3v2h-3z"
       opacity=".5"
       style="paint-order:stroke fill markers;fill:#f8f8f2"
       id="path22" />
    <rect
       width="3"
       height="8"
       x="31"
       y="30"
       opacity=".75"
       rx="1.5"
       ry="1.5"
       style="paint-order:stroke fill markers;fill:#f8f8f2"
       id="rect24" />
    <rect
       width="3"
       height="3"
       x="31"
       y="26"
       opacity=".75"
       rx="1.5"
       ry="1.5"
       style="paint-order:stroke fill markers;fill:#f8f8f2"
       id="rect26" />
  </g>
</svg>
