<?xml version="1.0" encoding="UTF-8" standalone="no"?>
<svg
   width="64"
   height="64"
   version="1"
   id="svg34"
   sodipodi:docname="hydrogen.svg"
   inkscape:version="1.2.2 (b0a8486541, 2022-12-01)"
   xmlns:inkscape="http://www.inkscape.org/namespaces/inkscape"
   xmlns:sodipodi="http://sodipodi.sourceforge.net/DTD/sodipodi-0.dtd"
   xmlns="http://www.w3.org/2000/svg"
   xmlns:svg="http://www.w3.org/2000/svg">
  <defs
     id="defs38" />
  <sodipodi:namedview
     id="namedview36"
     pagecolor="#505050"
     bordercolor="#eeeeee"
     borderopacity="1"
     inkscape:showpageshadow="0"
     inkscape:pageopacity="0"
     inkscape:pagecheckerboard="0"
     inkscape:deskcolor="#505050"
     showgrid="false"
     inkscape:zoom="15.921875"
     inkscape:cx="29.895976"
     inkscape:cy="32.031403"
     inkscape:window-width="2560"
     inkscape:window-height="1361"
     inkscape:window-x="0"
     inkscape:window-y="0"
     inkscape:window-maximized="1"
     inkscape:current-layer="svg34" />
  <circle
     cx="32"
     cy="32"
     r="27"
     fill="#b5c0df"
     stroke-linecap="square"
     stroke-width="1.0385"
     id="circle2"
     style="fill:#a6edfa" />
  <g
     transform="matrix(.85714 0 0 .85714 4.5714 4.5714)"
     id="g32">
    <rect
       x="11"
       y="12"
       width="10"
       height="31"
       rx="1.429"
       ry="1.409"
       fill="#314277"
       id="rect4"
       style="fill:#515d85" />
    <rect
       x="27"
       y="12"
       width="26"
       height="31"
       rx="1.368"
       ry="1.409"
       fill="#314277"
       id="rect6"
       style="fill:#515d85" />
    <rect
       transform="rotate(90)"
       x="23"
       y="-40.4"
       width="10"
       height="29.4"
       rx="1.429"
       ry="1.4"
       fill="#314277"
       id="rect8"
       style="fill:#515d85" />
    <rect
       x="12"
       y="47"
       width="5"
       height="5"
       rx="1.25"
       ry="1.25"
       fill="#314277"
       opacity=".3"
       id="rect10"
       style="fill:#515d85" />
    <rect
       x="19"
       y="47"
       width="5"
       height="5"
       rx="1.25"
       ry="1.25"
       fill="#314277"
       opacity=".56"
       id="rect12"
       style="fill:#515d85" />
    <rect
       x="26"
       y="47"
       width="5"
       height="5"
       rx="1.25"
       ry="1.25"
       fill="#314277"
       opacity=".82"
       id="rect14"
       style="fill:#515d85" />
    <rect
       x="31"
       y="16"
       width="18"
       height="5"
       rx="1.385"
       ry="1.25"
       fill="#f8f8f2"
       id="rect16" />
    <rect
       x="31"
       y="34"
       width="18"
       height="5"
       rx="1.385"
       ry="1.25"
       fill="#f8f8f2"
       id="rect18" />
    <rect
       transform="rotate(90)"
       x="25"
       y="-36"
       width="14"
       height="5"
       rx="1.077"
       ry="1.25"
       fill="#f8f8f2"
       id="rect20" />
    <rect
       transform="scale(-1)"
       x="-49"
       y="-30"
       width="17"
       height="5"
       rx="1.308"
       ry="1.25"
       fill="#f8f8f2"
       id="rect22" />
    <rect
       transform="rotate(90)"
       x="16"
       y="-49"
       width="14"
       height="5"
       rx="1.077"
       ry="1.25"
       fill="#f8f8f2"
       id="rect24" />
    <rect
       transform="scale(-1,1)"
       x="-52"
       y="47"
       width="5"
       height="5"
       rx="1.25"
       ry="1.25"
       fill="#314277"
       opacity=".3"
       id="rect26"
       style="fill:#515d85" />
    <rect
       transform="scale(-1,1)"
       x="-45"
       y="47"
       width="5"
       height="5"
       rx="1.25"
       ry="1.25"
       fill="#314277"
       opacity=".56"
       id="rect28"
       style="fill:#515d85" />
    <rect
       transform="scale(-1,1)"
       x="-38"
       y="47"
       width="5"
       height="5"
       rx="1.25"
       ry="1.25"
       fill="#314277"
       opacity=".82"
       id="rect30"
       style="fill:#515d85" />
  </g>
</svg>
