<svg width="64" height="64" viewBox="0 0 64 64" fill="none" xmlns="http://www.w3.org/2000/svg">
<path opacity="0.99" d="M61.938 32.6248C61.938 49.2063 48.496 62.6483 31.9145 62.6483C15.3329 62.6483 1.89091 49.2063 1.89091 32.6248C1.89091 16.0432 15.3329 2.60121 31.9145 2.60121C48.496 2.60121 61.938 16.0432 61.938 32.6248Z" fill="black" fill-opacity="0.97" stroke="url(#paint0_linear)" stroke-width="2"/>
<path fill-rule="evenodd" clip-rule="evenodd" d="M20.468 24.168C19.9573 24.176 19.5067 24.5067 19.3467 24.992C19.1867 25.4773 19.3507 26.0107 19.7573 26.3213L27.7107 32.6187L19.7573 38.9147C19.404 39.176 19.2213 39.608 19.28 40.0427C19.3387 40.4773 19.6307 40.8453 20.04 41.0027C20.4507 41.1587 20.9133 41.08 21.2467 40.796L30.3907 33.5587C30.6787 33.3307 30.8467 32.984 30.8467 32.6173C30.8467 32.2507 30.6787 31.9027 30.3907 31.676L21.2467 24.4387C21.028 24.2587 20.752 24.1627 20.468 24.168ZM32.312 38.6813C31.6493 38.6813 31.112 39.2187 31.112 39.8813C31.112 40.544 31.6493 41.0813 32.312 41.0813H43.3587C44.0227 41.0813 44.56 40.544 44.56 39.8813C44.56 39.2187 44.0227 38.6813 43.3587 38.6813H32.312Z" fill="white"/>
<defs>
<linearGradient id="paint0_linear" x1="31.9145" y1="1.60121" x2="31.9145" y2="63.6483" gradientUnits="userSpaceOnUse">
<stop stop-color="#F748B1"/>
<stop offset="0.875" stop-color="#FBB74A"/>
</linearGradient>
</defs>
</svg>
