<?xml version="1.0" encoding="UTF-8" standalone="no"?>
<svg
   version="1.1"
   viewBox="0 0 48 48"
   id="svg43"
   sodipodi:docname="hypnotix.svg"
   inkscape:version="1.2.2 (b0a8486541, 2022-12-01)"
   xmlns:inkscape="http://www.inkscape.org/namespaces/inkscape"
   xmlns:sodipodi="http://sodipodi.sourceforge.net/DTD/sodipodi-0.dtd"
   xmlns="http://www.w3.org/2000/svg"
   xmlns:svg="http://www.w3.org/2000/svg">
  <sodipodi:namedview
     id="namedview45"
     pagecolor="#505050"
     bordercolor="#eeeeee"
     borderopacity="1"
     inkscape:pageshadow="0"
     inkscape:pageopacity="0"
     inkscape:pagecheckerboard="0"
     showgrid="false"
     inkscape:zoom="14.729167"
     inkscape:cx="21.725601"
     inkscape:cy="24.033946"
     inkscape:window-width="2560"
     inkscape:window-height="1361"
     inkscape:window-x="0"
     inkscape:window-y="0"
     inkscape:window-maximized="1"
     inkscape:current-layer="svg43"
     inkscape:showpageshadow="0"
     inkscape:deskcolor="#505050" />
  <defs
     id="defs17">
    <linearGradient
       id="linearGradient3764"
       x1="1"
       x2="47"
       gradientTransform="matrix(0 -1 1 0 -1.5e-6 48)"
       gradientUnits="userSpaceOnUse">
      <stop
         style="stop-color:#ebebeb"
         offset="0"
         id="stop2" />
      <stop
         style="stop-color:#f5f5f5"
         offset="1"
         id="stop4" />
    </linearGradient>
    <radialGradient
       id="radialGradient4205"
       cx="23.8"
       cy="23.8"
       r="12.5"
       gradientUnits="userSpaceOnUse">
      <stop
         offset="0"
         id="stop7" />
      <stop
         style="stop-opacity:0"
         offset="1"
         id="stop9" />
    </radialGradient>
    <linearGradient
       id="linearGradient4194"
       x2="0"
       y1="47"
       y2="1"
       gradientUnits="userSpaceOnUse">
      <stop
         style="stop-color:#2da8e6"
         offset="0"
         id="stop12" />
      <stop
         style="stop-color:#40b0e8"
         offset="1"
         id="stop14" />
    </linearGradient>
  </defs>
  <path
     d="m28.412 1.428c0 1e-3 2e-3 2e-3 2e-3 4e-3l-10.934 0.512c-4.152 1.225-7.815 3.587-10.627 6.73l-5.395 10.74c-0.3 1.482-0.459 3.02-0.459 4.586 0 2.525 0.412 4.953 1.164 7.227l6.326 9.756c3.054 2.791 6.865 4.765 11.09 5.588-1e-3 -1e-3 -3e-3 -2e-3 -4e-3 -4e-3l11.271-0.604c0 1e-3 -2e-3 1e-3 -2e-3 2e-3 4.046-1.259 7.609-3.609 10.355-6.701-1e-3 -1e-3 -2e-3 -1e-3 -4e-3 -2e-3l5.297-10.479 6e-3 6e-3c0.327-1.545 0.502-3.146 0.502-4.789 0-2.536-0.416-4.973-1.174-7.254-4e-3 3e-3 -6e-3 7e-3 -0.01 0.01l-6.697-10.07h2e-3c3e-3 -1e-3 5e-3 -1e-3 8e-3 -2e-3 -2.991-2.615-6.663-4.468-10.717-5.256z"
     style="fill:#f8f8f2"
     id="path25" />
  <path
     d="m24 1c-2.265 0-4.452 0.333-6.52 0.943-2.2154 3.4511-1.427 8.6-0.701 11.148 0.709 2.492 1.71 4.884 2.74 7.248-1.774-0.426-3.462-1.019-5.02-1.896-2.727-1.575-6.597-6.103-7.637-9.783-2.679 2.99-4.588 6.684-5.412 10.771 1.856 2.524 6.122 4.957 9.27 5.744 2.536 0.634 5.102 0.907 7.652 1.127-1.178 1.216-2.459 2.3-3.924 3.166-2.73 1.58-8.601 2.668-12.307 1.721 1.254 3.812 3.47 7.186 6.371 9.826 3.51-0.278 8.08-2.998 9.869-4.914 1.794-1.917 3.341-4.057 4.85-6.209 0.456 1.689 0.749 3.384 0.764 5.105 0 3.174-1.891 8.855-4.42 11.57 1.431 0.279 2.907 0.43 4.42 0.43 2.386 0 4.686-0.361 6.85-1.035 1.663-3.962 1.23-7.882 0.379-11.05-0.691-2.578-1.701-4.995-2.746-7.371 1.777 0.417 3.479 1.01 5.072 1.908 2.736 1.576 6.62 6.127 7.646 9.813 2.595-2.923 4.457-6.512 5.297-10.479-2.01-2.887-6.62-5.463-9.166-6.06-2.537-0.59-5.144-0.862-7.742-1.092 1.192-1.225 2.473-2.309 3.916-3.16 2.733-1.578 8.611-2.666 12.316-1.715-1.305-3.937-3.643-7.4-6.695-10.07h-2e-3c-3.108 0.37-7.312 2.832-9.553 5.148-1.834 1.897-3.366 4-4.844 6.121-0.431-1.62-0.708-3.261-0.725-4.953-3e-3 -3.174 1.887-8.855 4.416-11.57-1.431-0.279-2.907-0.43-4.42-0.43v-4e-3z"
     style="fill:#70b7c8"
     id="path29" />
  <path
     d="m36 24a12 12 0 0 1-24 0 12 12 0 1 1 24 0z"
     style="fill:#f8f8f2"
     id="path37" />
  <path
     d="m30.674 24.466-9.9627 6.432c-0.39087 0.25-0.71155 0.035-0.71155-0.591v-12.601c0-0.716 0.31191-0.837 0.71155-0.591l9.9627 6.432c0.4435 0.287 0.42498 0.643 0 0.919z"
     style="fill:#70b7c8"
     id="path41" />
</svg>
