<?xml version="1.0" encoding="UTF-8" standalone="no"?>
<svg
   width="64"
   height="64"
   viewBox="0 0 16.933 16.933"
   version="1.1"
   id="svg2"
   sodipodi:docname="ibus-bopomofo.svg"
   inkscape:version="1.3.2 (091e20ef0f, 2023-11-25, custom)"
   xmlns:inkscape="http://www.inkscape.org/namespaces/inkscape"
   xmlns:sodipodi="http://sodipodi.sourceforge.net/DTD/sodipodi-0.dtd"
   xmlns="http://www.w3.org/2000/svg"
   xmlns:svg="http://www.w3.org/2000/svg">
  <defs
     id="defs2" />
  <sodipodi:namedview
     id="namedview2"
     pagecolor="#f8f8f2"
     bordercolor="#282a36"
     borderopacity="0.25"
     inkscape:showpageshadow="2"
     inkscape:pageopacity="0.0"
     inkscape:pagecheckerboard="0"
     inkscape:deskcolor="#d1d1d1"
     inkscape:zoom="12.875"
     inkscape:cx="31.961165"
     inkscape:cy="32"
     inkscape:window-width="1920"
     inkscape:window-height="1040"
     inkscape:window-x="0"
     inkscape:window-y="0"
     inkscape:window-maximized="1"
     inkscape:current-layer="svg2" />
  <rect
     width="13.758"
     height="13.758"
     x="1.587"
     y="1.587"
     fill="#6272a4"
     fill-rule="evenodd"
     rx="1.587"
     ry="1.587"
     style="paint-order:fill markers stroke;fill:#6272a4"
     id="rect1" />
  <rect
     width="12.171"
     height="1.587"
     x="2.381"
     y="13.493"
     fill-rule="evenodd"
     opacity=".15"
     rx=".794"
     ry=".794"
     style="paint-order:fill markers stroke"
     id="rect2" />
  <path
     fill="#f8f8f2"
     fill-rule="evenodd"
     d="M7.053 4.23 5.638 6.14l.4.793h4.24c-.04 1.017-.047 1.263-.264 1.789-.128.31-.29.504-.614.656-.325.152-.845.244-1.635.193l-.064.992c.89.058 1.576-.03 2.12-.283a2.216 2.216 0 0 0 1.113-1.179c.402-.974.294-1.46.361-2.637l-.021-.526H7.025l.827-1.115z"
     id="path2" />
</svg>
