<?xml version="1.0" encoding="UTF-8" standalone="no"?>
<svg
   width="64"
   height="64"
   viewBox="0 0 16.933 16.933"
   version="1.1"
   id="svg2"
   sodipodi:docname="ibus-pinyin.svg"
   inkscape:version="1.3.2 (091e20ef0f, 2023-11-25, custom)"
   xmlns:inkscape="http://www.inkscape.org/namespaces/inkscape"
   xmlns:sodipodi="http://sodipodi.sourceforge.net/DTD/sodipodi-0.dtd"
   xmlns="http://www.w3.org/2000/svg"
   xmlns:svg="http://www.w3.org/2000/svg">
  <defs
     id="defs2" />
  <sodipodi:namedview
     id="namedview2"
     pagecolor="#f8f8f2"
     bordercolor="#282a36"
     borderopacity="0.25"
     inkscape:showpageshadow="2"
     inkscape:pageopacity="0.0"
     inkscape:pagecheckerboard="0"
     inkscape:deskcolor="#d1d1d1"
     inkscape:zoom="12.875"
     inkscape:cx="31.961165"
     inkscape:cy="32"
     inkscape:window-width="1920"
     inkscape:window-height="1040"
     inkscape:window-x="0"
     inkscape:window-y="0"
     inkscape:window-maximized="1"
     inkscape:current-layer="svg2" />
  <rect
     width="13.758"
     height="13.758"
     x="1.587"
     y="1.587"
     fill="#6272a4"
     fill-rule="evenodd"
     rx="1.587"
     ry="1.587"
     style="paint-order:fill markers stroke;fill:#6272a4"
     id="rect1" />
  <rect
     width="12.171"
     height="1.587"
     x="2.381"
     y="13.493"
     fill-rule="evenodd"
     opacity=".15"
     rx=".794"
     ry=".794"
     style="paint-order:fill markers stroke"
     id="rect2" />
  <path
     fill="#f8f8f2"
     d="M10.44 4.48c-.165.44-.358.908-.577 1.293h-2.03v.534h.738v.95c0 .165-.01.357-.028.504h-.89v.537h.835c-.11.97-.485 1.644-1.127 2.12l.385.413c.752-.55 1.191-1.36 1.32-2.533h1.118v2.533h.55V8.298h1.08V7.76h-1.08V6.307h.9v-.534H10.44c.202-.312.403-.723.605-1.127zm-4.23.018v1.086H5.3v.543h.91V7.56c-.348.147-.688.293-1.09.44l.192.577c.33-.128.605-.256.898-.385v1.732c0 .22-.046.33-.138.33a2.28 2.28 0 0 1-.705-.11l.11.577c.22.055.422.083.678.083.22 0 .376-.055.467-.165.092-.11.126-.303.126-.577V7.918l.845-.44-.083-.495c-.238.11-.524.229-.762.357V6.126h.905v-.542h-.905V4.498zm2.58.066-.549.165c.202.256.357.55.467.88l.577-.193a2.66 2.66 0 0 0-.494-.852zm.33 1.743h1.064V7.76h-1.09c.017-.128.027-.293.027-.42z"
     id="path2" />
</svg>
