<?xml version="1.0" encoding="UTF-8" standalone="no"?>
<svg
   width="64"
   height="64"
   viewBox="0 0 16.933 16.933"
   version="1.1"
   id="svg2"
   sodipodi:docname="ibus-anthy.svg"
   inkscape:version="1.3.2 (091e20ef0f, 2023-11-25, custom)"
   xmlns:inkscape="http://www.inkscape.org/namespaces/inkscape"
   xmlns:sodipodi="http://sodipodi.sourceforge.net/DTD/sodipodi-0.dtd"
   xmlns="http://www.w3.org/2000/svg"
   xmlns:svg="http://www.w3.org/2000/svg">
  <defs
     id="defs2" />
  <sodipodi:namedview
     id="namedview2"
     pagecolor="#f8f8f2"
     bordercolor="#282a36"
     borderopacity="0.25"
     inkscape:showpageshadow="2"
     inkscape:pageopacity="0.0"
     inkscape:pagecheckerboard="0"
     inkscape:deskcolor="#d1d1d1"
     inkscape:zoom="12.875"
     inkscape:cx="31.961165"
     inkscape:cy="32"
     inkscape:window-width="1920"
     inkscape:window-height="1040"
     inkscape:window-x="0"
     inkscape:window-y="0"
     inkscape:window-maximized="1"
     inkscape:current-layer="svg2" />
  <rect
     width="13.758"
     height="13.758"
     x="1.587"
     y="1.587"
     fill="#6272a4"
     fill-rule="evenodd"
     rx="1.587"
     ry="1.587"
     style="paint-order:fill markers stroke;fill:#6272a4"
     id="rect1" />
  <rect
     width="12.171"
     height="1.587"
     x="2.381"
     y="13.493"
     fill-rule="evenodd"
     opacity=".15"
     rx=".794"
     ry=".794"
     style="paint-order:fill markers stroke"
     id="rect2" />
  <path
     fill="#f8f8f2"
     d="M11.032 4.894c-1.008.22-2.142.347-3.099.398l.051-.254c.06-.28.102-.56.195-.856l-1.185-.05c.008.279 0 .482-.043.846-.008.102-.034.212-.05.339a11.858 11.858 0 0 1-1.643-.16v1.04c.423.043.914.077 1.448.085-.22.923-.56 2.04-.957 2.811l.99.356c.085-.144.144-.254.238-.364.5-.644 1.354-.991 2.32-.991.812 0 1.252.423 1.252.923 0 1.236-1.854 1.456-3.691 1.16l.296 1.083c2.71.288 4.521-.389 4.521-2.277 0-1.067-.897-1.795-2.252-1.795-.77 0-1.405.152-2.082.525.135-.406.27-.94.38-1.448 1.127-.06 2.456-.22 3.328-.355z"
     id="path2" />
</svg>
