<?xml version="1.0" encoding="UTF-8" standalone="no"?>
<svg
   width="64"
   height="64"
   version="1.1"
   viewBox="0 0 16.933 16.933"
   id="svg10"
   sodipodi:docname="idea.svg"
   inkscape:version="1.2.2 (b0a8486541, 2022-12-01)"
   xmlns:inkscape="http://www.inkscape.org/namespaces/inkscape"
   xmlns:sodipodi="http://sodipodi.sourceforge.net/DTD/sodipodi-0.dtd"
   xmlns="http://www.w3.org/2000/svg"
   xmlns:svg="http://www.w3.org/2000/svg">
  <defs
     id="defs14" />
  <sodipodi:namedview
     id="namedview12"
     pagecolor="#505050"
     bordercolor="#eeeeee"
     borderopacity="1"
     inkscape:showpageshadow="0"
     inkscape:pageopacity="0"
     inkscape:pagecheckerboard="0"
     inkscape:deskcolor="#505050"
     showgrid="false"
     inkscape:zoom="15.921875"
     inkscape:cx="29.83317"
     inkscape:cy="32.031403"
     inkscape:window-width="1280"
     inkscape:window-height="1361"
     inkscape:window-x="1280"
     inkscape:window-y="0"
     inkscape:window-maximized="0"
     inkscape:current-layer="svg10" />
  <path
     d="m15.61 8.4665a7.1436 7.1436 0 0 1-7.1436 7.1436 7.1436 7.1436 0 0 1-7.1436-7.1436 7.1436 7.1436 0 0 1 7.1436-7.1436 7.1436 7.1436 0 0 1 7.1436 7.1436z"
     fill="#998be7"
     stroke-width=".26458"
     id="path2"
     style="fill:#9576c5" />
  <rect
     x="4.4978"
     y="4.4978"
     width="7.9373"
     height="7.9373"
     rx="1.3229"
     ry="1.3229"
     fill="#282a36"
     style="paint-order:markers stroke fill"
     id="rect4" />
  <path
     d="m7.5347 5.9818v-0.62118h-1.8636v0.62118h0.62118v2.1741h-0.62118v0.62118h1.8636v-0.62118h-0.62118v-2.1741m2.0476 2.7899c-0.37513-0.042846-0.63932-0.28764-0.87562-0.50342l0.37719-0.426c0.12389 0.1286 0.31044 0.28261 0.50413 0.30836 0.1937 0.025744 0.44278 0.00446 0.5924-0.12248 0.14962-0.12697 0.14962-0.29933 0.14962-0.50496v-2.1626h0.62118l-0.0017 2.2c0.0017 0.43758-0.16436 0.73269-0.31782 0.89726-0.24543 0.25121-0.56331 0.27669-0.85988 0.31778"
     fill="#f8f8f2"
     stroke-width=".26458"
     id="path6" />
  <path
     d="m5.05 10.952h3.1059v0.62118h-3.1059z"
     fill="#f8f8f2"
     stroke-width=".26458"
     id="path8" />
</svg>
