<?xml version="1.0" encoding="UTF-8" standalone="no"?>
<svg
   width="64"
   height="64"
   version="1.1"
   viewBox="0 0 16.933 16.933"
   id="svg12"
   sodipodi:docname="image-missing.svg"
   inkscape:version="1.2.2 (b0a8486541, 2022-12-01)"
   xmlns:inkscape="http://www.inkscape.org/namespaces/inkscape"
   xmlns:sodipodi="http://sodipodi.sourceforge.net/DTD/sodipodi-0.dtd"
   xmlns="http://www.w3.org/2000/svg"
   xmlns:svg="http://www.w3.org/2000/svg">
  <defs
     id="defs16" />
  <sodipodi:namedview
     id="namedview14"
     pagecolor="#505050"
     bordercolor="#eeeeee"
     borderopacity="1"
     inkscape:showpageshadow="0"
     inkscape:pageopacity="0"
     inkscape:pagecheckerboard="0"
     inkscape:deskcolor="#505050"
     showgrid="false"
     inkscape:zoom="15.921875"
     inkscape:cx="29.83317"
     inkscape:cy="32.031403"
     inkscape:window-width="1280"
     inkscape:window-height="1361"
     inkscape:window-x="1280"
     inkscape:window-y="0"
     inkscape:window-maximized="0"
     inkscape:current-layer="svg12" />
  <circle
     cx="8.4665"
     cy="8.4665"
     r="7.1436"
     fill="#949dac"
     style="paint-order:stroke fill markers;fill:#9ea0a6"
     id="circle2" />
  <path
     d="m0 0h16.933v16.933h-16.933z"
     fill="none"
     id="path4" />
  <circle
     cx="12.171"
     cy="6.08"
     r="1.323"
     fill="#f8f8f2"
     opacity=".5"
     style="paint-order:stroke markers fill"
     id="circle6" />
  <path
     transform="scale(.26458)"
     d="m8.1211 19.438a27 27 0 0 0-3.1211 12.562 27 27 0 0 0 27 27 27 27 0 0 0 13.084-3.418 50 50 0 0 0-36.963-36.145z"
     opacity=".15"
     stroke-width="6.9993"
     style="paint-order:stroke fill markers;fill:#282a36"
     id="path8" />
  <path
     transform="scale(.26458)"
     d="m58.9 33.996a40 40 0 0 0-30.713 24.699 27 27 0 0 0 3.8125 0.30469 27 27 0 0 0 26.9-25.004z"
     opacity=".05"
     stroke-width="5.5994"
     style="paint-order:stroke fill markers;fill:#282a36;opacity:0.1"
     id="path10" />
</svg>
