<?xml version="1.0" encoding="UTF-8" standalone="no"?>
<svg
   width="64"
   height="64"
   version="1.1"
   viewBox="0 0 16.933 16.933"
   id="svg16"
   sodipodi:docname="imap.svg"
   inkscape:version="1.2.2 (b0a8486541, 2022-12-01)"
   xmlns:inkscape="http://www.inkscape.org/namespaces/inkscape"
   xmlns:sodipodi="http://sodipodi.sourceforge.net/DTD/sodipodi-0.dtd"
   xmlns="http://www.w3.org/2000/svg"
   xmlns:svg="http://www.w3.org/2000/svg">
  <defs
     id="defs20" />
  <sodipodi:namedview
     id="namedview18"
     pagecolor="#505050"
     bordercolor="#eeeeee"
     borderopacity="1"
     inkscape:showpageshadow="0"
     inkscape:pageopacity="0"
     inkscape:pagecheckerboard="0"
     inkscape:deskcolor="#505050"
     showgrid="false"
     inkscape:zoom="15.921875"
     inkscape:cx="29.895976"
     inkscape:cy="32.031403"
     inkscape:window-width="2560"
     inkscape:window-height="1361"
     inkscape:window-x="0"
     inkscape:window-y="0"
     inkscape:window-maximized="1"
     inkscape:current-layer="svg16" />
  <g
     transform="translate(0 -280.07)"
     id="g14">
    <circle
       cx="8.4665"
       cy="288.53"
       r="7.1436"
       fill="#44475a"
       style="paint-order:stroke markers fill"
       id="circle2" />
    <g
       transform="matrix(.61538 0 0 .61538 5.699 111.02)"
       stroke-width="1.625"
       paint-order="markers stroke fill"
       id="g12">
      <path
         d="M-1.587 284.565h12.17c.44 0 .794.354.794.793v8.467c0 .44-.354.794-.794.794h-12.17a.792.792 0 0 1-.794-.794v-8.467c0-.44.354-.793.794-.793z"
         fill="#2f8dac"
         id="path4"
         style="fill:#168daa" />
      <rect
         x="-1.058"
         y="282.45"
         width="11.113"
         height="8.731"
         rx=".775"
         ry=".794"
         fill="#f8f8f2"
         id="rect6" />
      <path
         d="M11.212 284.878a.788.788 0 0 1 .165.48v8.467c0 .44-.354.794-.794.794h-12.17a.788.788 0 0 1-.53-.206z"
         fill="#26a4ca"
         id="path8"
         style="fill:#13b1d5" />
      <path
         d="M-2.216 284.878a.788.788 0 0 0-.165.48v8.467c0 .44.354.794.794.794h12.17c.205 0 .39-.08.53-.206z"
         fill="#49bde3"
         id="path10"
         style="fill:#4cc3dc" />
    </g>
  </g>
</svg>
