<?xml version="1.0" encoding="UTF-8" standalone="no"?>
<svg
   width="64"
   height="64"
   version="1.1"
   id="svg26"
   sodipodi:docname="info.febvre.Komikku.svg"
   inkscape:version="1.2.2 (b0a8486541, 2022-12-01)"
   xmlns:inkscape="http://www.inkscape.org/namespaces/inkscape"
   xmlns:sodipodi="http://sodipodi.sourceforge.net/DTD/sodipodi-0.dtd"
   xmlns="http://www.w3.org/2000/svg"
   xmlns:svg="http://www.w3.org/2000/svg">
  <defs
     id="defs30" />
  <sodipodi:namedview
     id="namedview28"
     pagecolor="#505050"
     bordercolor="#eeeeee"
     borderopacity="1"
     inkscape:showpageshadow="0"
     inkscape:pageopacity="0"
     inkscape:pagecheckerboard="0"
     inkscape:deskcolor="#505050"
     showgrid="false"
     inkscape:zoom="15.921875"
     inkscape:cx="29.895976"
     inkscape:cy="32.031403"
     inkscape:window-width="2560"
     inkscape:window-height="1361"
     inkscape:window-x="0"
     inkscape:window-y="0"
     inkscape:window-maximized="1"
     inkscape:current-layer="svg26" />
  <circle
     cx="32"
     cy="32"
     r="27"
     fill="#cbcccc"
     stroke-width=".96429"
     id="circle2" />
  <g
     transform="matrix(.69091 0 0 .69091 9.8909 9.5455)"
     id="g24">
    <rect
       x="15"
       y="9"
       width="42"
       height="51"
       rx="5"
       ry="5"
       fill="#c2352a"
       stop-color="#282a36"
       stroke-linecap="round"
       stroke-linejoin="round"
       style="paint-order:stroke fill markers;fill:#c7484a"
       id="rect4" />
    <path
       d="m12 5c-2.77 0-5.0008 2.2308-5.0008 5.0008v40.998c0 2.77 2.2308 5.0008 5.0008 5.0008h28 4.0001 5.0008v-5.0008-4.0001-36.998c0-2.77-2.2308-5.0008-5.0008-5.0008h-32z"
       fill="#f5f5f5"
       style="paint-order:stroke fill markers;fill:#f8f8f2"
       id="path6" />
    <path
       d="m45 20-9 1v9h9z"
       fill="#90caf9"
       id="path8"
       style="fill:#8be9fd" />
    <path
       d="m30 9v11l15-3v-7c0-0.554-0.446-1-1-1z"
       fill="#bdbdbd"
       id="path10"
       style="fill:#cbcccc" />
    <path
       d="m27 9h-16v14l16-3z"
       fill="#ffcc80"
       id="path12"
       style="fill:#fdc88e" />
    <path
       d="m11 39v12c0 0.554 0.446 1 1 1h32c0.554 0 1-0.446 1-1v-6z"
       fill="#ff8a80"
       id="path14"
       style="fill:#fd7e7c" />
    <path
       d="m34 21-23 4v12l23 4z"
       fill="#bdbdbd"
       id="path16"
       style="fill:#cbcccc" />
    <path
       d="m45 32h-9v9l9 2z"
       fill="#bdbdbd"
       id="path18"
       style="fill:#cbcccc" />
    <path
       d="m15 5-8 8h2.2734c2.3811-0.28747 4.8494-0.39868 5.7266-3.7148z"
       fill="#f8f8f2"
       id="path20" />
    <path
       d="m53 5c-2.216 0-4 1.784-4 4v47c0-2.2091 1.7909-4 4-4s4 1.7909 4 4v-47c0-2.216-1.784-4-4-4z"
       fill="#df574d"
       stop-color="#282a36"
       stroke-linecap="round"
       stroke-linejoin="round"
       style="paint-order:stroke fill markers;fill:#ff5555"
       id="path22" />
  </g>
</svg>
