<?xml version="1.0" encoding="UTF-8" standalone="no"?>
<svg
   width="64"
   height="64"
   version="1"
   id="svg33593"
   sodipodi:docname="input-mouse.svg"
   inkscape:version="1.2.2 (b0a8486541, 2022-12-01)"
   xmlns:inkscape="http://www.inkscape.org/namespaces/inkscape"
   xmlns:sodipodi="http://sodipodi.sourceforge.net/DTD/sodipodi-0.dtd"
   xmlns="http://www.w3.org/2000/svg"
   xmlns:svg="http://www.w3.org/2000/svg">
  <defs
     id="defs33597" />
  <sodipodi:namedview
     id="namedview33595"
     pagecolor="#505050"
     bordercolor="#eeeeee"
     borderopacity="1"
     inkscape:showpageshadow="0"
     inkscape:pageopacity="0"
     inkscape:pagecheckerboard="0"
     inkscape:deskcolor="#505050"
     showgrid="false"
     inkscape:zoom="15.921875"
     inkscape:cx="29.895976"
     inkscape:cy="32.031403"
     inkscape:window-width="2560"
     inkscape:window-height="1361"
     inkscape:window-x="0"
     inkscape:window-y="0"
     inkscape:window-maximized="1"
     inkscape:current-layer="svg33593" />
  <circle
     cx="32"
     cy="32"
     r="27"
     fill="#f8f8f2"
     stroke-width="3.7796"
     style="paint-order:stroke fill markers;fill:#cbcccc"
     id="circle33579" />
  <g
     transform="matrix(.66667 0 0 .66667 10.667 10.667)"
     id="g33591">
    <path
       d="m32 4c-0.024 0-0.05 4e-3 -0.074 4e-3h-8e-3c-8.972 0.056-17.918 9.354-17.918 16.332v23.07c0 9.482 6.75 16.594 18 16.594 11.25 2e-3 18-7.108 18-16.59v-22.438c0-7.252-8.988-16.906-18-16.964z"
       fill="#4f4f4f"
       id="path33581"
       style="fill:#44475a" />
    <path
       d="m32 4-0.073 3e-3h-8e-3c-8.972 0.056-17.919 9.354-17.919 16.332v11.665h36v-11.028c0-7.252-8.988-16.906-18-16.964z"
       opacity=".1"
       id="path33583" />
    <path
       d="m32 4-0.073 3e-3h-8e-3c-8.972 0.056-17.919 9.354-17.919 16.332v11.665h18v-27.992z"
       opacity=".1"
       id="path33585" />
    <path
       d="m32 11c1.653 0 3 1.249 3 2.787v7.429c0 1.536-1.347 2.784-3 2.784s-3-1.248-3-2.786v-7.43c0-1.536 1.347-2.784 3-2.784"
       fill="#1dd0d0"
       id="path33587"
       style="fill:#8be9fd" />
    <circle
       cx="32"
       cy="55"
       r="1"
       fill="#1dd0d0"
       style="paint-order:markers stroke fill;fill:#8be9fd"
       id="circle33589" />
  </g>
</svg>
