<?xml version="1.0" encoding="UTF-8" standalone="no"?>
<svg
   width="64"
   height="64"
   version="1.1"
   viewBox="0 0 16.933 16.933"
   id="svg8"
   sodipodi:docname="internet-news-reader.svg"
   inkscape:version="1.2.2 (b0a8486541, 2022-12-01)"
   xmlns:inkscape="http://www.inkscape.org/namespaces/inkscape"
   xmlns:sodipodi="http://sodipodi.sourceforge.net/DTD/sodipodi-0.dtd"
   xmlns="http://www.w3.org/2000/svg"
   xmlns:svg="http://www.w3.org/2000/svg">
  <defs
     id="defs12" />
  <sodipodi:namedview
     id="namedview10"
     pagecolor="#505050"
     bordercolor="#eeeeee"
     borderopacity="1"
     inkscape:showpageshadow="0"
     inkscape:pageopacity="0"
     inkscape:pagecheckerboard="0"
     inkscape:deskcolor="#505050"
     showgrid="false"
     inkscape:zoom="15.921875"
     inkscape:cx="29.895976"
     inkscape:cy="32.031403"
     inkscape:window-width="2560"
     inkscape:window-height="1361"
     inkscape:window-x="0"
     inkscape:window-y="0"
     inkscape:window-maximized="1"
     inkscape:current-layer="svg8" />
  <circle
     cx="8.4665"
     cy="8.4665"
     r="7.1436"
     fill="#f4782e"
     style="paint-order:stroke fill markers;fill:#c7925b"
     id="circle2" />
  <g
     transform="translate(0 -280.07)"
     id="g6">
    <path
       d="M4.548 291.63c0-.243.084-.448.253-.613a.84.84 0 0 1 .617-.253c.238 0 .439.084.604.253.169.165.253.37.253.614a.83.83 0 0 1-.253.609.822.822 0 0 1-.604.248.847.847 0 0 1-.617-.248.821.821 0 0 1-.253-.61m-.05-3.912v1.441a3.342 3.342 0 0 1 3.337 3.343h1.447a4.786 4.786 0 0 0-4.784-4.784zm.002-3.153v1.593a6.342 6.342 0 0 1 6.336 6.342h1.6a7.939 7.939 0 0 0-7.936-7.935z"
       fill="#f8f8f2"
       font-family="Bitstream Vera Serif"
       font-size="13.59"
       font-weight="700"
       overflow="visible"
       id="path4" />
  </g>
</svg>
