<?xml version="1.0" encoding="UTF-8" standalone="no"?>
<svg
   width="64"
   height="64"
   viewBox="0 0 16.933 16.933"
   version="1.1"
   id="svg18"
   sodipodi:docname="io.elementary.code.svg"
   inkscape:version="1.2.2 (b0a8486541, 2022-12-01)"
   xmlns:inkscape="http://www.inkscape.org/namespaces/inkscape"
   xmlns:sodipodi="http://sodipodi.sourceforge.net/DTD/sodipodi-0.dtd"
   xmlns="http://www.w3.org/2000/svg"
   xmlns:svg="http://www.w3.org/2000/svg">
  <sodipodi:namedview
     id="namedview20"
     pagecolor="#505050"
     bordercolor="#eeeeee"
     borderopacity="1"
     inkscape:showpageshadow="0"
     inkscape:pageopacity="0"
     inkscape:pagecheckerboard="0"
     inkscape:deskcolor="#505050"
     showgrid="false"
     inkscape:zoom="15.921875"
     inkscape:cx="29.895976"
     inkscape:cy="32.031403"
     inkscape:window-width="2560"
     inkscape:window-height="1361"
     inkscape:window-x="0"
     inkscape:window-y="0"
     inkscape:window-maximized="1"
     inkscape:current-layer="svg18" />
  <defs
     id="defs4">
    <path
       id="b"
       d="M4.438 5.592h31.334v14.402H4.438z" />
    <path
       id="a"
       d="M4.438 5.592h31.334v14.402H4.438z" />
  </defs>
  <circle
     cx="8.466"
     cy="8.466"
     r="7.144"
     fill="#13b1d5"
     style="paint-order:stroke fill markers;fill:#c7925b;fill-opacity:1"
     id="circle6" />
  <path
     fill="#f8f8f2"
     fill-opacity=".3"
     fill-rule="evenodd"
     d="M5.895 2.38a6.614 6.614 0 0 0-.556.265h6.264a6.614 6.614 0 0 0-.548-.265zM3.969 3.624a6.614 6.614 0 0 0-.342.346h.077v1.057h-.877a6.614 6.614 0 0 0-.163.265h1.04V6.35H2.206a6.614 6.614 0 0 0-.085.265h1.583v1.058H1.905a6.614 6.614 0 0 0-.027.265h1.826v1.058H1.876a6.614 6.614 0 0 0 .032.264h1.796v1.06H2.121a6.614 6.614 0 0 0 .088.263h1.495v1.06H2.672a6.614 6.614 0 0 0 .151.263h.881v1.059h-.079a6.614 6.614 0 0 0 .344.34v-.076h9.086a6.614 6.614 0 0 0 .25-.264H3.968v-1.059h10.137a6.614 6.614 0 0 0 .163-.264h-10.3v-1.059h10.757a6.614 6.614 0 0 0 .086-.264H3.969V9.26h11.059a6.614 6.614 0 0 0 .027-.264H3.969V7.938h11.088a6.614 6.614 0 0 0-.032-.265H3.97V6.615h10.844a6.614 6.614 0 0 0-.089-.265H3.97V5.29h10.292a6.614 6.614 0 0 0-.152-.265H3.969V3.968h9.34a6.614 6.614 0 0 0-.264-.265H3.969v-.079zM5.33 14.288a6.614 6.614 0 0 0 .545.264h5.166a6.614 6.614 0 0 0 .553-.264H5.33z"
     id="path8" />
  <g
     style="white-space:pre;shape-inside:url(#a);display:inline;fill:#f8f8f2;stroke:#e68900;stroke-width:1.67548098;stroke-dasharray:none;stroke-opacity:1;paint-order:markers stroke fill"
     id="g12">
    <path
       d="M8.614 18.406q-.733-.012-1.273-.216-.528-.204-.816-.636-.288-.42-.288-1.056v-1.764q0-.408-.168-.648-.168-.252-.492-.36-.324-.12-.804-.12v-.876q.48-.012.804-.12.324-.108.492-.348.168-.252.168-.648V9.838q0-.636.3-1.056.3-.42.84-.624.54-.216 1.236-.216v.864q-.407.012-.707.132-.3.12-.468.36-.156.24-.156.636v1.728q0 .612-.324.984-.324.36-.984.48v.072q.672.12.984.492.324.36.324.972v1.764q0 .384.156.624.156.252.456.36.3.12.72.132z"
       aria-label="{"
       style="stroke-width:1.67548098;stroke-dasharray:none;stroke:#c7925b;stroke-opacity:1;paint-order:markers stroke fill;fill:#f8f8f2"
       transform="matrix(-.31582 0 0 .31582 14.39 7.614)"
       id="path10" />
  </g>
  <g
     style="white-space:pre;shape-inside:url(#b);display:inline;fill:#f8f8f2;stroke:#e68900;stroke-width:1.67548098;stroke-opacity:1;stroke-dasharray:none;paint-order:markers stroke fill"
     id="g16">
    <path
       d="M8.614 18.406q-.733-.012-1.273-.216-.528-.204-.816-.636-.288-.42-.288-1.056v-1.764q0-.408-.168-.648-.168-.252-.492-.36-.324-.12-.804-.12v-.876q.48-.012.804-.12.324-.108.492-.348.168-.252.168-.648V9.838q0-.636.3-1.056.3-.42.84-.624.54-.216 1.236-.216v.864q-.407.012-.707.132-.3.12-.468.36-.156.24-.156.636v1.728q0 .612-.324.984-.324.36-.984.48v.072q.672.12.984.492.324.36.324.972v1.764q0 .384.156.624.156.252.456.36.3.12.72.132z"
       aria-label="{"
       style="stroke:#c7925b;stroke-opacity:1;stroke-width:1.67548098;stroke-dasharray:none;paint-order:markers stroke fill;fill:#f8f8f2"
       transform="translate(3.317 .997) scale(.31582)"
       id="path14" />
  </g>
</svg>
