<?xml version="1.0" encoding="UTF-8" standalone="no"?>
<svg
   width="64"
   height="64"
   version="1.0"
   id="svg16"
   sodipodi:docname="io.github.seadve.Kooha.svg"
   inkscape:version="1.2.2 (b0a8486541, 2022-12-01)"
   xmlns:inkscape="http://www.inkscape.org/namespaces/inkscape"
   xmlns:sodipodi="http://sodipodi.sourceforge.net/DTD/sodipodi-0.dtd"
   xmlns="http://www.w3.org/2000/svg"
   xmlns:svg="http://www.w3.org/2000/svg">
  <defs
     id="defs20" />
  <sodipodi:namedview
     id="namedview18"
     pagecolor="#505050"
     bordercolor="#eeeeee"
     borderopacity="1"
     inkscape:showpageshadow="0"
     inkscape:pageopacity="0"
     inkscape:pagecheckerboard="0"
     inkscape:deskcolor="#505050"
     showgrid="false"
     inkscape:zoom="15.921875"
     inkscape:cx="29.895976"
     inkscape:cy="32.031403"
     inkscape:window-width="2560"
     inkscape:window-height="1361"
     inkscape:window-x="0"
     inkscape:window-y="0"
     inkscape:window-maximized="1"
     inkscape:current-layer="svg16" />
  <rect
     x="5"
     y="5"
     width="54"
     height="54"
     rx="27"
     ry="27"
     fill="#f13758"
     stroke-linecap="round"
     stroke-linejoin="round"
     stroke-width=".5725"
     id="rect2"
     style="fill:#c7484a" />
  <rect
     x="9"
     y="9"
     width="46"
     height="46"
     rx="23"
     ry="23"
     fill="#f8f8f2"
     opacity=".25"
     stroke-linecap="round"
     stroke-linejoin="round"
     stroke-width=".44776"
     id="rect4" />
  <path
     d="m18 18v5.5a0.5 0.5 0 0 0 0.5 0.5 0.5 0.5 0 0 0 0.5-0.5v-4.5h4.5a0.5 0.5 0 0 0 0.5-0.5 0.5 0.5 0 0 0-0.5-0.5z"
     color="#282a36"
     fill="#f8f8f2"
     stroke-linecap="round"
     style="-inkscape-stroke:none"
     id="path6" />
  <path
     d="m40.5 18a0.5 0.5 0 0 0-0.5 0.5 0.5 0.5 0 0 0 0.5 0.5h4.5v4.5a0.5 0.5 0 0 0 0.5 0.5 0.5 0.5 0 0 0 0.5-0.5v-5.5z"
     color="#282a36"
     fill="#f8f8f2"
     stroke-linecap="round"
     style="-inkscape-stroke:none"
     id="path8" />
  <path
     d="m45.5 40a0.5 0.5 0 0 0-0.5 0.5v4.5h-4.5a0.5 0.5 0 0 0-0.5 0.5 0.5 0.5 0 0 0 0.5 0.5h5.5v-5.5a0.5 0.5 0 0 0-0.5-0.5z"
     color="#282a36"
     fill="#f8f8f2"
     stroke-linecap="round"
     style="-inkscape-stroke:none"
     id="path10" />
  <path
     d="m18.5 40a0.5 0.5 0 0 0-0.5 0.5v5.5h5.5a0.5 0.5 0 0 0 0.5-0.5 0.5 0.5 0 0 0-0.5-0.5h-4.5v-4.5a0.5 0.5 0 0 0-0.5-0.5z"
     color="#282a36"
     fill="#f8f8f2"
     stroke-linecap="round"
     style="-inkscape-stroke:none"
     id="path12" />
  <path
     d="m30 27c-1.108 0-2 0.892-2 2v6c0 1.108 0.892 2 2 2h8c1.108 0 2-0.892 2-2v-6c0-1.108-0.892-2-2-2zm-2 5-3-4h-1v8h1zm5.9394-4a4 4 0 0 1 0.0606 0 4 4 0 0 1 4 4 4 4 0 0 1-4 4 4 4 0 0 1-4-4 4 4 0 0 1 3.9394-4zm0.0117 2a2 2 0 0 0-1.9512 2 2 2 0 0 0 2 2 2 2 0 0 0 2-2 2 2 0 0 0-2-2 2 2 0 0 0-0.0488 0z"
     fill="#f8f8f2"
     id="path14" />
</svg>
