<?xml version="1.0" encoding="UTF-8" standalone="no"?>
<svg
   width="64"
   height="64"
   version="1.1"
   id="svg26"
   sodipodi:docname="io.github.mpobaschnig.Vaults.svg"
   inkscape:version="1.2.2 (b0a8486541, 2022-12-01)"
   xmlns:inkscape="http://www.inkscape.org/namespaces/inkscape"
   xmlns:sodipodi="http://sodipodi.sourceforge.net/DTD/sodipodi-0.dtd"
   xmlns="http://www.w3.org/2000/svg"
   xmlns:svg="http://www.w3.org/2000/svg">
  <defs
     id="defs30" />
  <sodipodi:namedview
     id="namedview28"
     pagecolor="#505050"
     bordercolor="#eeeeee"
     borderopacity="1"
     inkscape:showpageshadow="0"
     inkscape:pageopacity="0"
     inkscape:pagecheckerboard="0"
     inkscape:deskcolor="#505050"
     showgrid="false"
     inkscape:zoom="15.921875"
     inkscape:cx="29.895976"
     inkscape:cy="32.031403"
     inkscape:window-width="2560"
     inkscape:window-height="1361"
     inkscape:window-x="0"
     inkscape:window-y="0"
     inkscape:window-maximized="1"
     inkscape:current-layer="svg26" />
  <path
     fill="#d2d1ce"
     fill-rule="evenodd"
     d="M32 5a27 27 0 0 0-21 10.113v33.773a27 27 0 0 0 21 10.113 27 27 0 0 0 27-27 27 27 0 0 0-27-27z"
     style="paint-order:stroke fill markers;fill:#cbcccc"
     id="path2" />
  <path
     fill="#848385"
     d="M11 14.998C7.247 19.634 5 25.544 5 32s2.247 12.366 6 17.002V14.998z"
     id="path4"
     style="fill:#9ea0a6" />
  <path
     fill="#5f5d65"
     d="M9.55 37.315h2.25v5.251H9.55zm0-14.756h2.25v5.251H9.55z"
     id="path6"
     style="fill:#717380" />
  <path
     fill="#3d3846"
     d="M32 24.864a7.137 7.137 0 1 0 0 14.274 7.137 7.137 0 0 0 0-14.274z"
     id="path8"
     style="fill:#44475a" />
  <g
     fill="#ababab"
     stroke-linecap="round"
     color="#282a36"
     id="g14"
     style="fill:#9ea0a6">
    <path
       d="m45.515 18.505-27.03 26.99m25.351-28.673-27.031 26.99a2.377 2.377 0 0 0-.002 3.361 2.377 2.377 0 0 0 3.361.004l27.031-26.99a2.377 2.377 0 0 0 .002-3.361 2.377 2.377 0 0 0-3.361-.004zm-25.351 1.683 27.03 26.99"
       style="-inkscape-stroke:none;fill:#9ea0a6"
       id="path10" />
    <path
       d="M18.482 16.129a2.377 2.377 0 0 0-1.68.697 2.377 2.377 0 0 0 .002 3.362l27.031 26.99a2.377 2.377 0 0 0 3.362-.004 2.377 2.377 0 0 0-.002-3.362l-27.031-26.99a2.377 2.377 0 0 0-1.682-.693z"
       style="-inkscape-stroke:none;fill:#9ea0a6"
       id="path12" />
  </g>
  <path
     fill="#f6f5f4"
     d="M32 26.846c-2.848 0-5.154 2.307-5.154 5.154s2.306 5.154 5.154 5.154 5.154-2.307 5.154-5.154-2.306-5.154-5.154-5.154z"
     id="path16"
     style="fill:#f8f8f2" />
  <path
     fill="#a8a8a5"
     d="M10.675 36.19c-.621 0-1.125.169-1.125.375v5.251h2.25v-5.25c0-.208-.504-.376-1.125-.376z"
     id="path18"
     style="fill:#9ea0a6" />
  <path
     fill="#5f5d65"
     d="M10.675 41.441c-.621 0-1.125.169-1.125.375 0 .207.504.375 1.125.375.128 0 .255-.007.375-.022v-.353h.75c0-.206-.504-.375-1.125-.375zm0-3.001c-.621 0-1.125.169-1.125.375v.75c0-.206.504-.375 1.125-.375s1.125.169 1.125.375v-.75c0-.206-.504-.375-1.125-.375zm.45 1.093z"
     id="path20"
     style="fill:#717380" />
  <path
     fill="#a8a8a5"
     d="M10.675 21.434c-.621 0-1.125.169-1.125.375v5.251h2.25v-5.25c0-.207-.504-.376-1.125-.376z"
     id="path22"
     style="fill:#9ea0a6" />
  <path
     fill="#5f5d65"
     d="M10.675 26.685c-.621 0-1.125.169-1.125.375 0 .207.504.375 1.125.375.128 0 .255-.007.375-.022v-.353h.75c0-.207-.504-.375-1.125-.375zm0-3.001c-.621 0-1.125.169-1.125.375v.75c0-.206.504-.375 1.125-.375s1.125.169 1.125.375v-.75c0-.207-.504-.375-1.125-.375zm.45 1.093z"
     id="path24"
     style="fill:#717380" />
</svg>
