<?xml version="1.0" encoding="UTF-8" standalone="no"?>
<svg
   width="64"
   height="64"
   version="1.1"
   id="svg28"
   sodipodi:docname="io.posidon.Paper.svg"
   inkscape:version="1.2.2 (b0a8486541, 2022-12-01)"
   xmlns:inkscape="http://www.inkscape.org/namespaces/inkscape"
   xmlns:sodipodi="http://sodipodi.sourceforge.net/DTD/sodipodi-0.dtd"
   xmlns="http://www.w3.org/2000/svg"
   xmlns:svg="http://www.w3.org/2000/svg">
  <defs
     id="defs32" />
  <sodipodi:namedview
     id="namedview30"
     pagecolor="#505050"
     bordercolor="#eeeeee"
     borderopacity="1"
     inkscape:showpageshadow="0"
     inkscape:pageopacity="0"
     inkscape:pagecheckerboard="0"
     inkscape:deskcolor="#505050"
     showgrid="false"
     inkscape:zoom="15.921875"
     inkscape:cx="29.895976"
     inkscape:cy="32.031403"
     inkscape:window-width="2560"
     inkscape:window-height="1361"
     inkscape:window-x="0"
     inkscape:window-y="0"
     inkscape:window-maximized="1"
     inkscape:current-layer="svg28" />
  <circle
     cx="32"
     cy="32"
     r="27"
     fill="#fefaec"
     stroke-width=".96429"
     id="circle2"
     style="fill:#f8f8f2" />
  <g
     transform="matrix(.67857 0 0 .67857 10.964 10.964)"
     id="g26">
    <path
       d="m9 10v44.198c0 2.6515 2.0432 4.8016 4.5627 4.8016h23.437l16-15.955v-33.045z"
       fill="#faf1c7"
       id="path4"
       style="fill:#f3faa6" />
    <path
       d="m13.562 3c-2.5273 0-4.5625 2.1478-4.5625 4.8151v2.1849l44 1.26e-4v-2.185c0-2.6673-2.0352-4.8151-4.5625-4.8151z"
       fill="#4cd2bb"
       id="path6"
       style="fill:#7afa99" />
    <path
       d="m53 43h-11.576c-2.4431 0-4.4244 2.0535-4.4244 4.5859v11.414z"
       fill="#dcedc8"
       stroke-width=".99998"
       id="path8"
       style="fill:#1e1f29;opacity:0.3" />
    <path
       d="m17 19v4h1v-1h2v-3zm4 0v4h1v-1h1v1h1v-4zm4 0v4h1v-1h2v-3zm4 0v4h3v-1h-2v-0.5h1.5v-1h-1.5v-0.5h2v-1zm4 0v4h1v-1h1v-1h-1v-1h1v1h1v-2zm2 3v1h1v-1zm-17-2h1v1h-1zm4 0h1v1h-1zm4 0h1v1h-1z"
       fill-opacity=".996"
       id="path10"
       style="fill:#1e1f29" />
    <circle
       cx="18"
       cy="42"
       r="1"
       fill="#a5d6a7"
       id="circle12"
       style="fill:#7afa99" />
    <circle
       cx="18"
       cy="47"
       r="1"
       fill="#a5d6a7"
       id="circle14"
       style="fill:#7afa99" />
    <rect
       x="22"
       y="41"
       width="13.182"
       height="2"
       rx="1"
       fill="#00796b"
       id="rect16"
       style="fill:#44c367" />
    <rect
       x="22"
       y="46"
       width="7.909"
       height="2"
       rx="1"
       fill="#00796b"
       id="rect18"
       style="fill:#44c367" />
    <rect
       x="17"
       y="36"
       width="10"
       height="2"
       rx="1"
       fill="#00796b"
       id="rect20"
       style="fill:#44c367" />
    <rect
       x="17"
       y="26"
       width="29"
       height="2"
       rx="1"
       fill="#00796b"
       id="rect22"
       style="fill:#44c367" />
    <rect
       x="17"
       y="31"
       width="29"
       height="2"
       rx="1"
       fill="#00796b"
       id="rect24"
       style="fill:#44c367" />
  </g>
</svg>
