<?xml version="1.0" encoding="UTF-8" standalone="no"?>
<svg
   width="64"
   height="64"
   version="1.1"
   id="svg12"
   sodipodi:docname="jmeter.svg"
   inkscape:version="1.2.2 (b0a8486541, 2022-12-01)"
   xmlns:inkscape="http://www.inkscape.org/namespaces/inkscape"
   xmlns:sodipodi="http://sodipodi.sourceforge.net/DTD/sodipodi-0.dtd"
   xmlns="http://www.w3.org/2000/svg"
   xmlns:svg="http://www.w3.org/2000/svg">
  <defs
     id="defs16" />
  <sodipodi:namedview
     id="namedview14"
     pagecolor="#505050"
     bordercolor="#eeeeee"
     borderopacity="1"
     inkscape:showpageshadow="0"
     inkscape:pageopacity="0"
     inkscape:pagecheckerboard="0"
     inkscape:deskcolor="#505050"
     showgrid="false"
     inkscape:zoom="15.921875"
     inkscape:cx="29.895976"
     inkscape:cy="32.031403"
     inkscape:window-width="2560"
     inkscape:window-height="1361"
     inkscape:window-x="0"
     inkscape:window-y="0"
     inkscape:window-maximized="1"
     inkscape:current-layer="svg12" />
  <path
     fill="#f8f8f2"
     d="M32 5c14.912 0 27 12.088 27 27S46.911 59 32 59 5 46.911 5 32 17.088 5 32 5z"
     id="path2" />
  <path
     fill="#dd435f"
     d="M28.466 28.478a57.945 57.945 0 0 0-5.78 9.391c2.432.78 5.977.446 9.634 0 1.384-.86 2.694-1.983 3.98-3.52-4.304 0-7.004-.72-7.004-1.173h7.75a41 41 0 0 0 3.013-3.522c-3.76 0-6.89-.476-6.89-1.174-1.17-1.174-1.768-.806-4.707-.002"
     id="path4"
     style="fill:#c7484a" />
  <path
     fill="#e57a55"
     d="M32.495 23.782a49.83 49.83 0 0 0-4.029 4.696h12.452c.777-1.153 1.427-2.392 1.965-3.52-3.356 0-5.605-.758-5.605-1.173-.583-1.174-2.93-1.174-4.783-.003"
     id="path6"
     style="fill:#c7925b" />
  <path
     fill="#f5ad45"
     d="M44.913 16.739c-3.85 0-8.3 2.82-12.418 7.043h10.95c1.016-2.504 1.472-4.896 1.463-7.04z"
     id="path8"
     style="fill:#ffb86c" />
  <path
     fill="#c056ba"
     d="M22.69 37.87c-.108.222-.228.445-.334.668-1.507 3.191-2.78 6.641-3.265 8.722l.587-.024c2.189-6.311 4.708-6.822 5.905-7.02 2.54-.423 4.72-1.092 6.743-2.346h-9.634z"
     id="path10"
     style="fill:#9576c5" />
</svg>
