<?xml version="1.0" encoding="UTF-8" standalone="no"?>
<svg
   width="64"
   height="64"
   version="1.1"
   viewBox="0 0 64 64"
   id="svg14"
   sodipodi:docname="jupyter.svg"
   inkscape:version="1.2.2 (b0a8486541, 2022-12-01)"
   xmlns:inkscape="http://www.inkscape.org/namespaces/inkscape"
   xmlns:sodipodi="http://sodipodi.sourceforge.net/DTD/sodipodi-0.dtd"
   xmlns="http://www.w3.org/2000/svg"
   xmlns:svg="http://www.w3.org/2000/svg">
  <defs
     id="defs18" />
  <sodipodi:namedview
     id="namedview16"
     pagecolor="#505050"
     bordercolor="#eeeeee"
     borderopacity="1"
     inkscape:showpageshadow="0"
     inkscape:pageopacity="0"
     inkscape:pagecheckerboard="0"
     inkscape:deskcolor="#505050"
     showgrid="false"
     inkscape:zoom="15.921875"
     inkscape:cx="29.895976"
     inkscape:cy="32.031403"
     inkscape:window-width="2560"
     inkscape:window-height="1361"
     inkscape:window-x="0"
     inkscape:window-y="0"
     inkscape:window-maximized="1"
     inkscape:current-layer="svg14" />
  <path
     d="m32 4.9993c14.912 0 27 12.088 27 27s-12.088 27-27 27-27-12.088-27-27 12.088-27 27-27z"
     fill="#f8f8f2"
     stroke-width=".99999"
     id="path2" />
  <g
     transform="matrix(.9 0 0 .9 -13.595 5.839)"
     stroke-width="1.3043"
     id="g12">
    <circle
       cx="61.748"
       cy="14.068"
       r="1.9565"
       fill="#767677"
       id="circle4"
       style="fill:#717380" />
    <circle
       cx="41.531"
       cy="43.416"
       r="2.6087"
       fill="#9e9e9e"
       id="circle6"
       style="fill:#9ea0a6" />
    <circle
       cx="39.574"
       cy="15.372"
       r="1.9565"
       fill="#616262"
       id="circle8"
       style="fill:#717380" />
    <path
       d="m50.661 14.72c-6.5217 0-11.739 5.2174-13.043 9.1304 3.913-3.913 9.1304-5.2174 13.043-5.2174 3.913 0 9.1304 1.3043 13.043 5.2174-1.3043-3.913-6.5217-9.1304-13.043-9.1304zm-13.043 18.261c1.3043 3.913 6.5217 9.1304 13.043 9.1304 6.5217 0 11.739-5.2174 13.043-9.1304-3.913 3.913-9.1304 5.2174-13.043 5.2174-3.913 0-9.1304-1.3043-13.043-5.2174z"
       fill="#f37726"
       id="path10"
       style="fill:#c7925b" />
  </g>
</svg>
