<?xml version="1.0" encoding="UTF-8" standalone="no"?>
<svg
   width="64"
   height="64"
   version="1.1"
   id="svg30"
   sodipodi:docname="kanagram.svg"
   inkscape:version="1.2.2 (b0a8486541, 2022-12-01)"
   xmlns:inkscape="http://www.inkscape.org/namespaces/inkscape"
   xmlns:sodipodi="http://sodipodi.sourceforge.net/DTD/sodipodi-0.dtd"
   xmlns="http://www.w3.org/2000/svg"
   xmlns:svg="http://www.w3.org/2000/svg">
  <defs
     id="defs34" />
  <sodipodi:namedview
     id="namedview32"
     pagecolor="#505050"
     bordercolor="#eeeeee"
     borderopacity="1"
     inkscape:showpageshadow="0"
     inkscape:pageopacity="0"
     inkscape:pagecheckerboard="0"
     inkscape:deskcolor="#505050"
     showgrid="false"
     inkscape:zoom="15.921875"
     inkscape:cx="29.895976"
     inkscape:cy="32.031403"
     inkscape:window-width="2560"
     inkscape:window-height="1361"
     inkscape:window-x="0"
     inkscape:window-y="0"
     inkscape:window-maximized="1"
     inkscape:current-layer="svg30" />
  <circle
     cx="32"
     cy="32"
     r="27"
     fill="#a7a7a7"
     stroke-width="3.7796"
     style="paint-order:stroke fill markers;fill:#9ea0a6"
     id="circle2" />
  <circle
     cx="32"
     cy="32"
     r="24"
     fill="#646464"
     stroke-width="3.3596"
     style="paint-order:stroke fill markers;fill:#717380"
     id="circle4" />
  <g
     transform="matrix(.8894 0 0 .8894 2.8989 18.078)"
     id="g28"
     style="fill:#f8f8f2">
    <g
       fill="#f8f8f2"
       id="g26"
       style="fill:#f8f8f2">
      <g
         transform="matrix(1.2381,0,0,1.2381,2.2857,-13.714)"
         id="g8"
         style="fill:#f8f8f2">
        <path
           d="m11.314 27-2.637-4.536v4.536h-1.35v-6.561h1.386l2.601 4.464v-4.464h1.35v6.561h-1.35"
           fill="#f8f8f2"
           stroke-width=".80769"
           id="path6"
           style="fill:#f8f8f2" />
      </g>
      <g
         transform="matrix(1.2381,0,0,1.2381,2.2857,-13.714)"
         id="g12"
         style="fill:#f8f8f2">
        <path
           d="m17.673 17.439v6.561h-1.35v-6.561h1.35"
           fill="#f8f8f2"
           stroke-width=".80769"
           id="path10"
           style="fill:#f8f8f2" />
      </g>
      <g
         transform="matrix(1.2381,0,0,1.2381,2.2857,-13.714)"
         id="g16"
         style="fill:#f8f8f2">
        <path
           d="m23.284 23.439v5.436h3.141v1.125h-4.491v-6.561h1.35"
           fill="#f8f8f2"
           stroke-width=".80769"
           id="path14"
           style="fill:#f8f8f2" />
      </g>
      <g
         transform="matrix(1.2381,0,0,1.2381,2.2857,-13.714)"
         id="g20"
         style="fill:#f8f8f2">
        <path
           d="m31.692 27.144c-0.222 0.042-0.453 0.063-0.693 0.063s-0.474-0.021-0.702-0.063c-0.222-0.042-0.453-0.117-0.693-0.225-0.234-0.108-0.438-0.246-0.612-0.414s-0.318-0.39-0.432-0.666c-0.108-0.282-0.162-0.6-0.162-0.954v-4.446h1.35v4.446c-2e-6 0.78 0.417 1.17 1.251 1.17 0.834 1e-6 1.251-0.39 1.251-1.17v-4.446h1.35v4.446c-6e-6 0.354-0.057 0.672-0.171 0.954-0.108 0.276-0.249 0.498-0.423 0.666s-0.381 0.306-0.621 0.414c-0.234 0.108-0.465 0.183-0.693 0.225"
           fill="#f8f8f2"
           stroke-width=".80769"
           id="path18"
           style="fill:#f8f8f2" />
      </g>
      <g
         transform="matrix(1.2381,0,0,1.2381,2.2857,-13.714)"
         id="g24"
         style="fill:#f8f8f2">
        <path
           d="m39.73 20.652 2.106 3.348h-1.602l-1.26-2.277-1.251 2.277h-1.566l2.07-3.303-1.998-3.258h1.602l1.152 2.16 1.206-2.16h1.566l-2.025 3.213"
           fill="#f8f8f2"
           stroke-width=".80769"
           id="path22"
           style="fill:#f8f8f2" />
      </g>
    </g>
  </g>
</svg>
