<?xml version="1.0" encoding="UTF-8" standalone="no"?>
<svg
   width="64"
   height="64"
   version="1.1"
   id="svg32"
   sodipodi:docname="karbon.svg"
   inkscape:version="1.2.2 (b0a8486541, 2022-12-01)"
   xmlns:inkscape="http://www.inkscape.org/namespaces/inkscape"
   xmlns:sodipodi="http://sodipodi.sourceforge.net/DTD/sodipodi-0.dtd"
   xmlns="http://www.w3.org/2000/svg"
   xmlns:svg="http://www.w3.org/2000/svg">
  <defs
     id="defs36" />
  <sodipodi:namedview
     id="namedview34"
     pagecolor="#505050"
     bordercolor="#eeeeee"
     borderopacity="1"
     inkscape:showpageshadow="0"
     inkscape:pageopacity="0"
     inkscape:pagecheckerboard="0"
     inkscape:deskcolor="#505050"
     showgrid="false"
     inkscape:zoom="15.921875"
     inkscape:cx="29.895976"
     inkscape:cy="32.031403"
     inkscape:window-width="2560"
     inkscape:window-height="1361"
     inkscape:window-x="0"
     inkscape:window-y="0"
     inkscape:window-maximized="1"
     inkscape:current-layer="svg32" />
  <g
     transform="matrix(1.35 0 0 1.35 -.4 -.4)"
     id="g30">
    <path
       d="m24 4c-6.1652 0.00943-11.981 2.8617-15.764 7.7305 4.1526 0.05016 16.529 0.75902 17.809 7.1582 1.023 5.112-6.1348 6.1341-4.0898 11.246 1.8893 4.7253 16.335 5.0607 18.594 5.0879 2.2473-3.3114 3.4495-7.2207 3.4512-11.223 0-11.046-8.9543-20-20-20z"
       fill="#cbcccc"
       stroke-width=".74074"
       id="path2" />
    <g
       fill-rule="evenodd"
       stroke-width=".74074"
       id="g8">
      <path
         d="m8.235 11.732c-2.736 3.505-4.227 7.822-4.235 12.268 0 11.05 8.954 20 20 20 6.631-1e-3 12.831-3.289 16.552-8.778-2.251-0.027-16.706-0.361-18.596-5.088-2.045-5.112 5.112-6.134 4.089-11.246-1.28-6.4-13.659-7.107-17.81-7.157"
         fill="#5d417a"
         id="path4"
         style="fill:#9576c5" />
      <path
         d="m8.234 11.732c-7e-3 0.01-0.014 0.02-0.021 0.029 4.798 0.144 15.634 1.137 16.832 7.127 1.022 5.112-6.179 6.09-4.134 11.202 1.891 4.726 16.838 6.883 19.09 6.909l0.551-1.777c-2.251-0.027-16.705-0.361-18.596-5.088-2.045-5.112 5.112-6.134 4.09-11.246-1.28-6.4-13.66-7.107-17.811-7.156"
         fill="#303335"
         id="path6"
         style="fill:#282a36" />
    </g>
    <g
       stroke-linecap="round"
       stroke-linejoin="bevel"
       stroke-width="1.4815"
       id="g28">
      <circle
         transform="rotate(-90)"
         cx="-12"
         cy="9"
         r="2"
         fill="#303335"
         id="circle10"
         style="fill:#282a36" />
      <circle
         cx="9"
         cy="12"
         r="1"
         fill="#f8f8f2"
         id="circle12" />
      <circle
         transform="rotate(-90)"
         cx="-30"
         cy="22"
         r="3"
         fill="#303335"
         id="circle14"
         style="fill:#282a36" />
      <circle
         transform="rotate(-90)"
         cx="-19.5"
         cy="25.5"
         r="2.5"
         fill="#303335"
         id="circle16"
         style="fill:#282a36" />
      <g
         fill="#f8f8f2"
         id="g22">
        <circle
           cx="25.5"
           cy="19.5"
           r="1.5"
           id="circle18" />
        <circle
           cx="22"
           cy="30"
           r="2"
           id="circle20" />
      </g>
      <circle
         transform="rotate(-90)"
         cx="-35"
         cy="38"
         r="4"
         fill="#303335"
         id="circle24"
         style="fill:#282a36" />
      <circle
         cx="38"
         cy="35"
         r="3"
         fill="#f8f8f2"
         id="circle26" />
    </g>
  </g>
</svg>
