<?xml version="1.0" encoding="UTF-8" standalone="no"?>
<svg
   width="64"
   height="64"
   version="1.1"
   viewBox="0 0 16.933 16.933"
   id="svg44"
   sodipodi:docname="katomic.svg"
   inkscape:version="1.2.2 (b0a8486541, 2022-12-01)"
   xmlns:inkscape="http://www.inkscape.org/namespaces/inkscape"
   xmlns:sodipodi="http://sodipodi.sourceforge.net/DTD/sodipodi-0.dtd"
   xmlns:xlink="http://www.w3.org/1999/xlink"
   xmlns="http://www.w3.org/2000/svg"
   xmlns:svg="http://www.w3.org/2000/svg">
  <sodipodi:namedview
     id="namedview46"
     pagecolor="#505050"
     bordercolor="#eeeeee"
     borderopacity="1"
     inkscape:showpageshadow="0"
     inkscape:pageopacity="0"
     inkscape:pagecheckerboard="0"
     inkscape:deskcolor="#505050"
     showgrid="false"
     inkscape:zoom="15.921875"
     inkscape:cx="29.895976"
     inkscape:cy="32.031403"
     inkscape:window-width="2560"
     inkscape:window-height="1361"
     inkscape:window-x="0"
     inkscape:window-y="0"
     inkscape:window-maximized="1"
     inkscape:current-layer="svg44" />
  <defs
     id="defs18">
    <radialGradient
       id="g"
       cx="24.75"
       cy="26"
       r="2.5"
       gradientTransform="matrix(.26458 0 0 .26458 1.331 3.4077)"
       gradientUnits="userSpaceOnUse"
       xlink:href="#b" />
    <linearGradient
       id="b">
      <stop
         stop-color="#bfbfef"
         offset="0"
         id="stop3" />
      <stop
         stop-color="#a6a6ea"
         offset="1"
         id="stop5" />
    </linearGradient>
    <radialGradient
       id="e"
       cx="26.75"
       cy="25.25"
       r="2.5"
       gradientTransform="matrix(.26458 0 0 .26458 1.331 3.4077)"
       gradientUnits="userSpaceOnUse"
       xlink:href="#a" />
    <linearGradient
       id="a">
      <stop
         stop-color="#dedede"
         offset="0"
         id="stop9" />
      <stop
         stop-color="#d3d3d3"
         offset="1"
         id="stop11" />
    </linearGradient>
    <radialGradient
       id="d"
       cx="22.8"
       cy="25"
       r="2.5"
       gradientTransform="matrix(.26458 0 0 .26458 1.331 3.4077)"
       gradientUnits="userSpaceOnUse"
       xlink:href="#a" />
    <radialGradient
       id="h"
       cx="27"
       cy="22.75"
       r="2.5"
       gradientTransform="matrix(.26458 0 0 .26458 1.331 3.4077)"
       gradientUnits="userSpaceOnUse"
       xlink:href="#b" />
    <radialGradient
       id="c"
       cx="24.75"
       cy="22"
       r="2.5"
       gradientTransform="matrix(.26458 0 0 .26458 1.331 3.4077)"
       gradientUnits="userSpaceOnUse"
       xlink:href="#a" />
    <radialGradient
       id="f"
       cx="23"
       cy="22.5"
       r="2.5"
       gradientTransform="matrix(.26458 0 0 .26458 1.331 3.4077)"
       gradientUnits="userSpaceOnUse"
       xlink:href="#b" />
  </defs>
  <circle
     cx="8.4665"
     cy="8.46"
     r="7.1436"
     fill="#424242"
     style="paint-order:stroke markers fill;fill:#44475a"
     id="circle20" />
  <g
     transform="matrix(1.2 0 0 1.2 -1.0045 -3.2431)"
     stroke-width=".22048"
     id="g42">
    <g
       fill="#e48282"
       id="g28"
       style="fill:#fd7e7c">
      <path
         d="m7.8925 7.6407c-1.0662 0-2.033 0.17464-2.7389 0.53982-0.35295 0.18258-0.64107 0.40195-0.8485 0.6557-0.20743 0.25376-0.38126 0.55543-0.38126 0.92137 0 0.36596 0.17383 0.66761 0.38126 0.92137 0.20743 0.25376 0.49555 0.47312 0.8485 0.6557 0.70589 0.36517 1.6727 0.53982 2.7389 0.53982 1.0662 0 2.033-0.17464 2.7389-0.53982 0.35295-0.18258 0.64107-0.40195 0.8485-0.6557 0.20743-0.25376 0.38126-0.55543 0.38126-0.92137 0-0.36596-0.17383-0.66761-0.38126-0.92137-0.20743-0.25376-0.49556-0.47312-0.8485-0.6557-0.70589-0.36517-1.6727-0.53982-2.7389-0.53982m0 0.344c1.0525 0 2.0013 0.19714 2.6836 0.55014 0.34131 0.17649 0.5617 0.38131 0.74267 0.60252 0.18097 0.22122 0.22489 0.43819 0.22489 0.62025 0 0.18205-0.04392 0.39904-0.22489 0.62025-0.18097 0.22122-0.40136 0.42602-0.74267 0.60252-0.68261 0.353-1.6311 0.55014-2.6836 0.55014s-2.001-0.19714-2.6836-0.55014c-0.34131-0.1765-0.56196-0.38131-0.74267-0.60252-0.18097-0.22122-0.22489-0.43819-0.22489-0.62025 0-0.18205 0.04392-0.39904 0.22489-0.62025 0.18097-0.22122 0.40136-0.42602 0.74267-0.60252 0.68261-0.353 1.6311-0.55014 2.6836-0.55014"
         color="#282a36"
         id="path22"
         style="fill:#fd7e7c" />
      <path
         d="m6.059 8.699c-0.53445 0.92348-0.86517 1.8481-0.90195 2.6422-0.018256 0.39718 0.027516 0.75627 0.1434 1.0637 0.11589 0.30641 0.29024 0.60782 0.60721 0.79093 0.31696 0.18311 0.66515 0.18338 0.98846 0.13045 0.32331-0.05292 0.65721-0.19264 0.9919-0.40697 0.66938-0.42893 1.3038-1.1789 1.837-2.1023 0.53445-0.92348 0.86517-1.8481 0.90195-2.6422 0.018256-0.39718-0.027516-0.75627-0.1434-1.0637-0.11589-0.30641-0.29024-0.60782-0.60721-0.79093-0.31696-0.18311-0.66515-0.18338-0.98846-0.13045-0.32331 0.052924-0.65721 0.19264-0.9919 0.40697-0.66938 0.42893-1.3038 1.1789-1.837 2.1023m0.29791 0.172c0.52625-0.91158 1.1713-1.6348 1.8182-2.0492 0.32358-0.20719 0.61118-0.29609 0.89295-0.34215 0.28204-0.046042 0.49185 0.024344 0.64954 0.11537 0.15769 0.091025 0.32358 0.23762 0.42465 0.50487s0.16801 0.56072 0.15028 0.94441c-0.035453 0.76765-0.33919 1.688-0.86543 2.5996-0.52625 0.9116-1.1713 1.6345-1.8182 2.0492-0.32358 0.20719-0.61118 0.29609-0.89295 0.34215-0.28204 0.046042-0.49185-0.024343-0.64954-0.11537-0.15769-0.091025-0.32358-0.23762-0.42465-0.50487-0.10107-0.26724-0.16801-0.56072-0.15028-0.94441 0.035454-0.76765 0.33919-1.688 0.86544-2.5996"
         color="#282a36"
         id="path24"
         style="fill:#fd7e7c" />
      <path
         d="m9.7255 8.707c0.53445 0.91687 0.86517 1.8348 0.90195 2.6231 0.01826 0.39427-0.02752 0.75071-0.1434 1.055-0.11588 0.30429-0.29024 0.60358-0.60721 0.78537-0.31696 0.18179-0.66515 0.18205-0.98846 0.12939-0.32331-0.052392-0.65721-0.19131-0.9919-0.40406-0.66938-0.42576-1.3038-1.1704-1.837-2.0873-0.53445-0.91687-0.86517-1.8348-0.90195-2.6231-0.018256-0.39427 0.027516-0.75071 0.1434-1.055 0.11589-0.30429 0.29024-0.60358 0.60721-0.78537 0.31696-0.18179 0.66515-0.18205 0.98846-0.12939 0.32331 0.052392 0.65721 0.19131 0.9919 0.40406 0.66938 0.42576 1.3038 1.1704 1.837 2.0873zm-0.29791 0.17067c-0.52625-0.90496-1.1713-1.6229-1.8182-2.0343-0.32358-0.20587-0.61118-0.29371-0.89295-0.33951-0.28204-0.045777-0.49185 0.024079-0.64954 0.11458-0.15769 0.090232-0.32358 0.23603-0.42465 0.50116-0.10107 0.2646-0.16801 0.55649-0.15028 0.9378 0.035454 0.76209 0.33919 1.6758 0.86544 2.5807 0.52625 0.90496 1.1713 1.6229 1.8182 2.0343 0.32358 0.20587 0.61118 0.29397 0.89295 0.33951 0.28204 0.04578 0.49185-0.02408 0.64954-0.11458 0.15769-0.09023 0.32358-0.23603 0.42465-0.50116 0.10107-0.2646 0.16801-0.55649 0.15028-0.9378-0.035453-0.76209-0.33919-1.6758-0.86543-2.5807z"
         color="#282a36"
         id="path26"
         style="fill:#fd7e7c" />
    </g>
    <circle
       cx="7.4163"
       cy="9.3607"
       r=".66145"
       fill="url(#f)"
       id="circle30"
       style="fill:#ccacf7" />
    <circle
       cx="7.8793"
       cy="9.2284"
       r=".66145"
       fill="url(#c)"
       id="circle32"
       style="fill:#f8f8f2" />
    <circle
       cx="8.4746"
       cy="9.4269"
       r=".66145"
       fill="url(#h)"
       id="circle34"
       style="fill:#ccacf7" />
    <circle
       cx="7.3633"
       cy="10.022"
       r=".66145"
       fill="url(#d)"
       id="circle36"
       style="fill:#f8f8f2" />
    <circle
       cx="8.4084"
       cy="10.088"
       r=".66145"
       fill="url(#e)"
       id="circle38"
       style="fill:#f8f8f2" />
    <circle
       cx="7.8793"
       cy="10.287"
       r=".66145"
       fill="url(#g)"
       id="circle40"
       style="fill:#ccacf7" />
  </g>
</svg>
