<?xml version="1.0" encoding="UTF-8" standalone="no"?>
<svg
   width="64"
   height="64"
   version="1.1"
   id="svg10"
   sodipodi:docname="kdevelop.svg"
   inkscape:version="1.2.2 (b0a8486541, 2022-12-01)"
   xmlns:inkscape="http://www.inkscape.org/namespaces/inkscape"
   xmlns:sodipodi="http://sodipodi.sourceforge.net/DTD/sodipodi-0.dtd"
   xmlns="http://www.w3.org/2000/svg"
   xmlns:svg="http://www.w3.org/2000/svg">
  <defs
     id="defs14" />
  <sodipodi:namedview
     id="namedview12"
     pagecolor="#505050"
     bordercolor="#eeeeee"
     borderopacity="1"
     inkscape:showpageshadow="0"
     inkscape:pageopacity="0"
     inkscape:pagecheckerboard="0"
     inkscape:deskcolor="#505050"
     showgrid="false"
     inkscape:zoom="15.921875"
     inkscape:cx="29.895976"
     inkscape:cy="32.031403"
     inkscape:window-width="2560"
     inkscape:window-height="1361"
     inkscape:window-x="0"
     inkscape:window-y="0"
     inkscape:window-maximized="1"
     inkscape:current-layer="svg10" />
  <path
     fill="#d9dddd"
     d="M32.15 5.001a27.01 27.01 0 0 0-2.916.139l-.645 4.185a22.959 22.959 0 0 0-4.978 1.332L20.97 7.36a27.01 27.01 0 0 0-4.794 2.774l1.531 3.932a22.959 22.959 0 0 0-3.658 3.64l-3.908-1.523a27.01 27.01 0 0 0-2.768 4.799l3.27 2.62a22.959 22.959 0 0 0-.82 2.456 22.959 22.959 0 0 0-.5 2.535l-4.178.64a27.01 27.01 0 0 0-.008 5.534l4.185.643a22.959 22.959 0 0 0 1.332 4.978L7.36 43.031a27.01 27.01 0 0 0 2.773 4.793l3.932-1.533a22.959 22.959 0 0 0 3.638 3.66l-1.521 3.906a27.01 27.01 0 0 0 4.799 2.768l2.62-3.27a22.959 22.959 0 0 0 2.458.823 22.959 22.959 0 0 0 2.533.498l.643 4.177a27.01 27.01 0 0 0 5.533.008l.64-4.185a22.959 22.959 0 0 0 4.981-1.33l2.641 3.295a27.01 27.01 0 0 0 4.793-2.774l-1.533-3.932a22.959 22.959 0 0 0 3.66-3.638l3.906 1.521a27.01 27.01 0 0 0 2.77-4.799l-3.271-2.62a22.959 22.959 0 0 0 .822-2.456 22.959 22.959 0 0 0 .498-2.535l4.18-.64a27.01 27.01 0 0 0 .007-5.534l-4.187-.643a22.959 22.959 0 0 0-1.33-4.978l3.297-2.643a27.01 27.01 0 0 0-2.774-4.793l-3.932 1.533a22.959 22.959 0 0 0-3.64-3.66l1.523-3.906a27.01 27.01 0 0 0-4.799-2.768l-2.619 3.27a22.959 22.959 0 0 0-2.459-.822 22.959 22.959 0 0 0-2.533-.499l-.64-4.177A27.01 27.01 0 0 0 32.15 5z"
     color="#000"
     id="path2"
     style="fill:#f8f8f2" />
  <circle
     cx="-39.192"
     cy="-22.627"
     r="20"
     color="#000"
     opacity=".1"
     transform="rotate(195)"
     id="circle4" />
  <circle
     cx="-39.192"
     cy="-22.627"
     r="17"
     fill="#4abd7e"
     color="#000"
     transform="rotate(195)"
     id="circle6"
     style="fill:#44c367" />
  <path
     fill="#fff"
     fill-rule="evenodd"
     d="m19.845 37.401 5.402 5.402 2.701-8.103z"
     id="path8"
     style="fill:#f8f8f2" />
</svg>
