<?xml version="1.0" encoding="UTF-8" standalone="no"?>
<svg
   width="64"
   height="64"
   version="1.1"
   viewBox="0 0 16.933 16.933"
   id="svg10"
   sodipodi:docname="keepass.svg"
   inkscape:version="1.2.2 (b0a8486541, 2022-12-01)"
   xmlns:inkscape="http://www.inkscape.org/namespaces/inkscape"
   xmlns:sodipodi="http://sodipodi.sourceforge.net/DTD/sodipodi-0.dtd"
   xmlns="http://www.w3.org/2000/svg"
   xmlns:svg="http://www.w3.org/2000/svg">
  <defs
     id="defs14" />
  <sodipodi:namedview
     id="namedview12"
     pagecolor="#505050"
     bordercolor="#eeeeee"
     borderopacity="1"
     inkscape:showpageshadow="0"
     inkscape:pageopacity="0"
     inkscape:pagecheckerboard="0"
     inkscape:deskcolor="#505050"
     showgrid="false"
     inkscape:zoom="15.921875"
     inkscape:cx="29.895976"
     inkscape:cy="32.031403"
     inkscape:window-width="2560"
     inkscape:window-height="1361"
     inkscape:window-x="0"
     inkscape:window-y="0"
     inkscape:window-maximized="1"
     inkscape:current-layer="svg10" />
  <circle
     cx="8.467"
     cy="8.466"
     r="7.144"
     fill="#51a7e3"
     style="paint-order:stroke markers fill;fill:#13b1d5"
     id="circle2" />
  <g
     transform="matrix(1.25 0 0 1.25 -2.1166 -2.1166)"
     stroke-width=".21166"
     id="g8">
    <path
       d="m5.2915 5.8207v0.72759l5.0942 5.0931h0.72656v-0.72759l-5.0931-5.0931z"
       fill="#4687b4"
       id="path4"
       style="fill:#6272a4" />
    <path
       d="m9.9218 5.2916c-0.94981 0-1.7197 0.76995-1.7198 1.7198-1.8e-5 0.28961 0.07298 0.57453 0.21238 0.82837l-3.1228 3.1403v0.66144h0.79374l0.26458-0.26458v-0.39687l0.13229-0.13229h0.39687l0.26458-0.26458h0.26458v-0.52916l0.26458-0.26458h0.52916v-0.39687l0.89348-0.87485c0.25312 0.13944 0.53731 0.21328 0.82628 0.21342 0.94978 4.501e-4 1.7198-0.76995 1.7198-1.7198 0-0.94981-0.76995-1.7198-1.7198-1.7198zm0.39687 0.79373c0.29225 0 0.52916 0.23691 0.52916 0.52916s-0.23691 0.52916-0.52916 0.52916-0.52916-0.23691-0.52916-0.52916 0.23691-0.52916 0.52916-0.52916z"
       fill="#f8f8f2"
       id="path6" />
  </g>
</svg>
