<?xml version="1.0" encoding="UTF-8" standalone="no"?>
<svg
   width="64"
   height="64"
   version="1.1"
   id="svg12"
   sodipodi:docname="kipi-dngconverter.svg"
   inkscape:version="1.2.2 (b0a8486541, 2022-12-01)"
   xmlns:inkscape="http://www.inkscape.org/namespaces/inkscape"
   xmlns:sodipodi="http://sodipodi.sourceforge.net/DTD/sodipodi-0.dtd"
   xmlns="http://www.w3.org/2000/svg"
   xmlns:svg="http://www.w3.org/2000/svg">
  <defs
     id="defs16" />
  <sodipodi:namedview
     id="namedview14"
     pagecolor="#505050"
     bordercolor="#eeeeee"
     borderopacity="1"
     inkscape:showpageshadow="0"
     inkscape:pageopacity="0"
     inkscape:pagecheckerboard="0"
     inkscape:deskcolor="#505050"
     showgrid="false"
     inkscape:zoom="15.921875"
     inkscape:cx="29.895976"
     inkscape:cy="32.031403"
     inkscape:window-width="2560"
     inkscape:window-height="1361"
     inkscape:window-x="0"
     inkscape:window-y="0"
     inkscape:window-maximized="1"
     inkscape:current-layer="svg12" />
  <circle
     cx="32"
     cy="32"
     r="27"
     fill="#c7ced2"
     stroke-width="3.7796"
     style="paint-order:stroke fill markers;fill:#cbcccc"
     id="circle2" />
  <circle
     cx="32"
     cy="32"
     r="24"
     fill="#282a36639"
     stroke-width="3.3596"
     style="paint-order:stroke fill markers;fill:#1e1f29"
     id="circle4" />
  <path
     d="m16.982 19.984h29.999v23.999h-29.999z"
     fill="#f73e59"
     stroke-linejoin="bevel"
     stroke-width="1.291"
     id="path6"
     style="fill:#ff5555" />
  <path
     d="m19.273 21.804v1.2727h25.454v-1.2727zm-0.0051 3.8181v12.727h1.2727c3.8181 0 5.0908-2.5429 5.0908-6.3431 0-3.8308-1.2727-6.389-5.0908-6.389zm8.9089 0v0.0025h-0.0025l0.0025 0.0076v12.717h1.2727v-9.5325l3.8105 9.5351h1.2727v-0.0025h0.0025v-12.727h-1.2727v9.5503l-3.7608-9.4116-0.05218-0.13872zm16.543 0c-3.8181 0-7.6311 1.2727-7.6311 6.324 0 5.129 2.5403 6.4017 6.3584 6.4017h1.2727v-6.3635h-2.5403v1.2727h1.2676v3.8181c-3.8181 0-5.0857-1.2727-5.0857-5.0513 0-3.8563 2.5403-5.129 6.3584-5.129zm-24.179 1.2727c3.8181 0 3.8181 3.8181 3.8181 5.0908s0 5.0908-3.8181 5.0908zm-1.2676 14v1.2727h25.454v-1.2727z"
     fill="#f8f8f2"
     stroke-linejoin="bevel"
     stroke-width="1.2727"
     id="path8" />
  <circle
     cx="32"
     cy="32"
     r="24"
     fill-opacity="0"
     stroke-width="3.3596"
     style="paint-order:stroke fill markers"
     id="circle10" />
</svg>
