<?xml version="1.0" encoding="UTF-8" standalone="no"?>
<svg
   width="64"
   height="64"
   version="1.1"
   viewBox="0 0 16.933 16.933"
   id="svg70"
   sodipodi:docname="kompare.svg"
   inkscape:version="1.2.2 (b0a8486541, 2022-12-01)"
   xmlns:inkscape="http://www.inkscape.org/namespaces/inkscape"
   xmlns:sodipodi="http://sodipodi.sourceforge.net/DTD/sodipodi-0.dtd"
   xmlns="http://www.w3.org/2000/svg"
   xmlns:svg="http://www.w3.org/2000/svg">
  <defs
     id="defs74" />
  <sodipodi:namedview
     id="namedview72"
     pagecolor="#505050"
     bordercolor="#eeeeee"
     borderopacity="1"
     inkscape:showpageshadow="0"
     inkscape:pageopacity="0"
     inkscape:pagecheckerboard="0"
     inkscape:deskcolor="#505050"
     showgrid="false"
     inkscape:zoom="15.921875"
     inkscape:cx="29.895976"
     inkscape:cy="32.031403"
     inkscape:window-width="2560"
     inkscape:window-height="1361"
     inkscape:window-x="0"
     inkscape:window-y="0"
     inkscape:window-maximized="1"
     inkscape:current-layer="svg70" />
  <circle
     cx="8.4665"
     cy="8.4665"
     r="7.1436"
     fill="#b3bebe"
     style="paint-order:stroke fill markers;fill:#9ea0a6"
     id="circle2" />
  <path
     transform="scale(.26458)"
     d="m32 7a25 25 0 0 0-21 11.482v22.518h42v-22.561a25 25 0 0 0-21-11.439z"
     fill="#edeeef"
     stroke-width="1.0998"
     id="path4"
     style="fill:#f8f8f2" />
  <g
     fill="#aeaeae"
     stroke-width=".26458"
     id="g58"
     style="fill:#9ea0a6">
    <rect
       x="3.2014"
       y="5.1593"
       width=".71436"
       height=".35718"
       id="rect6"
       style="fill:#9ea0a6" />
    <rect
       x="4.2729"
       y="5.1593"
       width="1.0715"
       height=".35718"
       id="rect8"
       style="fill:#9ea0a6" />
    <rect
       x="5.7017"
       y="5.1593"
       width="1.7859"
       height=".35718"
       id="rect10"
       style="fill:#9ea0a6" />
    <rect
       x="3.2014"
       y="5.8736"
       width="1.4287"
       height=".35718"
       id="rect12"
       style="fill:#9ea0a6" />
    <rect
       x="4.9873"
       y="5.8736"
       width=".71436"
       height=".35718"
       id="rect14"
       style="fill:#9ea0a6" />
    <rect
       x="3.2014"
       y="7.3024"
       width=".71436"
       height=".35718"
       id="rect16"
       style="fill:#9ea0a6" />
    <rect
       x="4.2729"
       y="7.3024"
       width="1.0715"
       height=".35718"
       id="rect18"
       style="fill:#9ea0a6" />
    <rect
       x="3.2014"
       y="8.0167"
       width=".71436"
       height=".35718"
       id="rect20"
       style="fill:#9ea0a6" />
    <rect
       x="4.2729"
       y="8.0167"
       width="1.7859"
       height=".35718"
       id="rect22"
       style="fill:#9ea0a6" />
    <rect
       x="6.416"
       y="8.0167"
       width="1.0715"
       height=".35718"
       id="rect24"
       style="fill:#9ea0a6" />
    <rect
       x="3.2014"
       y="9.4454"
       width="2.1431"
       height=".35718"
       id="rect26"
       style="fill:#9ea0a6" />
    <rect
       x="5.7017"
       y="9.4454"
       width="1.0715"
       height=".35718"
       id="rect28"
       style="fill:#9ea0a6" />
    <rect
       x="3.2014"
       y="10.16"
       width="1.7859"
       height=".35718"
       id="rect30"
       style="fill:#9ea0a6" />
    <rect
       x="5.3445"
       y="10.16"
       width="1.7859"
       height=".35718"
       id="rect32"
       style="fill:#9ea0a6" />
    <rect
       x="8.5591"
       y="5.1593"
       width=".71436"
       height=".35718"
       id="rect34"
       style="fill:#9ea0a6" />
    <rect
       x="9.6306"
       y="5.1593"
       width="1.0715"
       height=".35718"
       id="rect36"
       style="fill:#9ea0a6" />
    <rect
       x="11.059"
       y="5.1593"
       width="1.7859"
       height=".35718"
       id="rect38"
       style="fill:#9ea0a6" />
    <rect
       x="8.5591"
       y="5.8736"
       width="1.4287"
       height=".35718"
       id="rect40"
       style="fill:#9ea0a6" />
    <rect
       x="10.345"
       y="5.8736"
       width=".71436"
       height=".35718"
       id="rect42"
       style="fill:#9ea0a6" />
    <rect
       x="8.5591"
       y="7.3024"
       width=".71436"
       height=".35718"
       id="rect44"
       style="fill:#9ea0a6" />
    <rect
       x="8.5591"
       y="8.0167"
       width=".71436"
       height=".35718"
       id="rect46"
       style="fill:#9ea0a6" />
    <rect
       x="9.6306"
       y="8.0167"
       width="1.7859"
       height=".35718"
       id="rect48"
       style="fill:#9ea0a6" />
    <rect
       x="11.774"
       y="8.0167"
       width="1.0715"
       height=".35718"
       id="rect50"
       style="fill:#9ea0a6" />
    <rect
       x="8.5591"
       y="9.4454"
       width="2.1431"
       height=".35718"
       id="rect52"
       style="fill:#9ea0a6" />
    <rect
       x="8.5591"
       y="10.16"
       width="1.7859"
       height=".35718"
       id="rect54"
       style="fill:#9ea0a6" />
    <rect
       x="10.702"
       y="10.16"
       width="1.7859"
       height=".35718"
       id="rect56"
       style="fill:#9ea0a6" />
  </g>
  <path
     transform="scale(.26458)"
     d="m6.2422 40a27 27 0 0 0 25.758 19 27 27 0 0 0 25.787-19h-51.545z"
     fill="#d6dadc"
     id="path60"
     style="fill:#cbcccc" />
  <path
     transform="scale(.26458)"
     d="m40 42-9.4492 5.4004 9.4492 5.4531v-2.7559h9.2305a25 25 0 0 0 4.2695-5.3945v-0.003906h-13.5v-2.6992z"
     fill="#286da8"
     stroke-linejoin="bevel"
     stroke-width="2"
     id="path62"
     style="fill:#6272a4" />
  <path
     transform="scale(.26458)"
     d="m22 45v2.6992h-9.4453a25 25 0 0 0 6.0898 5.4004h3.3555v1.8008a25 25 0 0 0 0.98047 0.38867l8.4688-4.8887-9.4492-5.4004z"
     fill="#12b78c"
     stroke-linejoin="bevel"
     stroke-width="2"
     id="path64"
     style="fill:#44c367" />
  <rect
     x="4.4978"
     y="3.7041"
     width="2.9104"
     height=".52916"
     fill="#286da8"
     style="paint-order:stroke fill markers;fill:#6272a4"
     id="rect66" />
  <rect
     x="9.2602"
     y="3.7041"
     width="2.9104"
     height=".52916"
     fill="#12b78c"
     style="paint-order:stroke fill markers;fill:#44c367"
     id="rect68" />
</svg>
