<?xml version="1.0" encoding="UTF-8" standalone="no"?>
<svg
   width="64"
   height="64"
   version="1.1"
   viewBox="0 0 16.933 16.933"
   id="svg14"
   sodipodi:docname="kpat.svg"
   inkscape:version="1.2.2 (b0a8486541, 2022-12-01)"
   xmlns:inkscape="http://www.inkscape.org/namespaces/inkscape"
   xmlns:sodipodi="http://sodipodi.sourceforge.net/DTD/sodipodi-0.dtd"
   xmlns="http://www.w3.org/2000/svg"
   xmlns:svg="http://www.w3.org/2000/svg">
  <defs
     id="defs18" />
  <sodipodi:namedview
     id="namedview16"
     pagecolor="#505050"
     bordercolor="#eeeeee"
     borderopacity="1"
     inkscape:showpageshadow="0"
     inkscape:pageopacity="0"
     inkscape:pagecheckerboard="0"
     inkscape:deskcolor="#505050"
     showgrid="false"
     inkscape:zoom="15.921875"
     inkscape:cx="29.895976"
     inkscape:cy="32.031403"
     inkscape:window-width="2560"
     inkscape:window-height="1361"
     inkscape:window-x="0"
     inkscape:window-y="0"
     inkscape:window-maximized="1"
     inkscape:current-layer="svg14" />
  <g
     transform="translate(0 -280.07)"
     id="g12">
    <circle
       cx="8.4665"
       cy="288.53"
       r="7.1436"
       fill="#c04242"
       style="paint-order:stroke markers fill;fill:#c7484a"
       id="circle2" />
    <path
       d="M9.164 284.84a.288.288 0 0 0-.352.204L7.3 290.902a.3.3 0 0 0 .205.36l3.464.964a.288.288 0 0 0 .353-.206l1.511-5.858a.298.298 0 0 0-.205-.36"
       fill="#cbcccc"
       id="path4" />
    <path
       d="m10.401 287.25-1.26 1.026 0.596 1.543 1.26-1.025"
       fill="#db6565"
       id="path6"
       style="fill:#fd7e7c" />
    <path
       d="M4.33 285.683a.3.3 0 0 0-.236.34l1.014 5.973a.29.29 0 0 0 .334.237l3.531-.647a.296.296 0 0 0 .233-.34l-1.014-5.972a.288.288 0 0 0-.332-.237"
       fill="#f8f8f2"
       id="path8" />
    <path
       d="M6.078 287.88a.51.51 0 0 0-.41.594c.162.826 1.286 1.294 1.286 1.294s.867-.854.705-1.68a.511.511 0 0 0-.603-.398.513.513 0 0 0-.417.466.515.515 0 0 0-.562-.276z"
       fill="#d74949"
       id="path10"
       style="fill:#c7484a" />
  </g>
</svg>
