<?xml version="1.0" encoding="UTF-8" standalone="no"?>
<svg
   width="64"
   height="64"
   version="1.1"
   viewBox="0 0 64 64"
   id="svg28"
   sodipodi:docname="kruler.svg"
   inkscape:version="1.2.2 (b0a8486541, 2022-12-01)"
   xmlns:inkscape="http://www.inkscape.org/namespaces/inkscape"
   xmlns:sodipodi="http://sodipodi.sourceforge.net/DTD/sodipodi-0.dtd"
   xmlns="http://www.w3.org/2000/svg"
   xmlns:svg="http://www.w3.org/2000/svg">
  <defs
     id="defs32" />
  <sodipodi:namedview
     id="namedview30"
     pagecolor="#505050"
     bordercolor="#eeeeee"
     borderopacity="1"
     inkscape:showpageshadow="0"
     inkscape:pageopacity="0"
     inkscape:pagecheckerboard="0"
     inkscape:deskcolor="#505050"
     showgrid="false"
     inkscape:zoom="15.921875"
     inkscape:cx="29.895976"
     inkscape:cy="32.031403"
     inkscape:window-width="2560"
     inkscape:window-height="1361"
     inkscape:window-x="0"
     inkscape:window-y="0"
     inkscape:window-maximized="1"
     inkscape:current-layer="svg28" />
  <circle
     cx="32"
     cy="32"
     r="27"
     fill="#4db6ac"
     stroke-width="3.7796"
     style="paint-order:stroke fill markers;fill:#72bfd0"
     id="circle2" />
  <rect
     x="24"
     y="51"
     width="16"
     height="2"
     fill="#e0f2f1"
     stroke-width=".77061"
     id="rect4"
     style="fill:#f8f8f2" />
  <rect
     x="15"
     y="39"
     width="45"
     height="10"
     rx="2"
     ry="2"
     fill="#ffb74d"
     id="rect6"
     style="fill:#ffb86c" />
  <g
     transform="translate(0,-1058.5)"
     fill="#e0f2f1"
     id="g20"
     style="fill:#f8f8f2">
    <rect
       x="20"
       y="1071.5"
       width="8.9809"
       height="2"
       ry="0"
       id="rect8"
       style="fill:#f8f8f2" />
    <rect
       x="15.989"
       y="1077.5"
       width="30.934"
       height="2"
       id="rect10"
       style="fill:#f8f8f2" />
    <rect
       x="15.989"
       y="1081.5"
       width="26.943"
       height="1.9999"
       id="rect12"
       style="fill:#f8f8f2" />
    <rect
       x="15.989"
       y="1085.5"
       width="29.936"
       height="2"
       id="rect14"
       style="fill:#f8f8f2" />
    <rect
       x="15.989"
       y="1089.5"
       width="22.951"
       height="1.9999"
       id="rect16"
       style="fill:#f8f8f2" />
    <rect
       x="15.989"
       y="1093.5"
       width="27.94"
       height="2"
       id="rect18"
       style="fill:#f8f8f2" />
  </g>
  <path
     d="m17.985 44.9v3h0.99787v-3zm5.9872 0v3h0.99787v-3zm5.9872 0v3h0.99787v-3zm5.9872 0v3h0.99787v-3zm5.9872 0v3h0.99787v-3zm5.9872 0v3h0.99787v-3zm5.9872 0v3h0.99787v-3zm-32.93 1v2h0.99787v-2zm5.9872 0v2h0.99787v-2zm5.9872 0v2h0.99787v-2zm5.9872 0v2h0.99787v-2zm5.9872 0v2h0.99787v-2zm5.9872 0v2h0.99787v-2z"
     fill="#f57c00"
     id="path22"
     style="fill:#282a36;opacity:0.6" />
  <path
     d="m39.002 54v-8h-1.9957l2.9936-4 2.9936 4h-1.9957v8z"
     fill="#37474f"
     fill-rule="evenodd"
     id="path24"
     style="fill:#44475a" />
  <path
     d="m40 57a1.9957 2 0 0 1-1.9957-2 1.9957 2 0 0 1 1.9957-2 1.9957 2 0 0 1 1.9957 2 1.9957 2 0 0 1-1.9957 2zm0-1a0.99787 1 0 0 0 0.99787-1 0.99787 1 0 0 0-0.99787-1 0.99787 1 0 0 0-0.99787 1 0.99787 1 0 0 0 0.99787 1z"
     fill="#37474f"
     id="path26"
     style="fill:#44475a" />
</svg>
