<?xml version="1.0" encoding="UTF-8" standalone="no"?>
<svg
   width="64"
   height="64"
   version="1.1"
   viewBox="0 0 16.933 16.933"
   id="svg25"
   sodipodi:docname="ktuberling.svg"
   inkscape:version="1.2.2 (b0a8486541, 2022-12-01)"
   xmlns:inkscape="http://www.inkscape.org/namespaces/inkscape"
   xmlns:sodipodi="http://sodipodi.sourceforge.net/DTD/sodipodi-0.dtd"
   xmlns="http://www.w3.org/2000/svg"
   xmlns:svg="http://www.w3.org/2000/svg">
  <sodipodi:namedview
     id="namedview27"
     pagecolor="#505050"
     bordercolor="#eeeeee"
     borderopacity="1"
     inkscape:showpageshadow="0"
     inkscape:pageopacity="0"
     inkscape:pagecheckerboard="0"
     inkscape:deskcolor="#505050"
     showgrid="false"
     inkscape:zoom="15.921875"
     inkscape:cx="29.895976"
     inkscape:cy="32.031403"
     inkscape:window-width="2560"
     inkscape:window-height="1361"
     inkscape:window-x="0"
     inkscape:window-y="0"
     inkscape:window-maximized="1"
     inkscape:current-layer="svg25" />
  <defs
     id="defs7">
    <radialGradient
       id="a"
       cx="24"
       cy="24"
       r="15"
       gradientTransform="matrix(.31059 0 0 .28989 2.2141 1.3837)"
       gradientUnits="userSpaceOnUse">
      <stop
         stop-color="#f2bc4e"
         offset="0"
         id="stop2" />
      <stop
         stop-color="#f1b741"
         offset="1"
         id="stop4" />
    </radialGradient>
  </defs>
  <g
     transform="translate(-1.2018 .12556)"
     id="g23">
    <path
       d="m9.6683 1.1973c3.9454 0 7.1436 3.1982 7.1436 7.1436 0 3.9454-3.1982 7.1436-7.1436 7.1436-3.9454 0-7.1436-3.1982-7.1436-7.1436 0-3.9454 3.1982-7.1436 7.1436-7.1436z"
       fill="#aed2fa"
       stroke-width=".26458"
       id="path9"
       style="fill:#a6edfa" />
    <ellipse
       cx="9.6683"
       cy="8.3409"
       rx="4.6589"
       ry="4.3483"
       fill="url(#a)"
       id="ellipse11"
       style="fill:#ffb86c" />
    <path
       d="m8.338 7.6958c0.19754 0.93488 0.07268 1.7552-0.48328 1.8729-0.55627 0.11896-1.0007-0.57863-1.1983-1.5141-0.19754-0.93488-0.10653-1.748 0.48328-1.8729 0.58981-0.12641 1.0007 0.57863 1.1983 1.5141z"
       fill="#f8f8f2"
       id="path13" />
    <path
       d="m13.395 9.8939c-2.1741 2.9037-6.5224 2.1238-7.4542-0.31059 2.1741 1.553 5.2801 1.402 7.4542 0.31059z"
       fill="#ba6616"
       id="path15"
       style="fill:#282a36;opacity:0.5" />
    <path
       d="m10.998 7.6958c-0.19754 0.93488-0.07268 1.7552 0.48328 1.8729 0.55627 0.11896 1.0007-0.57863 1.1983-1.5141 0.19754-0.93488 0.10653-1.748-0.48328-1.8729-0.58981-0.12641-1.0007 0.57863-1.1983 1.5141z"
       fill="#f8f8f2"
       id="path17" />
    <path
       d="m8.134 8.0707c0.13169 0.5954 0.04845 1.1169-0.32208 1.1927-0.37085 0.075788-0.66715-0.36805-0.79884-0.96346-0.13169-0.5954-0.07113-1.1122 0.32208-1.1927 0.39321-0.080444 0.66715 0.36805 0.79884 0.96346z"
       fill="#4d8bd1"
       id="path19"
       style="fill:#13b1d5" />
    <path
       d="m11.202 8.0707c-0.13169 0.5954-0.04845 1.1169 0.32208 1.1927 0.37085 0.075788 0.66715-0.36805 0.79884-0.96346 0.13169-0.5954 0.07113-1.1122-0.32208-1.1927-0.39321-0.080444-0.66715 0.36805-0.79884 0.96346z"
       fill="#4d8bd1"
       id="path21"
       style="fill:#13b1d5" />
  </g>
</svg>
