<?xml version="1.0" encoding="UTF-8" standalone="no"?>
<svg
   width="64"
   height="64"
   viewBox="0 0 16.933 16.933"
   version="1.1"
   id="svg2888"
   sodipodi:docname="kuickshow.svg"
   inkscape:version="1.2.2 (b0a8486541, 2022-12-01)"
   xmlns:inkscape="http://www.inkscape.org/namespaces/inkscape"
   xmlns:sodipodi="http://sodipodi.sourceforge.net/DTD/sodipodi-0.dtd"
   xmlns="http://www.w3.org/2000/svg"
   xmlns:svg="http://www.w3.org/2000/svg">
  <defs
     id="defs2892" />
  <sodipodi:namedview
     id="namedview2890"
     pagecolor="#505050"
     bordercolor="#eeeeee"
     borderopacity="1"
     inkscape:showpageshadow="0"
     inkscape:pageopacity="0"
     inkscape:pagecheckerboard="0"
     inkscape:deskcolor="#505050"
     showgrid="false"
     inkscape:zoom="15.921875"
     inkscape:cx="29.895976"
     inkscape:cy="32.031403"
     inkscape:window-width="2560"
     inkscape:window-height="1361"
     inkscape:window-x="0"
     inkscape:window-y="0"
     inkscape:window-maximized="1"
     inkscape:current-layer="svg2888" />
  <circle
     cx="8.466"
     cy="8.466"
     r="7.144"
     fill="#ef746d"
     style="paint-order:stroke fill markers;fill:#ff5555"
     id="circle2878" />
  <path
     fill="none"
     d="M0 0h16.933v16.933H0z"
     id="path2880" />
  <circle
     cx="12.171"
     cy="6.08"
     r="1.323"
     fill="#ffdb8a"
     style="paint-order:stroke markers fill;fill:#ffb86c"
     id="circle2882" />
  <path
     fill="red"
     d="M2.149 5.143a7.144 7.144 0 0 0-.826 3.324 7.144 7.144 0 0 0 7.144 7.143 7.144 7.144 0 0 0 3.461-.904 13.229 13.229 0 0 0-9.78-9.563z"
     opacity=".15"
     style="paint-order:stroke fill markers;fill:#282a36"
     id="path2884" />
  <path
     fill="red"
     d="M15.584 8.995a10.583 10.583 0 0 0-8.126 6.535 7.144 7.144 0 0 0 1.009.08 7.144 7.144 0 0 0 7.117-6.615z"
     opacity=".1"
     style="paint-order:stroke fill markers;fill:#282a36"
     id="path2886" />
</svg>
