<?xml version="1.0" encoding="UTF-8" standalone="no"?>
<svg
   width="63.987"
   height="63.987"
   viewBox="0 0 16.9 16.9"
   version="1.1"
   id="svg16"
   sodipodi:docname="lagrange.svg"
   inkscape:version="1.2.2 (b0a8486541, 2022-12-01)"
   xmlns:inkscape="http://www.inkscape.org/namespaces/inkscape"
   xmlns:sodipodi="http://sodipodi.sourceforge.net/DTD/sodipodi-0.dtd"
   xmlns="http://www.w3.org/2000/svg"
   xmlns:svg="http://www.w3.org/2000/svg"
   xmlns:bx="https://boxy-svg.com">
  <defs
     id="defs20" />
  <sodipodi:namedview
     id="namedview18"
     pagecolor="#505050"
     bordercolor="#eeeeee"
     borderopacity="1"
     inkscape:showpageshadow="0"
     inkscape:pageopacity="0"
     inkscape:pagecheckerboard="0"
     inkscape:deskcolor="#505050"
     showgrid="false"
     inkscape:zoom="15.92511"
     inkscape:cx="29.82711"
     inkscape:cy="31.962103"
     inkscape:window-width="2560"
     inkscape:window-height="1361"
     inkscape:window-x="0"
     inkscape:window-y="0"
     inkscape:window-maximized="1"
     inkscape:current-layer="svg16" />
  <path
     bx:origin="-3.742381 -3.629666"
     fill="#1c90ed"
     d="M15.6 8.45a7.15 7.15 0 0 1-7.15 7.15A7.15 7.15 0 0 1 1.3 8.45 7.15 7.15 0 0 1 8.45 1.3a7.15 7.15 0 0 1 7.15 7.15z"
     id="path2"
     style="fill:#168daa" />
  <path
     fill="#47ceff"
     d="M9.426 10.054a2.975 2.975 0 1 1-5.95 0 2.975 2.975 0 0 1 5.95 0z"
     id="path4"
     style="fill:#4cc3dc" />
  <g
     fill="none"
     stroke="#f8f8f2"
     stroke-width=".5"
     id="g12">
    <path
       stroke-opacity=".28"
       d="M10.822 11.921c-.64.596-2.395-.25-3.92-1.889-1.527-1.64-2.246-3.45-1.607-4.045s2.395.25 3.922 1.889c1.526 1.638 2.245 3.45 1.605 4.045z"
       id="path6" />
    <path
       stroke-opacity=".65"
       d="M11.414 11.33c-.638.594-2.394-.25-3.92-1.89-1.527-1.638-2.246-3.45-1.607-4.045.64-.596 2.396.25 3.922 1.889 1.526 1.639 2.245 3.45 1.605 4.045z"
       id="path8" />
    <path
       stroke-opacity=".28"
       d="M12.266 10.884c-.64.596-2.395-.25-3.92-1.889C6.818 7.355 6.1 5.545 6.738 4.95c.64-.595 2.395.25 3.922 1.889 1.526 1.638 2.244 3.45 1.605 4.045z"
       id="path10" />
  </g>
  <path
     fill="#f9b400"
     d="M12.716 6.555a1.91 1.91 0 1 1-3.82 0 1.91 1.91 0 0 1 3.82 0z"
     id="path14"
     style="fill:#ffb86c" />
</svg>
