<?xml version="1.0" encoding="UTF-8" standalone="no"?>
<svg
   width="64"
   height="64"
   version="1.1"
   viewBox="0 0 16.933 16.933"
   id="svg16"
   sodipodi:docname="libinput-gestures.svg"
   inkscape:version="1.2.2 (b0a8486541, 2022-12-01)"
   xmlns:inkscape="http://www.inkscape.org/namespaces/inkscape"
   xmlns:sodipodi="http://sodipodi.sourceforge.net/DTD/sodipodi-0.dtd"
   xmlns="http://www.w3.org/2000/svg"
   xmlns:svg="http://www.w3.org/2000/svg">
  <defs
     id="defs20" />
  <sodipodi:namedview
     id="namedview18"
     pagecolor="#505050"
     bordercolor="#eeeeee"
     borderopacity="1"
     inkscape:showpageshadow="0"
     inkscape:pageopacity="0"
     inkscape:pagecheckerboard="0"
     inkscape:deskcolor="#505050"
     showgrid="false"
     inkscape:zoom="15.921875"
     inkscape:cx="29.895976"
     inkscape:cy="32.031403"
     inkscape:window-width="2560"
     inkscape:window-height="1361"
     inkscape:window-x="0"
     inkscape:window-y="0"
     inkscape:window-maximized="1"
     inkscape:current-layer="svg16" />
  <circle
     cx="8.4665"
     cy="8.46"
     r="7.1436"
     fill="#6272a4"
     style="paint-order:stroke markers fill;fill:#515d85"
     id="circle2" />
  <circle
     cx="8.4665"
     cy="8.46"
     r="6.0853"
     fill="#f8f8f2"
     opacity=".1"
     style="paint-order:stroke markers fill"
     id="circle4" />
  <g
     fill-rule="evenodd"
     id="g12">
    <circle
       cx="7.6728"
       cy="5.2916"
       r="2.1166"
       opacity=".15"
       style="paint-order:stroke fill markers"
       id="circle6" />
    <circle
       cx="7.6728"
       cy="5.2916"
       r="1.5875"
       opacity=".15"
       style="paint-order:stroke fill markers"
       id="circle8" />
    <circle
       cx="7.6728"
       cy="5.2916"
       r="1.0583"
       opacity=".15"
       style="paint-order:stroke fill markers"
       id="circle10" />
  </g>
  <path
     d="m7.6728 5.027c-0.26384 0-0.4598 0.21292-0.47624 0.47624v5.2387l-1.727-1.448c-0.092988-0.092991-0.21484-0.13952-0.3367-0.13952-0.12188 0-0.24372 0.046532-0.3367 0.13952-0.092976 0.092991-0.13952 0.21484-0.13952 0.33673s0.046536 0.24372 0.13952 0.3367l2.8767 2.6795s0.598 0.63518 1.4287 0.63499c1.0521-2.64e-4 1.905-0.71074 1.905-1.5875v-3.1749c0-0.17589-0.1416-0.31749-0.3175-0.31749h-0.31749v1.5875h-0.3175v-1.9601c0-0.17589-0.1416-0.31749-0.31749-0.31749h-0.31749v1.9601h-0.3175v-2.6193c0-0.13192-0.1416-0.23812-0.31749-0.23812-0.17589 0-0.31749 0.1062-0.31749 0.23812v2.3018h-0.3175v-3.6512c0-0.26384-0.2124-0.47624-0.47624-0.47624z"
     fill="#f8f8f2"
     stroke-width=".26458"
     style="paint-order:normal"
     id="path14" />
</svg>
