<?xml version="1.0" encoding="UTF-8" standalone="no"?>
<svg
   width="64"
   height="64"
   version="1.1"
   viewBox="0 0 16.933 16.933"
   id="svg17893"
   sodipodi:docname="libreoffice-template.svg"
   inkscape:version="1.2.2 (b0a8486541, 2022-12-01)"
   xmlns:inkscape="http://www.inkscape.org/namespaces/inkscape"
   xmlns:sodipodi="http://sodipodi.sourceforge.net/DTD/sodipodi-0.dtd"
   xmlns="http://www.w3.org/2000/svg"
   xmlns:svg="http://www.w3.org/2000/svg">
  <defs
     id="defs17897" />
  <sodipodi:namedview
     id="namedview17895"
     pagecolor="#505050"
     bordercolor="#eeeeee"
     borderopacity="1"
     inkscape:showpageshadow="0"
     inkscape:pageopacity="0"
     inkscape:pagecheckerboard="0"
     inkscape:deskcolor="#505050"
     showgrid="false"
     inkscape:zoom="15.921875"
     inkscape:cx="29.895976"
     inkscape:cy="32.031403"
     inkscape:window-width="2560"
     inkscape:window-height="1361"
     inkscape:window-x="0"
     inkscape:window-y="0"
     inkscape:window-maximized="1"
     inkscape:current-layer="svg17893" />
  <g
     id="g17889">
    <circle
       cx="8.4665"
       cy="8.4665"
       r="7.1436"
       fill="#44475a"
       style="paint-order:stroke fill markers;fill:#44475a"
       id="circle17883" />
    <path
       d="m9.8473 2.5466 4.5381 4.5381c-0.52723-2.2523-2.2858-4.0109-4.5381-4.5381z"
       fill="#f8f8f2"
       opacity=".5"
       stroke-width=".85185"
       style="paint-order:stroke fill markers;fill:#f8f8f2"
       id="path17885" />
    <path
       d="m8.1952 2.391c-3.2506 0.14506-5.812 2.8216-5.814 6.0755-1e-7 3.3608 2.7245 6.0853 6.0853 6.0853 3.2538-4e-3 5.9287-2.567 6.0719-5.8176z"
       fill="#f8f8f2"
       stroke-width=".85185"
       style="paint-order:stroke fill markers;fill:#f8f8f2"
       id="path17887" />
  </g>
  <path
     d="m5.82 6.879v1.447s1.07-0.77 1.07 0.622c0 1.394-1.07 0.842-1.07 0.842v1.322h1.448s-0.548-1.111 0.696-1.094c1.337 0.019 0.75 1.094 0.75 1.094h1.34v-1.393s1.05 0.46 1.058-0.668c8e-3 -0.84-0.396-0.964-1.058-0.725v-1.447h-1.323s0.535-1.058-0.747-1.058-0.716 1.058-0.716 1.058"
     fill="#cbcccc"
     id="path17891"
     style="fill:#9ea0a6" />
</svg>
