<?xml version="1.0" encoding="UTF-8" standalone="no"?>
<svg
   width="64"
   height="64"
   version="1.1"
   viewBox="0 0 16.933 16.933"
   id="svg16327"
   sodipodi:docname="libreoffice-impress.svg"
   inkscape:version="1.2.2 (b0a8486541, 2022-12-01)"
   xmlns:inkscape="http://www.inkscape.org/namespaces/inkscape"
   xmlns:sodipodi="http://sodipodi.sourceforge.net/DTD/sodipodi-0.dtd"
   xmlns="http://www.w3.org/2000/svg"
   xmlns:svg="http://www.w3.org/2000/svg">
  <defs
     id="defs16331" />
  <sodipodi:namedview
     id="namedview16329"
     pagecolor="#505050"
     bordercolor="#eeeeee"
     borderopacity="1"
     inkscape:showpageshadow="0"
     inkscape:pageopacity="0"
     inkscape:pagecheckerboard="0"
     inkscape:deskcolor="#505050"
     showgrid="false"
     inkscape:zoom="15.921875"
     inkscape:cx="29.83317"
     inkscape:cy="32.031403"
     inkscape:window-width="1280"
     inkscape:window-height="1361"
     inkscape:window-x="1280"
     inkscape:window-y="0"
     inkscape:window-maximized="0"
     inkscape:current-layer="svg16327" />
  <g
     id="g16315">
    <circle
       cx="8.4665"
       cy="8.4665"
       r="7.1436"
       fill="#ff5722"
       style="paint-order:stroke fill markers;fill:#ff5555"
       id="circle16309" />
    <path
       d="m9.8473 2.5466 4.5381 4.5381c-0.52723-2.2523-2.2858-4.0109-4.5381-4.5381z"
       fill="#f8f8f2"
       opacity=".5"
       stroke-width=".85185"
       style="paint-order:stroke fill markers;fill:#f8f8f2"
       id="path16311" />
    <path
       d="m8.1952 2.391c-3.2506 0.14506-5.812 2.8216-5.814 6.0755-1e-7 3.3608 2.7245 6.0853 6.0853 6.0853 3.2538-4e-3 5.9287-2.567 6.0719-5.8176z"
       fill="#f8f8f2"
       stroke-width=".85185"
       style="paint-order:stroke fill markers;fill:#f8f8f2"
       id="path16313" />
  </g>
  <g
     fill="#cbcccc"
     id="g16325">
    <path
       d="m6.88 7.673a1.323 1.323 0 0 0-1.324 1.323 1.323 1.323 0 0 0 1.323 1.322 1.323 1.323 0 0 0 1.323-1.322h-1.322z"
       style="paint-order:markers stroke fill;fill:#9ea0a6"
       id="path16317" />
    <rect
       x="8.731"
       y="7.673"
       width="2.646"
       height=".529"
       rx="0"
       ry="0"
       style="paint-order:markers stroke fill;fill:#9ea0a6"
       id="rect16319" />
    <rect
       x="8.731"
       y="9.26"
       width="2.646"
       height=".529"
       rx="0"
       ry="0"
       style="paint-order:markers stroke fill;fill:#9ea0a6"
       id="rect16321" />
    <rect
       x="5.556"
       y="10.848"
       width="4.762"
       height=".529"
       rx="0"
       ry="0"
       style="paint-order:markers stroke fill;fill:#9ea0a6"
       id="rect16323" />
  </g>
</svg>
