<?xml version="1.0" encoding="UTF-8" standalone="no"?>
<svg
   width="64"
   height="64"
   viewBox="0 0 16.933 16.933"
   version="1.1"
   id="svg11"
   sodipodi:docname="libreoffice-calc.svg"
   inkscape:version="1.3.2 (091e20ef0f, 2023-11-25, custom)"
   xmlns:inkscape="http://www.inkscape.org/namespaces/inkscape"
   xmlns:sodipodi="http://sodipodi.sourceforge.net/DTD/sodipodi-0.dtd"
   xmlns="http://www.w3.org/2000/svg"
   xmlns:svg="http://www.w3.org/2000/svg">
  <defs
     id="defs11" />
  <sodipodi:namedview
     id="namedview11"
     pagecolor="#f8f8f2"
     bordercolor="#282a36"
     borderopacity="0.25"
     inkscape:showpageshadow="2"
     inkscape:pageopacity="0.0"
     inkscape:pagecheckerboard="0"
     inkscape:deskcolor="#d1d1d1"
     inkscape:zoom="12.875"
     inkscape:cx="31.961165"
     inkscape:cy="32"
     inkscape:window-width="1920"
     inkscape:window-height="1040"
     inkscape:window-x="0"
     inkscape:window-y="0"
     inkscape:window-maximized="1"
     inkscape:current-layer="g1" />
  <g
     paint-order="markers stroke fill"
     transform="translate(0 -280.07)"
     id="g1">
    <rect
       width="12.7"
       height="13.758"
       x="2.117"
       y="281.65"
       fill="#44c367"
       rx="2.117"
       ry="2.117"
       id="rect1"
       style="fill:#44c367" />
    <path
       fill="#f8f8f2"
       d="M4.233 282.716c-.586 0-1.058.472-1.058 1.058v9.525c0 .586.472 1.058 1.058 1.058H12.7c.586 0 1.058-.472 1.058-1.058v-6.35l-4.233-4.233zm6.879 0 2.646 2.645v-1.587c0-.586-.472-1.058-1.058-1.058z"
       id="path1" />
  </g>
  <rect
     width="6.879"
     height="4.498"
     x="5.027"
     y="7.673"
     fill="#cbcccc"
     rx="0"
     ry="0"
     style="paint-order:markers stroke fill"
     id="rect2" />
  <rect
     width="1.587"
     height=".794"
     x="5.556"
     y="9.525"
     fill="#f8f8f2"
     rx="0"
     ry="0"
     style="paint-order:markers stroke fill"
     id="rect3" />
  <rect
     width="1.587"
     height=".794"
     x="7.673"
     y="9.525"
     fill="#f8f8f2"
     rx="0"
     ry="0"
     style="paint-order:markers stroke fill"
     id="rect4" />
  <rect
     width="1.587"
     height=".794"
     x="9.79"
     y="9.525"
     fill="#f8f8f2"
     rx="0"
     ry="0"
     style="paint-order:markers stroke fill"
     id="rect5" />
  <rect
     width="1.587"
     height=".794"
     x="5.556"
     y="10.848"
     fill="#f8f8f2"
     rx="0"
     ry="0"
     style="paint-order:markers stroke fill"
     id="rect6" />
  <rect
     width="1.587"
     height=".794"
     x="7.673"
     y="10.848"
     fill="#f8f8f2"
     rx="0"
     ry="0"
     style="paint-order:markers stroke fill"
     id="rect7" />
  <rect
     width="1.587"
     height=".794"
     x="9.79"
     y="10.848"
     fill="#f8f8f2"
     rx="0"
     ry="0"
     style="paint-order:markers stroke fill"
     id="rect8" />
  <rect
     width="1.587"
     height=".794"
     x="5.556"
     y="8.202"
     fill="#f8f8f2"
     rx="0"
     ry="0"
     style="paint-order:markers stroke fill"
     id="rect9" />
  <rect
     width="1.587"
     height=".794"
     x="7.673"
     y="8.202"
     fill="#f8f8f2"
     rx="0"
     ry="0"
     style="paint-order:markers stroke fill"
     id="rect10" />
  <rect
     width="1.587"
     height=".794"
     x="9.79"
     y="8.202"
     fill="#f8f8f2"
     rx="0"
     ry="0"
     style="paint-order:markers stroke fill"
     id="rect11" />
</svg>
