<?xml version="1.0" encoding="UTF-8" standalone="no"?>
<svg
   width="64"
   height="64"
   viewBox="0 0 16.933 16.933"
   version="1.1"
   id="svg2"
   sodipodi:docname="libreoffice-template.svg"
   inkscape:version="1.3.2 (091e20ef0f, 2023-11-25, custom)"
   xmlns:inkscape="http://www.inkscape.org/namespaces/inkscape"
   xmlns:sodipodi="http://sodipodi.sourceforge.net/DTD/sodipodi-0.dtd"
   xmlns="http://www.w3.org/2000/svg"
   xmlns:svg="http://www.w3.org/2000/svg">
  <defs
     id="defs2" />
  <sodipodi:namedview
     id="namedview2"
     pagecolor="#f8f8f2"
     bordercolor="#282a36"
     borderopacity="0.25"
     inkscape:showpageshadow="2"
     inkscape:pageopacity="0.0"
     inkscape:pagecheckerboard="0"
     inkscape:deskcolor="#d1d1d1"
     inkscape:zoom="12.875"
     inkscape:cx="31.961165"
     inkscape:cy="32"
     inkscape:window-width="1920"
     inkscape:window-height="1040"
     inkscape:window-x="0"
     inkscape:window-y="0"
     inkscape:window-maximized="1"
     inkscape:current-layer="g1" />
  <g
     paint-order="markers stroke fill"
     transform="translate(0 -280.07)"
     id="g1">
    <rect
       width="12.7"
       height="13.758"
       x="2.117"
       y="281.65"
       fill="#44475a"
       rx="2.117"
       ry="2.117"
       id="rect1" />
    <path
       fill="#f8f8f2"
       d="M4.233 282.716c-.586 0-1.058.472-1.058 1.058v9.525c0 .586.472 1.058 1.058 1.058H12.7c.586 0 1.058-.472 1.058-1.058v-6.35l-4.233-4.233zm6.879 0 2.646 2.645v-1.587c0-.586-.472-1.058-1.058-1.058z"
       id="path1" />
  </g>
  <path
     fill="#cbcccc"
     d="M5.82 6.879v1.447s1.07-.77 1.07.622c0 1.394-1.07.842-1.07.842v1.322h1.448s-.548-1.111.696-1.094c1.337.019.75 1.094.75 1.094h1.34V9.719s1.05.46 1.058-.668c.008-.84-.396-.964-1.058-.725V6.879H8.731s.535-1.058-.747-1.058-.716 1.058-.716 1.058"
     id="path2" />
</svg>
