<?xml version="1.0" encoding="UTF-8" standalone="no"?>
<svg
   width="64"
   height="64"
   version="1.1"
   viewBox="0 0 16.933 16.933"
   id="svg17381"
   sodipodi:docname="libreoffice-oasis-web.svg"
   inkscape:version="1.2.2 (b0a8486541, 2022-12-01)"
   xmlns:inkscape="http://www.inkscape.org/namespaces/inkscape"
   xmlns:sodipodi="http://sodipodi.sourceforge.net/DTD/sodipodi-0.dtd"
   xmlns="http://www.w3.org/2000/svg"
   xmlns:svg="http://www.w3.org/2000/svg">
  <sodipodi:namedview
     id="namedview17383"
     pagecolor="#505050"
     bordercolor="#eeeeee"
     borderopacity="1"
     inkscape:showpageshadow="0"
     inkscape:pageopacity="0"
     inkscape:pagecheckerboard="0"
     inkscape:deskcolor="#505050"
     showgrid="false"
     inkscape:zoom="15.921875"
     inkscape:cx="29.895976"
     inkscape:cy="32.031403"
     inkscape:window-width="2560"
     inkscape:window-height="1361"
     inkscape:window-x="0"
     inkscape:window-y="0"
     inkscape:window-maximized="1"
     inkscape:current-layer="svg17381" />
  <defs
     id="defs17353">
    <clipPath
       id="j">
      <circle
         transform="translate(-123,-1753.6)"
         cx="3231.5"
         cy="891.5"
         r="6.5"
         color="#282a36"
         fill="#00a0fc"
         id="circle17350" />
    </clipPath>
  </defs>
  <g
     id="g17361">
    <circle
       cx="8.4665"
       cy="8.4665"
       r="7.1436"
       fill="#44475a"
       style="paint-order:stroke fill markers;fill:#44475a"
       id="circle17355" />
    <path
       d="m9.8473 2.5466 4.5381 4.5381c-0.52723-2.2523-2.2858-4.0109-4.5381-4.5381z"
       fill="#f8f8f2"
       opacity=".5"
       stroke-width=".85185"
       style="paint-order:stroke fill markers;fill:#f8f8f2"
       id="path17357" />
    <path
       d="m8.1952 2.391c-3.2506 0.14506-5.812 2.8216-5.814 6.0755-1e-7 3.3608 2.7245 6.0853 6.0853 6.0853 3.2538-4e-3 5.9287-2.567 6.0719-5.8176z"
       fill="#f8f8f2"
       stroke-width=".85185"
       style="paint-order:stroke fill markers;fill:#f8f8f2"
       id="path17359" />
  </g>
  <circle
     cx="8.4665"
     cy="8.4665"
     r="2.6458"
     fill="#cbcccc"
     id="circle17363"
     style="fill:#9ea0a6" />
  <g
     transform="matrix(.40347 0 0 .40347 -1245.7 356.3)"
     clip-path="url(#j)"
     fill="none"
     stroke="#f8f8f2"
     stroke-linecap="round"
     id="g17379">
    <path
       transform="matrix(.45376 0 0 .45376 1718.5 -369.97)"
       d="m3068.2-1099.5c-15.829 5.5755-16.196 20.815-12.408 27.526"
       clip-path="none"
       stroke-width="1.7906px"
       id="path17365"
       style="stroke:#f8f8f2" />
    <g
       stroke-width=".8125px"
       id="g17377">
      <path
         d="m3116-861.64c-3.5797-6.7212-10.441-5.8475-13.194-3.6913"
         clip-path="none"
         id="path17367"
         style="stroke:#f8f8f2" />
      <path
         d="m3104.6-857.04c1.6682-7.43 8.5163-8.4074 11.742-7.0587"
         clip-path="none"
         id="path17369"
         style="stroke:#f8f8f2" />
      <path
         d="m3108-854.37c0.6679-5.7803 5.5626-7.045 8-6.2643"
         clip-path="none"
         id="path17371"
         style="stroke:#f8f8f2" />
      <path
         d="m3111-855.64c1.9186-7.3693-3.7212-11.374-7.2069-11.652"
         clip-path="none"
         id="path17373"
         style="stroke:#f8f8f2" />
      <path
         d="m3101.4-861.11c4.6342 6.0426 11.259 4.0548 13.621 1.476"
         clip-path="none"
         id="path17375"
         style="stroke:#f8f8f2" />
    </g>
  </g>
</svg>
