<?xml version="1.0" encoding="UTF-8" standalone="no"?>
<svg
   width="64"
   height="64"
   version="1.1"
   viewBox="0 0 64 64"
   id="svg10"
   sodipodi:docname="lingot-icon.svg"
   inkscape:version="1.2.2 (b0a8486541, 2022-12-01)"
   xmlns:inkscape="http://www.inkscape.org/namespaces/inkscape"
   xmlns:sodipodi="http://sodipodi.sourceforge.net/DTD/sodipodi-0.dtd"
   xmlns="http://www.w3.org/2000/svg"
   xmlns:svg="http://www.w3.org/2000/svg">
  <defs
     id="defs14" />
  <sodipodi:namedview
     id="namedview12"
     pagecolor="#505050"
     bordercolor="#eeeeee"
     borderopacity="1"
     inkscape:showpageshadow="0"
     inkscape:pageopacity="0"
     inkscape:pagecheckerboard="0"
     inkscape:deskcolor="#505050"
     showgrid="false"
     inkscape:zoom="15.921875"
     inkscape:cx="29.895976"
     inkscape:cy="32.031403"
     inkscape:window-width="2560"
     inkscape:window-height="1361"
     inkscape:window-x="0"
     inkscape:window-y="0"
     inkscape:window-maximized="1"
     inkscape:current-layer="svg10" />
  <g
     transform="matrix(1.1739 0 0 1.1739 3.8261 -14.957)"
     id="g8">
    <path
       d="m24 17c12.703 0 23 10.297 23 23s-10.297 23-23 23-23-10.297-23-23 10.297-23 23-23z"
       fill="#fad25a"
       id="path2"
       style="fill:#ffb86c" />
    <path
       d="m24 26.5c-8.284 0-15 6.716-15 15 2e-3 0.249 0.011 0.498 0.025 0.746l8.975 3.262a6 6 0 0 0 6 5.992 6 6 0 0 0 6-6l8.965-3.301c0.017-0.233 0.029-0.466 0.035-0.699 0-8.284-6.716-15-15-15z"
       fill="#f7e8b1"
       id="path4"
       style="fill:#f3faa6;opacity:0.7" />
    <path
       d="m26.307 43.999c-0.33-0.438-0.773-0.796-1.297-1.057-1.667-0.822-3.56-0.234-4.256 1.344s0.081 3.528 1.748 4.35c1.654 0.818 3.551 0.208 4.256-1.344 1.721-3.915 3.452-7.835 5.178-11.751 1.667 4.523 1.066 5.266-2.539 8.325 6.506-2.244 6.187-5.485 2.417-12.366-1.878 4.265-3.819 8.666-5.507 12.499"
       fill="#659862"
       fill-rule="evenodd"
       id="path6"
       style="fill:#44c367;opacity:1" />
  </g>
</svg>
