<?xml version="1.0" encoding="UTF-8" standalone="no"?>
<svg
   width="64"
   height="64"
   version="1.1"
   viewBox="0 0 16.933 16.933"
   id="svg13"
   sodipodi:docname="linuxmint-logo-neon.svg"
   inkscape:version="1.2.2 (b0a8486541, 2022-12-01)"
   xmlns:inkscape="http://www.inkscape.org/namespaces/inkscape"
   xmlns:sodipodi="http://sodipodi.sourceforge.net/DTD/sodipodi-0.dtd"
   xmlns="http://www.w3.org/2000/svg"
   xmlns:svg="http://www.w3.org/2000/svg">
  <sodipodi:namedview
     id="namedview15"
     pagecolor="#505050"
     bordercolor="#eeeeee"
     borderopacity="1"
     inkscape:showpageshadow="0"
     inkscape:pageopacity="0"
     inkscape:pagecheckerboard="0"
     inkscape:deskcolor="#505050"
     showgrid="false"
     inkscape:zoom="15.921875"
     inkscape:cx="27.823356"
     inkscape:cy="32.031403"
     inkscape:window-width="1920"
     inkscape:window-height="1001"
     inkscape:window-x="0"
     inkscape:window-y="0"
     inkscape:window-maximized="1"
     inkscape:current-layer="svg13" />
  <defs
     id="defs7">
    <linearGradient
       id="linearGradient1267"
       x1="194.13"
       x2="194.01"
       y1="99.575"
       y2="316.11"
       gradientTransform="matrix(.072904 0 0 .072904 -5.531 -6.6974)"
       gradientUnits="userSpaceOnUse">
      <stop
         stop-color="#8fbcbb"
         offset="0"
         id="stop2" />
      <stop
         stop-color="#97b67c"
         offset="1"
         id="stop4" />
    </linearGradient>
  </defs>
  <g
     stroke-linecap="round"
     stroke-linejoin="round"
     id="g11"
     style="stroke:#50fa7b">
    <path
       d="m0.30131 0.88454v10.498c0 2.563 2.1028 4.6658 4.6658 4.6658h6.9987c2.563 0 4.6658-2.1028 4.6658-4.6658v-5.8323c0-1.9188-1.5805-3.4994-3.4994-3.4994-0.89642 0-1.7108 0.35433-2.3329 0.91756-0.6221-0.56323-1.4365-0.91756-2.3329-0.91756-1.9188 0-3.4994 1.5805-3.4994 3.4994v5.8323h2.3329v-5.8323c0-0.65803 0.50842-1.1665 1.1665-1.1665 0.65803 0 1.1665 0.50842 1.1665 1.1665v5.8323h2.3329v-5.8323c0-0.65803 0.50842-1.1665 1.1665-1.1665s1.1665 0.50842 1.1665 1.1665v5.8323c0 1.3022-1.0307 2.3329-2.3329 2.3329h-6.9987c-1.3022 0-2.3329-1.0307-2.3329-2.3329v-10.498z"
       color="#282a36"
       color-rendering="auto"
       dominant-baseline="auto"
       fill="none"
       image-rendering="auto"
       shape-rendering="auto"
       solid-color="#282a36"
       stroke="url(#linearGradient1267)"
       stroke-linecap="butt"
       stroke-linejoin="miter"
       stroke-width=".60262"
       style="font-feature-settings:normal;font-variant-alternates:normal;font-variant-caps:normal;font-variant-ligatures:normal;font-variant-numeric:normal;font-variant-position:normal;isolation:auto;mix-blend-mode:normal;shape-padding:0;text-decoration-color:#282a36;text-decoration-line:none;text-decoration-style:solid;text-indent:0;text-orientation:mixed;text-transform:none;white-space:normal;stroke:#44c367"
       id="path9" />
  </g>
</svg>
