<?xml version="1.0" encoding="UTF-8" standalone="no"?>
<svg
   width="64"
   height="64"
   version="1.1"
   viewBox="0 0 16.933 16.933"
   id="svg12"
   sodipodi:docname="livepatch.svg"
   inkscape:version="1.2.2 (b0a8486541, 2022-12-01)"
   xmlns:inkscape="http://www.inkscape.org/namespaces/inkscape"
   xmlns:sodipodi="http://sodipodi.sourceforge.net/DTD/sodipodi-0.dtd"
   xmlns="http://www.w3.org/2000/svg"
   xmlns:svg="http://www.w3.org/2000/svg">
  <defs
     id="defs16" />
  <sodipodi:namedview
     id="namedview14"
     pagecolor="#505050"
     bordercolor="#eeeeee"
     borderopacity="1"
     inkscape:showpageshadow="0"
     inkscape:pageopacity="0"
     inkscape:pagecheckerboard="0"
     inkscape:deskcolor="#505050"
     showgrid="false"
     inkscape:zoom="15.921875"
     inkscape:cx="29.895976"
     inkscape:cy="32.031403"
     inkscape:window-width="2560"
     inkscape:window-height="1361"
     inkscape:window-x="0"
     inkscape:window-y="0"
     inkscape:window-maximized="1"
     inkscape:current-layer="svg12" />
  <g
     transform="translate(0 -280.07)"
     paint-order="stroke markers fill"
     id="g10">
    <circle
       cx="8.4665"
       cy="288.53"
       r="7.1437"
       fill="#f8f8f2"
       stroke="#282a36"
       stroke-opacity=".059"
       stroke-width=".529"
       id="circle2" />
    <circle
       cx="8.4665"
       cy="288.53"
       r="7.1436"
       fill="#f8f8f2"
       id="circle4" />
    <path
       d="m8.318 284.04a4.498 4.498 0 0 0-3.032 1.313 4.498 4.498 0 0 0-0.367 5.935l0.945-0.945a3.175 3.175 0 0 1 0.358-4.054 3.175 3.175 0 0 1 3.303-0.744v1.136l1.697-1.697a4.498 4.498 0 0 0-2.904-0.944z"
       fill="#f55"
       id="path6" />
    <path
       d="M12.015 285.779l-.945.945a3.175 3.175 0 0 1-.359 4.054 3.175 3.175 0 0 1-3.303.744v-1.137l-1.122 1.123-.575.574a4.498 4.498 0 0 0 5.936-.368 4.498 4.498 0 0 0 .368-5.935z"
       fill="#fd7e7c"
       id="path8"
       style="fill:#fd7e7c" />
  </g>
</svg>
