<?xml version="1.0" encoding="UTF-8" standalone="no"?>
<svg
   width="64"
   height="64"
   viewBox="0 0 16.933 16.933"
   version="1.1"
   id="svg255"
   sodipodi:docname="live.svg"
   inkscape:version="1.2.2 (b0a8486541, 2022-12-01)"
   xmlns:inkscape="http://www.inkscape.org/namespaces/inkscape"
   xmlns:sodipodi="http://sodipodi.sourceforge.net/DTD/sodipodi-0.dtd"
   xmlns="http://www.w3.org/2000/svg"
   xmlns:svg="http://www.w3.org/2000/svg">
  <defs
     id="defs259" />
  <sodipodi:namedview
     id="namedview257"
     pagecolor="#505050"
     bordercolor="#eeeeee"
     borderopacity="1"
     inkscape:showpageshadow="0"
     inkscape:pageopacity="0"
     inkscape:pagecheckerboard="0"
     inkscape:deskcolor="#505050"
     showgrid="false"
     inkscape:zoom="15.921875"
     inkscape:cx="29.83317"
     inkscape:cy="32.031403"
     inkscape:window-width="1280"
     inkscape:window-height="1361"
     inkscape:window-x="0"
     inkscape:window-y="0"
     inkscape:window-maximized="0"
     inkscape:current-layer="svg255" />
  <g
     transform="translate(0 -280.067)"
     id="g253">
    <circle
       cx="8.467"
       cy="288.533"
       r="6.879"
       fill="#0071c6"
       paint-order="stroke markers fill"
       id="circle239"
       style="fill:#168daa" />
    <g
       stroke-width=".357"
       fill="#f8f8f2"
       id="g251">
      <path
         d="M9.393 286.373v1.476l.518.376h.056l2.203-1.544a.297.297 0 0 0-.308-.308z"
         id="path241" />
      <path
         d="M9.4 288.39l.466.317c.066.048.145 0 .145 0-.079.048 2.16-1.409 2.16-1.409v2.779c0 .188-.094.308-.309.308H9.393z"
         id="path243" />
      <g
         id="g249">
        <path
           d="M6.98 287.722a.431.431 0 0 0-.38.221c-.094.148-.141.344-.141.587 0 .247.047.443.14.586.094.144.217.215.37.215.156 0 .28-.07.372-.209.092-.14.138-.334.138-.582 0-.258-.045-.46-.134-.603a.412.412 0 0 0-.366-.215z"
           id="path245" />
        <path
           d="M4.762 285.755v5.557l4.322.926v-7.409zm2.918 3.702a.867.867 0 0 1-.72.36.857.857 0 0 1-.707-.349c-.181-.232-.273-.535-.273-.908 0-.395.093-.714.277-.957a.877.877 0 0 1 .735-.365c.288 0 .52.116.698.35.178.232.267.54.267.921 0 .392-.092.708-.277.948z"
           id="path247" />
      </g>
    </g>
  </g>
</svg>
