<?xml version="1.0" encoding="UTF-8" standalone="no"?>
<svg
   width="64"
   height="64"
   version="1.1"
   viewBox="0 0 16.933 16.933"
   id="svg15910"
   sodipodi:docname="lock.svg"
   inkscape:version="1.2.2 (b0a8486541, 2022-12-01)"
   xmlns:inkscape="http://www.inkscape.org/namespaces/inkscape"
   xmlns:sodipodi="http://sodipodi.sourceforge.net/DTD/sodipodi-0.dtd"
   xmlns="http://www.w3.org/2000/svg"
   xmlns:svg="http://www.w3.org/2000/svg">
  <defs
     id="defs15914" />
  <sodipodi:namedview
     id="namedview15912"
     pagecolor="#505050"
     bordercolor="#eeeeee"
     borderopacity="1"
     inkscape:showpageshadow="0"
     inkscape:pageopacity="0"
     inkscape:pagecheckerboard="0"
     inkscape:deskcolor="#505050"
     showgrid="false"
     inkscape:zoom="15.921875"
     inkscape:cx="29.895976"
     inkscape:cy="32.031403"
     inkscape:window-width="2560"
     inkscape:window-height="1361"
     inkscape:window-x="0"
     inkscape:window-y="0"
     inkscape:window-maximized="1"
     inkscape:current-layer="svg15910" />
  <path
     d="m8.3803 1.3234a7.1436 7.1436 0 1 1 0 14.286 7.1436 7.1436 0 0 1 0-14.286z"
     fill="#feaf27"
     id="path15902"
     style="fill:#ffb86c" />
  <g
     fill="#f8f8f2"
     paint-order="stroke fill markers"
     id="g15908">
    <path
       d="M6.35 7.937a.528.528 0 0 0-.53.53v2.645c0 .294.237.53.53.53h4.233c.293 0 .53-.236.53-.53V8.467a.528.528 0 0 0-.53-.53zm2.117.794a.53.53 0 0 1 .529.53.53.53 0 0 1-.265.457v.865a.264.264 0 1 1-.529 0v-.865a.53.53 0 0 1-.265-.458.53.53 0 0 1 .53-.529z"
       id="path15904" />
    <path
       d="m8.467 4.7614c-0.88 0-1.588 0.708-1.588 1.587v3.175c0 0.88 0.708 1.588 1.588 1.588a1.056 1.056 0 0 1-1.059-1.059v-3.703c0-0.586 0.472-1.058 1.059-1.058 0.586 0 1.058 0.472 1.058 1.058v3.704c0 0.587-0.472 1.059-1.058 1.059 0.88 0 1.587-0.708 1.587-1.588v-3.175c0-0.88-0.708-1.587-1.587-1.587z"
       id="path15906" />
  </g>
</svg>
