<?xml version="1.0" encoding="UTF-8" standalone="no"?>
<svg
   width="64"
   height="64"
   version="1.1"
   id="svg8"
   sodipodi:docname="logseq.svg"
   inkscape:version="1.2.2 (b0a8486541, 2022-12-01)"
   xmlns:inkscape="http://www.inkscape.org/namespaces/inkscape"
   xmlns:sodipodi="http://sodipodi.sourceforge.net/DTD/sodipodi-0.dtd"
   xmlns="http://www.w3.org/2000/svg"
   xmlns:svg="http://www.w3.org/2000/svg">
  <defs
     id="defs12" />
  <sodipodi:namedview
     id="namedview10"
     pagecolor="#505050"
     bordercolor="#eeeeee"
     borderopacity="1"
     inkscape:showpageshadow="0"
     inkscape:pageopacity="0"
     inkscape:pagecheckerboard="0"
     inkscape:deskcolor="#505050"
     showgrid="false"
     inkscape:zoom="15.921875"
     inkscape:cx="29.895976"
     inkscape:cy="32.031403"
     inkscape:window-width="2560"
     inkscape:window-height="1361"
     inkscape:window-x="0"
     inkscape:window-y="0"
     inkscape:window-maximized="1"
     inkscape:current-layer="svg8" />
  <g
     transform="translate(3.826 3.826) scale(1.1739)"
     id="g6">
    <circle
       cx="24"
       cy="24"
       r="23"
       fill="#0b5365"
       id="circle2"
       style="fill:#168daa" />
    <path
       fill="#aedada"
       d="M26 12c-3 0-5 2-5 3.5 0 1 1 1.5 3 1.5 3 0 5-1.62 5-3 0-1-1-2-3-2zm-12.5 1c-2.21 0-3.5 1.29-3.5 3.5 0 2.5 2.5 4.5 5 4.5 2 0 3-1.5 3-3.5 0-2.5-2-4.5-4.5-4.5zM26 21c-5.523 0-10 3.358-10 7.5S20.477 36 26 36s10-3.358 10-7.5S31.523 21 26 21z"
       id="path4"
       style="fill:#8be9fd" />
  </g>
</svg>
