<?xml version="1.0" encoding="UTF-8" standalone="no"?>
<svg
   width="64"
   height="64"
   version="1.1"
   viewBox="0 0 16.933 16.933"
   id="svg13857"
   sodipodi:docname="mailnag.svg"
   inkscape:version="1.2.2 (b0a8486541, 2022-12-01)"
   xmlns:inkscape="http://www.inkscape.org/namespaces/inkscape"
   xmlns:sodipodi="http://sodipodi.sourceforge.net/DTD/sodipodi-0.dtd"
   xmlns="http://www.w3.org/2000/svg"
   xmlns:svg="http://www.w3.org/2000/svg">
  <defs
     id="defs13861" />
  <sodipodi:namedview
     id="namedview13859"
     pagecolor="#505050"
     bordercolor="#eeeeee"
     borderopacity="1"
     inkscape:showpageshadow="0"
     inkscape:pageopacity="0"
     inkscape:pagecheckerboard="0"
     inkscape:deskcolor="#505050"
     showgrid="false"
     inkscape:zoom="15.921875"
     inkscape:cx="29.895976"
     inkscape:cy="32.031403"
     inkscape:window-width="2560"
     inkscape:window-height="1361"
     inkscape:window-x="0"
     inkscape:window-y="0"
     inkscape:window-maximized="1"
     inkscape:current-layer="svg13857" />
  <path
     d="m8.4665 1.3229a7.1436 7.1436 0 0 0-6.8227 5.027h13.638a7.1436 7.1436 0 0 0-6.815-5.027z"
     fill="#2f8dac"
     style="paint-order:stroke fill markers;fill:#168daa"
     id="path13847" />
  <circle
     cx="8.4665"
     cy="8.4665"
     r="6.3499"
     fill="#f8f8f2"
     stroke-width=".88889"
     style="paint-order:stroke fill markers"
     id="circle13849" />
  <path
     d="m14.866 5.3009-11.464 8.1993a7.1436 7.1436 0 0 0 5.0637 2.1099 7.1436 7.1436 0 0 0 7.1436-7.1436 7.1436 7.1436 0 0 0-0.74361-3.1656z"
     fill="#26a4ca"
     style="paint-order:markers stroke fill;fill:#13b1d5"
     id="path13851" />
  <path
     d="m2.0706 5.304a7.1436 7.1436 0 0 0-0.74774 3.1625 7.1436 7.1436 0 0 0 7.1436 7.1436 7.1436 7.1436 0 0 0 5.0621-2.1109z"
     fill="#49bde3"
     style="paint-order:markers stroke fill;fill:#4cc3dc"
     id="path13853" />
  <path
     d="m11.359 9.918 1.076-0.396 0.309-1.052 0.704 0.867 1.171 0.05-0.61 0.9 0.309 1.058-1.033-0.283-1.038 0.73 7e-3 -1.12"
     fill="#ffe236"
     id="path13855"
     style="fill:#f1fa8c" />
</svg>
