<?xml version="1.0" encoding="UTF-8" standalone="no"?>
<svg
   width="64"
   height="64"
   version="1.1"
   id="svg8"
   sodipodi:docname="makehuman.svg"
   inkscape:version="1.2.2 (b0a8486541, 2022-12-01)"
   xmlns:inkscape="http://www.inkscape.org/namespaces/inkscape"
   xmlns:sodipodi="http://sodipodi.sourceforge.net/DTD/sodipodi-0.dtd"
   xmlns="http://www.w3.org/2000/svg"
   xmlns:svg="http://www.w3.org/2000/svg">
  <defs
     id="defs12" />
  <sodipodi:namedview
     id="namedview10"
     pagecolor="#505050"
     bordercolor="#eeeeee"
     borderopacity="1"
     inkscape:showpageshadow="0"
     inkscape:pageopacity="0"
     inkscape:pagecheckerboard="0"
     inkscape:deskcolor="#505050"
     showgrid="false"
     inkscape:zoom="15.921875"
     inkscape:cx="29.895976"
     inkscape:cy="32.031403"
     inkscape:window-width="2560"
     inkscape:window-height="1361"
     inkscape:window-x="0"
     inkscape:window-y="0"
     inkscape:window-maximized="1"
     inkscape:current-layer="svg8" />
  <g
     stroke-width=".852"
     id="g6">
    <path
       fill="#383838"
       d="M32 5c14.912 0 27 12.087 27 26.999s-12.088 27-27 27-27-12.088-27-27 12.088-27 27-27z"
       id="path2"
       style="fill:#44475a" />
    <path
       d="M32 14.872c-1.23 0-2.255.98-2.255 2.199 0 1.218 1.026 2.199 2.255 2.199 1.23 0 2.219-.98 2.219-2.2 0-1.217-.99-2.198-2.219-2.198zm-16.714 1.95 11.202 6.74 4.555 29.366V29.803H33.1v23.125l4.376-29.367 11.238-6.738L33.1 21.965v5.356h-2.057v-5.356z"
       style="display:inline;overflow:visible;visibility:visible;fill:#ffb86c;fill-opacity:1;fill-rule:nonzero;stroke:none;stroke-width:0.648499;marker:none;enable-background:accumulate"
       id="path4" />
  </g>
</svg>
