<?xml version="1.0" encoding="UTF-8" standalone="no"?>
<svg
   width="64"
   height="64"
   version="1.1"
   id="svg13326"
   sodipodi:docname="marker.svg"
   inkscape:version="1.2.2 (b0a8486541, 2022-12-01)"
   xmlns:inkscape="http://www.inkscape.org/namespaces/inkscape"
   xmlns:sodipodi="http://sodipodi.sourceforge.net/DTD/sodipodi-0.dtd"
   xmlns="http://www.w3.org/2000/svg"
   xmlns:svg="http://www.w3.org/2000/svg">
  <sodipodi:namedview
     id="namedview13328"
     pagecolor="#505050"
     bordercolor="#eeeeee"
     borderopacity="1"
     inkscape:showpageshadow="0"
     inkscape:pageopacity="0"
     inkscape:pagecheckerboard="0"
     inkscape:deskcolor="#505050"
     showgrid="false"
     inkscape:zoom="15.921875"
     inkscape:cx="29.895976"
     inkscape:cy="32.031403"
     inkscape:window-width="2560"
     inkscape:window-height="1361"
     inkscape:window-x="0"
     inkscape:window-y="0"
     inkscape:window-maximized="1"
     inkscape:current-layer="svg13326" />
  <defs
     id="defs13308">
    <linearGradient
       id="b"
       x1="399.57"
       x2="399.57"
       y1="545.8"
       y2="517.8"
       gradientTransform="matrix(2.1429,0,0,2.1429,-826.36,-1107.5)"
       gradientUnits="userSpaceOnUse">
      <stop
         stop-color="#3889e9"
         offset="0"
         id="stop13303" />
      <stop
         stop-color="#5ea5fb"
         offset="1"
         id="stop13305" />
    </linearGradient>
  </defs>
  <g
     transform="matrix(.89997 0 0 .89997 3.183 3.1614)"
     stroke-width="1.5715"
     id="g13316">
    <circle
       cx="32.02"
       cy="32.044"
       r="30.001"
       fill="#ebecee"
       id="circle13310"
       style="fill:#f8f8f2" />
    <circle
       cx="32.02"
       cy="32.044"
       r="30.001"
       fill-opacity="0"
       id="circle13312" />
    <circle
       cx="32.02"
       cy="32.044"
       r="0"
       fill="url(#b)"
       id="circle13314"
       style="fill:#13b1d5" />
  </g>
  <g
     id="g13324">
    <path
       d="m28.087 23c-0.72261 0-1.3043 0.58174-1.3043 1.3043 0 0 0 9.1304-2.6087 9.1304-0.72261 0-1.3043 0.58174-1.3043 1.3043v2.6087h18.261v-2.6087c0-0.72261-0.58174-1.3043-1.3043-1.3043-2.6087 0-2.6087-9.1304-2.6087-9.1304 0-0.72261-0.58174-1.3043-1.3043-1.3043z"
       fill="#3e3e3e"
       stroke-width="1.3044"
       style="paint-order:stroke fill markers;fill:#44475a"
       id="path13318" />
    <path
       d="m28 13.739 8 3.9689v5.2919h-8z"
       fill="#2dc58d"
       stroke-width="1.3282"
       style="paint-order:stroke fill markers;fill:#44c367"
       id="path13320" />
    <path
       d="m22.375 37h19.25c0.76175 0 1.375 0.61325 1.375 1.375v9.625h-22v-9.625c0-0.76175 0.61325-1.375 1.375-1.375z"
       fill="#2dc58d"
       stroke-width="1.375"
       style="paint-order:stroke fill markers;fill:#44c367"
       id="path13322" />
  </g>
</svg>
