<?xml version="1.0" encoding="UTF-8" standalone="no"?>
<svg
   width="64"
   height="64"
   version="1.1"
   viewBox="0 0 64 64"
   id="svg10623"
   sodipodi:docname="media-player-banshee.svg"
   inkscape:version="1.2.2 (b0a8486541, 2022-12-01)"
   xmlns:inkscape="http://www.inkscape.org/namespaces/inkscape"
   xmlns:sodipodi="http://sodipodi.sourceforge.net/DTD/sodipodi-0.dtd"
   xmlns="http://www.w3.org/2000/svg"
   xmlns:svg="http://www.w3.org/2000/svg">
  <defs
     id="defs10627" />
  <sodipodi:namedview
     id="namedview10625"
     pagecolor="#505050"
     bordercolor="#eeeeee"
     borderopacity="1"
     inkscape:showpageshadow="0"
     inkscape:pageopacity="0"
     inkscape:pagecheckerboard="0"
     inkscape:deskcolor="#505050"
     showgrid="false"
     inkscape:zoom="15.921875"
     inkscape:cx="29.895976"
     inkscape:cy="32.031403"
     inkscape:window-width="2560"
     inkscape:window-height="1361"
     inkscape:window-x="0"
     inkscape:window-y="0"
     inkscape:window-maximized="1"
     inkscape:current-layer="svg10623" />
  <g
     transform="translate(0,16)"
     id="g10613">
    <g
       transform="translate(1,1)"
       id="g10611" />
  </g>
  <g
     transform="matrix(1.1739 0 0 1.1739 3.8261 3.8261)"
     fill="#2d3542"
     id="g10617"
     style="fill:#44475a">
    <path
       d="m24 1c12.703 0 23 10.297 23 23s-10.297 23-23 23-23-10.297-23-23 10.297-23 23-23z"
       fill="#2d3542"
       id="path10615"
       style="fill:#44475a" />
  </g>
  <path
     d="m46.87 37.478c0 6.9151-6.3078 12.522-14.087 12.522-7.7838 0-14.087-5.6066-14.087-12.522 0-6.9151 6.3078-12.522 14.087-12.522 7.7776 0 14.087 5.6066 14.087 12.522"
     fill="#f8f8f2"
     id="path10619" />
  <path
     d="m29.683 14c-8.9937 0.34904-7.4833 4.4687-12.553 7.7588 5.051 0.15339 6.1012-3.2337 9.407-3.1054v23.283c5.0071 0.48365 16.912 1.0143 15.524-7.3487-1.0769-6.4143-12.387-1.9628-12.387-1.9628m5.4172 1.2287c1.3821 0 2.556 0.31148 2.7704 1.7421 0.648 4.3231-8.1814 3.24-8.1814 3.24v-3.1054s3.1179-1.8955 5.411-1.8767"
     fill="#3eacff"
     fill-rule="evenodd"
     id="path10621"
     style="fill:#13b1d5" />
</svg>
