<?xml version="1.0" encoding="UTF-8" standalone="no"?>
<svg
   xml:space="preserve"
   width="64"
   height="64"
   version="1.1"
   id="svg37"
   sodipodi:docname="melonDS.svg"
   inkscape:version="1.2.2 (b0a8486541, 2022-12-01)"
   xmlns:inkscape="http://www.inkscape.org/namespaces/inkscape"
   xmlns:sodipodi="http://sodipodi.sourceforge.net/DTD/sodipodi-0.dtd"
   xmlns="http://www.w3.org/2000/svg"
   xmlns:svg="http://www.w3.org/2000/svg"><sodipodi:namedview
     id="namedview39"
     pagecolor="#505050"
     bordercolor="#eeeeee"
     borderopacity="1"
     inkscape:showpageshadow="0"
     inkscape:pageopacity="0"
     inkscape:pagecheckerboard="0"
     inkscape:deskcolor="#505050"
     showgrid="false"
     inkscape:zoom="15.921875"
     inkscape:cx="29.895976"
     inkscape:cy="32.031403"
     inkscape:window-width="2560"
     inkscape:window-height="1361"
     inkscape:window-x="0"
     inkscape:window-y="0"
     inkscape:window-maximized="1"
     inkscape:current-layer="svg37" /><defs
     id="defs19"><linearGradient
       id="a"
       gradientUnits="userSpaceOnUse"><stop
         offset="0"
         stop-color="#c0bfbc"
         id="stop2" /><stop
         offset=".351"
         stop-color="#f8f8f2"
         id="stop4" /><stop
         offset=".602"
         stop-color="#9a9996"
         id="stop6" /><stop
         offset="1"
         stop-color="#77767b"
         id="stop8" /></linearGradient><linearGradient
       id="c"><stop
         offset="0"
         stop-color="#589632"
         id="stop11" /><stop
         offset="1"
         stop-color="#93b023"
         id="stop13" /></linearGradient><filter
       id="b"
       width="1"
       height="1"
       x="0"
       y="0"><feColorMatrix
         in="SourceGraphic"
         values="0 0 0 0 1 0 0 0 0 1 0 0 0 0 1 0 0 0 1 0"
         id="feColorMatrix16" /></filter></defs><path
     d="M32 5A26.94 26.94 0 0 0 5 32a26.94 26.94 0 0 0 27 27 26.94 26.94 0 0 0 27-27A26.94 26.94 0 0 0 32 5Z"
     style="fill:#44c367;fill-opacity:1;stroke:none;stroke-opacity:1"
     id="path21" /><path
     d="M32 9.466A22.484 22.484 0 0 0 9.466 32 22.484 22.484 0 0 0 32 54.534 22.484 22.484 0 0 0 54.534 32 22.484 22.484 0 0 0 32 9.466Z"
     style="fill:#fdc88e;fill-opacity:1;stroke:none;stroke-width:0.834581;stroke-opacity:1"
     id="path23" /><path
     d="M32 11.596A20.36 20.36 0 0 0 11.596 32 20.36 20.36 0 0 0 32 52.404 20.36 20.36 0 0 0 52.404 32 20.36 20.36 0 0 0 32 11.596Z"
     style="fill:#c7484a;fill-opacity:1;stroke:none;stroke-width:0.755721;stroke-opacity:1"
     id="path25" /><g
     transform="rotate(-45 32.202 31.935)"
     id="g35"><path
       d="M20.354 43.86v-9.863c0-.705 2.307-2.13 2.985-2.13h18.658c.835 0 2.456 1.621 2.456 1.918v9.887c0 1.163-1.935 2.274-2.452 2.274h-18.72c-1.179 0-2.927-1.405-2.927-2.085zM20.354 28.941v-9.863c0-.705 2.307-2.13 2.985-2.13h18.658c.835 0 2.456 1.621 2.456 1.917v9.888c0 1.163-1.935 2.274-2.452 2.274h-18.72c-1.179 0-2.927-1.406-2.927-2.086z"
       style="opacity:1;fill:#ff5555;fill-opacity:1;stroke:none;stroke-width:0.436636;stroke-linecap:butt;stroke-linejoin:miter;stroke-dasharray:none;stroke-opacity:1"
       id="path27" /><path
       d="M25.4 26.867v-5.733c0-.41 1.34-1.238 1.735-1.238H37.98c.485 0 1.427.942 1.427 1.114v5.748c0 .676-1.125 1.322-1.425 1.322H27.1c-.686 0-1.702-.817-1.702-1.213z"
       style="opacity:1;fill:#282a36;fill-opacity:1;stroke:none;stroke-width:0.253818;stroke-linecap:butt;stroke-linejoin:miter;stroke-dasharray:none;stroke-opacity:1"
       id="path29" /><rect
       width="3.812"
       height="3.892"
       x="22.252"
       y="37.242"
       ry=".881"
       style="opacity:1;fill:#282a36;fill-opacity:1;stroke:none;stroke-width:0.436636;stroke-linecap:round;stroke-dasharray:none;stroke-opacity:1"
       id="rect31" /><rect
       width="3.812"
       height="3.892"
       x="38.7"
       y="37.242"
       ry=".881"
       style="opacity:1;fill:#282a36;fill-opacity:1;stroke:none;stroke-width:0.436636;stroke-linecap:round;stroke-dasharray:none;stroke-opacity:1"
       id="rect33" /></g></svg>
