<?xml version="1.0" encoding="UTF-8" standalone="no"?>
<svg
   width="64"
   height="64"
   version="1"
   id="svg8137"
   sodipodi:docname="meterbridge.svg"
   inkscape:version="1.2.2 (b0a8486541, 2022-12-01)"
   xmlns:inkscape="http://www.inkscape.org/namespaces/inkscape"
   xmlns:sodipodi="http://sodipodi.sourceforge.net/DTD/sodipodi-0.dtd"
   xmlns="http://www.w3.org/2000/svg"
   xmlns:svg="http://www.w3.org/2000/svg">
  <defs
     id="defs8141" />
  <sodipodi:namedview
     id="namedview8139"
     pagecolor="#505050"
     bordercolor="#eeeeee"
     borderopacity="1"
     inkscape:showpageshadow="0"
     inkscape:pageopacity="0"
     inkscape:pagecheckerboard="0"
     inkscape:deskcolor="#505050"
     showgrid="false"
     inkscape:zoom="15.921875"
     inkscape:cx="29.895976"
     inkscape:cy="32.031403"
     inkscape:window-width="2560"
     inkscape:window-height="1361"
     inkscape:window-x="0"
     inkscape:window-y="0"
     inkscape:window-maximized="1"
     inkscape:current-layer="svg8137" />
  <rect
     x="5"
     y="5"
     width="54"
     height="54"
     rx="27"
     ry="27"
     fill="#44475a"
     stroke-width=".96428"
     id="rect8127" />
  <path
     d="m32 10c-12.188 0-22 9.812-22 22 0 4.0175 1.0833 7.7652 2.9492 11h13.051a6 6 0 0 1 6-6 6 6 0 0 1 6 6h13.051c1.8659-3.2348 2.9492-6.9825 2.9492-11 0-12.188-9.812-22-22-22z"
     fill="#ffe485"
     id="path8129"
     style="fill:#fdc88e" />
  <path
     d="m14.125 26.4s5.5-6.875 17.875-6.875 17.875 6.875 17.875 6.875"
     fill="none"
     opacity=".3"
     stroke="#282a36"
     stroke-linecap="round"
     stroke-width="3"
     id="path8131"
     style="stroke:#282a36" />
  <path
     d="m39.405 20.433c7.1913 1.8679 10.47 5.9669 10.47 5.9669"
     fill="none"
     stroke="#e93232"
     stroke-linecap="round"
     stroke-width="3"
     id="path8133"
     style="stroke:#c7484a" />
  <path
     d="m23.777 26a2.8 2.8 0 0 0-1.377 0.375 2.8 2.8 0 0 0-1.0254 3.8262l5.5469 9.6035a6 6 0 0 1 4.8496-2.7988l-5.5469-9.6055a2.8 2.8 0 0 0-2.4473-1.4004z"
     color="#282a36"
     color-rendering="auto"
     dominant-baseline="auto"
     fill="#44475a"
     image-rendering="auto"
     shape-rendering="auto"
     solid-color="#282a36"
     stop-color="#282a36"
     style="font-feature-settings:normal;font-variant-alternates:normal;font-variant-caps:normal;font-variant-east-asian:normal;font-variant-ligatures:normal;font-variant-numeric:normal;font-variant-position:normal;font-variation-settings:normal;inline-size:0;isolation:auto;mix-blend-mode:normal;shape-margin:0;shape-padding:0;text-decoration-color:#282a36;text-decoration-line:none;text-decoration-style:solid;text-indent:0;text-orientation:mixed;text-transform:none;white-space:normal"
     id="path8135" />
</svg>
