<?xml version="1.0" encoding="UTF-8" standalone="no"?>
<svg
   width="64"
   height="64"
   version="1.1"
   id="svg6056"
   sodipodi:docname="microsoft-edge.svg"
   inkscape:version="1.2.2 (b0a8486541, 2022-12-01)"
   xmlns:inkscape="http://www.inkscape.org/namespaces/inkscape"
   xmlns:sodipodi="http://sodipodi.sourceforge.net/DTD/sodipodi-0.dtd"
   xmlns="http://www.w3.org/2000/svg"
   xmlns:svg="http://www.w3.org/2000/svg"
   xmlns:rdf="http://www.w3.org/1999/02/22-rdf-syntax-ns#"
   xmlns:cc="http://creativecommons.org/ns#"
   xmlns:dc="http://purl.org/dc/elements/1.1/">
  <defs
     id="defs6060" />
  <sodipodi:namedview
     id="namedview6058"
     pagecolor="#505050"
     bordercolor="#eeeeee"
     borderopacity="1"
     inkscape:showpageshadow="0"
     inkscape:pageopacity="0"
     inkscape:pagecheckerboard="0"
     inkscape:deskcolor="#505050"
     showgrid="false"
     inkscape:zoom="15.921875"
     inkscape:cx="29.895976"
     inkscape:cy="32.031403"
     inkscape:window-width="2560"
     inkscape:window-height="1361"
     inkscape:window-x="0"
     inkscape:window-y="0"
     inkscape:window-maximized="1"
     inkscape:current-layer="svg6056" />
  <metadata
     id="metadata6044">
    <rdf:RDF>
      <cc:Work
         rdf:about="">
        <dc:format>image/svg+xml</dc:format>
        <dc:type
           rdf:resource="http://purl.org/dc/dcmitype/StillImage" />
        <dc:title />
      </cc:Work>
    </rdf:RDF>
  </metadata>
  <circle
     cx="32"
     cy="32"
     r="27"
     fill="#f8f8f2"
     stroke-linecap="round"
     stroke-linejoin="round"
     stroke-width="1.7766"
     style="paint-order:markers stroke fill"
     id="circle6046" />
  <g
     stroke-width=".77777"
     id="g6054">
    <path
       class="cls-5"
       d="m35.99 34.488c-0.13288 0.17223-0.54138 0.41008-0.54138 0.92843 0 0.42812 0.27889 0.83984 0.77434 1.186 2.3591 1.6403 6.8066 1.4238 6.8181 1.4238 1.748-0.0042 3.4629-0.47719 4.9659-1.3697 3.0851-1.8012 4.9848-4.1724 4.9921-7.7445 0.04265-3.676-1.3125-6.12-1.8604-7.2027-3.4763-6.7991-10.98-10.709-19.139-10.709-11.483-0.001105-20.837 9.2205-20.999 20.7 0.07876-5.9937 6.0372-11.555 13.125-11.555 0.57419 0 3.8487 0.05577 6.8902 1.6518 2.6806 1.4075 4.0849 3.827 5.0611 5.5117 1.4188 2.6767 1.4798 5.1351-0.08531 7.1785z"
       fill="#5ae2b5"
       id="path6048"
       style="fill:#7afa99" />
    <path
       class="cls-1"
       d="m48.907 42.254c-2.0125 1.98-5.1342 2.45-7.6187 2.4622-7.763 0-14.526-5.9692-14.526-12.821 0.02025-1.8712 1.0515-3.5851 2.6954-4.4797-7.0215 0.29526-8.8262 7.6111-8.8262 11.898 0 12.118 11.171 13.347 13.577 13.347 1.2977 0 3.2549-0.37728 4.4294-0.74798l0.21491-0.07217c4.5201-1.5624 8.3735-4.617 10.925-8.6613 0.36455-0.57428-0.27811-1.2555-0.87274-0.92516z"
       fill="#0b5ead"
       id="path6050"
       style="fill:#515d85" />
    <path
       class="cls-3"
       d="m27.715 50.599c-1.4632-0.90805-2.7314-2.098-3.7306-3.5004-4.8486-6.6419-1.9031-16.05 5.4744-19.683 0.51185-0.24112 1.3862-0.67745 2.5495-0.65612 1.6612 0.01215 3.2209 0.80126 4.2146 2.1323 0.66249 0.88441 1.0278 1.9559 1.0434 3.0608 0-0.03444 3.0498-14.193-13.125-13.057-7.1843 0.50448-13.125 6.8336-13.125 12.829-0.0284 3.1715 0.65026 6.3095 1.9867 9.1855 4.5209 9.6444 15.548 14.377 25.654 11.008-3.4597 1.0907-7.854 0.61111-10.929-1.3123z"
       fill="#008ef5"
       id="path6052"
       style="fill:#168daa" />
  </g>
</svg>
