<?xml version="1.0" encoding="UTF-8" standalone="no"?>
<svg
   width="64"
   height="64"
   viewBox="0 0 16.933 16.933"
   version="1.1"
   id="svg12"
   sodipodi:docname="MidnightCommander.svg"
   inkscape:version="1.2.2 (b0a8486541, 2022-12-01)"
   xmlns:inkscape="http://www.inkscape.org/namespaces/inkscape"
   xmlns:sodipodi="http://sodipodi.sourceforge.net/DTD/sodipodi-0.dtd"
   xmlns="http://www.w3.org/2000/svg"
   xmlns:svg="http://www.w3.org/2000/svg">
  <defs
     id="defs16" />
  <sodipodi:namedview
     id="namedview14"
     pagecolor="#505050"
     bordercolor="#eeeeee"
     borderopacity="1"
     inkscape:showpageshadow="0"
     inkscape:pageopacity="0"
     inkscape:pagecheckerboard="0"
     inkscape:deskcolor="#505050"
     showgrid="false"
     inkscape:zoom="15.921875"
     inkscape:cx="29.895976"
     inkscape:cy="32.031403"
     inkscape:window-width="2560"
     inkscape:window-height="1361"
     inkscape:window-x="0"
     inkscape:window-y="0"
     inkscape:window-maximized="1"
     inkscape:current-layer="svg12" />
  <circle
     cx="8.466"
     cy="8.46"
     r="7.144"
     fill="#005491"
     style="paint-order:stroke markers fill;fill:#515d85"
     id="circle2" />
  <path
     fill="#f8f8f2"
     d="M8.466 1.316v14.288A7.144 7.144 0 0 0 15.61 8.46a7.144 7.144 0 0 0-7.144-7.144z"
     opacity=".15"
     style="paint-order:stroke markers fill"
     id="path4" />
  <circle
     cx="8.466"
     cy="8.46"
     r="6.35"
     fill="#f8f8f2"
     opacity=".1"
     style="paint-order:stroke markers fill"
     id="circle6" />
  <path
     fill="#f8f8f2"
     fill-rule="evenodd"
     d="M3.717 10.502h.73V8.805c0-.39-.065-.95-.104-1.335h.022l.324.956.632 1.708h.467l.626-1.708.33-.956h.027c-.044.384-.104.945-.104 1.335v1.697h.741v-4.07h-.9l-.682 1.911c-.082.247-.154.517-.242.775h-.027c-.082-.258-.16-.528-.247-.775l-.692-1.911h-.901z"
     aria-label="M"
     id="path8" />
  <path
     fill="#f8f8f2"
     fill-rule="evenodd"
     d="M11.381 10.576c.533 0 .967-.209 1.302-.599l-.434-.505c-.214.236-.484.4-.835.4-.643 0-1.055-.532-1.055-1.416 0-.874.456-1.401 1.071-1.401.308 0 .544.143.753.34l.423-.516a1.648 1.648 0 0 0-1.192-.522c-1.027 0-1.89.786-1.89 2.126 0 1.357.835 2.093 1.857 2.093z"
     aria-label="C"
     id="path10" />
</svg>
