<?xml version="1.0" encoding="UTF-8" standalone="no"?>
<svg
   width="64"
   height="64"
   version="1.1"
   viewBox="0 0 16.933 16.933"
   id="svg5550"
   sodipodi:docname="mindmaster.svg"
   inkscape:version="1.2.2 (b0a8486541, 2022-12-01)"
   xmlns:inkscape="http://www.inkscape.org/namespaces/inkscape"
   xmlns:sodipodi="http://sodipodi.sourceforge.net/DTD/sodipodi-0.dtd"
   xmlns="http://www.w3.org/2000/svg"
   xmlns:svg="http://www.w3.org/2000/svg">
  <defs
     id="defs5554" />
  <sodipodi:namedview
     id="namedview5552"
     pagecolor="#505050"
     bordercolor="#eeeeee"
     borderopacity="1"
     inkscape:showpageshadow="0"
     inkscape:pageopacity="0"
     inkscape:pagecheckerboard="0"
     inkscape:deskcolor="#505050"
     showgrid="false"
     inkscape:zoom="15.921875"
     inkscape:cx="29.895976"
     inkscape:cy="32.031403"
     inkscape:window-width="2560"
     inkscape:window-height="1361"
     inkscape:window-x="0"
     inkscape:window-y="0"
     inkscape:window-maximized="1"
     inkscape:current-layer="svg5550" />
  <g
     transform="matrix(1.04 0 0 1.04 -.339 -291.61)"
     stroke-width=".962"
     paint-order="markers stroke fill"
     id="g5542">
    <rect
       x="1.598"
       y="281.67"
       width="13.738"
       height="13.738"
       rx="6.8689"
       ry="6.8689"
       fill="#34c47f"
       stroke-width=".99899"
       id="rect5540"
       style="fill:#44c367" />
  </g>
  <g
     transform="matrix(.5 0 0 .5 4.3761 2.8873)"
     clip-rule="evenodd"
     fill="#f8f8f2"
     fill-rule="evenodd"
     stroke-width=".26458"
     id="g5548">
    <path
       d="m13.272 6.0672c0.61996 0.61993 0.61996 1.6251 0 2.245l-7.9373 7.9373c-0.61993 0.61996-1.6251 0.61996-2.245 0-0.61996-0.61993-0.61996-1.6251 0-2.245l7.9373-7.9373c0.61993-0.61996 1.6251-0.61996 2.245 0z"
       opacity=".4"
       id="path5544" />
    <path
       d="m1.8309 7.0535v8.2097l1.2587-1.2587c0.61993-0.61996 1.6251-0.61996 2.245 0 0.61996 0.61993 0.61996 1.6251 0 2.245l-2.6137 2.6136c-1.5001 1.5002-4.065 0.43788-4.065-1.6837v-12.042c0-2.1214 2.5649-3.1839 4.065-1.6838l11.81 11.81v-8.2097l-1.2587 1.2587c-0.61993 0.61993-1.6251 0.61993-2.245 0-0.61996-0.61996-0.61996-1.6251 0-2.245l2.6137-2.6137c1.5001-1.5001 4.065-0.43767 4.065 1.6838v12.042c0 2.1215-2.5649 3.1838-4.065 1.6837z"
       id="path5546" />
  </g>
</svg>
