<?xml version="1.0" encoding="UTF-8" standalone="no"?>
<svg
   width="64"
   height="64"
   version="1.1"
   id="svg4035"
   sodipodi:docname="minitube.svg"
   inkscape:version="1.2.2 (b0a8486541, 2022-12-01)"
   xmlns:inkscape="http://www.inkscape.org/namespaces/inkscape"
   xmlns:sodipodi="http://sodipodi.sourceforge.net/DTD/sodipodi-0.dtd"
   xmlns="http://www.w3.org/2000/svg"
   xmlns:svg="http://www.w3.org/2000/svg">
  <defs
     id="defs4039" />
  <sodipodi:namedview
     id="namedview4037"
     pagecolor="#505050"
     bordercolor="#eeeeee"
     borderopacity="1"
     inkscape:showpageshadow="0"
     inkscape:pageopacity="0"
     inkscape:pagecheckerboard="0"
     inkscape:deskcolor="#505050"
     showgrid="false"
     inkscape:zoom="15.921875"
     inkscape:cx="29.895976"
     inkscape:cy="32.031403"
     inkscape:window-width="2560"
     inkscape:window-height="1361"
     inkscape:window-x="0"
     inkscape:window-y="0"
     inkscape:window-maximized="1"
     inkscape:current-layer="svg4035" />
  <circle
     cx="32"
     cy="32"
     r="27"
     fill="#3c3f42"
     fill-rule="evenodd"
     style="paint-order:stroke fill markers;fill:#44475a"
     id="circle4029" />
  <circle
     cx="32"
     cy="32"
     r="23"
     fill="#e43f3f"
     fill-rule="evenodd"
     style="paint-order:stroke fill markers;fill:#ff5555"
     id="circle4031" />
  <path
     d="m45.761 27.042c-0.15578-1.748-1.2671-3.9525-3.551-4.0312-6.3774-0.40214-13.933-0.5121-20.425 0-2.0144 0.21175-3.3953 2.5129-3.5457 4.261-0.31852 3.6718-0.31852 5.7613 0 9.433 0.15225 1.748 1.4981 4.0624 3.5493 4.3053 6.5699 0.40213 14.089 0.45957 20.425 0 1.9881-0.32337 3.397-2.5573 3.5493-4.3053 0.31674-3.6734 0.31674-5.991-0.0011-9.6628zm-17.263 9.6037v-9.4134l8.7506 4.7074z"
     fill="#f8f8f2"
     opacity=".878"
     stroke-width="1.317"
     id="path4033" />
</svg>
