<?xml version="1.0" encoding="UTF-8" standalone="no"?>
<svg
   width="64"
   height="64"
   version="1.1"
   id="svg1466"
   sodipodi:docname="motrix.svg"
   inkscape:version="1.2.2 (b0a8486541, 2022-12-01)"
   xmlns:inkscape="http://www.inkscape.org/namespaces/inkscape"
   xmlns:sodipodi="http://sodipodi.sourceforge.net/DTD/sodipodi-0.dtd"
   xmlns="http://www.w3.org/2000/svg"
   xmlns:svg="http://www.w3.org/2000/svg">
  <defs
     id="defs1470" />
  <sodipodi:namedview
     id="namedview1468"
     pagecolor="#505050"
     bordercolor="#eeeeee"
     borderopacity="1"
     inkscape:showpageshadow="0"
     inkscape:pageopacity="0"
     inkscape:pagecheckerboard="0"
     inkscape:deskcolor="#505050"
     showgrid="false"
     inkscape:zoom="15.921875"
     inkscape:cx="29.895976"
     inkscape:cy="32.031403"
     inkscape:window-width="2560"
     inkscape:window-height="1361"
     inkscape:window-x="0"
     inkscape:window-y="0"
     inkscape:window-maximized="1"
     inkscape:current-layer="svg1466" />
  <rect
     x="5"
     y="5"
     width="54"
     height="54"
     rx="27"
     ry="27"
     fill="#e3e7ee"
     stroke-width="1.0385"
     id="rect1454"
     style="fill:#f8f8f2" />
  <rect
     x="8"
     y="8"
     width="48"
     height="48"
     rx="24"
     ry="24"
     fill="#8d74de"
     stroke-width="1.0435"
     id="rect1456"
     style="fill:#9576c5" />
  <rect
     x="15"
     y="15"
     width="34"
     height="34"
     rx="5"
     ry="5"
     fill="#e5e9f0"
     id="rect1458"
     style="fill:#f8f8f2" />
  <path
     d="m34 42c-0.554 0-1 0.3345-1 0.75v2.25h1v-2h1v2h1v-2h1v2h1v-2.25c0-0.4155-0.446-0.75-1-0.75h-3zm8 0c-0.554 0-1 0.3345-1 0.75v1.5c0 0.4155 0.446 0.75 1 0.75h3c0.554 0 1-0.3345 1-0.75v-1.5c0-0.4155-0.446-0.75-1-0.75h-3zm-2.5 1c-0.277 0-0.5 0.223-0.5 0.5s0.223 0.5 0.5 0.5 0.5-0.223 0.5-0.5-0.223-0.5-0.5-0.5zm2.5 0h3v1h-3v-1z"
     fill="#9aa0aa"
     id="path1460"
     style="fill:#9ea0a6" />
  <path
     d="m22 15v5c0 1.662 1.338 3 3 3h14c1.662 0 3-1.338 3-3v-5h-20z"
     fill="#282a36"
     id="path1462" />
  <path
     d="m26 19v1h4v-1h-4zm8 0v1h4v-1h-4z"
     fill="#fbe604"
     id="path1464"
     style="fill:#ffb86c" />
</svg>
