<?xml version="1.0" encoding="UTF-8" standalone="no"?>
<svg
   width="64"
   height="64"
   version="1.1"
   id="svg36"
   sodipodi:docname="mpd.svg"
   inkscape:version="1.2.2 (b0a8486541, 2022-12-01)"
   xmlns:inkscape="http://www.inkscape.org/namespaces/inkscape"
   xmlns:sodipodi="http://sodipodi.sourceforge.net/DTD/sodipodi-0.dtd"
   xmlns="http://www.w3.org/2000/svg"
   xmlns:svg="http://www.w3.org/2000/svg">
  <defs
     id="defs40" />
  <sodipodi:namedview
     id="namedview38"
     pagecolor="#505050"
     bordercolor="#eeeeee"
     borderopacity="1"
     inkscape:showpageshadow="0"
     inkscape:pageopacity="0"
     inkscape:pagecheckerboard="0"
     inkscape:deskcolor="#505050"
     showgrid="false"
     inkscape:zoom="15.921875"
     inkscape:cx="29.895976"
     inkscape:cy="32.031403"
     inkscape:window-width="2560"
     inkscape:window-height="1361"
     inkscape:window-x="0"
     inkscape:window-y="0"
     inkscape:window-maximized="1"
     inkscape:current-layer="svg36" />
  <g
     transform="matrix(3.7796 0 0 3.7796 -4.8598e-8 -1058.6)"
     id="g20">
    <rect
       x="1.3229"
       y="281.39"
       width="14.287"
       height="14.287"
       ry="7.1436"
       fill="#8daaff"
       style="paint-order:stroke markers fill;fill:#6272a4"
       id="rect2" />
    <rect
       x="3.44"
       y="291.18"
       width="10.054"
       height="1.323"
       ry=".265"
       fill="#f8f8f2"
       opacity=".35"
       style="paint-order:markers stroke fill"
       id="rect4" />
    <g
       fill="#ccdfff"
       id="g14"
       style="fill:#cbcccc">
      <rect
         x="4.498"
         y="290.38"
         width="1.323"
         height="1.323"
         ry=".132"
         style="paint-order:stroke markers fill;fill:#cbcccc"
         id="rect6" />
      <rect
         x="6.703"
         y="290.38"
         width="1.323"
         height="1.323"
         ry=".132"
         style="paint-order:stroke markers fill;fill:#cbcccc"
         id="rect8" />
      <rect
         x="8.908"
         y="290.38"
         width="1.323"
         height="1.323"
         ry=".132"
         style="paint-order:stroke markers fill;fill:#cbcccc"
         id="rect10" />
      <rect
         x="11.113"
         y="290.38"
         width="1.323"
         height="1.323"
         ry=".132"
         style="paint-order:stroke markers fill;fill:#cbcccc"
         id="rect12" />
    </g>
    <path
       transform="matrix(.26458 0 0 .26458 0 280.07)"
       d="m32 5c-5.2094 0-10.063 1.4644-14.18 4h28.359c-4.1165-2.5356-8.9703-4-14.18-4z"
       opacity=".35"
       stroke-width="3.7796"
       style="paint-order:stroke markers fill"
       id="path16" />
    <rect
       x="7.1436"
       y="281.65"
       width="2.6458"
       height=".52916"
       ry=".26508"
       opacity=".35"
       style="paint-order:stroke markers fill"
       id="rect18" />
  </g>
  <g
     transform="translate(.97692 .981)"
     id="g34">
    <ellipse
       transform="matrix(.99641 .084662 -.084964 .99638 0 0)"
       cx="51.929"
       cy="43.781"
       rx="12"
       ry="12.001"
       fill="#717380"
       id="ellipse22" />
    <rect
       x="40.023"
       y="46.019"
       width="5"
       height="4"
       ry="1"
       fill="#f8f8f2"
       fill-rule="evenodd"
       id="rect24" />
    <path
       d="m46.023 43.019-3 3v4l3 3z"
       fill="#f8f8f2"
       id="path26" />
    <path
       d="m53.162 41.447c-0.545-0.428-1.139 0.224-0.684 0.732a8 8 0 0 1 2.545 5.84 8 8 0 0 1-2.554 5.852c-0.446 0.471 0.18 1.148 0.677 0.728a9 9 0 0 0 2.877-6.58 9 9 0 0 0-2.861-6.572z"
       fill="#f8f8f2"
       fill-rule="evenodd"
       id="path28" />
    <path
       d="m50.798 42.908c-0.587-0.535-1.199 0.225-0.684 0.732a6 6 0 0 1 1.909 4.379 6 6 0 0 1-1.916 4.389c-0.469 0.446 0.173 1.146 0.68 0.728a7 7 0 0 0 2.236-5.117 7 7 0 0 0-2.225-5.111z"
       fill="#f8f8f2"
       fill-rule="evenodd"
       id="path30" />
    <path
       d="m48.433 44.369c-0.52-0.494-1.155 0.22-0.683 0.73a4 4 0 0 1 1.273 2.92 4 4 0 0 1-1.277 2.926c-0.473 0.43 0.14 1.152 0.68 0.73a5 5 0 0 0 1.597-3.656 5 5 0 0 0-1.59-3.65z"
       fill="#f8f8f2"
       fill-rule="evenodd"
       id="path32" />
  </g>
</svg>
