<?xml version="1.0" encoding="UTF-8" standalone="no"?>
<svg
   width="64"
   height="64"
   version="1.1"
   viewBox="0 0 16.933 16.933"
   id="svg12"
   sodipodi:docname="mplayer.svg"
   inkscape:version="1.2.2 (b0a8486541, 2022-12-01)"
   xmlns:inkscape="http://www.inkscape.org/namespaces/inkscape"
   xmlns:sodipodi="http://sodipodi.sourceforge.net/DTD/sodipodi-0.dtd"
   xmlns="http://www.w3.org/2000/svg"
   xmlns:svg="http://www.w3.org/2000/svg">
  <defs
     id="defs16" />
  <sodipodi:namedview
     id="namedview14"
     pagecolor="#505050"
     bordercolor="#eeeeee"
     borderopacity="1"
     inkscape:showpageshadow="0"
     inkscape:pageopacity="0"
     inkscape:pagecheckerboard="0"
     inkscape:deskcolor="#505050"
     showgrid="false"
     inkscape:zoom="15.921875"
     inkscape:cx="29.895976"
     inkscape:cy="32.031403"
     inkscape:window-width="2560"
     inkscape:window-height="1361"
     inkscape:window-x="0"
     inkscape:window-y="0"
     inkscape:window-maximized="1"
     inkscape:current-layer="svg12" />
  <circle
     cx="8.4665"
     cy="8.4665"
     r="7.1436"
     fill="#698bcf"
     style="paint-order:stroke fill markers;fill:#6272a4"
     id="circle2" />
  <g
     style="paint-order:stroke markers fill"
     id="g10">
    <path
       transform="scale(.26458)"
       d="m32 5a27 27 0 0 0-20.527 9.4727l45.111 28.631a27 27 0 0 0 2.416-11.104 27 27 0 0 0-27-27z"
       opacity=".08"
       stroke-width="3.7796"
       id="path4" />
    <path
       transform="scale(.26458)"
       d="m56.578 20.904-45.086 28.609a27 27 0 0 0 20.508 9.4863 27 27 0 0 0 27-27 27 27 0 0 0-2.4219-11.096z"
       fill="#f8f8f2"
       opacity=".15"
       stroke-width="3.7796"
       id="path6" />
    <path
       d="m10.319 8.467-4.234 2.645v-5.291z"
       fill="#f8f8f2"
       id="path8" />
  </g>
</svg>
