<?xml version="1.0" encoding="UTF-8" standalone="no"?>
<svg
   width="64"
   height="64"
   viewBox="0 0 16.933 16.933"
   version="1.1"
   id="svg12"
   sodipodi:docname="mpv.svg"
   inkscape:version="1.2.2 (b0a8486541, 2022-12-01)"
   xmlns:inkscape="http://www.inkscape.org/namespaces/inkscape"
   xmlns:sodipodi="http://sodipodi.sourceforge.net/DTD/sodipodi-0.dtd"
   xmlns="http://www.w3.org/2000/svg"
   xmlns:svg="http://www.w3.org/2000/svg">
  <defs
     id="defs16" />
  <sodipodi:namedview
     id="namedview14"
     pagecolor="#505050"
     bordercolor="#eeeeee"
     borderopacity="1"
     inkscape:showpageshadow="0"
     inkscape:pageopacity="0"
     inkscape:pagecheckerboard="0"
     inkscape:deskcolor="#505050"
     showgrid="false"
     inkscape:zoom="15.921875"
     inkscape:cx="29.895976"
     inkscape:cy="32.031403"
     inkscape:window-width="2560"
     inkscape:window-height="1361"
     inkscape:window-x="0"
     inkscape:window-y="0"
     inkscape:window-maximized="1"
     inkscape:current-layer="svg12" />
  <circle
     cx="8.466"
     cy="8.466"
     r="7.144"
     fill="#9141ac"
     style="paint-order:stroke fill markers;fill:#c7639f"
     id="circle2" />
  <g
     style="paint-order:stroke markers fill"
     id="g10">
    <path
       d="M8.467 1.323a7.144 7.144 0 0 0-5.431 2.506l11.935 7.575a7.144 7.144 0 0 0 .64-2.938 7.144 7.144 0 0 0-7.144-7.143z"
       opacity=".08"
       id="path4" />
    <path
       fill="#f8f8f2"
       d="M14.97 5.53 3.04 13.1a7.144 7.144 0 0 0 5.427 2.51 7.144 7.144 0 0 0 7.143-7.144 7.144 7.144 0 0 0-.64-2.935z"
       opacity=".15"
       id="path6" />
    <path
       fill="#f8f8f2"
       d="m10.319 8.467-4.234 2.645V5.821z"
       id="path8" />
  </g>
</svg>
