<?xml version="1.0" encoding="UTF-8" standalone="no"?>
<svg
   width="64"
   height="64"
   version="1.1"
   viewBox="0 0 16.933 16.933"
   id="svg22"
   sodipodi:docname="ms-calendar.svg"
   inkscape:version="1.2.2 (b0a8486541, 2022-12-01)"
   xmlns:inkscape="http://www.inkscape.org/namespaces/inkscape"
   xmlns:sodipodi="http://sodipodi.sourceforge.net/DTD/sodipodi-0.dtd"
   xmlns="http://www.w3.org/2000/svg"
   xmlns:svg="http://www.w3.org/2000/svg">
  <defs
     id="defs26" />
  <sodipodi:namedview
     id="namedview24"
     pagecolor="#505050"
     bordercolor="#eeeeee"
     borderopacity="1"
     inkscape:showpageshadow="0"
     inkscape:pageopacity="0"
     inkscape:pagecheckerboard="0"
     inkscape:deskcolor="#505050"
     showgrid="false"
     inkscape:zoom="15.921875"
     inkscape:cx="29.895976"
     inkscape:cy="32.031403"
     inkscape:window-width="2560"
     inkscape:window-height="1361"
     inkscape:window-x="0"
     inkscape:window-y="0"
     inkscape:window-maximized="1"
     inkscape:current-layer="svg22" />
  <circle
     cx="8.4665"
     cy="8.4665"
     r="7.1436"
     fill="#f8f8f2"
     style="paint-order:stroke fill markers"
     id="circle2" />
  <path
     d="m8.4666 1.3229a7.1437 7.1437 0 0 0-7.1437 7.1437 7.1437 7.1437 0 0 0 0 5.291e-4h14.287a7.1437 7.1437 0 0 0 0-5.291e-4 7.1437 7.1437 0 0 0-7.1437-7.1437z"
     opacity=".06"
     stroke-width="1.1927"
     style="paint-order:stroke markers fill"
     id="path4" />
  <path
     d="m7.447 12.719 2.068-4.719h-2.767v-0.611h3.437v0.524l-2.039 4.806z"
     fill="#282a36"
     font-size="7.457"
     font-weight="400"
     letter-spacing="0"
     stroke-width=".186"
     word-spacing="0"
     aria-label="7"
     id="path6"
     style="fill:#282a36" />
  <g
     transform="matrix(.78609 0 0 .78609 1.8111 2.2605)"
     fill="#915fd3"
     stroke-width=".069252"
     aria-label="FRIDAY"
     id="g20"
     style="fill:#9576c5">
    <path
       d="m3.7041 3.1828h1.1605v0.22994h-0.88729v0.59513h0.80072v0.22994h-0.80072v0.96438h-0.27322z"
       id="path8"
       style="fill:#9576c5" />
    <path
       d="m6.255 4.2554q0.087917 0.029757 0.17042 0.12714 0.083859 0.097385 0.16772 0.26781l0.27728 0.55185h-0.29351l-0.25834-0.51804q-0.10009-0.20289-0.19477-0.26916-0.093328-0.066276-0.25564-0.066276h-0.29757v0.85347h-0.27322v-2.0194h0.61677q0.34626 0 0.51668 0.14473t0.17042 0.43688q0 0.19071-0.08927 0.3165-0.087917 0.12579-0.25699 0.17448zm-0.6844-0.84806v0.71686h0.34355q0.19748 0 0.29757-0.090622 0.10144-0.091975 0.10144-0.26916 0-0.17719-0.10144-0.26646-0.10009-0.090623-0.29757-0.090623z"
       id="path10"
       style="fill:#9576c5" />
    <path
       d="m7.2221 3.1828h0.27322v2.0194h-0.27322z"
       id="path12"
       style="fill:#9576c5" />
    <path
       d="m8.3123 3.4073v1.5703h0.33003q0.41794 0 0.61136-0.18936 0.19477-0.18936 0.19477-0.59784 0-0.40577-0.19477-0.59378-0.19342-0.18936-0.61136-0.18936zm-0.27322-0.22453h0.56132q0.58702 0 0.86159 0.24482 0.27457 0.24346 0.27457 0.76285 0 0.52209-0.27592 0.76691t-0.86024 0.24482h-0.56132z"
       id="path14"
       style="fill:#9576c5" />
    <path
       d="m10.798 3.4519-0.3706 1.005h0.74256zm-0.15419-0.26916h0.30974l0.76961 2.0194h-0.28404l-0.18395-0.51804h-0.91028l-0.18395 0.51804h-0.2881z"
       id="path16"
       style="fill:#9576c5" />
    <path
       d="m11.526 3.1828h0.29351l0.55996 0.83048 0.55591-0.83048h0.29351l-0.71416 1.0577v0.96168h-0.27457v-0.96168z"
       id="path18"
       style="fill:#9576c5" />
  </g>
</svg>
