<?xml version="1.0" encoding="UTF-8" standalone="no"?>
<svg
   width="64"
   height="64"
   version="1.1"
   viewBox="0 0 16.933 16.933"
   id="svg30"
   sodipodi:docname="ms-excel.svg"
   inkscape:version="1.2.2 (b0a8486541, 2022-12-01)"
   xmlns:inkscape="http://www.inkscape.org/namespaces/inkscape"
   xmlns:sodipodi="http://sodipodi.sourceforge.net/DTD/sodipodi-0.dtd"
   xmlns="http://www.w3.org/2000/svg"
   xmlns:svg="http://www.w3.org/2000/svg">
  <defs
     id="defs34" />
  <sodipodi:namedview
     id="namedview32"
     pagecolor="#505050"
     bordercolor="#eeeeee"
     borderopacity="1"
     inkscape:showpageshadow="0"
     inkscape:pageopacity="0"
     inkscape:pagecheckerboard="0"
     inkscape:deskcolor="#505050"
     showgrid="false"
     inkscape:zoom="15.921875"
     inkscape:cx="29.895976"
     inkscape:cy="32.031403"
     inkscape:window-width="2560"
     inkscape:window-height="1361"
     inkscape:window-x="0"
     inkscape:window-y="0"
     inkscape:window-maximized="1"
     inkscape:current-layer="svg30" />
  <circle
     cx="8.4665"
     cy="8.4665"
     r="7.1436"
     fill="#246541"
     style="paint-order:stroke fill markers;fill:#44c367"
     id="circle2" />
  <rect
     transform="rotate(4.61)"
     x="8.823"
     y="2.7027"
     width="4.9617"
     height="8.7788"
     rx=".38156"
     ry=".38156"
     opacity=".1"
     stroke-width=".72129"
     style="paint-order:markers stroke fill;opacity:0.4"
     id="rect4" />
  <rect
     transform="rotate(4.61)"
     x="9.2045"
     y="3.0843"
     width="4.1986"
     height="8.0149"
     rx="0"
     ry="0"
     fill="#f8f8f2"
     stroke-width=".72129"
     style="paint-order:markers stroke fill"
     id="rect6" />
  <g
     fill="#246541"
     stroke-width=".72129"
     id="g24"
     style="fill:#44c367">
    <rect
       transform="rotate(4.61)"
       x="11.495"
       y="9.0003"
       width="1.3358"
       height="1.1447"
       rx="0"
       ry="0"
       style="paint-order:markers stroke fill;fill:#44c367"
       id="rect8" />
    <rect
       transform="rotate(4.61)"
       x="11.495"
       y="7.3464"
       width="1.3358"
       height="1.1447"
       rx="0"
       ry="0"
       style="paint-order:markers stroke fill;fill:#44c367"
       id="rect10" />
    <rect
       transform="rotate(4.61)"
       x="11.495"
       y="5.6925"
       width="1.3358"
       height="1.1447"
       rx="0"
       ry="0"
       style="paint-order:markers stroke fill;fill:#44c367"
       id="rect12" />
    <rect
       transform="rotate(4.61)"
       x="11.495"
       y="4.0386"
       width="1.3358"
       height="1.1447"
       rx="0"
       ry="0"
       style="paint-order:markers stroke fill;fill:#44c367"
       id="rect14" />
    <rect
       transform="rotate(4.61)"
       x="9.7772"
       y="9.0003"
       width="1.3358"
       height="1.1447"
       rx="0"
       ry="0"
       style="paint-order:markers stroke fill;fill:#44c367"
       id="rect16" />
    <rect
       transform="rotate(4.61)"
       x="9.7772"
       y="7.3464"
       width="1.3358"
       height="1.1447"
       rx="0"
       ry="0"
       style="paint-order:markers stroke fill;fill:#44c367"
       id="rect18" />
    <rect
       transform="rotate(4.61)"
       x="9.7772"
       y="5.6925"
       width="1.3358"
       height="1.1447"
       rx="0"
       ry="0"
       style="paint-order:markers stroke fill;fill:#44c367"
       id="rect20" />
    <rect
       transform="rotate(4.61)"
       x="9.7772"
       y="4.0386"
       width="1.3358"
       height="1.1447"
       rx="0"
       ry="0"
       style="paint-order:markers stroke fill;fill:#44c367"
       id="rect22" />
  </g>
  <path
     transform="scale(.26458)"
     d="m32 5a27 27 0 0 0-27 27 27 27 0 0 0 27 27 27 27 0 0 0 12.869-3.2949l-9.5508-50.477a27 27 0 0 0-3.3184-0.22852z"
     fill="#357e56"
     stroke-width="2.7262"
     style="paint-order:markers stroke fill;fill:#50fa7b;opacity:1"
     id="path26" />
  <path
     d="m8.2953 6.0847-1.1495 0.17375-0.72711 1.412-1.1118-1.1344-1.1495 0.17438 1.8068 1.8426-1.1823 2.2953 1.1495-0.17438 0.72711-1.412 1.1124 1.1344 1.1489-0.17312-1.8068-1.8439z"
     fill="#f8f8f2"
     stroke-width=".8787"
     style="paint-order:markers stroke fill"
     id="path28" />
</svg>
