<?xml version="1.0" encoding="UTF-8" standalone="no"?>
<svg
   width="64"
   height="64"
   viewBox="0 0 16.933 16.933"
   version="1.1"
   id="svg5"
   sodipodi:docname="ms-outlook.svg"
   inkscape:version="1.3.2 (091e20ef0f, 2023-11-25, custom)"
   xmlns:inkscape="http://www.inkscape.org/namespaces/inkscape"
   xmlns:sodipodi="http://sodipodi.sourceforge.net/DTD/sodipodi-0.dtd"
   xmlns:xlink="http://www.w3.org/1999/xlink"
   xmlns="http://www.w3.org/2000/svg"
   xmlns:svg="http://www.w3.org/2000/svg">
  <sodipodi:namedview
     id="namedview5"
     pagecolor="#f8f8f2"
     bordercolor="#282a36"
     borderopacity="0.25"
     inkscape:showpageshadow="2"
     inkscape:pageopacity="0.0"
     inkscape:pagecheckerboard="0"
     inkscape:deskcolor="#d1d1d1"
     inkscape:zoom="12.875"
     inkscape:cx="31.961165"
     inkscape:cy="32"
     inkscape:window-width="1920"
     inkscape:window-height="1040"
     inkscape:window-x="0"
     inkscape:window-y="0"
     inkscape:window-maximized="1"
     inkscape:current-layer="g4" />
  <defs
     id="defs2">
    <linearGradient
       xlink:href="#a"
       id="b"
       x1="41.088"
       x2="41.088"
       y1="56.971"
       y2="26.486"
       gradientTransform="translate(31.7 289.992) scale(.26458)"
       gradientUnits="userSpaceOnUse" />
    <linearGradient
       id="a">
      <stop
         offset="0"
         id="stop1" />
      <stop
         offset="1"
         stop-opacity="0"
         id="stop2" />
    </linearGradient>
  </defs>
  <g
     paint-order="markers stroke fill"
     transform="rotate(4.372 3717.287 -1233.242)"
     id="g3">
    <rect
       width="6.879"
       height="12.171"
       x="113.506"
       y="280.596"
       fill="#0d68ab"
       rx=".529"
       ry=".529"
       id="rect2"
       style="fill:#168daa" />
    <rect
       width="5.821"
       height="11.112"
       x="114.035"
       y="281.125"
       fill="#f8f8f2"
       rx="0"
       ry="0"
       id="rect3" />
    <path
       fill="#0d68ab"
       d="m119.062 281.125-1.852 5.556 1.852 5.556h.53l-1.852-5.556 1.852-5.556z"
       id="path3"
       style="fill:#168daa" />
  </g>
  <g
     paint-order="markers stroke fill"
     transform="translate(-31.683 -289.992)"
     id="g4">
    <rect
       width="8.996"
       height="13.758"
       x="-10.166"
       y="294.021"
       fill="#1e84d0"
       rx="0"
       ry="0"
       transform="rotate(-8.462)"
       id="rect4"
       style="fill:#168daa" />
    <path
       fill="url(#b)"
       d="M43.003 297a11.132 17.633 6.416 0 1-.06.665 11.132 17.633 6.416 0 1-1.933 7.4l3.124-.464z"
       opacity=".25"
       id="path4" />
  </g>
  <g
     style="line-height:1.25;-inkscape-font-specification:&quot;sans-serif Bold&quot;"
     id="g5">
    <path
       fill="#f8f8f2"
       d="M6.727 6.88c-.35.058-.655.25-.801.56-.147.31-.259.73-.176 1.233.083.502.29.868.528 1.114.238.245.624.324.973.266.351-.058.704-.259.85-.568.147-.31.23-.723.147-1.225a2.058 2.058 0 0 0-.54-1.114c-.238-.246-.63-.324-.981-.266zm-.148-.893c.714-.118 1.31.01 1.786.382.477.373.78.947.908 1.722.128.772.026 1.412-.306 1.919-.332.506-.854.819-1.568.937-.712.117-1.307-.01-1.787-.383-.477-.372-.78-.945-.907-1.718-.128-.775-.026-1.416.306-1.922.333-.507.856-.82 1.568-.937z"
       aria-label="O"
       font-family="sans-serif"
       font-size="6.406"
       font-weight="700"
       letter-spacing="0"
       style="-inkscape-font-specification:&quot;sans-serif Bold&quot;"
       word-spacing="0"
       id="path5" />
  </g>
</svg>
