<?xml version="1.0" encoding="UTF-8" standalone="no"?>
<svg
   width="64"
   height="64"
   viewBox="0 0 16.933 16.933"
   version="1.1"
   id="svg1"
   sodipodi:docname="ms-office.svg"
   inkscape:version="1.3.2 (091e20ef0f, 2023-11-25, custom)"
   xmlns:inkscape="http://www.inkscape.org/namespaces/inkscape"
   xmlns:sodipodi="http://sodipodi.sourceforge.net/DTD/sodipodi-0.dtd"
   xmlns="http://www.w3.org/2000/svg"
   xmlns:svg="http://www.w3.org/2000/svg">
  <defs
     id="defs1" />
  <sodipodi:namedview
     id="namedview1"
     pagecolor="#f8f8f2"
     bordercolor="#282a36"
     borderopacity="0.25"
     inkscape:showpageshadow="2"
     inkscape:pageopacity="0.0"
     inkscape:pagecheckerboard="0"
     inkscape:deskcolor="#d1d1d1"
     inkscape:zoom="12.875"
     inkscape:cx="31.961165"
     inkscape:cy="32"
     inkscape:window-width="1920"
     inkscape:window-height="1040"
     inkscape:window-x="0"
     inkscape:window-y="0"
     inkscape:window-maximized="1"
     inkscape:current-layer="svg1" />
  <circle
     cx="8.467"
     cy="288.53"
     r="6.879"
     fill="#e03f1a"
     stroke-width=".927"
     style="paint-order:stroke markers fill;fill:#c7484a"
     transform="translate(-.326 -291.168) scale(1.0385)"
     id="circle1" />
  <path
     fill="#f8f8f2"
     d="M7.244 11.903a248.39 248.39 0 0 1-2.264-.802c-.005-.005-.006-.012-.003-.015.004-.003 1.025.114 2.27.26 1.717.202 2.059.263 2.066.25.014-.02.014-5.937 0-5.958-.015-.023-2.92.656-2.946.688-.013.018-.017.445-.017 2.031 0 1.592-.004 2.012-.017 2.022-.026.02-1.43.673-1.45.673-.014 0-.016-.518-.014-2.57l.004-2.57 1.772-.64 2.329-.841.556-.201 1.25.391c.688.216 1.258.396 1.268.402.014.008.017.717.017 3.468 0 3.278-.001 3.457-.024 3.469-.042.022-2.483.737-2.513.737-.016 0-1.044-.358-2.284-.794z"
     id="path1" />
</svg>
