<?xml version="1.0" encoding="UTF-8" standalone="no"?>
<svg
   width="64"
   height="64"
   viewBox="0 0 16.933 16.933"
   version="1.1"
   id="svg18"
   sodipodi:docname="ms-onenote.svg"
   inkscape:version="1.3.2 (091e20ef0f, 2023-11-25, custom)"
   xmlns:inkscape="http://www.inkscape.org/namespaces/inkscape"
   xmlns:sodipodi="http://sodipodi.sourceforge.net/DTD/sodipodi-0.dtd"
   xmlns:xlink="http://www.w3.org/1999/xlink"
   xmlns="http://www.w3.org/2000/svg"
   xmlns:svg="http://www.w3.org/2000/svg">
  <sodipodi:namedview
     id="namedview18"
     pagecolor="#f8f8f2"
     bordercolor="#282a36"
     borderopacity="0.25"
     inkscape:showpageshadow="2"
     inkscape:pageopacity="0.0"
     inkscape:pagecheckerboard="0"
     inkscape:deskcolor="#d1d1d1"
     inkscape:zoom="12.875"
     inkscape:cx="31.961165"
     inkscape:cy="32"
     inkscape:window-width="1920"
     inkscape:window-height="1040"
     inkscape:window-x="0"
     inkscape:window-y="0"
     inkscape:window-maximized="1"
     inkscape:current-layer="g18" />
  <defs
     id="defs2">
    <linearGradient
       xlink:href="#a"
       id="b"
       x1="41.088"
       x2="41.088"
       y1="56.971"
       y2="26.486"
       gradientTransform="translate(-17.024 328.332) scale(.26458)"
       gradientUnits="userSpaceOnUse" />
    <linearGradient
       id="a">
      <stop
         offset="0"
         id="stop1" />
      <stop
         offset="1"
         stop-opacity="0"
         id="stop2" />
    </linearGradient>
  </defs>
  <g
     paint-order="markers stroke fill"
     id="g18">
    <g
       transform="rotate(4.371 3694.454 -1081.184)"
       id="g13">
      <rect
         width="3.175"
         height="6.879"
         x="105.569"
         y="280.331"
         fill="#673773"
         rx=".149"
         ry=".138"
         id="rect2"
         style="fill:#9576c5" />
      <rect
         width="6.879"
         height="12.171"
         x="100.806"
         y="279.273"
         fill="#673773"
         rx=".529"
         ry=".529"
         id="rect3"
         style="fill:#9576c5" />
      <rect
         width="5.821"
         height="11.112"
         x="101.335"
         y="279.802"
         fill="#f8f8f2"
         rx="0"
         ry="0"
         id="rect4" />
      <rect
         width="4.233"
         height=".529"
         x="102.129"
         y="281.125"
         fill="#673773"
         rx="0"
         ry="0"
         id="rect5"
         style="fill:#9576c5" />
      <rect
         width="4.233"
         height=".529"
         x="102.129"
         y="289.062"
         fill="#673773"
         rx="0"
         ry="0"
         id="rect6"
         style="fill:#9576c5" />
      <rect
         width="4.233"
         height=".529"
         x="102.129"
         y="287.475"
         fill="#673773"
         rx="0"
         ry="0"
         id="rect7"
         style="fill:#9576c5" />
      <rect
         width="4.233"
         height=".529"
         x="102.129"
         y="285.887"
         fill="#673773"
         rx="0"
         ry="0"
         id="rect8"
         style="fill:#9576c5" />
      <rect
         width="4.233"
         height=".529"
         x="102.129"
         y="284.3"
         fill="#673773"
         rx="0"
         ry="0"
         id="rect9"
         style="fill:#9576c5" />
      <rect
         width="4.233"
         height=".529"
         x="102.129"
         y="282.712"
         fill="#673773"
         rx="0"
         ry="0"
         id="rect10"
         style="fill:#9576c5" />
      <rect
         width="1.587"
         height="1.587"
         x="106.627"
         y="280.86"
         fill="#f8f8f2"
         rx="0"
         ry="0"
         id="rect11" />
      <rect
         width=".529"
         height="1.588"
         x="107.685"
         y="282.977"
         fill="#f8f8f2"
         rx="0"
         ry="0"
         id="rect12" />
      <rect
         width=".529"
         height="1.588"
         x="107.685"
         y="285.094"
         fill="#f8f8f2"
         rx="0"
         ry="0"
         id="rect13" />
    </g>
    <g
       transform="translate(17.059 -328.332)"
       id="g17">
      <rect
         width="8.996"
         height="13.758"
         x="-64.002"
         y="324.773"
         fill="#885195"
         rx="0"
         ry="0"
         transform="rotate(-8.462)"
         id="rect14"
         style="fill:#9576c5" />
      <path
         fill="url(#b)"
         d="M-5.721 335.34a11.132 17.633 6.416 0 1-.06.665 11.132 17.633 6.416 0 1-1.933 7.4l3.123-.464z"
         opacity=".25"
         id="path14" />
      <g
         fill="#f8f8f2"
         transform="matrix(.92652 -.14304 .15257 .9883 -134.56 84.683)"
         id="g16">
        <rect
           width="1.058"
           height="4.762"
           x="88.106"
           y="265.779"
           rx="0"
           ry="0"
           id="rect15" />
        <rect
           width="1.058"
           height="4.762"
           x="91.281"
           y="265.779"
           rx="0"
           ry="0"
           id="rect16" />
        <path
           d="M88.106 265.78h1.059l3.175 4.762h-1.06z"
           id="path16" />
      </g>
    </g>
  </g>
</svg>
