<?xml version="1.0" encoding="UTF-8" standalone="no"?>
<svg
   width="64"
   height="64"
   version="1.1"
   viewBox="0 0 16.933 16.933"
   id="svg16"
   sodipodi:docname="ms-outlook.svg"
   inkscape:version="1.2.2 (b0a8486541, 2022-12-01)"
   xmlns:inkscape="http://www.inkscape.org/namespaces/inkscape"
   xmlns:sodipodi="http://sodipodi.sourceforge.net/DTD/sodipodi-0.dtd"
   xmlns="http://www.w3.org/2000/svg"
   xmlns:svg="http://www.w3.org/2000/svg">
  <defs
     id="defs20" />
  <sodipodi:namedview
     id="namedview18"
     pagecolor="#505050"
     bordercolor="#eeeeee"
     borderopacity="1"
     inkscape:showpageshadow="0"
     inkscape:pageopacity="0"
     inkscape:pagecheckerboard="0"
     inkscape:deskcolor="#505050"
     showgrid="false"
     inkscape:zoom="15.921875"
     inkscape:cx="29.895976"
     inkscape:cy="32.031403"
     inkscape:window-width="2560"
     inkscape:window-height="1361"
     inkscape:window-x="0"
     inkscape:window-y="0"
     inkscape:window-maximized="1"
     inkscape:current-layer="svg16" />
  <circle
     cx="8.4665"
     cy="8.4665"
     r="7.1436"
     fill="#0d68ab"
     style="paint-order:stroke fill markers;fill:#168daa"
     id="circle2" />
  <g
     transform="matrix(.84062 0 0 .84062 1.9617 1.799)"
     stroke-width=".80046"
     id="g10">
    <rect
       transform="rotate(4.372)"
       x="8.7568"
       y="2.2037"
       width="5.5064"
       height="9.7424"
       rx=".42344"
       ry=".42344"
       fill="#0c578c"
       style="paint-order:markers stroke fill;fill:#515d85"
       id="rect4" />
    <rect
       transform="rotate(4.372)"
       x="9.1802"
       y="2.6272"
       width="4.6595"
       height="8.8947"
       rx="0"
       ry="0"
       fill="#f8f8f2"
       style="paint-order:markers stroke fill"
       id="rect6" />
    <path
       d="m12.965 3.6261-1.8172 4.3214 1.1391 4.5474 0.42301 0.03234-1.1391-4.5474 1.8172-4.3214z"
       fill="#0c578c"
       style="paint-order:markers stroke fill;fill:#515d85"
       id="path8" />
  </g>
  <path
     d="m8.4665 1.3229a7.1436 7.1436 0 0 0-7.1436 7.1436 7.1436 7.1436 0 0 0 7.1436 7.1436 7.1436 7.1436 0 0 0 3.4049-0.87176l-2.5269-13.355a7.1436 7.1436 0 0 0-0.87797-0.06046z"
     fill="#1e84d0"
     stroke-width=".72129"
     style="paint-order:markers stroke fill;fill:#13b1d5"
     id="path12" />
  <path
     d="m6.6048 6.9685c-0.33043 0.054756-0.61837 0.23602-0.7562 0.52868-0.13878 0.29266-0.24452 0.68917-0.16616 1.164 0.078358 0.47392 0.27378 0.81946 0.49847 1.0517 0.22469 0.2313 0.5891 0.30588 0.91858 0.25112 0.33137-0.054756 0.66463-0.24452 0.80246-0.53623 0.13878-0.29266 0.21714-0.68257 0.13878-1.1565a1.9429 1.9429 0 0 0-0.5098-1.0517c-0.22469-0.23224-0.59477-0.30588-0.92614-0.25112zm-0.13972-0.84306c0.67407-0.1114 1.2367 0.00944 1.6861 0.36064 0.45032 0.35214 0.73638 0.89404 0.85722 1.6257 0.12084 0.72882 0.02455 1.333-0.28889 1.8117-0.31343 0.4777-0.80624 0.7732-1.4803 0.8846-0.67218 0.11046-1.2339-0.0094-1.6871-0.36158-0.45032-0.3512-0.73638-0.89215-0.85627-1.6219-0.12084-0.73166-0.024546-1.3368 0.28889-1.8145 0.31438-0.47865 0.80813-0.77414 1.4803-0.8846z"
     fill="#f8f8f2"
     font-size="6.406"
     font-weight="700"
     letter-spacing="0"
     stroke-width=".15105"
     word-spacing="0"
     aria-label="O"
     id="path14" />
</svg>
