<?xml version="1.0" encoding="UTF-8" standalone="no"?>
<svg
   width="64"
   height="64"
   version="1.1"
   viewBox="0 0 16.933 16.933"
   id="svg10"
   sodipodi:docname="ms-office.svg"
   inkscape:version="1.2.2 (b0a8486541, 2022-12-01)"
   xmlns:inkscape="http://www.inkscape.org/namespaces/inkscape"
   xmlns:sodipodi="http://sodipodi.sourceforge.net/DTD/sodipodi-0.dtd"
   xmlns="http://www.w3.org/2000/svg"
   xmlns:svg="http://www.w3.org/2000/svg">
  <defs
     id="defs14" />
  <sodipodi:namedview
     id="namedview12"
     pagecolor="#505050"
     bordercolor="#eeeeee"
     borderopacity="1"
     inkscape:showpageshadow="0"
     inkscape:pageopacity="0"
     inkscape:pagecheckerboard="0"
     inkscape:deskcolor="#505050"
     showgrid="false"
     inkscape:zoom="15.921875"
     inkscape:cx="29.895976"
     inkscape:cy="32.031403"
     inkscape:window-width="2560"
     inkscape:window-height="1361"
     inkscape:window-x="0"
     inkscape:window-y="0"
     inkscape:window-maximized="1"
     inkscape:current-layer="svg10" />
  <g
     transform="translate(0 -280.07)"
     id="g8">
    <g
       transform="matrix(1.0385 0 0 1.0385 -.32619 -11.098)"
       stroke-width=".92729"
       id="g4">
      <circle
         cx="8.467"
         cy="288.53"
         r="6.879"
         fill="#e03f1a"
         style="paint-order:stroke markers fill;fill:#c7484a"
         id="circle2" />
    </g>
    <path
       d="M7.244 291.973c-1.24-.436-2.26-.797-2.264-.802-.005-.005-.006-.012-.003-.015.004-.003 1.025.114 2.27.26 1.717.202 2.059.263 2.066.25.014-.02.014-5.937 0-5.958-.015-.023-2.92.656-2.946.688-.013.018-.017.445-.017 2.031 0 1.592-.004 2.012-.017 2.022-.026.02-1.43.673-1.45.673-.014 0-.016-.518-.014-2.57l.004-2.57 1.772-.64 2.329-.841.556-.201 1.25.391c.688.216 1.258.396 1.268.402.014.008.017.717.017 3.468 0 3.278-.001 3.457-.024 3.469-.042.022-2.483.737-2.513.737-.016 0-1.044-.358-2.284-.794z"
       fill="#f8f8f2"
       id="path6" />
  </g>
</svg>
