<?xml version="1.0" encoding="UTF-8" standalone="no"?>
<svg
   width="64"
   height="64"
   viewBox="0 0 16.933 16.933"
   version="1.1"
   id="svg8"
   sodipodi:docname="ms-powerpoint.svg"
   inkscape:version="1.3.2 (091e20ef0f, 2023-11-25, custom)"
   xmlns:inkscape="http://www.inkscape.org/namespaces/inkscape"
   xmlns:sodipodi="http://sodipodi.sourceforge.net/DTD/sodipodi-0.dtd"
   xmlns:xlink="http://www.w3.org/1999/xlink"
   xmlns="http://www.w3.org/2000/svg"
   xmlns:svg="http://www.w3.org/2000/svg">
  <sodipodi:namedview
     id="namedview8"
     pagecolor="#f8f8f2"
     bordercolor="#282a36"
     borderopacity="0.25"
     inkscape:showpageshadow="2"
     inkscape:pageopacity="0.0"
     inkscape:pagecheckerboard="0"
     inkscape:deskcolor="#d1d1d1"
     inkscape:zoom="12.875"
     inkscape:cx="31.961165"
     inkscape:cy="32"
     inkscape:window-width="1920"
     inkscape:window-height="1040"
     inkscape:window-x="0"
     inkscape:window-y="0"
     inkscape:window-maximized="1"
     inkscape:current-layer="g5" />
  <defs
     id="defs2">
    <linearGradient
       xlink:href="#a"
       id="b"
       x1="41.088"
       x2="41.088"
       y1="56.971"
       y2="26.486"
       gradientTransform="translate(31.7 289.992) scale(.26458)"
       gradientUnits="userSpaceOnUse" />
    <linearGradient
       id="a">
      <stop
         offset="0"
         id="stop1" />
      <stop
         offset="1"
         stop-opacity="0"
         id="stop2" />
    </linearGradient>
  </defs>
  <g
     paint-order="markers stroke fill"
     id="g7">
    <g
       transform="translate(-31.694 -289.992)"
       id="g6">
      <g
         transform="rotate(4.363 -101.83 -5.11)"
         id="g5">
        <rect
           width="6.879"
           height="12.171"
           x="62.442"
           y="279.802"
           fill="#bc492d"
           rx=".529"
           ry=".529"
           id="rect2"
           style="fill:#c7484a" />
        <rect
           width="5.821"
           height="11.112"
           x="62.971"
           y="280.331"
           fill="#f8f8f2"
           rx="0"
           ry="0"
           id="rect3" />
        <rect
           width="4.233"
           height=".794"
           x="63.765"
           y="289.327"
           fill="#bc492d"
           rx="0"
           ry="0"
           id="rect4"
           style="fill:#c7484a" />
        <path
           fill="#bc492d"
           d="M66.146 281.654v2.117h2.117a2.117 2.117 0 0 0-2.117-2.117z"
           id="path4"
           style="fill:#c7484a" />
        <path
           fill="#bc492d"
           d="M65.881 281.919a2.117 2.117 0 0 0-2.116 2.116 2.117 2.117 0 0 0 2.116 2.117 2.117 2.117 0 0 0 2.117-2.117H65.88z"
           id="path5"
           style="fill:#c7484a" />
        <rect
           width="4.233"
           height=".794"
           x="63.765"
           y="287.475"
           fill="#bc492d"
           rx="0"
           ry="0"
           id="rect5"
           style="fill:#c7484a" />
      </g>
      <rect
         width="8.996"
         height="13.758"
         x="-10.166"
         y="294.021"
         fill="#d5583a"
         rx="0"
         ry="0"
         transform="rotate(-8.462)"
         id="rect6"
         style="fill:#c7484a" />
    </g>
    <path
       fill="url(#b)"
       d="M43.003 297a11.132 17.633 6.416 0 1-.06.665 11.132 17.633 6.416 0 1-1.933 7.4l3.124-.464z"
       opacity=".25"
       transform="translate(-31.694 -289.992)"
       id="path6" />
  </g>
  <g
     style="line-height:1.25;-inkscape-font-specification:&quot;sans-serif Bold&quot;"
     id="g8">
    <path
       fill="#f8f8f2"
       d="m4.98 6.284 1.943-.299c.577-.089 1.041-.045 1.39.175.351.217.564.592.64 1.084.076.494-.026.866-.295 1.18-.267.313-.694.48-1.272.57L6.5 9.13l.262 1.699-1.055.162zm1.179.642.214 1.39.763-.118c.227-.034.546-.135.662-.276.125-.158.189-.287.15-.523-.034-.21-.089-.381-.262-.504-.192-.133-.484-.13-.764-.086z"
       aria-label="P"
       font-family="sans-serif"
       font-size="6.533"
       font-weight="700"
       letter-spacing="0"
       style="-inkscape-font-specification:&quot;sans-serif Bold&quot;"
       word-spacing="0"
       id="path7" />
  </g>
</svg>
