<?xml version="1.0" encoding="UTF-8" standalone="no"?>
<svg
   width="64"
   height="64"
   version="1.1"
   viewBox="0 0 16.933 16.933"
   id="svg36"
   sodipodi:docname="ms-word.svg"
   inkscape:version="1.2.2 (b0a8486541, 2022-12-01)"
   xmlns:inkscape="http://www.inkscape.org/namespaces/inkscape"
   xmlns:sodipodi="http://sodipodi.sourceforge.net/DTD/sodipodi-0.dtd"
   xmlns="http://www.w3.org/2000/svg"
   xmlns:svg="http://www.w3.org/2000/svg">
  <defs
     id="defs40" />
  <sodipodi:namedview
     id="namedview38"
     pagecolor="#505050"
     bordercolor="#eeeeee"
     borderopacity="1"
     inkscape:showpageshadow="0"
     inkscape:pageopacity="0"
     inkscape:pagecheckerboard="0"
     inkscape:deskcolor="#505050"
     showgrid="false"
     inkscape:zoom="15.921875"
     inkscape:cx="29.895976"
     inkscape:cy="32.031403"
     inkscape:window-width="2560"
     inkscape:window-height="1361"
     inkscape:window-x="0"
     inkscape:window-y="0"
     inkscape:window-maximized="1"
     inkscape:current-layer="svg36" />
  <circle
     cx="8.4665"
     cy="8.4665"
     r="7.1436"
     fill="#355687"
     style="paint-order:stroke fill markers;fill:#515d85"
     id="circle2" />
  <g
     transform="matrix(.67056 .051656 -.051656 .67056 19.952 -185.49)"
     style="paint-order:markers stroke fill"
     id="g22">
    <rect
       x="5.821"
       y="282.45"
       width="6.879"
       height="12.171"
       rx=".504"
       ry=".575"
       fill="#274069"
       id="rect4"
       style="fill:#282a36;opacity:0.5" />
    <rect
       x="6.35"
       y="282.98"
       width="5.821"
       height="11.113"
       rx="0"
       ry="0"
       fill="#f8f8f2"
       id="rect6" />
    <g
       fill="#355687"
       id="g20"
       style="fill:#515d85;opacity:1">
      <rect
         x="6.615"
         y="284.3"
         width="4.762"
         height=".529"
         rx="0"
         ry="0"
         id="rect8"
         style="fill:#515d85" />
      <rect
         x="6.615"
         y="285.89"
         width="4.762"
         height=".529"
         rx="0"
         ry="0"
         id="rect10"
         style="fill:#515d85" />
      <rect
         x="6.615"
         y="287.48"
         width="4.762"
         height=".529"
         rx="0"
         ry="0"
         id="rect12"
         style="fill:#515d85" />
      <rect
         x="6.615"
         y="289.06"
         width="4.762"
         height=".529"
         rx="0"
         ry="0"
         id="rect14"
         style="fill:#515d85" />
      <rect
         x="6.615"
         y="290.65"
         width="4.762"
         height=".529"
         rx="0"
         ry="0"
         id="rect16"
         style="fill:#515d85" />
      <rect
         x="6.615"
         y="292.24"
         width="4.762"
         height=".529"
         rx="0"
         ry="0"
         id="rect18"
         style="fill:#515d85" />
    </g>
  </g>
  <path
     d="m8.4665 1.3229a7.1436 7.1436 0 0 0-7.1436 7.1436 7.1436 7.1436 0 0 0 7.1436 7.1436 7.1436 7.1436 0 0 0 3.4049-0.87176l-2.5269-13.355a7.1436 7.1436 0 0 0-0.87797-0.06046z"
     fill="#4169a5"
     stroke-width=".72129"
     style="paint-order:markers stroke fill;fill:#6272a4"
     id="path24" />
  <g
     transform="matrix(.87368 0 0 .87368 .23667 -243.53)"
     fill="#f8f8f2"
     style="paint-order:markers stroke fill"
     id="g34">
    <path
       d="m3.48 286.64 1.047-0.156 2.01 4.516-1.047 0.156z"
       id="path26" />
    <path
       d="m7.144 286.1-1.046 0.156-0.608 4.905 1.047-0.156z"
       id="path28" />
    <path
       d="m6.098 286.26 1.046-0.156 2.01 4.516-1.047 0.156z"
       id="path30" />
    <path
       d="m9.761 285.71-1.046 0.157-0.608 4.905 1.047-0.156z"
       id="path32" />
  </g>
</svg>
