<?xml version="1.0" encoding="UTF-8" standalone="no"?>
<svg
   width="64"
   height="64"
   version="1.1"
   viewBox="0 0 64 64"
   id="svg12"
   sodipodi:docname="musescore.svg"
   inkscape:version="1.2.2 (b0a8486541, 2022-12-01)"
   xmlns:inkscape="http://www.inkscape.org/namespaces/inkscape"
   xmlns:sodipodi="http://sodipodi.sourceforge.net/DTD/sodipodi-0.dtd"
   xmlns="http://www.w3.org/2000/svg"
   xmlns:svg="http://www.w3.org/2000/svg">
  <defs
     id="defs16" />
  <sodipodi:namedview
     id="namedview14"
     pagecolor="#505050"
     bordercolor="#eeeeee"
     borderopacity="1"
     inkscape:showpageshadow="0"
     inkscape:pageopacity="0"
     inkscape:pagecheckerboard="0"
     inkscape:deskcolor="#505050"
     showgrid="false"
     inkscape:zoom="15.921875"
     inkscape:cx="29.895976"
     inkscape:cy="32.031403"
     inkscape:window-width="2560"
     inkscape:window-height="1361"
     inkscape:window-x="0"
     inkscape:window-y="0"
     inkscape:window-maximized="1"
     inkscape:current-layer="svg12" />
  <g
     transform="matrix(1.0026 0 0 1.0026 -.084787 -.084787)"
     id="g10">
    <circle
       cx="32"
       cy="32"
       r="26.929"
       fill="#207ab7"
       fill-opacity=".99608"
       stroke-width="1.0016"
       id="circle2"
       style="fill:#6272a4" />
    <circle
       cx="42.5"
       cy="23"
       r="1.25"
       fill="#f8f8f2"
       id="circle4" />
    <path
       d="m48.5 28v9.5m-12-5v5m-10-5v10.293m-10-10.293v10.293m9.983-10.293a4.983 4.983 0 0 0-2.4915-4.3154 4.983 4.983 0 0 0-4.983 0 4.983 4.983 0 0 0-2.4915 4.3154m19.966 0a4.983 4.983 0 0 0-2.4915-4.3154 4.983 4.983 0 0 0-4.983 0 4.983 4.983 0 0 0-2.4915 4.3154m21.966 4.7943a5.983 5.983 0 0 1-2.9915 5.1814 5.983 5.983 0 0 1-5.983 0 5.983 5.983 0 0 1-2.9915-5.1814"
       fill="none"
       stroke="#f8f8f2"
       stroke-linecap="round"
       stroke-width="2.5"
       id="path6" />
    <path
       transform="scale(1,-1)"
       d="m48.483-23a5.983 5.983 0 0 1-2.9915 5.1814 5.983 5.983 0 0 1-5.983 0 5.983 5.983 0 0 1-2.9915-5.1814"
       fill="none"
       stroke="#f8f8f2"
       stroke-linecap="round"
       stroke-width="2.5"
       id="path8" />
  </g>
</svg>
