<?xml version="1.0" encoding="UTF-8" standalone="no"?>
<svg
   width="64"
   height="64"
   version="1.1"
   id="svg6"
   sodipodi:docname="mutt.svg"
   inkscape:version="1.2.2 (b0a8486541, 2022-12-01)"
   xmlns:inkscape="http://www.inkscape.org/namespaces/inkscape"
   xmlns:sodipodi="http://sodipodi.sourceforge.net/DTD/sodipodi-0.dtd"
   xmlns="http://www.w3.org/2000/svg"
   xmlns:svg="http://www.w3.org/2000/svg">
  <defs
     id="defs10" />
  <sodipodi:namedview
     id="namedview8"
     pagecolor="#505050"
     bordercolor="#eeeeee"
     borderopacity="1"
     inkscape:showpageshadow="0"
     inkscape:pageopacity="0"
     inkscape:pagecheckerboard="0"
     inkscape:deskcolor="#505050"
     showgrid="false"
     inkscape:zoom="15.921875"
     inkscape:cx="29.895976"
     inkscape:cy="32.031403"
     inkscape:window-width="2560"
     inkscape:window-height="1361"
     inkscape:window-x="0"
     inkscape:window-y="0"
     inkscape:window-maximized="1"
     inkscape:current-layer="svg6" />
  <rect
     width="54"
     height="54"
     x="5"
     y="5"
     fill="#454545"
     rx="27"
     ry="27"
     style="paint-order:fill markers stroke;fill:#44475a"
     id="rect2" />
  <path
     fill="#e9eb89"
     d="m21.652 17.391-5.478 5.478L18 24.695l3.652-3.652 3.652 3.652 1.826-1.826zm20.696 0-5.478 5.478 1.826 1.826 3.652-3.652L46 24.695l1.826-1.826zm-17.652 9.74a2.435 2.435 0 0 0-2.435 2.434A2.435 2.435 0 0 0 24.696 32a2.435 2.435 0 0 0 2.435-2.435 2.435 2.435 0 0 0-2.435-2.435zm14.609 0a2.435 2.435 0 0 0-2.435 2.434A2.435 2.435 0 0 0 39.305 32a2.435 2.435 0 0 0 2.435-2.435 2.435 2.435 0 0 0-2.435-2.435zm-14.609 7.303s-2.435 2.435-2.435 6.087 2.435 6.087 2.435 6.087h2.435s-2.435-2.434-2.435-6.087 2.435-6.087 2.435-6.087zm4.87 0v2.435H32v6.087a1.218 1.218 0 0 1-2.434 0H27.13a3.652 3.652 0 1 0 7.304 0V36.87h1.218v-2.435zm7.304 0s2.435 2.435 2.435 6.087-2.435 6.087-2.435 6.087h2.435s2.434-2.434 2.434-6.087-2.434-6.087-2.434-6.087z"
     id="path4"
     style="fill:#f1fa8c" />
</svg>
