<?xml version="1.0" encoding="UTF-8" standalone="no"?>
<svg
   width="64"
   height="64"
   version="1.1"
   id="svg7"
   sodipodi:docname="neovim.svg"
   inkscape:version="1.3.2 (091e20ef0f, 2023-11-25, custom)"
   xmlns:inkscape="http://www.inkscape.org/namespaces/inkscape"
   xmlns:sodipodi="http://sodipodi.sourceforge.net/DTD/sodipodi-0.dtd"
   xmlns="http://www.w3.org/2000/svg"
   xmlns:svg="http://www.w3.org/2000/svg">
  <defs
     id="defs7" />
  <sodipodi:namedview
     id="namedview7"
     pagecolor="#505050"
     bordercolor="#ffffff"
     borderopacity="1"
     inkscape:showpageshadow="0"
     inkscape:pageopacity="0"
     inkscape:pagecheckerboard="1"
     inkscape:deskcolor="#505050"
     inkscape:zoom="12.453125"
     inkscape:cx="32"
     inkscape:cy="32"
     inkscape:window-width="1920"
     inkscape:window-height="1013"
     inkscape:window-x="0"
     inkscape:window-y="0"
     inkscape:window-maximized="1"
     inkscape:current-layer="g7" />
  <g
     stroke-width=".852"
     id="g7">
    <path
       fill="#cbcccc"
       d="M32 5c14.912 0 27 12.087 27 26.999s-12.088 27-27 27-27-12.088-27-27 12.088-27 27-27z"
       id="path1" />
    <path
       fill="#f8f8f2"
       d="M32 9c12.702 0 23 10.296 23 23 0 12.702-10.297 23-23 23S9 44.703 9 32 19.295 9 32 9z"
       id="path2" />
    <path
       fill="#6ba63f"
       d="m44.913 22.608-7.044-5.87V47.26l7.044-5.87z"
       id="path3" />
    <path
       fill="#42afe6"
       d="m19.087 22.608 7.043-5.87V47.26l-7.043-5.87z"
       id="path4" />
    <path
       fill="#96ca6b"
       d="M26.13 16.738c-1.43 4.09-1.158 8.276 0 12.521l11.74 18c.752-4.107 1.618-8.213 0-12.32z"
       id="path5" />
    <path
       fill="#569e41"
       d="M37.87 34.938V47.26l5.282-4.402z"
       id="path6" />
    <path
       fill="#70be63"
       d="m26.13 16.738-5.292 4.41 5.292 8.111z"
       id="path7" />
  </g>
</svg>
