<?xml version="1.0" encoding="UTF-8" standalone="no"?>
<svg
   width="64"
   height="64"
   viewBox="0 0 16.933 16.933"
   version="1.1"
   id="svg14"
   sodipodi:docname="notesnook.svg"
   inkscape:version="1.2.2 (b0a8486541, 2022-12-01)"
   xmlns:inkscape="http://www.inkscape.org/namespaces/inkscape"
   xmlns:sodipodi="http://sodipodi.sourceforge.net/DTD/sodipodi-0.dtd"
   xmlns="http://www.w3.org/2000/svg"
   xmlns:svg="http://www.w3.org/2000/svg">
  <defs
     id="defs18" />
  <sodipodi:namedview
     id="namedview16"
     pagecolor="#505050"
     bordercolor="#eeeeee"
     borderopacity="1"
     inkscape:showpageshadow="0"
     inkscape:pageopacity="0"
     inkscape:pagecheckerboard="0"
     inkscape:deskcolor="#505050"
     showgrid="false"
     inkscape:zoom="15.921875"
     inkscape:cx="29.895976"
     inkscape:cy="32.031403"
     inkscape:window-width="2560"
     inkscape:window-height="1361"
     inkscape:window-x="0"
     inkscape:window-y="0"
     inkscape:window-maximized="1"
     inkscape:current-layer="svg14" />
  <circle
     cx="8.466"
     cy="8.466"
     r="7.144"
     fill="#f8f8f2"
     style="paint-order:stroke markers fill"
     id="circle2" />
  <path
     d="M8.483 3.403h.082v6.405h-.082z"
     id="path4"
     style="fill:#1e1f29" />
  <path
     d="m8.522 9.75.03.058-4.653 2.29-.03-.056z"
     id="path6"
     style="fill:#1e1f29" />
  <path
     d="m8.554 9.756-.03.057 4.653 2.291.03-.057z"
     id="path8"
     style="fill:#1e1f29" />
  <path
     d="m4.69 7.43.968-.448 1.223 1.794V6.417l.822-.38v3.439l-.969.447L5.512 8.13v2.359l-.822.38z"
     aria-label="N"
     id="path10"
     style="fill:#1e1f29" />
  <path
     fill="#9ea0a6"
     d="m9.447 8.64 3.77 1.747a.365.365 0 1 1-.308.664L9.14 9.304a.365.365 0 1 1 .309-.664zm.033-1.463 3.769 1.748a.365.365 0 1 1-.308.664L9.17 7.84a.365.365 0 1 1 .308-.664zm.005-1.447 3.77 1.747a.365.365 0 1 1-.309.664L9.177 6.394a.365.365 0 1 1 .308-.665z"
     id="path12" />
</svg>
