<?xml version="1.0" encoding="UTF-8" standalone="no"?>
<svg
   width="64"
   height="64"
   viewBox="0 0 16.933 16.933"
   version="1.1"
   id="svg4"
   sodipodi:docname="nylas.svg"
   inkscape:version="1.3.2 (091e20ef0f, 2023-11-25, custom)"
   xmlns:inkscape="http://www.inkscape.org/namespaces/inkscape"
   xmlns:sodipodi="http://sodipodi.sourceforge.net/DTD/sodipodi-0.dtd"
   xmlns="http://www.w3.org/2000/svg"
   xmlns:svg="http://www.w3.org/2000/svg">
  <defs
     id="defs4" />
  <sodipodi:namedview
     id="namedview4"
     pagecolor="#505050"
     bordercolor="#ffffff"
     borderopacity="1"
     inkscape:showpageshadow="0"
     inkscape:pageopacity="0"
     inkscape:pagecheckerboard="1"
     inkscape:deskcolor="#505050"
     inkscape:zoom="12.453125"
     inkscape:cx="32"
     inkscape:cy="32"
     inkscape:window-width="1920"
     inkscape:window-height="1013"
     inkscape:window-x="0"
     inkscape:window-y="0"
     inkscape:window-maximized="1"
     inkscape:current-layer="g4" />
  <g
     transform="translate(0 -280.067)"
     id="g4">
    <path
       fill="#2f8dac"
       d="M2.381 284.83h12.171c.44 0 .794.353.794.793v8.467c0 .44-.354.793-.794.793H2.382a.792.792 0 0 1-.795-.793v-8.467c0-.44.355-.794.794-.794z"
       paint-order="markers stroke fill"
       id="path1"
       style="fill:#3f4a69;fill-opacity:1" />
    <rect
       width="11.642"
       height="8.996"
       x="2.646"
       y="282.183"
       fill="#f8f8f2"
       stroke="#282a36"
       stroke-opacity=".059"
       stroke-width=".265"
       paint-order="markers stroke fill"
       ry=".794"
       id="rect1" />
    <path
       fill="#26a4ca"
       d="M15.181 285.143a.788.788 0 0 1 .165.48v8.467c0 .44-.354.793-.794.793H2.382a.788.788 0 0 1-.531-.206z"
       paint-order="markers stroke fill"
       id="path2"
       style="fill:#515d85" />
    <path
       fill="#49bde3"
       d="M1.752 285.143a.788.788 0 0 0-.165.48v8.467c0 .44.355.793.794.793h12.171a.79.79 0 0 0 .53-.206z"
       paint-order="markers stroke fill"
       id="path3"
       style="fill:#6272a4" />
    <path
       fill="#f8f8f2"
       d="M2.739 289.37c-.197 0-.358.147-.358.33v.383l2.32 1.339v-.982l-1.778-1.023a.381.381 0 0 0-.184-.048m2.35 0v.982l2.32 1.338v-.981m-5.028-.313v.982l2.32 1.339v-.982zm2.707.268v.982l2.32 1.338v-.981zm-2.707 1.026v.982l2.32 1.339v-.982m.387-1.07v.98l1.779 1.024a.377.377 0 0 0 .184.048c.197 0 .357-.148.357-.33v-.384"
       id="path4" />
  </g>
</svg>
