<?xml version="1.0" encoding="UTF-8" standalone="no"?>
<svg
   width="64"
   height="64"
   version="1.1"
   viewBox="0 0 16.934 16.934"
   id="svg6"
   sodipodi:docname="obs.svg"
   inkscape:version="1.2.2 (b0a8486541, 2022-12-01)"
   xmlns:inkscape="http://www.inkscape.org/namespaces/inkscape"
   xmlns:sodipodi="http://sodipodi.sourceforge.net/DTD/sodipodi-0.dtd"
   xmlns="http://www.w3.org/2000/svg"
   xmlns:svg="http://www.w3.org/2000/svg">
  <defs
     id="defs10" />
  <sodipodi:namedview
     id="namedview8"
     pagecolor="#505050"
     bordercolor="#eeeeee"
     borderopacity="1"
     inkscape:showpageshadow="0"
     inkscape:pageopacity="0"
     inkscape:pagecheckerboard="0"
     inkscape:deskcolor="#505050"
     showgrid="false"
     inkscape:zoom="15.921875"
     inkscape:cx="29.895976"
     inkscape:cy="32.031403"
     inkscape:window-width="2560"
     inkscape:window-height="1361"
     inkscape:window-x="0"
     inkscape:window-y="0"
     inkscape:window-maximized="1"
     inkscape:current-layer="svg6" />
  <circle
     cx="8.467"
     cy="8.467"
     r="7.144"
     fill="#282a36"
     stroke-width=".26459"
     style="paint-order:markers stroke fill;fill:#44475a"
     id="circle2" />
  <path
     d="m7.2421 3.4925c-0.87673 0.46266-1.6104 1.3278-1.6315 2.3576-0.016807 0.53447 0.094732 1.098 0.35601 1.5585 0.91676 0.015585 1.8607 0.53906 2.1822 1.4308 0.47091 1.1787-0.083426 2.7433-1.3226 3.1775-0.63562 0.22889-1.3424 0.12682-1.9567-0.11979 0.83976 0.52867 1.9579 0.73097 2.8603 0.23225 0.47244-0.25028 0.88834-0.6289 1.1716-1.0775-0.44585-0.8037-0.46358-1.8818 0.14729-2.6076 0.78292-0.99805 2.4141-1.3055 3.411-0.45013 0.51614 0.43546 0.78078 1.0986 0.87429 1.7535 0.037588-0.99072-0.3447-2.0591-1.2254-2.5917-0.45288-0.28878-0.98766-0.44708-1.5185-0.48375-0.47336 0.78811-1.3981 1.3431-2.3322 1.1777-1.2551-0.17724-2.3384-1.4341-2.096-2.7246 0.11857-0.66496 0.56137-1.2254 1.0812-1.6331z"
     fill="#f8f8f2"
     fill-rule="evenodd"
     id="path4" />
</svg>
