<?xml version="1.0" encoding="UTF-8" standalone="no"?>
<svg
   width="64"
   height="64"
   version="1.1"
   viewBox="0 0 16.933 16.933"
   id="svg14"
   sodipodi:docname="onboard.svg"
   inkscape:version="1.2.2 (b0a8486541, 2022-12-01)"
   xmlns:inkscape="http://www.inkscape.org/namespaces/inkscape"
   xmlns:sodipodi="http://sodipodi.sourceforge.net/DTD/sodipodi-0.dtd"
   xmlns="http://www.w3.org/2000/svg"
   xmlns:svg="http://www.w3.org/2000/svg">
  <defs
     id="defs18" />
  <sodipodi:namedview
     id="namedview16"
     pagecolor="#505050"
     bordercolor="#eeeeee"
     borderopacity="1"
     inkscape:showpageshadow="0"
     inkscape:pageopacity="0"
     inkscape:pagecheckerboard="0"
     inkscape:deskcolor="#505050"
     showgrid="false"
     inkscape:zoom="15.921875"
     inkscape:cx="29.895976"
     inkscape:cy="32.031403"
     inkscape:window-width="2560"
     inkscape:window-height="1361"
     inkscape:window-x="0"
     inkscape:window-y="0"
     inkscape:window-maximized="1"
     inkscape:current-layer="svg14" />
  <circle
     cx="8.4665"
     cy="8.4665"
     r="7.1436"
     fill="#f8f8f2"
     style="paint-order:stroke fill markers;fill:#f8f8f2"
     id="circle2" />
  <g
     transform="matrix(1.0833 0 0 1.0833 1.3005 -302.69)"
     fill="#cbcccc"
     stroke-width=".265"
     aria-label="O"
     id="g6"
     style="fill:#cbcccc">
    <path
       d="m6.6147 290.39c1.5373 0 2.6151-1.2282 2.6151-3.1916s-1.0778-3.1582-2.6151-3.1582-2.6151 1.1948-2.6151 3.1582 1.0778 3.1916 2.6151 3.1916zm0-0.67675c-1.1029 0-1.8214-0.98589-1.8214-2.5149 0-1.5373 0.71853-2.4814 1.8214-2.4814 1.0945 0 1.8214 0.94411 1.8214 2.4814 0 1.529-0.72688 2.5149-1.8214 2.5149z"
       id="path4"
       style="fill:#cbcccc" />
  </g>
  <circle
     cx="11.641"
     cy="11.906"
     r="4.2333"
     fill="#5596ff"
     style="paint-order:stroke fill markers;fill:#6272a4"
     id="circle8" />
  <g
     transform="matrix(.77765 0 0 .77765 3.5464 -214.33)"
     fill="#f8f8f2"
     stroke-width=".265"
     aria-label="B"
     id="g12"
     style="fill:#f8f8f2">
    <path
       d="m8.7085 293.98h1.9551c1.3702 0 2.3227-0.59321 2.3227-1.7963 0-0.8355-0.51801-1.3201-1.2532-1.4621v-0.0418c0.5765-0.18381 0.90234-0.71853 0.90234-1.3284 0-1.0778-0.86056-1.4955-2.1055-1.4955h-1.8214zm0.77702-3.5175v-1.9968h0.94411c0.95247 0 1.4454 0.26736 1.4454 0.98589 0 0.61827-0.4261 1.011-1.4788 1.011zm0 2.8992v-2.306h1.0694c1.0694 0 1.671 0.34255 1.671 1.1029 0 0.82714-0.61827 1.2031-1.671 1.2031z"
       id="path10"
       style="fill:#f8f8f2" />
  </g>
</svg>
