<?xml version="1.0" encoding="UTF-8" standalone="no"?>
<svg
   width="64"
   height="64"
   version="1.1"
   id="svg8"
   sodipodi:docname="online-account.svg"
   inkscape:version="1.2.2 (b0a8486541, 2022-12-01)"
   xmlns:inkscape="http://www.inkscape.org/namespaces/inkscape"
   xmlns:sodipodi="http://sodipodi.sourceforge.net/DTD/sodipodi-0.dtd"
   xmlns="http://www.w3.org/2000/svg"
   xmlns:svg="http://www.w3.org/2000/svg">
  <defs
     id="defs12" />
  <sodipodi:namedview
     id="namedview10"
     pagecolor="#505050"
     bordercolor="#eeeeee"
     borderopacity="1"
     inkscape:showpageshadow="0"
     inkscape:pageopacity="0"
     inkscape:pagecheckerboard="0"
     inkscape:deskcolor="#505050"
     showgrid="false"
     inkscape:zoom="15.921875"
     inkscape:cx="29.895976"
     inkscape:cy="32.031403"
     inkscape:window-width="2560"
     inkscape:window-height="1361"
     inkscape:window-x="0"
     inkscape:window-y="0"
     inkscape:window-maximized="1"
     inkscape:current-layer="svg8" />
  <g
     transform="scale(2)"
     id="g6">
    <rect
       x="2.5"
       y="2.5"
       width="27"
       height="27"
       rx="13.5"
       ry="13.5"
       color="#282a36"
       fill="#40b3e9"
       stroke-width=".96429"
       id="rect2"
       style="fill:#13b1d5" />
    <path
       d="m17.466 9.5385c-1.6322 0-3.0457 0.93996-3.7463 2.3042-0.45411-0.29018-0.99168-0.46084-1.5696-0.46084-1.6198 0-2.9329 1.3205-2.9329 2.9494 0 0.25898 0.040729 0.50953 0.1031 0.74886-1.1699 0.79349-1.9362 2.1434-1.9362 3.6752 0 2.451 1.9621 4.4241 4.3993 4.4241h8.4321c2.4372 0 4.3993-1.9732 4.3993-4.4241 0-1.9572-1.2564-3.6073-3.0016-4.1937 0.04736-0.25437 0.06874-0.51522 0.06874-0.78341 0-2.3416-1.8876-4.2398-4.216-4.2398z"
       color="#282a36"
       fill="#f8f8f2"
       id="path4" />
  </g>
</svg>
