<?xml version="1.0" encoding="UTF-8" standalone="no"?>
<svg
   width="64"
   height="64"
   version="1"
   id="svg22"
   sodipodi:docname="openrgb.svg"
   inkscape:version="1.2.2 (b0a8486541, 2022-12-01)"
   xmlns:inkscape="http://www.inkscape.org/namespaces/inkscape"
   xmlns:sodipodi="http://sodipodi.sourceforge.net/DTD/sodipodi-0.dtd"
   xmlns="http://www.w3.org/2000/svg"
   xmlns:svg="http://www.w3.org/2000/svg">
  <defs
     id="defs26" />
  <sodipodi:namedview
     id="namedview24"
     pagecolor="#505050"
     bordercolor="#eeeeee"
     borderopacity="1"
     inkscape:showpageshadow="0"
     inkscape:pageopacity="0"
     inkscape:pagecheckerboard="0"
     inkscape:deskcolor="#505050"
     showgrid="false"
     inkscape:zoom="15.921875"
     inkscape:cx="29.895976"
     inkscape:cy="32.031403"
     inkscape:window-width="2560"
     inkscape:window-height="1361"
     inkscape:window-x="0"
     inkscape:window-y="0"
     inkscape:window-maximized="1"
     inkscape:current-layer="svg22" />
  <circle
     cx="32"
     cy="32"
     r="27"
     fill="#f8f8f2"
     stroke-width=".96429"
     id="circle2" />
  <path
     d="m32 10c-4.6066 0-9.2118 1.7587-12.727 5.2734l8.1019 8.1019a6.5455 6.5455 0 0 1 4.6246-1.9208z"
     fill="#ffc107"
     stroke-width=".81818"
     id="path4"
     style="fill:#ffb86c" />
  <path
     d="m32 10v11.455a6.5455 6.5455 0 0 1 4.6246 1.9208l8.1019-8.1019c-3.5147-3.5147-8.12-5.2734-12.727-5.2734z"
     fill="#53dd22"
     stroke-width=".81818"
     id="path6"
     style="fill:#50fa7b" />
  <path
     d="m27.375 32.625-8.1019 8.1019c3.5147 3.5147 8.12 5.2734 12.727 5.2734v-2h-6.5455l3.8896-10.023c-0.7336-0.32609-1.401-0.78436-1.9688-1.3519z"
     fill="#ab47bc"
     stroke-width=".81818"
     id="path8"
     style="fill:#9576c5" />
  <path
     d="m36.625 32.625c-0.56806 0.56642-1.2354 1.0236-1.9688 1.3487l3.8896 10.027h-6.5455v2c4.6066 0 9.2118-1.7587 12.727-5.2734z"
     fill="#515d85"
     stroke-width=".81818"
     id="path10"
     style="fill:#515d85" />
  <path
     d="m44.727 15.273-8.1019 8.1019a6.5455 6.5455 0 0 1 1.9208 4.6246h11.455c0-4.6066-1.7587-9.2118-5.2734-12.727z"
     fill="#42fffd"
     stroke-width=".81818"
     id="path12"
     style="fill:#8be9fd" />
  <path
     d="m38.545 28a6.5455 6.5455 0 0 1-1.9208 4.6246l8.1019 8.1019c3.5147-3.5147 5.2734-8.12 5.2734-12.727z"
     fill="#039af4"
     stroke-width=".81818"
     id="path14"
     style="fill:#168daa" />
  <path
     d="m19.273 15.273c-3.5147 3.5147-5.2734 8.12-5.2734 12.727h11.455a6.5455 6.5455 0 0 1 1.9208-4.6246z"
     fill="#ff8e13"
     stroke-width=".81818"
     id="path16"
     style="fill:#c7925b" />
  <path
     d="m14 28c0 4.6066 1.7587 9.2118 5.2734 12.727l8.1019-8.1019a6.5455 6.5455 0 0 1-1.9208-4.6246z"
     fill="#fd3b2d"
     stroke-width=".81818"
     id="path18"
     style="fill:#ff5555" />
  <path
     d="m26 43c-0.554 0-1 0.446-1 1s0.446 1 1 1c-0.554 0-1 0.446-1 1s0.446 1 1 1c-0.554 0-1 0.446-1 1s0.446 1 1 1c-0.554 0-1 0.446-1 1s0.446 1 1 1h3v1c0 1.662 1.338 3 3 3s3-1.338 3-3v-1h3c0.554 0 1-0.446 1-1s-0.446-1-1-1c0.554 0 1-0.446 1-1s-0.446-1-1-1c0.554 0 1-0.446 1-1s-0.446-1-1-1c0.554 0 1-0.446 1-1s-0.446-1-1-1h-12z"
     fill="#44475a"
     stroke-width=".35355"
     id="path20" />
</svg>
