<?xml version="1.0" encoding="UTF-8" standalone="no"?>
<svg
   width="64"
   height="64"
   version="1.1"
   id="svg10"
   sodipodi:docname="openbravo-erp.svg"
   inkscape:version="1.2.2 (b0a8486541, 2022-12-01)"
   xmlns:inkscape="http://www.inkscape.org/namespaces/inkscape"
   xmlns:sodipodi="http://sodipodi.sourceforge.net/DTD/sodipodi-0.dtd"
   xmlns="http://www.w3.org/2000/svg"
   xmlns:svg="http://www.w3.org/2000/svg">
  <defs
     id="defs14" />
  <sodipodi:namedview
     id="namedview12"
     pagecolor="#505050"
     bordercolor="#eeeeee"
     borderopacity="1"
     inkscape:showpageshadow="0"
     inkscape:pageopacity="0"
     inkscape:pagecheckerboard="0"
     inkscape:deskcolor="#505050"
     showgrid="false"
     inkscape:zoom="15.921875"
     inkscape:cx="29.895976"
     inkscape:cy="32.031403"
     inkscape:window-width="2560"
     inkscape:window-height="1361"
     inkscape:window-x="0"
     inkscape:window-y="0"
     inkscape:window-maximized="1"
     inkscape:current-layer="svg10" />
  <g
     transform="matrix(1.35 0 0 1.35 -519.58 -675.13)"
     stroke-width=".74074"
     id="g8">
    <g
       transform="matrix(.9967 0 0 .9967 1.3136 1.7097)"
       stroke-width=".74074"
       id="g6">
      <rect
         x="388.54"
         y="503.75"
         width="40.132"
         height="40.132"
         rx="20.066"
         fill="#f8f8f2"
         fill-opacity=".90196"
         stroke-opacity=".55027"
         stroke-width="2.0741"
         id="rect2" />
      <path
         d="m408.68 507.73c-1.7457 0-3.4284 0.28073-5.0031 0.79712v15.213c0 2.7631 2.24 5.0031 5.0031 5.0031s5.0031-2.2399 5.0031-5.0031-2.24-5.0031-5.0031-5.0031v-5.0031c5.5263 0 10.006 4.4799 10.006 10.006 0 5.5263-4.4799 10.006-10.006 10.006-5.5263 0-10.006-4.4799-10.006-10.006v-12.492c-3.6572 2.9341-6.0061 7.4378-6.0061 12.492 0 8.8415 7.1673 16.01 16.01 16.01 8.8415 0 16.01-7.1673 16.01-16.01 0-8.8415-7.1673-16.01-16.01-16.01"
         color="#282a36"
         fill="#1ebc7e"
         id="path4"
         style="fill:#44c367" />
    </g>
  </g>
</svg>
