<?xml version="1.0" encoding="UTF-8" standalone="no"?>
<svg
   width="64"
   height="64"
   image-rendering="optimizeSpeed"
   version="1.1"
   id="svg2"
   sodipodi:docname="opera-beta.svg"
   inkscape:version="1.3.2 (091e20ef0f, 2023-11-25, custom)"
   xmlns:inkscape="http://www.inkscape.org/namespaces/inkscape"
   xmlns:sodipodi="http://sodipodi.sourceforge.net/DTD/sodipodi-0.dtd"
   xmlns="http://www.w3.org/2000/svg"
   xmlns:svg="http://www.w3.org/2000/svg">
  <defs
     id="defs2" />
  <sodipodi:namedview
     id="namedview2"
     pagecolor="#505050"
     bordercolor="#ffffff"
     borderopacity="1"
     inkscape:showpageshadow="0"
     inkscape:pageopacity="0"
     inkscape:pagecheckerboard="1"
     inkscape:deskcolor="#505050"
     inkscape:zoom="13.5"
     inkscape:cx="32.037037"
     inkscape:cy="31.962963"
     inkscape:window-width="1920"
     inkscape:window-height="1013"
     inkscape:window-x="0"
     inkscape:window-y="0"
     inkscape:window-maximized="1"
     inkscape:current-layer="g2" />
  <g
     stroke-width="3.78"
     id="g2">
    <path
       fill="#3ca9e7"
       d="M32.002 4.996C17.089 4.996 5 17.086 5 31.998 5 46.911 17.089 59 32.002 59c14.913 0 27.002-12.089 27.002-27.002 0-14.913-12.089-27.002-27.002-27.002zM32 13c7.732 0 14 8.507 14 19s-6.268 19-14 19-14-8.507-14-19 6.268-19 14-19z"
       style="paint-order:stroke markers fill;fill:#8be9fd"
       id="path1" />
    <path
       fill="#1464a6"
       d="M38.5 10c-5.465 0-10.417 2.309-14.092 6.049C26.596 14.127 29.199 12.999 32 13c7.732 0 14 8.507 14 19s-6.268 19-14 19c-2.8 0-5.404-1.127-7.592-3.049 3.675 3.74 8.627 6.05 14.092 6.049C49.822 54 59 44.15 59 32s-9.178-22-20.5-22zM18.133 29.523c-.01.087-.021.173-.03.26.008-.088.022-.173.03-.26zm-.074.893zM18 32zm.104 2.216c.008.088.02.173.029.26-.008-.087-.022-.172-.03-.26z"
       style="paint-order:stroke markers fill;fill:#13b1d5"
       id="path2" />
  </g>
</svg>
