<?xml version="1.0" encoding="UTF-8" standalone="no"?>
<svg
   width="64"
   height="64"
   version="1.1"
   viewBox="0 0 16.933 16.933"
   id="svg8"
   sodipodi:docname="opera.svg"
   inkscape:version="1.2.2 (b0a8486541, 2022-12-01)"
   xmlns:inkscape="http://www.inkscape.org/namespaces/inkscape"
   xmlns:sodipodi="http://sodipodi.sourceforge.net/DTD/sodipodi-0.dtd"
   xmlns="http://www.w3.org/2000/svg"
   xmlns:svg="http://www.w3.org/2000/svg">
  <defs
     id="defs12" />
  <sodipodi:namedview
     id="namedview10"
     pagecolor="#505050"
     bordercolor="#eeeeee"
     borderopacity="1"
     inkscape:showpageshadow="0"
     inkscape:pageopacity="0"
     inkscape:pagecheckerboard="0"
     inkscape:deskcolor="#505050"
     showgrid="false"
     inkscape:zoom="15.921875"
     inkscape:cx="29.895976"
     inkscape:cy="32.031403"
     inkscape:window-width="2560"
     inkscape:window-height="1361"
     inkscape:window-x="0"
     inkscape:window-y="0"
     inkscape:window-maximized="1"
     inkscape:current-layer="svg8" />
  <g
     stroke-width="3.7796"
     id="g6">
    <path
       transform="scale(.26458)"
       d="m32.002 4.9961c-14.913-2.629e-4 -27.002 12.089-27.002 27.002-2.629e-4 14.913 12.089 27.002 27.002 27.002 14.913 2.63e-4 27.002-12.089 27.002-27.002 2.63e-4 -14.913-12.089-27.002-27.002-27.002zm-0.001953 8.0039c7.732-1.85e-4 14 8.5065 14 19 1.29e-4 10.493-6.268 19-14 19-7.732 1.93e-4 -14-8.5065-14-19-1.35e-4 -10.493 6.268-19 14-19z"
       fill="#ff1b2d"
       style="paint-order:stroke markers fill;fill:#ff5555"
       id="path2" />
    <path
       transform="scale(.26458)"
       d="m38.5 10c-5.4645-1.034e-4 -10.417 2.3086-14.092 6.0488 2.1881-1.922 4.7913-3.0489 7.5918-3.0488 7.732-1.85e-4 14 8.5065 14 19 1.29e-4 10.493-6.268 19-14 19-2.8005 7e-5 -5.4037-1.1268-7.5918-3.0488 3.6748 3.7402 8.6273 6.0489 14.092 6.0488 11.322 2.19e-4 20.5-9.8496 20.5-22 1.93e-4 -12.15-9.1781-22-20.5-22zm-20.367 19.523c-0.009076 0.086922-0.021166 0.17254-0.029296 0.25976 0.007506-0.087562 0.020915-0.17257 0.029296-0.25976zm-0.074218 0.89258c-0.034726 0.52354-0.058603 1.051-0.058594 1.584-7e-6 -0.53456 0.026703-1.0606 0.058594-1.584zm-0.058594 1.584c-9e-6 0.53303 0.023868 1.0604 0.058594 1.584-0.031891-0.52338-0.058601-1.0494-0.058594-1.584zm0.10352 2.2168c0.00813 0.087226 0.02022 0.17284 0.029296 0.25976-0.008381-0.087195-0.02179-0.1722-0.029296-0.25976z"
       fill="#af0e0e"
       style="paint-order:stroke markers fill;fill:#c7484a"
       id="path4" />
  </g>
</svg>
