<?xml version="1.0" encoding="UTF-8" standalone="no"?>
<svg
   width="64"
   height="64"
   version="1.1"
   id="svg24"
   sodipodi:docname="oracle-sqldeveloper.svg"
   inkscape:version="1.2.2 (b0a8486541, 2022-12-01)"
   xmlns:inkscape="http://www.inkscape.org/namespaces/inkscape"
   xmlns:sodipodi="http://sodipodi.sourceforge.net/DTD/sodipodi-0.dtd"
   xmlns="http://www.w3.org/2000/svg"
   xmlns:svg="http://www.w3.org/2000/svg">
  <defs
     id="defs28" />
  <sodipodi:namedview
     id="namedview26"
     pagecolor="#505050"
     bordercolor="#eeeeee"
     borderopacity="1"
     inkscape:showpageshadow="0"
     inkscape:pageopacity="0"
     inkscape:pagecheckerboard="0"
     inkscape:deskcolor="#505050"
     showgrid="false"
     inkscape:zoom="15.921875"
     inkscape:cx="29.895976"
     inkscape:cy="32.031403"
     inkscape:window-width="2560"
     inkscape:window-height="1361"
     inkscape:window-x="0"
     inkscape:window-y="0"
     inkscape:window-maximized="1"
     inkscape:current-layer="svg24" />
  <circle
     cx="32"
     cy="32"
     r="27"
     fill="#f8f8f2"
     style="paint-order:stroke fill markers"
     id="circle2" />
  <g
     transform="translate(12.923 13.538) scale(2.3259)"
     id="g18">
    <path
       fill="#cbcccc"
       d="M1.323 10.319v3.175a6.879 1.587 0 0 0 6.879 1.587 6.879 1.587 0 0 0 6.879-1.587v-3.175z"
       id="path4" />
    <ellipse
       cx="8.202"
       cy="10.319"
       fill="#cbcccc"
       rx="6.879"
       ry="1.587"
       id="ellipse6" />
    <path
       fill="#cbcccc"
       d="M1.323 6.35v3.175a6.879 1.587 0 0 0 6.879 1.587 6.879 1.587 0 0 0 6.879-1.587V6.35z"
       id="path8" />
    <ellipse
       cx="8.202"
       cy="6.35"
       fill="#cbcccc"
       rx="6.879"
       ry="1.587"
       id="ellipse10" />
    <path
       fill="#cbcccc"
       d="M1.323 2.381v3.175a6.88 1.587 0 0 0 6.879 1.588 6.88 1.587 0 0 0 6.88-1.588V2.381z"
       id="path12" />
    <ellipse
       cx="8.202"
       cy="2.381"
       fill="#cbcccc"
       rx="6.879"
       ry="1.587"
       id="ellipse14" />
    <path
       fill="#f8f8f2"
       d="M1.852 2.988v3.178a6.88 1.587 0 0 0 .53.233V3.226a6.88 1.587 0 0 1-.53-.238zm0 3.969v3.177a6.88 1.587 0 0 0 .53.234V7.195a6.88 1.587 0 0 1-.53-.238zm0 3.968v3.178a6.88 1.587 0 0 0 .53.233v-3.172a6.88 1.587 0 0 1-.53-.239zm.794-7.611v3.175a6.88 1.587 0 0 0 1.323.318V3.63a6.88 1.587 0 0 1-1.323-.316zm0 3.969v3.175a6.88 1.587 0 0 0 1.323.317V7.6a6.88 1.587 0 0 1-1.323-.316zm0 3.968v3.176a6.88 1.587 0 0 0 1.323.317v-3.177a6.88 1.587 0 0 1-1.323-.316z"
       opacity=".35"
       id="path16" />
  </g>
  <path
     fill="#57d747"
     d="M51.001 42a8 7.95 0 1 1-16 0 8 7.95 0 1 1 16 0z"
     id="path20"
     style="fill:#44c367" />
  <path
     fill="#f8f8f2"
     d="m47.801 42.052-8 4v-8l4 2z"
     id="path22" />
</svg>
