<?xml version="1.0" encoding="UTF-8" standalone="no"?>
<svg
   width="64"
   height="64"
   version="1.1"
   id="svg12"
   sodipodi:docname="org.ubuntubudgie.quickchar.svg"
   inkscape:version="1.2.2 (b0a8486541, 2022-12-01)"
   xmlns:inkscape="http://www.inkscape.org/namespaces/inkscape"
   xmlns:sodipodi="http://sodipodi.sourceforge.net/DTD/sodipodi-0.dtd"
   xmlns="http://www.w3.org/2000/svg"
   xmlns:svg="http://www.w3.org/2000/svg">
  <defs
     id="defs16" />
  <sodipodi:namedview
     id="namedview14"
     pagecolor="#505050"
     bordercolor="#eeeeee"
     borderopacity="1"
     inkscape:showpageshadow="0"
     inkscape:pageopacity="0"
     inkscape:pagecheckerboard="0"
     inkscape:deskcolor="#505050"
     showgrid="false"
     inkscape:zoom="15.921875"
     inkscape:cx="29.895976"
     inkscape:cy="32.031403"
     inkscape:window-width="2560"
     inkscape:window-height="1361"
     inkscape:window-x="0"
     inkscape:window-y="0"
     inkscape:window-maximized="1"
     inkscape:current-layer="svg12" />
  <circle
     cx="32"
     cy="32"
     r="27"
     fill="#eceff1"
     style="paint-order:stroke fill markers;fill:#f8f8f2"
     id="circle2" />
  <path
     fill="#90a4ae"
     d="M22 12v2h9v-2zm-6 4v2h22v-2zm0 6v2h31v-2zm0 4v2h31v-2zm0 4v2h31v-2zm0 6v2h31v-2zm0 4v2h31v-2zm0 4v2h15v-2zm19 5v2h7v-2z"
     id="path4"
     style="fill:#9ea0a6" />
  <g
     transform="translate(-.49 -1.407)"
     id="g10">
    <circle
       cx="18.49"
       cy="19.407"
       r="15"
       fill="#4565e3"
       id="circle6"
       style="fill:#6272a4" />
    <path
       fill="#f8f8f2"
       d="M13.445 12.519a13.413 15.333 16.976 0 0-2.446.481 13.413 15.333 16.976 0 0-4.214 2.13l3.715 2.077a13.413 15.333 16.976 0 1 .443-.152 13.413 15.333 16.976 0 1 9.619 1.133l-3.454 2.084 5.188 2.29 5.19 2.29.002-5.423.002-5.422-4.038 2.437a13.413 15.333 16.976 0 0-7.555-3.909 13.413 15.333 16.976 0 0-2.452-.016z"
       id="path8" />
  </g>
</svg>
