<?xml version="1.0" encoding="UTF-8" standalone="no"?>
<svg
   width="64"
   height="64"
   version="1.1"
   viewBox="0 0 64 64"
   id="svg28"
   sodipodi:docname="org.gnome.Loupe.svg"
   inkscape:version="1.2.2 (b0a8486541, 2022-12-01)"
   xmlns:inkscape="http://www.inkscape.org/namespaces/inkscape"
   xmlns:sodipodi="http://sodipodi.sourceforge.net/DTD/sodipodi-0.dtd"
   xmlns="http://www.w3.org/2000/svg"
   xmlns:svg="http://www.w3.org/2000/svg">
  <defs
     id="defs32" />
  <sodipodi:namedview
     id="namedview30"
     pagecolor="#505050"
     bordercolor="#eeeeee"
     borderopacity="1"
     inkscape:showpageshadow="0"
     inkscape:pageopacity="0"
     inkscape:pagecheckerboard="0"
     inkscape:deskcolor="#505050"
     showgrid="false"
     inkscape:zoom="15.921875"
     inkscape:cx="29.895976"
     inkscape:cy="32.031403"
     inkscape:window-width="2560"
     inkscape:window-height="1361"
     inkscape:window-x="0"
     inkscape:window-y="0"
     inkscape:window-maximized="1"
     inkscape:current-layer="svg28" />
  <circle
     cx="32"
     cy="32"
     r="27"
     fill="#f8f8f2"
     stroke-width=".96429"
     id="circle2" />
  <g
     transform="matrix(.65222 0 0 .65222 11.207 11.129)"
     id="g26">
    <path
       d="m18.386 3.1169 39.846 10.677c1.9995 0.5365 3.1879 2.5928 2.6514 4.5923l-10.677 39.846c-0.5365 1.9995-2.5928 3.1879-4.5923 2.6514l-39.846-10.677c-1.9995-0.5365-3.1879-2.5928-2.6514-4.5923l10.677-39.846c0.5365-1.9995 2.5928-3.186 4.5923-2.6514z"
       fill="#d3d3cf"
       id="path4"
       style="fill:#cbcccc" />
    <path
       d="m11.375 7.625h41.25c2.0709 0 3.75 1.6791 3.75 3.75v41.25c0 2.0709-1.6791 3.75-3.75 3.75h-41.25c-2.0709 0-3.75-1.6791-3.75-3.75v-41.25c0-2.0709 1.6791-3.75 3.75-3.75z"
       fill="#f6f5f4"
       id="path6"
       style="fill:#f8f8f2" />
    <path
       d="m51.688 11.375h-39.375c-0.51819 0-0.9375 0.41931-0.9375 0.9375v30c0 0.51819 0.41931 0.9375 0.9375 0.9375h39.375c0.51819 0 0.9375-0.41931 0.9375-0.9375v-30c0-0.51819-0.41931-0.9375-0.9375-0.9375z"
       fill="#8467d0"
       stroke-width=".46875"
       id="path8"
       style="fill:#9576c5" />
    <path
       transform="matrix(.46875 0 0 .46875 -1.75 -5.5)"
       d="m46 66.262c-2.0469 0-4.0958 0.77917-5.6583 2.3417l-12.342 12.342v21.054c0 1.1055 0.89453 2 2 2h57.05l-35.392-35.396c-1.5625-1.5625-3.6115-2.3417-5.6583-2.3417z"
       fill="#f8f8f2"
       opacity=".2"
       id="path10" />
    <path
       transform="matrix(.46875 0 0 .46875 -1.75 -5.5)"
       d="m75 75.312c-2.0469 0-4.0958 0.78334-5.6583 2.3458l-26.342 26.342h64l-26.342-26.342c-1.5625-1.5625-3.6115-2.3458-5.6583-2.3458z"
       fill="#f8f8f2"
       opacity=".1"
       id="path12" />
    <path
       transform="matrix(.46875 0 0 .46875 -1.75 -5.5)"
       d="m93 67c-5.5234 0-10-4.4766-10-10s4.4766-10 10-10 10 4.4766 10 10-4.4766 10-10 10z"
       fill="#f8f8f2"
       opacity=".15"
       id="path14" />
    <path
       transform="matrix(.46875 0 0 .46875 -.8125 -70.132)"
       d="m11.891 268.55 15.457-15.457"
       clip-path="url(#clipPath552)"
       fill="none"
       mask="url(#mask544)"
       stroke="#f8f8f2"
       stroke-linecap="round"
       stroke-width="1.6378"
       id="path16" />
    <path
       d="m16.062 46.117-3.75 3.75"
       fill="none"
       stroke="#3d3846"
       stroke-width="3"
       id="path18"
       style="fill:#44475a" />
    <path
       d="m12.312 49.867-6.5625 6.5625"
       fill="none"
       stroke="#77767b"
       stroke-linecap="round"
       stroke-width="6"
       id="path20"
       style="stroke:#717380" />
    <path
       transform="matrix(.46875 0 0 .46875 -1.75 -5.5)"
       d="m30.062 88.18c0 16.535 13.402 29.938 29.938 29.938s29.938-13.402 29.938-29.938c0-16.535-13.402-29.938-29.938-29.938s-29.938 13.402-29.938 29.938z"
       fill="#f8f8f2"
       opacity=".25"
       id="path22" />
    <path
       d="m40.492 35.805c0 7.7966-6.3208 14.117-14.117 14.117s-14.117-6.3208-14.117-14.117c0-7.7966 6.3208-14.117 14.117-14.117s14.117 6.3208 14.117 14.117z"
       fill="none"
       stroke="#5e5c64"
       stroke-linejoin="round"
       stroke-width="2"
       id="path24"
       style="stroke:#717380" />
  </g>
</svg>
