<?xml version="1.0" encoding="UTF-8" standalone="no"?>
<svg
   width="64"
   height="64"
   version="1.1"
   viewBox="0 0 64 64"
   id="svg18"
   sodipodi:docname="org.gnome.Connections.svg"
   inkscape:version="1.2.2 (b0a8486541, 2022-12-01)"
   xmlns:inkscape="http://www.inkscape.org/namespaces/inkscape"
   xmlns:sodipodi="http://sodipodi.sourceforge.net/DTD/sodipodi-0.dtd"
   xmlns="http://www.w3.org/2000/svg"
   xmlns:svg="http://www.w3.org/2000/svg">
  <defs
     id="defs22" />
  <sodipodi:namedview
     id="namedview20"
     pagecolor="#505050"
     bordercolor="#eeeeee"
     borderopacity="1"
     inkscape:showpageshadow="0"
     inkscape:pageopacity="0"
     inkscape:pagecheckerboard="0"
     inkscape:deskcolor="#505050"
     showgrid="false"
     inkscape:zoom="15.921875"
     inkscape:cx="29.895976"
     inkscape:cy="32.031403"
     inkscape:window-width="2560"
     inkscape:window-height="1361"
     inkscape:window-x="0"
     inkscape:window-y="0"
     inkscape:window-maximized="1"
     inkscape:current-layer="svg18" />
  <circle
     cx="32"
     cy="32"
     r="27"
     fill="#717380"
     stroke-linecap="square"
     stroke-width="2.2191"
     style="paint-order:fill markers stroke"
     id="circle2" />
  <g
     transform="matrix(.7 0 0 .7 9.6 6.6294)"
     id="g16">
    <path
       d="m22.416 20.84c0.14712 6.2876-1.8894 11.756-7.6079 15.851l8.5274 4.0924c-0.53042-6.9787 2.4624-12.01 7.6079-15.849z"
       fill="#282a36"
       opacity=".35"
       id="path4"
       style="fill:#282a36" />
    <path
       d="m41.331 20.84c-0.14713 6.2876 1.8874 11.756 7.6079 15.851l-8.5274 4.0924c0.53042-6.9787-2.4624-12.01-7.6079-15.849z"
       fill="#282a36"
       opacity=".35"
       id="path6"
       style="fill:#282a36" />
    <path
       d="m39.745 43.381c-5.3894 2.8496-10.974 3.378-16.898-0.0097l-0.0058 9.4585c5.8288-3.4942 11.433-2.9715 16.898 0.0116z"
       fill="#282a36"
       opacity=".35"
       id="path8"
       style="fill:#282a36" />
    <path
       d="m44 16c0 6.627-5.373 12-12 12s-12-5.373-12-12 5.373-12 12-12 12 5.373 12 12z"
       fill="#f8f8f2"
       id="path10" />
    <path
       d="m26 48c0 6.627-5.3711 12-12 12-6.627 0-12-5.373-12-12 1e-7 -6.627 5.373-12 12-12 6.6289 0 12 5.373 12 12z"
       fill="#f8f8f2"
       id="path12" />
    <path
       d="m62 48c0 6.627-5.3711 12-12 12-6.6269 0-12-5.373-12-12s5.373-12 12-12c6.6289 0 12 5.373 12 12z"
       fill="#f8f8f2"
       id="path14" />
  </g>
</svg>
