<?xml version="1.0" encoding="UTF-8" standalone="no"?>
<svg
   width="64"
   height="64"
   version="1.1"
   id="svg14"
   sodipodi:docname="org.gabmus.hydrapaper.svg"
   inkscape:version="1.2.2 (b0a8486541, 2022-12-01)"
   xmlns:inkscape="http://www.inkscape.org/namespaces/inkscape"
   xmlns:sodipodi="http://sodipodi.sourceforge.net/DTD/sodipodi-0.dtd"
   xmlns="http://www.w3.org/2000/svg"
   xmlns:svg="http://www.w3.org/2000/svg">
  <defs
     id="defs18" />
  <sodipodi:namedview
     id="namedview16"
     pagecolor="#505050"
     bordercolor="#eeeeee"
     borderopacity="1"
     inkscape:showpageshadow="0"
     inkscape:pageopacity="0"
     inkscape:pagecheckerboard="0"
     inkscape:deskcolor="#505050"
     showgrid="false"
     inkscape:zoom="15.921875"
     inkscape:cx="29.895976"
     inkscape:cy="32.031403"
     inkscape:window-width="2560"
     inkscape:window-height="1361"
     inkscape:window-x="0"
     inkscape:window-y="0"
     inkscape:window-maximized="1"
     inkscape:current-layer="svg14" />
  <circle
     cx="32"
     cy="32"
     r="27"
     fill="#f35a23"
     stroke-width="3.7796"
     style="paint-order:stroke fill markers;fill:#ff5555"
     id="circle2" />
  <circle
     cx="32"
     cy="32"
     r="24"
     fill="#8bc34a"
     stroke-width="3.3596"
     style="paint-order:stroke fill markers;fill:#50fa7b"
     id="circle4" />
  <g
     transform="matrix(.91304 0 0 .91304 2.7826 2.7826)"
     id="g12">
    <circle
       cx="32"
       cy="32"
       r="23"
       fill="#239bd1"
       stroke-width="3.2197"
       style="paint-order:stroke fill markers;fill:#13b1d5"
       id="circle6" />
    <path
       d="M 32.001,9 A 23.001,23.001 0 0 0 9,32.001 23.001,23.001 0 0 0 31.838993,55 L 55,31.838993 A 23.001,23.001 0 0 0 32.001,9 Z"
       fill="#28b2f0"
       stroke-width="3.2198"
       style="paint-order:stroke fill markers;fill:#13b1d5"
       id="path8" />
    <path
       d="m31.84 55 23.16-23.16a23 23 0 0 0-0.16211-2e-3 23 23 0 0 0-23 23 23 23 0 0 0 2e-3 0.16211z"
       fill="#6fcdf9"
       stroke-linecap="round"
       stroke-linejoin="round"
       stroke-opacity=".86"
       stroke-width="2"
       id="path10"
       style="fill:#8be9fd" />
  </g>
</svg>
