<?xml version="1.0" encoding="UTF-8" standalone="no"?>
<svg
   width="64"
   height="64"
   viewBox="0 0 16.933 16.933"
   version="1.1"
   id="svg18"
   sodipodi:docname="org.gnome.dspy.svg"
   inkscape:version="1.2.2 (b0a8486541, 2022-12-01)"
   xmlns:inkscape="http://www.inkscape.org/namespaces/inkscape"
   xmlns:sodipodi="http://sodipodi.sourceforge.net/DTD/sodipodi-0.dtd"
   xmlns="http://www.w3.org/2000/svg"
   xmlns:svg="http://www.w3.org/2000/svg">
  <defs
     id="defs22" />
  <sodipodi:namedview
     id="namedview20"
     pagecolor="#505050"
     bordercolor="#eeeeee"
     borderopacity="1"
     inkscape:showpageshadow="0"
     inkscape:pageopacity="0"
     inkscape:pagecheckerboard="0"
     inkscape:deskcolor="#505050"
     showgrid="false"
     inkscape:zoom="15.921875"
     inkscape:cx="29.895976"
     inkscape:cy="32.031403"
     inkscape:window-width="2560"
     inkscape:window-height="1361"
     inkscape:window-x="0"
     inkscape:window-y="0"
     inkscape:window-maximized="1"
     inkscape:current-layer="svg18" />
  <circle
     cx="8.502"
     cy="8.466"
     r="7.144"
     fill="#3e4247"
     style="paint-order:stroke fill markers;fill:#44475a"
     id="circle2" />
  <path
     fill="#725136"
     d="M4.885 9.83h7.163v.326l-3.581 1.79-3.583-1.79z"
     id="path4"
     style="fill:#c7925b;opacity:0.75" />
  <path
     fill="#e4bc71"
     d="M5.536 7.55h5.861v.978l-.325.162.325.163v3.257H5.536V8.853l.325-.163-.325-.162z"
     id="path6"
     style="fill:#fdc88e" />
  <path
     fill="#a6744a"
     d="M6.838 3.969c-.18 0-.238.168-.325.325L4.884 7.225l3.582.326 3.582-.326-1.628-2.93c-.087-.158-.146-.326-.325-.326a.325.325 0 0 0-.23.095L8.696 5.176a.325.325 0 0 1-.46 0L7.068 4.064a.325.325 0 0 0-.23-.095z"
     id="path8"
     style="fill:#c7925b" />
  <path
     fill="#bb8e67"
     d="M4.559 7.225h7.815a.325.325 0 1 1 0 .651H4.56a.325.325 0 1 1 0-.651z"
     id="path10"
     style="fill:#ffb86c" />
  <path
     fill="#403e47"
     d="M5.536 8.528v.325h.651a.977.977 0 0 0 .977.977.977.977 0 0 0 .977-.977h.651a.977.977 0 0 0 .977.977.977.977 0 0 0 .977-.977h.651v-.325z"
     id="path12"
     style="fill:#44475a" />
  <path
     fill="#ac784e"
     d="m12.048 10.156-3.256.977-.326.651v.326l.326.325h3.256z"
     id="path14"
     style="fill:#c7925b" />
  <path
     fill="#bb8d68"
     d="m4.885 10.156 3.256.977.651 1.302H4.884z"
     id="path16"
     style="fill:#ffb86c" />
</svg>
