<?xml version="1.0" encoding="UTF-8" standalone="no"?>
<svg
   width="64"
   height="64"
   version="1.1"
   id="svg20"
   sodipodi:docname="org.gtk.gtk4.NodeEditor.svg"
   inkscape:version="1.2.2 (b0a8486541, 2022-12-01)"
   xmlns:inkscape="http://www.inkscape.org/namespaces/inkscape"
   xmlns:sodipodi="http://sodipodi.sourceforge.net/DTD/sodipodi-0.dtd"
   xmlns="http://www.w3.org/2000/svg"
   xmlns:svg="http://www.w3.org/2000/svg">
  <defs
     id="defs24" />
  <sodipodi:namedview
     id="namedview22"
     pagecolor="#505050"
     bordercolor="#eeeeee"
     borderopacity="1"
     inkscape:showpageshadow="0"
     inkscape:pageopacity="0"
     inkscape:pagecheckerboard="0"
     inkscape:deskcolor="#505050"
     showgrid="false"
     inkscape:zoom="15.921875"
     inkscape:cx="29.895976"
     inkscape:cy="32.031403"
     inkscape:window-width="2560"
     inkscape:window-height="1361"
     inkscape:window-x="0"
     inkscape:window-y="0"
     inkscape:window-maximized="1"
     inkscape:current-layer="svg20" />
  <circle
     cx="32"
     cy="32"
     r="27"
     fill="#f8f8f2"
     fill-rule="evenodd"
     style="paint-order:stroke fill markers"
     id="circle2" />
  <g
     stroke-width=".5"
     id="g18">
    <path
       fill="#2fa871"
       d="M27.84 14.92h8.32a2.56 2.56 0 0 1 2.56 2.56v8.32a2.56 2.56 0 0 1-2.56 2.56h-8.32a2.56 2.56 0 0 1-2.56-2.56v-8.32a2.56 2.56 0 0 1 2.56-2.56z"
       id="path4"
       style="fill:#44c367" />
    <path
       fill="#57e389"
       d="M27.84 13h8.32a2.56 2.56 0 0 1 2.56 2.56v8.32a2.56 2.56 0 0 1-2.56 2.56h-8.32a2.56 2.56 0 0 1-2.56-2.56v-8.32A2.56 2.56 0 0 1 27.84 13z"
       id="path6"
       style="fill:#50fa7b" />
    <path
       fill="gray"
       d="M36.152 26.905a.99.99 0 0 1 1.353.363l2.157 3.737a.99.99 0 1 1-1.715.99l-2.157-3.737a.99.99 0 0 1 .362-1.353zm-7.732 0a.99.99 0 0 0-1.353.363l-2.157 3.737a.99.99 0 1 0 1.715.99l2.157-3.737a.99.99 0 0 0-.362-1.353z"
       id="path8"
       style="fill:#717380" />
    <path
       fill="#a568bd"
       d="M18.56 32.84h8.32a2.56 2.56 0 0 1 2.56 2.56v8.32a2.56 2.56 0 0 1-2.56 2.56h-8.32A2.56 2.56 0 0 1 16 43.72V35.4a2.56 2.56 0 0 1 2.56-2.56z"
       id="path10"
       style="fill:#c7639f" />
    <path
       fill="#dc8add"
       d="M18.56 30.92h8.32a2.56 2.56 0 0 1 2.56 2.56v8.32a2.56 2.56 0 0 1-2.56 2.56h-8.32A2.56 2.56 0 0 1 16 41.8v-8.32a2.56 2.56 0 0 1 2.56-2.56z"
       id="path12"
       style="fill:#ff79c6" />
    <path
       fill="#f37920"
       d="M37.12 32.84h8.32A2.56 2.56 0 0 1 48 35.4v8.32a2.56 2.56 0 0 1-2.56 2.56h-8.32a2.56 2.56 0 0 1-2.56-2.56V35.4a2.56 2.56 0 0 1 2.56-2.56z"
       id="path14"
       style="fill:#c7925b" />
    <path
       fill="#ffa348"
       d="M37.12 30.92h8.32A2.56 2.56 0 0 1 48 33.48v8.32a2.56 2.56 0 0 1-2.56 2.56h-8.32a2.56 2.56 0 0 1-2.56-2.56v-8.32a2.56 2.56 0 0 1 2.56-2.56z"
       id="path16"
       style="fill:#ffb86c" />
  </g>
</svg>
