<?xml version="1.0" encoding="UTF-8" standalone="no"?>
<svg
   width="64"
   height="64"
   version="1.1"
   id="svg6"
   sodipodi:docname="org.buddiesofbudgie.BudgieScreenshot.svg"
   inkscape:version="1.2.2 (b0a8486541, 2022-12-01)"
   xmlns:inkscape="http://www.inkscape.org/namespaces/inkscape"
   xmlns:sodipodi="http://sodipodi.sourceforge.net/DTD/sodipodi-0.dtd"
   xmlns="http://www.w3.org/2000/svg"
   xmlns:svg="http://www.w3.org/2000/svg">
  <defs
     id="defs10" />
  <sodipodi:namedview
     id="namedview8"
     pagecolor="#505050"
     bordercolor="#eeeeee"
     borderopacity="1"
     inkscape:showpageshadow="0"
     inkscape:pageopacity="0"
     inkscape:pagecheckerboard="0"
     inkscape:deskcolor="#505050"
     showgrid="false"
     inkscape:zoom="15.921875"
     inkscape:cx="29.895976"
     inkscape:cy="32.031403"
     inkscape:window-width="2560"
     inkscape:window-height="1361"
     inkscape:window-x="0"
     inkscape:window-y="0"
     inkscape:window-maximized="1"
     inkscape:current-layer="svg6" />
  <circle
     cx="32"
     cy="32"
     r="27"
     fill="#e87267"
     fill-rule="evenodd"
     id="circle2"
     style="fill:#fd7e7c" />
  <path
     fill="#f8f8f2"
     d="M36.701 21.461c-1.824 0-3.292 1.401-3.293 3.142v.032l-14.004-.002c-1.884 0-3.401 1.447-3.402 3.246L16 39.287c0 1.798 1.516 3.246 3.4 3.247l25.197.004c1.884 0 3.4-1.447 3.401-3.245L48 27.885c0-1.799-1.516-3.247-3.4-3.248h-1.334v-.032c0-1.741-1.467-3.143-3.29-3.144zm-4.7 6.362a6.206 5.925 0 0 1 6.205 5.926A6.206 5.925 0 0 1 32 39.672a6.206 5.925 0 0 1-6.205-5.926 6.206 5.925 0 0 1 6.208-5.923z"
     id="path4" />
</svg>
