<?xml version="1.0" encoding="UTF-8" standalone="no"?>
<svg
   width="64"
   height="64"
   version="1.1"
   id="svg18"
   sodipodi:docname="org.polymc.PolyMC.svg"
   inkscape:version="1.2.2 (b0a8486541, 2022-12-01)"
   xmlns:inkscape="http://www.inkscape.org/namespaces/inkscape"
   xmlns:sodipodi="http://sodipodi.sourceforge.net/DTD/sodipodi-0.dtd"
   xmlns="http://www.w3.org/2000/svg"
   xmlns:svg="http://www.w3.org/2000/svg">
  <defs
     id="defs22" />
  <sodipodi:namedview
     id="namedview20"
     pagecolor="#505050"
     bordercolor="#eeeeee"
     borderopacity="1"
     inkscape:showpageshadow="0"
     inkscape:pageopacity="0"
     inkscape:pagecheckerboard="0"
     inkscape:deskcolor="#505050"
     showgrid="false"
     inkscape:zoom="15.921875"
     inkscape:cx="29.895976"
     inkscape:cy="32.031403"
     inkscape:window-width="2560"
     inkscape:window-height="1361"
     inkscape:window-x="0"
     inkscape:window-y="0"
     inkscape:window-maximized="1"
     inkscape:current-layer="svg18" />
  <circle
     cx="32"
     cy="32"
     r="27"
     fill="#cbcccc"
     id="circle2" />
  <path
     fill="#765338"
     d="M32 40.525c-9.462 0-11.3 5.893-11.659 8.19a2.42 2.42 0 0 0 1.377.456c.59.006.99-.005.99-.005h18.585s.399.01.99.005c.493-.004.973-.17 1.374-.455-.357-2.295-2.193-8.19-11.658-8.19z"
     id="path4" />
  <path
     fill="#b7835a"
     d="M13.036 26.654c-.064.374-.042.765.08 1.143l.47 1.464 5.334 16.564.27.84.462 1.286c.297.531.786.912 1.343 1.095l11.004-8.52z"
     id="path6" />
  <path
     fill="#5b422d"
     d="M50.87 26.285 32 40.526l11.005 8.52a2.393 2.393 0 0 0 1.285-.999l1.058-3.056 5.067-15.73.47-1.464a2.406 2.406 0 0 0-.015-1.512z"
     id="path8" />
  <path
     fill="#72b147"
     d="m32.87 41.2-.871.674-.873-.674c0-.675.873-.675.873-.675s.872 0 .872.675z"
     id="path10" />
  <path
     fill="#5a9a30"
     d="M50.296 25.36c-17.215.962-18.298 15.166-18.298 15.166l.873.675 2.199-.352 2.2-3.053 2.198-.353 2.2-3.053 2.2-.353 2.199-3.053 2.2-.352 2.587-2.74.03-.095c.28-.868.04-1.808-.589-2.436z"
     id="path12"
     style="fill:#44c367;opacity:0.7" />
  <path
     fill="#88b858"
     d="M13.439 25.674a2.408 2.408 0 0 0-.324 2.123l.207.643 2.409 2.189 2.2.353 2.198 3.053 2.2.353 2.2 3.052 2.199.353 2.2 3.053 2.198.353.873-.675s-1.273-13.94-18.56-14.85z"
     id="path14"
     style="fill:#50fa7b" />
  <path
     fill="#6da843"
     d="M32 12.483a2.36 2.36 0 0 0-1.397.457L13.978 25.124a2.39 2.39 0 0 0-.94 1.528l18.961 13.872L50.87 26.283a2.385 2.385 0 0 0-.848-1.16L33.395 12.94c-.41-.3-.899-.456-1.396-.456z"
     id="path16"
     style="fill:#44c367" />
</svg>
