<?xml version="1.0" encoding="UTF-8" standalone="no"?>
<svg
   width="64"
   height="64"
   version="1"
   id="svg16"
   sodipodi:docname="org.kde.neochat.svg"
   inkscape:version="1.2.2 (b0a8486541, 2022-12-01)"
   xmlns:inkscape="http://www.inkscape.org/namespaces/inkscape"
   xmlns:sodipodi="http://sodipodi.sourceforge.net/DTD/sodipodi-0.dtd"
   xmlns="http://www.w3.org/2000/svg"
   xmlns:svg="http://www.w3.org/2000/svg">
  <defs
     id="defs20" />
  <sodipodi:namedview
     id="namedview18"
     pagecolor="#505050"
     bordercolor="#eeeeee"
     borderopacity="1"
     inkscape:showpageshadow="0"
     inkscape:pageopacity="0"
     inkscape:pagecheckerboard="0"
     inkscape:deskcolor="#505050"
     showgrid="false"
     inkscape:zoom="15.921875"
     inkscape:cx="30.335623"
     inkscape:cy="32.062807"
     inkscape:window-width="2560"
     inkscape:window-height="1364"
     inkscape:window-x="0"
     inkscape:window-y="0"
     inkscape:window-maximized="1"
     inkscape:current-layer="svg16" />
  <circle
     cx="32"
     cy="32"
     r="27"
     fill="#ececec"
     stroke-width=".94871"
     id="circle2"
     style="fill:#f8f8f2" />
  <g
     transform="matrix(.5926 0 0 .5926 13.037 14.963)"
     id="g14">
    <path
       d="m56.321 11.786c1.4839 0 2.6786 1.1945 2.6786 2.6784v31.844c0 1.4838-1.1946 2.6917-2.6786 2.6917h-7.5536s-1.3393-0.01345-1.3393 1.3258v6.5102c0.0012 2.1299-1.376 3.4619-2.4772 2.3959l-6.7174-6.4003-3.1273-3.0222c-0.6731-0.85912-1.0913-0.80931-2.1163-0.80931h-19.312c-1.4839 0-2.6786-1.2079-2.6786-2.6917v-31.844c0-1.4838 1.1946-2.6784 2.6786-2.6784z"
       fill="#22759b"
       stroke-width=".96429"
       id="path4"
       style="fill:#168daa" />
    <path
       d="m7.6786 6c-1.4839 0-2.6786 1.1945-2.6786 2.6784v31.63c0 1.4838 1.1946 2.6917 2.6786 2.6917h7.5536s1.3393-0.01345 1.3393 1.3258v6.5102c-0.0012 2.1299 1.376 3.4619 2.4772 2.3959l6.7174-6.4003 3.1273-3.0222c0.6731-0.85912 1.0913-0.80931 2.1163-0.80931h19.312c1.4839 0 2.6786-1.2079 2.6786-2.6917v-31.63c0-1.4838-1.1946-2.6784-2.6786-2.6784z"
       fill="#38e0e4"
       stroke-width=".96429"
       id="path6"
       style="fill:#72bfd0" />
    <rect
       x="11"
       y="15"
       width="36"
       height="4"
       rx="2"
       ry="2"
       fill="#ffffff"
       fill-rule="evenodd"
       style="paint-order:stroke fill markers"
       id="rect8" />
    <rect
       x="11"
       y="23"
       width="31"
       height="4"
       rx="2"
       ry="2"
       fill="#ffffff"
       fill-rule="evenodd"
       style="paint-order:stroke fill markers;fill:#f8f8f2"
       id="rect10" />
    <rect
       x="11"
       y="31"
       width="26"
       height="4"
       rx="2"
       ry="2"
       fill="#ffffff"
       fill-rule="evenodd"
       style="paint-order:stroke fill markers;fill:#f8f8f2"
       id="rect12" />
  </g>
</svg>
