<?xml version="1.0" encoding="UTF-8" standalone="no"?>
<svg
   width="64"
   height="64"
   version="1.1"
   id="svg22"
   sodipodi:docname="org.fedoraproject.AnacondaInstaller.svg"
   inkscape:version="1.2.2 (b0a8486541, 2022-12-01)"
   xmlns:inkscape="http://www.inkscape.org/namespaces/inkscape"
   xmlns:sodipodi="http://sodipodi.sourceforge.net/DTD/sodipodi-0.dtd"
   xmlns="http://www.w3.org/2000/svg"
   xmlns:svg="http://www.w3.org/2000/svg">
  <defs
     id="defs26" />
  <sodipodi:namedview
     id="namedview24"
     pagecolor="#505050"
     bordercolor="#eeeeee"
     borderopacity="1"
     inkscape:showpageshadow="0"
     inkscape:pageopacity="0"
     inkscape:pagecheckerboard="0"
     inkscape:deskcolor="#505050"
     showgrid="false"
     inkscape:zoom="15.921875"
     inkscape:cx="29.895976"
     inkscape:cy="32.031403"
     inkscape:window-width="2560"
     inkscape:window-height="1361"
     inkscape:window-x="0"
     inkscape:window-y="0"
     inkscape:window-maximized="1"
     inkscape:current-layer="svg22" />
  <circle
     cx="32"
     cy="32"
     r="27"
     fill="#f8f8f2"
     style="paint-order:stroke fill markers"
     id="circle2" />
  <path
     fill="#9ea0a6"
     d="M23 10c-1.662 0-3 1.338-3 3v13h24V13c0-1.662-1.338-3-3-3z"
     id="path4" />
  <path
     fill="#44475a"
     d="M16 26c-1.662 0-3 1.338-3 3v8c0 10.526 8.474 19 19 19s19-8.474 19-19v-8c0-1.662-1.338-3-3-3z"
     id="path6" />
  <rect
     width="22"
     height="2"
     x="21"
     y="42"
     opacity=".4"
     rx="1"
     ry="1"
     id="rect8" />
  <rect
     width="18"
     height="2"
     x="23"
     y="46"
     opacity=".4"
     rx="1"
     ry="1"
     id="rect10" />
  <rect
     width="14"
     height="2"
     x="25"
     y="50"
     opacity=".4"
     rx="1"
     ry="1"
     id="rect12" />
  <path
     d="M23 14h7v3h-7zm11 0h7v3h-7z"
     opacity=".35"
     id="path14" />
  <path
     fill="#fb5"
     d="M25 14h3v3h-3zm11 0h3v3h-3z"
     id="path16"
     style="fill:#ffb86c" />
  <circle
     cx="48"
     cy="48"
     r="14"
     fill="#51a2da"
     id="circle18"
     style="fill:#13b1d5" />
  <path
     fill="#f8f8f2"
     d="M51.878 39.002c2.317 0 4.505 1.777 4.505 4.223 0 .227-.003.453-.04.71a1.15 1.15 0 1 1-2.273-.324c.01-.072.015-.188.015-.386 0-1.387-1.133-1.923-2.207-1.923-1.073 0-2.041.9-2.045 1.92v3.532l1.992-.014c1.554-.033 1.57 2.31.016 2.3l-2.008.01-.014 3.296C49.579 54.93 47.377 57 44.732 57c-2.803 0-5.115-2.294-5.115-5.104.084-2.89 2.394-5.164 5.296-5.137l1.616-.01v2.296l-1.63.014c-1.595.048-2.959 1.13-2.985 2.837a2.803 2.803 0 0 0 2.82 2.804c1.558 0 2.803-1.134 2.803-2.8v-8.687c0-.161.008-.29.027-.468.262-2.126 2.162-3.745 4.314-3.745z"
     id="path20" />
</svg>
