<?xml version="1.0" encoding="UTF-8" standalone="no"?>
<svg
   width="64"
   height="64"
   version="1.1"
   id="svg12"
   sodipodi:docname="org.freedesktop.Piper.svg"
   inkscape:version="1.2.2 (b0a8486541, 2022-12-01)"
   xmlns:inkscape="http://www.inkscape.org/namespaces/inkscape"
   xmlns:sodipodi="http://sodipodi.sourceforge.net/DTD/sodipodi-0.dtd"
   xmlns="http://www.w3.org/2000/svg"
   xmlns:svg="http://www.w3.org/2000/svg">
  <defs
     id="defs16" />
  <sodipodi:namedview
     id="namedview14"
     pagecolor="#505050"
     bordercolor="#eeeeee"
     borderopacity="1"
     inkscape:showpageshadow="0"
     inkscape:pageopacity="0"
     inkscape:pagecheckerboard="0"
     inkscape:deskcolor="#505050"
     showgrid="false"
     inkscape:zoom="15.921875"
     inkscape:cx="29.895976"
     inkscape:cy="32.031403"
     inkscape:window-width="2560"
     inkscape:window-height="1361"
     inkscape:window-x="0"
     inkscape:window-y="0"
     inkscape:window-maximized="1"
     inkscape:current-layer="svg12" />
  <circle
     cx="32"
     cy="32"
     r="27"
     fill="#ffe287"
     stroke-width=".9"
     style="paint-order:stroke markers fill;fill:#f1fa8c"
     id="circle2" />
  <rect
     x="18"
     y="11"
     width="28"
     height="42"
     ry="3"
     fill="#da8d25"
     style="paint-order:stroke fill markers;fill:#c7925b"
     id="rect4" />
  <path
     d="m29 40c-1.108 0-2 0.892-2 2v6c0 1.108 0.892 2 2 2h6c1.108 0 2-0.892 2-2v-6c0-1.108-0.892-2-2-2h-6zm5 1a1 1 0 0 1 1 1 1 1 0 0 1-1 1 1 1 0 0 1-1-1 1 1 0 0 1 1-1zm-3 2a2 2 0 0 1 2 2 2 2 0 0 1-2 2 2 2 0 0 1-2-2 2 2 0 0 1 2-2z"
     fill="#ffb22b"
     style="paint-order:stroke fill markers;fill:#ffb86c"
     id="path6" />
  <path
     d="m21 14v20h22v-20zm2 2h18v16h-18z"
     fill="#f8f8f2"
     stroke-width="1.8257"
     id="path8" />
  <path
     d="m31 14v18h-4v5h10v-5h-4v-18z"
     fill="#cbcccc"
     stroke-width="1.7303"
     id="path10" />
</svg>
