<?xml version="1.0" encoding="UTF-8" standalone="no"?>
<svg
   width="64"
   height="64"
   version="1.1"
   id="svg16"
   sodipodi:docname="org.midori_browser.Midori.svg"
   inkscape:version="1.2.2 (b0a8486541, 2022-12-01)"
   xmlns:inkscape="http://www.inkscape.org/namespaces/inkscape"
   xmlns:sodipodi="http://sodipodi.sourceforge.net/DTD/sodipodi-0.dtd"
   xmlns="http://www.w3.org/2000/svg"
   xmlns:svg="http://www.w3.org/2000/svg">
  <defs
     id="defs20" />
  <sodipodi:namedview
     id="namedview18"
     pagecolor="#505050"
     bordercolor="#eeeeee"
     borderopacity="1"
     inkscape:showpageshadow="0"
     inkscape:pageopacity="0"
     inkscape:pagecheckerboard="0"
     inkscape:deskcolor="#505050"
     showgrid="false"
     inkscape:zoom="15.921875"
     inkscape:cx="27.76055"
     inkscape:cy="32.031403"
     inkscape:window-width="2560"
     inkscape:window-height="1361"
     inkscape:window-x="0"
     inkscape:window-y="0"
     inkscape:window-maximized="1"
     inkscape:current-layer="svg16" />
  <rect
     width="64"
     height="64"
     rx="0"
     ry="0"
     fill="none"
     stroke-linecap="round"
     stroke-linejoin="round"
     stroke-width="1.4464"
     style="paint-order:stroke fill markers"
     id="rect2" />
  <rect
     x="5"
     y="5"
     width="54"
     height="54"
     rx="27"
     ry="27"
     fill="#f8f8f2"
     stroke-width="3.6445"
     id="rect4" />
  <path
     d="m45.43 14.749c-4.2927 2.3964-21.094-0.07691-28.237 17.863-1.0035 4.7372-0.48456 11.267 4.0947 11.558 0.94753 0.06027 1.8024 0.70247 2.2495 1.4305 2.9251 4.7632 7.1418 4.3488 8.8864 2.0743 0.33447-0.43607 0.97126-0.31132 1.4236 0.03628 5.2744 4.0535 8.8109-2.3623 10.613-7.3944 0.71699-2.2006 4.3182-19.447 2.8972-21.291-0.42347-0.54948-2.2767 1.0393-3.8913 2.7342-12.903 13.546-21.465 3.4329 1.4864-6.6705l0.34898-0.41878 0.23828 0.09774"
     fill="#73d216"
     id="path6"
     style="fill:#50fa7b" />
  <path
     d="m46.652 14.486c-4.3866 0.81363-24.893 3.1218-29.455 18.36-1.3321 5.1567-0.58249 12.172 5.3527 11.913 0.4206-0.01813 0.46394 0.1204 0.61357 0.4744 2.4436 5.7812 8.4576 4.7293 9.81 2.4635 0.19262-0.32271-0.29192-0.19987 0 0 6.1239 4.1928 9.4617-1.6101 11.391-6.7818 2.3562-4.4871 3.7966-23.169 2.5356-21.961-21.482 20.586-21.441 2.4551-0.24814-4.4687"
     fill="none"
     stroke="#45a300"
     stroke-linejoin="round"
     stroke-width=".78171"
     id="path8"
     style="stroke:#44475a;fill:#44c367;opacity:1" />
  <g
     transform="matrix(.90889 .25683 -.25683 .90889 17.489 .16784)"
     fill="none"
     stroke="#45a300"
     stroke-linecap="round"
     stroke-linejoin="bevel"
     stroke-width=".82767"
     id="g14"
     style="stroke:#44475a;opacity:1">
    <path
       d="m18.646 43.904c-3.594-6.7166-2.105-8.4976-1.9316-10.624"
       id="path10"
       style="stroke:#44475a" />
    <path
       d="m29.35 43.829c-3.2627-3.744-3.9314-7.4057-3.2317-10.473"
       id="path12"
       style="stroke:#44475a" />
  </g>
</svg>
