<?xml version="1.0" encoding="UTF-8" standalone="no"?>
<svg
   width="64"
   height="64"
   version="1.1"
   id="svg18"
   sodipodi:docname="org.ubuntubudgie.budgiewpreviews.svg"
   inkscape:version="1.2.2 (b0a8486541, 2022-12-01)"
   xmlns:inkscape="http://www.inkscape.org/namespaces/inkscape"
   xmlns:sodipodi="http://sodipodi.sourceforge.net/DTD/sodipodi-0.dtd"
   xmlns="http://www.w3.org/2000/svg"
   xmlns:svg="http://www.w3.org/2000/svg">
  <defs
     id="defs22" />
  <sodipodi:namedview
     id="namedview20"
     pagecolor="#505050"
     bordercolor="#eeeeee"
     borderopacity="1"
     inkscape:showpageshadow="0"
     inkscape:pageopacity="0"
     inkscape:pagecheckerboard="0"
     inkscape:deskcolor="#505050"
     showgrid="false"
     inkscape:zoom="15.921875"
     inkscape:cx="29.895976"
     inkscape:cy="32.031403"
     inkscape:window-width="2560"
     inkscape:window-height="1361"
     inkscape:window-x="0"
     inkscape:window-y="0"
     inkscape:window-maximized="1"
     inkscape:current-layer="svg18" />
  <rect
     width="54"
     height="54"
     x="5"
     y="5"
     fill="#d40000"
     rx="27"
     ry="27"
     id="rect2"
     style="fill:#c7484a" />
  <g
     fill="#f8f8f2"
     id="g16">
    <g
       transform="translate(14.96 14.704) scale(.61598)"
       id="g12">
      <rect
         width="16.695"
         height="12.328"
         x=".415"
         y="14.445"
         ry="2.636"
         id="rect4" />
      <rect
         width="16.695"
         height="12.328"
         x="19.542"
         y="14.445"
         ry="2.636"
         id="rect6" />
      <rect
         width="16.695"
         height="12.328"
         x=".415"
         y="29.384"
         ry="2.636"
         id="rect8" />
      <rect
         width="16.695"
         height="12.328"
         x="19.542"
         y="29.384"
         ry="2.636"
         id="rect10" />
    </g>
    <path
       d="M31.986 16a16 16 0 0 0-10.695 4.156h5.178a13.095 13.095 0 0 1 5.52-1.251 13.095 13.095 0 0 1 13.106 13.08V32a13.095 13.095 0 0 1-13.091 13.095 13.095 13.095 0 0 1-5.55-1.251H21.27A16 16 0 0 0 32.004 48 16 16 0 0 0 48 32v-.018A16 16 0 0 0 31.986 16z"
       id="path14" />
  </g>
</svg>
