<?xml version="1.0" encoding="UTF-8" standalone="no"?>
<svg
   width="64"
   height="64"
   version="1.1"
   id="svg16"
   sodipodi:docname="org.glimpse_editor.Glimpse.svg"
   inkscape:version="1.2.2 (b0a8486541, 2022-12-01)"
   xmlns:inkscape="http://www.inkscape.org/namespaces/inkscape"
   xmlns:sodipodi="http://sodipodi.sourceforge.net/DTD/sodipodi-0.dtd"
   xmlns="http://www.w3.org/2000/svg"
   xmlns:svg="http://www.w3.org/2000/svg">
  <defs
     id="defs20" />
  <sodipodi:namedview
     id="namedview18"
     pagecolor="#505050"
     bordercolor="#eeeeee"
     borderopacity="1"
     inkscape:showpageshadow="0"
     inkscape:pageopacity="0"
     inkscape:pagecheckerboard="0"
     inkscape:deskcolor="#505050"
     showgrid="false"
     inkscape:zoom="15.921875"
     inkscape:cx="29.895976"
     inkscape:cy="32.031403"
     inkscape:window-width="2560"
     inkscape:window-height="1361"
     inkscape:window-x="0"
     inkscape:window-y="0"
     inkscape:window-maximized="1"
     inkscape:current-layer="svg16" />
  <circle
     cx="32"
     cy="32"
     r="27"
     fill="#44475a"
     stroke-width="2.5664"
     id="circle2" />
  <path
     d="m31.975 13c-1.0946 0.014006-1.9746 0.90532-1.9746 2v16c8.9e-5 0.74086 0.40967 1.421 1.0645 1.7676l17 9c1.3319 0.70464 2.9352-0.26074 2.9355-1.7676v-16c-8.9e-5 -0.74086-0.40967-1.421-1.0645-1.7676l-17-9c-0.29582-0.15666-0.62622-0.23658-0.96094-0.23242z"
     fill="#5891d9"
     id="path4"
     style="fill:#168daa" />
  <path
     d="m22.975 18c-1.0946 0.014006-1.9746 0.90532-1.9746 2v16c8.9e-5 0.74086 0.40967 1.421 1.0645 1.7676l17 9c1.3319 0.70464 2.9352-0.26074 2.9355-1.7676v-16c-8.9e-5 -0.74086-0.40967-1.421-1.0645-1.7676l-17-9c-0.29582-0.15666-0.62622-0.23658-0.96094-0.23242z"
     fill="#8ed599"
     id="path6"
     style="fill:#44c367" />
  <path
     d="m38 34-17 1.0625v0.9375c8.9e-5 0.74086 0.40967 1.421 1.0645 1.7676l17 9c1.3319 0.70464 2.9352-0.26074 2.9355-1.7676v-7l-4-4z"
     fill="#f8f8f2"
     id="path8" />
  <path
     d="m14.975 22c-1.0946 0.014006-1.9746 0.90532-1.9746 2v16c8.9e-5 0.74086 0.40967 1.421 1.0645 1.7676l17 9c1.3319 0.70464 2.9352-0.26074 2.9355-1.7676v-16c-8.9e-5 -0.74086-0.40967-1.421-1.0645-1.7676l-17-9c-0.29582-0.15666-0.62622-0.23658-0.96094-0.23242z"
     fill="#d75a86"
     id="path10"
     style="fill:#c7639f" />
  <path
     d="m44 27c0 1 1 3 2 3s2-1 2-1-1.5924-1.1498-2-2c-0.47939-1 0-3 0-3s-2 1-2 3z"
     fill="#f8f8f2"
     id="path12" />
  <path
     d="m18 34-5 0.33398v5.666c8.9e-5 0.74086 0.40967 1.421 1.0645 1.7676l15.252 8.0742-11.316-15.842z"
     fill="#f8f8f2"
     id="path14" />
</svg>
