<?xml version="1.0" encoding="UTF-8" standalone="no"?>
<svg
   xml:space="preserve"
   width="64"
   height="64"
   version="1.1"
   id="svg31"
   sodipodi:docname="oxygen-not-included.svg"
   inkscape:version="1.2.2 (b0a8486541, 2022-12-01)"
   xmlns:inkscape="http://www.inkscape.org/namespaces/inkscape"
   xmlns:sodipodi="http://sodipodi.sourceforge.net/DTD/sodipodi-0.dtd"
   xmlns="http://www.w3.org/2000/svg"
   xmlns:svg="http://www.w3.org/2000/svg"><sodipodi:namedview
     id="namedview33"
     pagecolor="#505050"
     bordercolor="#eeeeee"
     borderopacity="1"
     inkscape:showpageshadow="0"
     inkscape:pageopacity="0"
     inkscape:pagecheckerboard="0"
     inkscape:deskcolor="#505050"
     showgrid="false"
     inkscape:zoom="15.921875"
     inkscape:cx="29.895976"
     inkscape:cy="32.031403"
     inkscape:window-width="2560"
     inkscape:window-height="1361"
     inkscape:window-x="0"
     inkscape:window-y="0"
     inkscape:window-maximized="1"
     inkscape:current-layer="svg31" /><defs
     id="defs19"><linearGradient
       id="a"
       gradientUnits="userSpaceOnUse"><stop
         offset="0"
         stop-color="#c0bfbc"
         id="stop2" /><stop
         offset=".351"
         stop-color="#f8f8f2"
         id="stop4" /><stop
         offset=".602"
         stop-color="#9a9996"
         id="stop6" /><stop
         offset="1"
         stop-color="#77767b"
         id="stop8" /></linearGradient><linearGradient
       id="c"><stop
         offset="0"
         stop-color="#589632"
         id="stop11" /><stop
         offset="1"
         stop-color="#93b023"
         id="stop13" /></linearGradient><filter
       id="b"
       width="1"
       height="1"
       x="0"
       y="0"><feColorMatrix
         in="SourceGraphic"
         values="0 0 0 0 1 0 0 0 0 1 0 0 0 0 1 0 0 0 1 0"
         id="feColorMatrix16" /></filter></defs><path
     d="M32 5A26.94 26.94 0 0 0 5 32a26.94 26.94 0 0 0 27 27 26.94 26.94 0 0 0 27-27A26.94 26.94 0 0 0 32 5Z"
     style="fill:#13b1d5;fill-opacity:1;stroke:none;stroke-opacity:1"
     id="path21" /><g
     style="stroke:#171717;stroke-opacity:1"
     id="g29"><path
       d="M-82.143-107.758c-2.564 22.4-15.595 69.92 37.462 70.95C20.871-35.532-3.32-108.87-3.32-108.87s-49.712-11.028-78.822 1.112z"
       style="opacity:1;fill:#f8f8f2;fill-opacity:1;stroke:#f8f8f2;stroke-width:2.38787px;stroke-linecap:butt;stroke-linejoin:miter;stroke-opacity:1"
       transform="matrix(.2789 0 0 .29725 43.462 60.696)"
       id="path23" /><path
       d="M-82.762-106.161c-2.87-12.549-4.164-22.413-2.739-29.302 1.222-5.904 23.817-21.557 46.442-20.798 14.302.48 34.037 14.41 35.444 18.575C1.673-122.031 2.56-94.8 25.908-103.585 15.206-84.435-8.142-83.17-11.104-87.592c-10.099-15.08-23.738-31.133-47.575-43.746 7.605 5.857 30.108 19.044 21.26 18.256-18.525 0-32.449-.783-45.343 6.92z"
       style="opacity:1;fill:#f8f8f2;fill-opacity:1;stroke:#f8f8f2;stroke-width:2.38787px;stroke-linecap:butt;stroke-linejoin:miter;stroke-opacity:1"
       transform="matrix(.2789 0 0 .29725 43.462 60.696)"
       id="path25" /><path
       d="M-84.335-59.8c-1.91-9.454-2.3-14.202-2.25-17.96-4.444-.22-8.91.677-8.833 6.715.104 8.245 7.063 13.507 11.083 11.245zM-.288-60.625C1.623-70.078 2.069-74.19 2.02-77.95c4.443-.22 7.83.656 7.755 6.694C9.67-63.01 3.733-58.362-.288-60.625z"
       style="fill:#f8f8f2;fill-opacity:1;stroke:#f8f8f2;stroke-width:2.38787px;stroke-linecap:butt;stroke-linejoin:miter;stroke-opacity:1"
       transform="matrix(.2789 0 0 .29725 43.462 60.696)"
       id="path27" /></g></svg>
