<?xml version="1.0" encoding="UTF-8" standalone="no"?>
<svg
   width="64"
   height="64"
   version="1.1"
   viewBox="0 0 16.933 16.933"
   id="svg12"
   sodipodi:docname="passwordsafe.svg"
   inkscape:version="1.2.2 (b0a8486541, 2022-12-01)"
   xmlns:inkscape="http://www.inkscape.org/namespaces/inkscape"
   xmlns:sodipodi="http://sodipodi.sourceforge.net/DTD/sodipodi-0.dtd"
   xmlns="http://www.w3.org/2000/svg"
   xmlns:svg="http://www.w3.org/2000/svg">
  <defs
     id="defs16" />
  <sodipodi:namedview
     id="namedview14"
     pagecolor="#505050"
     bordercolor="#eeeeee"
     borderopacity="1"
     inkscape:showpageshadow="0"
     inkscape:pageopacity="0"
     inkscape:pagecheckerboard="0"
     inkscape:deskcolor="#505050"
     showgrid="false"
     inkscape:zoom="15.921875"
     inkscape:cx="29.895976"
     inkscape:cy="32.031403"
     inkscape:window-width="2560"
     inkscape:window-height="1361"
     inkscape:window-x="0"
     inkscape:window-y="0"
     inkscape:window-maximized="1"
     inkscape:current-layer="svg12" />
  <g
     transform="translate(0 -280.07)"
     paint-order="stroke markers fill"
     id="g10">
    <circle
       cx="8.4665"
       cy="288.53"
       r="7.1436"
       fill="#44c367"
       id="circle2" />
    <circle
       cx="8.467"
       cy="288.53"
       r="5.556"
       fill="#50fa7b"
       id="circle4"
       style="fill:#50fa7b" />
    <path
       d="M5.595 285.662a.132.132 0 0 0 0 .187l5.426 5.426a.794.794 0 0 0 1.138-1.104.132.132 0 0 0-.001-.002.132.132 0 0 0-.015-.017.132.132 0 0 0-.187 0 .132.132 0 0 0 0 .187.53.53 0 1 1-.748.748l-5.426-5.425a.132.132 0 0 0-.187 0z"
       fill="#f8f8f2"
       id="path6" />
    <path
       d="m5.957 286.02a3.175 3.175 0 0 0 0 4.49l4.49-4.49a3.175 3.175 0 0 0-4.49 0z"
       fill="#f8f8f2"
       id="path8" />
  </g>
</svg>
