<?xml version="1.0" encoding="UTF-8" standalone="no"?>
<svg
   width="64"
   height="64"
   version="1.1"
   viewBox="0 0 16.933 16.933"
   id="svg19"
   sodipodi:docname="pcsx-icon.svg"
   inkscape:version="1.2.2 (b0a8486541, 2022-12-01)"
   xmlns:inkscape="http://www.inkscape.org/namespaces/inkscape"
   xmlns:sodipodi="http://sodipodi.sourceforge.net/DTD/sodipodi-0.dtd"
   xmlns="http://www.w3.org/2000/svg"
   xmlns:svg="http://www.w3.org/2000/svg">
  <sodipodi:namedview
     id="namedview21"
     pagecolor="#505050"
     bordercolor="#eeeeee"
     borderopacity="1"
     inkscape:showpageshadow="0"
     inkscape:pageopacity="0"
     inkscape:pagecheckerboard="0"
     inkscape:deskcolor="#505050"
     showgrid="false"
     inkscape:zoom="15.921875"
     inkscape:cx="29.895976"
     inkscape:cy="32.031403"
     inkscape:window-width="2560"
     inkscape:window-height="1361"
     inkscape:window-x="0"
     inkscape:window-y="0"
     inkscape:window-maximized="1"
     inkscape:current-layer="svg19" />
  <defs
     id="defs7">
    <linearGradient
       id="c"
       x1="399.57"
       x2="399.57"
       y1="545.8"
       y2="517.8"
       gradientTransform="matrix(2.1429,0,0,2.1429,-826.36,-1107.5)"
       gradientUnits="userSpaceOnUse">
      <stop
         stop-color="#3889e9"
         offset="0"
         id="stop2" />
      <stop
         stop-color="#5ea5fb"
         offset="1"
         id="stop4" />
    </linearGradient>
  </defs>
  <g
     transform="matrix(.23811 0 0 .23811 .84214 .83643)"
     stroke-width="1.5715"
     id="g15">
    <circle
       cx="32.02"
       cy="32.044"
       r="30.001"
       fill="#476acc"
       id="circle9"
       style="fill:#168daa" />
    <circle
       cx="32.02"
       cy="32.044"
       r="30.001"
       fill-opacity="0"
       id="circle11" />
    <circle
       cx="32.02"
       cy="32.044"
       r="0"
       fill="url(#c)"
       id="circle13" />
  </g>
  <path
     d="m8.4665 5.7057c-3.451 0-4.4863 1.0388-4.4863 5.3512 0 0.68917 2.4157-0.86276 3.1059-1.8981h2.7608c0.6902 1.0353 3.1059 2.5779 3.1059 1.8981 0-4.3138-1.0353-5.3512-4.4863-5.3512zm2.0706 1.0353a0.3451 0.3451 0 0 1 0.3451 0.3451 0.3451 0.3451 0 0 1-0.3451 0.3451 0.3451 0.3451 0 0 1-0.3451-0.3451 0.3451 0.3451 0 0 1 0.3451-0.3451zm-4.1412 0.00346h0.3451v0.6902h0.6902v0.3451h-0.6902v0.6902h-0.3451v-0.69021h-0.6902v-0.3451h0.6902zm3.451 0.68675a0.3451 0.3451 0 0 1 0.3451 0.3451 0.3451 0.3451 0 0 1-0.3451 0.3451 0.3451 0.3451 0 0 1-0.3451-0.3451 0.3451 0.3451 0 0 1 0.3451-0.3451zm1.3804 0a0.3451 0.3451 0 0 1 0.3451 0.3451 0.3451 0.3451 0 0 1-0.3451 0.3451 0.3451 0.3451 0 0 1-0.3451-0.3451 0.3451 0.3451 0 0 1 0.3451-0.3451zm-0.6902 0.6902a0.3451 0.3451 0 0 1 0.3451 0.3451 0.3451 0.3451 0 0 1-0.3451 0.3451 0.3451 0.3451 0 0 1-0.3451-0.3451 0.3451 0.3451 0 0 1 0.3451-0.3451z"
     fill="#f8f8f2"
     stroke-width=".3451"
     id="path17" />
</svg>
