<?xml version="1.0" encoding="UTF-8" standalone="no"?>
<svg
   width="64"
   height="64"
   version="1.1"
   viewBox="0 0 16.933 16.933"
   id="svg8"
   sodipodi:docname="plasma.svg"
   inkscape:version="1.2.2 (b0a8486541, 2022-12-01)"
   xmlns:inkscape="http://www.inkscape.org/namespaces/inkscape"
   xmlns:sodipodi="http://sodipodi.sourceforge.net/DTD/sodipodi-0.dtd"
   xmlns="http://www.w3.org/2000/svg"
   xmlns:svg="http://www.w3.org/2000/svg">
  <defs
     id="defs12" />
  <sodipodi:namedview
     id="namedview10"
     pagecolor="#505050"
     bordercolor="#eeeeee"
     borderopacity="1"
     inkscape:showpageshadow="0"
     inkscape:pageopacity="0"
     inkscape:pagecheckerboard="0"
     inkscape:deskcolor="#505050"
     showgrid="false"
     inkscape:zoom="15.921875"
     inkscape:cx="29.895976"
     inkscape:cy="32.031403"
     inkscape:window-width="2560"
     inkscape:window-height="1361"
     inkscape:window-x="0"
     inkscape:window-y="0"
     inkscape:window-maximized="1"
     inkscape:current-layer="svg8" />
  <g
     transform="matrix(1.0385 0 0 1.0385 -.41232 -.32567)"
     stroke-width=".92729"
     id="g4">
    <path
       d="m8.467 1.588a6.879 6.879 0 1 1 0 13.757 6.879 6.879 0 0 1 0-13.757z"
       fill="#fac93a"
       id="path2"
       style="fill:#ffb86c" />
  </g>
  <path
     d="M8.996 4.232a.53.53 0 1 0 0 1.058.53.53 0 0 0 0-1.058m1.764 0a.53.53 0 1 0 0 1.058.53.53 0 0 0 0-1.058m1.41.705a.53.53 0 1 0 .001 1.059.53.53 0 0 0 0-1.059m-4.637.055c-.404.023-1.022.277-1.571.734-1.41 1.171-2.661 3.508-.77 5.515 1.824 1.933 4.485 1.549 5.386 1.081 1.213-.627 1.195-1.892 1.11-2.197-.307-1.103-1.149-1.411-1.684-1.35-.646.075-1.897.484-2.635-.507-.625-.84-.062-2.052.57-2.48.258-.177.251-.555-.08-.742a.585.585 0 0 0-.327-.054z"
     fill="#f8f8f2"
     id="path6" />
</svg>
