<?xml version="1.0" encoding="UTF-8" standalone="no"?>
<svg
   width="64"
   height="64"
   version="1.1"
   id="svg10"
   sodipodi:docname="plasma-mobile-phone.svg"
   inkscape:version="1.2.2 (b0a8486541, 2022-12-01)"
   xmlns:inkscape="http://www.inkscape.org/namespaces/inkscape"
   xmlns:sodipodi="http://sodipodi.sourceforge.net/DTD/sodipodi-0.dtd"
   xmlns="http://www.w3.org/2000/svg"
   xmlns:svg="http://www.w3.org/2000/svg">
  <defs
     id="defs14" />
  <sodipodi:namedview
     id="namedview12"
     pagecolor="#505050"
     bordercolor="#eeeeee"
     borderopacity="1"
     inkscape:showpageshadow="0"
     inkscape:pageopacity="0"
     inkscape:pagecheckerboard="0"
     inkscape:deskcolor="#505050"
     showgrid="false"
     inkscape:zoom="15.921875"
     inkscape:cx="29.895976"
     inkscape:cy="32.031403"
     inkscape:window-width="2560"
     inkscape:window-height="1361"
     inkscape:window-x="0"
     inkscape:window-y="0"
     inkscape:window-maximized="1"
     inkscape:current-layer="svg10" />
  <g
     transform="matrix(1.35 0 0 1.35 -.40001 -22)"
     stroke-width=".74074"
     id="g8">
    <circle
       cx="24"
       cy="40"
       r="20"
       fill="#cbd2d5"
       id="circle2"
       style="fill:#cbcccc" />
    <circle
       transform="scale(1,-1)"
       cx="24"
       cy="-40"
       r="14"
       fill="#a4b0b6"
       id="circle4"
       style="fill:#9ea0a6" />
    <path
       d="m24.001 46.998a1 1 0 0 1-1-1 1 1 0 0 1 1-1 1 1 0 0 1 1 1 1 1 0 0 1-1 1m-4.2285-1.7578a1 1 0 0 1-0.7207-0.29297 1 1 0 0 1 0-1.4141 1 1 0 0 1 1.4141 0 1 1 0 0 1 0 1.4141 1 1 0 0 1-0.69336 0.29297m8.457 0a1 1 0 0 1-0.69336-0.29297 1 1 0 0 1 0-1.4141 1 1 0 0 1 1.4141 0 1 1 0 0 1 0 1.4141 1 1 0 0 1-0.7207 0.29297m-4.2285-3.2422a2 2 0 0 1-2-2 2 2 0 0 1 2-2 2 2 0 0 1 2 2 2 2 0 0 1-2 2m-6-1a1 1 0 0 1-1-1 1 1 0 0 1 1-1 1 1 0 0 1 1 1 1 1 0 0 1-1 1m12 0a1 1 0 0 1-1-1 1 1 0 0 1 1-1 1 1 0 0 1 1 1 1 1 0 0 1-1 1m-10.258-4.2422a1 1 0 0 1-0.69141-0.29297 1 1 0 0 1 0-1.4141 1 1 0 0 1 1.4141 0 1 1 0 0 1 0 1.4141 1 1 0 0 1-0.72265 0.29297m8.5156 0a1 1 0 0 1-0.72265-0.29297 1 1 0 0 1 0-1.4141 1 1 0 0 1 1.4141 0 1 1 0 0 1 0 1.4141 1 1 0 0 1-0.69141 0.29297m-4.2578-1.7578a1 1 0 0 1-1-1 1 1 0 0 1 1-1 1 1 0 0 1 1 1 1 1 0 0 1-1 1"
       fill="#303334"
       id="path6"
       style="fill:#282a36" />
  </g>
</svg>
