<?xml version="1.0" encoding="UTF-8" standalone="no"?>
<svg
   width="64"
   height="64"
   version="1.1"
   viewBox="0 0 16.933 16.933"
   id="svg16"
   sodipodi:docname="playonlinux.svg"
   inkscape:version="1.2.2 (b0a8486541, 2022-12-01)"
   xmlns:inkscape="http://www.inkscape.org/namespaces/inkscape"
   xmlns:sodipodi="http://sodipodi.sourceforge.net/DTD/sodipodi-0.dtd"
   xmlns="http://www.w3.org/2000/svg"
   xmlns:svg="http://www.w3.org/2000/svg">
  <defs
     id="defs20" />
  <sodipodi:namedview
     id="namedview18"
     pagecolor="#505050"
     bordercolor="#eeeeee"
     borderopacity="1"
     inkscape:showpageshadow="0"
     inkscape:pageopacity="0"
     inkscape:pagecheckerboard="0"
     inkscape:deskcolor="#505050"
     showgrid="false"
     inkscape:zoom="15.921875"
     inkscape:cx="27.76055"
     inkscape:cy="32.031403"
     inkscape:window-width="2560"
     inkscape:window-height="1361"
     inkscape:window-x="0"
     inkscape:window-y="0"
     inkscape:window-maximized="1"
     inkscape:current-layer="svg16" />
  <g
     transform="matrix(1.1896 0 0 1.1896 .97429 -4.1234)"
     stroke-width=".8406"
     id="g14">
    <g
       id="g10">
      <path
         d="m12.303 10.583a6.0049 6.0049 0 0 1-6.0049 6.0049 6.0049 6.0049 0 0 1-6.0049-6.0049 6.0049 6.0049 0 0 1 6.0049-6.0049 6.0049 6.0049 0 0 1 6.0049 6.0049z"
         fill="#6cc862"
         stroke-width=".2224"
         id="path2"
         style="fill:#44c367" />
      <path
         transform="matrix(.2224 0 0 .2224 -.81899 3.4662)"
         d="m5 32c0 14.912 12.088 27 27 27v-27z"
         fill="#60a5cf"
         stroke-width="1"
         id="path4"
         style="fill:#13b1d5" />
      <path
         transform="matrix(.2224 0 0 .2224 -.81899 3.4662)"
         d="m59 32-27 0.16992v26.83c14.912 0 27-12.088 27-27z"
         fill="#e96565"
         stroke-width="1"
         id="path6"
         style="fill:#ff5555" />
      <path
         d="m6.298 10.621v-6.0427c3.3164 0 6.0049 2.6885 6.0049 6.0049"
         fill="#ffcd5f"
         stroke-width=".2224"
         id="path8"
         style="fill:#ffb86c" />
    </g>
    <path
       d="m7.5558 7.0774c-0.72921-0.19569-1.2283 0.80589-1.3453 1.9217-0.29625-1.3165-1.1209-2.4057-1.9935-1.4276-0.32409 0.36412-0.39904 0.65879-0.34985 0.89481-0.24049-0.021293-0.52524 0.087674-0.84974 0.45077-0.76952 0.86206 0.30962 1.5833 1.5903 1.7761-1.2663 0.31542-2.2666 1.1173-1.3142 1.9638 0.3653 0.3238 0.66073 0.39921 0.89716 0.35035-0.021148 0.24 0.087969 0.52427 0.45203 0.84837 0.84552 0.75204 1.5542-0.26174 1.7648-1.5024 0.3537 1.2083 1.176 2.1342 1.9282 1.2905 0.32385-0.36359 0.39946-0.65832 0.35048-0.89431 0.24056 0.02154 0.5251-0.08731 0.85009-0.4507 0.8486-0.95118-0.24321-1.6335-1.5403-1.8007 1.2521-0.33721 2.2448-1.1768 1.3787-1.9461-0.36456-0.32372-0.66034-0.39931-0.89673-0.35063 0.021333-0.24007-0.08741-0.52405-0.45196-0.84873-0.16521-0.14685-0.32257-0.23567-0.47027-0.27531zm-1.2751 3.4953c0.00124 0.0085 0.00151 0.01703 0.00395 0.02547-0.00235-3.97e-4 -0.00487-3.7e-4 -0.00722-7.67e-4 0.00146-8e-3 0.00188-0.01668 0.00327-0.02471z"
       fill="#f8f8f2"
       stroke-width=".15522"
       id="path12" />
  </g>
</svg>
