<?xml version="1.0" encoding="UTF-8" standalone="no"?>
<svg
   width="64"
   height="64"
   version="1.1"
   viewBox="0 0 64 64"
   id="svg21"
   sodipodi:docname="podcast-amarok.svg"
   inkscape:version="1.2.2 (b0a8486541, 2022-12-01)"
   xmlns:inkscape="http://www.inkscape.org/namespaces/inkscape"
   xmlns:sodipodi="http://sodipodi.sourceforge.net/DTD/sodipodi-0.dtd"
   xmlns="http://www.w3.org/2000/svg"
   xmlns:svg="http://www.w3.org/2000/svg">
  <sodipodi:namedview
     id="namedview23"
     pagecolor="#505050"
     bordercolor="#eeeeee"
     borderopacity="1"
     inkscape:showpageshadow="0"
     inkscape:pageopacity="0"
     inkscape:pagecheckerboard="0"
     inkscape:deskcolor="#505050"
     showgrid="false"
     inkscape:zoom="15.921875"
     inkscape:cx="29.895976"
     inkscape:cy="32.031403"
     inkscape:window-width="2560"
     inkscape:window-height="1361"
     inkscape:window-x="0"
     inkscape:window-y="0"
     inkscape:window-maximized="1"
     inkscape:current-layer="svg21" />
  <defs
     id="defs5">
    <clipPath
       id="a">
      <circle
         cx="8.467"
         cy="288.53"
         r="6.879"
         fill="#d86eb0"
         stroke-opacity=".039"
         stroke-width=".491"
         style="paint-order:stroke markers fill"
         id="circle2" />
    </clipPath>
  </defs>
  <circle
     cx="32"
     cy="32"
     r="27"
     fill="#5d6875"
     style="paint-order:stroke markers fill;fill:#44475a"
     id="circle7" />
  <rect
     x="26"
     y="20.04"
     width="12"
     height="20"
     rx="6"
     ry="6"
     fill="#f8f8f2"
     style="paint-order:stroke markers fill"
     id="rect9" />
  <path
     d="m23.5 33.54a0.499 0.499 0 0 0-0.5 0.5 0.499 0.499 0 0 0 6e-3 0.062 9 9 0 0 0 8.994 8.938 9 9 0 0 0 8.996-8.95 0.499 0.499 0 0 0 2e-3 -0.036 9 9 0 0 0 0-0.014 0.499 0.499 0 0 0-0.5-0.498 0.499 0.499 0 0 0-0.498 0.498h-2e-3a7.998 7.998 0 0 1-7.998 8 7.998 7.998 0 0 1-7.996-8h-6e-3a0.499 0.499 0 0 0-0.498-0.498z"
     fill="#f8f8f2"
     style="paint-order:stroke markers fill"
     id="path11" />
  <g
     transform="matrix(3.9251,0,0,3.9251,-1.2322,-1101)"
     clip-path="url(#a)"
     fill="none"
     stroke="#f8f8f2"
     stroke-opacity=".937"
     stroke-width=".127"
     id="g19">
    <path
       d="m1.4854 287.74c0.719 0.15538 1.3906 0.6252 1.9826 1.9807 0.674 1.544 1.623 2.229 2.772 2.283 1.48 0.07 2.673-1.226 3.459-2.385 1.602-2.362 4.5188-2.1357 5.8165-1.2509"
       opacity=".35"
       id="path13" />
    <path
       d="m1.4927 288.13c0.89388-0.34988 2.0828-0.42377 2.8723 0.82673 0.722 1.143 1.576 2.867 4.049 2.709 1.478-0.095 2.956-0.71 3.718-2.15 0.52913-0.93299 1.2601-1.8714 2.2929-2.1036 0.38219-0.0816 0.65524-0.0703 0.97604 0.0566"
       opacity=".35"
       id="path15" />
    <path
       d="m1.7748 290.25c0.94712-0.44412 2.7457-0.95337 4.1972-0.52987 1.297 0.379 2.937 1.847 6.056 1.504 0.824-0.09 1.522-0.563 2.183-1.464 0.4785-0.6525 0.75018-1.0197 1.3056-1.1669"
       opacity=".35"
       id="path17" />
  </g>
</svg>
