<?xml version="1.0" encoding="UTF-8" standalone="no"?>
<svg
   width="64"
   height="64"
   viewBox="0 0 16.933 16.933"
   version="1.1"
   id="svg10"
   sodipodi:docname="podman-desktop.svg"
   inkscape:version="1.2.2 (b0a8486541, 2022-12-01)"
   xmlns:inkscape="http://www.inkscape.org/namespaces/inkscape"
   xmlns:sodipodi="http://sodipodi.sourceforge.net/DTD/sodipodi-0.dtd"
   xmlns="http://www.w3.org/2000/svg"
   xmlns:svg="http://www.w3.org/2000/svg">
  <defs
     id="defs14" />
  <sodipodi:namedview
     id="namedview12"
     pagecolor="#505050"
     bordercolor="#eeeeee"
     borderopacity="1"
     inkscape:showpageshadow="0"
     inkscape:pageopacity="0"
     inkscape:pagecheckerboard="0"
     inkscape:deskcolor="#505050"
     showgrid="false"
     inkscape:zoom="15.921875"
     inkscape:cx="29.895976"
     inkscape:cy="32.031403"
     inkscape:window-width="2560"
     inkscape:window-height="1361"
     inkscape:window-x="0"
     inkscape:window-y="0"
     inkscape:window-maximized="1"
     inkscape:current-layer="svg10" />
  <circle
     cx="8.466"
     cy="8.466"
     r="7.408"
     fill="#554069"
     style="paint-order:stroke fill markers;fill:#9576c5"
     id="circle2" />
  <path
     fill="#cbcccc"
     fill-opacity=".32"
     d="M12.304 7.361c0-.145-.205-.262-.459-.262h-.689v3.409h.689c.254 0 .459-.117.459-.263zm-.458.132a.23.131 0 0 1-.23.13.23.131 0 0 1-.23-.13.23.131 0 0 1 .23-.132.23.131 0 0 1 .23.132zm-.918-.394H9.78v3.409h1.148zm-.46.394a.23.131 0 0 1-.23.13.23.131 0 0 1-.23-.13.23.131 0 0 1 .23-.132.23.131 0 0 1 .23.132zm-.918-.394H8.402v3.409H9.55zm-.458.394a.23.131 0 0 1-.23.13.23.131 0 0 1-.23-.13.23.131 0 0 1 .23-.132.23.131 0 0 1 .23.132zm-.918-.394H7.026v3.409h1.148zm-.46.394a.23.131 0 0 1-.23.13.23.131 0 0 1-.23-.13.23.131 0 0 1 .23-.132.23.131 0 0 1 .23.132zm-.918-.394h-.919c-.254 0-.459.117-.459.262v2.884c0 .146.205.262.46.262h.918zm-.458.394a.23.131 0 0 1-.23.13.23.131 0 0 1-.23-.13.23.131 0 0 1 .23-.132.23.131 0 0 1 .23.132z"
     style="paint-order:markers stroke fill"
     id="path4" />
  <path
     fill="#f8f8f2"
     d="M12.003 7.083c0-.145-.205-.262-.459-.262h-.689v3.408h.689c.254 0 .459-.117.459-.262zm-.458.131a.23.131 0 0 1-.23.131.23.131 0 0 1-.23-.13.23.131 0 0 1 .23-.132.23.131 0 0 1 .23.131zm-.918-.393H9.479v3.408h1.148zm-.46.393a.23.131 0 0 1-.23.131.23.131 0 0 1-.23-.13.23.131 0 0 1 .23-.132.23.131 0 0 1 .23.131zm-.918-.393H8.101v3.408H9.25zm-.458.393a.23.131 0 0 1-.23.131.23.131 0 0 1-.23-.13.23.131 0 0 1 .23-.132.23.131 0 0 1 .23.131zm-.918-.393H6.725v3.408h1.148zm-.46.393a.23.131 0 0 1-.23.131.23.131 0 0 1-.23-.13.23.131 0 0 1 .23-.132.23.131 0 0 1 .23.131zm-.918-.393h-.919c-.254 0-.459.117-.459.262v2.884c0 .145.205.262.46.262h.918zm-.458.393a.23.131 0 0 1-.23.131.23.131 0 0 1-.23-.13.23.131 0 0 1 .23-.132.23.131 0 0 1 .23.131z"
     style="paint-order:markers stroke fill"
     id="path6" />
  <path
     fill="none"
     stroke="#f8f8f2"
     stroke-linecap="round"
     stroke-linejoin="round"
     stroke-width=".247"
     d="m9.039 5.28-3.494 2-3.48-2.026.015-4.027 3.495-2 3.479 2.026z"
     transform="matrix(1.4125 0 0 1.2021 .662 4.663)"
     id="path8" />
</svg>
