<?xml version="1.0" encoding="UTF-8" standalone="no"?>
<svg
   width="64"
   height="64"
   version="1.1"
   viewBox="0 0 16.933 16.933"
   id="svg30"
   sodipodi:docname="polari.svg"
   inkscape:version="1.2.2 (b0a8486541, 2022-12-01)"
   xmlns:inkscape="http://www.inkscape.org/namespaces/inkscape"
   xmlns:sodipodi="http://sodipodi.sourceforge.net/DTD/sodipodi-0.dtd"
   xmlns="http://www.w3.org/2000/svg"
   xmlns:svg="http://www.w3.org/2000/svg"
   xmlns:rdf="http://www.w3.org/1999/02/22-rdf-syntax-ns#"
   xmlns:cc="http://creativecommons.org/ns#"
   xmlns:dc="http://purl.org/dc/elements/1.1/">
  <sodipodi:namedview
     id="namedview32"
     pagecolor="#505050"
     bordercolor="#eeeeee"
     borderopacity="1"
     inkscape:showpageshadow="0"
     inkscape:pageopacity="0"
     inkscape:pagecheckerboard="0"
     inkscape:deskcolor="#505050"
     showgrid="false"
     inkscape:zoom="15.921875"
     inkscape:cx="29.895976"
     inkscape:cy="32.031403"
     inkscape:window-width="2560"
     inkscape:window-height="1361"
     inkscape:window-x="0"
     inkscape:window-y="0"
     inkscape:window-maximized="1"
     inkscape:current-layer="svg30" />
  <metadata
     id="metadata2">
    <rdf:RDF>
      <cc:Work
         rdf:about="">
        <dc:format>image/svg+xml</dc:format>
        <dc:type
           rdf:resource="http://purl.org/dc/dcmitype/StillImage" />
        <dc:title />
      </cc:Work>
    </rdf:RDF>
  </metadata>
  <defs
     id="defs14">
    <linearGradient
       id="c"
       x1="10.583"
       x2="10.583"
       y1="283.51"
       y2="294.62"
       gradientTransform="translate(-.794 .265)"
       gradientUnits="userSpaceOnUse">
      <stop
         stop-color="#69e17c"
         offset="0"
         id="stop4"
         style="stop-color:#50fa7b;stop-opacity:1;" />
      <stop
         stop-color="#5eda82"
         offset="1"
         id="stop6"
         style="stop-color:#44c367;stop-opacity:1;" />
    </linearGradient>
    <linearGradient
       id="d"
       x1="27"
       x2="27"
       y1="50"
       y2="14"
       gradientUnits="userSpaceOnUse">
      <stop
         stop-color="#70bd87"
         offset="0"
         id="stop9"
         style="stop-color:#44c367;stop-opacity:1;" />
      <stop
         stop-color="#70bd87"
         stop-opacity="0"
         offset="1"
         id="stop11"
         style="stop-color:#44c367;stop-opacity:0;" />
    </linearGradient>
  </defs>
  <circle
     cx="8.4665"
     cy="8.4665"
     r="7.1436"
     fill="#f5f5f5"
     style="paint-order:stroke fill markers;fill:#f8f8f2"
     id="circle16" />
  <g
     transform="matrix(.6792 0 0 .6792 2.8059 -187.69)"
     style="paint-order:stroke markers fill"
     id="g28">
    <path
       d="m7.144 282.18a5.556 5.556 0 0 0-5.557 5.557v5.556h5.557a5.556 5.556 0 0 0 5.556-5.556 5.556 5.556 0 0 0-5.556-5.557z"
       fill="#f8f8f2"
       id="path18" />
    <path
       d="m9.79 283.77a5.556 5.556 0 0 1 5.556 5.557v5.556h-5.556a5.556 5.556 0 0 1-5.557-5.556 5.556 5.556 0 0 1 5.557-5.556z"
       fill="url(#c)"
       opacity=".65"
       id="path20" />
    <path
       transform="matrix(.26458 0 0 .26458 0 280.07)"
       d="m37 14a21 21 0 0 0-21 21 21 21 0 0 0 6.332 15h4.668a21 21 0 0 0 21-21 21 21 0 0 0-5.635-14.277 21 21 0 0 0-5.365-0.723z"
       fill="url(#d)"
       id="path22" />
    <rect
       x="7.673"
       y="288.53"
       width="4.762"
       height=".529"
       ry=".265"
       fill="#f8f8f2"
       id="rect24" />
    <rect
       x="7.673"
       y="290.12"
       width="3.969"
       height=".529"
       ry=".265"
       fill="#f8f8f2"
       id="rect26" />
  </g>
</svg>
