<?xml version="1.0" encoding="UTF-8" standalone="no"?>
<svg
   width="64"
   height="64"
   version="1.1"
   id="svg16"
   sodipodi:docname="pop-cosmic-workspaces.svg"
   inkscape:version="1.2.2 (b0a8486541, 2022-12-01)"
   xmlns:inkscape="http://www.inkscape.org/namespaces/inkscape"
   xmlns:sodipodi="http://sodipodi.sourceforge.net/DTD/sodipodi-0.dtd"
   xmlns="http://www.w3.org/2000/svg"
   xmlns:svg="http://www.w3.org/2000/svg">
  <defs
     id="defs20" />
  <sodipodi:namedview
     id="namedview18"
     pagecolor="#505050"
     bordercolor="#eeeeee"
     borderopacity="1"
     inkscape:showpageshadow="0"
     inkscape:pageopacity="0"
     inkscape:pagecheckerboard="0"
     inkscape:deskcolor="#505050"
     showgrid="false"
     inkscape:zoom="15.921875"
     inkscape:cx="29.895976"
     inkscape:cy="32.031403"
     inkscape:window-width="2560"
     inkscape:window-height="1361"
     inkscape:window-x="0"
     inkscape:window-y="0"
     inkscape:window-maximized="1"
     inkscape:current-layer="svg16" />
  <circle
     cx="31.998"
     cy="31.998"
     r="27.001"
     fill="#38c5d7"
     id="circle2"
     style="fill:#4cc3dc" />
  <path
     fill="#f8f8f2"
     d="M21.5 37.25v10.14c0 .613.514 1.11 1.147 1.11h17.956c.633 0 1.147-.497 1.147-1.11V37.25z"
     id="path4" />
  <path
     fill="#ffad00"
     d="M21.5 35.36c0-.613.513-1.11 1.146-1.11h17.957c.634 0 1.147.497 1.147 1.11v1.89H21.5z"
     id="path6"
     style="fill:#ffb86c" />
  <path
     fill="#f8f8f2"
     d="M14 20v10.139c0 .613.514 1.11 1.147 1.11h17.956c.633 0 1.147-.497 1.147-1.11V20z"
     id="path8" />
  <path
     fill="#ffad00"
     d="M14 18.11c0-.613.513-1.11 1.146-1.11h17.957c.634 0 1.147.498 1.147 1.11V20H14z"
     id="path10"
     style="fill:#ffb86c" />
  <path
     fill="#f8f8f2"
     d="M37.25 21.5v6c0 .414.341.75.762.75h11.226c.42 0 .762-.336.762-.75v-6z"
     id="path12" />
  <path
     fill="#ffad00"
     d="M37.25 20c0-.414.34-.75.761-.75H49.24c.42 0 .76.336.76.75v1.5H37.25z"
     id="path14"
     style="fill:#ffb86c" />
</svg>
