<?xml version="1.0" encoding="UTF-8" standalone="no"?>
<svg
   width="64"
   height="64"
   version="1.1"
   id="svg18"
   sodipodi:docname="ppsspp.svg"
   inkscape:version="1.2.2 (b0a8486541, 2022-12-01)"
   xmlns:inkscape="http://www.inkscape.org/namespaces/inkscape"
   xmlns:sodipodi="http://sodipodi.sourceforge.net/DTD/sodipodi-0.dtd"
   xmlns="http://www.w3.org/2000/svg"
   xmlns:svg="http://www.w3.org/2000/svg">
  <defs
     id="defs22" />
  <sodipodi:namedview
     id="namedview20"
     pagecolor="#505050"
     bordercolor="#eeeeee"
     borderopacity="1"
     inkscape:showpageshadow="0"
     inkscape:pageopacity="0"
     inkscape:pagecheckerboard="0"
     inkscape:deskcolor="#505050"
     showgrid="false"
     inkscape:zoom="15.921875"
     inkscape:cx="29.83317"
     inkscape:cy="32.031403"
     inkscape:window-width="1280"
     inkscape:window-height="1361"
     inkscape:window-x="0"
     inkscape:window-y="0"
     inkscape:window-maximized="0"
     inkscape:current-layer="svg18" />
  <rect
     x="5"
     y="5"
     width="54"
     height="54"
     ry="27"
     fill="#f8f8f2"
     stroke-width=".9104"
     id="rect2" />
  <g
     transform="matrix(1.4999,0,0,1.4999,-580.81,-753.64)"
     font-size="12.666px"
     stroke-width=".66672"
     id="g6">
    <text
       x="730.88"
       y="132.19"
       font-family="'Droid Sans'"
       stroke-width=".66672"
       id="text4" />
  </g>
  <g
     transform="matrix(1.4999 0 0 1.4999 -580.81 -753.64)"
     font-size="12.666px"
     stroke-width=".66672"
     id="g10">
    <text
       x="730.88"
       y="132.19"
       font-family="'Droid Sans'"
       stroke-width=".66672"
       id="text8" />
  </g>
  <rect
     x="64.965"
     y="29.793"
     width=".067495"
     height="0"
     fill="#282a36cff"
     opacity=".40741"
     id="rect12" />
  <path
     d="m34.252 13-12.629 2.8906 2.2871 10.084 7.7598 4.9707 4.8691-7.8633-2.2871-10.082zm13.869 8.6621-10.035 2.2988-4.9473 7.7949 7.8242 4.8926 10.037-2.2969-2.8789-12.689zm-25.086 5.6523-10.035 2.2988 2.8789 12.688 10.035-2.2988 4.9473-7.7949-7.8262-4.8926zm9.1348 5.7402-4.8691 7.8613 2.2871 10.084 12.629-2.8926-2.2871-10.082-7.7598-4.9707z"
     fill="#2f6693"
     id="path14"
     style="fill:#515d85" />
  <path
     d="m33.26 14.684-10.016 2.2949 1.752 7.7207 6.123 3.8086 3.8926-6.1016-1.752-7.7227zm13.779 8.6074-7.6836 1.7598-3.791 6.1523 6.0742 3.9102 7.6836-1.7598-2.2832-10.062zm-24.678 5.5586-7.6855 1.7598 2.2832 10.062 7.6855-1.7598 3.791-6.1523-6.0742-3.9102zm10.359 6.6426-3.8926 6.1016 1.752 7.7207 10.016-2.293-1.752-7.7207-6.123-3.8086z"
     fill="#46abd2"
     id="path16"
     style="fill:#13b1d5" />
</svg>
