<?xml version="1.0" encoding="UTF-8" standalone="no"?>
<svg
   width="64"
   height="64"
   version="1.1"
   id="svg39766"
   sodipodi:docname="preferences-system-network-server-installation.svg"
   inkscape:version="1.2.2 (b0a8486541, 2022-12-01)"
   xmlns:inkscape="http://www.inkscape.org/namespaces/inkscape"
   xmlns:sodipodi="http://sodipodi.sourceforge.net/DTD/sodipodi-0.dtd"
   xmlns="http://www.w3.org/2000/svg"
   xmlns:svg="http://www.w3.org/2000/svg">
  <defs
     id="defs39770" />
  <sodipodi:namedview
     id="namedview39768"
     pagecolor="#505050"
     bordercolor="#eeeeee"
     borderopacity="1"
     inkscape:showpageshadow="0"
     inkscape:pageopacity="0"
     inkscape:pagecheckerboard="0"
     inkscape:deskcolor="#505050"
     showgrid="false"
     inkscape:zoom="15.921875"
     inkscape:cx="29.895976"
     inkscape:cy="32.031403"
     inkscape:window-width="2560"
     inkscape:window-height="1361"
     inkscape:window-x="0"
     inkscape:window-y="0"
     inkscape:window-maximized="1"
     inkscape:current-layer="svg39766" />
  <rect
     width="54"
     height="54"
     x="5"
     y="5"
     fill="#44475a"
     rx="27"
     ry="27"
     style="paint-order:stroke markers fill"
     id="rect39740" />
  <path
     fill="#f8f8f2"
     d="M16 15h19v2H16z"
     id="path39742" />
  <circle
     cx="40"
     cy="16"
     r="2"
     fill="#44c367"
     id="circle39744" />
  <circle
     cx="47"
     cy="16"
     r="2"
     fill="#44c367"
     id="circle39746" />
  <path
     fill="#f8f8f2"
     d="M11 31h24v2H11z"
     id="path39748" />
  <circle
     cx="40"
     cy="32"
     r="2"
     fill="#44c367"
     id="circle39750" />
  <circle
     cx="47"
     cy="32"
     r="2"
     fill="#44c367"
     id="circle39752" />
  <path
     fill="#f8f8f2"
     d="M16 47h19v2H16z"
     id="path39754" />
  <path
     d="M6.906 22c-.386.974-.72 1.974-.992 3h52.172a26.803 26.803 0 0 0-.992-3zM5.672 38c.23 1.023.517 2.025.86 3h50.937c.343-.975.629-1.977.86-3z"
     opacity=".25"
     style="paint-order:fill markers stroke"
     id="path39756" />
  <circle
     cx="40"
     cy="48"
     r="2"
     fill="#44c367"
     id="circle39758" />
  <circle
     cx="47"
     cy="48"
     r="2"
     fill="#44c367"
     id="circle39760" />
  <circle
     cx="46"
     cy="46"
     r="18"
     fill="#4fcf71"
     fill-rule="evenodd"
     style="paint-order:fill markers stroke;fill:#44c367"
     id="circle39762" />
  <path
     fill="#f8f8f2"
     d="M42 33v8h2v-6h4v6h2v-8zm-4.586 8L36 42.414l10 10 10-10L54.586 41 46 49.586l-2-2zM34 53v4h24v-4h-2v2H36v-2z"
     id="path39764" />
</svg>
