<?xml version="1.0" encoding="UTF-8" standalone="no"?>
<svg
   width="64"
   height="64"
   version="1.1"
   id="svg8"
   sodipodi:docname="preferences-desktop-plasma.svg"
   inkscape:version="1.3.2 (091e20ef0f, 2023-11-25, custom)"
   xmlns:inkscape="http://www.inkscape.org/namespaces/inkscape"
   xmlns:sodipodi="http://sodipodi.sourceforge.net/DTD/sodipodi-0.dtd"
   xmlns="http://www.w3.org/2000/svg"
   xmlns:svg="http://www.w3.org/2000/svg">
  <sodipodi:namedview
     id="namedview8"
     pagecolor="#f8f8f2"
     bordercolor="#282a36"
     borderopacity="0.25"
     inkscape:showpageshadow="2"
     inkscape:pageopacity="0.0"
     inkscape:pagecheckerboard="0"
     inkscape:deskcolor="#d1d1d1"
     inkscape:zoom="12.875"
     inkscape:cx="31.961165"
     inkscape:cy="32"
     inkscape:window-width="1920"
     inkscape:window-height="1040"
     inkscape:window-x="0"
     inkscape:window-y="0"
     inkscape:window-maximized="1"
     inkscape:current-layer="svg8" />
  <defs
     id="defs2">
    <linearGradient
       id="a"
       x1="14.679"
       x2="2.293"
       y1="293.79"
       y2="282.98"
       gradientTransform="matrix(3.7795 0 0 3.9436 0 -1105.9)"
       gradientUnits="userSpaceOnUse">
      <stop
         offset="0"
         stop-color="#66bcff"
         id="stop1" />
      <stop
         offset="1"
         stop-color="#b29aff"
         id="stop2" />
    </linearGradient>
  </defs>
  <rect
     width="55.999"
     height="48.001"
     x="4"
     y="8"
     fill="url(#a)"
     rx="5"
     ry="5"
     id="rect2"
     style="fill:#44475a" />
  <rect
     width="50"
     height="4"
     x="6.999"
     y="10"
     opacity=".35"
     rx="2"
     ry="2"
     id="rect3" />
  <rect
     width="3.999"
     height="1.999"
     x="8"
     y="11"
     opacity=".35"
     ry="1.002"
     style="paint-order:stroke markers fill"
     id="rect4" />
  <rect
     width="10.001"
     height="1.999"
     x="27.001"
     y="11"
     opacity=".35"
     ry="1.002"
     style="paint-order:stroke markers fill"
     id="rect5" />
  <rect
     width="1.999"
     height="1.999"
     x="53.999"
     y="11"
     opacity=".35"
     ry="1.002"
     style="paint-order:stroke markers fill"
     id="rect6" />
  <rect
     width="3.001"
     height="1.999"
     x="50"
     y="11"
     opacity=".35"
     ry="1.002"
     style="paint-order:stroke markers fill"
     id="rect7" />
  <rect
     width="1.999"
     height="1.999"
     x="46.999"
     y="11"
     opacity=".35"
     ry="1.002"
     style="paint-order:stroke markers fill"
     id="rect8" />
  <path
     fill="#f8f8f2"
     d="M26 22.43c-.831 0-1.5.669-1.5 1.5s.669 1.5 1.5 1.5 1.5-.669 1.5-1.5-.669-1.5-1.5-1.5zm9.429 0L32 25.859 37.143 31 32 36.145l3.429 3.429L44 31.002l-3.429-3.43zm-13.18 9c-1.246 0-2.25 1.004-2.25 2.25s1.004 2.25 2.25 2.25 2.25-1.004 2.25-2.25-1.003-2.25-2.25-2.25zm6.75 9c-1.661 0-3 1.338-3 3s1.339 3 3 3 3-1.338 3-3-1.337-3-3-3z"
     id="path8" />
</svg>
