<?xml version="1.0" encoding="UTF-8" standalone="no"?>
<svg
   width="64"
   height="64"
   version="1.1"
   id="svg33973"
   sodipodi:docname="preferences-system-network-server-kerberos.svg"
   inkscape:version="1.2.2 (b0a8486541, 2022-12-01)"
   xmlns:inkscape="http://www.inkscape.org/namespaces/inkscape"
   xmlns:sodipodi="http://sodipodi.sourceforge.net/DTD/sodipodi-0.dtd"
   xmlns="http://www.w3.org/2000/svg"
   xmlns:svg="http://www.w3.org/2000/svg">
  <defs
     id="defs33977" />
  <sodipodi:namedview
     id="namedview33975"
     pagecolor="#505050"
     bordercolor="#eeeeee"
     borderopacity="1"
     inkscape:showpageshadow="0"
     inkscape:pageopacity="0"
     inkscape:pagecheckerboard="0"
     inkscape:deskcolor="#505050"
     showgrid="false"
     inkscape:zoom="15.921875"
     inkscape:cx="29.895976"
     inkscape:cy="32.031403"
     inkscape:window-width="2560"
     inkscape:window-height="1361"
     inkscape:window-x="0"
     inkscape:window-y="0"
     inkscape:window-maximized="1"
     inkscape:current-layer="svg33973" />
  <rect
     width="54"
     height="54"
     x="5"
     y="5"
     fill="#44475a"
     rx="27"
     ry="27"
     style="paint-order:stroke markers fill"
     id="rect33947" />
  <path
     fill="#f8f8f2"
     d="M16 15h19v2H16z"
     id="path33949" />
  <circle
     cx="40"
     cy="16"
     r="2"
     fill="#44c367"
     id="circle33951" />
  <circle
     cx="47"
     cy="16"
     r="2"
     fill="#44c367"
     id="circle33953" />
  <path
     fill="#f8f8f2"
     d="M11 31h24v2H11z"
     id="path33955" />
  <circle
     cx="40"
     cy="32"
     r="2"
     fill="#44c367"
     id="circle33957" />
  <circle
     cx="47"
     cy="32"
     r="2"
     fill="#44c367"
     id="circle33959" />
  <path
     fill="#f8f8f2"
     d="M16 47h19v2H16z"
     id="path33961" />
  <path
     d="M6.906 22c-.386.974-.72 1.974-.992 3h52.172a26.803 26.803 0 0 0-.992-3zM5.672 38c.23 1.023.517 2.025.86 3h50.937c.343-.975.629-1.977.86-3z"
     opacity=".25"
     style="paint-order:fill markers stroke"
     id="path33963" />
  <circle
     cx="40"
     cy="48"
     r="2"
     fill="#44c367"
     id="circle33965" />
  <circle
     cx="47"
     cy="48"
     r="2"
     fill="#44c367"
     id="circle33967" />
  <circle
     cx="46"
     cy="46"
     r="18"
     fill="#3f9cd3"
     fill-rule="evenodd"
     style="paint-order:fill markers stroke;fill:#168daa"
     id="circle33969" />
  <path
     fill="#f8f8f2"
     d="m52 33-4 4-4 2-2 2-10 2v4l2 2v2l2 2v2l2 2h14l2 2 6-6-2-2-2-10-4 4-4 2-2 2-9.308 1.864-.692-.692V48.64l8.988-1.8 2.2-2.2 4-2 3.284-3.284L54 37l-4 4-4 2-2 2-9.308 1.864-.692-.692V44.64l8.988-1.8 2.2-2.2 4-2 3.284-3.284z"
     id="path33971" />
</svg>
