<?xml version="1.0" encoding="UTF-8" standalone="no"?>
<svg
   width="64"
   height="64"
   version="1.1"
   id="svg24582"
   sodipodi:docname="preferences-system-splash.svg"
   inkscape:version="1.2.2 (b0a8486541, 2022-12-01)"
   xmlns:inkscape="http://www.inkscape.org/namespaces/inkscape"
   xmlns:sodipodi="http://sodipodi.sourceforge.net/DTD/sodipodi-0.dtd"
   xmlns="http://www.w3.org/2000/svg"
   xmlns:svg="http://www.w3.org/2000/svg">
  <defs
     id="defs24586" />
  <sodipodi:namedview
     id="namedview24584"
     pagecolor="#505050"
     bordercolor="#eeeeee"
     borderopacity="1"
     inkscape:showpageshadow="0"
     inkscape:pageopacity="0"
     inkscape:pagecheckerboard="0"
     inkscape:deskcolor="#505050"
     showgrid="false"
     inkscape:zoom="15.921875"
     inkscape:cx="29.895976"
     inkscape:cy="32.031403"
     inkscape:window-width="2560"
     inkscape:window-height="1361"
     inkscape:window-x="0"
     inkscape:window-y="0"
     inkscape:window-maximized="1"
     inkscape:current-layer="svg24582" />
  <linearGradient
     id="b"
     x1="19.577"
     x2="16"
     y1="12.05"
     y2="12.05"
     gradientTransform="translate(44.967 1009.3)"
     gradientUnits="userSpaceOnUse">
    <stop
       offset="0"
       stop-color="#f8f8f2"
       stop-opacity="0"
       id="stop24558" />
    <stop
       offset="1"
       stop-color="#f8f8f2"
       id="stop24560" />
  </linearGradient>
  <linearGradient
     id="a"
     x1="19.514"
     x2="15"
     y1="15.555"
     y2="11"
     gradientTransform="translate(44.967 1009.3)"
     gradientUnits="userSpaceOnUse">
    <stop
       offset="0"
       stop-color="#f3f3f3"
       id="stop24563"
       style="stop-color:#f8f8f2;stop-opacity:1;" />
    <stop
       offset="1"
       stop-color="#f8f8f2"
       stop-opacity="0"
       id="stop24565" />
  </linearGradient>
  <circle
     cx="32"
     cy="32"
     r="27"
     fill="#f8f8f2"
     style="paint-order:stroke fill markers"
     id="circle24568" />
  <rect
     width="20"
     height="15"
     x="22"
     y="33"
     fill="#6d7680"
     fill-rule="evenodd"
     rx="2.584"
     ry="2.584"
     style="paint-order:stroke fill markers;fill:#717380"
     id="rect24570" />
  <rect
     width="38"
     height="28"
     x="13"
     y="17"
     fill="#2f3337"
     rx="6"
     ry="6"
     id="rect24572"
     style="fill:#44475a" />
  <rect
     width="34"
     height="24"
     x="15"
     y="19"
     fill="#44475a"
     rx="4"
     ry="4"
     id="rect24574"
     style="fill:#9576c5" />
  <g
     stroke-width=".5"
     id="g24580">
    <path
       fill="url(#a)"
       d="M60.967 1015.3a6 6 0 0 0-6 6 6 6 0 0 0 6 6 6 6 0 0 0 6-6 6 6 0 0 0-6-6zm0 1a5 5 0 0 1 5 5 5 5 0 0 1-5 5 5 5 0 0 1-5-5 5 5 0 0 1 5-5z"
       transform="translate(-49.29 -1330.74) scale(1.33334)"
       id="path24576" />
    <path
       fill="url(#b)"
       d="M60.967 1015.3a6 6 0 0 0-6 6 6 6 0 0 0 6 6 6 6 0 0 0 4.215-1.736l-.701-.71a5 5 0 0 1-3.514 1.446 5 5 0 0 1-5-5 5 5 0 0 1 5-5z"
       transform="translate(-49.29 -1330.74) scale(1.33334)"
       id="path24578" />
  </g>
</svg>
