<?xml version="1.0" encoding="UTF-8" standalone="no"?>
<svg
   width="64"
   height="64"
   version="1.1"
   id="svg6"
   sodipodi:docname="preferences-security-apparmor.svg"
   inkscape:version="1.3.2 (091e20ef0f, 2023-11-25, custom)"
   xmlns:inkscape="http://www.inkscape.org/namespaces/inkscape"
   xmlns:sodipodi="http://sodipodi.sourceforge.net/DTD/sodipodi-0.dtd"
   xmlns:xlink="http://www.w3.org/1999/xlink"
   xmlns="http://www.w3.org/2000/svg"
   xmlns:svg="http://www.w3.org/2000/svg">
  <defs
     id="defs6" />
  <sodipodi:namedview
     id="namedview6"
     pagecolor="#f8f8f2"
     bordercolor="#282a36"
     borderopacity="0.25"
     inkscape:showpageshadow="2"
     inkscape:pageopacity="0.0"
     inkscape:pagecheckerboard="0"
     inkscape:deskcolor="#d1d1d1"
     inkscape:zoom="12.875"
     inkscape:cx="31.961165"
     inkscape:cy="32"
     inkscape:window-width="1920"
     inkscape:window-height="1040"
     inkscape:window-x="0"
     inkscape:window-y="0"
     inkscape:window-maximized="1"
     inkscape:current-layer="svg6" />
  <linearGradient
     xlink:href="#a"
     id="c"
     x1="32"
     x2="32"
     y1="54"
     y2="9"
     gradientUnits="userSpaceOnUse" />
  <linearGradient
     xlink:href="#a"
     id="b"
     x1="28.385"
     x2="28.385"
     y1="27.846"
     y2="3.615"
     gradientUnits="userSpaceOnUse" />
  <linearGradient
     id="a">
    <stop
       offset="0"
       stop-color="#eff0f1"
       id="stop1" />
    <stop
       offset="1"
       stop-color="#f8f8f2"
       id="stop2" />
  </linearGradient>
  <path
     fill="#2a4f5d"
     d="M31.999 4c-6.82 3.612-13.64 5.088-20.46 6.46v26.926c0 7.54 11.052 17.836 20.46 22.614 9.408-4.778 20.46-15.074 20.46-22.614V10.462c-6.82-1.374-13.64-2.85-20.46-6.462z"
     id="path2"
     style="fill:#282a36" />
  <g
     stroke-width=".269"
     id="g4">
    <path
       fill="#d55443"
       d="M41.503 10.838 22.529 48.786c2.946 2.746 6.254 5.272 9.47 6.906 7.96-4.042 17.23-13.006 17.23-19.384V12.616a122.196 122.196 0 0 1-7.726-1.778z"
       id="path3"
       style="fill:#c7484a" />
    <path
       fill="url(#b)"
       d="M16 3.615c-2.886 1.529-5.73 2.112-8.615 2.693v11.846c0 1.9 1.707 4.215 3.88 6.24l9.487-18.975c-1.58-.426-3.16-.96-4.752-1.804z"
       transform="matrix(2 0 0 2 -.001 0)"
       id="path4" />
  </g>
  <g
     stroke-width=".928"
     id="g6">
    <path
       fill="url(#c)"
       d="m24 14 16 32 8-16h-4l-1 2h-6l-9-18zm14 20h4l-2 4z"
       transform="translate(-2.461 -2.46) scale(1.07692)"
       id="path5" />
    <path
       fill="#d55443"
       d="m23.385 12.617-8.615 17.23h4.307l1.077-2.153h6.462L35.77 46h4.307zm0 8.615 2.154 4.308H21.23z"
       id="path6"
       style="fill:#c7484a" />
  </g>
</svg>
