<?xml version="1.0" encoding="UTF-8" standalone="no"?>
<svg
   width="64"
   height="64"
   version="1.1"
   viewBox="0 0 64 64"
   id="svg22"
   sodipodi:docname="preferences-desktop-navigation.svg"
   inkscape:version="1.2.2 (b0a8486541, 2022-12-01)"
   xmlns:inkscape="http://www.inkscape.org/namespaces/inkscape"
   xmlns:sodipodi="http://sodipodi.sourceforge.net/DTD/sodipodi-0.dtd"
   xmlns="http://www.w3.org/2000/svg"
   xmlns:svg="http://www.w3.org/2000/svg">
  <defs
     id="defs26" />
  <sodipodi:namedview
     id="namedview24"
     pagecolor="#505050"
     bordercolor="#eeeeee"
     borderopacity="1"
     inkscape:showpageshadow="0"
     inkscape:pageopacity="0"
     inkscape:pagecheckerboard="0"
     inkscape:deskcolor="#505050"
     showgrid="false"
     inkscape:zoom="15.921875"
     inkscape:cx="29.895976"
     inkscape:cy="32.031403"
     inkscape:window-width="2560"
     inkscape:window-height="1361"
     inkscape:window-x="0"
     inkscape:window-y="0"
     inkscape:window-maximized="1"
     inkscape:current-layer="svg22" />
  <rect
     x="5"
     y="5"
     width="54"
     height="54"
     ry="27"
     fill="#f8f8f2"
     stroke-width=".9104"
     id="rect2" />
  <path
     d="m32 8c13.296 0 24 10.704 24 24s-10.704 24-24 24-24-10.704-24-24 10.704-24 24-24z"
     opacity=".15"
     stroke-width="1.7143"
     id="path4" />
  <path
     d="m36 36-18 10 10-18z"
     fill="#3a3c3d"
     stroke-width="1.054"
     id="path6"
     style="fill:#44475a" />
  <path
     d="m28 28 18-10-10 18z"
     fill="#c7484a"
     stroke-width="1.054"
     id="path8"
     style="fill:#c7484a" />
  <path
     d="m33 12h-2v-4h2z"
     fill="#44475a"
     stroke-width="2.8284"
     id="path10" />
  <path
     d="m34 32a2 2 0 0 1-2 2 2 2 0 0 1-2-2 2 2 0 0 1 2-2 2 2 0 0 1 2 2z"
     fill="#bdc3c7"
     stroke-width="2"
     id="path12" />
  <path
     d="m33 32a1 1 0 0 1-1 1 1 1 0 0 1-1-1 1 1 0 0 1 1-1 1 1 0 0 1 1 1z"
     fill="#9fa5a8"
     stroke-width="2"
     id="path14"
     style="fill:#9ea0a6" />
  <path
     d="m12 31v2h-4v-2z"
     fill="#44475a"
     stroke-width="2.8284"
     id="path16" />
  <path
     d="m56 31v2h-4v-2z"
     fill="#44475a"
     stroke-width="2.8284"
     id="path18" />
  <path
     d="m33 56h-2v-4h2z"
     fill="#44475a"
     stroke-width="2.8284"
     id="path20" />
</svg>
