<?xml version="1.0" encoding="UTF-8" standalone="no"?>
<svg
   width="64"
   height="64"
   version="1.1"
   id="svg37505"
   sodipodi:docname="preferences-system-network-server-ldap.svg"
   inkscape:version="1.2.2 (b0a8486541, 2022-12-01)"
   xmlns:inkscape="http://www.inkscape.org/namespaces/inkscape"
   xmlns:sodipodi="http://sodipodi.sourceforge.net/DTD/sodipodi-0.dtd"
   xmlns="http://www.w3.org/2000/svg"
   xmlns:svg="http://www.w3.org/2000/svg">
  <defs
     id="defs37509" />
  <sodipodi:namedview
     id="namedview37507"
     pagecolor="#505050"
     bordercolor="#eeeeee"
     borderopacity="1"
     inkscape:showpageshadow="0"
     inkscape:pageopacity="0"
     inkscape:pagecheckerboard="0"
     inkscape:deskcolor="#505050"
     showgrid="false"
     inkscape:zoom="15.921875"
     inkscape:cx="29.895976"
     inkscape:cy="32.031403"
     inkscape:window-width="2560"
     inkscape:window-height="1361"
     inkscape:window-x="0"
     inkscape:window-y="0"
     inkscape:window-maximized="1"
     inkscape:current-layer="svg37505" />
  <rect
     width="54"
     height="54"
     x="5"
     y="5"
     fill="#44475a"
     rx="27"
     ry="27"
     style="paint-order:stroke markers fill"
     id="rect37479" />
  <path
     fill="#f8f8f2"
     d="M16 15h19v2H16z"
     id="path37481" />
  <circle
     cx="40"
     cy="16"
     r="2"
     fill="#44c367"
     id="circle37483" />
  <circle
     cx="47"
     cy="16"
     r="2"
     fill="#44c367"
     id="circle37485" />
  <path
     fill="#f8f8f2"
     d="M11 31h24v2H11z"
     id="path37487" />
  <circle
     cx="40"
     cy="32"
     r="2"
     fill="#44c367"
     id="circle37489" />
  <circle
     cx="47"
     cy="32"
     r="2"
     fill="#44c367"
     id="circle37491" />
  <path
     fill="#f8f8f2"
     d="M16 47h19v2H16z"
     id="path37493" />
  <path
     d="M6.906 22c-.386.974-.72 1.974-.992 3h52.172a26.803 26.803 0 0 0-.992-3zM5.672 38c.23 1.023.517 2.025.86 3h50.937c.343-.975.629-1.977.86-3z"
     opacity=".25"
     style="paint-order:fill markers stroke"
     id="path37495" />
  <circle
     cx="40"
     cy="48"
     r="2"
     fill="#44c367"
     id="circle37497" />
  <circle
     cx="47"
     cy="48"
     r="2"
     fill="#44c367"
     id="circle37499" />
  <circle
     cx="46"
     cy="46"
     r="18"
     fill="#ffb86c"
     fill-rule="evenodd"
     style="paint-order:fill markers stroke;fill:#ffb86c"
     id="circle37501" />
  <path
     fill="#f8f8f2"
     d="M36 34v4h-2v4h2v8h-2v4h2v4h22V34zm2 2h2v20h-2zm4 0h14v20H42z"
     id="path37503" />
</svg>
