<?xml version="1.0" encoding="UTF-8" standalone="no"?>
<svg
   width="64"
   height="64"
   version="1.1"
   id="svg17"
   sodipodi:docname="preferences-desktop-gestures-touch.svg"
   inkscape:version="1.2.2 (b0a8486541, 2022-12-01)"
   xmlns:inkscape="http://www.inkscape.org/namespaces/inkscape"
   xmlns:sodipodi="http://sodipodi.sourceforge.net/DTD/sodipodi-0.dtd"
   xmlns="http://www.w3.org/2000/svg"
   xmlns:svg="http://www.w3.org/2000/svg">
  <defs
     id="defs21" />
  <sodipodi:namedview
     id="namedview19"
     pagecolor="#505050"
     bordercolor="#eeeeee"
     borderopacity="1"
     inkscape:showpageshadow="0"
     inkscape:pageopacity="0"
     inkscape:pagecheckerboard="0"
     inkscape:deskcolor="#505050"
     showgrid="false"
     inkscape:zoom="15.921875"
     inkscape:cx="29.83317"
     inkscape:cy="32.031403"
     inkscape:window-width="1280"
     inkscape:window-height="1361"
     inkscape:window-x="0"
     inkscape:window-y="0"
     inkscape:window-maximized="0"
     inkscape:current-layer="svg17" />
  <linearGradient
     id="k"
     x1="15"
     x2="9"
     y1="9"
     y2="9"
     gradientTransform="matrix(3.5556 0 0 8 -19.55 -44)"
     gradientUnits="userSpaceOnUse">
    <stop
       stop-color="#a1daff"
       offset="0"
       id="stop2"
       style="stop-color:#8be9fd;stop-opacity:1;" />
    <stop
       stop-color="#abebf9"
       stop-opacity="0"
       offset="1"
       id="stop4"
       style="stop-color:#a6edfa;stop-opacity:0;" />
  </linearGradient>
  <rect
     x="4"
     y="4"
     width="55.999"
     height="55.999"
     ry="28"
     fill="#4cc3dc"
     stroke-width="3.9198"
     style="paint-order:stroke markers fill;fill:#4cc3dc"
     id="rect7" />
  <path
     d="m32 4c-5.9602 0-11.47 1.8495-16 5h32c-4.5305-3.1505-10.04-5-16-5z"
     opacity=".35"
     stroke-width="6.8086"
     style="paint-order:stroke markers fill"
     id="path9" />
  <rect
     x="27"
     y="5.9718"
     width="10"
     height="2"
     ry="1.0019"
     opacity=".35"
     stroke-width="3.7796"
     style="paint-order:stroke markers fill"
     id="rect11" />
  <path
     d="m12.45 20h21.333v8h-21.333z"
     fill="url(#k)"
     fill-rule="evenodd"
     stroke-width="1.3333"
     id="path13" />
  <path
     d="m35.018 44 10.982-0.07029 1.2429-12.431c0.26059-2.5201-2.8631-3.5693-3.7288-1.2429 0.01027-2.7944-2.8631-3.1441-3.7305-1.2446 0.10972-2.3076-2.8236-3.2008-3.7288-1.2429v-4.9717c0-3.7288-3.7288-3.7288-3.7288 0v11.188c-6.2163-6.2163-7.7404-1.7487-7.7404-1.7487 4.2243 2.8511 6.806 11.788 10.432 11.764z"
     fill="#f8f8f2"
     stroke-width="1.3333"
     id="path15" />
</svg>
