<?xml version="1.0" encoding="UTF-8" standalone="no"?>
<svg
   width="64"
   height="64"
   version="1.1"
   id="svg26706"
   sodipodi:docname="preferences-system-services.svg"
   inkscape:version="1.2.2 (b0a8486541, 2022-12-01)"
   xmlns:inkscape="http://www.inkscape.org/namespaces/inkscape"
   xmlns:sodipodi="http://sodipodi.sourceforge.net/DTD/sodipodi-0.dtd"
   xmlns="http://www.w3.org/2000/svg"
   xmlns:svg="http://www.w3.org/2000/svg">
  <defs
     id="defs26710" />
  <sodipodi:namedview
     id="namedview26708"
     pagecolor="#505050"
     bordercolor="#eeeeee"
     borderopacity="1"
     inkscape:showpageshadow="0"
     inkscape:pageopacity="0"
     inkscape:pagecheckerboard="0"
     inkscape:deskcolor="#505050"
     showgrid="false"
     inkscape:zoom="15.921875"
     inkscape:cx="29.895976"
     inkscape:cy="32.031403"
     inkscape:window-width="2560"
     inkscape:window-height="1361"
     inkscape:window-x="0"
     inkscape:window-y="0"
     inkscape:window-maximized="1"
     inkscape:current-layer="svg26706" />
  <circle
     cx="31.998"
     cy="32.013"
     r="27.001"
     fill="#f4e3d7"
     style="paint-order:stroke markers fill;fill:#cbcccc"
     id="circle26688" />
  <g
     stroke-width=".5"
     id="g26704">
    <path
       fill="#8b6c52"
       d="M19.143 32.714a1.25 1.25 0 0 0-.798.28 1.286 1.286 0 0 0-.463.75 1.293 1.293 0 0 0-.024.256 2.562 2.562 0 0 1-1.64 2.394 2.573 2.573 0 0 1-.495.139 2.573 2.573 0 0 1-.437.039.652.652 0 0 0-.218.036.783.783 0 0 0-.249.138 1.178 1.178 0 0 0-.228.232 2.205 2.205 0 0 0-.29.508 3.189 3.189 0 0 0-.142.424 4.028 4.028 0 0 0-.15.976 5.22 5.22 0 0 0-.009.257v1.286h36v-1.286a5.143 5.143 0 0 0-.158-1.233 3.693 3.693 0 0 0-.142-.424 2.696 2.696 0 0 0-.187-.356 1.462 1.462 0 0 0-.331-.382.783.783 0 0 0-.467-.176 2.571 2.571 0 0 1-.437-.039 2.573 2.573 0 0 1-.728-.24A2.571 2.571 0 0 1 46.143 34a1.292 1.292 0 0 0-.057-.38 1.282 1.282 0 0 0-.245-.45 1.286 1.286 0 0 0-.4-.315 1.282 1.282 0 0 0-.583-.14H32z"
       id="path26690"
       style="fill:#c7925b" />
    <path
       fill="#44475a"
       d="m39.715 32.714-1.286-1.285h-1.286l1.286 1.285zm-15.429 0 1.286-1.285h1.286l-1.286 1.285z"
       id="path26692" />
    <path
       fill="#9ea0a6"
       d="M44.584 30.143h-25.18c-.173.846-.26.422-.26 1.286h25.714c-.005-.864-.097-.44-.274-1.286z"
       opacity=".998"
       id="path26694" />
    <path
       fill="#cbcccc"
       d="M30.715 17.286v3.857h2.571v-3.857z"
       id="path26696"
       style="fill:#cbcccc" />
    <path
       fill="#f8f8f2"
       d="M32 19.857a12.857 12.857 0 0 0-12.596 10.286h25.18A12.857 12.857 0 0 0 32 19.857z"
       opacity=".998"
       id="path26698" />
    <path
       fill="#f8f8f2"
       d="M32 14.714a2.571 2.571 0 0 0-2.57 2.572 2.571 1.286 0 0 0 1.285 1.112 2.571 1.286 0 0 0 2.571 0 2.571 1.286 0 0 0 1.286-1.112 2.571 2.571 0 0 0-2.571-2.572z"
       id="path26700" />
    <path
       fill="#5c5049"
       d="M14 40.429h36V43H14z"
       id="path26702"
       style="fill:#282a36" />
  </g>
</svg>
