<?xml version="1.0" encoding="UTF-8" standalone="no"?>
<svg
   width="64"
   height="64"
   version="1.1"
   viewBox="0 0 16.933 16.933"
   id="svg2939"
   sodipodi:docname="preferences-desktop-keyboard-shortcuts.svg"
   inkscape:version="1.2.2 (b0a8486541, 2022-12-01)"
   xmlns:inkscape="http://www.inkscape.org/namespaces/inkscape"
   xmlns:sodipodi="http://sodipodi.sourceforge.net/DTD/sodipodi-0.dtd"
   xmlns="http://www.w3.org/2000/svg"
   xmlns:svg="http://www.w3.org/2000/svg">
  <defs
     id="defs2943" />
  <sodipodi:namedview
     id="namedview2941"
     pagecolor="#505050"
     bordercolor="#eeeeee"
     borderopacity="1"
     inkscape:showpageshadow="0"
     inkscape:pageopacity="0"
     inkscape:pagecheckerboard="0"
     inkscape:deskcolor="#505050"
     showgrid="false"
     inkscape:zoom="15.921875"
     inkscape:cx="29.393523"
     inkscape:cy="32.031403"
     inkscape:window-width="1280"
     inkscape:window-height="1361"
     inkscape:window-x="1280"
     inkscape:window-y="0"
     inkscape:window-maximized="0"
     inkscape:current-layer="svg2939" />
  <circle
     cx="8.4665"
     cy="8.4665"
     r="7.1436"
     fill="#44475a"
     stroke-width=".26458"
     style="paint-order:stroke fill markers;fill:#44475a"
     id="circle2889" />
  <g
     transform="matrix(.26458 0 0 .26458 -4.2711e-8 .53577)"
     fill="#f8f8f2"
     id="g2933"
     style="fill:#f8f8f2">
    <rect
       x="20"
       y="37.975"
       width="24"
       height="5"
       ry="1.025"
       paint-order="markers stroke fill"
       id="rect2891"
       style="fill:#f8f8f2" />
    <circle
       cx="16"
       cy="20"
       r="2"
       style="paint-order:stroke fill markers;fill:#f8f8f2"
       id="circle2893" />
    <circle
       cx="22"
       cy="20"
       r="2"
       style="paint-order:stroke fill markers;fill:#f8f8f2"
       id="circle2895" />
    <circle
       cx="28"
       cy="20"
       r="2"
       style="paint-order:stroke fill markers;fill:#f8f8f2"
       id="circle2897" />
    <circle
       cx="34"
       cy="20"
       r="2"
       style="paint-order:stroke fill markers;fill:#f8f8f2"
       id="circle2899" />
    <circle
       cx="40"
       cy="20"
       r="2"
       style="paint-order:stroke fill markers;fill:#f8f8f2"
       id="circle2901" />
    <circle
       cx="46"
       cy="20"
       r="2"
       style="paint-order:stroke fill markers;fill:#f8f8f2"
       id="circle2903" />
    <circle
       cx="13"
       cy="26"
       r="2"
       style="paint-order:stroke fill markers;fill:#f8f8f2"
       id="circle2905" />
    <circle
       cx="19"
       cy="26"
       r="2"
       fill="#fd7e7c"
       style="paint-order:stroke fill markers;fill:#f8f8f2"
       id="circle2907" />
    <circle
       cx="25"
       cy="26"
       r="2"
       style="paint-order:stroke fill markers;fill:#f8f8f2"
       id="circle2909" />
    <circle
       cx="31"
       cy="26"
       r="2"
       style="paint-order:stroke fill markers;fill:#f8f8f2"
       id="circle2911" />
    <circle
       cx="37"
       cy="26"
       r="2"
       style="paint-order:stroke fill markers;fill:#f8f8f2"
       id="circle2913" />
    <circle
       cx="43"
       cy="26"
       r="2"
       fill="#fd7e7c"
       style="paint-order:stroke fill markers;fill:#ff5555"
       id="circle2915" />
    <circle
       cx="49"
       cy="26"
       r="2"
       style="paint-order:stroke fill markers;fill:#f8f8f2"
       id="circle2917" />
    <circle
       cx="15"
       cy="32"
       r="2"
       fill="#fd7e7c"
       style="paint-order:stroke fill markers;fill:#ff5555"
       id="circle2919" />
    <circle
       cx="21"
       cy="32"
       r="2"
       fill="#fd7e7c"
       style="paint-order:stroke fill markers;fill:#ff5555"
       id="circle2921" />
    <circle
       cx="27"
       cy="32"
       r="2"
       style="paint-order:stroke fill markers;fill:#f8f8f2"
       id="circle2923" />
    <circle
       cx="33"
       cy="32"
       r="2"
       style="paint-order:stroke fill markers;fill:#f8f8f2"
       id="circle2925" />
    <circle
       cx="39"
       cy="32"
       r="2"
       style="paint-order:stroke fill markers;fill:#f8f8f2"
       id="circle2927" />
    <circle
       cx="45"
       cy="32"
       r="2"
       style="paint-order:stroke fill markers;fill:#f8f8f2"
       id="circle2929" />
    <circle
       cx="51"
       cy="32"
       r="2"
       style="paint-order:stroke fill markers;fill:#f8f8f2"
       id="circle2931" />
  </g>
  <circle
     cx="13.229"
     cy="13.229"
     r="3.175"
     fill="#9ea0a6"
     id="circle2935"
     style="fill:#9ea0a6;fill-opacity:1" />
  <path
     d="m12.753 11.324-0.042 0.502a1.497 1.497 0 0 0-0.438 0.253l-0.456-0.215-0.476 0.825 0.414 0.287a1.497 1.497 0 0 0-0.023 0.253 1.497 1.497 0 0 0 0.022 0.254l-0.413 0.286 0.476 0.825 0.455-0.214a1.497 1.497 0 0 0 0.439 0.251l0.042 0.503h0.952l0.042-0.502a1.497 1.497 0 0 0 0.438-0.253l0.456 0.215 0.476-0.825-0.414-0.288a1.497 1.497 0 0 0 0.023-0.252 1.497 1.497 0 0 0-0.022-0.254l0.413-0.286-0.476-0.825-0.455 0.214a1.497 1.497 0 0 0-0.439-0.251l-0.042-0.503zm0.476 1.27a0.635 0.635 0 0 1 0.635 0.635 0.635 0.635 0 0 1-0.635 0.635 0.635 0.635 0 0 1-0.635-0.635 0.635 0.635 0 0 1 0.635-0.635z"
     fill="#f8f8f2"
     id="path2937"
     style="fill:#f8f8f2" />
</svg>
