<?xml version="1.0" encoding="UTF-8" standalone="no"?>
<svg
   width="64"
   height="64"
   viewBox="0 0 16.933 16.933"
   version="1.1"
   id="svg5"
   sodipodi:docname="preferences-system-privacy.svg"
   inkscape:version="1.3.2 (091e20ef0f, 2023-11-25, custom)"
   xmlns:inkscape="http://www.inkscape.org/namespaces/inkscape"
   xmlns:sodipodi="http://sodipodi.sourceforge.net/DTD/sodipodi-0.dtd"
   xmlns="http://www.w3.org/2000/svg"
   xmlns:svg="http://www.w3.org/2000/svg">
  <defs
     id="defs5" />
  <sodipodi:namedview
     id="namedview5"
     pagecolor="#f8f8f2"
     bordercolor="#282a36"
     borderopacity="0.25"
     inkscape:showpageshadow="2"
     inkscape:pageopacity="0.0"
     inkscape:pagecheckerboard="0"
     inkscape:deskcolor="#d1d1d1"
     inkscape:zoom="12.875"
     inkscape:cx="31.961165"
     inkscape:cy="32"
     inkscape:window-width="1920"
     inkscape:window-height="1040"
     inkscape:window-x="0"
     inkscape:window-y="0"
     inkscape:window-maximized="1"
     inkscape:current-layer="g5" />
  <g
     transform="translate(0 -280.07)"
     id="g5">
    <rect
       width="13.758"
       height="12.7"
       x="1.587"
       y="282.18"
       fill="#8a61b8"
       paint-order="stroke markers fill"
       rx="2.116"
       ry="2.116"
       id="rect1"
       style="fill:#6272a4" />
    <path
       fill="#ececeb"
       d="M13.131 288.238c-.1-.14-.209-.27-.32-.4-.593-.695-1.274-1.314-2.02-1.763-.476-.288-.987-.52-1.515-.63a3.997 3.997 0 0 0-.81-.087c-.268 0-.537.03-.806.086-.529.112-1.037.343-1.514.63-.746.45-1.428 1.07-2.024 1.764-.11.129-.216.26-.316.4a.48.48 0 0 0 0 .59c.303.426.665.803 1.03 1.15.792.742 1.699 1.364 2.698 1.616a3.808 3.808 0 0 0 1.863 0c.999-.252 1.907-.874 2.7-1.617a7.883 7.883 0 0 0 1.032-1.148.487.487 0 0 0 0-.591m0 0"
       id="path1" />
    <path
       fill="#4586f9"
       d="M10.85 288.53a2.382 2.382 0 1 1-4.763 0 2.382 2.382 0 0 1 4.763 0"
       id="path2" />
    <path
       fill="#141414"
       d="M9.792 288.53a1.322 1.322 0 1 1-2.645 0 1.322 1.322 0 0 1 2.645 0"
       id="path3" />
    <path
       fill="#f8f8f2"
       d="M9.527 288a.529.529 0 1 1-1.058 0 .529.529 0 0 1 1.058 0"
       id="path4" />
    <path
       fill="#d5122d"
       d="m10.317 285.813-4.3 5.099c.196.127.396.24.602.342l4.297-5.1c-.191-.134-.414-.246-.6-.34m0 0"
       id="path5" />
  </g>
</svg>
