<?xml version="1.0" encoding="UTF-8" standalone="no"?>
<svg
   width="64"
   height="64"
   version="1.1"
   id="svg41661"
   sodipodi:docname="preferences-system-network-remote.svg"
   inkscape:version="1.2.2 (b0a8486541, 2022-12-01)"
   xmlns:inkscape="http://www.inkscape.org/namespaces/inkscape"
   xmlns:sodipodi="http://sodipodi.sourceforge.net/DTD/sodipodi-0.dtd"
   xmlns="http://www.w3.org/2000/svg"
   xmlns:svg="http://www.w3.org/2000/svg">
  <defs
     id="defs41665" />
  <sodipodi:namedview
     id="namedview41663"
     pagecolor="#505050"
     bordercolor="#eeeeee"
     borderopacity="1"
     inkscape:showpageshadow="0"
     inkscape:pageopacity="0"
     inkscape:pagecheckerboard="0"
     inkscape:deskcolor="#505050"
     showgrid="false"
     inkscape:zoom="15.921875"
     inkscape:cx="29.895976"
     inkscape:cy="32.031403"
     inkscape:window-width="2560"
     inkscape:window-height="1361"
     inkscape:window-x="0"
     inkscape:window-y="0"
     inkscape:window-maximized="1"
     inkscape:current-layer="svg41661" />
  <rect
     width="55.999"
     height="55.999"
     x="4"
     y="4"
     fill="#86aeff"
     ry="28"
     style="paint-order:stroke markers fill;fill:#4cc3dc"
     id="rect41649" />
  <path
     d="M32 4c-5.96 0-11.47 1.85-16 5h32c-4.53-3.15-10.04-5-16-5z"
     opacity=".35"
     style="paint-order:stroke markers fill"
     id="path41651" />
  <rect
     width="10"
     height="2"
     x="27"
     y="5.972"
     opacity=".35"
     ry="1.002"
     style="paint-order:stroke markers fill"
     id="rect41653" />
  <g
     fill="#f8f8f2"
     stroke-width=".5"
     id="g41659">
    <path
       d="M32 20a18 18 0 0 0-15.754 9.336 3.96 3.96 0 0 0 1.312 1.816A16 16 0 0 1 32 22a8 8 0 0 0-8 8 8 8 0 0 0 8 8 8 8 0 0 0 8-8 8 8 0 0 0-7.3-7.964 16 16 0 0 1 13.74 9.116 3.95 3.95 0 0 0 1.32-1.836A18 18 0 0 0 32 20zm0 4a6 6 0 0 1 6 6 6 6 0 0 1-6 6 6 6 0 0 1-6-6 6 6 0 0 1 6-6zm0 2a4 4 0 0 0-4 4 4 4 0 0 0 4 4 4 4 0 0 0 4-4 4 4 0 0 0-.18-1.176A2 2 0 0 1 34 30a2 2 0 0 1-2-2 2 2 0 0 1 1.18-1.82A4 4 0 0 0 32 26z"
       id="path41655" />
    <path
       d="M16 18v22h14v4h-6v2h16v-2h-6v-4h14V18H18zm2 2h28v18H18z"
       id="path41657" />
  </g>
</svg>
