<?xml version="1.0" encoding="UTF-8" standalone="no"?>
<svg
   width="64"
   height="64"
   version="1.1"
   id="svg23554"
   sodipodi:docname="preferences-virtualization-container.svg"
   inkscape:version="1.2.2 (b0a8486541, 2022-12-01)"
   xmlns:inkscape="http://www.inkscape.org/namespaces/inkscape"
   xmlns:sodipodi="http://sodipodi.sourceforge.net/DTD/sodipodi-0.dtd"
   xmlns="http://www.w3.org/2000/svg"
   xmlns:svg="http://www.w3.org/2000/svg">
  <defs
     id="defs23558" />
  <sodipodi:namedview
     id="namedview23556"
     pagecolor="#505050"
     bordercolor="#eeeeee"
     borderopacity="1"
     inkscape:showpageshadow="0"
     inkscape:pageopacity="0"
     inkscape:pagecheckerboard="0"
     inkscape:deskcolor="#505050"
     showgrid="false"
     inkscape:zoom="15.921875"
     inkscape:cx="29.895976"
     inkscape:cy="32.031403"
     inkscape:window-width="2560"
     inkscape:window-height="1361"
     inkscape:window-x="0"
     inkscape:window-y="0"
     inkscape:window-maximized="1"
     inkscape:current-layer="svg23554" />
  <circle
     cx="32"
     cy="32"
     r="27"
     fill="#7bbbeb"
     style="paint-order:stroke fill markers;fill:#72bfd0"
     id="circle23544" />
  <path
     fill="#39719b"
     d="M36 38h15v4H36zm-23 0h15v4H13zm0-16h15v4H13zm23 0h15v4H36zm0 8h15v4H36zm-23 0h15v4H13z"
     id="path23546"
     style="fill:#6272a4" />
  <path
     fill="#282a36"
     d="M32 8A24 24 0 0 0 8 32a24 24 0 0 0 24 24 24 24 0 0 0 24-24A24 24 0 0 0 32 8zm0 2a22 22 0 0 1 22 22 22 22 0 0 1-22 22 22 22 0 0 1-22-22 22 22 0 0 1 22-22z"
     style="paint-order:stroke fill markers"
     id="path23548" />
  <path
     fill="#f8f8f2"
     d="M19 11a1 .875 0 0 0-1 .875v40.25a1 .875 0 0 0 2 0v-40.25A1 .875 0 0 0 19 11zm6 0a1 .875 0 0 0-1 .875v40.25a1 .875 0 0 0 2 0v-40.25A1 .875 0 0 0 25 11zm14 0a1 .875 0 0 0-1 .875v40.25a1 .875 0 0 0 2 0v-40.25A1 .875 0 0 0 39 11zm6 0a1 .875 0 0 0-1 .875v40.25a1 .875 0 0 0 2 0v-40.25A1 .875 0 0 0 45 11z"
     id="path23550" />
  <rect
     width="2"
     height="46"
     x="31"
     y="9"
     fill="#282a36"
     fill-rule="evenodd"
     rx="0"
     ry="0"
     style="paint-order:stroke fill markers"
     id="rect23552" />
</svg>
