<?xml version="1.0" encoding="UTF-8" standalone="no"?>
<svg
   width="64"
   height="64"
   version="1.1"
   id="svg16"
   sodipodi:docname="preferences-desktop-gestures-touch.svg"
   inkscape:version="1.3.2 (091e20ef0f, 2023-11-25, custom)"
   xmlns:inkscape="http://www.inkscape.org/namespaces/inkscape"
   xmlns:sodipodi="http://sodipodi.sourceforge.net/DTD/sodipodi-0.dtd"
   xmlns="http://www.w3.org/2000/svg"
   xmlns:svg="http://www.w3.org/2000/svg">
  <sodipodi:namedview
     id="namedview16"
     pagecolor="#f8f8f2"
     bordercolor="#282a36"
     borderopacity="0.25"
     inkscape:showpageshadow="2"
     inkscape:pageopacity="0.0"
     inkscape:pagecheckerboard="0"
     inkscape:deskcolor="#d1d1d1"
     inkscape:zoom="12.875"
     inkscape:cx="31.961165"
     inkscape:cy="32"
     inkscape:window-width="1920"
     inkscape:window-height="1040"
     inkscape:window-x="0"
     inkscape:window-y="0"
     inkscape:window-maximized="1"
     inkscape:current-layer="svg16" />
  <defs
     id="defs2">
    <linearGradient
       id="a"
       x1="14.679"
       x2="2.293"
       y1="293.79"
       y2="282.98"
       gradientTransform="matrix(3.7795 0 0 3.9436 0 -1105.9)"
       gradientUnits="userSpaceOnUse">
      <stop
         offset="0"
         stop-color="#66bcff"
         id="stop1" />
      <stop
         offset="1"
         stop-color="#b29aff"
         id="stop2" />
    </linearGradient>
  </defs>
  <linearGradient
     id="b"
     x1="15"
     x2="9"
     y1="9"
     y2="9"
     gradientTransform="matrix(2.6667 0 0 6 -6.694 -25)"
     gradientUnits="userSpaceOnUse">
    <stop
       offset="0"
       stop-color="#a1daff"
       id="stop3" />
    <stop
       offset="1"
       stop-color="#abebf9"
       stop-opacity="0"
       id="stop4" />
  </linearGradient>
  <rect
     width="55.999"
     height="48.001"
     x="4"
     y="8"
     fill="url(#a)"
     rx="5"
     ry="5"
     id="rect4"
     style="fill:#44475a" />
  <rect
     width="50"
     height="4"
     x="6.999"
     y="10"
     opacity=".35"
     rx="2"
     ry="2"
     id="rect5" />
  <rect
     width="3.999"
     height="1.999"
     x="8"
     y="11"
     opacity=".35"
     ry="1.002"
     style="paint-order:stroke markers fill"
     id="rect6" />
  <rect
     width="10.001"
     height="1.999"
     x="27.001"
     y="11"
     opacity=".35"
     ry="1.002"
     style="paint-order:stroke markers fill"
     id="rect7" />
  <rect
     width="1.999"
     height="1.999"
     x="53.999"
     y="11"
     opacity=".35"
     ry="1.002"
     style="paint-order:stroke markers fill"
     id="rect8" />
  <rect
     width="3.001"
     height="1.999"
     x="50"
     y="11"
     opacity=".35"
     ry="1.002"
     style="paint-order:stroke markers fill"
     id="rect9" />
  <rect
     width="1.999"
     height="1.999"
     x="46.999"
     y="11"
     opacity=".35"
     ry="1.002"
     style="paint-order:stroke markers fill"
     id="rect10" />
  <rect
     width="37.996"
     height="5"
     x="13.002"
     y="48.001"
     fill="#f8f8f2"
     opacity=".35"
     paint-order="markers stroke fill"
     rx="1"
     ry="1"
     id="rect11" />
  <g
     fill="#ccdfff"
     transform="translate(0 6.51) scale(3.7796)"
     id="g15">
    <rect
       width="1.323"
       height="1.323"
       x="4.233"
       y="10.448"
       rx=".264"
       ry=".264"
       style="paint-order:stroke markers fill"
       id="rect12" />
    <rect
       width="1.323"
       height="1.323"
       x="6.614"
       y="10.448"
       rx=".264"
       ry=".264"
       style="paint-order:stroke markers fill"
       id="rect13" />
    <rect
       width="1.323"
       height="1.323"
       x="8.996"
       y="10.448"
       rx=".264"
       ry=".264"
       style="paint-order:stroke markers fill"
       id="rect14" />
    <rect
       width="1.323"
       height="1.323"
       x="11.376"
       y="10.448"
       rx=".264"
       ry=".264"
       style="paint-order:stroke markers fill"
       id="rect15" />
  </g>
  <path
     fill="url(#b)"
     fill-rule="evenodd"
     d="M17.306 23h16v6h-16z"
     id="path15" />
  <path
     fill="#f8f8f2"
     d="m33.628 41 8.237-.053.932-9.323c.195-1.89-2.147-2.677-2.797-.932.008-2.096-2.147-2.358-2.798-.934.083-1.73-2.117-2.4-2.796-.932v-3.729c0-2.796-2.797-2.796-2.797 0v8.391c-4.662-4.662-5.805-1.311-5.805-1.311 3.168 2.138 5.104 8.84 7.824 8.823z"
     id="path16" />
</svg>
