<?xml version="1.0" encoding="UTF-8" standalone="no"?>
<svg
   width="64"
   height="64"
   version="1.1"
   id="svg24062"
   sodipodi:docname="preferences-system-startup.svg"
   inkscape:version="1.2.2 (b0a8486541, 2022-12-01)"
   xmlns:inkscape="http://www.inkscape.org/namespaces/inkscape"
   xmlns:sodipodi="http://sodipodi.sourceforge.net/DTD/sodipodi-0.dtd"
   xmlns="http://www.w3.org/2000/svg"
   xmlns:svg="http://www.w3.org/2000/svg">
  <defs
     id="defs24066" />
  <sodipodi:namedview
     id="namedview24064"
     pagecolor="#505050"
     bordercolor="#eeeeee"
     borderopacity="1"
     inkscape:showpageshadow="0"
     inkscape:pageopacity="0"
     inkscape:pagecheckerboard="0"
     inkscape:deskcolor="#505050"
     showgrid="false"
     inkscape:zoom="15.921875"
     inkscape:cx="29.895976"
     inkscape:cy="32.031403"
     inkscape:window-width="2560"
     inkscape:window-height="1361"
     inkscape:window-x="0"
     inkscape:window-y="0"
     inkscape:window-maximized="1"
     inkscape:current-layer="svg24062" />
  <circle
     cx="32"
     cy="32"
     r="27"
     fill="#f8f8f2"
     style="paint-order:stroke fill markers"
     id="circle24048" />
  <rect
     width="20"
     height="15"
     x="22"
     y="33"
     fill="#6d7680"
     fill-rule="evenodd"
     rx="2.584"
     ry="2.584"
     style="paint-order:stroke fill markers;fill:#717380"
     id="rect24050" />
  <rect
     width="38"
     height="28"
     x="13"
     y="17"
     fill="#2f3337"
     rx="6"
     ry="6"
     id="rect24052"
     style="fill:#44475a" />
  <rect
     width="34"
     height="24"
     x="15"
     y="19"
     fill="#191b1e"
     rx="4"
     ry="4"
     id="rect24054"
     style="fill:#282a36" />
  <g
     opacity=".5"
     id="g24060">
    <path
       fill="#f8f8f2"
       d="M22 22h10v1H22zm0 6h8v1h-8zm0 2h8v1h-8zm0 2h6v1h-6zm0-8h8v1h-8zm0 2h6v1h-6zm0 8h10v1H22zm0 2h6v1h-6z"
       id="path24056" />
    <path
       fill="#41f045"
       d="M18 22h3v1h-3zm0 2h3v1h-3zm0 2h3v1h-3zm0 2h3v1h-3zm0 2h3v1h-3zm0 2h3v1h-3zm0 2h3v1h-3zm0 2h3v1h-3z"
       id="path24058"
       style="fill:#50fa7b" />
  </g>
</svg>
