<?xml version="1.0" encoding="UTF-8" standalone="no"?>
<svg
   width="64"
   height="64"
   version="1.1"
   id="svg7"
   sodipodi:docname="preferences-devices-tree.svg"
   inkscape:version="1.3.2 (091e20ef0f, 2023-11-25, custom)"
   xmlns:inkscape="http://www.inkscape.org/namespaces/inkscape"
   xmlns:sodipodi="http://sodipodi.sourceforge.net/DTD/sodipodi-0.dtd"
   xmlns="http://www.w3.org/2000/svg"
   xmlns:svg="http://www.w3.org/2000/svg">
  <defs
     id="defs7" />
  <sodipodi:namedview
     id="namedview7"
     pagecolor="#f8f8f2"
     bordercolor="#282a36"
     borderopacity="0.25"
     inkscape:showpageshadow="2"
     inkscape:pageopacity="0.0"
     inkscape:pagecheckerboard="0"
     inkscape:deskcolor="#d1d1d1"
     inkscape:zoom="12.875"
     inkscape:cx="31.961165"
     inkscape:cy="32"
     inkscape:window-width="1920"
     inkscape:window-height="1040"
     inkscape:window-x="0"
     inkscape:window-y="0"
     inkscape:window-maximized="1"
     inkscape:current-layer="svg7" />
  <rect
     width="52"
     height="52"
     x="6"
     y="6"
     fill="#f8f8f2"
     rx="8"
     ry="8"
     style="paint-order:markers stroke fill"
     id="rect1" />
  <path
     fill="#474f50"
     d="m31.376 15.22-10 8L21 24v11.52l-9.626 7.7 1.25 1.56L22 37.28l9.376 7.5 1.248-1.56L23 35.52V24.48l9-7.2 9 7.2V36l.376.78 10 8 1.25-1.56L43 35.52V24l-.376-.78-10-8z"
     id="path1" />
  <rect
     width="12"
     height="12"
     x="26"
     y="9"
     fill="#e16e7b"
     rx="1.5"
     id="rect2"
     style="fill:#ff79c6" />
  <rect
     width="12"
     height="12"
     x="16"
     y="23"
     fill="#a779be"
     rx="1.5"
     id="rect3"
     style="fill:#bd93f9" />
  <rect
     width="12"
     height="12"
     x="36"
     y="23"
     fill="#a779be"
     rx="1.5"
     id="rect4"
     style="fill:#bd93f9" />
  <g
     fill="#58b072"
     id="g7">
    <rect
       width="12"
       height="12"
       x="42"
       y="42"
       rx="1.5"
       id="rect5"
       style="fill:#44c367" />
    <rect
       width="12"
       height="12"
       x="26"
       y="42"
       rx="1.5"
       id="rect6"
       style="fill:#44c367" />
    <rect
       width="12"
       height="12"
       x="10"
       y="42"
       rx="1.5"
       id="rect7"
       style="fill:#44c367" />
  </g>
</svg>
