<?xml version="1.0" encoding="UTF-8" standalone="no"?>
<svg
   width="64"
   height="64"
   version="1.1"
   id="svg23406"
   sodipodi:docname="preferences-virtualization-vm-install.svg"
   inkscape:version="1.2.2 (b0a8486541, 2022-12-01)"
   xmlns:inkscape="http://www.inkscape.org/namespaces/inkscape"
   xmlns:sodipodi="http://sodipodi.sourceforge.net/DTD/sodipodi-0.dtd"
   xmlns="http://www.w3.org/2000/svg"
   xmlns:svg="http://www.w3.org/2000/svg">
  <defs
     id="defs23410" />
  <sodipodi:namedview
     id="namedview23408"
     pagecolor="#505050"
     bordercolor="#eeeeee"
     borderopacity="1"
     inkscape:showpageshadow="0"
     inkscape:pageopacity="0"
     inkscape:pagecheckerboard="0"
     inkscape:deskcolor="#505050"
     showgrid="false"
     inkscape:zoom="15.921875"
     inkscape:cx="29.895976"
     inkscape:cy="32.031403"
     inkscape:window-width="2560"
     inkscape:window-height="1361"
     inkscape:window-x="0"
     inkscape:window-y="0"
     inkscape:window-maximized="1"
     inkscape:current-layer="svg23406" />
  <path
     fill="#f8f8f2"
     d="M8.953 17.998A27 27 0 0 0 5 32a27 27 0 0 0 27 27 27 27 0 0 0 27-27 27 27 0 0 0-3.943-14.002 27 27 0 0 0-.002 0z"
     style="paint-order:stroke fill markers"
     id="path23382" />
  <path
     fill="#717380"
     d="M32.002 5A27.001 27.001 0 0 0 8.954 17.998h46.104A27.001 27.001 0 0 0 32.002 4.996z"
     style="paint-order:stroke markers fill"
     id="path23384" />
  <rect
     width="3.001"
     height="3.001"
     x="44.002"
     y="12"
     opacity=".35"
     ry="1.5"
     style="paint-order:stroke markers fill"
     id="rect23386" />
  <rect
     width="3.001"
     height="3.001"
     x="38"
     y="12"
     opacity=".35"
     ry="1.5"
     style="paint-order:stroke markers fill"
     id="rect23388" />
  <rect
     width="3.001"
     height="3.001"
     x="31.998"
     y="12"
     opacity=".35"
     ry="1.5"
     style="paint-order:stroke markers fill"
     id="rect23390" />
  <g
     stroke-width=".58"
     id="g23402">
    <path
       fill="#ff5555"
       d="M12 27h3.529l4.118 11.429 4.117-11.43h3.53L21.41 43h-3.529z"
       id="path23392" />
    <path
       fill="#282a36"
       d="m24.942 43 5.882-16h3.53L28.47 43zm11.765 0 5.882-16h3.53l-5.883 16z"
       id="path23394" />
    <path
       fill="#9ea0a6"
       d="m21.412 43 5.882-16h3.53L24.94 43zm11.765 0 5.882-16h3.53l-5.883 16z"
       id="path23396" />
    <path
       fill="#cbcccc"
       d="M36.706 43h-3.53l-5.882-16h3.53zm11.765 0h-3.53L39.06 27h3.53z"
       id="path23398" />
    <path
       fill="#44475a"
       d="m30.824 27 5.882 16h3.53l-5.883-16zm11.765 0 5.882 16h3.53l-5.883-16z"
       id="path23400" />
  </g>
  <path
     fill="#27ae60"
     d="M53 38v12.172l-4.586-4.586L47 47l7 7 7-7-1.414-1.414L55 50.172V38z"
     id="path23404"
     style="fill:#44c367" />
</svg>
