<?xml version="1.0" encoding="UTF-8" standalone="no"?>
<svg
   width="64"
   height="64"
   version="1.1"
   id="svg18"
   sodipodi:docname="preferences-devices-tree.svg"
   inkscape:version="1.2.2 (b0a8486541, 2022-12-01)"
   xmlns:inkscape="http://www.inkscape.org/namespaces/inkscape"
   xmlns:sodipodi="http://sodipodi.sourceforge.net/DTD/sodipodi-0.dtd"
   xmlns="http://www.w3.org/2000/svg"
   xmlns:svg="http://www.w3.org/2000/svg">
  <defs
     id="defs22" />
  <sodipodi:namedview
     id="namedview20"
     pagecolor="#505050"
     bordercolor="#eeeeee"
     borderopacity="1"
     inkscape:showpageshadow="0"
     inkscape:pageopacity="0"
     inkscape:pagecheckerboard="0"
     inkscape:deskcolor="#505050"
     showgrid="false"
     inkscape:zoom="15.921875"
     inkscape:cx="29.895976"
     inkscape:cy="32.031403"
     inkscape:window-width="2560"
     inkscape:window-height="1361"
     inkscape:window-x="0"
     inkscape:window-y="0"
     inkscape:window-maximized="1"
     inkscape:current-layer="svg18" />
  <circle
     cx="32"
     cy="33"
     r="27"
     fill="#f0f0f0"
     style="paint-order:stroke fill markers;fill:#f8f8f2"
     id="circle2" />
  <path
     fill="#474f50"
     d="m31.376 15.22-10 8L21 24v11.52l-9.626 7.7 1.25 1.56L22 37.28l9.376 7.5 1.248-1.56L23 35.52V24.48l9-7.2 9 7.2V36l.376.78 10 8 1.25-1.56L43 35.52V24l-.376-.78-10-8z"
     id="path4"
     style="fill:#44475a" />
  <circle
     cx="15"
     cy="43"
     r="5"
     fill="#58b072"
     style="paint-order:stroke fill markers;fill:#44c367"
     id="circle6" />
  <circle
     cx="29"
     cy="43"
     r="5"
     fill="#58b072"
     style="paint-order:stroke fill markers;fill:#44c367"
     id="circle8" />
  <circle
     cx="49"
     cy="43"
     r="5"
     fill="#58b072"
     style="paint-order:stroke fill markers;fill:#44c367"
     id="circle10" />
  <circle
     cx="22"
     cy="27"
     r="5"
     fill="#a779be"
     style="paint-order:stroke fill markers;fill:#9576c5"
     id="circle12" />
  <circle
     cx="42"
     cy="27"
     r="5"
     fill="#a779be"
     style="paint-order:stroke fill markers;fill:#9576c5"
     id="circle14" />
  <circle
     cx="32"
     cy="14"
     r="5"
     fill="#e16e7b"
     style="paint-order:stroke fill markers;fill:#fd7e7c"
     id="circle16" />
</svg>
