<?xml version="1.0" encoding="UTF-8" standalone="no"?>
<svg
   width="64"
   height="64"
   version="1.1"
   id="svg10"
   sodipodi:docname="preferences-desktop-plasma.svg"
   inkscape:version="1.2.2 (b0a8486541, 2022-12-01)"
   xmlns:inkscape="http://www.inkscape.org/namespaces/inkscape"
   xmlns:sodipodi="http://sodipodi.sourceforge.net/DTD/sodipodi-0.dtd"
   xmlns="http://www.w3.org/2000/svg"
   xmlns:svg="http://www.w3.org/2000/svg">
  <defs
     id="defs14" />
  <sodipodi:namedview
     id="namedview12"
     pagecolor="#505050"
     bordercolor="#eeeeee"
     borderopacity="1"
     inkscape:showpageshadow="0"
     inkscape:pageopacity="0"
     inkscape:pagecheckerboard="0"
     inkscape:deskcolor="#505050"
     showgrid="false"
     inkscape:zoom="15.921875"
     inkscape:cx="29.895976"
     inkscape:cy="32.031403"
     inkscape:window-width="2560"
     inkscape:window-height="1361"
     inkscape:window-x="0"
     inkscape:window-y="0"
     inkscape:window-maximized="1"
     inkscape:current-layer="svg10" />
  <rect
     x="4"
     y="4"
     width="55.999"
     height="55.999"
     ry="28"
     fill="#86aeff"
     stroke-width="3.9198"
     style="paint-order:stroke markers fill;fill:#6272a4"
     id="rect2" />
  <path
     d="m32 4c-5.9602 0-11.47 1.8495-16 5h32c-4.5305-3.1505-10.04-5-16-5z"
     opacity=".35"
     stroke-width="6.8086"
     style="paint-order:stroke markers fill"
     id="path4" />
  <rect
     x="27"
     y="5.9718"
     width="10"
     height="2"
     ry="1.0019"
     opacity=".35"
     stroke-width="3.7796"
     style="paint-order:stroke markers fill"
     id="rect6" />
  <path
     d="m26 20c-0.831 0-1.5 0.669-1.5 1.5s0.669 1.5 1.5 1.5 1.5-0.669 1.5-1.5-0.669-1.5-1.5-1.5zm9.4286 0-3.4286 3.4286 5.1429 5.1429-5.1429 5.1428 3.4286 3.4286 8.5714-8.5714-3.4286-3.4286zm-13.179 9c-1.2465 0-2.25 1.0035-2.25 2.25s1.0035 2.25 2.25 2.25 2.25-1.0035 2.25-2.25-1.0035-2.25-2.25-2.25zm6.75 9c-1.662 0-3 1.338-3 3s1.338 3 3 3 3-1.338 3-3-1.338-3-3-3z"
     fill="#f8f8f2"
     id="path8"
     style="fill:#f8f8f2" />
</svg>
