<?xml version="1.0" encoding="UTF-8" standalone="no"?>
<svg
   width="64"
   height="64"
   version="1.1"
   viewBox="0 0 16.933 16.933"
   id="svg12"
   sodipodi:docname="preferences-desktop-screensaver.svg"
   inkscape:version="1.2.2 (b0a8486541, 2022-12-01)"
   xmlns:inkscape="http://www.inkscape.org/namespaces/inkscape"
   xmlns:sodipodi="http://sodipodi.sourceforge.net/DTD/sodipodi-0.dtd"
   xmlns="http://www.w3.org/2000/svg"
   xmlns:svg="http://www.w3.org/2000/svg">
  <defs
     id="defs16" />
  <sodipodi:namedview
     id="namedview14"
     pagecolor="#505050"
     bordercolor="#eeeeee"
     borderopacity="1"
     inkscape:showpageshadow="0"
     inkscape:pageopacity="0"
     inkscape:pagecheckerboard="0"
     inkscape:deskcolor="#505050"
     showgrid="false"
     inkscape:zoom="15.921875"
     inkscape:cx="29.895976"
     inkscape:cy="32.031403"
     inkscape:window-width="2560"
     inkscape:window-height="1361"
     inkscape:window-x="0"
     inkscape:window-y="0"
     inkscape:window-maximized="1"
     inkscape:current-layer="svg12" />
  <g
     transform="scale(.26458)"
     id="g8">
    <rect
       x="4"
       y="4"
       width="55.999"
       height="55.999"
       ry="28"
       fill="#86aeff"
       stroke-width="3.9198"
       style="paint-order:stroke markers fill;fill:#6272a4"
       id="rect2" />
    <path
       d="m32 4c-5.9602 0-11.47 1.8495-16 5h32c-4.5305-3.1505-10.04-5-16-5z"
       opacity=".35"
       stroke-width="6.8086"
       style="paint-order:stroke markers fill"
       id="path4" />
    <rect
       x="27"
       y="5.9718"
       width="10"
       height="2"
       ry="1.0019"
       opacity=".35"
       stroke-width="3.7796"
       style="paint-order:stroke markers fill"
       id="rect6" />
  </g>
  <path
     d="m8.4673 4.8001c-1.173 0-2.1169 0.94306-2.1169 2.1146v0.75808h-0.65499c-0.22354 0-0.40384 0.17737-0.40384 0.39842v4.04c0 0.22105 0.1803 0.39842 0.40384 0.39842h5.5422c0.22354 0 0.40384-0.17737 0.40384-0.39842v-4.04c0-0.22105-0.1803-0.39842-0.40384-0.39842h-0.65421v-0.75808c0-1.1715-0.94461-2.1146-2.1161-2.1146zm0 0.75575c0.732 0 1.3604 0.62686 1.3604 1.3604v0.75653h-2.7207v-0.75808c0-0.732 0.62686-1.3588 1.3604-1.3588z"
     fill="#f8f8f2"
     stroke-width="1.5"
     id="path10"
     style="fill:#f8f8f2" />
</svg>
