<?xml version="1.0" encoding="UTF-8" standalone="no"?>
<svg
   width="64"
   height="64"
   version="1.1"
   id="svg2"
   sodipodi:docname="preferences-system-network-share-windows.svg"
   inkscape:version="1.3.2 (091e20ef0f, 2023-11-25, custom)"
   xmlns:inkscape="http://www.inkscape.org/namespaces/inkscape"
   xmlns:sodipodi="http://sodipodi.sourceforge.net/DTD/sodipodi-0.dtd"
   xmlns="http://www.w3.org/2000/svg"
   xmlns:svg="http://www.w3.org/2000/svg">
  <defs
     id="defs2" />
  <sodipodi:namedview
     id="namedview2"
     pagecolor="#f8f8f2"
     bordercolor="#282a36"
     borderopacity="0.25"
     inkscape:showpageshadow="2"
     inkscape:pageopacity="0.0"
     inkscape:pagecheckerboard="0"
     inkscape:deskcolor="#d1d1d1"
     inkscape:zoom="12.875"
     inkscape:cx="31.961165"
     inkscape:cy="32"
     inkscape:window-width="1920"
     inkscape:window-height="1040"
     inkscape:window-x="0"
     inkscape:window-y="0"
     inkscape:window-maximized="1"
     inkscape:current-layer="svg2" />
  <rect
     width="52"
     height="52"
     x="6"
     y="6"
     fill="#343739"
     rx="1.857"
     id="rect1"
     style="fill:#282a36" />
  <path
     fill="#38aaeb"
     d="M10 34h20v20H10zm24 0h20v20H34zm0-24h20v20H34zm-24 0h20v20H10z"
     id="path1"
     style="fill:#6272a4" />
  <path
     fill="#f8f8f2"
     d="M44 14v2H20a3.98 3.98 0 0 0-3.132 1.512A3.996 3.996 0 0 0 16 20v10a4.004 4.004 0 0 0 .06.68 4.002 4.002 0 0 0 .374 1.132A4 4 0 0 0 20 34h22a2.006 2.006 0 0 1 .98.26 2.004 2.004 0 0 1 .388.284A1.992 1.992 0 0 1 44 36v6a2 2 0 0 1-2 2H20v-2l-6 4 6 4v-2h24a3.98 3.98 0 0 0 2.872-1.214 4.004 4.004 0 0 0 .984-1.716A4.002 4.002 0 0 0 48 44V34a4.004 4.004 0 0 0-.06-.68 4.002 4.002 0 0 0-.374-1.132A4 4 0 0 0 44 30H22a2.006 2.006 0 0 1-.98-.26 2.004 2.004 0 0 1-.388-.284A1.992 1.992 0 0 1 20 28v-6a2 2 0 0 1 2-2h22v2l6-4z"
     id="path2" />
</svg>
