<?xml version="1.0" encoding="UTF-8" standalone="no"?>
<svg
   width="64"
   height="64"
   version="1.1"
   id="svg19"
   sodipodi:docname="preferences-desktop-touchpad.svg"
   inkscape:version="1.2.2 (b0a8486541, 2022-12-01)"
   xmlns:inkscape="http://www.inkscape.org/namespaces/inkscape"
   xmlns:sodipodi="http://sodipodi.sourceforge.net/DTD/sodipodi-0.dtd"
   xmlns="http://www.w3.org/2000/svg"
   xmlns:svg="http://www.w3.org/2000/svg">
  <sodipodi:namedview
     id="namedview21"
     pagecolor="#505050"
     bordercolor="#eeeeee"
     borderopacity="1"
     inkscape:showpageshadow="0"
     inkscape:pageopacity="0"
     inkscape:pagecheckerboard="0"
     inkscape:deskcolor="#505050"
     showgrid="false"
     inkscape:zoom="15.921875"
     inkscape:cx="29.895976"
     inkscape:cy="32.031403"
     inkscape:window-width="2560"
     inkscape:window-height="1361"
     inkscape:window-x="0"
     inkscape:window-y="0"
     inkscape:window-maximized="1"
     inkscape:current-layer="svg19" />
  <defs
     id="defs7">
    <linearGradient
       id="b-6"
       x1="399.57"
       x2="399.57"
       y1="545.8"
       y2="517.8"
       gradientTransform="matrix(2.1429,0,0,2.1429,-826.36,-1107.5)"
       gradientUnits="userSpaceOnUse">
      <stop
         stop-color="#3889e9"
         offset="0"
         id="stop2" />
      <stop
         stop-color="#5ea5fb"
         offset="1"
         id="stop4" />
    </linearGradient>
  </defs>
  <rect
     x="5"
     y="5"
     width="54"
     height="54"
     rx="27"
     ry="27"
     fill="#282a36"
     stroke-width="0"
     style="paint-order:stroke fill markers;fill:#44475a"
     id="rect9" />
  <circle
     cx="32.02"
     cy="32.044"
     r="30.001"
     fill-opacity="0"
     stroke-width="1.5715"
     id="circle11" />
  <circle
     cx="32.02"
     cy="32.044"
     r="0"
     fill="url(#b-6)"
     stroke-width="1.5715"
     id="circle13"
     style="fill:#168daa" />
  <path
     d="m6.1953 40c0.10372 0.33704 0.21957 0.66881 0.33594 1h24.969v17.988c0.16708 0.003019 0.33218 0.011719 0.5 0.011719s0.33292-0.0087 0.5-0.011719v-17.988h24.969c0.11637-0.33119 0.23222-0.66296 0.33594-1h-51.609z"
     opacity=".5"
     style="paint-order:stroke fill markers"
     id="path15" />
  <path
     d="m28 16.693a4.3077 4.3077 0 0 0-4.3077 4.3077 4.3077 4.3077 0 0 0 3.2308 4.1689v-2.3095a2.1538 2.1538 0 0 1-1.0769-1.8594 2.1538 2.1538 0 0 1 2.1538-2.1538 2.1538 2.1538 0 0 1 2.1539 2.1538 2.1538 2.1538 0 0 1-0.02154 0.29027l1.8173 1.4135a4.3077 4.3077 0 0 0 0.35758-1.7037 4.3077 4.3077 0 0 0-4.3077-4.3077zm0 4.3077 0.013 21 6.4489-8.6154h9.6923l-16.154-12.385z"
     fill="#1fb5f8"
     stroke-linejoin="round"
     stroke-width="2.1538"
     id="path17"
     style="fill:#13b1d5" />
</svg>
