<?xml version="1.0" encoding="UTF-8" standalone="no"?>
<svg
   width="64"
   height="64"
   version="1.1"
   id="svg4"
   sodipodi:docname="preferences-system-user-sudo.svg"
   inkscape:version="1.3.2 (091e20ef0f, 2023-11-25, custom)"
   xmlns:inkscape="http://www.inkscape.org/namespaces/inkscape"
   xmlns:sodipodi="http://sodipodi.sourceforge.net/DTD/sodipodi-0.dtd"
   xmlns="http://www.w3.org/2000/svg"
   xmlns:svg="http://www.w3.org/2000/svg">
  <defs
     id="defs4" />
  <sodipodi:namedview
     id="namedview4"
     pagecolor="#f8f8f2"
     bordercolor="#282a36"
     borderopacity="0.25"
     inkscape:showpageshadow="2"
     inkscape:pageopacity="0.0"
     inkscape:pagecheckerboard="0"
     inkscape:deskcolor="#d1d1d1"
     inkscape:zoom="12.875"
     inkscape:cx="31.961165"
     inkscape:cy="32"
     inkscape:window-width="1920"
     inkscape:window-height="1040"
     inkscape:window-x="0"
     inkscape:window-y="0"
     inkscape:window-maximized="1"
     inkscape:current-layer="svg4" />
  <rect
     width="54"
     height="54"
     x="5"
     y="5"
     fill="#1ea8f7"
     rx="27"
     id="rect1"
     style="fill:#515d85" />
  <path
     fill="#f8f8f2"
     d="M32 18c-3.878 0-7 3.122-7 7s3.122 7 7 7 7-3.122 7-7-3.122-7-7-7zm0 14c-7.756 0-14 6.244-14 14h16v-2H20.18A11.96 11.96 0 0 1 32 34c.718 0 1.414.076 2.09.208l.52-1.946A13.308 13.308 0 0 0 32 32zm0-12c2.77 0 5 2.23 5 5s-2.23 5-5 5-5-2.23-5-5 2.23-5 5-5z"
     id="path1" />
  <g
     fill="#f8f8f2"
     stroke-width=".353"
     id="g4">
    <path
       d="M44 34v12h2V34z"
       id="path2" />
    <path
       d="M36 44h12v-2H36zm0-6h12v-2H36z"
       id="path3" />
    <path
       d="M38 34v12h2V34z"
       id="path4" />
  </g>
</svg>
