<?xml version="1.0" encoding="UTF-8" standalone="no"?>
<svg
   width="64"
   height="64"
   version="1.1"
   viewBox="0 0 16.933 16.933"
   id="svg32345"
   sodipodi:docname="cs-keyboard.svg"
   inkscape:version="1.2.2 (b0a8486541, 2022-12-01)"
   xmlns:inkscape="http://www.inkscape.org/namespaces/inkscape"
   xmlns:sodipodi="http://sodipodi.sourceforge.net/DTD/sodipodi-0.dtd"
   xmlns="http://www.w3.org/2000/svg"
   xmlns:svg="http://www.w3.org/2000/svg">
  <defs
     id="defs32349" />
  <sodipodi:namedview
     id="namedview32347"
     pagecolor="#505050"
     bordercolor="#eeeeee"
     borderopacity="1"
     inkscape:showpageshadow="0"
     inkscape:pageopacity="0"
     inkscape:pagecheckerboard="0"
     inkscape:deskcolor="#505050"
     showgrid="false"
     inkscape:zoom="15.921875"
     inkscape:cx="25.687929"
     inkscape:cy="32.031403"
     inkscape:window-width="2560"
     inkscape:window-height="1361"
     inkscape:window-x="0"
     inkscape:window-y="0"
     inkscape:window-maximized="1"
     inkscape:current-layer="svg32345" />
  <circle
     cx="8.4665"
     cy="8.4665"
     r="7.1436"
     fill="#44475a"
     stroke-width=".26458"
     style="paint-order:stroke fill markers;fill:#44475a"
     id="circle32295" />
  <g
     transform="matrix(.26458 0 0 .26458 0 .53577)"
     fill="#f8f8f2"
     id="g32339"
     style="fill:#f8f8f2">
    <rect
       x="20"
       y="37.975"
       width="24"
       height="5"
       ry="1.025"
       paint-order="markers stroke fill"
       id="rect32297"
       style="fill:#f8f8f2" />
    <circle
       cx="16"
       cy="20"
       r="2"
       style="paint-order:stroke fill markers;fill:#f8f8f2"
       id="circle32299" />
    <circle
       cx="22"
       cy="20"
       r="2"
       style="paint-order:stroke fill markers;fill:#f8f8f2"
       id="circle32301" />
    <circle
       cx="28"
       cy="20"
       r="2"
       style="paint-order:stroke fill markers;fill:#f8f8f2"
       id="circle32303" />
    <circle
       cx="34"
       cy="20"
       r="2"
       style="paint-order:stroke fill markers;fill:#f8f8f2"
       id="circle32305" />
    <circle
       cx="40"
       cy="20"
       r="2"
       style="paint-order:stroke fill markers;fill:#f8f8f2"
       id="circle32307" />
    <circle
       cx="46"
       cy="20"
       r="2"
       style="paint-order:stroke fill markers;fill:#f8f8f2"
       id="circle32309" />
    <circle
       cx="13"
       cy="26"
       r="2"
       style="paint-order:stroke fill markers;fill:#f8f8f2"
       id="circle32311" />
    <circle
       cx="19"
       cy="26"
       r="2"
       style="paint-order:stroke fill markers;fill:#f8f8f2"
       id="circle32313" />
    <circle
       cx="25"
       cy="26"
       r="2"
       style="paint-order:stroke fill markers;fill:#f8f8f2"
       id="circle32315" />
    <circle
       cx="31"
       cy="26"
       r="2"
       style="paint-order:stroke fill markers;fill:#f8f8f2"
       id="circle32317" />
    <circle
       cx="37"
       cy="26"
       r="2"
       style="paint-order:stroke fill markers;fill:#f8f8f2"
       id="circle32319" />
    <circle
       cx="43"
       cy="26"
       r="2"
       style="paint-order:stroke fill markers;fill:#f8f8f2"
       id="circle32321" />
    <circle
       cx="49"
       cy="26"
       r="2"
       style="paint-order:stroke fill markers;fill:#f8f8f2"
       id="circle32323" />
    <circle
       cx="15"
       cy="32"
       r="2"
       style="paint-order:stroke fill markers;fill:#f8f8f2"
       id="circle32325" />
    <circle
       cx="21"
       cy="32"
       r="2"
       style="paint-order:stroke fill markers;fill:#f8f8f2"
       id="circle32327" />
    <circle
       cx="27"
       cy="32"
       r="2"
       style="paint-order:stroke fill markers;fill:#f8f8f2"
       id="circle32329" />
    <circle
       cx="33"
       cy="32"
       r="2"
       style="paint-order:stroke fill markers;fill:#f8f8f2"
       id="circle32331" />
    <circle
       cx="39"
       cy="32"
       r="2"
       style="paint-order:stroke fill markers;fill:#f8f8f2"
       id="circle32333" />
    <circle
       cx="45"
       cy="32"
       r="2"
       style="paint-order:stroke fill markers;fill:#f8f8f2"
       id="circle32335" />
    <circle
       cx="51"
       cy="32"
       r="2"
       style="paint-order:stroke fill markers;fill:#f8f8f2"
       id="circle32337" />
  </g>
  <circle
     cx="13.229"
     cy="13.229"
     r="3.175"
     fill="#9ea0a6"
     id="circle32341"
     style="fill:#9ea0a6" />
  <path
     d="m12.753 11.324-0.042 0.502a1.497 1.497 0 0 0-0.438 0.253l-0.456-0.215-0.476 0.825 0.414 0.287a1.497 1.497 0 0 0-0.023 0.253 1.497 1.497 0 0 0 0.022 0.254l-0.413 0.286 0.476 0.825 0.455-0.214a1.497 1.497 0 0 0 0.439 0.251l0.042 0.503h0.952l0.042-0.502a1.497 1.497 0 0 0 0.438-0.253l0.456 0.215 0.476-0.825-0.414-0.288a1.497 1.497 0 0 0 0.023-0.252 1.497 1.497 0 0 0-0.022-0.254l0.413-0.286-0.476-0.825-0.455 0.214a1.497 1.497 0 0 0-0.439-0.251l-0.042-0.503zm0.476 1.27a0.635 0.635 0 0 1 0.635 0.635 0.635 0.635 0 0 1-0.635 0.635 0.635 0.635 0 0 1-0.635-0.635 0.635 0.635 0 0 1 0.635-0.635z"
     fill="#f8f8f2"
     id="path32343"
     style="fill:#f8f8f2" />
</svg>
