<?xml version="1.0" encoding="UTF-8" standalone="no"?>
<svg
   width="64"
   height="64"
   version="1.1"
   id="svg13"
   sodipodi:docname="preferences-desktop-plasma-theme.svg"
   inkscape:version="1.3.2 (091e20ef0f, 2023-11-25, custom)"
   xmlns:inkscape="http://www.inkscape.org/namespaces/inkscape"
   xmlns:sodipodi="http://sodipodi.sourceforge.net/DTD/sodipodi-0.dtd"
   xmlns="http://www.w3.org/2000/svg"
   xmlns:svg="http://www.w3.org/2000/svg">
  <sodipodi:namedview
     id="namedview13"
     pagecolor="#f8f8f2"
     bordercolor="#282a36"
     borderopacity="0.25"
     inkscape:showpageshadow="2"
     inkscape:pageopacity="0.0"
     inkscape:pagecheckerboard="0"
     inkscape:deskcolor="#d1d1d1"
     inkscape:zoom="12.875"
     inkscape:cx="31.961165"
     inkscape:cy="32"
     inkscape:window-width="1920"
     inkscape:window-height="1040"
     inkscape:window-x="0"
     inkscape:window-y="0"
     inkscape:window-maximized="1"
     inkscape:current-layer="svg13" />
  <defs
     id="defs2">
    <linearGradient
       id="a"
       x1="14.679"
       x2="2.293"
       y1="293.79"
       y2="282.98"
       gradientTransform="matrix(3.7795 0 0 3.9436 0 -1105.9)"
       gradientUnits="userSpaceOnUse">
      <stop
         offset="0"
         stop-color="#66bcff"
         id="stop1" />
      <stop
         offset="1"
         stop-color="#b29aff"
         id="stop2" />
    </linearGradient>
  </defs>
  <rect
     width="55.999"
     height="48.001"
     x="4"
     y="8"
     fill="url(#a)"
     rx="5"
     ry="5"
     id="rect2"
     style="fill:#44475a" />
  <rect
     width="50"
     height="4"
     x="6.999"
     y="10"
     opacity=".35"
     rx="2"
     ry="2"
     id="rect3" />
  <rect
     width="3.999"
     height="1.999"
     x="8"
     y="11"
     opacity=".35"
     ry="1.002"
     style="paint-order:stroke markers fill"
     id="rect4" />
  <rect
     width="10.001"
     height="1.999"
     x="27.001"
     y="11"
     opacity=".35"
     ry="1.002"
     style="paint-order:stroke markers fill"
     id="rect5" />
  <rect
     width="1.999"
     height="1.999"
     x="53.999"
     y="11"
     opacity=".35"
     ry="1.002"
     style="paint-order:stroke markers fill"
     id="rect6" />
  <rect
     width="3.001"
     height="1.999"
     x="50"
     y="11"
     opacity=".35"
     ry="1.002"
     style="paint-order:stroke markers fill"
     id="rect7" />
  <rect
     width="1.999"
     height="1.999"
     x="46.999"
     y="11"
     opacity=".35"
     ry="1.002"
     style="paint-order:stroke markers fill"
     id="rect8" />
  <rect
     width="37.996"
     height="5"
     x="13.002"
     y="48.001"
     fill="#f8f8f2"
     opacity=".35"
     paint-order="markers stroke fill"
     rx="1"
     ry="1"
     id="rect9" />
  <g
     fill="#ccdfff"
     transform="translate(0 6.51) scale(3.7796)"
     id="g13">
    <rect
       width="1.323"
       height="1.323"
       x="4.233"
       y="10.448"
       rx=".264"
       ry=".264"
       style="paint-order:stroke markers fill"
       id="rect10" />
    <rect
       width="1.323"
       height="1.323"
       x="6.614"
       y="10.448"
       rx=".264"
       ry=".264"
       style="paint-order:stroke markers fill"
       id="rect11" />
    <rect
       width="1.323"
       height="1.323"
       x="8.996"
       y="10.448"
       rx=".264"
       ry=".264"
       style="paint-order:stroke markers fill"
       id="rect12" />
    <rect
       width="1.323"
       height="1.323"
       x="11.376"
       y="10.448"
       rx=".264"
       ry=".264"
       style="paint-order:stroke markers fill"
       id="rect13" />
  </g>
  <path
     fill="#f8f8f2"
     d="M26 20c-.831 0-1.5.669-1.5 1.5S25.169 23 26 23s1.5-.669 1.5-1.5S26.831 20 26 20zm9.429 0L32 23.429l5.143 5.143L32 33.714l3.429 3.429L44 28.572l-3.429-3.43zm-13.18 9C21.004 29 20 30.004 20 31.25s1.004 2.25 2.25 2.25 2.25-1.004 2.25-2.25S23.497 29 22.25 29zM29 38c-1.661 0-3 1.338-3 3s1.339 3 3 3 3-1.338 3-3-1.337-3-3-3z"
     id="path13" />
</svg>
