<?xml version="1.0" encoding="UTF-8" standalone="no"?>
<svg
   width="64"
   height="64"
   viewBox="0 0 16.933 16.933"
   version="1.1"
   id="svg2"
   sodipodi:docname="preferences-desktop-notification.svg"
   inkscape:version="1.3.2 (091e20ef0f, 2023-11-25, custom)"
   xmlns:inkscape="http://www.inkscape.org/namespaces/inkscape"
   xmlns:sodipodi="http://sodipodi.sourceforge.net/DTD/sodipodi-0.dtd"
   xmlns="http://www.w3.org/2000/svg"
   xmlns:svg="http://www.w3.org/2000/svg">
  <defs
     id="defs2" />
  <sodipodi:namedview
     id="namedview2"
     pagecolor="#f8f8f2"
     bordercolor="#282a36"
     borderopacity="0.25"
     inkscape:showpageshadow="2"
     inkscape:pageopacity="0.0"
     inkscape:pagecheckerboard="0"
     inkscape:deskcolor="#d1d1d1"
     inkscape:zoom="12.875"
     inkscape:cx="31.961165"
     inkscape:cy="32"
     inkscape:window-width="1920"
     inkscape:window-height="1040"
     inkscape:window-x="0"
     inkscape:window-y="0"
     inkscape:window-maximized="1"
     inkscape:current-layer="g2" />
  <g
     transform="translate(0 -280.067)"
     id="g2">
    <rect
       width="11.642"
       height="7.408"
       x="1.587"
       y="285.888"
       fill="#5ca4ed"
       paint-order="stroke markers fill"
       ry=".265"
       id="rect1"
       style="fill:#13b1d5" />
    <path
       fill="#a0ecff"
       d="M6.085 281.919a.264.264 0 0 0-.264.264v5.292c0 .147.118.265.264.265h4.077l1.48 1.315c.19.04.264-.07.264-.265v-1.05h3.175a.264.264 0 0 0 .265-.265v-5.292a.264.264 0 0 0-.265-.264z"
       paint-order="markers stroke fill"
       id="path1"
       style="fill:#8be9fd" />
    <path
       fill="#5ca4ed"
       d="M4.233 290.642h2.91c.147 0 .304.123.265.265l-.508 1.847c-.04.141-.176.172-.285.27l-2.382 2.116c-.19.04-.264-.07-.264-.265v-3.968c0-.147.118-.265.264-.265z"
       paint-order="markers stroke fill"
       id="path2"
       style="fill:#13b1d5" />
  </g>
</svg>
