<?xml version="1.0" encoding="UTF-8" standalone="no"?>
<svg
   width="64"
   height="64"
   version="1.1"
   id="svg8"
   sodipodi:docname="preferences-desktop-virtual.svg"
   inkscape:version="1.2.2 (b0a8486541, 2022-12-01)"
   xmlns:inkscape="http://www.inkscape.org/namespaces/inkscape"
   xmlns:sodipodi="http://sodipodi.sourceforge.net/DTD/sodipodi-0.dtd"
   xmlns="http://www.w3.org/2000/svg"
   xmlns:svg="http://www.w3.org/2000/svg">
  <defs
     id="defs12" />
  <sodipodi:namedview
     id="namedview10"
     pagecolor="#505050"
     bordercolor="#eeeeee"
     borderopacity="1"
     inkscape:showpageshadow="0"
     inkscape:pageopacity="0"
     inkscape:pagecheckerboard="0"
     inkscape:deskcolor="#505050"
     showgrid="false"
     inkscape:zoom="15.921875"
     inkscape:cx="29.895976"
     inkscape:cy="32.031403"
     inkscape:window-width="2560"
     inkscape:window-height="1361"
     inkscape:window-x="0"
     inkscape:window-y="0"
     inkscape:window-maximized="1"
     inkscape:current-layer="svg8" />
  <path
     d="m32 5a27 27 0 0 0-27 27h27v-27z"
     fill="#6272a4"
     style="paint-order:stroke fill markers;fill:#6272a4"
     id="path2" />
  <path
     d="m32 5v27h-27a27 27 0 0 0 27 27 27 27 0 0 0 27-27 27 27 0 0 0-27-27z"
     fill="#4a4a4f"
     style="paint-order:stroke fill markers;fill:#44475a"
     id="path4" />
  <path
     d="m32 5v27h-27a27 27 0 0 0 0.050781 1h25.949v25.965a27 27 0 0 0 1 0.035156 27 27 0 0 0 1-0.050781v-25.949h25.965a27 27 0 0 0 0.035156-1 27 27 0 0 0-0.050781-1h-25.949v-25.965a27 27 0 0 0-1-0.035156z"
     fill-rule="evenodd"
     opacity=".15"
     stroke-width="1.1206"
     style="paint-order:fill markers stroke"
     id="path6" />
</svg>
