<?xml version="1.0" encoding="UTF-8" standalone="no"?>
<svg
   width="64"
   height="64"
   version="1.1"
   id="svg7"
   sodipodi:docname="preferences-system-network-server-boot.svg"
   inkscape:version="1.3.2 (091e20ef0f, 2023-11-25, custom)"
   xmlns:inkscape="http://www.inkscape.org/namespaces/inkscape"
   xmlns:sodipodi="http://sodipodi.sourceforge.net/DTD/sodipodi-0.dtd"
   xmlns="http://www.w3.org/2000/svg"
   xmlns:svg="http://www.w3.org/2000/svg">
  <defs
     id="defs7" />
  <sodipodi:namedview
     id="namedview7"
     pagecolor="#f8f8f2"
     bordercolor="#282a36"
     borderopacity="0.25"
     inkscape:showpageshadow="2"
     inkscape:pageopacity="0.0"
     inkscape:pagecheckerboard="0"
     inkscape:deskcolor="#d1d1d1"
     inkscape:zoom="12.875"
     inkscape:cx="31.961165"
     inkscape:cy="32"
     inkscape:window-width="1920"
     inkscape:window-height="1040"
     inkscape:window-x="0"
     inkscape:window-y="0"
     inkscape:window-maximized="1"
     inkscape:current-layer="svg7" />
  <rect
     width="52"
     height="52"
     x="6"
     y="6"
     fill="#44475a"
     rx="2"
     ry="2"
     style="paint-order:stroke markers fill;fill:#44475a"
     id="rect1" />
  <path
     fill="#f8f8f2"
     d="M12 15h24v2H12z"
     id="path1" />
  <circle
     cx="43"
     cy="16"
     r="2"
     fill="#44c367"
     id="circle1"
     style="fill:#50fa7b" />
  <circle
     cx="51"
     cy="16"
     r="2"
     fill="#44c367"
     id="circle2"
     style="fill:#50fa7b" />
  <path
     fill="#f8f8f2"
     d="M12 31h24v2H12z"
     id="path2" />
  <circle
     cx="43"
     cy="32"
     r="2"
     fill="#44c367"
     id="circle3" />
  <circle
     cx="51"
     cy="32"
     r="2"
     fill="#44c367"
     id="circle4" />
  <path
     fill="#f8f8f2"
     d="M12 47h24v2H12z"
     id="path4" />
  <rect
     width="52"
     height="3"
     x="6"
     y="22"
     fill="#282a3600f"
     fill-rule="evenodd"
     opacity=".5"
     rx="0"
     ry="0"
     style="paint-order:fill markers stroke"
     id="rect4" />
  <rect
     width="52"
     height="3"
     x="6"
     y="38"
     fill="#282a3600f"
     fill-rule="evenodd"
     opacity=".5"
     rx="0"
     ry="0"
     style="paint-order:fill markers stroke"
     id="rect5" />
  <circle
     cx="43"
     cy="48"
     r="2"
     fill="#44c367"
     id="circle5" />
  <circle
     cx="51"
     cy="48"
     r="2"
     fill="#44c367"
     id="circle6" />
  <circle
     cx="46"
     cy="46"
     r="18"
     fill="#f55"
     fill-rule="evenodd"
     style="paint-order:fill markers stroke"
     id="circle7" />
  <path
     fill="#f8f8f2"
     d="M44 34h4v10h-4zm6 .7v2.14A10 10 0 0 1 56 46a10 10 0 0 1-10 10 10 10 0 0 1-10-10 10 10 0 0 1 6-9.152v-2.144A12 12 0 0 0 34 46a12 12 0 0 0 12 12 12 12 0 0 0 12-12 12 12 0 0 0-8-11.3z"
     id="path7" />
</svg>
