<?xml version="1.0" encoding="UTF-8" standalone="no"?>
<svg
   width="64"
   height="64"
   version="1.1"
   id="svg20"
   sodipodi:docname="preferences-desktop-filetype-association.svg"
   inkscape:version="1.2.2 (b0a8486541, 2022-12-01)"
   xmlns:inkscape="http://www.inkscape.org/namespaces/inkscape"
   xmlns:sodipodi="http://sodipodi.sourceforge.net/DTD/sodipodi-0.dtd"
   xmlns="http://www.w3.org/2000/svg"
   xmlns:svg="http://www.w3.org/2000/svg">
  <defs
     id="defs24" />
  <sodipodi:namedview
     id="namedview22"
     pagecolor="#505050"
     bordercolor="#eeeeee"
     borderopacity="1"
     inkscape:showpageshadow="0"
     inkscape:pageopacity="0"
     inkscape:pagecheckerboard="0"
     inkscape:deskcolor="#505050"
     showgrid="false"
     inkscape:zoom="15.921875"
     inkscape:cx="29.895976"
     inkscape:cy="32.031403"
     inkscape:window-width="2560"
     inkscape:window-height="1361"
     inkscape:window-x="0"
     inkscape:window-y="0"
     inkscape:window-maximized="1"
     inkscape:current-layer="svg20" />
  <rect
     x="4"
     y="4"
     width="55.999"
     height="55.999"
     ry="28"
     fill="#f8f8f2"
     stroke-width="3.9198"
     style="paint-order:stroke markers fill"
     id="rect2" />
  <path
     d="m32 4c-5.9602 0-11.47 1.8495-16 5h32c-4.5305-3.1505-10.04-5-16-5z"
     opacity=".35"
     stroke-width="6.8086"
     style="paint-order:stroke markers fill"
     id="path4" />
  <rect
     x="27"
     y="5.9718"
     width="10"
     height="2"
     ry="1.0019"
     opacity=".35"
     stroke-width="3.7796"
     style="paint-order:stroke markers fill"
     id="rect6" />
  <g
     transform="matrix(.57143 0 0 .57142 -206.04 -262.74)"
     id="g18">
    <path
       d="m403.57 487.8c-1.662 0-3 1.338-3 3v50c0 1.662 1.338 3 3 3h38c1.662 0 3-1.338 3-3v-39l-14-14z"
       fill="#59bc04"
       id="path8"
       style="fill:#44c367" />
    <path
       d="m444.57 501.8-14-14v14z"
       fill="#313437"
       fill-rule="evenodd"
       opacity=".35"
       id="path10"
       style="fill:#282a36" />
    <path
       d="m391.57 487.8c-1.662 0-3 1.338-3 3v50c0 1.662 1.338 3 3 3h38c1.662 0 3-1.338 3-3v-39l-14-14z"
       fill="#1da7f7"
       id="path12"
       style="fill:#13b1d5" />
    <path
       d="m432.57 501.8-14-14v14z"
       fill="#313437"
       fill-rule="evenodd"
       opacity=".35"
       id="path14"
       style="fill:#282a36" />
    <path
       d="m404.57 503.8c-1.108 0-2 0.892-2 2s0.892 2 2 2 2-0.892 2-2-0.892-2-2-2zm10 0-4 4 4 4-4 4 4 4 8-8-4-4zm-14 12c-1.108 0-2 0.892-2 2s0.89201 2 2 2 2-0.892 2-2-0.892-2-2-2zm8 8c-1.108 0-2 0.892-2 2s0.892 2 2 2 2-0.892 2-2-0.892-2-2-2z"
       fill="#f8f8f2"
       id="path16" />
  </g>
</svg>
