<?xml version="1.0" encoding="UTF-8" standalone="no"?>
<svg
   width="64"
   height="64"
   version="1.1"
   id="svg38198"
   sodipodi:docname="preferences-system-network-server-share.svg"
   inkscape:version="1.2.2 (b0a8486541, 2022-12-01)"
   xmlns:inkscape="http://www.inkscape.org/namespaces/inkscape"
   xmlns:sodipodi="http://sodipodi.sourceforge.net/DTD/sodipodi-0.dtd"
   xmlns="http://www.w3.org/2000/svg"
   xmlns:svg="http://www.w3.org/2000/svg">
  <defs
     id="defs38202" />
  <sodipodi:namedview
     id="namedview38200"
     pagecolor="#505050"
     bordercolor="#eeeeee"
     borderopacity="1"
     inkscape:showpageshadow="0"
     inkscape:pageopacity="0"
     inkscape:pagecheckerboard="0"
     inkscape:deskcolor="#505050"
     showgrid="false"
     inkscape:zoom="15.921875"
     inkscape:cx="29.895976"
     inkscape:cy="32.031403"
     inkscape:window-width="2560"
     inkscape:window-height="1361"
     inkscape:window-x="0"
     inkscape:window-y="0"
     inkscape:window-maximized="1"
     inkscape:current-layer="svg38198" />
  <rect
     width="54"
     height="54"
     x="5"
     y="5"
     fill="#44475a"
     rx="27"
     ry="27"
     style="paint-order:stroke markers fill"
     id="rect38172" />
  <path
     fill="#f8f8f2"
     d="M16 15h19v2H16z"
     id="path38174" />
  <circle
     cx="40"
     cy="16"
     r="2"
     fill="#44c367"
     id="circle38176" />
  <circle
     cx="47"
     cy="16"
     r="2"
     fill="#44c367"
     id="circle38178" />
  <path
     fill="#f8f8f2"
     d="M11 31h24v2H11z"
     id="path38180" />
  <circle
     cx="40"
     cy="32"
     r="2"
     fill="#44c367"
     id="circle38182" />
  <circle
     cx="47"
     cy="32"
     r="2"
     fill="#44c367"
     id="circle38184" />
  <path
     fill="#f8f8f2"
     d="M16 47h19v2H16z"
     id="path38186" />
  <path
     d="M6.906 22c-.386.974-.72 1.974-.992 3h52.172a26.803 26.803 0 0 0-.992-3zM5.672 38c.23 1.023.517 2.025.86 3h50.937c.343-.975.629-1.977.86-3z"
     opacity=".25"
     style="paint-order:fill markers stroke"
     id="path38188" />
  <circle
     cx="40"
     cy="48"
     r="2"
     fill="#44c367"
     id="circle38190" />
  <circle
     cx="47"
     cy="48"
     r="2"
     fill="#44c367"
     id="circle38192" />
  <circle
     cx="46"
     cy="46"
     r="18"
     fill="#e356b4"
     fill-rule="evenodd"
     style="paint-order:fill markers stroke;fill:#c7639f"
     id="circle38194" />
  <path
     fill="#f8f8f2"
     d="M53 32c-2.216 0-4 1.784-4 4s1.784 4 4 4 4-1.784 4-4-1.784-4-4-4zM35 42c-2.216 0-4 1.784-4 4s1.784 4 4 4 4-1.784 4-4-1.784-4-4-4zm18 10c-2.216 0-4 1.784-4 4s1.784 4 4 4 4-1.784 4-4-1.784-4-4-4zm-7-14a1 1 0 1 0 0 2 1 1 0 1 0 0-2zm-4 2a1 1 0 1 0 0 2 1 1 0 1 0 0-2zm0 10a1 1 0 1 0 0 2 1 1 0 1 0 0-2zm4 2a1 1 0 1 0 0 2 1 1 0 1 0 0-2z"
     id="path38196" />
</svg>
