<?xml version="1.0" encoding="UTF-8" standalone="no"?>
<svg
   width="64"
   height="64"
   version="1.1"
   id="svg9"
   sodipodi:docname="preferences-virtualization-vm-migrate.svg"
   inkscape:version="1.3.2 (091e20ef0f, 2023-11-25, custom)"
   xmlns:inkscape="http://www.inkscape.org/namespaces/inkscape"
   xmlns:sodipodi="http://sodipodi.sourceforge.net/DTD/sodipodi-0.dtd"
   xmlns="http://www.w3.org/2000/svg"
   xmlns:svg="http://www.w3.org/2000/svg">
  <defs
     id="defs9" />
  <sodipodi:namedview
     id="namedview9"
     pagecolor="#f8f8f2"
     bordercolor="#282a36"
     borderopacity="0.25"
     inkscape:showpageshadow="2"
     inkscape:pageopacity="0.0"
     inkscape:pagecheckerboard="0"
     inkscape:deskcolor="#d1d1d1"
     inkscape:zoom="12.875"
     inkscape:cx="31.961165"
     inkscape:cy="32"
     inkscape:window-width="1920"
     inkscape:window-height="1040"
     inkscape:window-x="0"
     inkscape:window-y="0"
     inkscape:window-maximized="1"
     inkscape:current-layer="svg9" />
  <path
     fill="#f8f8f2"
     d="m62 17.998-59.996.004v31.154A5.985 5.985 0 0 0 8 55h48c3.324 0 6-2.676 6-6z"
     id="path1" />
  <path
     fill="#717380"
     d="M8 9c-3.324 0-6 2.676-6 6v2.998h60V15c0-3.324-2.676-6-6-6z"
     id="path2" />
  <rect
     width="3.001"
     height="3.001"
     x="53.502"
     y="12"
     opacity=".35"
     paint-order="stroke markers fill"
     ry="1.5"
     id="rect2" />
  <rect
     width="3.001"
     height="3.001"
     x="47.5"
     y="12"
     opacity=".35"
     paint-order="stroke markers fill"
     ry="1.5"
     id="rect3" />
  <rect
     width="3.001"
     height="3.001"
     x="41.501"
     y="12"
     opacity=".35"
     paint-order="stroke markers fill"
     ry="1.5"
     id="rect4" />
  <g
     stroke-width=".58"
     id="g8">
    <path
       fill="#ff5555"
       d="M12 27h3.529l4.118 11.429 4.117-11.43h3.53L21.41 43h-3.529z"
       id="path4"
       style="fill:#ff5555" />
    <path
       fill="#282a36"
       d="m24.942 43 5.882-16h3.53L28.47 43zm11.765 0 5.882-16h3.53l-5.883 16z"
       id="path5"
       style="fill:#44475a" />
    <path
       fill="#9ea0a6"
       d="m21.412 43 5.882-16h3.53L24.94 43zm11.765 0 5.882-16h3.53l-5.883 16z"
       id="path6" />
    <path
       fill="#cbcccc"
       d="M36.706 43h-3.53l-5.882-16h3.53zm11.765 0h-3.53L39.06 27h3.53z"
       id="path7" />
    <path
       fill="#44475a"
       d="m30.824 27 5.882 16h3.53l-5.883-16zm11.765 0 5.882 16h3.53l-5.883-16z"
       id="path8"
       style="fill:#282a36" />
  </g>
  <circle
     cx="53"
     cy="48"
     r="11"
     fill="#44475a"
     id="circle8"
     style="fill:#44475a" />
  <path
     fill="#f8f8f2"
     d="M45 49h12.172l-4.586 4.586L54 55l7-7-7-7-1.414 1.414L57.172 47H45z"
     id="path9" />
</svg>
