<?xml version="1.0" encoding="UTF-8" standalone="no"?>
<svg
   width="64"
   height="64"
   version="1.1"
   id="svg4"
   sodipodi:docname="preferences-system-network-nis.svg"
   inkscape:version="1.3.2 (091e20ef0f, 2023-11-25, custom)"
   xmlns:inkscape="http://www.inkscape.org/namespaces/inkscape"
   xmlns:sodipodi="http://sodipodi.sourceforge.net/DTD/sodipodi-0.dtd"
   xmlns="http://www.w3.org/2000/svg"
   xmlns:svg="http://www.w3.org/2000/svg">
  <defs
     id="defs4" />
  <sodipodi:namedview
     id="namedview4"
     pagecolor="#f8f8f2"
     bordercolor="#282a36"
     borderopacity="0.25"
     inkscape:showpageshadow="2"
     inkscape:pageopacity="0.0"
     inkscape:pagecheckerboard="0"
     inkscape:deskcolor="#d1d1d1"
     inkscape:zoom="12.875"
     inkscape:cx="31.961165"
     inkscape:cy="31.883495"
     inkscape:window-width="1920"
     inkscape:window-height="1013"
     inkscape:window-x="0"
     inkscape:window-y="0"
     inkscape:window-maximized="1"
     inkscape:current-layer="svg4" />
  <rect
     width="15.999"
     height="17.001"
     x="40"
     y="10"
     fill="#44c367"
     ry="1.179"
     id="rect1"
     style="fill:#50fa7b" />
  <rect
     width="15.999"
     height="17.001"
     x="40"
     y="23"
     fill="#ff5555"
     ry="1.327"
     id="rect2"
     style="fill:#ff5555" />
  <rect
     width="15.999"
     height="15.999"
     x="40"
     y="37.001"
     fill="#ffb86c"
     ry="1.251"
     id="rect3"
     style="fill:#f1fa8c" />
  <rect
     width="46.002"
     height="52"
     x="8.001"
     y="-58.032"
     fill="#6272a4"
     rx="5.032"
     ry="5.032"
     transform="scale(1 -1)"
     id="rect4"
     style="fill:#515d85" />
  <path
     fill="#f8f8f2"
     d="M40.002 30.002a4 4 0 0 0-4 4v4h-2v8h12v-8h-2v-4a4 4 0 0 0-4-4zm0 2a2 2 0 0 1 2 2v4h-4v-4a2 2 0 0 1 2-2zm-10 0c-7.756 0-14 6.244-14 14h16v-2h-13.82a11.96 11.96 0 0 1 11.82-10c.686 0 1.352.074 2 .196v-2.024a13.308 13.308 0 0 0-2-.172zm0-14c-3.324 0-6 2.676-6 6s2.676 6 6 6 6-2.676 6-6-2.676-6-6-6zm0 2c2.216 0 4 1.784 4 4s-1.784 4-4 4-4-1.784-4-4 1.784-4 4-4z"
     id="path4" />
</svg>
