<?xml version="1.0" encoding="UTF-8" standalone="no"?>
<svg
   width="64"
   height="64"
   version="1.1"
   viewBox="0 0 16.933 16.933"
   id="svg37191"
   sodipodi:docname="preferences-system-windows.svg"
   inkscape:version="1.2.2 (b0a8486541, 2022-12-01)"
   xmlns:inkscape="http://www.inkscape.org/namespaces/inkscape"
   xmlns:sodipodi="http://sodipodi.sourceforge.net/DTD/sodipodi-0.dtd"
   xmlns="http://www.w3.org/2000/svg"
   xmlns:svg="http://www.w3.org/2000/svg">
  <defs
     id="defs37195" />
  <sodipodi:namedview
     id="namedview37193"
     pagecolor="#505050"
     bordercolor="#eeeeee"
     borderopacity="1"
     inkscape:showpageshadow="0"
     inkscape:pageopacity="0"
     inkscape:pagecheckerboard="0"
     inkscape:deskcolor="#505050"
     showgrid="false"
     inkscape:zoom="15.921875"
     inkscape:cx="29.83317"
     inkscape:cy="32.031403"
     inkscape:window-width="1280"
     inkscape:window-height="1361"
     inkscape:window-x="1280"
     inkscape:window-y="0"
     inkscape:window-maximized="0"
     inkscape:current-layer="svg37191" />
  <path
     transform="scale(.26458)"
     d="m8.9531 17.998a27 27 0 0 0-3.9531 14.002 27 27 0 0 0 27 27 27 27 0 0 0 27-27 27 27 0 0 0-3.9434-14.002 27 27 0 0 0-2e-3 0z"
     fill="#f8f8f2"
     stroke-width="3.7796"
     style="paint-order:stroke fill markers;fill:#f8f8f2"
     id="path37173" />
  <path
     d="m8.4666 1.3229a7.1437 7.1437 0 0 0-6.0978 3.439h12.198a7.1437 7.1437 0 0 0-6.0999-3.439z"
     fill="#717380"
     stroke-width="1.4072"
     style="paint-order:stroke markers fill;fill:#717380"
     id="path37175" />
  <rect
     x="11.642"
     y="3.175"
     width=".794"
     height=".794"
     ry=".397"
     opacity=".35"
     style="paint-order:stroke markers fill"
     id="rect37177" />
  <rect
     x="10.054"
     y="3.175"
     width=".794"
     height=".794"
     ry=".397"
     opacity=".35"
     style="paint-order:stroke markers fill"
     id="rect37179" />
  <rect
     x="8.4665"
     y="3.175"
     width=".794"
     height=".794"
     ry=".397"
     opacity=".35"
     style="paint-order:stroke markers fill"
     id="rect37181" />
  <g
     fill="#cbcccc"
     id="g37189"
     style="fill:#9ea0a6">
    <path
       d="m8.467 6.238a3.44 3.44 0 0 0-3.44 3.44 3.44 3.44 0 0 0 3.44 3.439 3.44 3.44 0 0 0 3.44-3.44 3.44 3.44 0 0 0-3.44-3.44zm0 1.393a2.046 2.046 0 0 1 2.046 2.046 2.046 2.046 0 0 1-2.046 2.045 2.046 2.046 0 0 1-2.046-2.045 2.046 2.046 0 0 1 2.046-2.046z"
       opacity=".15"
       style="paint-order:stroke markers fill;fill:#9ea0a6"
       id="path37183" />
    <path
       d="m8.467 6.766a2.91 2.91 0 0 0-2.91 2.91 2.91 2.91 0 0 0 2.91 2.911 2.91 2.91 0 0 0 2.91-2.91 2.91 2.91 0 0 0-2.91-2.91zm0 1.323a1.587 1.587 0 0 1 1.587 1.588 1.587 1.587 0 0 1-1.587 1.587 1.587 1.587 0 0 1-1.588-1.587 1.587 1.587 0 0 1 1.588-1.588z"
       style="paint-order:stroke markers fill;fill:#9ea0a6"
       id="path37185" />
    <path
       d="m7.938 5.576h1.058v1.852h-1.058zm0 6.35h1.058v1.852h-1.058zm4.63-2.778v1.058h-1.852v-1.058zm-6.35 0v1.058h-1.852v-1.058zm5.522 3.055-0.747 0.748-1.31-1.31 0.748-0.748zm-4.49-4.49-0.747 0.748-1.31-1.31 0.748-0.748zm-1.309 5.238-0.748-0.748 1.31-1.31 0.748 0.748zm4.49-4.49-0.748-0.748 1.31-1.31 0.748 0.748z"
       style="paint-order:stroke markers fill;fill:#9ea0a6"
       id="path37187" />
  </g>
</svg>
