<?xml version="1.0" encoding="UTF-8" standalone="no"?>
<svg
   width="64"
   height="64"
   version="1.1"
   id="svg8"
   sodipodi:docname="preferences-releasenotes.svg"
   inkscape:version="1.2.2 (b0a8486541, 2022-12-01)"
   xmlns:inkscape="http://www.inkscape.org/namespaces/inkscape"
   xmlns:sodipodi="http://sodipodi.sourceforge.net/DTD/sodipodi-0.dtd"
   xmlns="http://www.w3.org/2000/svg"
   xmlns:svg="http://www.w3.org/2000/svg">
  <defs
     id="defs12" />
  <sodipodi:namedview
     id="namedview10"
     pagecolor="#505050"
     bordercolor="#eeeeee"
     borderopacity="1"
     inkscape:showpageshadow="0"
     inkscape:pageopacity="0"
     inkscape:pagecheckerboard="0"
     inkscape:deskcolor="#505050"
     showgrid="false"
     inkscape:zoom="15.921875"
     inkscape:cx="29.895976"
     inkscape:cy="32.031403"
     inkscape:window-width="2560"
     inkscape:window-height="1361"
     inkscape:window-x="0"
     inkscape:window-y="0"
     inkscape:window-maximized="1"
     inkscape:current-layer="svg8" />
  <circle
     cx="32"
     cy="32"
     r="27"
     fill="#ececec"
     style="paint-order:stroke fill markers;fill:#f8f8f2"
     id="circle2" />
  <path
     d="M25.996 9.998v2h19.197a23.964 23.964 0 0 0-3.71-2H25.995zM22 10.227A23.964 23.964 0 0 0 18.83 12h1.166v2h-2v2h2v2h-2v-2h-2v2h-2v-1.8A23.964 23.964 0 0 0 12 18.83V20h10v-9.773zM17.996 14v-1.375a23.964 23.964 0 0 0-1.8 1.375h1.8zm8 1.998v2h25.445a23.964 23.964 0 0 0-1.606-2h-23.84zm-13.996 6v2h16v-2H12zm20 0v20h20v-20H32zm1.998 2h16v16h-16v-16zm-21.998 4v2h16v-2H12zm0 6v2h16v-2H12zm0 6v2h16v-2H12zM12.621 46a23.964 23.964 0 0 0 1.574 2h35.61a23.964 23.964 0 0 0 1.573-2H12.62zm6.21 6a23.964 23.964 0 0 0 3.753 2h18.832a23.964 23.964 0 0 0 3.754-2H18.83z"
     opacity=".25"
     id="path4" />
  <path
     fill="#7cd1cc"
     fill-rule="evenodd"
     d="M35.996 25.998H48v12.004H35.996z"
     id="path6"
     style="fill:#72bfd0" />
</svg>
