<?xml version="1.0" encoding="UTF-8" standalone="no"?>
<svg
   width="64"
   height="64"
   viewBox="0 0 16.933 16.933"
   version="1.1"
   id="svg2"
   sodipodi:docname="preferences-desktop-display-nightcolor.svg"
   inkscape:version="1.3.2 (091e20ef0f, 2023-11-25, custom)"
   xmlns:inkscape="http://www.inkscape.org/namespaces/inkscape"
   xmlns:sodipodi="http://sodipodi.sourceforge.net/DTD/sodipodi-0.dtd"
   xmlns="http://www.w3.org/2000/svg"
   xmlns:svg="http://www.w3.org/2000/svg">
  <defs
     id="defs2" />
  <sodipodi:namedview
     id="namedview2"
     pagecolor="#f8f8f2"
     bordercolor="#282a36"
     borderopacity="0.25"
     inkscape:showpageshadow="2"
     inkscape:pageopacity="0.0"
     inkscape:pagecheckerboard="0"
     inkscape:deskcolor="#d1d1d1"
     inkscape:zoom="12.875"
     inkscape:cx="31.961165"
     inkscape:cy="32"
     inkscape:window-width="1920"
     inkscape:window-height="1040"
     inkscape:window-x="0"
     inkscape:window-y="0"
     inkscape:window-maximized="1"
     inkscape:current-layer="svg2" />
  <circle
     cx="8.466"
     cy="8.466"
     r="7.144"
     fill="#77767b"
     style="paint-order:stroke fill markers;fill:#44475a"
     id="circle1" />
  <path
     fill="#f8f8f2"
     d="M11.128 8.825a3.087 3.087 0 0 0-2.838 1.888 3.087 3.087 0 0 0-.01.026 2.47 2.47 0 0 0-.032-.007 2.47 2.47 0 0 0-.51-.053 2.47 2.47 0 0 0-2.47 2.47 2.47 2.47 0 0 0 2.47 2.47 2.47 2.47 0 0 0 .062 0 2.47 2.47 0 0 0 .073-.004 2.47 2.47 0 0 0 .064-.005h6.423a1.851 1.851 0 0 0 .042.004 1.851 1.851 0 0 0 .127.005 1.851 1.851 0 0 0 1.852-1.852 1.851 1.851 0 0 0-1.852-1.85 1.851 1.851 0 0 0-.308.024 3.087 3.087 0 0 0 0-.028 3.087 3.087 0 0 0-3.087-3.088 3.087 3.087 0 0 0-.006 0z"
     style="paint-order:stroke markers fill"
     id="path1" />
  <path
     fill="#f8f8f2"
     d="M32 5A27 27 0 0 0 5 32a27 27 0 0 0 27 27 27 27 0 0 0 7.5-1.076A27 27 0 0 1 20 32 27 27 0 0 1 39.525 6.07 27 27 0 0 0 32 5z"
     opacity=".15"
     style="paint-order:stroke fill markers"
     transform="scale(.26458)"
     id="path2" />
</svg>
