<?xml version="1.0" encoding="UTF-8" standalone="no"?>
<svg
   width="64"
   height="64"
   version="1.1"
   id="svg43874"
   sodipodi:docname="preferences-devices-drive-optical-check.svg"
   inkscape:version="1.2.2 (b0a8486541, 2022-12-01)"
   xmlns:inkscape="http://www.inkscape.org/namespaces/inkscape"
   xmlns:sodipodi="http://sodipodi.sourceforge.net/DTD/sodipodi-0.dtd"
   xmlns="http://www.w3.org/2000/svg"
   xmlns:svg="http://www.w3.org/2000/svg">
  <defs
     id="defs43878" />
  <sodipodi:namedview
     id="namedview43876"
     pagecolor="#505050"
     bordercolor="#eeeeee"
     borderopacity="1"
     inkscape:showpageshadow="0"
     inkscape:pageopacity="0"
     inkscape:pagecheckerboard="0"
     inkscape:deskcolor="#505050"
     showgrid="false"
     inkscape:zoom="15.921875"
     inkscape:cx="29.83317"
     inkscape:cy="32.031403"
     inkscape:window-width="1280"
     inkscape:window-height="1361"
     inkscape:window-x="0"
     inkscape:window-y="0"
     inkscape:window-maximized="0"
     inkscape:current-layer="svg43874" />
  <path
     d="m32 5a27 27 0 0 0-27 27 27 27 0 0 0 27 27 27 27 0 0 0 27-27 27 27 0 0 0-27-27zm0 15.428a11.572 11.572 0 0 1 11.572 11.572 11.572 11.572 0 0 1-11.572 11.572 11.572 11.572 0 0 1-11.572-11.572 11.572 11.572 0 0 1 11.572-11.572z"
     fill="#c2c8cc"
     id="path43862"
     style="fill:#cbcccc" />
  <path
     d="M 32,9 A 23,23 0 0 0 9,32 23,23 0 0 0 32,55 23,23 0 0 0 55,32 23,23 0 0 0 32,9 Z m 0,13.143 A 9.857,9.857 0 0 1 41.857,32 9.857,9.857 0 0 1 32,41.857 9.857,9.857 0 0 1 22.143,32 9.857,9.857 0 0 1 32,22.143 Z"
     fill="#f8f8f2"
     opacity=".15"
     id="path43864"
     style="opacity:0.5" />
  <path
     d="m32 17a15 15 0 0 0-15 15 15 15 0 0 0 15 15 15 15 0 0 0 15-15 15 15 0 0 0-15-15zm0 9a6 6 0 0 1 6 6 6 6 0 0 1-6 6 6 6 0 0 1-6-6 6 6 0 0 1 6-6z"
     opacity=".35"
     id="path43866" />
  <g
     transform="matrix(2 0 0 2 -43.625 -48.33)"
     stroke-width=".5"
     id="g43872">
    <path
       d="m46.813 44.165c-2.77 0-5 2.23-5 5s2.23 5 5 5 5-2.23 5-5-2.23-5-5-5z"
       fill="#2cc36c"
       id="path43868"
       style="fill:#44c367" />
    <path
       d="m49.312 46.665 1 1-4.5 4.5-2.5-2.5 1-1 1.5 1.5z"
       fill="#f8f8f2"
       id="path43870" />
  </g>
</svg>
