<?xml version="1.0" encoding="UTF-8" standalone="no"?>
<svg
   width="64"
   height="64"
   version="1.1"
   id="svg5"
   sodipodi:docname="preferences-devices-drive-optical-check.svg"
   inkscape:version="1.3.2 (091e20ef0f, 2023-11-25, custom)"
   xmlns:inkscape="http://www.inkscape.org/namespaces/inkscape"
   xmlns:sodipodi="http://sodipodi.sourceforge.net/DTD/sodipodi-0.dtd"
   xmlns="http://www.w3.org/2000/svg"
   xmlns:svg="http://www.w3.org/2000/svg">
  <defs
     id="defs5" />
  <sodipodi:namedview
     id="namedview5"
     pagecolor="#f8f8f2"
     bordercolor="#282a36"
     borderopacity="0.25"
     inkscape:showpageshadow="2"
     inkscape:pageopacity="0.0"
     inkscape:pagecheckerboard="0"
     inkscape:deskcolor="#d1d1d1"
     inkscape:zoom="12.875"
     inkscape:cx="31.961165"
     inkscape:cy="32"
     inkscape:window-width="1920"
     inkscape:window-height="1040"
     inkscape:window-x="0"
     inkscape:window-y="0"
     inkscape:window-maximized="1"
     inkscape:current-layer="g5" />
  <path
     fill="#c2c8cc"
     d="M32 5A27 27 0 0 0 5 32a27 27 0 0 0 27 27 27 27 0 0 0 27-27A27 27 0 0 0 32 5zm0 15.428A11.572 11.572 0 0 1 43.572 32 11.572 11.572 0 0 1 32 43.572 11.572 11.572 0 0 1 20.428 32 11.572 11.572 0 0 1 32 20.428z"
     id="path1" />
  <path
     fill="#f8f8f2"
     d="M32 9A23 23 0 0 0 9 32a23 23 0 0 0 23 23 23 23 0 0 0 23-23A23 23 0 0 0 32 9Zm0 13.143A9.857 9.857 0 0 1 41.857 32 9.857 9.857 0 0 1 32 41.857 9.857 9.857 0 0 1 22.143 32 9.857 9.857 0 0 1 32 22.143Z"
     opacity=".15"
     id="path2" />
  <path
     d="M32 17a15 15 0 0 0-15 15 15 15 0 0 0 15 15 15 15 0 0 0 15-15 15 15 0 0 0-15-15zm0 9a6 6 0 0 1 6 6 6 6 0 0 1-6 6 6 6 0 0 1-6-6 6 6 0 0 1 6-6z"
     opacity=".35"
     id="path3" />
  <g
     stroke-width=".5"
     id="g5">
    <path
       fill="#2cc36c"
       d="M50.001 40c-5.54 0-10 4.46-10 10s4.46 10 10 10 10-4.46 10-10-4.46-10-10-10z"
       id="path4"
       style="fill:#44c367" />
    <path
       fill="#f8f8f2"
       d="m54.999 45 2 2-9 9-5-5 2-2 3 3z"
       id="path5" />
  </g>
</svg>
