<?xml version="1.0" encoding="UTF-8" standalone="no"?>
<svg
   width="64"
   height="64"
   version="1.1"
   id="svg6"
   sodipodi:docname="preferences-system-splash.svg"
   inkscape:version="1.3.2 (091e20ef0f, 2023-11-25, custom)"
   xmlns:inkscape="http://www.inkscape.org/namespaces/inkscape"
   xmlns:sodipodi="http://sodipodi.sourceforge.net/DTD/sodipodi-0.dtd"
   xmlns="http://www.w3.org/2000/svg"
   xmlns:svg="http://www.w3.org/2000/svg">
  <defs
     id="defs6" />
  <sodipodi:namedview
     id="namedview6"
     pagecolor="#f8f8f2"
     bordercolor="#282a36"
     borderopacity="0.25"
     inkscape:showpageshadow="2"
     inkscape:pageopacity="0.0"
     inkscape:pagecheckerboard="0"
     inkscape:deskcolor="#d1d1d1"
     inkscape:zoom="12.875"
     inkscape:cx="31.961165"
     inkscape:cy="32"
     inkscape:window-width="1920"
     inkscape:window-height="1040"
     inkscape:window-x="0"
     inkscape:window-y="0"
     inkscape:window-maximized="1"
     inkscape:current-layer="svg6" />
  <linearGradient
     id="b"
     x1="16"
     x2="16"
     y1="18"
     y2="6"
     gradientTransform="translate(44.967 1009.3)"
     gradientUnits="userSpaceOnUse">
    <stop
       offset="0"
       stop-color="#f8f8f2"
       id="stop1" />
    <stop
       offset="1"
       stop-color="#f8f8f2"
       id="stop2" />
  </linearGradient>
  <linearGradient
     id="a"
     x1="19.514"
     x2="15"
     y1="15.555"
     y2="11"
     gradientTransform="translate(44.967 1009.3)"
     gradientUnits="userSpaceOnUse">
    <stop
       offset="0"
       stop-color="#f3f3f3"
       id="stop3" />
    <stop
       offset="1"
       stop-color="#f8f8f2"
       stop-opacity="0"
       id="stop4" />
  </linearGradient>
  <path
     fill="#c4c7cc"
     d="M25.9 43.834c-.52 0-.9.378-.9.834v10.955L20.922 56H20.9c-.52 0-.9.378-.9.834V58h24v-1.166c0-.456-.381-.834-.9-.834h-.024L39 55.623V44.668c0-.456-.38-.834-.9-.834z"
     id="path4" />
  <rect
     width="60"
     height="40"
     x="2"
     y="6"
     fill="#2f3337"
     rx="6"
     ry="6"
     id="rect4" />
  <rect
     width="54"
     height="34"
     x="5"
     y="9"
     fill="#6272a4"
     rx="3"
     ry="3"
     id="rect5"
     style="fill:#bd93f9" />
  <g
     stroke-width=".5"
     id="g6">
    <path
       fill="url(#a)"
       d="M60.967 1015.3a6 6 0 0 0-6 6 6 6 0 0 0 6 6 6 6 0 0 0 6-6 6 6 0 0 0-6-6zm0 1a5 5 0 0 1 5 5 5 5 0 0 1-5 5 5 5 0 0 1-5-5 5 5 0 0 1 5-5z"
       transform="matrix(2 0 0 2 -89.934 -2016.7)"
       id="path5" />
    <path
       fill="url(#b)"
       d="M60.967 1015.3a6 6 0 0 0-6 6 6 6 0 0 0 6 6 6 6 0 0 0 4.215-1.736l-.701-.71a5 5 0 0 1-3.514 1.446 5 5 0 0 1-5-5 5 5 0 0 1 5-5z"
       transform="matrix(2 0 0 2 -89.934 -2016.7)"
       id="path6" />
  </g>
</svg>
