<?xml version="1.0" encoding="UTF-8" standalone="no"?>
<svg
   width="64"
   height="64"
   version="1.1"
   id="svg20"
   sodipodi:docname="preferences-security-kerberos.svg"
   inkscape:version="1.2.2 (b0a8486541, 2022-12-01)"
   xmlns:inkscape="http://www.inkscape.org/namespaces/inkscape"
   xmlns:sodipodi="http://sodipodi.sourceforge.net/DTD/sodipodi-0.dtd"
   xmlns="http://www.w3.org/2000/svg"
   xmlns:svg="http://www.w3.org/2000/svg">
  <defs
     id="defs24" />
  <sodipodi:namedview
     id="namedview22"
     pagecolor="#505050"
     bordercolor="#eeeeee"
     borderopacity="1"
     inkscape:showpageshadow="0"
     inkscape:pageopacity="0"
     inkscape:pagecheckerboard="0"
     inkscape:deskcolor="#505050"
     showgrid="false"
     inkscape:zoom="15.921875"
     inkscape:cx="29.895976"
     inkscape:cy="32.031403"
     inkscape:window-width="2560"
     inkscape:window-height="1361"
     inkscape:window-x="0"
     inkscape:window-y="0"
     inkscape:window-maximized="1"
     inkscape:current-layer="svg20" />
  <g
     transform="matrix(1.0385 0 0 1.0385 -1.2308 -1.2308)"
     stroke-width=".9273"
     id="g18">
    <circle
       cx="32"
       cy="32"
       r="26"
       fill="#f7c42a"
       style="paint-order:markers stroke fill;fill:#ffb86c"
       id="circle2" />
    <g
       transform="matrix(1.1034,0,0,1.1034,-3.0579,-2.3958)"
       fill="#f8f8f2"
       id="g16">
      <path
         d="m17.804 33.038c0.769-0.268 1.574-0.524 1.967-0.918 0.25-0.25 0.375-0.541 0.438-0.853 0.062-0.313 0.062-0.646 0.062-0.979 0 0-3 0-3 1 0 0 0 1 0.533 1.75z"
         opacity=".35"
         stroke-width=".79087"
         id="path4" />
      <path
         transform="translate(-.22881 -.82886)"
         d="m39.5 21.117c-1 0-2.332 2.665-3.832 4.332s-2.834 1.668-3.834 2.168-1.667 1.499-2.668 2.166-2.331 1.001-5 1.168-3.666 0.16602-3.666 0.16602c0 0.333-5e-4 0.66552-0.0625 0.97852a1.607 1.607 0 0 1-0.14453 0.43945c-0.0015 0.0032-0.0023 0.0066-0.0039 0.0098a1.607 1.607 0 0 1-0.0039 0.0059 1.607 1.607 0 0 1-0.2793 0.39062c-0.0024 0.0025-0.0034 0.0054-0.0059 0.0078-0.393 0.394-1.1978 0.64997-1.9668 0.91797 0.313 1.237 0.4198 2.213 1.4668 3.25 2 2 3.972 1.673 6 2s4 0 6 0 2 0 4 2l0.5293 0.5293a15.34 15.34 0 0 0 4.4707-2.5294 15.336 15.336 0 0 0 3.9883-4.9785c-1.3911-0.76939-2.9883-1.8886-2.9883-3.0215 0-2-1-10-2-10zm-0.5 2.832c0.833 0.167 1.165 2.166 0.83203 3.5-0.332 1.334-1.3281 1.999-2.1641 1.832s-1.501-1.164-1.168-2.498c0.334-1.334 1.668-3 2.5-2.834zm-6.541 4.293c0.29175-1.26e-4 0.54248 0.12355 0.70898 0.37305 0.333 0.499 0.33106 1.498-0.33594 2-0.668 0.502-1.9971 0.501-2.3301 0l-2e-3 2e-3c-0.333-0.501 0.334-1.501 1-2 0.3335-0.25 0.66723-0.37488 0.95898-0.375z"
         stroke-width=".87269"
         id="path6" />
      <g
         stroke-width=".79087"
         id="g14">
        <path
           d="m30.271 29.788c-0.333-0.501 0.334-1.501 1-2 0.667-0.5 1.334-0.5 1.667-1e-3s0.333 1.497-0.334 1.999c-0.668 0.502-1.999 0.502-2.332 1e-3z"
           opacity=".35"
           id="path8" />
        <path
           d="m38.771 23.12c0.833 0.167 1.166 2.166 0.833 3.5-0.332 1.334-1.33 2-2.166 1.833s-1.5-1.165-1.167-2.499c0.334-1.334 1.668-3 2.5-2.834z"
           opacity=".35"
           id="path10" />
        <path
           d="m44.271 33.288a15.336 15.336 0 0 1-4 5 15.34 15.34 0 0 1-4.47 2.53l1.236 1.236a15.328 15.328 0 0 0 5.234-2.766 15.336 15.336 0 0 0 4-5z"
           opacity=".5"
           id="path12" />
      </g>
    </g>
  </g>
</svg>
