<?xml version="1.0" encoding="UTF-8" standalone="no"?>
<svg
   width="64"
   height="64"
   version="1.1"
   id="svg4"
   sodipodi:docname="preferences-kde-connect.svg"
   inkscape:version="1.3.2 (091e20ef0f, 2023-11-25, custom)"
   xmlns:inkscape="http://www.inkscape.org/namespaces/inkscape"
   xmlns:sodipodi="http://sodipodi.sourceforge.net/DTD/sodipodi-0.dtd"
   xmlns="http://www.w3.org/2000/svg"
   xmlns:svg="http://www.w3.org/2000/svg">
  <sodipodi:namedview
     id="namedview4"
     pagecolor="#f8f8f2"
     bordercolor="#282a36"
     borderopacity="0.25"
     inkscape:showpageshadow="2"
     inkscape:pageopacity="0.0"
     inkscape:pagecheckerboard="0"
     inkscape:deskcolor="#d1d1d1"
     inkscape:zoom="12.875"
     inkscape:cx="31.961165"
     inkscape:cy="32"
     inkscape:window-width="1920"
     inkscape:window-height="1040"
     inkscape:window-x="0"
     inkscape:window-y="0"
     inkscape:window-maximized="1"
     inkscape:current-layer="svg4" />
  <defs
     id="defs2">
    <linearGradient
       id="a"
       x1="-22.977"
       x2="-15.685"
       y1="280.96"
       y2="296.25"
       gradientTransform="matrix(4.0495 0 0 3.7796 110.26 -1058.8)"
       gradientUnits="userSpaceOnUse">
      <stop
         offset="0"
         stop-color="#66bcff"
         id="stop1"
         style="stop-color:#a6edfa;stop-opacity:1;" />
      <stop
         offset="1"
         stop-color="#b29aff"
         id="stop2"
         style="stop-color:#515d85;stop-opacity:1;" />
    </linearGradient>
  </defs>
  <rect
     width="36"
     height="64"
     x="14"
     fill="#35373a"
     rx="6"
     ry="6"
     id="rect2" />
  <rect
     width="32"
     height="60"
     x="16"
     y="2"
     fill="url(#a)"
     opacity=".5"
     rx="4"
     ry="4"
     id="rect3" />
  <rect
     width="12"
     height="1"
     x="26"
     y="60"
     fill="#282a36"
     rx=".5"
     ry=".5"
     id="rect4" />
  <path
     fill="#f8f8f2"
     d="M29 24a1 1 0 1 0 0 2 1 1 0 0 0 0-2zm7 0-2 2 4 4-4 4 2 2 6-6-6-6zm-10 6a2 2 0 1 0 0 4 2 2 0 0 0 0-4zm5 6a3 3 0 1 0 0 6 3 3 0 0 0 0-6z"
     opacity=".5"
     id="path4" />
  <circle
     cx="32"
     cy="4"
     r="1"
     fill="#282a36"
     id="circle4" />
</svg>
