<?xml version="1.0" encoding="UTF-8" standalone="no"?>
<svg
   width="64"
   height="64"
   viewBox="0 0 16.933 16.933"
   version="1.1"
   id="svg18"
   sodipodi:docname="preferences-system-hotcorners.svg"
   inkscape:version="1.3.2 (091e20ef0f, 2023-11-25, custom)"
   xmlns:inkscape="http://www.inkscape.org/namespaces/inkscape"
   xmlns:sodipodi="http://sodipodi.sourceforge.net/DTD/sodipodi-0.dtd"
   xmlns="http://www.w3.org/2000/svg"
   xmlns:svg="http://www.w3.org/2000/svg">
  <sodipodi:namedview
     id="namedview18"
     pagecolor="#f8f8f2"
     bordercolor="#282a36"
     borderopacity="0.25"
     inkscape:showpageshadow="2"
     inkscape:pageopacity="0.0"
     inkscape:pagecheckerboard="0"
     inkscape:deskcolor="#d1d1d1"
     inkscape:zoom="12.875"
     inkscape:cx="31.961165"
     inkscape:cy="32"
     inkscape:window-width="1920"
     inkscape:window-height="1040"
     inkscape:window-x="0"
     inkscape:window-y="0"
     inkscape:window-maximized="1"
     inkscape:current-layer="svg18" />
  <defs
     id="defs2">
    <linearGradient
       id="a"
       x1="14.679"
       x2="2.293"
       y1="293.79"
       y2="282.98"
       gradientTransform="matrix(.99998 0 0 1.0434 0 -292.59)"
       gradientUnits="userSpaceOnUse">
      <stop
         offset="0"
         stop-color="#66bcff"
         id="stop1" />
      <stop
         offset="1"
         stop-color="#b29aff"
         id="stop2" />
    </linearGradient>
  </defs>
  <rect
     width="14.816"
     height="12.7"
     x="1.058"
     y="2.117"
     fill="url(#a)"
     rx="1.323"
     ry="1.323"
     id="rect2"
     style="fill:#44475a" />
  <rect
     width="13.229"
     height="1.058"
     x="1.852"
     y="2.646"
     opacity=".35"
     rx=".529"
     ry=".529"
     id="rect3" />
  <rect
     width="1.058"
     height=".529"
     x="2.117"
     y="2.91"
     opacity=".35"
     ry=".265"
     style="paint-order:stroke markers fill"
     id="rect4" />
  <rect
     width="2.646"
     height=".529"
     x="7.144"
     y="2.91"
     opacity=".35"
     ry=".265"
     style="paint-order:stroke markers fill"
     id="rect5" />
  <rect
     width=".529"
     height=".529"
     x="14.287"
     y="2.91"
     opacity=".35"
     ry=".265"
     style="paint-order:stroke markers fill"
     id="rect6" />
  <rect
     width=".794"
     height=".529"
     x="13.229"
     y="2.91"
     opacity=".35"
     ry=".265"
     style="paint-order:stroke markers fill"
     id="rect7" />
  <rect
     width=".529"
     height=".529"
     x="12.435"
     y="2.91"
     opacity=".35"
     ry=".265"
     style="paint-order:stroke markers fill"
     id="rect8" />
  <rect
     width="10.053"
     height="1.323"
     x="3.44"
     y="12.7"
     fill="#f8f8f2"
     opacity=".35"
     paint-order="markers stroke fill"
     rx=".265"
     ry=".265"
     id="rect9" />
  <g
     fill="#ccdfff"
     transform="translate(0 1.722)"
     id="g13">
    <rect
       width="1.323"
       height="1.323"
       x="4.233"
       y="10.448"
       rx=".264"
       ry=".264"
       style="paint-order:stroke markers fill"
       id="rect10" />
    <rect
       width="1.323"
       height="1.323"
       x="6.614"
       y="10.448"
       rx=".264"
       ry=".264"
       style="paint-order:stroke markers fill"
       id="rect11" />
    <rect
       width="1.323"
       height="1.323"
       x="8.996"
       y="10.448"
       rx=".264"
       ry=".264"
       style="paint-order:stroke markers fill"
       id="rect12" />
    <rect
       width="1.323"
       height="1.323"
       x="11.376"
       y="10.448"
       rx=".264"
       ry=".264"
       style="paint-order:stroke markers fill"
       id="rect13" />
  </g>
  <g
     style="paint-order:markers stroke fill"
     id="g15">
    <path
       d="M2.622 2.12a1.587 1.587 0 0 1 .023.265 1.587 1.587 0 0 1-1.587 1.587v2.646A4.233 4.233 0 0 0 5.29 2.385a4.233 4.233 0 0 0-.01-.265H2.622z"
       opacity=".15"
       id="path13" />
    <path
       d="M2.622 2.12a1.587 1.587 0 0 1 .023.265 1.587 1.587 0 0 1-1.587 1.587v1.323a2.91 2.91 0 0 0 2.91-2.91 2.91 2.91 0 0 0-.015-.265h-1.33z"
       opacity=".2"
       id="path14" />
    <path
       d="M2.381 2.12a1.32 1.32 0 0 0-1.323 1.323v.53a1.587 1.587 0 0 0 1.587-1.588 1.587 1.587 0 0 0-.022-.265H2.38z"
       opacity=".45"
       id="path15" />
  </g>
  <g
     style="paint-order:markers stroke fill"
     id="g18">
    <path
       d="M14.31 2.12a1.587 1.587 0 0 0-.023.265 1.587 1.587 0 0 0 1.587 1.587v2.646a4.233 4.233 0 0 1-4.232-4.233 4.233 4.233 0 0 1 .01-.265z"
       opacity=".15"
       id="path16" />
    <path
       d="M14.31 2.12a1.587 1.587 0 0 0-.023.265 1.587 1.587 0 0 0 1.587 1.587v1.323a2.91 2.91 0 0 1-2.91-2.91 2.91 2.91 0 0 1 .015-.265z"
       opacity=".2"
       id="path17" />
    <path
       d="M14.551 2.12c.733 0 1.323.59 1.323 1.323v.53a1.587 1.587 0 0 1-1.587-1.588 1.587 1.587 0 0 1 .023-.265z"
       opacity=".45"
       id="path18" />
  </g>
</svg>
