<?xml version="1.0" encoding="UTF-8" standalone="no"?>
<svg
   width="64"
   height="64"
   version="1.1"
   viewBox="0 0 16.933 16.933"
   id="svg3315"
   sodipodi:docname="preferences-desktop-display-color.svg"
   inkscape:version="1.2.2 (b0a8486541, 2022-12-01)"
   xmlns:inkscape="http://www.inkscape.org/namespaces/inkscape"
   xmlns:sodipodi="http://sodipodi.sourceforge.net/DTD/sodipodi-0.dtd"
   xmlns="http://www.w3.org/2000/svg"
   xmlns:svg="http://www.w3.org/2000/svg">
  <defs
     id="defs3319" />
  <sodipodi:namedview
     id="namedview3317"
     pagecolor="#505050"
     bordercolor="#eeeeee"
     borderopacity="1"
     inkscape:showpageshadow="0"
     inkscape:pageopacity="0"
     inkscape:pagecheckerboard="0"
     inkscape:deskcolor="#505050"
     showgrid="false"
     inkscape:zoom="15.921875"
     inkscape:cx="29.895976"
     inkscape:cy="32.031403"
     inkscape:window-width="2560"
     inkscape:window-height="1361"
     inkscape:window-x="0"
     inkscape:window-y="0"
     inkscape:window-maximized="1"
     inkscape:current-layer="svg3315" />
  <rect
     x="1.0583"
     y="1.0583"
     width="14.816"
     height="14.816"
     ry="7.4083"
     fill="#f8f8f2"
     stroke-width="1.0371"
     style="paint-order:stroke markers fill"
     id="rect3289" />
  <path
     d="m8.4666 1.0583c-1.5769 0-3.0347 0.48934-4.2333 1.3229h8.4666c-1.1987-0.83356-2.6564-1.3229-4.2333-1.3229z"
     opacity=".35"
     stroke-width="1.8014"
     style="paint-order:stroke markers fill"
     id="path3291" />
  <rect
     x="7.1436"
     y="1.58"
     width="2.6458"
     height=".52916"
     ry=".26508"
     opacity=".35"
     style="paint-order:stroke markers fill"
     id="rect3293" />
  <g
     transform="matrix(.19274 0 0 .19294 6.581 6.4468)"
     stroke-width=".051675"
     id="g3313">
    <path
       d="m-7.7599 10.483c0 9.7102 7.8717 17.582 17.582 17.582 9.7102 0 17.582-7.8717 17.582-17.582 0-9.7102-7.8717-17.582-17.582-17.582-9.7102 0-17.582 7.8717-17.582 17.582z"
       fill="#f8f8f2"
       p-id="2619"
       id="path3295" />
    <path
       d="m1.1699 6.8714v-16.612c-5.3422 2.2723-9.6014 6.6132-11.767 12.004l11.766 11.754 2.06e-4 -7.1461z"
       fill="#afe164"
       p-id="2620"
       id="path3297"
       style="fill:#50fa7b" />
    <path
       d="m6.2058 1.8407 11.766-11.754c-2.5339-1.0186-5.295-1.5827-8.1894-1.5827-3.0594 0-5.9695 0.62682-8.6129 1.7554v16.612z"
       fill="#d7e664"
       p-id="2621"
       id="path3299"
       style="fill:#7afa99" />
    <path
       d="m29.99 1.8407h-16.63l5.0359 5.0307 11.766 11.754c1.0197-2.531 1.5844-5.2891 1.5844-8.1804 0-3.0561-0.62755-5.9631-1.757-8.604z"
       fill="#ffaa64"
       p-id="2622"
       id="path3301"
       style="fill:#ffb86c" />
    <path
       d="m18.396 14.018v16.612c5.3417-2.2726 9.6011-6.6135 11.766-12.005l-11.766-11.754v7.1465z"
       fill="#ff6469"
       p-id="2623"
       id="path3303"
       style="fill:#fd7e7c" />
    <path
       d="m13.36 19.048-11.767 11.754c2.5339 1.0186 5.295 1.5827 8.1896 1.5827 3.0592 0 5.9693-0.62682 8.6129-1.755v-16.612l-5.0359 5.0305z"
       fill="#c3b4fa"
       p-id="2624"
       id="path3305"
       style="fill:#ccacf7" />
    <path
       d="m6.2058 19.048h-16.63c2.2748 5.336 6.6202 9.5909 12.017 11.754l11.766-11.754z"
       fill="#7dd2f0"
       p-id="2625"
       id="path3307"
       style="fill:#4cc3dc" />
    <path
       d="m1.1699 14.018-11.767-11.754c-1.0197 2.5312-1.5844 5.2894-1.5844 8.1809 0 3.0559 0.62755 5.9629 1.7572 8.6037h16.63z"
       fill="#7de6c3"
       p-id="2626"
       id="path3309"
       style="fill:#a6edfa" />
    <path
       d="m13.36 1.8407h16.63c-2.275-5.3363-6.6206-9.5912-12.017-11.754l-11.766 11.754z"
       fill="#ffe669"
       p-id="2627"
       id="path3311"
       style="fill:#f3faa6" />
  </g>
</svg>
