<?xml version="1.0" encoding="UTF-8" standalone="no"?>
<svg
   width="64"
   height="64"
   version="1.1"
   id="svg4"
   sodipodi:docname="preferences-desktop-touchpad.svg"
   inkscape:version="1.3.2 (091e20ef0f, 2023-11-25, custom)"
   xmlns:inkscape="http://www.inkscape.org/namespaces/inkscape"
   xmlns:sodipodi="http://sodipodi.sourceforge.net/DTD/sodipodi-0.dtd"
   xmlns="http://www.w3.org/2000/svg"
   xmlns:svg="http://www.w3.org/2000/svg">
  <sodipodi:namedview
     id="namedview4"
     pagecolor="#f8f8f2"
     bordercolor="#282a36"
     borderopacity="0.25"
     inkscape:showpageshadow="2"
     inkscape:pageopacity="0.0"
     inkscape:pagecheckerboard="0"
     inkscape:deskcolor="#d1d1d1"
     inkscape:zoom="12.875"
     inkscape:cx="31.961165"
     inkscape:cy="32"
     inkscape:window-width="1920"
     inkscape:window-height="1040"
     inkscape:window-x="0"
     inkscape:window-y="0"
     inkscape:window-maximized="1"
     inkscape:current-layer="svg4" />
  <defs
     id="defs2">
    <linearGradient
       id="a"
       x1="399.57"
       x2="399.57"
       y1="545.8"
       y2="517.8"
       gradientTransform="translate(-826.36 -1107.5) scale(2.1429)"
       gradientUnits="userSpaceOnUse">
      <stop
         offset="0"
         stop-color="#3889e9"
         id="stop1" />
      <stop
         offset="1"
         stop-color="#5ea5fb"
         id="stop2" />
    </linearGradient>
  </defs>
  <rect
     width="56"
     height="48"
     x="4"
     y="8"
     fill="#282a36"
     rx="8"
     ry="8"
     style="paint-order:stroke fill markers;fill:#282a36"
     id="rect2" />
  <circle
     cx="32.02"
     cy="32.044"
     r="30.001"
     fill="none"
     id="circle2" />
  <rect
     width="56"
     height="1"
     x="4"
     y="40"
     opacity=".5"
     rx="0"
     ry="0"
     style="paint-order:stroke fill markers"
     id="rect3" />
  <path
     fill="#1fb5f8"
     d="M28 16.693a4.308 4.308 0 0 0-4.308 4.308 4.308 4.308 0 0 0 3.231 4.169v-2.31A2.154 2.154 0 0 1 25.846 21 2.154 2.154 0 0 1 28 18.848 2.154 2.154 0 0 1 30.154 21a2.154 2.154 0 0 1-.022.29l1.818 1.413a4.308 4.308 0 0 0 .357-1.703A4.308 4.308 0 0 0 28 16.693zm0 4.308.013 21 6.449-8.616h9.692L28 21z"
     id="path3"
     style="fill:#4cc3dc" />
  <rect
     width="1"
     height="15"
     x="31.5"
     y="41"
     opacity=".5"
     rx="0"
     ry="0"
     style="paint-order:stroke fill markers"
     id="rect4" />
</svg>
