<?xml version="1.0" encoding="UTF-8" standalone="no"?>
<svg
   width="64"
   height="64"
   viewBox="0 0 16.933 16.933"
   version="1.1"
   id="svg38"
   sodipodi:docname="preferences-color.svg"
   inkscape:version="1.2.2 (b0a8486541, 2022-12-01)"
   xmlns:inkscape="http://www.inkscape.org/namespaces/inkscape"
   xmlns:sodipodi="http://sodipodi.sourceforge.net/DTD/sodipodi-0.dtd"
   xmlns="http://www.w3.org/2000/svg"
   xmlns:svg="http://www.w3.org/2000/svg">
  <defs
     id="defs42" />
  <sodipodi:namedview
     id="namedview40"
     pagecolor="#505050"
     bordercolor="#eeeeee"
     borderopacity="1"
     inkscape:showpageshadow="0"
     inkscape:pageopacity="0"
     inkscape:pagecheckerboard="0"
     inkscape:deskcolor="#505050"
     showgrid="false"
     inkscape:zoom="15.921875"
     inkscape:cx="29.895976"
     inkscape:cy="32.031403"
     inkscape:window-width="2560"
     inkscape:window-height="1361"
     inkscape:window-x="0"
     inkscape:window-y="0"
     inkscape:window-maximized="1"
     inkscape:current-layer="svg38" />
  <g
     stroke-width=".963"
     id="g26">
    <path
       fill="#44c367"
       d="M13.323 3.603c-.048.049 2.02 4.86 2.02 4.86l-2.02 4.858s-4.86-2.568-4.86-4.859c0-2.29 4.86-4.859 4.86-4.859z"
       style="isolation:isolate;fill:#44c367"
       transform="matrix(1.0382 0 0 1.0384 -.322 -.322)"
       id="path2" />
    <path
       fill="#c7484a"
       d="M3.604 13.321c.049-.049-2.02-4.859-2.02-4.859l2.02-4.859s4.86 2.569 4.86 4.86c0 2.29-4.86 4.858-4.86 4.858z"
       style="isolation:isolate;fill:#c7484a"
       transform="matrix(1.0382 0 0 1.0384 -.322 -.322)"
       id="path4" />
    <path
       fill="#ffda64"
       d="M13.323 3.603c-.048.049-4.86-2.019-4.86-2.019l-4.86 2.019 4.86 4.86z"
       style="isolation:isolate;fill:#c7925b"
       transform="matrix(1.0382 0 0 1.0384 -.322 -.322)"
       id="path6" />
    <path
       fill="#168daa"
       d="m3.604 13.321 4.86 2.013s4.81-2.062 4.86-2.013l-4.86-4.859z"
       style="isolation:isolate;fill:#515d85"
       transform="matrix(1.0382 0 0 1.0384 -.322 -.322)"
       id="path8" />
    <path
       fill="#a6d74f"
       d="M8.464 1.587a6.846 6.846 0 0 0 2.019 4.862l2.845-2.844a6.88 6.88 0 0 0-4.861-2.018z"
       style="isolation:isolate;fill:#7afa99"
       transform="matrix(1.0382 0 0 1.0384 -.322 -.322)"
       id="path10" />
    <path
       fill="#50fa7b"
       d="m13.328 3.605-2.845 2.844a6.84 6.84 0 0 0 4.863 2.012 6.88 6.88 0 0 0-2.018-4.856z"
       style="isolation:isolate;fill:#50fa7b"
       transform="matrix(1.0382 0 0 1.0384 -.322 -.322)"
       id="path12" />
    <path
       fill="#6272a4"
       d="M10.476 10.481a6.85 6.85 0 0 0-2.019 4.862h.069a6.88 6.88 0 0 0 4.8-2.013z"
       style="isolation:isolate;fill:#6272a4"
       transform="matrix(1.0382 0 0 1.0384 -.322 -.322)"
       id="path14" />
    <path
       fill="#168daa"
       d="M15.346 8.469a6.84 6.84 0 0 0-4.87 2.012l2.85 2.85a6.88 6.88 0 0 0 2.02-4.862z"
       style="isolation:isolate;fill:#70b7c8"
       transform="matrix(1.0382 0 0 1.0384 -.322 -.322)"
       id="path16" />
    <path
       fill="#9b33ae"
       d="M1.587 8.463a6.88 6.88 0 0 0 0 .003 6.88 6.88 0 0 0 2.014 4.857l2.85-2.848a6.839 6.839 0 0 0-4.864-2.011z"
       style="isolation:isolate;fill:#ff79c6"
       transform="matrix(1.0382 0 0 1.0384 -.322 -.322)"
       id="path18" />
    <path
       fill="#9576c5"
       d="M6.45 10.475 3.6 13.323a6.88 6.88 0 0 0 4.826 2.02h.043a6.85 6.85 0 0 0-2.019-4.868z"
       style="isolation:isolate;fill:#bd93f9"
       transform="matrix(1.0382 0 0 1.0384 -.322 -.322)"
       id="path20" />
    <path
       fill="#fdc92b"
       d="M8.467 1.587a6.88 6.88 0 0 0-4.858 2.015l2.848 2.847a6.85 6.85 0 0 0 2.019-4.861 6.88 6.88 0 0 0-.01 0z"
       style="isolation:isolate;fill:#f1fa8c"
       transform="matrix(1.0382 0 0 1.0384 -.322 -.322)"
       id="path22" />
    <path
       fill="#ff5555"
       d="M3.609 3.602a6.88 6.88 0 0 0-2.021 4.859 6.84 6.84 0 0 0 4.869-2.012z"
       style="isolation:isolate;fill:#ffb86c"
       transform="matrix(1.0382 0 0 1.0384 -.322 -.322)"
       id="path24" />
  </g>
  <circle
     cx="8.466"
     cy="8.466"
     r="5.292"
     fill="#f8f8f2"
     opacity=".35"
     style="paint-order:fill markers stroke;fill:#f8f8f2"
     id="circle28" />
  <g
     fill="#f8f8f2"
     color="#282a36"
     id="g36"
     style="fill:#f8f8f2">
    <path
       d="M9.59 9.589a1.588 1.588 0 0 1-2.246 0 1.588 1.588 0 0 1 0-2.245 1.588 1.588 0 0 1 2.245 0 1.588 1.588 0 0 1 0 2.245z"
       opacity=".5"
       overflow="visible"
       style="isolation:auto;mix-blend-mode:normal;paint-order:fill markers stroke;fill:#f8f8f2"
       id="path30" />
    <path
       d="M8.467 4.031a.126.126 0 0 0-.088.038L6.277 6.171a3.175 3.175 0 0 0-.056.05 3.175 3.175 0 0 0 0 4.49 3.175 3.175 0 0 0 4.49 0 3.175 3.175 0 0 0 .001-4.49 3.175 3.175 0 0 0-.076-.07c-.004-.005-.005-.01-.01-.015L8.559 4.069a.126.126 0 0 0-.092-.038zm.023 2.848a1.588 1.588 0 0 1 1.1.465 1.588 1.588 0 0 1 0 2.245 1.588 1.588 0 0 1-2.246 0 1.588 1.588 0 0 1 0-2.245 1.588 1.588 0 0 1 1.146-.465z"
       overflow="visible"
       style="isolation:auto;mix-blend-mode:normal;paint-order:fill markers stroke;fill:#f8f8f2"
       id="path32" />
    <path
       d="m9.022 7.718-.561.561-.561-.561-.188.187.562.561-.55.573.176.176.56-.562.562.562.199-.176-.573-.573.561-.56z"
       overflow="visible"
       style="isolation:auto;mix-blend-mode:normal;paint-order:fill markers stroke;fill:#f8f8f2"
       id="path34" />
  </g>
</svg>
