<?xml version="1.0" encoding="UTF-8" standalone="no"?>
<svg
   width="64"
   height="64"
   version="1.1"
   id="svg12"
   sodipodi:docname="preferences-devices-cpu.svg"
   inkscape:version="1.2.2 (b0a8486541, 2022-12-01)"
   xmlns:inkscape="http://www.inkscape.org/namespaces/inkscape"
   xmlns:sodipodi="http://sodipodi.sourceforge.net/DTD/sodipodi-0.dtd"
   xmlns="http://www.w3.org/2000/svg"
   xmlns:svg="http://www.w3.org/2000/svg">
  <defs
     id="defs16" />
  <sodipodi:namedview
     id="namedview14"
     pagecolor="#505050"
     bordercolor="#eeeeee"
     borderopacity="1"
     inkscape:showpageshadow="0"
     inkscape:pageopacity="0"
     inkscape:pagecheckerboard="0"
     inkscape:deskcolor="#505050"
     showgrid="false"
     inkscape:zoom="15.921875"
     inkscape:cx="29.895976"
     inkscape:cy="32.031403"
     inkscape:window-width="2560"
     inkscape:window-height="1361"
     inkscape:window-x="0"
     inkscape:window-y="0"
     inkscape:window-maximized="1"
     inkscape:current-layer="svg12" />
  <rect
     transform="matrix(0,-1,-1,0,0,0)"
     x="-59"
     y="-59"
     width="54"
     height="54"
     rx="27"
     ry="27"
     fill="#44475a"
     stroke-width="1.125"
     id="rect2" />
  <g
     fill="#0ff"
     id="g6"
     style="fill:#13b1d5">
    <path
       d="m14 23h12v2h-12zm14 0h6v2h-6zm8 0h14v2h-14zm-22 8h16v2h-16zm18 0h16v2h-16zm-18 8h6v2h-6zm8 0h6v2h-6zm8 0h12v2h-12z"
       opacity=".5"
       id="path4"
       style="fill:#13b1d5" />
  </g>
  <path
     d="m28.709 36.833c-1.7084 0-3.0837 1.3753-3.0837 3.0837s1.3753 3.0837 3.0837 3.0837 3.0837-1.3753 3.0837-3.0837-1.3753-3.0837-3.0837-3.0837zm-5.3964-7.7092a2.3066 2.3066 0 0 0-2.3128 2.3128 2.3128 2.3128 0 1 0 4.6255 0 2.3066 2.3066 0 0 0-2.3128-2.3128zm11.564-7.7092-3.0837 3.0837 4.6255 4.6255-4.6255 4.6255 3.0837 3.0837 7.7092-7.7092-3.0837-3.0837zm-7.7092 0a1.5418 1.5418 0 1 0 0 3.0837 1.5418 1.5418 0 1 0 0-3.0837z"
     fill="#f8f8f2"
     stroke="#44475a"
     stroke-width="2"
     id="path8" />
  <path
     d="m28.916 36.626c-1.7084 0-3.0837 1.3753-3.0837 3.0837s1.3753 3.0837 3.0837 3.0837 3.0837-1.3753 3.0837-3.0837-1.3753-3.0837-3.0837-3.0837zm-5.3964-7.7092a2.3066 2.3066 0 0 0-2.3128 2.3128 2.3128 2.3128 0 1 0 4.6255 0 2.3066 2.3066 0 0 0-2.3128-2.3128zm11.564-7.7092-3.0837 3.0837 4.6255 4.6255-4.6255 4.6255 3.0837 3.0837 7.7092-7.7092-3.0837-3.0837zm-7.7092 0a1.5418 1.5418 0 1 0 0 3.0837 1.5418 1.5418 0 1 0 0-3.0837z"
     fill="#f8f8f2"
     id="path10" />
</svg>
