<?xml version="1.0" encoding="UTF-8" standalone="no"?>
<svg
   width="64"
   height="64"
   version="1.1"
   id="svg25"
   sodipodi:docname="preferences-security-apparmor.svg"
   inkscape:version="1.2.2 (b0a8486541, 2022-12-01)"
   xmlns:inkscape="http://www.inkscape.org/namespaces/inkscape"
   xmlns:sodipodi="http://sodipodi.sourceforge.net/DTD/sodipodi-0.dtd"
   xmlns:xlink="http://www.w3.org/1999/xlink"
   xmlns="http://www.w3.org/2000/svg"
   xmlns:svg="http://www.w3.org/2000/svg">
  <defs
     id="defs29" />
  <sodipodi:namedview
     id="namedview27"
     pagecolor="#505050"
     bordercolor="#eeeeee"
     borderopacity="1"
     inkscape:showpageshadow="0"
     inkscape:pageopacity="0"
     inkscape:pagecheckerboard="0"
     inkscape:deskcolor="#505050"
     showgrid="false"
     inkscape:zoom="15.921875"
     inkscape:cx="29.895976"
     inkscape:cy="32.031403"
     inkscape:window-width="2560"
     inkscape:window-height="1361"
     inkscape:window-x="0"
     inkscape:window-y="0"
     inkscape:window-maximized="1"
     inkscape:current-layer="svg25" />
  <linearGradient
     xlink:href="#a"
     id="c"
     x1="32"
     x2="32"
     y1="54"
     y2="9"
     gradientUnits="userSpaceOnUse" />
  <linearGradient
     xlink:href="#a"
     id="b"
     x1="28.385"
     x2="28.385"
     y1="27.846"
     y2="3.615"
     gradientUnits="userSpaceOnUse" />
  <linearGradient
     id="a">
    <stop
       offset="0"
       stop-color="#eff0f1"
       id="stop4" />
    <stop
       offset="1"
       stop-color="#fcfcfc"
       id="stop6" />
  </linearGradient>
  <circle
     cx="32"
     cy="32"
     r="27"
     fill="#f0f0f0"
     style="paint-order:stroke fill markers;fill:#f8f8f2"
     id="circle9" />
  <path
     fill="#2a4f5d"
     d="M32 11.473c-5 2.648-10 3.73-15 4.736V35.95c0 5.528 8.103 13.077 15 16.58 6.898-3.503 15-11.052 15-16.58V16.21c-5-1.007-10-2.089-15-4.737z"
     id="path11"
     style="fill:#44475a" />
  <g
     stroke-width=".269"
     id="g17">
    <path
       fill="#d55443"
       d="m38.968 16.486-13.91 27.822c2.16 2.013 4.585 3.865 6.942 5.063 5.836-2.963 12.633-9.535 12.633-14.211V17.79a89.588 89.588 0 0 1-5.665-1.304z"
       id="path13"
       style="fill:#c7484a" />
    <path
       fill="url(#b)"
       d="M16 3.615c-2.886 1.529-5.73 2.112-8.615 2.693v11.846c0 1.9 1.707 4.215 3.88 6.24l9.487-18.975c-1.58-.426-3.16-.96-4.752-1.804z"
       transform="translate(8.54 8.54) scale(1.4663)"
       id="path15"
       style="fill:#f8f8f2" />
  </g>
  <g
     stroke-width=".928"
     id="g23">
    <path
       fill="url(#c)"
       d="m24 14 16 32 8-16h-4l-1 2h-6l-9-18zm14 20h4l-2 4z"
       transform="translate(6.736 6.737) scale(.78954)"
       id="path19"
       style="fill:#f8f8f2" />
    <path
       fill="#d55443"
       d="M25.685 17.79 19.37 30.424h3.158l.79-1.579h4.737l6.71 13.423h3.159zm0 6.317 1.58 3.158h-3.159z"
       id="path21"
       style="fill:#c7484a" />
  </g>
</svg>
