<?xml version="1.0" encoding="UTF-8" standalone="no"?>
<svg
   width="64"
   height="64"
   version="1.1"
   id="svg28"
   sodipodi:docname="preferences-desktop-icons.svg"
   inkscape:version="1.2.2 (b0a8486541, 2022-12-01)"
   xmlns:inkscape="http://www.inkscape.org/namespaces/inkscape"
   xmlns:sodipodi="http://sodipodi.sourceforge.net/DTD/sodipodi-0.dtd"
   xmlns="http://www.w3.org/2000/svg"
   xmlns:svg="http://www.w3.org/2000/svg">
  <defs
     id="defs32" />
  <sodipodi:namedview
     id="namedview30"
     pagecolor="#505050"
     bordercolor="#eeeeee"
     borderopacity="1"
     inkscape:showpageshadow="0"
     inkscape:pageopacity="0"
     inkscape:pagecheckerboard="0"
     inkscape:deskcolor="#505050"
     showgrid="false"
     inkscape:zoom="15.921875"
     inkscape:cx="29.895976"
     inkscape:cy="32.031403"
     inkscape:window-width="2560"
     inkscape:window-height="1361"
     inkscape:window-x="0"
     inkscape:window-y="0"
     inkscape:window-maximized="1"
     inkscape:current-layer="svg28" />
  <rect
     x="4"
     y="4"
     width="55.999"
     height="55.999"
     ry="28"
     fill="#4cc3dc"
     stroke-width="3.9198"
     style="paint-order:stroke markers fill;fill:#4cc3dc"
     id="rect2" />
  <path
     d="m32 4c-5.9602 0-11.47 1.8495-16 5h32c-4.5305-3.1505-10.04-5-16-5z"
     opacity=".35"
     stroke-width="6.8086"
     style="paint-order:stroke markers fill"
     id="path4" />
  <rect
     x="27"
     y="5.9718"
     width="10"
     height="2"
     ry="1.0019"
     opacity=".35"
     stroke-width="3.7796"
     style="paint-order:stroke markers fill"
     id="rect6" />
  <g
     transform="matrix(1.5 0 0 1.5 -569.54 -768.7)"
     stroke-width=".66667"
     id="g26">
    <path
       transform="translate(384.57,515.8)"
       d="m4 11v6h7v-5h-3l-1-1z"
       fill="#f8f8f2"
       id="path8" />
    <path
       d="m388.57 534.8v6h7v-5h-3l-1-1z"
       fill="#f8f8f2"
       opacity=".75"
       id="path10" />
    <path
       d="m398.57 526.8v6h5v-4l-2-2z"
       fill="#ffa86d"
       id="path12"
       style="fill:#ffb86c" />
    <path
       d="m401.57 526.8 2 2h-2z"
       fill="#ff7214"
       fill-rule="evenodd"
       id="path14"
       style="fill:#c7925b" />
    <path
       d="m398.57 534.8v6h5v-4l-2-2z"
       fill="#94d669"
       id="path16"
       style="fill:#50fa7b" />
    <path
       d="m401.57 534.8 2 2h-2z"
       fill="#67b632"
       fill-rule="evenodd"
       id="path18"
       style="fill:#44c367" />
    <rect
       x="406.57"
       y="526.8"
       width="6"
       height="6"
       rx="2.6e-5"
       fill="#f8f8f2"
       id="rect20" />
    <rect
       x="407.57"
       y="528.8"
       width="4"
       height="2"
       rx="1"
       opacity=".15"
       id="rect22" />
    <rect
       x="409.57"
       y="528.8"
       width="2"
       height="2"
       rx="1"
       fill="#13b1d5"
       id="rect24"
       style="fill:#13b1d5" />
  </g>
</svg>
