<?xml version="1.0" encoding="UTF-8" standalone="no"?>
<svg
   width="64"
   height="64"
   version="1.1"
   viewBox="0 0 16.933 16.933"
   id="svg34726"
   sodipodi:docname="preferences-desktop-notification.svg"
   inkscape:version="1.2.2 (b0a8486541, 2022-12-01)"
   xmlns:inkscape="http://www.inkscape.org/namespaces/inkscape"
   xmlns:sodipodi="http://sodipodi.sourceforge.net/DTD/sodipodi-0.dtd"
   xmlns="http://www.w3.org/2000/svg"
   xmlns:svg="http://www.w3.org/2000/svg">
  <defs
     id="defs34730" />
  <sodipodi:namedview
     id="namedview34728"
     pagecolor="#505050"
     bordercolor="#eeeeee"
     borderopacity="1"
     inkscape:showpageshadow="0"
     inkscape:pageopacity="0"
     inkscape:pagecheckerboard="0"
     inkscape:deskcolor="#505050"
     showgrid="false"
     inkscape:zoom="15.921875"
     inkscape:cx="29.895976"
     inkscape:cy="32.031403"
     inkscape:window-width="2560"
     inkscape:window-height="1361"
     inkscape:window-x="0"
     inkscape:window-y="0"
     inkscape:window-maximized="1"
     inkscape:current-layer="svg34726" />
  <circle
     cx="8.4665"
     cy="8.4665"
     r="7.1436"
     fill="#f8f8f2"
     style="paint-order:stroke fill markers;fill:#f8f8f2"
     id="circle34716" />
  <g
     transform="matrix(.61534 0 0 .61534 3.2567 -169.08)"
     id="g34724">
    <rect
       x="1.587"
       y="285.89"
       width="11.642"
       height="7.408"
       ry=".265"
       fill="#5ca4ed"
       style="paint-order:stroke markers fill;fill:#6272a4"
       id="rect34718" />
    <path
       d="m6.085 281.92a0.264 0.264 0 0 0-0.264 0.264v5.292c0 0.147 0.118 0.265 0.264 0.265h4.077l1.48 1.315c0.19 0.04 0.264-0.07 0.264-0.265v-1.05h3.175a0.264 0.264 0 0 0 0.265-0.265v-5.292a0.264 0.264 0 0 0-0.265-0.264z"
       fill="#a0ecff"
       style="paint-order:markers stroke fill;fill:#8be9fd"
       id="path34720" />
    <path
       d="m4.233 290.64h2.91c0.147 0 0.304 0.123 0.265 0.265l-0.508 1.847c-0.04 0.141-0.176 0.172-0.285 0.27l-2.382 2.116c-0.19 0.04-0.264-0.07-0.264-0.265v-3.968c0-0.147 0.118-0.265 0.264-0.265z"
       fill="#5ca4ed"
       style="paint-order:markers stroke fill;fill:#6272a4"
       id="path34722" />
  </g>
</svg>
