<?xml version="1.0" encoding="UTF-8" standalone="no"?>
<svg
   width="64"
   height="64"
   version="1.1"
   id="svg2"
   sodipodi:docname="preferences-system-network-vpn.svg"
   inkscape:version="1.3.2 (091e20ef0f, 2023-11-25, custom)"
   xmlns:inkscape="http://www.inkscape.org/namespaces/inkscape"
   xmlns:sodipodi="http://sodipodi.sourceforge.net/DTD/sodipodi-0.dtd"
   xmlns="http://www.w3.org/2000/svg"
   xmlns:svg="http://www.w3.org/2000/svg">
  <defs
     id="defs2" />
  <sodipodi:namedview
     id="namedview2"
     pagecolor="#f8f8f2"
     bordercolor="#282a36"
     borderopacity="0.25"
     inkscape:showpageshadow="2"
     inkscape:pageopacity="0.0"
     inkscape:pagecheckerboard="0"
     inkscape:deskcolor="#d1d1d1"
     inkscape:zoom="12.875"
     inkscape:cx="31.961165"
     inkscape:cy="32"
     inkscape:window-width="1920"
     inkscape:window-height="1040"
     inkscape:window-x="0"
     inkscape:window-y="0"
     inkscape:window-maximized="1"
     inkscape:current-layer="svg2" />
  <rect
     width="54"
     height="54"
     x="5"
     y="5"
     fill="#44475a"
     rx="27"
     id="rect1"
     style="fill:#44475a" />
  <path
     fill="#f8f8f2"
     d="M31.953 5A27 27 0 0 0 6.768 22.357h.114l5.785-1.929 3.858 3.857v-3.857l3.857-1.928v-1.93l3.857-1.928 3.857-3.857v1.928l1.928-1.928-1.928-1.93h3.857v1.93l3.857-1.93-1.929-1.928V5.096A27 27 0 0 0 31.953 5zm20.009 8.92-.723.723v1.928h2.833a27 27 0 0 0-2.11-2.651zm2.538 3.247-7.118 7.119-1.929 5.785V32l3.857 3.857 3.857 1.929 5.383-1.327a27 27 0 0 0 .403-4.46A27 27 0 0 0 54.5 17.168zM8.81 26.214l-1.929 1.929H5.265a27.18 27.18 0 0 0-.218 1.973v.004L8.81 32l1.929 1.929 3.857 1.928 1.928 1.929-1.928 1.928v3.858l1.928 3.857 3.857 3.857v5.07A27 27 0 0 0 31.952 59c.328-.006.656-.017.984-.035l.945-1.894v-1.928l3.857-1.929 1.929-1.929v-3.857l1.928-1.928v-1.93l-1.928-1.928-5.786-1.929-3.857-3.857h-1.929l-1.928-1.929L20.38 32l-3.857 1.928h-3.857v-3.857h-1.929v-3.857z"
     opacity=".75"
     id="path1" />
  <path
     fill="#ffb86c"
     d="M32 22.508c-3.052 2.12-6.48 3.192-9.92 3.92 1.63 9.244 5.14 13.198 9.92 15.674 4.78-2.476 8.29-6.43 9.92-15.674-3.44-.728-6.868-1.8-9.92-3.92zM32 18s-3.5 4.648-14 5.814c0 0 0 16.34 14 22.186 14-5.848 14-22.186 14-22.186C35.5 22.648 32 18 32 18zm0 2.41c2.776 2.354 6.786 3.922 11.98 4.714-.28 2.528-.554 4.43-1.206 6.27-1.376 3.866-2.976 6.22-4.41 7.91-2.23 2.622-4.252 3.68-6.364 4.736-2.112-1.054-4.134-2.114-6.364-4.736-1.434-1.69-3.034-4.044-4.41-7.91-.652-1.84-.926-3.74-1.208-6.27 5.196-.792 9.206-2.36 11.982-4.714z"
     id="path2"
     style="fill:#ffb86c" />
</svg>
