<?xml version="1.0" encoding="UTF-8" standalone="no"?>
<svg
   width="64"
   height="64"
   version="1.1"
   viewBox="0 0 16.933 16.933"
   id="svg2378"
   sodipodi:docname="preferences-desktop-locale.svg"
   inkscape:version="1.2.2 (b0a8486541, 2022-12-01)"
   xmlns:inkscape="http://www.inkscape.org/namespaces/inkscape"
   xmlns:sodipodi="http://sodipodi.sourceforge.net/DTD/sodipodi-0.dtd"
   xmlns="http://www.w3.org/2000/svg"
   xmlns:svg="http://www.w3.org/2000/svg">
  <defs
     id="defs2382" />
  <sodipodi:namedview
     id="namedview2380"
     pagecolor="#505050"
     bordercolor="#eeeeee"
     borderopacity="1"
     inkscape:showpageshadow="0"
     inkscape:pageopacity="0"
     inkscape:pagecheckerboard="0"
     inkscape:deskcolor="#505050"
     showgrid="false"
     inkscape:zoom="15.921875"
     inkscape:cx="29.895976"
     inkscape:cy="32.031403"
     inkscape:window-width="2560"
     inkscape:window-height="1361"
     inkscape:window-x="0"
     inkscape:window-y="0"
     inkscape:window-maximized="1"
     inkscape:current-layer="svg2378" />
  <circle
     cx="8.4665"
     cy="8.4665"
     r="7.1436"
     fill="#f8f8f2"
     style="paint-order:stroke fill markers;fill:#f8f8f2"
     id="circle2370" />
  <path
     d="m5.9859 4.7624q0.54816 0.64414 0.90203 1.353l-0.61292 0.35387q-0.32149-0.70774-0.86849-1.353zm-1.2235 2.3834h1.7393v3.7365l0.67652-0.74012 0.41863 0.38625q-0.45101 0.61176-1.2247 1.2235l-0.48224-0.41863v-3.6081h-1.1275zm2.9952-0.61176h1.0304l0.19313-0.86965h-1.5138v-0.57938h4.5414v0.57938h-2.3823l-0.19428 0.86965h1.966v1.6745h0.77251v0.58054h-4.8316v-0.58054h1.0628l0.22551-1.094h-0.86965zm1.2883 1.6745h1.7069v-1.094h-1.4814zm2.7373 1.1599v2.8021h-0.64414v-0.41863h-2.6725v0.41863h-0.64414v-2.8021zm-3.3167 1.8041h2.6725v-1.2247h-2.6725z"
     fill="#cbcccc"
     font-size="7.13"
     font-weight="400"
     letter-spacing="0"
     stroke-width=".20585"
     word-spacing="0"
     aria-label="语"
     id="path2372"
     style="fill:#9ea0a6" />
  <circle
     cx="11.641"
     cy="11.906"
     r="4.2333"
     fill="#498cd8"
     style="paint-order:stroke fill markers;fill:#6272a4"
     id="circle2374" />
  <path
     d="m11.641 10.16-0.87406 2.3702h1.7509zm-0.36373-0.63493h0.73021l1.815 4.7624h-0.66883l-0.43428-1.2213h-2.1467l-0.43428 1.2213h-0.6789z"
     fill="#f8f8f2"
     font-size="7.13"
     font-weight="400"
     letter-spacing="0"
     stroke-width=".16308"
     word-spacing="0"
     aria-label="A"
     id="path2376"
     style="fill:#f8f8f2" />
</svg>
