<?xml version="1.0" encoding="UTF-8" standalone="no"?>
<svg
   width="64"
   height="64"
   version="1.1"
   viewBox="0 0 64 64"
   id="svg8"
   sodipodi:docname="protonplus.svg"
   inkscape:version="1.2.2 (b0a8486541, 2022-12-01)"
   xmlns:inkscape="http://www.inkscape.org/namespaces/inkscape"
   xmlns:sodipodi="http://sodipodi.sourceforge.net/DTD/sodipodi-0.dtd"
   xmlns="http://www.w3.org/2000/svg"
   xmlns:svg="http://www.w3.org/2000/svg">
  <defs
     id="defs12" />
  <sodipodi:namedview
     id="namedview10"
     pagecolor="#505050"
     bordercolor="#eeeeee"
     borderopacity="1"
     inkscape:showpageshadow="0"
     inkscape:pageopacity="0"
     inkscape:pagecheckerboard="0"
     inkscape:deskcolor="#505050"
     showgrid="false"
     inkscape:zoom="15.921875"
     inkscape:cx="29.895976"
     inkscape:cy="32.031403"
     inkscape:window-width="2560"
     inkscape:window-height="1361"
     inkscape:window-x="0"
     inkscape:window-y="0"
     inkscape:window-maximized="1"
     inkscape:current-layer="svg8" />
  <g
     transform="matrix(1.1739 0 0 1.1739 3.8261 3.8261)"
     id="g6">
    <circle
       cx="24"
       cy="24"
       r="23"
       fill="#ececec"
       id="circle2"
       style="fill:#f8f8f2" />
    <path
       d="m15 11v2c1.11 0 2 0.892 2 2v7h-2v2c1.11 0 2 0.892 2 2v1h3l-3 3v3c0 1.11-0.892 2-2 2v2h10v-2c-1.11 0-2-0.892-2-2v-6h3c4.43 0 8-3.57 8-8s-3.57-8-8-8zm8 5h2c1.66 0 3 1.34 3 3s-1.34 3-3 3h-2zm6 12v3h-3v3h3v3h3v-3h3v-3h-3v-3z"
       fill="#41424e"
       id="path4"
       style="fill:#44475a" />
  </g>
</svg>
