<?xml version="1.0" encoding="UTF-8" standalone="no"?>
<svg
   width="64"
   height="64"
   version="1.1"
   id="svg10"
   sodipodi:docname="protonvpn.svg"
   inkscape:version="1.2.2 (b0a8486541, 2022-12-01)"
   xmlns:inkscape="http://www.inkscape.org/namespaces/inkscape"
   xmlns:sodipodi="http://sodipodi.sourceforge.net/DTD/sodipodi-0.dtd"
   xmlns="http://www.w3.org/2000/svg"
   xmlns:svg="http://www.w3.org/2000/svg">
  <defs
     id="defs14" />
  <sodipodi:namedview
     id="namedview12"
     pagecolor="#505050"
     bordercolor="#eeeeee"
     borderopacity="1"
     inkscape:showpageshadow="0"
     inkscape:pageopacity="0"
     inkscape:pagecheckerboard="0"
     inkscape:deskcolor="#505050"
     showgrid="false"
     inkscape:zoom="15.921875"
     inkscape:cx="29.895976"
     inkscape:cy="32.031403"
     inkscape:window-width="2560"
     inkscape:window-height="1361"
     inkscape:window-x="0"
     inkscape:window-y="0"
     inkscape:window-maximized="1"
     inkscape:current-layer="svg10" />
  <circle
     cx="32"
     cy="32"
     r="27"
     fill="#f4f2f8"
     fill-rule="evenodd"
     style="paint-order:stroke fill markers"
     id="circle2" />
  <path
     fill="#6d4aff"
     d="m13.76 24.38 13.38 23.832.286.36c.565.517 1.507.423 2.023-.209l1.383-1.96 10.152-15.688c.498-.733.5-1.595.133-2.259l-.005-.008c-.314-.563-.89-.983-1.665-1.052L13.913 24.53z"
     id="path4"
     style="fill:#7b7bbd" />
  <path
     fill="#21ffff"
     d="M50.624 23.906c.03.05.061.1.089.15-.016-.028-.027-.06-.044-.088-.013-.022-.03-.041-.045-.062zm.126.228-9.633 4.322c.366.664.365 1.526-.133 2.259L30.832 46.403l-1.384 1.96c-.615.755-1.846.755-2.307-.15l1.384 2.413c.307.453.616.755.923 1.057 1.692 1.357 4.46 1.206 5.844-.906L50.52 28c.86-1.228.838-2.686.23-3.866z"
     opacity=".5"
     id="path6"
     style="fill:#8be9fd;opacity:0.7" />
  <path
     fill="#917bff"
     d="M17.01 18.633c-2.91.126-4.837 3.2-3.251 5.745l.153.154 25.534 2.863c.78.07 1.358.494 1.67 1.06l9.64-4.324a4.01 4.01 0 0 0-3.16-2.166l-29.992-3.317a4.377 4.377 0 0 0-.595-.015z"
     opacity=".5"
     id="path8"
     style="fill:#bd93f9;opacity:0.7" />
</svg>
