<?xml version="1.0" encoding="UTF-8" standalone="no"?>
<svg
   width="64"
   height="64"
   version="1.1"
   viewBox="0 0 64 64"
   id="svg294"
   sodipodi:docname="proton.svg"
   inkscape:version="1.2.2 (b0a8486541, 2022-12-01)"
   xmlns:inkscape="http://www.inkscape.org/namespaces/inkscape"
   xmlns:sodipodi="http://sodipodi.sourceforge.net/DTD/sodipodi-0.dtd"
   xmlns="http://www.w3.org/2000/svg"
   xmlns:svg="http://www.w3.org/2000/svg">
  <defs
     id="defs298" />
  <sodipodi:namedview
     id="namedview296"
     pagecolor="#505050"
     bordercolor="#eeeeee"
     borderopacity="1"
     inkscape:showpageshadow="0"
     inkscape:pageopacity="0"
     inkscape:pagecheckerboard="0"
     inkscape:deskcolor="#505050"
     showgrid="false"
     inkscape:zoom="15.921875"
     inkscape:cx="29.895976"
     inkscape:cy="32.031403"
     inkscape:window-width="2560"
     inkscape:window-height="1361"
     inkscape:window-x="0"
     inkscape:window-y="0"
     inkscape:window-maximized="1"
     inkscape:current-layer="svg294" />
  <rect
     x="5"
     y="5"
     width="54"
     height="54"
     rx="27"
     ry="27"
     fill="#41474e"
     fill-rule="evenodd"
     stroke-linecap="round"
     stroke-linejoin="round"
     stroke-width="2.2262"
     style="paint-order:stroke fill markers;fill:#44475a"
     id="rect282" />
  <g
     transform="matrix(1.1739 0 0 1.1739 3.8261 3.8261)"
     fill="#3b82d8"
     id="g292"
     style="fill:#13b1d5">
    <path
       d="m24 19a5 5 0 0 0-5 5 5 5 0 0 0 5 5 5 5 0 0 0 5-5 5 5 0 0 0-5-5zm-1 2h2v2h2v2h-2v2h-2v-2h-2v-2h2z"
       id="path284"
       style="fill:#13b1d5" />
    <path
       d="m17 14c-1.58 0-3.28 0.385-4.63 1.2-1.35 0.811-2.37 2.11-2.37 3.8 0 3.79 3.24 7.49 7.42 10.3s9.36 4.71 13.6 4.71c1.58 0 3.28-0.385 4.63-1.2 1.35-0.811 2.37-2.11 2.37-3.8 0-3.79-3.24-7.49-7.42-10.3s-9.36-4.71-13.6-4.71zm0 1c3.92 0 8.99 1.84 13 4.54 4.04 2.7 6.98 6.25 6.98 9.46 0 1.31-0.734 2.26-1.88 2.95-1.15 0.689-2.7 1.05-4.12 1.05-3.92 0-8.99-1.84-13-4.54-4.04-2.7-6.98-6.25-6.98-9.46 0-1.31 0.734-2.26 1.88-2.95 1.15-0.689 2.7-1.05 4.12-1.05z"
       id="path286"
       style="fill:#13b1d5" />
    <path
       d="m17 34c-1.58 0-3.28-0.385-4.63-1.2-1.35-0.811-2.37-2.11-2.37-3.8 0-3.79 3.24-7.49 7.42-10.3s9.36-4.71 13.6-4.71c1.58 0 3.28 0.385 4.63 1.2 1.35 0.811 2.37 2.11 2.37 3.8 0 3.79-3.24 7.49-7.42 10.3s-9.36 4.71-13.6 4.71zm0-1c3.92 0 8.99-1.84 13-4.54 4.04-2.7 6.98-6.25 6.98-9.46 0-1.31-0.734-2.26-1.88-2.95-1.15-0.689-2.7-1.05-4.12-1.05-3.92 0-8.99 1.84-13 4.54-4.04 2.7-6.98 6.25-6.98 9.46 0 1.31 0.734 2.26 1.88 2.95 1.15 0.689 2.7 1.05 4.12 1.05z"
       id="path288"
       style="fill:#13b1d5" />
    <path
       d="m24 9a8 15 0 0 0-8 15 8 15 0 0 0 8 15 8 15 0 0 0 8-15 8 15 0 0 0-8-15zm0 1a7 14 0 0 1 7 14 7 14 0 0 1-7 14 7 14 0 0 1-7-14 7 14 0 0 1 7-14z"
       id="path290"
       style="fill:#13b1d5" />
  </g>
</svg>
