<?xml version="1.0" encoding="UTF-8" standalone="no"?>
<svg
   width="64"
   height="64"
   version="1.1"
   id="svg8"
   sodipodi:docname="purism-chatty.svg"
   inkscape:version="1.2.2 (b0a8486541, 2022-12-01)"
   xmlns:inkscape="http://www.inkscape.org/namespaces/inkscape"
   xmlns:sodipodi="http://sodipodi.sourceforge.net/DTD/sodipodi-0.dtd"
   xmlns="http://www.w3.org/2000/svg"
   xmlns:svg="http://www.w3.org/2000/svg">
  <defs
     id="defs12" />
  <sodipodi:namedview
     id="namedview10"
     pagecolor="#505050"
     bordercolor="#eeeeee"
     borderopacity="1"
     inkscape:showpageshadow="0"
     inkscape:pageopacity="0"
     inkscape:pagecheckerboard="0"
     inkscape:deskcolor="#505050"
     showgrid="false"
     inkscape:zoom="15.921875"
     inkscape:cx="29.895976"
     inkscape:cy="32.031403"
     inkscape:window-width="2560"
     inkscape:window-height="1361"
     inkscape:window-x="0"
     inkscape:window-y="0"
     inkscape:window-maximized="1"
     inkscape:current-layer="svg8" />
  <circle
     cx="32"
     cy="32"
     r="27"
     fill="#dbf5e9"
     style="paint-order:stroke fill markers;fill:#f8f8f2"
     id="circle2" />
  <path
     fill="#2ec27e"
     d="M23.783 17.913a5.857 5.857 0 0 0-5.87 5.87V37.87a5.857 5.857 0 0 0 5.87 5.87h10.565l5.87 4.695v-4.696a5.857 5.857 0 0 0 5.87-5.87V23.784a5.857 5.857 0 0 0-5.87-5.87z"
     style="paint-order:normal;fill:#44c367"
     id="path4" />
  <path
     fill="#f8f8f2"
     d="M29.065 24.957a1.76 1.76 0 1 0 0 3.522 1.76 1.76 0 0 0 0-3.522zm5.87 0a1.76 1.76 0 1 0 0 3.522 1.76 1.76 0 0 0 0-3.522zm-8.805 5.87a5.87 5.87 0 0 0 11.74 0h-2.348a3.522 3.522 0 1 1-7.044 0z"
     style="paint-order:normal"
     id="path6" />
</svg>
