<?xml version="1.0" encoding="UTF-8" standalone="no"?>
<svg
   width="64"
   height="64"
   version="1.1"
   viewBox="0 0 64 64"
   id="svg12"
   sodipodi:docname="putty.svg"
   inkscape:version="1.2.2 (b0a8486541, 2022-12-01)"
   xmlns:inkscape="http://www.inkscape.org/namespaces/inkscape"
   xmlns:sodipodi="http://sodipodi.sourceforge.net/DTD/sodipodi-0.dtd"
   xmlns="http://www.w3.org/2000/svg"
   xmlns:svg="http://www.w3.org/2000/svg">
  <defs
     id="defs16" />
  <sodipodi:namedview
     id="namedview14"
     pagecolor="#505050"
     bordercolor="#eeeeee"
     borderopacity="1"
     inkscape:showpageshadow="0"
     inkscape:pageopacity="0"
     inkscape:pagecheckerboard="0"
     inkscape:deskcolor="#505050"
     showgrid="false"
     inkscape:zoom="15.921875"
     inkscape:cx="29.895976"
     inkscape:cy="32.031403"
     inkscape:window-width="2560"
     inkscape:window-height="1361"
     inkscape:window-x="0"
     inkscape:window-y="0"
     inkscape:window-maximized="1"
     inkscape:current-layer="svg12" />
  <g
     transform="translate(1,1)"
     id="g2" />
  <path
     d="m32 5c14.912 0 27 12.088 27 27s-12.088 27-27 27-27-12.088-27-27 12.088-27 27-27z"
     fill="#cbcccc"
     stroke-width="1.1739"
     id="path4" />
  <path
     d="m17.362 19.087c-0.34396 0.03639-0.62804 0.35335-0.62335 0.6973v12.694c0 0.37096 0.32987 0.6973 0.6973 0.6973h6.3462v2.3478h-4.6957v2.3478h8.5473v-4.6593l-2.7153-2.3842h-5.319c-0.2477 0-0.47661-0.22891-0.47661-0.47661v-8.4381c-0.0047-0.2207 0.15144-0.43552 0.36744-0.47661 0.027-0.0047 0.08217-0.0047 0.11035 0h13.06c0.2477 0 0.47661 0.23361 0.47661 0.47661v3.375h2.3842v-5.5033c0-0.36743-0.32987-0.6973-0.6973-0.6973"
     fill="#c0274b"
     id="path6"
     style="fill:#c7639f" />
  <path
     d="m33.327 26.13 2.8984 2.3478h8.181c0.2477 0 0.47661 0.22891 0.47661 0.47661v8.4381c0 0.2477-0.22891 0.47661-0.47661 0.47661h-13.06c-0.243 0-0.47661-0.22891-0.47661-0.47661v-1.3207l-2.3713-2.0907v5.5397c0 0.37096 0.31696 0.6973 0.6973 0.6973h6.3462v2.3478h-4.6957v2.3478h14.087v-2.3478h-4.6957v-2.3478h6.3333c0.37096 0 0.71022-0.32517 0.71022-0.6973v-12.694c0-0.36743-0.32987-0.6973-0.71022-0.6973"
     fill="#283751"
     id="path8"
     style="fill:#515d85" />
  <path
     d="m21.435 26.13 10.565 9.3913v-5.8696l8.2174 3.5217-11.739-9.3913v4.4022l-7.0388-2.0543"
     fill="#ea8e00"
     fill-rule="evenodd"
     id="path10"
     style="fill:#c7925b" />
</svg>
