<?xml version="1.0" encoding="UTF-8" standalone="no"?>
<svg
   width="64"
   height="64"
   version="1.1"
   viewBox="0 0 16.933 16.933"
   id="svg10"
   sodipodi:docname="pycharm.svg"
   inkscape:version="1.2.2 (b0a8486541, 2022-12-01)"
   xmlns:inkscape="http://www.inkscape.org/namespaces/inkscape"
   xmlns:sodipodi="http://sodipodi.sourceforge.net/DTD/sodipodi-0.dtd"
   xmlns="http://www.w3.org/2000/svg"
   xmlns:svg="http://www.w3.org/2000/svg">
  <defs
     id="defs14" />
  <sodipodi:namedview
     id="namedview12"
     pagecolor="#505050"
     bordercolor="#eeeeee"
     borderopacity="1"
     inkscape:showpageshadow="0"
     inkscape:pageopacity="0"
     inkscape:pagecheckerboard="0"
     inkscape:deskcolor="#505050"
     showgrid="false"
     inkscape:zoom="15.921875"
     inkscape:cx="29.895976"
     inkscape:cy="32.031403"
     inkscape:window-width="2560"
     inkscape:window-height="1361"
     inkscape:window-x="0"
     inkscape:window-y="0"
     inkscape:window-maximized="1"
     inkscape:current-layer="svg10" />
  <path
     d="m15.61 8.4665a7.1436 7.1436 0 0 1-7.1436 7.1436 7.1436 7.1436 0 0 1-7.1436-7.1436 7.1436 7.1436 0 0 1 7.1436-7.1436 7.1436 7.1436 0 0 1 7.1436 7.1436z"
     fill="#7bce74"
     stroke-width=".26458"
     id="path2"
     style="fill:#7afa99" />
  <rect
     x="4.4978"
     y="4.4978"
     width="7.9373"
     height="7.9373"
     rx="1.3229"
     ry="1.3229"
     fill="#282a36"
     style="paint-order:markers stroke fill"
     id="rect4" />
  <path
     d="m5.3606 5.3606h1.3435c0.8038 0 1.1413 0.39543 1.1413 1.0871v0.01553c0 0.76641-0.49465 1.0715-1.2424 1.0715h-0.62118v1.2424h-0.62118zm1.2424 1.553c0.37386 0 0.62118-0.16996 0.62118-0.45036v-0.01553c0-0.33647-0.24732-0.46589-0.62118-0.46589h-0.62118v0.93178zm1.8636 0.1368c0-0.95334 0.52484-1.6898 1.553-1.6898 0.63556 0 0.97111 0.18485 1.2889 0.50263l-0.40591 0.48626c-0.2617-0.24301-0.54651-0.36771-0.88299-0.36771-0.56079 0-0.93178 0.48909-0.93178 1.0686v-0.018695c0 0.57949 0.35229 1.1243 0.93178 1.1243 0.37386 0 0.67007-0.1935 0.93178-0.43651l0.42606 0.43382c-0.33647 0.37386-0.72228 0.62386-1.3578 0.62386-0.99073 0.018694-1.553-0.77341-1.553-1.7268"
     fill="#f8f8f2"
     stroke-width=".26458"
     id="path6" />
  <path
     d="m5.05 10.952h3.1059v0.62118h-3.1059z"
     fill="#f8f8f2"
     stroke-width=".26458"
     id="path8" />
</svg>
