<?xml version="1.0" encoding="UTF-8" standalone="no"?>
<svg
   width="64"
   height="64"
   version="1.1"
   viewBox="0 0 16.933 16.933"
   id="svg8990"
   sodipodi:docname="python.svg"
   inkscape:version="1.2.2 (b0a8486541, 2022-12-01)"
   xmlns:inkscape="http://www.inkscape.org/namespaces/inkscape"
   xmlns:sodipodi="http://sodipodi.sourceforge.net/DTD/sodipodi-0.dtd"
   xmlns="http://www.w3.org/2000/svg"
   xmlns:svg="http://www.w3.org/2000/svg">
  <defs
     id="defs8994" />
  <sodipodi:namedview
     id="namedview8992"
     pagecolor="#505050"
     bordercolor="#eeeeee"
     borderopacity="1"
     inkscape:showpageshadow="0"
     inkscape:pageopacity="0"
     inkscape:pagecheckerboard="0"
     inkscape:deskcolor="#505050"
     showgrid="false"
     inkscape:zoom="15.921875"
     inkscape:cx="27.76055"
     inkscape:cy="32.09421"
     inkscape:window-width="1280"
     inkscape:window-height="1361"
     inkscape:window-x="1280"
     inkscape:window-y="0"
     inkscape:window-maximized="0"
     inkscape:current-layer="svg8990" />
  <circle
     cx="8.4665"
     cy="8.4665"
     r="7.1436"
     fill="#f8f8f2"
     style="paint-order:stroke fill markers;fill:#f8f8f2"
     id="circle8978" />
  <g
     transform="matrix(.91011 0 0 .91011 .57631 -254.83)"
     color="#282a36"
     id="g8988">
    <path
       d="m8.306 283.78c-1.411 0-2.547 0.811-2.547 1.82v0.793h-0.794c-1.007 0-1.819 1.136-1.819 2.546v0.728c0 1.41 0.812 2.547 1.82 2.547h6.614v-6.615c0-1.008-1.136-1.819-2.547-1.819z"
       fill="#3776ab"
       overflow="visible"
       id="path8980"
       style="fill:#168daa" />
    <path
       d="m9.033 294.82c1.411 0 2.547-0.81 2.547-1.819v-0.793h0.794c1.007 0 1.819-1.136 1.819-2.547v-0.728c0-1.41-0.812-2.546-1.82-2.546h-0.793v1.455c0 0.806-0.65 1.455-1.455 1.455h-2.91s-1.456 0-1.456 1.456v2.248c0 1.008 1.136 1.82 2.547 1.82z"
       fill="#ffd343"
       overflow="visible"
       id="path8982"
       style="fill:#ffb86c" />
    <circle
       cx="7.611"
       cy="285.33"
       r=".529"
       fill="#f8f8f2"
       overflow="visible"
       id="circle8984"
       style="fill:#f8f8f2" />
    <circle
       cx="9.744"
       cy="293.52"
       r=".546"
       fill="#f8f8f2"
       overflow="visible"
       id="circle8986"
       style="fill:#f8f8f2" />
  </g>
</svg>
