<?xml version="1.0" encoding="UTF-8" standalone="no"?>
<svg
   width="64"
   height="64"
   version="1.1"
   id="svg8"
   sodipodi:docname="qbittorrent.svg"
   inkscape:version="1.2.2 (b0a8486541, 2022-12-01)"
   xmlns:inkscape="http://www.inkscape.org/namespaces/inkscape"
   xmlns:sodipodi="http://sodipodi.sourceforge.net/DTD/sodipodi-0.dtd"
   xmlns="http://www.w3.org/2000/svg"
   xmlns:svg="http://www.w3.org/2000/svg">
  <defs
     id="defs12" />
  <sodipodi:namedview
     id="namedview10"
     pagecolor="#505050"
     bordercolor="#eeeeee"
     borderopacity="1"
     inkscape:showpageshadow="0"
     inkscape:pageopacity="0"
     inkscape:pagecheckerboard="0"
     inkscape:deskcolor="#505050"
     showgrid="false"
     inkscape:zoom="15.921875"
     inkscape:cx="29.895976"
     inkscape:cy="32.031403"
     inkscape:window-width="2560"
     inkscape:window-height="1361"
     inkscape:window-x="0"
     inkscape:window-y="0"
     inkscape:window-maximized="1"
     inkscape:current-layer="svg8" />
  <g
     transform="matrix(1.35 0 0 1.35 -.4 -22)"
     fill-rule="evenodd"
     stroke-width="1.4815"
     id="g6">
    <path
       d="m44 40a20 20 0 0 1-20 20 20 20 0 0 1-20-20 20 20 0 0 1 20-20 20 20 0 0 1 20 20"
       color="#282a36"
       fill="#d1e7fb"
       id="path2"
       style="fill:#a6edfa" />
    <path
       d="m24 22c-9.941 0-18 8.06-18 18 0 9.941 8.06 18 18 18 9.941 0 18-8.06 18-18 0-9.941-8.06-18-18-18m1 7h2v6.08a7 6 0 0 1 4-1.0801 7 6 0 0 1 7 6 7 6 0 0 1-7 6 7 6 0 0 1-4-1.0859v2.086h-2zm-4 4h2v18h-2v-6.08a7 6 0 0 1-4 1.0801 7 6 0 0 1-7-6 7 6 0 0 1 7-6 7 6 0 0 1 4 1.0859zm-4 3a5 4 0 0 0-5 4 5 4 0 0 0 5 4 5 4 0 0 0 4-1.6094v-4.783a5 4 0 0 0-4-1.6074m14 0a5 4 0 0 0-4 1.6094v4.783a5 4 0 0 0 4 1.6074 5 4 0 0 0 5-4 5 4 0 0 0-5-4"
       color="#282a36"
       fill="#197cf1"
       id="path4"
       style="fill:#168daa" />
  </g>
</svg>
