<?xml version="1.0" encoding="UTF-8" standalone="no"?>
<svg
   width="64"
   height="64"
   version="1.1"
   viewBox="0 0 16.933 16.933"
   id="svg12"
   sodipodi:docname="qgit.svg"
   inkscape:version="1.2.2 (b0a8486541, 2022-12-01)"
   xmlns:inkscape="http://www.inkscape.org/namespaces/inkscape"
   xmlns:sodipodi="http://sodipodi.sourceforge.net/DTD/sodipodi-0.dtd"
   xmlns="http://www.w3.org/2000/svg"
   xmlns:svg="http://www.w3.org/2000/svg"
   xmlns:rdf="http://www.w3.org/1999/02/22-rdf-syntax-ns#"
   xmlns:cc="http://creativecommons.org/ns#"
   xmlns:dc="http://purl.org/dc/elements/1.1/">
  <defs
     id="defs16" />
  <sodipodi:namedview
     id="namedview14"
     pagecolor="#505050"
     bordercolor="#eeeeee"
     borderopacity="1"
     inkscape:showpageshadow="0"
     inkscape:pageopacity="0"
     inkscape:pagecheckerboard="0"
     inkscape:deskcolor="#505050"
     showgrid="false"
     inkscape:zoom="15.921875"
     inkscape:cx="29.895976"
     inkscape:cy="32.031403"
     inkscape:window-width="2560"
     inkscape:window-height="1361"
     inkscape:window-x="0"
     inkscape:window-y="0"
     inkscape:window-maximized="1"
     inkscape:current-layer="svg12" />
  <metadata
     id="metadata2">
    <rdf:RDF>
      <cc:Work
         rdf:about="">
        <dc:format>image/svg+xml</dc:format>
        <dc:type
           rdf:resource="http://purl.org/dc/dcmitype/StillImage" />
        <dc:title />
      </cc:Work>
    </rdf:RDF>
  </metadata>
  <g
     id="g10">
    <circle
       cx="8.4665"
       cy="8.46"
       r="7.1436"
       fill="#e8e8e8"
       style="paint-order:stroke markers fill;fill:#f8f8f2"
       id="circle4" />
    <circle
       cx="8.467"
       cy="8.46"
       r="5.027"
       fill="#3f9f4a"
       style="paint-order:stroke markers fill;fill:#44c367"
       id="circle6" />
    <path
       transform="scale(.26458)"
       d="m28 23a4 4 0 0 0-3.8672 3h-6.1328v2h6.1309a4 4 0 0 0 3.8691 3 4 4 0 0 0 1.3477-0.23828l7.2109 7.2109a4 4 0 0 0-0.55859 2.0273 4 4 0 0 0 4 4 4 4 0 0 0 4-4 4 4 0 0 0-4-4 4 4 0 0 0-2.0273 0.55859l-6.9473-6.9473a4 4 0 0 0 0.8418-1.6113h5.2637a4 4 0 0 0 3.8691 3 4 4 0 0 0 4-4 4 4 0 0 0-4-4 4 4 0 0 0-3.8672 3h-5.2637a4 4 0 0 0-3.8691-3z"
       fill="#f8f8f2"
       style="paint-order:stroke fill markers"
       id="path8" />
  </g>
</svg>
