<?xml version="1.0" encoding="UTF-8" standalone="no"?>
<svg
   width="64"
   height="64"
   enable-background="new 0 0 48 48"
   version="1.1"
   viewBox="0 0 64 64"
   id="svg59"
   sodipodi:docname="qq.svg"
   inkscape:version="1.2.2 (b0a8486541, 2022-12-01)"
   xmlns:inkscape="http://www.inkscape.org/namespaces/inkscape"
   xmlns:sodipodi="http://sodipodi.sourceforge.net/DTD/sodipodi-0.dtd"
   xmlns="http://www.w3.org/2000/svg"
   xmlns:svg="http://www.w3.org/2000/svg">
  <sodipodi:namedview
     id="namedview61"
     pagecolor="#505050"
     bordercolor="#eeeeee"
     borderopacity="1"
     inkscape:showpageshadow="0"
     inkscape:pageopacity="0"
     inkscape:pagecheckerboard="0"
     inkscape:deskcolor="#505050"
     showgrid="false"
     inkscape:zoom="15.921875"
     inkscape:cx="29.895976"
     inkscape:cy="32.031403"
     inkscape:window-width="2560"
     inkscape:window-height="1361"
     inkscape:window-x="0"
     inkscape:window-y="0"
     inkscape:window-maximized="1"
     inkscape:current-layer="svg59" />
  <defs
     id="defs7">
    <linearGradient
       id="linearGradient892"
       x1="23.876"
       x2="23.876"
       y1="16.35"
       y2="31.354"
       gradientTransform="translate(.23142 -.0045468)"
       gradientUnits="userSpaceOnUse">
      <stop
         stop-color="#f62f09"
         offset="0"
         id="stop2" />
      <stop
         stop-color="#ff0034"
         offset="1"
         id="stop4" />
    </linearGradient>
  </defs>
  <circle
     cx="32.001"
     cy="32"
     r="27"
     fill="#cbcccc"
     stroke-width=".9"
     style="paint-order:normal"
     id="circle9" />
  <g
     transform="matrix(.875 0 0 .875 4 5.75)"
     id="g57">
    <path
       d="m32 49a14 4.1667 0 0 0-14 4.1667 14 4.1667 0 0 0 0.29896 0.83333h27.418a14 4.1667 0 0 0 0.28255-0.83333 14 4.1667 0 0 0-14-4.1667z"
       fill="#fcc431"
       id="path11"
       style="fill:#ffb86c" />
    <g
       transform="translate(.1845)"
       fill="#1c1c1c"
       stroke-width="1.0226"
       id="g17"
       style="fill:#1e1f29">
      <path
         d="m47.262 26.929s4.5027 4.0967 5.0702 14.146c0 0 0.73778 9.7723-3.3208 0.03828l-3.0114-8.1133z"
         id="path13"
         style="fill:#1e1f29" />
      <path
         d="m16.369 26.929s-4.5027 4.0967-5.0702 14.146c0 0-0.73778 9.7723 3.3208 0.03828l3.0114-8.1133z"
         id="path15"
         style="fill:#1e1f29" />
    </g>
    <rect
       x="16"
       y="6"
       width="32"
       height="48"
       ry="16"
       fill="#1c1c1c"
       id="rect19"
       style="fill:#1e1f29" />
    <path
       d="m19 33.434v6.5664c0 7.202 5.798 13 13 13s13-5.798 13-13v-6.0645a31.542 21.644 0 0 1-12.203 1.709 31.542 21.644 0 0 1-13.797-2.2109z"
       fill="#f8f8f2"
       id="path21" />
    <g
       transform="matrix(1.1747,0,0,1.1747,3.131,-1.3313)"
       id="g25">
      <path
         d="m16.6 27.523s-2.0359 8.0209 0.96615 9.6168c0 0 1.5155 1.043 3.7542 0.49811 0 0 1.949-0.40116 1.6102-3.3006 0 0-0.29084-3.8099 0.039-5.5092z"
         fill="#d4001b"
         stroke-width="1.1143"
         id="path23"
         style="fill:#c7484a" />
    </g>
    <g
       transform="matrix(1.1779 .015993 -.011052 .81398 3.8623 11.658)"
       id="g29">
      <path
         d="m37.482 16.884c-2.448 5.1287-7.2208 8.1376-13.251 8.1376-5.885 0-10.571-2.6118-13.09-7.541-1.07-2.0938-3.067 3.7267-1.664 6.0139 2.815 4.59 8.109 7.7368 14.213 7.8523 6.681 0.12524 12.484-3.4167 15.17-8.6244 0.991-1.9211-0.56317-7.5454-1.3782-5.8383z"
         fill="url(#linearGradient892)"
         stroke-width="1.1027"
         id="path27"
         style="fill:#ff5555" />
    </g>
    <g
       transform="matrix(.79618 0 0 .79618 -69.815 6.3181)"
       id="g55">
      <ellipse
         cx="127.88"
         cy="24.638"
         rx="11.079"
         ry="3.3859"
         fill="#242424"
         opacity=".41"
         stroke-width="1.2307"
         id="ellipse31"
         style="fill:#282a36" />
      <g
         transform="matrix(1.2308 0 0 1.2308 98.129 .039389)"
         fill="#f8f8f2"
         id="g37">
        <ellipse
           cx="20.264"
           cy="12.583"
           rx="2.649"
           ry="4.161"
           id="ellipse33" />
        <ellipse
           cx="27.55"
           cy="12.583"
           rx="2.649"
           ry="4.161"
           id="ellipse35" />
      </g>
      <ellipse
         cx="123.88"
         cy="15.364"
         rx="1.3871"
         ry="2.0615"
         stroke-width="1.2307"
         id="ellipse39" />
      <path
         d="m131.14 14.417c0.60553 0 1.1175 0.57477 1.3071 1.376 0.0246 0.10462 0.08 0.10831 0.08-0.0037 0-1.1385-0.62153-2.0615-1.3871-2.0615s-1.3871 0.92304-1.3871 2.0615c0 0.112 0.0529 0.1157 0.0776 0.01477 0.18707-0.80616 0.70153-1.3871 1.3095-1.3871z"
         stroke-width="1.2307"
         id="path41" />
      <g
         transform="matrix(1.2308 0 0 1.2308 98.129 .039389)"
         id="g45">
        <ellipse
           cx="21.26"
           cy="12.431"
           rx=".462"
           ry=".633"
           fill="#fefefe"
           id="ellipse43"
           style="fill:#f8f8f2" />
      </g>
      <g
         transform="matrix(1.2308 0 0 1.2308 98.129 .039389)"
         opacity=".6"
         id="g49">
        <ellipse
           transform="matrix(.9988 -.0483 .0483 .9988 -.6089 1.0283)"
           cx="20.954"
           cy="13.103"
           rx=".272"
           ry=".285"
           fill="#fefefe"
           id="ellipse47"
           style="fill:#f8f8f2" />
      </g>
      <g
         transform="matrix(1.2308 0 0 1.2308 98.129 .039389)"
         id="g53">
        <path
           transform="matrix(.73126 0 0 .73126 .77199 2.568)"
           d="m32 20.027c-6.9319 0-12.553 2.5531-12.553 3.6348 0 0.80091 2.1194 1.9787 5.3418 2.7754-1.3028-1.1338-2.0488-2.1674-2.0781-2.1406l0.17187-2e-3c0.88383 0.80548 8.2874 8.2451 18.195-0.17578l0.14453-2e-3c-0.91166 1.0028-1.8 1.8236-2.668 2.5039 3.5855-0.75652 5.998-2.0003 5.998-2.959 0-1.3415-5.6209-3.6348-12.553-3.6348z"
           fill="#fcc431"
           stroke-width="1.3675"
           id="path51"
           style="fill:#ffb86c" />
      </g>
    </g>
  </g>
</svg>
