<?xml version="1.0" encoding="UTF-8" standalone="no"?>
<svg
   id="SimpleNote"
   width="64"
   height="64"
   enable-background="new 0 0 1024 1024"
   image-rendering="optimizeSpeed"
   version="1.1"
   viewBox="0 0 64 64"
   sodipodi:docname="qqmusic.svg"
   inkscape:version="1.2.2 (b0a8486541, 2022-12-01)"
   xmlns:inkscape="http://www.inkscape.org/namespaces/inkscape"
   xmlns:sodipodi="http://sodipodi.sourceforge.net/DTD/sodipodi-0.dtd"
   xmlns="http://www.w3.org/2000/svg"
   xmlns:svg="http://www.w3.org/2000/svg">
  <defs
     id="defs9" />
  <sodipodi:namedview
     id="namedview7"
     pagecolor="#505050"
     bordercolor="#eeeeee"
     borderopacity="1"
     inkscape:showpageshadow="0"
     inkscape:pageopacity="0"
     inkscape:pagecheckerboard="0"
     inkscape:deskcolor="#505050"
     showgrid="false"
     inkscape:zoom="15.921875"
     inkscape:cx="29.895976"
     inkscape:cy="32.031403"
     inkscape:window-width="2560"
     inkscape:window-height="1361"
     inkscape:window-x="0"
     inkscape:window-y="0"
     inkscape:window-maximized="1"
     inkscape:current-layer="SimpleNote" />
  <circle
     cx="32"
     cy="32"
     r="27"
     fill="#ffd85c"
     stroke-width=".9"
     id="circle2"
     style="fill:#fdc88e" />
  <path
     d="m42.847 11c-2.3315 1.8987-6.4134 3.5276-9.9258 4.3995-2.5093 0.6229-6.5462 0.64771-7.5408 0.64498-0.4419-0.218-0.98018-0.21776-1.4407 0.04815-0.7335 0.42349-0.98299 1.3548-0.5595 2.0883l10.604 18.366a9.9374 8.4086 0 0 0-2.8927-0.3643 9.9374 8.4086 0 0 0-9.9374 8.4086 9.9374 8.4086 0 0 0 9.9374 8.4086 9.9374 8.4086 0 0 0 9.9374-8.4086 9.9374 8.4086 0 0 0-1.1593-3.9415c-0.02398-0.05601-0.05051-0.11123-0.08174-0.16536l-9.0857-15.737c5.5396-2.75 10.788-8.3246 12.145-13.748z"
     fill="#1fe092"
     stroke-linecap="square"
     stroke-width=".25084"
     id="path4"
     style="fill:#44c367" />
</svg>
