<?xml version="1.0" encoding="UTF-8" standalone="no"?>
<svg
   width="64"
   height="64"
   version="1.1"
   id="svg8"
   sodipodi:docname="qsynth.svg"
   inkscape:version="1.2.2 (b0a8486541, 2022-12-01)"
   xmlns:inkscape="http://www.inkscape.org/namespaces/inkscape"
   xmlns:sodipodi="http://sodipodi.sourceforge.net/DTD/sodipodi-0.dtd"
   xmlns="http://www.w3.org/2000/svg"
   xmlns:svg="http://www.w3.org/2000/svg">
  <defs
     id="defs12" />
  <sodipodi:namedview
     id="namedview10"
     pagecolor="#505050"
     bordercolor="#eeeeee"
     borderopacity="1"
     inkscape:showpageshadow="0"
     inkscape:pageopacity="0"
     inkscape:pagecheckerboard="0"
     inkscape:deskcolor="#505050"
     showgrid="false"
     inkscape:zoom="15.921875"
     inkscape:cx="29.895976"
     inkscape:cy="32.031403"
     inkscape:window-width="2560"
     inkscape:window-height="1361"
     inkscape:window-x="0"
     inkscape:window-y="0"
     inkscape:window-maximized="1"
     inkscape:current-layer="svg8" />
  <path
     fill="#61544c"
     d="M32 5c14.912 0 27 12.088 27 27S46.912 59 32 59 5 46.912 5 32 17.088 5 32 5z"
     id="path2"
     style="fill:#c7925b" />
  <path
     fill="#f48e51"
     d="M31.78 14.543c-3.998 5.456-17.578 20.845-11.797 29.731 4.48 6.882 19.697 6.918 24.119 0 5.76-8.996-8.918-24.279-12.322-29.731"
     id="path4"
     style="fill:#fd7e7c" />
  <path
     fill="#ffc675"
     d="M30.416 25.831c-7.842.504-10.517 11.896-7.517 17.085 3.315 5.093 12.878 6.148 18.8 3.184-1.038-1.107-2.482-2.24-4.365-2.722-4.227-1.092-10.554-7.638-7.38-12.002 3.173-4.364 8.435 0 8.435 0s-1.054-4.364-6.337-5.46c-.33-.063-.708-.069-1.05-.085a5.246 5.246 0 0 0-.582 0"
     id="path6"
     style="fill:#f3faa6" />
</svg>
