<?xml version="1.0" encoding="UTF-8" standalone="no"?>
<svg
   width="64"
   height="64"
   version="1.1"
   id="svg33369"
   sodipodi:docname="qtcreator.svg"
   inkscape:version="1.2.2 (b0a8486541, 2022-12-01)"
   xmlns:inkscape="http://www.inkscape.org/namespaces/inkscape"
   xmlns:sodipodi="http://sodipodi.sourceforge.net/DTD/sodipodi-0.dtd"
   xmlns="http://www.w3.org/2000/svg"
   xmlns:svg="http://www.w3.org/2000/svg">
  <defs
     id="defs33373" />
  <sodipodi:namedview
     id="namedview33371"
     pagecolor="#505050"
     bordercolor="#eeeeee"
     borderopacity="1"
     inkscape:showpageshadow="0"
     inkscape:pageopacity="0"
     inkscape:pagecheckerboard="0"
     inkscape:deskcolor="#505050"
     showgrid="false"
     inkscape:zoom="15.921875"
     inkscape:cx="29.895976"
     inkscape:cy="32.031403"
     inkscape:window-width="2560"
     inkscape:window-height="1361"
     inkscape:window-x="0"
     inkscape:window-y="0"
     inkscape:window-maximized="1"
     inkscape:current-layer="svg33369" />
  <circle
     cx="32"
     cy="32"
     r="27"
     fill="#44c367"
     stroke-width="3.7796"
     style="paint-order:stroke fill markers"
     id="circle33347" />
  <path
     d="m22 18.938c-3.324 0-6 2.676-6 6v10c0 3.324 2.676 6 6 6h2.941l2.805 4.125 3.309-2.25-1.899-2.79c1.704-1.056 2.844-2.925 2.844-5.085v-10c0-3.324-2.676-6-6-6zm16 0v4h-2v4h2v8c0 3.324 2.676 6 6 6l4-1v-3h-4c-1.108 0-2-0.892-2-2v-8h6v-4h-6v-4zm-16 4h4c1.108 0 2 0.892 2 2v10c0 1.108-0.892 2-2 2h-4c-1.108 0-2-0.892-2-2v-10c0-1.108 0.892-2 2-2z"
     fill="#f8f8f2"
     id="path33349" />
  <g
     transform="translate(2,2)"
     id="g33367">
    <circle
       cx="49"
       cy="11"
       r="9"
       fill="#37474f"
       id="circle33351"
       style="fill:#44475a" />
    <path
       d="m44 5h6v1h-6z"
       fill="#78909c"
       id="path33353"
       style="fill:#717380" />
    <path
       d="m52 5h2v1h-2z"
       fill="#ff7043"
       id="path33355"
       style="fill:#fd7e7c" />
    <path
       d="m46 7h6v1h-6z"
       fill="#26c6da"
       id="path33357"
       style="fill:#13b1d5" />
    <path
       d="m44 9h7v1h-7z"
       fill="#78909c"
       id="path33359"
       style="fill:#717380" />
    <path
       d="m46 11h7v1h-7zm1 2h8v1h-8z"
       fill="#9ccc65"
       id="path33361"
       style="fill:#50fa7b" />
    <path
       d="m46 15h6v1h-6z"
       fill="#26c6da"
       id="path33363"
       style="fill:#13b1d5" />
    <path
       d="m48 17h4v1h-4z"
       fill="#ff7043"
       id="path33365"
       style="fill:#fd7e7c" />
  </g>
</svg>
