<?xml version="1.0" encoding="UTF-8" standalone="no"?>
<svg
   width="64"
   height="64"
   version="1.1"
   id="svg27841"
   sodipodi:docname="qtdesigner.svg"
   inkscape:version="1.2.2 (b0a8486541, 2022-12-01)"
   xmlns:inkscape="http://www.inkscape.org/namespaces/inkscape"
   xmlns:sodipodi="http://sodipodi.sourceforge.net/DTD/sodipodi-0.dtd"
   xmlns="http://www.w3.org/2000/svg"
   xmlns:svg="http://www.w3.org/2000/svg">
  <defs
     id="defs27845" />
  <sodipodi:namedview
     id="namedview27843"
     pagecolor="#505050"
     bordercolor="#eeeeee"
     borderopacity="1"
     inkscape:showpageshadow="0"
     inkscape:pageopacity="0"
     inkscape:pagecheckerboard="0"
     inkscape:deskcolor="#505050"
     showgrid="false"
     inkscape:zoom="15.921875"
     inkscape:cx="29.895976"
     inkscape:cy="32.031403"
     inkscape:window-width="2560"
     inkscape:window-height="1361"
     inkscape:window-x="0"
     inkscape:window-y="0"
     inkscape:window-maximized="1"
     inkscape:current-layer="svg27841" />
  <circle
     cx="32"
     cy="32"
     r="27"
     fill="#44c367"
     stroke-width="3.7796"
     style="paint-order:stroke fill markers;fill:#44c367"
     id="circle27823" />
  <path
     d="m22 18.938c-3.324 0-6 2.676-6 6v10c0 3.324 2.676 6 6 6h2.941l2.805 4.125 3.309-2.25-1.899-2.79c1.704-1.056 2.844-2.925 2.844-5.085v-10c0-3.324-2.676-6-6-6zm16 0v4h-2v4h2v8c0 3.324 2.676 6 6 6l4-1v-3h-4c-1.108 0-2-0.892-2-2v-8h6v-4h-6v-4zm-16 4h4c1.108 0 2 0.892 2 2v10c0 1.108-0.892 2-2 2h-4c-1.108 0-2-0.892-2-2v-10c0-1.108 0.892-2 2-2z"
     fill="#f8f8f2"
     id="path27825" />
  <g
     transform="translate(-3,-4)"
     id="g27839">
    <rect
       x="47"
       y="9"
       width="15"
       height="15"
       ry="0"
       fill="#64b5f6"
       id="rect27827"
       style="fill:#13b1d5" />
    <g
       transform="translate(0,-1061.5)"
       fill="#1e88e5"
       id="g27837"
       style="fill:#168daa">
      <rect
         x="60"
         y="1069.5"
         width="3"
         height="3"
         rx="1"
         ry=".99998"
         id="rect27829"
         style="fill:#168daa" />
      <rect
         x="46"
         y="1069.5"
         width="3"
         height="3"
         rx="1"
         ry="1.001"
         id="rect27831"
         style="fill:#168daa" />
      <rect
         x="60"
         y="1083.5"
         width="3"
         height="3"
         rx="1"
         ry="1.001"
         id="rect27833"
         style="fill:#168daa" />
      <rect
         x="46"
         y="1083.5"
         width="3"
         height="3"
         rx="1"
         ry=".99998"
         id="rect27835"
         style="fill:#168daa" />
    </g>
  </g>
</svg>
