<?xml version="1.0" encoding="UTF-8" standalone="no"?>
<svg
   width="64"
   height="64"
   version="1.1"
   viewBox="0 0 16.933 16.933"
   id="svg26770"
   sodipodi:docname="quassel.svg"
   inkscape:version="1.2.2 (b0a8486541, 2022-12-01)"
   xmlns:inkscape="http://www.inkscape.org/namespaces/inkscape"
   xmlns:sodipodi="http://sodipodi.sourceforge.net/DTD/sodipodi-0.dtd"
   xmlns="http://www.w3.org/2000/svg"
   xmlns:svg="http://www.w3.org/2000/svg">
  <defs
     id="defs26774" />
  <sodipodi:namedview
     id="namedview26772"
     pagecolor="#505050"
     bordercolor="#eeeeee"
     borderopacity="1"
     inkscape:showpageshadow="0"
     inkscape:pageopacity="0"
     inkscape:pagecheckerboard="0"
     inkscape:deskcolor="#505050"
     showgrid="false"
     inkscape:zoom="15.921875"
     inkscape:cx="29.895976"
     inkscape:cy="32.031403"
     inkscape:window-width="2560"
     inkscape:window-height="1361"
     inkscape:window-x="0"
     inkscape:window-y="0"
     inkscape:window-maximized="1"
     inkscape:current-layer="svg26770" />
  <circle
     cx="8.4665"
     cy="8.4665"
     r="7.1436"
     fill="#f8f8f2"
     style="paint-order:stroke fill markers"
     id="circle26752" />
  <g
     transform="matrix(.65601 0 0 .65601 2.8337 2.6762)"
     id="g26768">
    <path
       d="m13.623 4.0735c-1.3471-1.0963-3.1358-1.7-5.0365-1.7s-3.6894 0.60377-5.0365 1.7c-1.3588 1.1058-2.1072 2.5796-2.1072 4.1499 0 1.4987 0.68213 2.9093 1.9256 3.9962-0.022423 0.05043-0.040218 0.10349-0.051578 0.15927l-0.4086 2.0098c-0.048584 0.23886 0.01671 0.38129 0.079968 0.45876 0.073143 0.08948 0.18156 0.1388 0.3053 0.1388 0.093429 0 0.19384-0.02756 0.29847-0.08196l2.3766-1.2347c0.82281 0.26484 1.7074 0.40372 2.6178 0.40372 1.9008 0 3.6894-0.60376 5.0365-1.7 1.3588-1.1058 2.1071-2.5796 2.1071-4.1499s-0.7483-3.0441-2.1071-4.1499z"
       fill="#2376c5"
       stroke-width=".25786"
       id="path26754"
       style="fill:#6272a4" />
    <path
       d="m7.2637 5.6491v1.3394h-1.3394v0.66971h1.3394v1.3394h-1.3394v0.66971h1.3394v1.3394h0.66971v-1.3394h1.3394v1.3394h0.66971v-1.3394h1.3394v-0.66971h-1.3394v-1.3394h1.3394v-0.66971h-1.3394v-1.3394h-0.66971v1.3394h-1.3394v-1.3394zm0.66971 2.0091h1.3394v1.3394h-1.3394z"
       fill="#f8f8f2"
       id="path26756" />
    <path
       d="m9.5412 9.3384c0.67356-0.59686 1.5679-0.92555 2.5182-0.92555 0.95037 0 1.8447 0.32871 2.5182 0.92555 0.67941 0.60204 1.0536 1.4044 1.0536 2.2593 0 0.81596-0.34107 1.5839-0.96282 2.1756 0.01125 0.02747 0.02014 0.05634 0.02578 0.08671l0.2043 1.0942c0.02428 0.13004-0.0083 0.20759-0.03999 0.24977-0.0366 0.04871-0.09078 0.07557-0.15265 0.07557-0.04672 0-0.09692-0.015-0.14923-0.04462l-1.1883-0.67217c-0.4114 0.14418-0.85368 0.21979-1.3089 0.21979-0.95037 0-1.8447-0.3287-2.5182-0.92555-0.67939-0.60203-1.0536-1.4044-1.0536-2.2593 0-0.85493 0.37415-1.6573 1.0535-2.2593z"
       fill="#b7e6ff"
       stroke-width=".25786"
       id="path26758"
       style="fill:#a6edfa" />
    <g
       transform="matrix(.31134 0 0 .31134 -111.8 -158.25)"
       fill="#1d5a9e"
       stroke-width=".88889"
       id="g26766"
       style="fill:#515d85">
      <circle
         cx="393.04"
         cy="545.5"
         r="2.0844"
         opacity=".837"
         id="circle26760"
         style="fill:#515d85" />
      <circle
         cx="397.79"
         cy="545.5"
         r="2.0844"
         opacity=".837"
         id="circle26762"
         style="fill:#515d85" />
      <circle
         cx="402.78"
         cy="545.5"
         r="2.0844"
         opacity=".837"
         id="circle26764"
         style="fill:#515d85" />
    </g>
  </g>
</svg>
