<?xml version="1.0" encoding="UTF-8" standalone="no"?>
<svg
   width="64"
   height="64"
   version="1.1"
   id="svg33894"
   sodipodi:docname="quickDocs.svg"
   inkscape:version="1.2.2 (b0a8486541, 2022-12-01)"
   xmlns:inkscape="http://www.inkscape.org/namespaces/inkscape"
   xmlns:sodipodi="http://sodipodi.sourceforge.net/DTD/sodipodi-0.dtd"
   xmlns="http://www.w3.org/2000/svg"
   xmlns:svg="http://www.w3.org/2000/svg">
  <sodipodi:namedview
     id="namedview33896"
     pagecolor="#505050"
     bordercolor="#eeeeee"
     borderopacity="1"
     inkscape:showpageshadow="0"
     inkscape:pageopacity="0"
     inkscape:pagecheckerboard="0"
     inkscape:deskcolor="#505050"
     showgrid="false"
     inkscape:zoom="15.921875"
     inkscape:cx="29.895976"
     inkscape:cy="32.031403"
     inkscape:window-width="2560"
     inkscape:window-height="1361"
     inkscape:window-x="0"
     inkscape:window-y="0"
     inkscape:window-maximized="1"
     inkscape:current-layer="svg33894" />
  <defs
     id="defs33874">
    <linearGradient
       id="linearGradient865"
       x1="8.8152"
       x2="8.7827"
       y1="24.071"
       y2="-4.8501"
       gradientTransform="scale(3.7796)"
       gradientUnits="userSpaceOnUse">
      <stop
         stop-color="#4d7280"
         offset="0"
         id="stop33869" />
      <stop
         stop-color="#adbdc2"
         offset="1"
         id="stop33871" />
    </linearGradient>
  </defs>
  <rect
     x="4"
     y="3.9686"
     width="56.002"
     height="56.002"
     rx="13.002"
     ry="13.002"
     display="none"
     fill="url(#linearGradient865)"
     stroke-width="3.7796"
     id="rect33876"
     style="fill:#717380" />
  <rect
     x="5"
     y="5"
     width="54"
     height="54"
     rx="27"
     ry="27"
     fill="#175261"
     stroke-width="3.6445"
     id="rect33878"
     style="fill:#44475a" />
  <path
     d="m21.276 10.071h3.1496m0.5179 0h1.3576m0.54304 0h3.041m0.59735 0h7.9827m0.54305 0h6.0821m-32.257 3.754h5.8941m0.68573 0h2.8163m0.52062 0h1.3898m0.56546 0h2.5942m0.54304 0h2.6605m0.50222 0h4.1777m0.54305 0h5.5113m-28.404 3.7373h4.9887m0.52407 0h8.216m0.50355 0h3.9846m0.51071 0h3.7275m0.53455 0h3.1753m0.51071 0 4.994 0.03333m-31.67 3.7373h6.9362m0.54468 0h7.4968m0.5179 0h2.946m0.54304 0h7.012m0.47195 0h4.806m0.54304 0h1.9021m0.54304 0h1.0522m-35.315 3.754h2.5891m0.79547 0h9.5867m-12.971 16.267h5.8941m0.68573 0h2.8163m0.52062 0h1.3898m0.56546 0h2.5942m0.54304 0h2.6605m0.50222 0h4.1777m-22.35 4.9541h4.9887m0.52407 0h8.216m0.50355 0h3.9846m14.081 0.10236h6.5648m-38.862-8.8104h6.9362m0.54468 0h7.4968m0.5179 0h2.946m0.54304 0h7.012m-25.997-7.5079h3.8013m0.54304 0h3.5298m0.56819 0h3.1496m0.5179 0h1.3576m0.54304 0h3.041m0.59735 0h7.9827m0.54305 0h6.0821m-32.257 3.754h6.4019m0.50357 0h6.798m0.5179 0h2.6582m0.50194 0h6.3954m0.51306 0h6.9846m-28.982 16.268h3.6905m0.64218 0h2.6375m0.61776 0h1.3155m0.41875 0h2.5969m0.34476 0h13.748m0.64692 0h3.67m0.49347 0h0.92666m-27.226 3.7534h1.9515m0.4992 0h4.5405m0.4803 0h6.6651m0.5179 0h4.5216m0.45516 0h0.93174"
     fill="none"
     opacity=".15"
     stroke="#f1f3f4"
     stroke-width="1.2327px"
     id="path33880"
     style="stroke:#f8f8f2" />
  <path
     d="m26.844 10.071h3.041m5.8412 3.754h5.5113m-10.232 27.529h4.1777m3.8249-11.262h6.0821"
     fill="none"
     stroke="#268bd2"
     stroke-width="1.2327px"
     id="path33882"
     style="stroke:#13b1d5" />
  <path
     d="m31.818 21.333h7.012m-14.125 20.021h2.5942m4.5183-3.754h7.012m-25.997-7.5079h3.8013m0.54304 0h3.5298"
     fill="none"
     stroke="#859900"
     stroke-width="1.2327px"
     id="path33884"
     style="stroke:#44c367" />
  <path
     d="m12.834 17.563h4.9887m29.274 3.7706h1.0522m-35.315 20.021h5.8941m-5.8941-11.262h3.8013m10.42 3.754h2.6582m-2.5927 20.021h6.6651"
     fill="none"
     stroke="#d33682"
     stroke-width="1.2327px"
     id="path33886"
     style="stroke:#c7639f" />
  <g
     transform="matrix(1.2194 0 0 1.2194 -4.7738 -2.8651)"
     fill="none"
     shape-rendering="auto"
     stroke="#f8f8f2"
     stroke-width="4"
     id="g33892">
    <path
       d="m31.974 38.279h0.94727c4.432 0 8.0264-3.568 8.0264-8v-4c0-4.432-3.5944-8-8.0264-8h-0.94727"
       color="#282a36"
       color-rendering="auto"
       image-rendering="auto"
       solid-color="#282a36"
       style="isolation:auto;mix-blend-mode:normal"
       id="path33888" />
    <path
       d="m27.949 18.279h-7.002v20h6.998"
       color="#282a36"
       color-rendering="auto"
       image-rendering="auto"
       solid-color="#282a36"
       style="isolation:auto;mix-blend-mode:normal"
       id="path33890" />
  </g>
</svg>
