<?xml version="1.0" encoding="UTF-8" standalone="no"?>
<svg
   width="64"
   height="64"
   version="1.1"
   id="svg25724"
   sodipodi:docname="quiterss.svg"
   inkscape:version="1.2.2 (b0a8486541, 2022-12-01)"
   xmlns:inkscape="http://www.inkscape.org/namespaces/inkscape"
   xmlns:sodipodi="http://sodipodi.sourceforge.net/DTD/sodipodi-0.dtd"
   xmlns="http://www.w3.org/2000/svg"
   xmlns:svg="http://www.w3.org/2000/svg">
  <defs
     id="defs25728" />
  <sodipodi:namedview
     id="namedview25726"
     pagecolor="#505050"
     bordercolor="#eeeeee"
     borderopacity="1"
     inkscape:showpageshadow="0"
     inkscape:pageopacity="0"
     inkscape:pagecheckerboard="0"
     inkscape:deskcolor="#505050"
     showgrid="false"
     inkscape:zoom="15.921875"
     inkscape:cx="29.895976"
     inkscape:cy="32.031403"
     inkscape:window-width="2560"
     inkscape:window-height="1361"
     inkscape:window-x="0"
     inkscape:window-y="0"
     inkscape:window-maximized="1"
     inkscape:current-layer="svg25724" />
  <circle
     cx="32"
     cy="32"
     r="27"
     fill="#86b848"
     stroke-width="3.7796"
     style="paint-order:stroke fill markers;fill:#44c367"
     id="circle25710" />
  <g
     transform="matrix(1.3 0 0 1.3 -499.14 -648.94)"
     stroke-width=".76923"
     id="g25722">
    <path
       d="m418.04 516.44 2.8523 1.978-0.75461-3.6264 2.5177-2.5275h-3.3185l-1.2969-3.0769-1.2969 3.0769h-3.3185l2.5177 2.5275-0.75462 3.6264z"
       fill="#fbde78"
       stroke-width=".59172"
       id="path25712"
       style="fill:#fdc88e" />
    <g
       transform="translate(382.57 499.8)"
       id="g25720">
      <circle
         cx="15"
         cy="34"
         r="3"
         fill="#f8f8f2"
         id="circle25714" />
      <path
         d="m12 22v5h2.5c4.142 0 7.5 3.358 7.5 7.5v2.5h5v-2.5c0-6.904-5.596-12.5-12.5-12.5"
         fill="#f8f8f2"
         id="path25716" />
      <path
         d="m12 12v5h3a17 17 0 0 1 17 17v3h5v-3a22 22 0 0 0-22-22z"
         fill="#f8f8f2"
         id="path25718" />
    </g>
  </g>
</svg>
