<?xml version="1.0" encoding="UTF-8" standalone="no"?>
<svg
   width="64"
   height="64"
   version="1.1"
   viewBox="0 0 64 64"
   id="svg25216"
   sodipodi:docname="quodlibet.svg"
   inkscape:version="1.2.2 (b0a8486541, 2022-12-01)"
   xmlns:inkscape="http://www.inkscape.org/namespaces/inkscape"
   xmlns:sodipodi="http://sodipodi.sourceforge.net/DTD/sodipodi-0.dtd"
   xmlns="http://www.w3.org/2000/svg"
   xmlns:svg="http://www.w3.org/2000/svg">
  <defs
     id="defs25220" />
  <sodipodi:namedview
     id="namedview25218"
     pagecolor="#505050"
     bordercolor="#eeeeee"
     borderopacity="1"
     inkscape:showpageshadow="0"
     inkscape:pageopacity="0"
     inkscape:pagecheckerboard="0"
     inkscape:deskcolor="#505050"
     showgrid="false"
     inkscape:zoom="15.921875"
     inkscape:cx="29.895976"
     inkscape:cy="32.031403"
     inkscape:window-width="2560"
     inkscape:window-height="1361"
     inkscape:window-x="0"
     inkscape:window-y="0"
     inkscape:window-maximized="1"
     inkscape:current-layer="svg25216" />
  <g
     transform="matrix(1.1739,0,0,1.1739,3.8261,3.8254)"
     id="g25212">
    <path
       d="m24 1c12.703 0 23 10.297 23 23s-10.297 23-23 23-23-10.297-23-23 10.297-23 23-23z"
       fill="#1b3341"
       id="path25206"
       style="fill:#44475a" />
    <path
       d="m24 4.408c10.821 0 19.592 8.7712 19.592 19.592s-8.7712 19.592-19.592 19.592-19.592-8.7712-19.592-19.592 8.7712-19.592 19.592-19.592z"
       fill="#f8f8f2"
       opacity=".1"
       stroke-width=".85182"
       id="path25208" />
    <g
       transform="translate(1,1)"
       id="g25210" />
  </g>
  <path
     d="m24.343 12.059c-3.548-0.1628-5.7995 3.6615-3.5553 6.1574 2.226 3.1253 7.5532 5.0372 11.164 2.6984 0 10.587 0.04866 22.498 0.04866 33.085 2.1495 0.52656 1.1575-2.9452 1.6633-4.1626 1.0075-4.5961 5.9376-6.9861 9.1118-10.275 2.598-2.6822 2.9418-6.7815 0.66484-9.7517-0.64494-0.84148-2.7315-4.2949-2.4167-3.6386 1.4042 2.6928 3.2078 5.7167 2.357 8.7701-1.0786 3.6615-5.0053 5.9987-9.0314 6.5676-1.029 0.13736-0.96293-0.14245-1.0653-1.6657v-22.702c-1.3483-3.0897-5.2759-5.1838-8.9405-5.083zm0.42574 0.97986c3.409-0.14754 7.5191 2.3036 7.0908 5.6282-0.88382 2.9411-5.388 2.7218-7.6759 1.28-2.5429-1.0994-4.4202-4.909-1.3418-6.4374 0.5893-0.28999 1.2583-0.43244 1.9269-0.47314z"
     fill="#f8f8f2"
     id="path25214" />
</svg>
