<?xml version="1.0" encoding="UTF-8" standalone="no"?>
<svg
   width="64"
   height="64"
   version="1.1"
   viewBox="0 0 64 64"
   id="svg21057"
   sodipodi:docname="r.svg"
   inkscape:version="1.2.2 (b0a8486541, 2022-12-01)"
   xmlns:inkscape="http://www.inkscape.org/namespaces/inkscape"
   xmlns:sodipodi="http://sodipodi.sourceforge.net/DTD/sodipodi-0.dtd"
   xmlns="http://www.w3.org/2000/svg"
   xmlns:svg="http://www.w3.org/2000/svg">
  <defs
     id="defs21061" />
  <sodipodi:namedview
     id="namedview21059"
     pagecolor="#505050"
     bordercolor="#eeeeee"
     borderopacity="1"
     inkscape:showpageshadow="0"
     inkscape:pageopacity="0"
     inkscape:pagecheckerboard="0"
     inkscape:deskcolor="#505050"
     showgrid="false"
     inkscape:zoom="15.921875"
     inkscape:cx="29.83317"
     inkscape:cy="32.031403"
     inkscape:window-width="1280"
     inkscape:window-height="1361"
     inkscape:window-x="0"
     inkscape:window-y="0"
     inkscape:window-maximized="0"
     inkscape:current-layer="svg21057" />
  <circle
     cx="32"
     cy="32"
     r="27"
     fill="#f8f8f2"
     stroke-width="3.7796"
     style="paint-order:stroke fill markers"
     id="circle21049" />
  <g
     transform="matrix(.8682 0 0 .8682 11.321 12.383)"
     fill-rule="evenodd"
     id="g21055">
    <path
       d="m28.889 5.3741a21.4 17.01 17.344 0 0-25.497 9.8574 21.4 17.01 17.344 0 0 15.356 22.616 21.4 17.01 17.344 0 0 25.497-9.8574 21.4 17.01 17.344 0 0-15.356-22.616m1.026 6.5827a15.961 12.68 17.344 0 1 11.455 16.863 15.961 12.68 17.344 0 1-19.016 7.3449 15.961 12.68 17.344 0 1-11.454-16.861 15.961 12.68 17.344 0 1 19.014-7.3476"
       color="#282a36"
       color-rendering="auto"
       fill="#c8c8c8"
       image-rendering="auto"
       shape-rendering="auto"
       id="path21051"
       style="fill:#9ea0a6" />
    <path
       d="m41.546 41.02-6.863 4e-3 -4.677-6.913s-0.753-1.295-1.216-1.671c-0.386-0.313-0.551-0.425-0.933-0.425h-0.868l2e-3 9-5.958 3e-3v-23h12.972s5.257 0.97 5.364 6.177c0.119 5.805-5.081 7.513-5.081 7.513 0.713 0.292 6.449 7.967 7.259 9.308m-10.285-18.01-4.212-3e-3 -2e-3 3.911 4.214-1e-3s1.952-6e-3 1.952-1.989c0-2.023-1.952-1.917-1.952-1.917"
       fill="#4f61eb"
       id="path21053"
       style="fill:#515d85" />
  </g>
</svg>
