<?xml version="1.0" encoding="UTF-8" standalone="no"?>
<svg
   width="64"
   height="64"
   version="1.1"
   id="svg18940"
   sodipodi:docname="remmina.svg"
   inkscape:version="1.2.2 (b0a8486541, 2022-12-01)"
   xmlns:inkscape="http://www.inkscape.org/namespaces/inkscape"
   xmlns:sodipodi="http://sodipodi.sourceforge.net/DTD/sodipodi-0.dtd"
   xmlns="http://www.w3.org/2000/svg"
   xmlns:svg="http://www.w3.org/2000/svg">
  <defs
     id="defs18944" />
  <sodipodi:namedview
     id="namedview18942"
     pagecolor="#505050"
     bordercolor="#eeeeee"
     borderopacity="1"
     inkscape:showpageshadow="0"
     inkscape:pageopacity="0"
     inkscape:pagecheckerboard="0"
     inkscape:deskcolor="#505050"
     showgrid="false"
     inkscape:zoom="15.921875"
     inkscape:cx="29.895976"
     inkscape:cy="32.031403"
     inkscape:window-width="2560"
     inkscape:window-height="1361"
     inkscape:window-x="0"
     inkscape:window-y="0"
     inkscape:window-maximized="1"
     inkscape:current-layer="svg18940" />
  <g
     transform="matrix(.93103 0 0 .93103 2.2069 -247.59)"
     id="g18938">
    <circle
       cx="32"
       cy="300.3"
       r="26.1"
       fill="#f8f8f2"
       stroke="#282a36"
       stroke-opacity=".13725"
       stroke-width="1.0737"
       id="circle18926" />
    <g
       stroke-width=".92729"
       id="g18936">
      <path
         class="st1"
         d="m25.846 294.5-6.844 4.56v7.036l17.398-11.596-17.398-11.604v7.036z"
         fill="#20aa73"
         id="path18928"
         style="fill:#44c367" />
      <path
         class="st2"
         d="m45.002 310.66-6.845-4.56 6.845-4.568v-7.036l-17.398 11.604 17.398 11.595z"
         fill="#3989da"
         id="path18930"
         style="fill:#168daa" />
      <path
         d="m57.372 286.3-4.877 3.246a23.2 23.2 0 0 1 2.705 10.753 23.2 23.2 0 0 1-23.2 23.2 23.2 23.2 0 0 1-17.85-8.442l-4.86 3.234c5.316 6.698 13.514 11.008 22.71 11.008 15.99 0 29-13.009 29-29 0-5.077-1.325-9.844-3.628-13.999z"
         fill="#20aa73"
         id="path18932"
         style="fill:#44c367" />
      <path
         d="m32 271.3c-15.991 0-29 13.009-29 29a28.8 28.8 0 0 0 3.146 13.118l4.9-3.26a23.2 23.2 0 0 1-2.246-9.858 23.2 23.2 0 0 1 23.2-23.2 23.2 23.2 0 0 1 17.19 7.678l4.889-3.252c-5.323-6.25-13.245-10.226-22.079-10.226z"
         fill="#3989da"
         id="path18934"
         style="fill:#168daa" />
    </g>
  </g>
</svg>
