<?xml version="1.0" encoding="UTF-8" standalone="no"?>
<svg
   width="64"
   height="64"
   version="1.1"
   viewBox="0 0 16.933 16.933"
   id="svg16253"
   sodipodi:docname="remote-desktop.svg"
   inkscape:version="1.2.2 (b0a8486541, 2022-12-01)"
   xmlns:inkscape="http://www.inkscape.org/namespaces/inkscape"
   xmlns:sodipodi="http://sodipodi.sourceforge.net/DTD/sodipodi-0.dtd"
   xmlns="http://www.w3.org/2000/svg"
   xmlns:svg="http://www.w3.org/2000/svg">
  <defs
     id="defs16257" />
  <sodipodi:namedview
     id="namedview16255"
     pagecolor="#505050"
     bordercolor="#eeeeee"
     borderopacity="1"
     inkscape:showpageshadow="0"
     inkscape:pageopacity="0"
     inkscape:pagecheckerboard="0"
     inkscape:deskcolor="#505050"
     showgrid="false"
     inkscape:zoom="15.921875"
     inkscape:cx="11.870461"
     inkscape:cy="32.031403"
     inkscape:window-width="2560"
     inkscape:window-height="1361"
     inkscape:window-x="0"
     inkscape:window-y="0"
     inkscape:window-maximized="1"
     inkscape:current-layer="svg16253" />
  <g
     transform="translate(0 -280.07)"
     id="g16251">
    <path
       d="m1.6772 284.97a7.6722 7.6722 0 0 0-0.88343 3.5627 7.6722 7.6722 0 0 0 0.88239 3.5617h13.58a7.6722 7.6722 0 0 0 0.88343-3.5627 7.6722 7.6722 0 0 0-0.88239-3.5627h-13.58z"
       fill="#557cae"
       style="paint-order:stroke markers fill;fill:#515d85"
       id="path16241" />
    <circle
       cx="8.4665"
       cy="288.53"
       r="7.1436"
       fill="#71a5e8"
       style="paint-order:stroke markers fill;fill:#6272a4"
       id="circle16243" />
    <path
       d="M8.467 282.713a5.82 5.82 0 0 0-4.498 2.131v1.458a5.027 5.027 0 0 0-.53 2.231 5.027 5.027 0 0 0 .53 2.242v1.446a5.82 5.82 0 0 0 4.498 2.133 5.82 5.82 0 0 0 4.498-2.131v-1.458a5.027 5.027 0 0 0 .529-2.232 5.027 5.027 0 0 0-.53-2.24v-1.448a5.82 5.82 0 0 0-4.497-2.132z"
       opacity=".25"
       paint-order="stroke markers fill"
       id="path16245" />
    <path
       d="M5.169 285.622a.16.16 0 0 0-.14.157v2.861c0 .084.072.158.156.158h1.43v.529H5.558v.529h1.927v-1.588h-1.81a.113.113 0 0 1-.108-.108v-1.9c-.002-.05.034-.099.082-.108a.103.103 0 0 1 .025 0h2.944c.054 0 .107.05.107.107v.76h.537v-1.24a.163.163 0 0 0-.157-.157m-3.935 0"
       fill="#f8f8f2"
       opacity=".5"
       id="path16247" />
    <path
       d="M7.816 287.21a.165.165 0 0 0-.143.157v2.86c0 .083.076.158.16.158H9.26v.792h1.059v-.792h1.429a.164.164 0 0 0 .158-.158v-2.86a.165.165 0 0 0-.158-.158m-3.453.53a.064.064 0 0 1 .02 0h2.949a.11.11 0 0 1 .106.106v1.905a.11.11 0 0 1-.106.106h-2.95a.11.11 0 0 1-.106-.106v-1.905a.11.11 0 0 1 .087-.107m-.093 3.175v.53h3.175v-.53m-3.175 0"
       fill="#f8f8f2"
       id="path16249" />
  </g>
</svg>
