<?xml version="1.0" encoding="UTF-8" standalone="no"?>
<svg
   width="64"
   height="64"
   version="1.1"
   viewBox="0 0 16.933 16.933"
   id="svg15229"
   sodipodi:docname="retext.svg"
   inkscape:version="1.2.2 (b0a8486541, 2022-12-01)"
   xmlns:inkscape="http://www.inkscape.org/namespaces/inkscape"
   xmlns:sodipodi="http://sodipodi.sourceforge.net/DTD/sodipodi-0.dtd"
   xmlns="http://www.w3.org/2000/svg"
   xmlns:svg="http://www.w3.org/2000/svg">
  <defs
     id="defs15233" />
  <sodipodi:namedview
     id="namedview15231"
     pagecolor="#505050"
     bordercolor="#eeeeee"
     borderopacity="1"
     inkscape:showpageshadow="0"
     inkscape:pageopacity="0"
     inkscape:pagecheckerboard="0"
     inkscape:deskcolor="#505050"
     showgrid="false"
     inkscape:zoom="15.921875"
     inkscape:cx="29.895976"
     inkscape:cy="32.031403"
     inkscape:window-width="2560"
     inkscape:window-height="1361"
     inkscape:window-x="0"
     inkscape:window-y="0"
     inkscape:window-maximized="1"
     inkscape:current-layer="svg15229" />
  <circle
     cx="8.467"
     cy="8.46"
     r="7.144"
     fill="#de4f4f"
     paint-order="stroke markers fill"
     id="circle15209"
     style="fill:#c7484a" />
  <g
     transform="matrix(1.1739 0 0 1.1739 1.0123 1.0123)"
     id="g15227">
    <g
       transform="matrix(.25627 .0027089 .0027879 .25647 6.2695 2.9726)"
       id="g15213">
      <path
         transform="matrix(1.0325 -.010906 -.011224 1.0317 -24.341 -11.333)"
         d="m13 11v26h22v-26h-2v2c0 0.552-0.448 1-1 1s-1-0.448-1-1v-2h-2v2c0 0.552-0.448 1-1 1s-1-0.448-1-1v-2h-2v2c0 0.552-0.448 1-1 1s-1-0.448-1-1v-2h-2v2c0 0.552-0.448 1-1 1s-1-0.448-1-1v-2h-2v2c0 0.552-0.448 1-1 1s-1-0.448-1-1v-2z"
         fill="#f8f8f2"
         id="path15211" />
    </g>
    <g
       transform="scale(.26458)"
       id="g15225">
      <path
         d="m19.5 18h2.5c3.14 0 4.677 0.524 5.313 1.031 0.635 0.507 0.688 1.054 0.688 1.969 0 0.911-0.048 1.46-0.688 1.969-0.639 0.509-2.184 1.031-5.313 1.031h-2.5v2c1.621 0 3.097 0.311 3.781 0.75s1.15 1.057 1.563 1.875c0.824 1.636 1.351 4.06 3.456 6.075 0.361 0.426 1.046 0.377 1.4 0 0.399-0.426 0.39-1.026-0.012-1.419-1.629-1.559-2.07-3.593-3.063-5.563-0.363-0.721-0.891-1.398-1.531-2 1.478-0.228 2.698-0.574 3.469-1.188 1.245-0.991 1.438-2.442 1.438-3.531 0-1.086-0.194-2.539-1.438-3.531-1.243-0.993-3.217-1.469-6.563-1.469h-2.5z"
         color="#282a36"
         fill="#212121"
         id="path15215"
         style="fill:#1e1f29" />
      <path
         d="m18 16h3v15h-3z"
         fill="#b72727"
         id="path15217"
         style="fill:#ff5555" />
      <path
         d="m18 16h1.5v15h-1.5z"
         fill="#d93535"
         id="path15219"
         style="fill:#c7484a" />
      <path
         d="m18 31h3l-1.5 4z"
         fill="#ffe680"
         id="path15221"
         style="fill:#fdc88e" />
      <path
         d="m20.25 33-0.75 2-0.75-2z"
         fill="#212121"
         id="path15223"
         style="fill:#1e1f29" />
    </g>
  </g>
</svg>
