<?xml version="1.0" encoding="UTF-8" standalone="no"?>
<svg
   width="64"
   height="64"
   version="1"
   id="svg14"
   sodipodi:docname="retroarch.svg"
   inkscape:version="1.2.2 (b0a8486541, 2022-12-01)"
   xmlns:inkscape="http://www.inkscape.org/namespaces/inkscape"
   xmlns:sodipodi="http://sodipodi.sourceforge.net/DTD/sodipodi-0.dtd"
   xmlns="http://www.w3.org/2000/svg"
   xmlns:svg="http://www.w3.org/2000/svg">
  <defs
     id="defs18" />
  <sodipodi:namedview
     id="namedview16"
     pagecolor="#505050"
     bordercolor="#eeeeee"
     borderopacity="1"
     inkscape:showpageshadow="0"
     inkscape:pageopacity="0"
     inkscape:pagecheckerboard="0"
     inkscape:deskcolor="#505050"
     showgrid="false"
     inkscape:zoom="15.921875"
     inkscape:cx="29.895976"
     inkscape:cy="32.031403"
     inkscape:window-width="2560"
     inkscape:window-height="1361"
     inkscape:window-x="0"
     inkscape:window-y="0"
     inkscape:window-maximized="1"
     inkscape:current-layer="svg14" />
  <rect
     width="54"
     height="54"
     x="5"
     y="5"
     fill="#cbcccc"
     rx="27"
     ry="27"
     id="rect2" />
  <rect
     width="46"
     height="46"
     x="9"
     y="9"
     fill="#f8f8f2"
     opacity=".5"
     rx="23"
     ry="23"
     id="rect4" />
  <g
     stroke-width="1.3"
     id="g12">
    <path
       fill="#565656"
       d="m23.444 21 3.667 4.889h-7.333l-.762 3.666H14.89l1.222-4.888h-2.444l-2.445 9.777h6.873l-.762 3.667h4.89L18.555 43h4.888l3.667-4.889h9.778L40.556 43h4.888l-3.666-4.889h4.889l-.762-3.667h6.873l-2.445-9.777H47.89l1.222 4.888h-4.127l-.762-3.666H36.89L40.556 21H38.11l-3.666 4.889h-4.89L25.89 21z"
       id="path6"
       style="fill:#44475a" />
    <path
       d="M22.222 29.555v4.89h4.89v-4.89zm14.667 0v4.89h4.889v-4.89z"
       opacity=".2"
       id="path8" />
    <path
       fill="#f8f8f2"
       d="M22.222 28.333v4.89h4.89v-4.89zm14.667 0v4.89h4.889v-4.89z"
       id="path10" />
  </g>
</svg>
