<?xml version="1.0" encoding="UTF-8" standalone="no"?>
<svg
   width="64"
   height="64"
   version="1.1"
   id="svg8"
   sodipodi:docname="revolt.svg"
   inkscape:version="1.2.2 (b0a8486541, 2022-12-01)"
   xmlns:inkscape="http://www.inkscape.org/namespaces/inkscape"
   xmlns:sodipodi="http://sodipodi.sourceforge.net/DTD/sodipodi-0.dtd"
   xmlns="http://www.w3.org/2000/svg"
   xmlns:svg="http://www.w3.org/2000/svg">
  <defs
     id="defs12" />
  <sodipodi:namedview
     id="namedview10"
     pagecolor="#505050"
     bordercolor="#eeeeee"
     borderopacity="1"
     inkscape:showpageshadow="0"
     inkscape:pageopacity="0"
     inkscape:pagecheckerboard="0"
     inkscape:deskcolor="#505050"
     showgrid="false"
     inkscape:zoom="15.921875"
     inkscape:cx="29.895976"
     inkscape:cy="32.031403"
     inkscape:window-width="2560"
     inkscape:window-height="1361"
     inkscape:window-x="0"
     inkscape:window-y="0"
     inkscape:window-maximized="1"
     inkscape:current-layer="svg8" />
  <path
     fill="#f7b15b"
     d="M32 5c14.912 0 27 12.088 27 27S46.911 59 32 59 5 46.911 5 32 17.088 5 32 5z"
     id="path2"
     style="fill:#ffb86c" />
  <path
     fill="#3d3d3d"
     d="M32 14a18 18 0 0 0-18 18 18 18 0 0 0 18 18 18 18 0 0 0 18-18 18 18 0 0 0-18-18zm0 9.6a8.4 8.4 0 0 1 8.4 8.4 8.4 8.4 0 0 1-8.4 8.4 8.4 8.4 0 0 1-8.4-8.4 8.4 8.4 0 0 1 8.4-8.4z"
     id="path4"
     style="fill:#44475a" />
  <path
     fill="#faf8f0"
     d="M31.999 16.4a2.4 2.4 0 0 0-2.4 2.4 2.4 2.4 0 0 0 2.4 2.4 2.4 2.4 0 0 0 2.4-2.4 2.4 2.4 0 0 0-2.4-2.4zm-6.6 1.77a2.4 2.4 0 0 0-2.4 2.4 2.4 2.4 0 0 0 2.4 2.4 2.4 2.4 0 0 0 2.4-2.4 2.4 2.4 0 0 0-2.4-2.4zm13.2 0a2.4 2.4 0 0 0-2.4 2.4 2.4 2.4 0 0 0 2.4 2.4 2.4 2.4 0 0 0 2.4-2.4 2.4 2.4 0 0 0-2.4-2.4zM20.569 23a2.4 2.4 0 0 0-2.4 2.4 2.4 2.4 0 0 0 2.4 2.4 2.4 2.4 0 0 0 2.4-2.4 2.4 2.4 0 0 0-2.4-2.4zm22.861 0a2.4 2.4 0 0 0-2.4 2.4 2.4 2.4 0 0 0 2.4 2.4 2.4 2.4 0 0 0 2.4-2.4 2.4 2.4 0 0 0-2.4-2.4zM18.8 29.6a2.4 2.4 0 0 0-2.4 2.4 2.4 2.4 0 0 0 2.4 2.4 2.4 2.4 0 0 0 2.4-2.4 2.4 2.4 0 0 0-2.4-2.4zm26.4 0a2.4 2.4 0 0 0-2.4 2.4 2.4 2.4 0 0 0 2.4 2.4 2.4 2.4 0 0 0 2.4-2.4 2.4 2.4 0 0 0-2.4-2.4zm-24.63 6.6a2.4 2.4 0 0 0-2.4 2.4 2.4 2.4 0 0 0 2.4 2.4 2.4 2.4 0 0 0 2.4-2.4 2.4 2.4 0 0 0-2.4-2.4zm22.861 0a2.4 2.4 0 0 0-2.4 2.4 2.4 2.4 0 0 0 2.4 2.4 2.4 2.4 0 0 0 2.4-2.4 2.4 2.4 0 0 0-2.4-2.4zm-18.03 4.83a2.4 2.4 0 0 0-2.4 2.4 2.4 2.4 0 0 0 2.4 2.4 2.4 2.4 0 0 0 2.4-2.4 2.4 2.4 0 0 0-2.4-2.4zm13.2 0a2.4 2.4 0 0 0-2.4 2.4 2.4 2.4 0 0 0 2.4 2.4 2.4 2.4 0 0 0 2.4-2.4 2.4 2.4 0 0 0-2.4-2.4zm-6.6 1.77a2.4 2.4 0 0 0-2.4 2.4 2.4 2.4 0 0 0 2.4 2.4 2.4 2.4 0 0 0 2.4-2.4 2.4 2.4 0 0 0-2.4-2.4z"
     id="path6"
     style="fill:#f8f8f2" />
</svg>
