<?xml version="1.0" encoding="UTF-8" standalone="no"?>
<svg
   width="64"
   height="64"
   version="1.1"
   viewBox="0 0 16.933 16.933"
   id="svg24"
   sodipodi:docname="rhythmbox.svg"
   inkscape:version="1.2.2 (b0a8486541, 2022-12-01)"
   xmlns:inkscape="http://www.inkscape.org/namespaces/inkscape"
   xmlns:sodipodi="http://sodipodi.sourceforge.net/DTD/sodipodi-0.dtd"
   xmlns="http://www.w3.org/2000/svg"
   xmlns:svg="http://www.w3.org/2000/svg">
  <defs
     id="defs28" />
  <sodipodi:namedview
     id="namedview26"
     pagecolor="#505050"
     bordercolor="#eeeeee"
     borderopacity="1"
     inkscape:showpageshadow="0"
     inkscape:pageopacity="0"
     inkscape:pagecheckerboard="0"
     inkscape:deskcolor="#505050"
     showgrid="false"
     inkscape:zoom="16"
     inkscape:cx="51.5"
     inkscape:cy="36.9375"
     inkscape:window-width="2560"
     inkscape:window-height="1361"
     inkscape:window-x="0"
     inkscape:window-y="0"
     inkscape:window-maximized="1"
     inkscape:current-layer="svg24" />
  <g
     transform="matrix(1.0384 0 0 1.0385 -.32504 -.32514)"
     stroke-width=".96299"
     id="g6">
    <circle
       cx="8.467"
       cy="8.466"
       r="6.879"
       fill="#ebeeef"
       style="paint-order:markers stroke fill;fill:#f8f8f2"
       id="circle2" />
    <path
       d="m3.606 3.604a6.88 6.88 0 0 0-2.019 4.862 6.88 6.88 0 0 0 0.113 1.226 4.233 4.23 0 0 0 2.533-3.871 4.233 4.23 0 0 0-0.627-2.217zm9.724 3e-3a4.233 4.23 0 0 0-0.63 2.214 4.233 4.23 0 0 0 2.53 3.873 6.88 6.88 0 0 0 0.116-1.228 6.88 6.88 0 0 0-2.016-4.86z"
       fill="#334d5c"
       opacity=".25"
       id="path4"
       style="fill:#cbcccc;opacity:1" />
  </g>
  <path
     d="m12.7 10.053a4.2335 4.2305 0 1 1-8.467 0 4.2335 4.2305 0 1 1 8.467 0z"
     fill="#334d5c"
     id="path8"
     style="fill:#282a36" />
  <path
     d="m11.642 10.053a3.175 3.174 0 1 1-6.35 0 3.175 3.174 0 1 1 6.35 0z"
     fill="#efc84a"
     id="path10"
     style="fill:#ffb86c" />
  <path
     d="m10.054 10.053a1.5875 1.5865 0 1 1-3.175 0 1.5875 1.5865 0 1 1 3.175 0z"
     fill="#334d5c"
     id="path12"
     style="fill:#282a36" />
  <path
     d="m9.26 10.053"
     fill="#f8f8f2"
     id="path14" />
  <path
     d="m10.054 3.703a1.5875 1.5875 0 1 1-3.175 0 1.5875 1.5875 0 1 1 3.175 0z"
     fill="#f8f8f2"
     id="path16"
     style="fill:#cbcccc;opacity:1" />
  <path
     d="m9.525 3.703a1.0585 1.0585 0 1 1-2.117 0 1.0585 1.0585 0 1 1 2.117 0z"
     fill="#334d5c"
     id="path18"
     style="fill:#282a36" />
  <path
     d="m8.996 3.704a0.53 0.529 0 1 1-1.059 0 0.53 0.529 0 1 1 1.059 0z"
     fill="#efc84a"
     id="path20"
     style="fill:#ffb86c" />
  <path
     d="m5.82 3.968a0.265 0.264 0 1 1-0.528 0 0.265 0.264 0 1 1 0.529 0zm5.822 0a0.265 0.264 0 1 1-0.53 0 0.265 0.264 0 1 1 0.53 0zm2.645 6.351a0.265 0.264 0 1 1-0.529 0 0.265 0.264 0 1 1 0.53 0zm-10.847 0a0.265 0.264 0 1 1-0.53 0 0.265 0.264 0 1 1 0.53 0z"
     fill="#334d5c"
     id="path22"
     style="fill:#282a36" />
</svg>
