<?xml version="1.0" encoding="UTF-8" standalone="no"?>
<svg
   width="64"
   height="64"
   version="1.1"
   id="svg14216"
   sodipodi:docname="rimworld.svg"
   inkscape:version="1.2.2 (b0a8486541, 2022-12-01)"
   xmlns:inkscape="http://www.inkscape.org/namespaces/inkscape"
   xmlns:sodipodi="http://sodipodi.sourceforge.net/DTD/sodipodi-0.dtd"
   xmlns="http://www.w3.org/2000/svg"
   xmlns:svg="http://www.w3.org/2000/svg">
  <defs
     id="defs14220" />
  <sodipodi:namedview
     id="namedview14218"
     pagecolor="#505050"
     bordercolor="#eeeeee"
     borderopacity="1"
     inkscape:showpageshadow="0"
     inkscape:pageopacity="0"
     inkscape:pagecheckerboard="0"
     inkscape:deskcolor="#505050"
     showgrid="false"
     inkscape:zoom="15.921875"
     inkscape:cx="29.895976"
     inkscape:cy="32.031403"
     inkscape:window-width="2560"
     inkscape:window-height="1361"
     inkscape:window-x="0"
     inkscape:window-y="0"
     inkscape:window-maximized="1"
     inkscape:current-layer="svg14216" />
  <circle
     cx="32"
     cy="32"
     r="27"
     fill="#b5b5b5"
     stroke-width=".96429"
     id="circle14210"
     style="fill:#9ea0a6" />
  <circle
     cx="32"
     cy="32"
     r="22"
     opacity=".4"
     stroke-width="1.0476"
     id="circle14212" />
  <path
     d="m31.949 12a3 3 0 0 0-2.9492 3 3 3 0 0 0 1.6543 2.6816l-3.8457 7.6562-8.8828 2.002a3 3 0 0 0-2.9258-2.3398 3 3 0 0 0-3 3 3 3 0 0 0 3 3 3 3 0 0 0 2.3457-1.1309l6.2539 4.9883-1.1738 8.1719a3 3 0 0 0-0.42578-0.029297 3 3 0 0 0-3 3 3 3 0 0 0 3 3 3 3 0 0 0 3-3 3 3 0 0 0-0.3457-1.3965l7.3457-3.8652 7.3438 3.8652a3 3 0 0 0-0.34375 1.3965 3 3 0 0 0 3 3 3 3 0 0 0 3-3 3 3 0 0 0-3-3 3 3 0 0 0-0.42578 0.03125l-1.1738-8.1738 6.2539-4.9883a3 3 0 0 0 2.3457 1.1309 3 3 0 0 0 3-3 3 3 0 0 0-3-3 3 3 0 0 0-2.9258 2.3398l-8.8828-2.002-3.8457-7.6582a3 3 0 0 0 1.6543-2.6797 3 3 0 0 0-3-3 3 3 0 0 0-0.050781 0z"
     fill="#f8f8f2"
     stroke-width="1.3745"
     id="path14214" />
</svg>
