<?xml version="1.0" encoding="UTF-8" standalone="no"?>
<svg
   width="64"
   height="64"
   version="1.1"
   id="svg13716"
   sodipodi:docname="ring.svg"
   inkscape:version="1.2.2 (b0a8486541, 2022-12-01)"
   xmlns:inkscape="http://www.inkscape.org/namespaces/inkscape"
   xmlns:sodipodi="http://sodipodi.sourceforge.net/DTD/sodipodi-0.dtd"
   xmlns:xlink="http://www.w3.org/1999/xlink"
   xmlns="http://www.w3.org/2000/svg"
   xmlns:svg="http://www.w3.org/2000/svg">
  <sodipodi:namedview
     id="namedview13718"
     pagecolor="#505050"
     bordercolor="#eeeeee"
     borderopacity="1"
     inkscape:showpageshadow="0"
     inkscape:pageopacity="0"
     inkscape:pagecheckerboard="0"
     inkscape:deskcolor="#505050"
     showgrid="false"
     inkscape:zoom="15.921875"
     inkscape:cx="29.895976"
     inkscape:cy="32.031403"
     inkscape:window-width="2560"
     inkscape:window-height="1361"
     inkscape:window-x="0"
     inkscape:window-y="0"
     inkscape:window-maximized="1"
     inkscape:current-layer="svg13716" />
  <defs
     id="defs13704">
    <path
       id="j"
       d="m39.821 11.402 3 5.196c2 3.464-32.641 23.464-34.641 20l-3-5.196c-2-3.464 32.641-23.464 34.641-20"
       color="#282a36" />
    <path
       id="k"
       d="m21 4h6c4 0 4 40 0 40h-6c-4 0-4-40 0-40"
       color="#282a36" />
  </defs>
  <circle
     cx="32"
     cy="32"
     r="27"
     fill="#f8f8f2"
     stroke-width="3.7796"
     style="paint-order:stroke fill markers"
     id="circle13706" />
  <g
     transform="matrix(.95 0 0 .95 9.2 -6)"
     stroke-width=".76923"
     id="g13714">
    <path
       d="m8.179 27.402-3 5.196c-2 3.464 32.641 23.464 34.641 20l3-5.196c2-3.464-32.641-23.464-34.641-20"
       color="#282a36"
       fill="#158f76"
       id="path13708"
       style="fill:#44c367" />
    <use
       transform="translate(0,16)"
       width="100%"
       height="100%"
       fill="#4d0e93"
       xlink:href="#j"
       id="use13710"
       style="fill:#9576c5" />
    <use
       transform="translate(0,16)"
       width="100%"
       height="100%"
       fill="#1b8cf4"
       xlink:href="#k"
       id="use13712"
       style="fill:#13b1d5" />
  </g>
</svg>
