<?xml version="1.0" encoding="UTF-8" standalone="no"?>
<svg
   width="64"
   height="64"
   version="1.1"
   viewBox="0 0 16.933 16.933"
   id="svg6561"
   sodipodi:docname="rubymine.svg"
   inkscape:version="1.2.2 (b0a8486541, 2022-12-01)"
   xmlns:inkscape="http://www.inkscape.org/namespaces/inkscape"
   xmlns:sodipodi="http://sodipodi.sourceforge.net/DTD/sodipodi-0.dtd"
   xmlns="http://www.w3.org/2000/svg"
   xmlns:svg="http://www.w3.org/2000/svg">
  <defs
     id="defs6565" />
  <sodipodi:namedview
     id="namedview6563"
     pagecolor="#505050"
     bordercolor="#eeeeee"
     borderopacity="1"
     inkscape:showpageshadow="0"
     inkscape:pageopacity="0"
     inkscape:pagecheckerboard="0"
     inkscape:deskcolor="#505050"
     showgrid="false"
     inkscape:zoom="15.921875"
     inkscape:cx="29.895976"
     inkscape:cy="32.031403"
     inkscape:window-width="2560"
     inkscape:window-height="1361"
     inkscape:window-x="0"
     inkscape:window-y="0"
     inkscape:window-maximized="1"
     inkscape:current-layer="svg6561" />
  <path
     d="m15.61 8.4662a7.1435 7.1435 0 0 1-7.1435 7.1435 7.1435 7.1435 0 0 1-7.1435-7.1435 7.1435 7.1435 0 0 1 7.1435-7.1435 7.1435 7.1435 0 0 1 7.1435 7.1435z"
     fill="#e87778"
     stroke-width=".26457"
     id="path6553"
     style="fill:#fd7e7c" />
  <rect
     x="4.4978"
     y="4.4978"
     width="7.9373"
     height="7.9373"
     rx="1.3229"
     ry="1.3229"
     fill="#282a36"
     style="paint-order:markers stroke fill"
     id="rect6555" />
  <path
     d="m8.4664 5.3605h0.62117l0.93176 1.553 0.93176-1.553h0.62117v3.4165h-0.62117v-2.1741l-0.93176 1.553-0.93176-1.553v2.1741h-0.62117m-1.8636-3.4165c0.62117 0 1.2423 0.48368 1.2423 1.0871 0 0.46589-0.29258 0.74855-0.68514 0.97105l0.68514 1.3583h-0.62117l-0.62117-1.2423h-0.62117v1.2423h-0.62117v-3.4165zm0 1.553c0.48459 0 0.62117-0.22126 0.6298-0.46589-0.008625-0.21671-0.13728-0.46589-0.6298-0.46589h-0.62117v0.93176z"
     fill="#f8f8f2"
     stroke-width=".26457"
     id="path6557" />
  <path
     d="m5.0499 10.951h3.1059v0.62118h-3.1059z"
     fill="#f8f8f2"
     stroke-width=".26457"
     id="path6559" />
</svg>
