<?xml version="1.0" encoding="UTF-8" standalone="no"?>
<svg
   width="64"
   height="64"
   version="1.1"
   id="svg8"
   sodipodi:docname="rustdesk.svg"
   inkscape:version="1.2.2 (b0a8486541, 2022-12-01)"
   xmlns:inkscape="http://www.inkscape.org/namespaces/inkscape"
   xmlns:sodipodi="http://sodipodi.sourceforge.net/DTD/sodipodi-0.dtd"
   xmlns="http://www.w3.org/2000/svg"
   xmlns:svg="http://www.w3.org/2000/svg">
  <defs
     id="defs12" />
  <sodipodi:namedview
     id="namedview10"
     pagecolor="#505050"
     bordercolor="#eeeeee"
     borderopacity="1"
     inkscape:showpageshadow="0"
     inkscape:pageopacity="0"
     inkscape:pagecheckerboard="0"
     inkscape:deskcolor="#505050"
     showgrid="false"
     inkscape:zoom="15.921875"
     inkscape:cx="29.895976"
     inkscape:cy="32.031403"
     inkscape:window-width="2560"
     inkscape:window-height="1361"
     inkscape:window-x="0"
     inkscape:window-y="0"
     inkscape:window-maximized="1"
     inkscape:current-layer="svg8" />
  <path
     fill="#f8f8f2"
     d="M32 5A27 27 0 0 0 5 32a27 27 0 0 0 27 27 27 27 0 0 0 27-27A27 27 0 0 0 32 5z"
     id="path2" />
  <g
     style="fill:#515d85"
     id="g6">
    <path
       d="M32 14a18 18 0 0 0-10.571 3.452l4.043 4.042A12.375 12.375 0 0 1 32 19.624 12.375 12.375 0 0 1 44.374 32a12.375 12.375 0 0 1-1.876 6.52l4.045 4.047A18 18 0 0 0 50 32a18 18 0 0 0-18-18Zm-14.544 7.433A18 18 0 0 0 14 32a18 18 0 0 0 18 18 18 18 0 0 0 10.57-3.452l-4.043-4.043A12.375 12.375 0 0 1 32 44.375 12.375 12.375 0 0 1 19.624 32a12.375 12.375 0 0 1 1.877-6.521Z"
       style="fill:#515d85;stroke-width:0.81818"
       transform="rotate(45 32 32)"
       id="path4" />
  </g>
</svg>
