<?xml version="1.0" encoding="UTF-8" standalone="no"?>
<svg
   id="Flamingo"
   width="64"
   height="64"
   enable-background="new 0 0 1024 1024"
   image-rendering="optimizeSpeed"
   version="1.1"
   viewBox="0 0 64 64"
   sodipodi:docname="screenrecorder.svg"
   inkscape:version="1.2.2 (b0a8486541, 2022-12-01)"
   xmlns:inkscape="http://www.inkscape.org/namespaces/inkscape"
   xmlns:sodipodi="http://sodipodi.sourceforge.net/DTD/sodipodi-0.dtd"
   xmlns="http://www.w3.org/2000/svg"
   xmlns:svg="http://www.w3.org/2000/svg">
  <defs
     id="defs15" />
  <sodipodi:namedview
     id="namedview13"
     pagecolor="#505050"
     bordercolor="#eeeeee"
     borderopacity="1"
     inkscape:showpageshadow="0"
     inkscape:pageopacity="0"
     inkscape:pagecheckerboard="0"
     inkscape:deskcolor="#505050"
     showgrid="false"
     inkscape:zoom="15.921875"
     inkscape:cx="29.895976"
     inkscape:cy="32.031403"
     inkscape:window-width="2560"
     inkscape:window-height="1361"
     inkscape:window-x="0"
     inkscape:window-y="0"
     inkscape:window-maximized="1"
     inkscape:current-layer="Flamingo" />
  <g
     transform="matrix(.89999 0 0 .9 3.2 3.2)"
     id="g10">
    <circle
       cx="32"
       cy="32"
       r="30"
       fill="#ff644f"
       style="paint-order:stroke markers fill;fill:#ff5555"
       id="circle2" />
    <g
       fill="#f8f8f2"
       fill-rule="evenodd"
       id="g8">
      <path
         d="m37.162 26.612 8.8576-5.5525c0.72542-0.45474 1.3881-0.13418 1.4799 0.71446l1.834 16.946c0.09192 0.84933-0.4871 1.3077-1.2917 1.0242l-9.8647-3.4745 0.214 2.0361c0.17911 1.7041-1.0561 3.2306-2.7572 3.4094l-20.028 2.105c-1.7018 0.17887-3.2262-1.0528-3.4058-2.7617l-1.4565-13.857c-0.1791-1.7041 1.0561-3.2306 2.7572-3.4094l20.028-2.105c1.7018-0.17887 3.2262 1.0528 3.4058 2.7617zm0 0-8.1855 5.1312c-0.7248 0.45436-0.66064 1.0533 0.14469 1.337l9.0559 3.1897z"
         id="path4" />
      <path
         d="m56.336 14.52-11.859 7.5742 1.7793 16.947 13.221 4.9609a30 30 0 0 0 2.5234-12.002 30 30 0 0 0-5.6641-17.48z"
         opacity=".3"
         id="path6" />
    </g>
  </g>
</svg>
