<?xml version="1.0" encoding="UTF-8" standalone="no"?>
<svg
   width="64"
   height="64"
   version="1.1"
   viewBox="0 0 16.933 16.933"
   id="svg26"
   sodipodi:docname="screen-recorder.svg"
   inkscape:version="1.2.2 (b0a8486541, 2022-12-01)"
   xmlns:inkscape="http://www.inkscape.org/namespaces/inkscape"
   xmlns:sodipodi="http://sodipodi.sourceforge.net/DTD/sodipodi-0.dtd"
   xmlns="http://www.w3.org/2000/svg"
   xmlns:svg="http://www.w3.org/2000/svg">
  <defs
     id="defs30" />
  <sodipodi:namedview
     id="namedview28"
     pagecolor="#505050"
     bordercolor="#eeeeee"
     borderopacity="1"
     inkscape:showpageshadow="0"
     inkscape:pageopacity="0"
     inkscape:pagecheckerboard="0"
     inkscape:deskcolor="#505050"
     showgrid="false"
     inkscape:zoom="15.921875"
     inkscape:cx="29.83317"
     inkscape:cy="32.031403"
     inkscape:window-width="1280"
     inkscape:window-height="1361"
     inkscape:window-x="1280"
     inkscape:window-y="0"
     inkscape:window-maximized="0"
     inkscape:current-layer="svg26" />
  <rect
     x="1.3229"
     y="1.32"
     width="14.287"
     height="14.287"
     ry="7.1436"
     fill="#a2a1ff"
     style="paint-order:stroke markers fill;fill:#9576c5"
     id="rect2" />
  <rect
     x="3.44"
     y="11.906"
     width="10.054"
     height="1.323"
     ry=".265"
     fill="#f8f8f2"
     opacity=".35"
     style="paint-order:markers stroke fill"
     id="rect4" />
  <g
     transform="translate(-5.6019e-8 -279.27)"
     fill="#eeedff"
     id="g14"
     style="fill:#f8f8f2">
    <rect
       x="4.498"
       y="290.38"
       width="1.323"
       height="1.323"
       ry=".132"
       style="paint-order:stroke markers fill;fill:#f8f8f2"
       id="rect6" />
    <rect
       x="6.703"
       y="290.38"
       width="1.323"
       height="1.323"
       ry=".132"
       style="paint-order:stroke markers fill;fill:#f8f8f2"
       id="rect8" />
    <rect
       x="8.908"
       y="290.38"
       width="1.323"
       height="1.323"
       ry=".132"
       style="paint-order:stroke markers fill;fill:#f8f8f2"
       id="rect10" />
    <rect
       x="11.113"
       y="290.38"
       width="1.323"
       height="1.323"
       ry=".132"
       style="paint-order:stroke markers fill;fill:#f8f8f2"
       id="rect12" />
  </g>
  <path
     d="m8.4666 1.3229c-1.3783 0-2.6625 0.38745-3.7517 1.0583h7.5032c-1.0891-0.67087-2.3734-1.0583-3.7517-1.0583z"
     opacity=".35"
     style="paint-order:stroke markers fill"
     id="path16" />
  <rect
     x="7.1436"
     y="1.58"
     width="2.6458"
     height=".52916"
     ry=".26508"
     opacity=".35"
     style="paint-order:stroke markers fill"
     id="rect18" />
  <g
     transform="translate(0 -1.0584)"
     fill="#f8f8f2"
     id="g24">
    <path
       d="m12.17 6.879-1.587 1.058c-0.05 0.343-0.118 0.682 0 1.059l1.588 1.058z"
       id="path20" />
    <path
       d="m5.556 6.35a0.264 0.264 0 0 0-0.264 0.264v3.704c0 0.147 0.118 0.265 0.264 0.265h4.763a0.264 0.264 0 0 0 0.264-0.265v-3.704a0.264 0.264 0 0 0-0.264-0.264zm2.381 0.793a1.323 1.323 0 0 1 1.323 1.323 1.323 1.323 0 0 1-1.323 1.323 1.323 1.323 0 0 1-1.322-1.323 1.323 1.323 0 0 1 1.322-1.323z"
       id="path22" />
  </g>
</svg>
