<?xml version="1.0" encoding="UTF-8" standalone="no"?>
<svg
   width="64"
   height="64"
   version="1.1"
   viewBox="0 0 16.933 16.933"
   id="svg16"
   sodipodi:docname="shuffler-control.svg"
   inkscape:version="1.2.2 (b0a8486541, 2022-12-01)"
   xmlns:inkscape="http://www.inkscape.org/namespaces/inkscape"
   xmlns:sodipodi="http://sodipodi.sourceforge.net/DTD/sodipodi-0.dtd"
   xmlns="http://www.w3.org/2000/svg"
   xmlns:svg="http://www.w3.org/2000/svg"
   xmlns:rdf="http://www.w3.org/1999/02/22-rdf-syntax-ns#"
   xmlns:cc="http://creativecommons.org/ns#"
   xmlns:dc="http://purl.org/dc/elements/1.1/">
  <defs
     id="defs20" />
  <sodipodi:namedview
     id="namedview18"
     pagecolor="#505050"
     bordercolor="#eeeeee"
     borderopacity="1"
     inkscape:showpageshadow="0"
     inkscape:pageopacity="0"
     inkscape:pagecheckerboard="0"
     inkscape:deskcolor="#505050"
     showgrid="false"
     inkscape:zoom="15.921875"
     inkscape:cx="29.895976"
     inkscape:cy="32.031403"
     inkscape:window-width="2560"
     inkscape:window-height="1361"
     inkscape:window-x="0"
     inkscape:window-y="0"
     inkscape:window-maximized="1"
     inkscape:current-layer="svg16" />
  <metadata
     id="metadata2">
    <rdf:RDF>
      <cc:Work
         rdf:about="">
        <dc:format>image/svg+xml</dc:format>
        <dc:type
           rdf:resource="http://purl.org/dc/dcmitype/StillImage" />
        <dc:title />
      </cc:Work>
    </rdf:RDF>
  </metadata>
  <path
     d="m15.61 8.4665c0-0.12046-3e-3 -0.24017-0.0076-0.35684q-0.12119-2.7297-2.0842-4.695c-1.3948-1.394-3.079-2.0918-5.0518-2.0918-1.9721 0-3.657 0.69777-5.0511 2.0918-1.3948 1.394-2.0925 3.079-2.0925 5.0518 0 1.9721 0.69777 3.657 2.0925 5.0511 1.3054 1.3077 2.8691 2.0024 4.6844 2.085 0.12122 0.0045 0.24244 0.0076 0.36669 0.0076 1.9728 0 3.657-0.69853 5.0518-2.0926 1.394-1.394 2.0918-3.079 2.0918-5.0511z"
     fill="#24b29d"
     stroke-width=".23764"
     id="path4"
     style="fill:#13b1d5" />
  <g
     fill="#f8f8f2"
     id="g14">
    <rect
       transform="rotate(.046859)"
       x="4.5015"
       y="4.4945"
       width="2.6436"
       height="2.6436"
       id="rect6" />
    <rect
       transform="rotate(.046859)"
       x="7.4119"
       y="4.4921"
       width="2.6436"
       height="2.6436"
       id="rect8" />
    <rect
       transform="rotate(.046859)"
       x="4.5061"
       y="7.4023"
       width="2.6436"
       height="2.6436"
       id="rect10" />
    <rect
       transform="rotate(.046859)"
       x="7.4143"
       y="7.4021"
       width="5.2872"
       height="5.2872"
       id="rect12" />
  </g>
</svg>
