<?xml version="1.0" encoding="UTF-8" standalone="no"?>
<svg
   width="64"
   height="64"
   version="1.1"
   id="svg14"
   sodipodi:docname="simplescreenrecorder.svg"
   inkscape:version="1.2.2 (b0a8486541, 2022-12-01)"
   xmlns:inkscape="http://www.inkscape.org/namespaces/inkscape"
   xmlns:sodipodi="http://sodipodi.sourceforge.net/DTD/sodipodi-0.dtd"
   xmlns="http://www.w3.org/2000/svg"
   xmlns:svg="http://www.w3.org/2000/svg">
  <defs
     id="defs18" />
  <sodipodi:namedview
     id="namedview16"
     pagecolor="#505050"
     bordercolor="#eeeeee"
     borderopacity="1"
     inkscape:showpageshadow="0"
     inkscape:pageopacity="0"
     inkscape:pagecheckerboard="0"
     inkscape:deskcolor="#505050"
     showgrid="false"
     inkscape:zoom="15.921875"
     inkscape:cx="29.83317"
     inkscape:cy="32.031403"
     inkscape:window-width="1280"
     inkscape:window-height="1361"
     inkscape:window-x="0"
     inkscape:window-y="0"
     inkscape:window-maximized="0"
     inkscape:current-layer="svg14" />
  <circle
     cx="32"
     cy="32"
     r="27"
     fill="#ad5bdb"
     stroke-width="3.7796"
     style="paint-order:stroke fill markers;fill:#9576c5"
     id="circle2" />
  <g
     transform="translate(-.38983 -.96612)"
     fill-opacity=".49804"
     id="g10">
    <path
       d="m32.39 16.871c-8.8892 0-16.095 7.2061-16.095 16.095s7.2061 16.095 16.095 16.095c8.8892 0 16.095-7.2061 16.095-16.095s-7.2061-16.095-16.095-16.095zm0 1.7798c7.8977 0 14.315 6.4178 14.315 14.315s-6.4178 14.315-14.315 14.315c-7.8977 0-14.315-6.4178-14.315-14.315s6.4178-14.315 14.315-14.315z"
       id="path4" />
    <path
       d="m32.39 21.127c0.47437 0 0.94554 0.04931 1.3928 0.11607-0.45975-0.05431-0.91849-0.11607-1.3928-0.11607zm0 0c-0.47436 0-0.9331 0.06176-1.3929 0.11607 0.44731-0.06676 0.91848-0.11607 1.3929-0.11607zm-1.3929 0.11607c-5.8693 0.69337-10.446 5.6675-10.446 11.723 0 6.5301 5.3092 11.839 11.839 11.839 6.5301 0 11.839-5.3092 11.839-11.839 0-6.0558-4.5771-11.03-10.446-11.723 3.1312 0.4673 5.494 2.4919 5.494 4.9137 0 2.7677-3.0919 4.9911-6.8869 4.9911s-6.8869-2.2233-6.8869-4.9911c0-2.4218 2.3628-4.4464 5.494-4.9137z"
       id="path6" />
    <ellipse
       cx="32.39"
       cy="24.835"
       rx="5.2464"
       ry="3.7085"
       id="ellipse8" />
  </g>
  <path
     d="m48 14c-1.1046 0-2 0.89551-2 2 0 1.1046 0.89543 2 2 2 1.1046 0 2-0.89538 2-2 0-1.1045-0.89543-2-2-2z"
     fill-opacity=".49804"
     id="path12" />
</svg>
