<?xml version="1.0" encoding="UTF-8" standalone="no"?>
<svg
   width="64"
   height="64"
   version="1.1"
   id="svg23"
   sodipodi:docname="skrooge-black.svg"
   inkscape:version="1.2.2 (b0a8486541, 2022-12-01)"
   xmlns:inkscape="http://www.inkscape.org/namespaces/inkscape"
   xmlns:sodipodi="http://sodipodi.sourceforge.net/DTD/sodipodi-0.dtd"
   xmlns="http://www.w3.org/2000/svg"
   xmlns:svg="http://www.w3.org/2000/svg"
   xmlns:rdf="http://www.w3.org/1999/02/22-rdf-syntax-ns#"
   xmlns:cc="http://creativecommons.org/ns#"
   xmlns:dc="http://purl.org/dc/elements/1.1/">
  <sodipodi:namedview
     id="namedview25"
     pagecolor="#505050"
     bordercolor="#eeeeee"
     borderopacity="1"
     inkscape:showpageshadow="0"
     inkscape:pageopacity="0"
     inkscape:pagecheckerboard="0"
     inkscape:deskcolor="#505050"
     showgrid="false"
     inkscape:zoom="15.921875"
     inkscape:cx="29.895976"
     inkscape:cy="32.031403"
     inkscape:window-width="2560"
     inkscape:window-height="1361"
     inkscape:window-x="0"
     inkscape:window-y="0"
     inkscape:window-maximized="1"
     inkscape:current-layer="svg23" />
  <metadata
     id="metadata2">
    <rdf:RDF>
      <cc:Work
         rdf:about="">
        <dc:format>image/svg+xml</dc:format>
        <dc:type
           rdf:resource="http://purl.org/dc/dcmitype/StillImage" />
        <dc:title />
      </cc:Work>
    </rdf:RDF>
  </metadata>
  <defs
     id="defs9">
    <linearGradient
       id="e"
       x1="428.57"
       x2="388.57"
       y1="543.8"
       y2="503.8"
       gradientUnits="userSpaceOnUse">
      <stop
         stop-color="#2a2c2f"
         offset="0"
         id="stop4"
         style="stop-color:#282a36;stop-opacity:1;" />
      <stop
         stop-color="#424649"
         offset="1"
         id="stop6"
         style="stop-color:#44475a;stop-opacity:1;" />
    </linearGradient>
  </defs>
  <g
     transform="matrix(1.35 0 0 1.35 -519.57 -675.13)"
     id="g21">
    <g
       stroke-linejoin="round"
       stroke-width=".5"
       id="g13">
      <circle
         cx="408.57"
         cy="523.8"
         r="20"
         fill="#313336"
         id="circle11"
         style="fill:#44475a" />
    </g>
    <g
       fill-rule="evenodd"
       id="g17">
      <path
         d="m407.6 534.24-7.625-11.06-0.406-5.25 5.344-0.625 3.75-5.03 4.188 5.656 4.844 0.656-2.281 7.906-6.094 7.719z"
         fill="url(#e)"
         id="path15" />
    </g>
    <path
       transform="translate(384.57,499.8)"
       d="m24 6a18 18 0 0 0-18 18 18 18 0 0 0 18 18 18 18 0 0 0 18-18 18 18 0 0 0-18-18m0 2a16 16 0 0 1 15.705 13h-3.7051c-0.554 0-1 0.446-1 1s0.446 1 1 1h3.963a16 16 0 0 1 0.037 1 16 16 0 0 1-0.050781 1h-3.9492c-0.554 0-1 0.446-1 1s0.446 1 1 1h3.709a16 16 0 0 1-15.709 13 16 16 0 0 1-15.705-13h3.7051c0.554 0 1-0.446 1-1s-0.446-1-1-1h-3.96a16 16 0 0 1-0.04-1 16 16 0 0 1 0.05078-1h3.9492c0.554 0 1-0.446 1-1s-0.446-1-1-1h-3.709a16 16 0 0 1 15.709-13m0 4c-0.667 0-1.291 0.188-1.77 0.537-0.47 0.349-0.772 0.811-1 1.266-0.454 0.909-0.684 1.869-1.12 2.75-0.165 0.321-0.217 0.317-0.325 0.349-0.108 0.033-0.371 0.04-0.765-0.017-0.8-0.114-2.109-0.458-3.467 0.225-0.769 0.38-1.274 1.107-1.483 1.872-0.216 0.765-0.198 1.584-0.06 2.432 0.286 1.696 1.09 3.534 2.16 5.141 0.96 1.436 2.214 3.695 3.498 5.625 0.642 0.96 1.288 1.84 1.959 2.533 0.671 0.689 1.373 1.287 2.373 1.287s1.7-0.598 2.371-1.287c0.669-0.693 1.319-1.573 1.961-2.533 1.284-1.93 2.543-4.189 3.5-5.625 1.071-1.607 1.872-3.445 2.154-5.141 0.144-0.848 0.154-1.667-0.054-2.432-0.213-0.765-0.712-1.492-1.485-1.872-1.357-0.683-2.669-0.339-3.465-0.225-0.397 0.057-0.661 0.05-0.772 0.017-0.1-0.032-0.15-0.028-0.315-0.349-0.441-0.881-0.675-1.841-1.125-2.75-0.228-0.455-0.53-0.917-1.006-1.266-0.474-0.349-1.097-0.537-1.764-0.537m0 10c0.554 0 1 0.446 1 1v6c0 0.554-0.446 1-1 1s-1-0.446-1-1v-6c0-0.554 0.446-1 1-1"
       fill="#d4d5d6"
       stroke-linejoin="round"
       stroke-width=".5"
       id="path19"
       style="fill:#cbcccc" />
  </g>
</svg>
