<?xml version="1.0" encoding="UTF-8" standalone="no"?>
<svg
   width="64"
   height="64"
   version="1.1"
   id="svg38"
   sodipodi:docname="smtube.svg"
   inkscape:version="1.2.2 (b0a8486541, 2022-12-01)"
   xmlns:inkscape="http://www.inkscape.org/namespaces/inkscape"
   xmlns:sodipodi="http://sodipodi.sourceforge.net/DTD/sodipodi-0.dtd"
   xmlns="http://www.w3.org/2000/svg"
   xmlns:svg="http://www.w3.org/2000/svg">
  <defs
     id="defs42" />
  <sodipodi:namedview
     id="namedview40"
     pagecolor="#505050"
     bordercolor="#eeeeee"
     borderopacity="1"
     inkscape:showpageshadow="0"
     inkscape:pageopacity="0"
     inkscape:pagecheckerboard="0"
     inkscape:deskcolor="#505050"
     showgrid="false"
     inkscape:zoom="15.921875"
     inkscape:cx="27.76055"
     inkscape:cy="32.031403"
     inkscape:window-width="1280"
     inkscape:window-height="1361"
     inkscape:window-x="0"
     inkscape:window-y="0"
     inkscape:window-maximized="0"
     inkscape:current-layer="svg38" />
  <g
     transform="translate(3.0138 -3)"
     id="g36">
    <rect
       x="1.9862"
       y="8"
       width="54"
       height="54"
       ry="27"
       fill="#282a36"
       stroke-width=".90002"
       id="rect2"
       style="fill:#44475a" />
    <g
       transform="matrix(1.3499 0 0 1.35 -522.55 -672.13)"
       fill="#f8f8f2"
       opacity=".5"
       stroke-width=".66668"
       id="g16">
      <rect
         x="392.57"
         y="512.8"
         width="3"
         height="2"
         opacity="1"
         id="rect4" />
      <rect
         x="392.57"
         y="516.8"
         width="3"
         height="2"
         opacity="1"
         id="rect6" />
      <rect
         x="392.57"
         y="520.8"
         width="3"
         height="2"
         opacity="1"
         id="rect8" />
      <rect
         x="392.57"
         y="524.8"
         width="3"
         height="2"
         opacity="1"
         id="rect10" />
      <rect
         x="392.57"
         y="528.8"
         width="3"
         height="2"
         opacity="1"
         id="rect12" />
      <rect
         x="392.57"
         y="532.8"
         width="3"
         height="2"
         opacity="1"
         id="rect14" />
    </g>
    <g
       transform="matrix(1.3499 0 0 1.35 -483.4 -672.13)"
       fill="#f8f8f2"
       opacity=".5"
       stroke-width=".66668"
       id="g30">
      <rect
         x="392.57"
         y="512.8"
         width="3"
         height="2"
         opacity="1"
         id="rect18" />
      <rect
         x="392.57"
         y="516.8"
         width="3"
         height="2"
         opacity="1"
         id="rect20" />
      <rect
         x="392.57"
         y="520.8"
         width="3"
         height="2"
         opacity="1"
         id="rect22" />
      <rect
         x="392.57"
         y="524.8"
         width="3"
         height="2"
         opacity="1"
         id="rect24" />
      <rect
         x="392.57"
         y="528.8"
         width="3"
         height="2"
         opacity="1"
         id="rect26" />
      <rect
         x="392.57"
         y="532.8"
         width="3"
         height="2"
         opacity="1"
         id="rect28" />
    </g>
    <rect
       x="15.485"
       y="24.2"
       width="26.998"
       height="21.6"
       rx="4.0848"
       ry="3.5492"
       fill="#c7484a"
       stroke-width=".89999"
       id="rect32"
       style="fill:#c7484a" />
    <path
       d="m25.124 28.25c-0.84635-0.01688-1.5417 0.66427-1.5424 1.5108v10.476c-0.0011 1.163 1.2561 1.8919 2.2647 1.3131l9.1251-5.2392c1.0129-0.58115 1.0129-2.0424 0-2.6236l-9.1251-5.2365c-0.22017-0.12636-0.46861-0.19529-0.72242-0.20039z"
       color="#282a36"
       color-rendering="auto"
       fill="#f8f8f2"
       image-rendering="auto"
       shape-rendering="auto"
       solid-color="#282a36"
       stroke-width=".89999"
       style="isolation:auto;mix-blend-mode:normal;text-decoration-color:#282a36;text-decoration-line:none;text-decoration-style:solid;text-indent:0;text-transform:none;white-space:normal"
       id="path34" />
  </g>
</svg>
