<?xml version="1.0" encoding="UTF-8" standalone="no"?>
<svg
   width="64"
   height="64"
   viewBox="0 0 16.934 16.934"
   version="1.1"
   id="svg10"
   sodipodi:docname="splitgate.svg"
   inkscape:version="1.2.2 (b0a8486541, 2022-12-01)"
   xmlns:inkscape="http://www.inkscape.org/namespaces/inkscape"
   xmlns:sodipodi="http://sodipodi.sourceforge.net/DTD/sodipodi-0.dtd"
   xmlns="http://www.w3.org/2000/svg"
   xmlns:svg="http://www.w3.org/2000/svg">
  <defs
     id="defs14" />
  <sodipodi:namedview
     id="namedview12"
     pagecolor="#505050"
     bordercolor="#eeeeee"
     borderopacity="1"
     inkscape:showpageshadow="0"
     inkscape:pageopacity="0"
     inkscape:pagecheckerboard="0"
     inkscape:deskcolor="#505050"
     showgrid="false"
     inkscape:zoom="15.921875"
     inkscape:cx="29.895976"
     inkscape:cy="32.031403"
     inkscape:window-width="2560"
     inkscape:window-height="1361"
     inkscape:window-x="0"
     inkscape:window-y="0"
     inkscape:window-maximized="1"
     inkscape:current-layer="svg10" />
  <circle
     cx="8.467"
     cy="8.467"
     r="7.144"
     fill="#282a36"
     style="paint-order:markers stroke fill;fill:#44475a"
     id="circle2" />
  <path
     d="M4.938 9.315c-.555-.84-1.028-2.905.504-3.02 1.996-.149 4.054-.008 6.056-.008 1.053 0 2.076.008 2.27-1.262h-6.14c-.978 0-2.171-.18-3.11.133-1.285.429-1.738 2.132-.994 3.225.333.49.876.735 1.414.932"
     style="fill:#ff5555;stroke:none;stroke-width:0.0841041;fill-opacity:1"
     id="path4" />
  <path
     d="M11.996 7.62c.555.84 1.028 2.904-.504 3.019-1.996.149-4.054.008-6.056.008-1.053 0-2.076-.008-2.27 1.262h6.14c.978 0 2.171.18 3.11-.133 1.285-.43 1.738-2.132.994-3.225-.333-.49-.876-.735-1.414-.932"
     style="fill:#8be9fd;stroke:none;stroke-width:0.0222534;fill-opacity:1"
     id="path6" />
  <path
     d="M6.448 8.451v.084l1.094.163.925.317.925-.315 1.094-.165-1.094-.281-.925-.335-.925.341Z"
     style="fill:#f8f8f2;stroke:none;stroke-width:.0222534"
     id="path8" />
</svg>
