<svg width="64" height="64" viewBox="0 0 64 64" fill="none" xmlns="http://www.w3.org/2000/svg">
<path d="M31.995 58.66C46.7217 58.66 58.66 46.7217 58.66 31.995C58.66 17.2683 46.7217 5.33 31.995 5.33C17.2683 5.33 5.33 17.2683 5.33 31.995C5.33 46.7217 17.2683 58.66 31.995 58.66Z" fill="white"/>
<path d="M32 5.33331C35.5019 5.33331 38.9695 6.02307 42.2049 7.36319C45.4402 8.70332 48.3799 10.6676 50.8562 13.1438C53.3324 15.62 55.2966 18.5597 56.6368 21.7951C57.9769 25.0304 58.6666 28.4981 58.6666 32C58.6666 39.0724 55.8571 45.8552 50.8562 50.8562C45.8552 55.8571 39.0724 58.6666 32 58.6666C19.7333 58.6666 9.46665 50.4533 6.29331 39.28L16.5066 43.4933C17.2 46.9333 20.2666 49.5466 23.92 49.5466C28.08 49.5466 31.4666 46.16 31.4666 42V41.6533L40.5333 35.1733H40.7466C46.2933 35.1733 50.8 30.6666 50.8 25.12C50.8 19.5733 46.2933 15.0666 40.7466 15.0666C35.2 15.0666 30.6666 19.5733 30.6666 25.12V25.2533L24.3466 34.48L23.92 34.4533C22.3466 34.4533 20.88 34.9333 19.68 35.76L5.33331 29.8666C6.47998 16.1333 17.9466 5.33331 32 5.33331ZM22.08 45.7866C24.2133 46.6666 26.6666 45.68 27.5466 43.5466C28.4266 41.4133 27.4133 38.9866 25.3333 38.1066L21.92 36.6933C23.2266 36.2133 24.6933 36.1866 26.08 36.7733C27.4933 37.3333 28.5866 38.4266 29.1466 39.84C29.7333 41.2266 29.7333 42.7733 29.1466 44.16C28 47.04 24.6133 48.4266 21.7333 47.2266C20.4 46.6666 19.3866 45.6533 18.8266 44.4533L22.08 45.7866ZM47.4666 25.12C47.4666 28.8266 44.4533 31.84 40.7466 31.84C37.0666 31.84 34.0533 28.8266 34.0533 25.12C34.0498 24.24 34.2205 23.3681 34.5556 22.5544C34.8908 21.7407 35.3836 21.0015 36.0059 20.3792C36.6281 19.757 37.3674 19.2641 38.1811 18.929C38.9947 18.5938 39.8667 18.4231 40.7466 18.4266C44.4533 18.4266 47.4666 21.44 47.4666 25.12ZM35.7333 25.12C35.7333 27.8933 37.9733 30.16 40.7733 30.16C43.5466 30.16 45.7866 27.8933 45.7866 25.12C45.7866 22.3466 43.5466 20.08 40.7733 20.08C37.9733 20.08 35.7333 22.3466 35.7333 25.12Z" fill="#363949"/>
</svg>
