<?xml version="1.0" encoding="UTF-8" standalone="no"?>
<svg
   xml:space="preserve"
   id="Camada_1"
   width="64"
   height="64"
   x="0"
   y="0"
   style="enable-background:new 0 0 32 32"
   version="1.1"
   viewBox="0 0 32 32"
   sodipodi:docname="steam.svg"
   inkscape:version="1.3.2 (091e20ef0f, 2023-11-25, custom)"
   xmlns:inkscape="http://www.inkscape.org/namespaces/inkscape"
   xmlns:sodipodi="http://sodipodi.sourceforge.net/DTD/sodipodi-0.dtd"
   xmlns="http://www.w3.org/2000/svg"
   xmlns:svg="http://www.w3.org/2000/svg"><defs
     id="defs6" /><sodipodi:namedview
     id="namedview6"
     pagecolor="#505050"
     bordercolor="#ffffff"
     borderopacity="1"
     inkscape:showpageshadow="0"
     inkscape:pageopacity="0"
     inkscape:pagecheckerboard="1"
     inkscape:deskcolor="#505050"
     inkscape:zoom="12.453125"
     inkscape:cx="32"
     inkscape:cy="32"
     inkscape:window-width="1920"
     inkscape:window-height="1013"
     inkscape:window-x="0"
     inkscape:window-y="0"
     inkscape:window-maximized="1"
     inkscape:current-layer="Camada_1" /><style
     id="style1">.st2{fill:none}.st3{fill:#fff}</style><path
     d="M16 2.5c7.5 0 13.5 6 13.5 13.5s-6 13.5-13.5 13.5S2.5 23.5 2.5 16 8.5 2.5 16 2.5z"
     style="fill:#3c4663;fill-opacity:1"
     id="path1" /><path
     style="fill:#f8f8f2;stroke-width:0.5"
     d="m 20.428122,7.3810775 a 5.5,5.5 0 0 0 -5.5,5.4999995 5.5,5.5 0 0 0 0.0059,0.123047 l -2.628906,4.381836 a 4.25,4.25 0 0 0 -0.126994,-0.0049 4.25,4.25 0 0 0 -2.8310544,1.085937 L 2.4515591,15.42014 a 14,14 0 0 0 -0.023437,0.460937 14,14 0 0 0 0.46875,3.561523 l 5.033203,2.22461 a 4.25,4.25 0 0 0 4.2480474,4.213867 4.25,4.25 0 0 0 4.25,-4.25 4.25,4.25 0 0 0 -0.0166,-0.325196 l 4.703125,-2.972656 a 5.5,5.5 0 0 0 4.813475,-5.452148 5.5,5.5 0 0 0 -5.5,-5.4999995 z m 0,2 a 3.5,3.5 0 0 1 3.5,3.4999995 3.5,3.5 0 0 1 -3.5,3.5 3.5,3.5 0 0 1 -3.5,-3.5 3.5,3.5 0 0 1 3.5,-3.4999995 z m 0,0.9999995 a 2.5,2.5 0 0 0 -2.5,2.5 2.5,2.5 0 0 0 2.5,2.5 2.5,2.5 0 0 0 2.5,-2.5 2.5,2.5 0 0 0 -2.5,-2.5 z m -8.25,8.5 a 2.75,2.75 0 0 1 2.75,2.75 2.75,2.75 0 0 1 -2.75,2.75 2.75,2.75 0 0 1 -2.6464844,-2.006836 l 1.9394534,0.857422 a 1.750175,1.750175 0 1 0 1.414062,-3.201172 L 10.9457,19.173069 a 2.75,2.75 0 0 1 1.232422,-0.291992 z"
     id="path2" /></svg>
