<?xml version="1.0" encoding="UTF-8" standalone="no"?>
<svg
   width="64"
   height="64"
   version="1.1"
   viewBox="0 0 64 64"
   id="svg34"
   sodipodi:docname="strawberry.svg"
   inkscape:version="1.2.2 (b0a8486541, 2022-12-01)"
   xmlns:inkscape="http://www.inkscape.org/namespaces/inkscape"
   xmlns:sodipodi="http://sodipodi.sourceforge.net/DTD/sodipodi-0.dtd"
   xmlns="http://www.w3.org/2000/svg"
   xmlns:svg="http://www.w3.org/2000/svg">
  <defs
     id="defs38" />
  <sodipodi:namedview
     id="namedview36"
     pagecolor="#505050"
     bordercolor="#eeeeee"
     borderopacity="1"
     inkscape:showpageshadow="0"
     inkscape:pageopacity="0"
     inkscape:pagecheckerboard="0"
     inkscape:deskcolor="#505050"
     showgrid="false"
     inkscape:zoom="15.921875"
     inkscape:cx="29.895976"
     inkscape:cy="32.031403"
     inkscape:window-width="2560"
     inkscape:window-height="1361"
     inkscape:window-x="0"
     inkscape:window-y="0"
     inkscape:window-maximized="1"
     inkscape:current-layer="svg34" />
  <g
     transform="matrix(1.1739 0 0 1.1739 3.8261 3.8261)"
     id="g32">
    <circle
       cx="24"
       cy="24"
       r="23"
       fill="#f8f8f2"
       id="circle2" />
    <path
       d="m18 14c-3.324 0-6 2-6 7 0 6 6 17 12 17s12-11 12-17c0-5-2.676-7-6-7z"
       fill="#ff5555"
       id="path4" />
    <path
       d="m24 9s-2 1-2 4c-1-2-3.0408-2-5-2 0 2 1 3 3 4-2 1-3 2-3 4 1.9592 0 4 0 5-2 0 3 2 4 2 4s2-1 2-4c1 2 3.0408 2 5 2 0-2-1-3-3-4 2-1 3-2 3-4-1.9592 0-4 0-5 2 0-3-2-4-2-4z"
       fill="#50fa7b"
       style="paint-order:normal;fill:#44c367"
       id="path6" />
    <circle
       cx="24"
       cy="34"
       r="1"
       fill="#cbcccc"
       style="paint-order:normal"
       id="circle8" />
    <circle
       cx="20"
       cy="30"
       r="1"
       fill="#cbcccc"
       style="paint-order:normal"
       id="circle10" />
    <circle
       cx="28"
       cy="30"
       r="1"
       fill="#cbcccc"
       style="paint-order:normal"
       id="circle12" />
    <circle
       cx="24"
       cy="28"
       r="1"
       fill="#cbcccc"
       style="paint-order:normal"
       id="circle14" />
    <circle
       cx="30"
       cy="26"
       r="1"
       fill="#cbcccc"
       style="paint-order:normal"
       id="circle16" />
    <circle
       cx="18"
       cy="26"
       r="1"
       fill="#cbcccc"
       style="paint-order:normal"
       id="circle18" />
    <circle
       cx="16"
       cy="22"
       r="1"
       fill="#cbcccc"
       style="paint-order:normal"
       id="circle20" />
    <circle
       cx="32"
       cy="22"
       r="1"
       fill="#cbcccc"
       style="paint-order:normal"
       id="circle22" />
    <circle
       cx="21"
       cy="23"
       r="1"
       fill="#cbcccc"
       style="paint-order:normal"
       id="circle24" />
    <circle
       cx="27"
       cy="23"
       r="1"
       fill="#cbcccc"
       style="paint-order:normal"
       id="circle26" />
    <circle
       cx="24"
       cy="15"
       r="2"
       fill="#44c367"
       style="paint-order:normal;fill:#282a36;opacity:0.5"
       id="circle28" />
    <circle
       cx="24"
       cy="15"
       r="1"
       fill="#7afa99"
       style="paint-order:normal"
       id="circle30" />
  </g>
</svg>
