<?xml version="1.0" encoding="UTF-8" standalone="no"?>
<svg
   width="64"
   height="64"
   viewBox="0 0 64 64"
   fill="none"
   version="1.1"
   id="svg75820"
   sodipodi:docname="sublime-text.svg"
   inkscape:version="1.2.2 (b0a8486541, 2022-12-01)"
   xmlns:inkscape="http://www.inkscape.org/namespaces/inkscape"
   xmlns:sodipodi="http://sodipodi.sourceforge.net/DTD/sodipodi-0.dtd"
   xmlns="http://www.w3.org/2000/svg"
   xmlns:svg="http://www.w3.org/2000/svg">
  <sodipodi:namedview
     id="namedview75822"
     pagecolor="#505050"
     bordercolor="#eeeeee"
     borderopacity="1"
     inkscape:showpageshadow="0"
     inkscape:pageopacity="0"
     inkscape:pagecheckerboard="0"
     inkscape:deskcolor="#505050"
     showgrid="false"
     inkscape:zoom="15.921875"
     inkscape:cx="29.83317"
     inkscape:cy="32.031403"
     inkscape:window-width="1280"
     inkscape:window-height="1361"
     inkscape:window-x="0"
     inkscape:window-y="0"
     inkscape:window-maximized="0"
     inkscape:current-layer="svg75820" />
  <path
     opacity="0.99"
     d="M59 32C59 46.9117 46.9117 59 32 59C17.0883 59 5 46.9117 5 32C5 17.0883 17.0883 5 32 5C46.9117 5 59 17.0883 59 32Z"
     fill="#4D4D4E"
     stroke="url(#paint0_linear)"
     stroke-width="2"
     id="path75798"
     style="fill:#44475a" />
  <path
     d="M21.6057 24.5205L41.5134 18.1999C41.5134 18.1999 42.9269 17.4588 42.5863 18.8303L42.6374 24.9208C42.6374 24.9208 42.8843 25.8152 41.6582 26.0367L33.5691 28.5666L21.6057 24.5205Z"
     fill="#F89820"
     id="path75800"
     style="fill:#c7925b" />
  <path
     d="M21.6058 24.5204C21.6058 24.5204 20.8225 24.7078 21.0524 26.0452L21.0098 31.9142C21.0098 31.9142 20.9417 32.6553 22.3466 32.9534L42.0755 39.308C42.0755 39.308 42.7396 39.5721 42.663 38.7543L42.6715 32.2123C42.6715 32.2123 42.8588 31.5394 41.6327 31.0965L33.5692 28.5666L21.6058 24.5204Z"
     fill="#F89820"
     id="path75802"
     style="fill:#c7925b" />
  <path
     d="M30.2994 35.509L21.9038 38.0729C21.9038 38.0729 20.8905 38.107 21.0097 40.0066C21.129 41.9061 21.0012 45.7308 21.0012 45.7308C21.0012 45.7308 21.0864 46.4378 22.0571 46.029L41.9647 39.6744C41.9647 39.6744 42.6714 39.4955 42.0754 39.2996C41.4794 39.1122 30.2994 35.509 30.2994 35.509Z"
     fill="url(#paint1_linear)"
     id="path75804" />
  <defs
     id="defs75818">
    <linearGradient
       id="paint0_linear"
       x1="32"
       y1="4"
       x2="32"
       y2="60"
       gradientUnits="userSpaceOnUse">
      <stop
         stop-color="#F89820"
         id="stop75806"
         offset="0"
         style="stop-color:#c7925b;stop-opacity:1;" />
      <stop
         offset="0.484375"
         stop-color="#FFBF6F"
         id="stop75808"
         style="stop-color:#ffb86c;stop-opacity:1;" />
      <stop
         offset="1"
         stop-color="#FFC276"
         id="stop75810" />
    </linearGradient>
    <linearGradient
       id="paint1_linear"
       x1="22.1659"
       y1="42.2501"
       x2="42.3054"
       y2="35.2848"
       gradientUnits="userSpaceOnUse">
      <stop
         offset="0.233"
         stop-color="#F89822"
         id="stop75813"
         style="stop-color:#ffb86c;stop-opacity:1;" />
      <stop
         offset="1"
         stop-color="#C27818"
         id="stop75815"
         style="stop-color:#c7925b;stop-opacity:1;" />
    </linearGradient>
  </defs>
</svg>
