<svg width="64" height="64" viewBox="0 0 64 64" fill="none" xmlns="http://www.w3.org/2000/svg">
<path opacity="0.99" d="M63 32C63 49.1208 49.1208 63 32 63C14.8792 63 1 49.1208 1 32C1 14.8792 14.8792 1 32 1C49.1208 1 63 14.8792 63 32Z" fill="#4D4D4E" stroke="url(#paint0_linear)" stroke-width="2"/>
<path d="M19.7315 22.8738L43.771 15.2414C43.771 15.2414 45.4778 14.3465 45.0665 16.0026L45.1282 23.3572C45.1282 23.3572 45.4264 24.4373 43.9458 24.7047L34.1778 27.7597L19.7315 22.8738Z" fill="#F89820"/>
<path d="M19.7315 22.8737C19.7315 22.8737 18.7856 23.1 19.0632 24.7149L19.0118 31.8021C19.0118 31.8021 18.9295 32.697 20.6261 33.057L44.4496 40.7304C44.4496 40.7304 45.2516 41.0493 45.159 40.0618L45.1693 32.1621C45.1693 32.1621 45.3955 31.3495 43.9149 30.8146L34.1778 27.7596L19.7315 22.8737Z" fill="#F89820"/>
<path d="M30.2295 36.1429L20.0914 39.239C20.0914 39.239 18.8678 39.2802 19.0118 41.574C19.1557 43.8678 19.0015 48.4863 19.0015 48.4863C19.0015 48.4863 19.1043 49.34 20.2765 48.8463L44.3159 41.1728C44.3159 41.1728 45.1693 40.9568 44.4495 40.7202C43.7298 40.4939 30.2295 36.1429 30.2295 36.1429V36.1429Z" fill="url(#paint1_linear)"/>
<defs>
<linearGradient id="paint0_linear" x1="32" y1="0" x2="32" y2="64" gradientUnits="userSpaceOnUse">
<stop stop-color="#F89820"/>
<stop offset="0.484375" stop-color="#FFBF6F"/>
<stop offset="1" stop-color="#FFC276"/>
</linearGradient>
<linearGradient id="paint1_linear" x1="20.4079" y1="44.2832" x2="44.7273" y2="35.8722" gradientUnits="userSpaceOnUse">
<stop offset="0.233" stop-color="#F89822"/>
<stop offset="1" stop-color="#C27818"/>
</linearGradient>
</defs>
</svg>
