<?xml version="1.0" encoding="UTF-8" standalone="no"?>
<svg
   xml:space="preserve"
   width="64"
   height="64"
   version="1.1"
   id="svg26"
   sodipodi:docname="sublime-text.svg"
   inkscape:version="1.3.2 (091e20ef0f, 2023-11-25, custom)"
   xmlns:inkscape="http://www.inkscape.org/namespaces/inkscape"
   xmlns:sodipodi="http://sodipodi.sourceforge.net/DTD/sodipodi-0.dtd"
   xmlns="http://www.w3.org/2000/svg"
   xmlns:svg="http://www.w3.org/2000/svg"><defs
     id="defs26" /><sodipodi:namedview
     id="namedview26"
     pagecolor="#505050"
     bordercolor="#ffffff"
     borderopacity="1"
     inkscape:showpageshadow="0"
     inkscape:pageopacity="0"
     inkscape:pagecheckerboard="1"
     inkscape:deskcolor="#505050"
     inkscape:zoom="12.453125"
     inkscape:cx="32"
     inkscape:cy="32"
     inkscape:window-width="1920"
     inkscape:window-height="1013"
     inkscape:window-x="0"
     inkscape:window-y="0"
     inkscape:window-maximized="1"
     inkscape:current-layer="svg26" /><rect
     width="52"
     height="52"
     x="6"
     y="6"
     fill="#282a36"
     rx="8"
     ry="8"
     id="rect1" /><g
     opacity=".5"
     id="g23"><path
       fill="#869eb6"
       d="M23.545 19.238h5.96v2.546h-5.96z"
       display="block"
       overflow="visible"
       style="isolation:auto;mix-blend-mode:normal;fill:#9ea0a6"
       transform="translate(-5.282 -3.756) scale(1.1195)"
       id="path1" /><path
       fill="#8e9f81"
       d="M30.458 19.356h3.467v2.311h-3.467z"
       display="block"
       overflow="visible"
       style="isolation:auto;mix-blend-mode:normal"
       transform="translate(-5.282 -3.756) scale(1.1195)"
       id="path2" /><path
       fill="#9e9e86"
       d="M23.545 23.454h5.96V26h-5.96z"
       display="block"
       overflow="visible"
       style="isolation:auto;mix-blend-mode:normal"
       transform="translate(-5.282 -3.756) scale(1.1195)"
       id="path3" /><path
       fill="#86b1d6"
       fill-opacity=".357"
       d="M30.334 23.454h3.394V26h-3.394z"
       display="block"
       overflow="visible"
       style="isolation:auto;mix-blend-mode:normal"
       transform="translate(-5.282 -3.756) scale(1.1195)"
       id="path4" /><path
       fill="#71738085e"
       fill-opacity=".495"
       d="M34.577 23.454h3.395V26h-3.395z"
       display="block"
       overflow="visible"
       style="isolation:auto;mix-blend-mode:normal"
       transform="translate(-5.282 -3.756) scale(1.1195)"
       id="path5" /><path
       fill="#987f95"
       d="M23.545 27.697h5.96v2.546h-5.96z"
       display="block"
       overflow="visible"
       style="isolation:auto;mix-blend-mode:normal"
       transform="translate(-5.282 -3.756) scale(1.1195)"
       id="path6" /><path
       fill="#9d875f"
       fill-opacity=".687"
       d="M30.334 27.697h4.243v2.546h-4.243z"
       display="block"
       overflow="visible"
       style="isolation:auto;mix-blend-mode:normal"
       transform="translate(-5.282 -3.756) scale(1.1195)"
       id="path7" /><path
       fill="#987f95"
       fill-opacity=".676"
       d="M23.545 36.183h5.94v2.546h-5.94z"
       display="block"
       overflow="visible"
       style="isolation:auto;mix-blend-mode:normal;fill:#9576c5"
       transform="translate(-5.282 -3.756) scale(1.1195)"
       id="path8" /><path
       fill="#68798d"
       fill-opacity=".764"
       d="M30.334 36.183h5.78v2.546h-5.78z"
       display="block"
       overflow="visible"
       style="isolation:auto;mix-blend-mode:normal"
       transform="translate(-5.282 -3.756) scale(1.1195)"
       id="path9" /><path
       fill="#606d78"
       d="M37.123 36.183h5.94v2.546h-5.94z"
       display="block"
       overflow="visible"
       style="isolation:auto;mix-blend-mode:normal"
       transform="translate(-5.282 -3.756) scale(1.1195)"
       id="path10" /><path
       fill="#8f6094"
       d="M43.912 36.183h4.243v2.546h-4.243z"
       display="block"
       overflow="visible"
       style="isolation:auto;mix-blend-mode:normal;fill:#c7639f"
       transform="translate(-5.282 -3.756) scale(1.1195)"
       id="path11" /><path
       fill="#b36b75"
       d="M23.545 40.427h5.96v2.545h-5.96z"
       display="block"
       overflow="visible"
       style="isolation:auto;mix-blend-mode:normal"
       transform="translate(-5.282 -3.756) scale(1.1195)"
       id="path12" /><path
       fill="#b47f70"
       d="M30.334 40.427h3.394v2.26h-3.394z"
       display="block"
       overflow="visible"
       style="isolation:auto;mix-blend-mode:normal;fill:#c7925b"
       transform="translate(-5.282 -3.756) scale(1.1195)"
       id="path13" /><path
       fill="#53c290"
       d="M23.545 46.367h6.789v2.546h-6.789z"
       display="block"
       overflow="visible"
       style="isolation:auto;mix-blend-mode:normal;fill:#50fa7b"
       transform="translate(-5.282 -3.756) scale(1.1195)"
       id="path14" /><path
       fill="#e675d2"
       d="M31.183 46.367h4.243v2.546h-4.243z"
       display="block"
       overflow="visible"
       style="isolation:auto;mix-blend-mode:normal;fill:#ff79c6"
       transform="translate(-5.282 -3.756) scale(1.1195)"
       id="path15" /><path
       fill="#5e6974"
       d="M34.577 40.427h3.395v2.545h-3.395z"
       display="block"
       overflow="visible"
       style="isolation:auto;mix-blend-mode:normal;fill:#6272a4"
       transform="translate(-5.282 -3.756) scale(1.1195)"
       id="path16" /><path
       fill="#4d854d"
       d="M38.821 40.544h5.2v2.31h-5.2z"
       display="block"
       overflow="visible"
       style="isolation:auto;mix-blend-mode:normal;fill:#44c367"
       transform="translate(-5.282 -3.756) scale(1.1195)"
       id="path17" /><path
       fill="#b36b75"
       d="M34.578 19.356h5.779v2.311h-5.78z"
       display="block"
       overflow="visible"
       style="isolation:auto;mix-blend-mode:normal;fill:#c7639f"
       transform="translate(-5.282 -3.756) scale(1.1195)"
       id="path18" /><path
       fill="#8f6094"
       d="M40.085 19.5h5.778v2.311h-5.78z"
       display="block"
       overflow="visible"
       style="isolation:auto;mix-blend-mode:normal;fill:#c7639f"
       transform="translate(-5.282 -3.756) scale(1.1195)"
       id="path19" /><path
       fill="#575f70"
       d="M18.453 19.211H21v2.546h-2.546zm0 4.243H21V26h-2.546zm0 4.243H21v2.546h-2.546zm0 4.243H21v2.546h-2.546zm0 4.243H21v2.546h-2.546zm0 4.244H21v2.545h-2.546zm0 5.94H21v2.546h-2.546z"
       display="block"
       overflow="visible"
       style="isolation:auto;mix-blend-mode:normal"
       transform="translate(-5.282 -3.756) scale(1.1195)"
       id="path20" /><path
       fill="#9176e2"
       d="M23.545 14.968h5.94v2.546h-5.94z"
       display="block"
       overflow="visible"
       style="isolation:auto;mix-blend-mode:normal;fill:#bd93f9"
       transform="translate(-5.282 -3.756) scale(1.1195)"
       id="path21" /><path
       fill="#57bdff"
       fill-opacity=".824"
       d="M30.334 14.968h3.394v2.546h-3.394z"
       display="block"
       overflow="visible"
       style="isolation:auto;mix-blend-mode:normal;fill:#8be9fd"
       transform="translate(-5.282 -3.756) scale(1.1195)"
       id="path22" /><path
       fill="#575f70"
       d="M18.453 14.968H21v2.546h-2.546z"
       display="block"
       overflow="visible"
       style="isolation:auto;mix-blend-mode:normal"
       transform="translate(-5.282 -3.756) scale(1.1195)"
       id="path23" /></g><path
     fill="#d17500"
     d="M43.417 31.55c0-.366-.27-.577-.601-.473l-22.794 7.235c-.332.105-.602.488-.602.853v7.393c0 .366.27.577.602.472l22.794-7.234c.331-.105.601-.487.601-.853z"
     id="path24" /><path
     fill="#e58500"
     d="M19.42 31.313c0 .365.27.748.602.853l22.798 7.235c.332.106.601-.106.601-.47v-7.395c0-.365-.27-.748-.601-.853l-22.798-7.235c-.332-.105-.601.105-.601.471z"
     id="path25" /><path
     fill="#ff9c0a"
     d="M43.417 16.356c0-.366-.27-.577-.601-.472l-22.794 7.234c-.332.105-.602.488-.602.853v7.394c0 .366.27.577.602.472l22.794-7.235c.331-.105.601-.487.601-.852z"
     id="path26" /></svg>
