<svg width="64" height="64" viewBox="0 0 64 64" fill="none" xmlns="http://www.w3.org/2000/svg">
<path opacity="0.99" d="M63 32C63 49.1208 49.1208 63 32 63C14.8792 63 1 49.1208 1 32C1 14.8792 14.8792 1 32 1C49.1208 1 63 14.8792 63 32Z" fill="#4D4D4E" stroke="url(#paint0_linear)" stroke-width="2"/>
<path d="M15.9573 20.3038L47.416 10.3159C47.416 10.3159 49.6496 9.14485 49.1114 11.312L49.1921 20.9365C49.1921 20.9365 49.5823 22.3499 47.6448 22.6998L34.8621 26.6977L15.9573 20.3038Z" fill="#F89820"/>
<path d="M15.9573 20.3037C15.9573 20.3037 14.7194 20.5999 15.0827 22.7132L15.0154 31.9876C15.0154 31.9876 14.9078 33.1587 17.1279 33.6298L48.304 43.6715C48.304 43.6715 49.3535 44.0888 49.2324 42.7966L49.2459 32.4588C49.2459 32.4588 49.5419 31.3954 47.6043 30.6954L34.8621 26.6976L15.9573 20.3037Z" fill="#F89820"/>
<path d="M29.6952 37.6682L16.4282 41.7198C16.4282 41.7198 14.827 41.7737 15.0154 44.7754C15.2038 47.7772 15.002 53.8211 15.002 53.8211C15.002 53.8211 15.1365 54.9383 16.6704 54.2922L48.129 44.2505C48.129 44.2505 49.2458 43.9678 48.3039 43.6582C47.3621 43.3621 29.6952 37.6682 29.6952 37.6682V37.6682Z" fill="url(#paint1_linear)"/>
<defs>
<linearGradient id="paint0_linear" x1="32" y1="0" x2="32" y2="64" gradientUnits="userSpaceOnUse">
<stop stop-color="#F89820"/>
<stop offset="0.484375" stop-color="#FFBF6F"/>
<stop offset="1" stop-color="#FFC276"/>
</linearGradient>
<linearGradient id="paint1_linear" x1="16.8424" y1="48.3207" x2="48.6674" y2="37.314" gradientUnits="userSpaceOnUse">
<stop offset="0.233" stop-color="#F89822"/>
<stop offset="1" stop-color="#C27818"/>
</linearGradient>
</defs>
</svg>
