<?xml version="1.0" encoding="UTF-8" standalone="no"?>
<svg
   width="64"
   height="64"
   version="1.1"
   id="svg14"
   sodipodi:docname="sweethome3d.svg"
   inkscape:version="1.2.2 (b0a8486541, 2022-12-01)"
   xmlns:inkscape="http://www.inkscape.org/namespaces/inkscape"
   xmlns:sodipodi="http://sodipodi.sourceforge.net/DTD/sodipodi-0.dtd"
   xmlns="http://www.w3.org/2000/svg"
   xmlns:svg="http://www.w3.org/2000/svg">
  <defs
     id="defs18" />
  <sodipodi:namedview
     id="namedview16"
     pagecolor="#505050"
     bordercolor="#eeeeee"
     borderopacity="1"
     inkscape:showpageshadow="0"
     inkscape:pageopacity="0"
     inkscape:pagecheckerboard="0"
     inkscape:deskcolor="#505050"
     showgrid="false"
     inkscape:zoom="15.921875"
     inkscape:cx="29.895976"
     inkscape:cy="32.031403"
     inkscape:window-width="2560"
     inkscape:window-height="1361"
     inkscape:window-x="0"
     inkscape:window-y="0"
     inkscape:window-maximized="1"
     inkscape:current-layer="svg14" />
  <path
     d="M32 5A26.94 26.94 0 0 0 5 32a26.94 26.94 0 0 0 27 27 26.94 26.94 0 0 0 27-27A26.94 26.94 0 0 0 32 5Z"
     fill="#0073d6"
     id="path2"
     style="fill:#168daa" />
  <path
     d="M31.986 5A26.941 26.941 0 0 0 5 32a26.941 26.941 0 0 0 26.986 27V5z"
     opacity=".11355"
     stroke-linecap="round"
     stroke-width=".3"
     id="path4" />
  <path
     d="M32 27.969 9.207 46.504C13.99 54.025 22.39 59 32 59s18.01-4.975 22.793-12.496L32 27.969z"
     fill="#ff9e43"
     stroke-linecap="round"
     stroke-width=".36594"
     id="path6"
     style="fill:#ffb86c" />
  <path
     transform="matrix(1.0606 0 0 1.0606 -49.77 -21.06)"
     d="m77.116 32.42 15.6 8.803V58.83l-15.6 8.803-15.6-8.803V41.223z"
     fill="#f13f3f"
     stroke-width="1.4841"
     id="path8"
     style="fill:#ff5555" />
  <path
     transform="matrix(1.0606 0 0 1.0606 -49.77 -21.06)"
     d="m92.716 41.223-15.6 8.804v17.606l15.6-8.803z"
     opacity=".22522"
     id="path10" />
  <path
     transform="matrix(1.0606 0 0 1.0606 -49.77 -21.06)"
     d="M61.516 41.223V58.83l15.6 8.803V50.027Z"
     opacity=".09624"
     id="path12" />
</svg>
