<?xml version="1.0" encoding="UTF-8" standalone="no"?>
<svg
   width="64"
   height="64"
   version="1.1"
   id="svg12"
   sodipodi:docname="synergy.svg"
   inkscape:version="1.2.2 (b0a8486541, 2022-12-01)"
   xmlns:inkscape="http://www.inkscape.org/namespaces/inkscape"
   xmlns:sodipodi="http://sodipodi.sourceforge.net/DTD/sodipodi-0.dtd"
   xmlns="http://www.w3.org/2000/svg"
   xmlns:svg="http://www.w3.org/2000/svg">
  <defs
     id="defs16" />
  <sodipodi:namedview
     id="namedview14"
     pagecolor="#505050"
     bordercolor="#eeeeee"
     borderopacity="1"
     inkscape:showpageshadow="0"
     inkscape:pageopacity="0"
     inkscape:pagecheckerboard="0"
     inkscape:deskcolor="#505050"
     showgrid="false"
     inkscape:zoom="15.921875"
     inkscape:cx="29.895976"
     inkscape:cy="32.031403"
     inkscape:window-width="2560"
     inkscape:window-height="1361"
     inkscape:window-x="0"
     inkscape:window-y="0"
     inkscape:window-maximized="1"
     inkscape:current-layer="svg12" />
  <path
     fill="#f8f8f2"
     d="M32 5c14.912 0 27 12.088 27 27S46.911 59 32 59 5 46.911 5 32 17.088 5 32 5z"
     id="path2" />
  <path
     fill="#4578c8"
     d="M32 14.391c-9.65 0-17.61 7.869-17.61 17.609h4.66c0-7.067 5.708-12.803 12.948-12.803"
     id="path4"
     style="fill:#6272a4" />
  <path
     fill="#116f4d"
     d="M32 14.391v4.806c7.24 0 12.948 5.737 12.948 12.803h4.659c0-9.74-7.96-17.609-17.608-17.609"
     id="path6"
     style="fill:#44c367" />
  <path
     fill="#007895"
     d="M44.948 32c0 7.067-5.709 12.802-12.948 12.802v4.802c9.643 0 17.604-7.87 17.604-17.604"
     id="path8"
     style="fill:#168daa" />
  <path
     fill="#70aa12"
     d="M14.391 32c0 9.74 7.96 17.608 17.609 17.608v-4.806c-7.24 0-12.948-5.737-12.948-12.802"
     id="path10"
     style="fill:#50fa7b" />
</svg>
