<?xml version="1.0" encoding="UTF-8" standalone="no"?>
<svg
   width="64"
   height="64"
   version="1.1"
   viewBox="0 0 16.933 16.933"
   id="svg3"
   sodipodi:docname="system-log-out.svg"
   inkscape:version="1.3.2 (091e20ef0f, 2023-11-25, custom)"
   xmlns:inkscape="http://www.inkscape.org/namespaces/inkscape"
   xmlns:sodipodi="http://sodipodi.sourceforge.net/DTD/sodipodi-0.dtd"
   xmlns="http://www.w3.org/2000/svg"
   xmlns:svg="http://www.w3.org/2000/svg">
  <defs
     id="defs3" />
  <sodipodi:namedview
     id="namedview3"
     pagecolor="#f8f8f2"
     bordercolor="#282a36"
     borderopacity="0.25"
     inkscape:showpageshadow="2"
     inkscape:pageopacity="0.0"
     inkscape:pagecheckerboard="0"
     inkscape:deskcolor="#d1d1d1"
     inkscape:zoom="12.875"
     inkscape:cx="31.961165"
     inkscape:cy="32"
     inkscape:window-width="1920"
     inkscape:window-height="1040"
     inkscape:window-x="0"
     inkscape:window-y="0"
     inkscape:window-maximized="1"
     inkscape:current-layer="svg3" />
  <path
     d="m8.466 1.323a7.143 7.143 0 1 1 0 14.287 7.143 7.143 0 0 1 0-14.287z"
     fill="#63a437"
     id="path1"
     style="fill:#44c367" />
  <path
     d="m8.4665 4.2333a4.2332 4.2332 0 0 0-4.2333 4.2332 4.2332 4.2332 0 0 0 4.2333 4.2333 4.2332 4.2332 0 0 0 4.2332-4.2333 4.2332 4.2332 0 0 0-4.2332-4.2332zm0 1.0583a3.1749 3.1749 0 0 1 3.1749 3.1749 3.1749 3.1749 0 0 1-3.1749 3.1749 3.1749 3.1749 0 0 1-3.1749-3.1749 3.1749 3.1749 0 0 1 3.1749-3.1749z"
     fill="#f8f8f2"
     id="path2" />
  <path
     d="m8.0228 6.2217-0.74828 0.74828 1.4965 1.4965-1.4965 1.4965 0.74828 0.74828 2.2448-2.2448-0.74828-0.74828z"
     fill="#f8f8f2"
     id="path3" />
</svg>
