<?xml version="1.0" encoding="UTF-8" standalone="no"?>
<svg
   width="64"
   height="64"
   viewBox="0 0 16.933 16.933"
   version="1.1"
   id="svg2"
   sodipodi:docname="system-restart.svg"
   inkscape:version="1.3.2 (091e20ef0f, 2023-11-25, custom)"
   xmlns:inkscape="http://www.inkscape.org/namespaces/inkscape"
   xmlns:sodipodi="http://sodipodi.sourceforge.net/DTD/sodipodi-0.dtd"
   xmlns="http://www.w3.org/2000/svg"
   xmlns:svg="http://www.w3.org/2000/svg">
  <defs
     id="defs2" />
  <sodipodi:namedview
     id="namedview2"
     pagecolor="#f8f8f2"
     bordercolor="#282a36"
     borderopacity="0.25"
     inkscape:showpageshadow="2"
     inkscape:pageopacity="0.0"
     inkscape:pagecheckerboard="0"
     inkscape:deskcolor="#d1d1d1"
     inkscape:zoom="12.875"
     inkscape:cx="31.961165"
     inkscape:cy="32"
     inkscape:window-width="1920"
     inkscape:window-height="1040"
     inkscape:window-x="0"
     inkscape:window-y="0"
     inkscape:window-maximized="1"
     inkscape:current-layer="svg2" />
  <path
     fill="#6272a4"
     d="M8.38 1.323a7.144 7.144 0 1 1 0 14.286 7.144 7.144 0 0 1 0-14.286z"
     id="path1"
     style="fill:#515d85" />
  <path
     fill="#f8f8f2"
     d="M8.326 4.236A4.238 4.238 0 0 0 5.47 5.472a4.235 4.235 0 0 0-.346 5.589l.89-.89a2.99 2.99 0 0 1 .338-3.818 2.992 2.992 0 0 1 3.112-.7v1.07l.71-.71.347-.347.541-.541a4.238 4.238 0 0 0-2.736-.89zm3.484 1.637-.891.89a2.99 2.99 0 0 1-.338 3.818 2.992 2.992 0 0 1-3.111.7v-1.07l-1.058 1.057-.541.541a4.238 4.238 0 0 0 5.592-.347 4.235 4.235 0 0 0 .346-5.589z"
     paint-order="stroke markers fill"
     id="path2" />
</svg>
