<?xml version="1.0" encoding="UTF-8" standalone="no"?>
<svg
   width="64"
   height="64"
   viewBox="0 0 16.933 16.933"
   version="1.1"
   id="svg1"
   sodipodi:docname="system-suspend.svg"
   inkscape:version="1.3.2 (091e20ef0f, 2023-11-25, custom)"
   xmlns:inkscape="http://www.inkscape.org/namespaces/inkscape"
   xmlns:sodipodi="http://sodipodi.sourceforge.net/DTD/sodipodi-0.dtd"
   xmlns="http://www.w3.org/2000/svg"
   xmlns:svg="http://www.w3.org/2000/svg">
  <defs
     id="defs1" />
  <sodipodi:namedview
     id="namedview1"
     pagecolor="#f8f8f2"
     bordercolor="#282a36"
     borderopacity="0.25"
     inkscape:showpageshadow="2"
     inkscape:pageopacity="0.0"
     inkscape:pagecheckerboard="0"
     inkscape:deskcolor="#d1d1d1"
     inkscape:zoom="12.875"
     inkscape:cx="31.961165"
     inkscape:cy="32"
     inkscape:window-width="1920"
     inkscape:window-height="1040"
     inkscape:window-x="0"
     inkscape:window-y="0"
     inkscape:window-maximized="1"
     inkscape:current-layer="svg1" />
  <circle
     cx="8.466"
     cy="8.466"
     r="7.144"
     fill="#9576c5"
     id="circle1"
     style="fill:#9576c5" />
  <path
     fill="#f8f8f2"
     d="M8.797 5.49a.33.33 0 0 0-.33.33v.993c0 .183.147.33.33.33h1.654L8.466 8.797v1.323c0 .183.148.33.331.33h3.307a.33.33 0 0 0 .331-.33v-.992a.33.33 0 0 0-.33-.331H10.45l1.984-1.654V5.82a.33.33 0 0 0-.33-.33zM4.83 8.467a.33.33 0 0 0-.331.33v.33c0 .184.148.34.33.332h.662l-.992.992v.661c0 .184.147.331.33.331h1.654a.33.33 0 0 0 .331-.33v-.332a.33.33 0 0 0-.33-.33H5.82l.992-.992v-.662a.33.33 0 0 0-.33-.33z"
     id="path1" />
</svg>
