<?xml version="1.0" encoding="UTF-8" standalone="no"?>
<svg
   width="64"
   height="64"
   version="1.1"
   viewBox="0 0 16.933 16.933"
   id="svg247"
   sodipodi:docname="system-os-install.svg"
   inkscape:version="1.2.2 (b0a8486541, 2022-12-01)"
   xmlns:inkscape="http://www.inkscape.org/namespaces/inkscape"
   xmlns:sodipodi="http://sodipodi.sourceforge.net/DTD/sodipodi-0.dtd"
   xmlns="http://www.w3.org/2000/svg"
   xmlns:svg="http://www.w3.org/2000/svg">
  <defs
     id="defs251" />
  <sodipodi:namedview
     id="namedview249"
     pagecolor="#505050"
     bordercolor="#eeeeee"
     borderopacity="1"
     inkscape:showpageshadow="0"
     inkscape:pageopacity="0"
     inkscape:pagecheckerboard="0"
     inkscape:deskcolor="#505050"
     showgrid="false"
     inkscape:zoom="15.921875"
     inkscape:cx="29.83317"
     inkscape:cy="32.031403"
     inkscape:window-width="1280"
     inkscape:window-height="1361"
     inkscape:window-x="0"
     inkscape:window-y="0"
     inkscape:window-maximized="0"
     inkscape:current-layer="svg247" />
  <circle
     cx="8.4665"
     cy="8.4665"
     r="7.1436"
     fill="#4c8cff"
     style="paint-order:stroke fill markers;fill:#6272a4"
     id="circle237" />
  <path
     d="m8.4666 1.3229a7.1437 7.1437 0 0 0-7.1437 7.1437 7.1437 7.1437 0 0 0 4.9474 6.7939 10.139 10.139 0 0 0 9.2831-7.6207 7.1437 7.1437 0 0 0-7.0868-6.3168z"
     fill="#457eff"
     stroke-width="1.4193"
     style="paint-order:stroke fill markers;fill:#515d85;opacity:0.6"
     id="path239" />
  <path
     d="m8.4666 1.3229a7.1437 7.1437 0 0 0-6.4962 4.1888 8.7671 8.7671 0 0 0 8.6938 7.7255 8.7671 8.7671 0 0 0 3.7758-0.86401 7.1437 7.1437 0 0 0 1.1699-3.9068 7.1437 7.1437 0 0 0-7.1437-7.1437z"
     fill="#00f"
     opacity=".1"
     stroke-width="1.2273"
     style="paint-order:stroke fill markers;fill:#282a36"
     id="path241" />
  <path
     d="m5.292 3.969a3.175 3.175 0 0 0 3.175 3.175 3.175 3.175 0 0 0 3.175-3.175h-0.794a2.381 2.381 0 0 1-2.381 2.381 2.381 2.381 0 0 1-2.382-2.381z"
     fill="#f8f8f2"
     style="paint-order:stroke markers fill"
     id="path243" />
  <path
     d="m7.408 8.731h2.117l-0.265 2.646h1.323l-2.116 1.852-2.117-1.852h1.323"
     fill="#f8f8f2"
     id="path245" />
</svg>
