<?xml version="1.0" encoding="UTF-8" standalone="no"?>
<svg
   width="64"
   height="64"
   viewBox="0 0 16.933 16.933"
   version="1.1"
   id="svg7"
   sodipodi:docname="system-search.svg"
   inkscape:version="1.3.2 (091e20ef0f, 2023-11-25, custom)"
   xmlns:inkscape="http://www.inkscape.org/namespaces/inkscape"
   xmlns:sodipodi="http://sodipodi.sourceforge.net/DTD/sodipodi-0.dtd"
   xmlns="http://www.w3.org/2000/svg"
   xmlns:svg="http://www.w3.org/2000/svg">
  <defs
     id="defs7" />
  <sodipodi:namedview
     id="namedview7"
     pagecolor="#f8f8f2"
     bordercolor="#282a36"
     borderopacity="0.25"
     inkscape:showpageshadow="2"
     inkscape:pageopacity="0.0"
     inkscape:pagecheckerboard="0"
     inkscape:deskcolor="#d1d1d1"
     inkscape:zoom="12.875"
     inkscape:cx="31.961165"
     inkscape:cy="32"
     inkscape:window-width="1920"
     inkscape:window-height="1040"
     inkscape:window-x="0"
     inkscape:window-y="0"
     inkscape:window-maximized="1"
     inkscape:current-layer="g7" />
  <g
     transform="translate(0 -280.07)"
     id="g7">
    <rect
       width="14.287"
       height="14.287"
       x="-295.68"
       y="-15.61"
       fill="#f8f8f2"
       stroke="#282a36"
       stroke-opacity=".137"
       stroke-width=".265"
       rx="7.143"
       ry="7.143"
       style="paint-order:markers stroke fill"
       transform="matrix(0 -1 -1 0 0 0)"
       id="rect1" />
    <rect
       width="14.287"
       height="14.287"
       x="-295.68"
       y="-15.61"
       fill="#f8f8f2"
       rx="7.144"
       ry="7.144"
       style="paint-order:markers stroke fill"
       transform="matrix(0 -1 -1 0 0 0)"
       id="rect2" />
    <rect
       width="11.642"
       height="11.642"
       x="-294.35"
       y="-14.288"
       fill="#6272a4"
       rx="5.821"
       ry="5.821"
       transform="matrix(0 -1 -1 0 0 0)"
       id="rect3"
       style="fill:#6272a4" />
    <g
       fill="#f8f8f2"
       id="g6">
      <rect
         width="8.467"
         height="8.467"
         x="-292.77"
         y="-12.7"
         opacity=".25"
         rx="4.233"
         ry="4.233"
         transform="matrix(0 -1 -1 0 0 0)"
         id="rect4" />
      <rect
         width="5.292"
         height="5.292"
         x="-291.18"
         y="-11.113"
         opacity=".25"
         rx="2.646"
         ry="2.646"
         transform="matrix(0 -1 -1 0 0 0)"
         id="rect5" />
      <rect
         width="1.587"
         height="1.587"
         x="-289.33"
         y="-9.26"
         rx=".794"
         ry=".794"
         transform="matrix(0 -1 -1 0 0 0)"
         id="rect6" />
      <path
         d="m8.467 288.346 4.49-4.49.187.187-4.49 4.49z"
         paint-order="markers stroke fill"
         id="path6" />
    </g>
  </g>
</svg>
