<?xml version="1.0" encoding="UTF-8" standalone="no"?>
<svg
   width="64"
   height="64"
   version="1.1"
   id="svg18"
   sodipodi:docname="tangram.svg"
   inkscape:version="1.2.2 (b0a8486541, 2022-12-01)"
   xmlns:inkscape="http://www.inkscape.org/namespaces/inkscape"
   xmlns:sodipodi="http://sodipodi.sourceforge.net/DTD/sodipodi-0.dtd"
   xmlns="http://www.w3.org/2000/svg"
   xmlns:svg="http://www.w3.org/2000/svg">
  <defs
     id="defs22" />
  <sodipodi:namedview
     id="namedview20"
     pagecolor="#505050"
     bordercolor="#eeeeee"
     borderopacity="1"
     inkscape:showpageshadow="0"
     inkscape:pageopacity="0"
     inkscape:pagecheckerboard="0"
     inkscape:deskcolor="#505050"
     showgrid="false"
     inkscape:zoom="15.921875"
     inkscape:cx="29.895976"
     inkscape:cy="32.031403"
     inkscape:window-width="2560"
     inkscape:window-height="1361"
     inkscape:window-x="0"
     inkscape:window-y="0"
     inkscape:window-maximized="1"
     inkscape:current-layer="svg18" />
  <g
     stroke-width="1.304"
     id="g16">
    <path
       fill="#33d17a"
       d="M32 5a27 27.001 0 0 0-.014.002 27 27.001 0 0 0-20.48 9.436l27.242 42.313 15.226-40.426A27 27.001 0 0 0 32.04 5 27 27.001 0 0 0 32 5z"
       id="path2"
       style="fill:#44c367" />
    <path
       fill="#5799e9"
       d="M12.955 12.96A27 27.001 0 0 0 5 32a27 27.001 0 0 0 16.424 24.8l24.24-1.576a27 27.001 0 0 0 6.285-5.086L32 32.005 12.955 12.958z"
       id="path4"
       style="fill:#13b1d5" />
    <path
       fill="#837f8a"
       d="m51.091 12.909-5.593 5.596 4.5 9 9 4.5v-.082A27 27.001 0 0 0 51.09 12.91z"
       id="path6"
       style="fill:#717380" />
    <path
       fill="#f8db51"
       d="m31.999 31.999 7.826-7.826L47.65 32l-6.522 11.739z"
       style="paint-order:normal;fill:#f1fa8c"
       transform="translate(-23.201 -23.199) scale(1.725)"
       id="path8" />
    <path
       fill="#b78860"
       d="M58.998 32.001 32 59.002a27 27.001 0 0 0 26.998-26.974v-.027z"
       id="path10"
       style="fill:#c7925b" />
    <path
       fill="#ff9536"
       d="M45.5 45.501H18.499l13.5-13.5z"
       id="path12"
       style="fill:#fdc88e" />
    <path
       fill="#f65960"
       d="m18.498 45.502-5.541 5.544A27 27.001 0 0 0 31.973 59H32l13.5-13.499H18.498z"
       id="path14"
       style="fill:#ff5555" />
  </g>
</svg>
