<?xml version="1.0" encoding="UTF-8" standalone="no"?>
<svg
   width="64"
   height="64"
   version="1.1"
   id="svg8"
   sodipodi:docname="teamviewer.svg"
   inkscape:version="1.2.2 (732a01da63, 2022-12-09)"
   xmlns:inkscape="http://www.inkscape.org/namespaces/inkscape"
   xmlns:sodipodi="http://sodipodi.sourceforge.net/DTD/sodipodi-0.dtd"
   xmlns="http://www.w3.org/2000/svg"
   xmlns:svg="http://www.w3.org/2000/svg">
  <defs
     id="defs12" />
  <sodipodi:namedview
     id="namedview10"
     pagecolor="#505050"
     bordercolor="#eeeeee"
     borderopacity="1"
     inkscape:showpageshadow="0"
     inkscape:pageopacity="0"
     inkscape:pagecheckerboard="0"
     inkscape:deskcolor="#505050"
     showgrid="false"
     inkscape:zoom="15.921875"
     inkscape:cx="28.98528"
     inkscape:cy="32.125613"
     inkscape:window-width="1520"
     inkscape:window-height="1243"
     inkscape:window-x="935"
     inkscape:window-y="102"
     inkscape:window-maximized="0"
     inkscape:current-layer="svg8" />
  <g
     transform="matrix(1.35 0 0 1.35 -.4 -22)"
     id="g6">
    <rect
       x="4"
       y="20"
       width="40"
       height="40"
       rx="20"
       fill="#3384ba"
       stroke-opacity=".55027"
       stroke-width="2.0741"
       id="rect2"
       style="fill:#168daa" />
    <path
       d="m24 27c-7.1868 0-13 5.8139-13 13 0 7.186 5.8132 13 13 13 7.1868 0 13-5.814 13-13 0-7.1861-5.8132-13-13-13zm-3 9v2h6v-2l3.5723 2 3.4277 2-3.4277 2-3.5723 2v-2h-6v2l-3.5723-2-3.4277-2 3.4277-2z"
       fill="#ebf3fc"
       stroke-width=".74074"
       id="path4"
       style="fill:#f8f8f2" />
  </g>
</svg>
