<?xml version="1.0" encoding="UTF-8" standalone="no"?>
<svg
   width="64"
   height="64"
   version="1.1"
   id="svg14"
   sodipodi:docname="teams-for-linux.svg"
   inkscape:version="1.2.2 (732a01da63, 2022-12-09)"
   xmlns:inkscape="http://www.inkscape.org/namespaces/inkscape"
   xmlns:sodipodi="http://sodipodi.sourceforge.net/DTD/sodipodi-0.dtd"
   xmlns="http://www.w3.org/2000/svg"
   xmlns:svg="http://www.w3.org/2000/svg">
  <defs
     id="defs18" />
  <sodipodi:namedview
     id="namedview16"
     pagecolor="#f8f8f2"
     bordercolor="#282a36"
     borderopacity="0.25"
     inkscape:showpageshadow="2"
     inkscape:pageopacity="0.0"
     inkscape:pagecheckerboard="0"
     inkscape:deskcolor="#d1d1d1"
     showgrid="false"
     inkscape:zoom="16.046875"
     inkscape:cx="30.473223"
     inkscape:cy="32"
     inkscape:window-width="2560"
     inkscape:window-height="1373"
     inkscape:window-x="-9"
     inkscape:window-y="-9"
     inkscape:window-maximized="1"
     inkscape:current-layer="svg14" />
  <circle
     cx="32"
     cy="32"
     r="27"
     fill="#f8f8f2"
     stroke-linecap="round"
     stroke-linejoin="round"
     stroke-width="1.9961"
     id="circle2"
     style="fill:#f8f8f2" />
  <g
     transform="matrix(.94514 0 0 .94514 1.7554 1.7209)"
     stroke-width=".65671"
     id="g12">
    <path
       d="m44.806 17.552a4.2686 4.2686 0 0 0-4.2686 4.2686 4.2686 4.2686 0 0 0 4.2686 4.2686 4.2686 4.2686 0 0 0 4.2686-4.2686 4.2686 4.2686 0 0 0-4.2686-4.2686zm-4.9022 10.507c-0.74064 0-1.3365 0.59588-1.3365 1.3365v9.1622h0.0077a6.2388 6.2388 0 0 0 6.2311 5.9194 6.2388 6.2388 0 0 0 6.2311-5.9194h0.0077v-9.1622c0-0.74064-0.59588-1.3365-1.3365-1.3365h-9.8047z"
       fill="#5059c9"
       id="path4"
       style="fill:#6272a4" />
    <path
       d="m32.985 13.612a6.2388 6.2388 0 0 0-6.2388 6.2388 6.2388 6.2388 0 0 0 6.2388 6.2388 6.2388 6.2388 0 0 0 6.2388-6.2388 6.2388 6.2388 0 0 0-6.2388-6.2388zm-7.3585 14.448c-1.199 0-2.1638 0.96484-2.1638 2.1638v10.642a9.5224 9.5224 0 0 0 0 0.02822v0.15135h0.0013a9.5224 9.5224 0 0 0 9.521 9.3431 9.5224 9.5224 0 0 0 9.5197-9.3431h0.0026v-0.17957a9.5224 9.5224 0 0 0 0-0.02822v-10.614c0-1.199-0.96484-2.1638-2.1638-2.1638h-14.717z"
       fill="#7b83eb"
       id="path6"
       style="fill:#8894b8" />
    <rect
       x="12.955"
       y="22.806"
       width="19.045"
       height="19.045"
       rx="1.2983"
       ry="1.2983"
       fill="#5059c9"
       id="rect8"
       style="fill:#6272a4" />
    <path
       d="m17.552 26.746v3.2836h3.2836v8.5373h3.2836v-8.5373h3.2836v-3.2836z"
       fill="#f8f8f2"
       id="path10"
       style="fill:#f8f8f2" />
  </g>
</svg>
