<?xml version="1.0" encoding="UTF-8" standalone="no"?>
<svg
   width="64"
   height="64"
   version="1.1"
   id="svg16"
   sodipodi:docname="teeworlds.svg"
   inkscape:version="1.2.2 (b0a8486541, 2022-12-01)"
   xmlns:inkscape="http://www.inkscape.org/namespaces/inkscape"
   xmlns:sodipodi="http://sodipodi.sourceforge.net/DTD/sodipodi-0.dtd"
   xmlns="http://www.w3.org/2000/svg"
   xmlns:svg="http://www.w3.org/2000/svg">
  <defs
     id="defs20" />
  <sodipodi:namedview
     id="namedview18"
     pagecolor="#505050"
     bordercolor="#eeeeee"
     borderopacity="1"
     inkscape:showpageshadow="0"
     inkscape:pageopacity="0"
     inkscape:pagecheckerboard="0"
     inkscape:deskcolor="#505050"
     showgrid="false"
     inkscape:zoom="15.921875"
     inkscape:cx="29.895976"
     inkscape:cy="32.031403"
     inkscape:window-width="2560"
     inkscape:window-height="1361"
     inkscape:window-x="0"
     inkscape:window-y="0"
     inkscape:window-maximized="1"
     inkscape:current-layer="svg16" />
  <circle
     cx="32"
     cy="32"
     r="27"
     fill="#f8f8f2"
     stroke-width=".96429"
     id="circle2" />
  <g
     transform="matrix(.61538 0 0 .61538 12.308 12.308)"
     id="g14">
    <path
       d="m55.2 54.491c-5e-3 4.109-1.0214 5.4792-13.941 5.4792-3.6728 0-8.1437 0.32254-10.497-1.1536-2.2225-1.3938-1.4209-3.4393-1.4209-5.5211 0-4.2864 4.1997-7.2955 11.34-7.2955 7.1408 0 14.524 4.2 14.519 8.491z"
       fill="#d48003"
       id="path4"
       style="fill:#c7925b" />
    <path
       d="m32 4a26 26 0 0 0-26 26 26 26 0 0 0 26 26 26 26 0 0 0 26-26 26 26 0 0 0-26-26z"
       fill="#fdc33b"
       id="path6"
       style="fill:#ffb86c" />
    <path
       d="m34 54.491c-5e-3 4.109-1.0214 5.4792-13.941 5.4792-3.6728 0-8.1437 0.32254-10.497-1.1536-2.2225-1.3938-1.4209-3.4393-1.4209-5.5211-6e-7 -4.2864 4.1997-7.2955 11.34-7.2955 7.1408 0 14.524 4.2 14.519 8.491z"
       fill="#d48003"
       id="path8"
       style="fill:#c7925b" />
    <ellipse
       cx="28"
       cy="26"
       rx="4"
       ry="6"
       fill="#414141"
       id="ellipse10"
       style="fill:#44475a" />
    <ellipse
       cx="40"
       cy="26"
       rx="4"
       ry="6"
       fill="#414141"
       id="ellipse12"
       style="fill:#44475a" />
  </g>
</svg>
