<?xml version="1.0" encoding="UTF-8" standalone="no"?>
<svg
   width="64"
   height="64"
   viewBox="0 0 16.933 16.933"
   version="1.1"
   id="svg16"
   sodipodi:docname="terminator.svg"
   inkscape:version="1.2.2 (b0a8486541, 2022-12-01)"
   xmlns:inkscape="http://www.inkscape.org/namespaces/inkscape"
   xmlns:sodipodi="http://sodipodi.sourceforge.net/DTD/sodipodi-0.dtd"
   xmlns="http://www.w3.org/2000/svg"
   xmlns:svg="http://www.w3.org/2000/svg">
  <defs
     id="defs20" />
  <sodipodi:namedview
     id="namedview18"
     pagecolor="#505050"
     bordercolor="#eeeeee"
     borderopacity="1"
     inkscape:showpageshadow="0"
     inkscape:pageopacity="0"
     inkscape:pagecheckerboard="0"
     inkscape:deskcolor="#505050"
     showgrid="false"
     inkscape:zoom="15.921875"
     inkscape:cx="29.895976"
     inkscape:cy="32.031403"
     inkscape:window-width="2560"
     inkscape:window-height="1361"
     inkscape:window-x="0"
     inkscape:window-y="0"
     inkscape:window-maximized="1"
     inkscape:current-layer="svg16" />
  <circle
     cx="8.466"
     cy="8.466"
     r="7.144"
     fill="#c61919"
     style="paint-order:stroke fill markers;fill:#c7484a"
     id="circle2" />
  <path
     fill="#f8f8f2"
     d="M15.61 8.467a7.144 7.144 0 0 0-7.144-7.144 7.144 7.144 0 0 0-7.143 7.144 7.144 7.144 0 0 0 7.143 7.143 7.144 7.144 0 0 0 7.144-7.143z"
     opacity=".1"
     id="path4" />
  <path
     fill="#f8f8f2"
     d="M15.61 8.466H1.323a7.144 7.144 0 0 0 7.143 7.144 7.144 7.144 0 0 0 7.144-7.143 7.144 7.144 0 0 0 0-.001z"
     opacity=".1"
     id="path6" />
  <rect
     width="2.127"
     height=".266"
     x="6.104"
     y="6.753"
     fill="#f8f8f2"
     ry=".133"
     style="paint-order:stroke markers fill"
     id="rect8" />
  <path
     fill="#f8f8f2"
     d="M5.441 4.341a.133.133 0 0 0-.131.065.133.133 0 0 0 .048.182l1.428.824-1.428.825a.133.133 0 0 0-.048.182.133.133 0 0 0 .182.048l1.611-.93a.13.13 0 0 0 .064-.113l.001-.011V5.4a.13.13 0 0 0-.065-.112l-1.611-.93a.134.134 0 0 0-.05-.018z"
     style="paint-order:stroke markers fill"
     id="path10" />
  <rect
     width="2.127"
     height=".266"
     x="6.104"
     y="12.43"
     fill="#f8f8f2"
     ry=".133"
     style="paint-order:stroke markers fill"
     id="rect12" />
  <path
     fill="#f8f8f2"
     d="M5.441 10.019a.133.133 0 0 0-.131.065.133.133 0 0 0 .048.182l1.428.824-1.428.825a.133.133 0 0 0-.048.182.133.133 0 0 0 .182.048l1.611-.93a.13.13 0 0 0 .064-.113l.001-.011v-.012a.13.13 0 0 0-.065-.112l-1.611-.93a.134.134 0 0 0-.05-.018z"
     style="paint-order:stroke markers fill"
     id="path14" />
</svg>
