<?xml version="1.0" encoding="UTF-8" standalone="no"?>
<svg
   width="64"
   height="64"
   viewBox="0 0 16.933 16.933"
   version="1.1"
   id="svg17"
   sodipodi:docname="terminal.svg"
   inkscape:version="1.2.2 (b0a8486541, 2022-12-01)"
   xmlns:inkscape="http://www.inkscape.org/namespaces/inkscape"
   xmlns:sodipodi="http://sodipodi.sourceforge.net/DTD/sodipodi-0.dtd"
   xmlns="http://www.w3.org/2000/svg"
   xmlns:svg="http://www.w3.org/2000/svg">
  <sodipodi:namedview
     id="namedview19"
     pagecolor="#505050"
     bordercolor="#eeeeee"
     borderopacity="1"
     inkscape:showpageshadow="0"
     inkscape:pageopacity="0"
     inkscape:pagecheckerboard="0"
     inkscape:deskcolor="#505050"
     showgrid="false"
     inkscape:zoom="15.921875"
     inkscape:cx="29.895976"
     inkscape:cy="32.031403"
     inkscape:window-width="2560"
     inkscape:window-height="1361"
     inkscape:window-x="0"
     inkscape:window-y="0"
     inkscape:window-maximized="1"
     inkscape:current-layer="svg17" />
  <defs
     id="defs7">
    <linearGradient
       id="a"
       x1="43"
       x2="49"
       y1="44"
       y2="50"
       gradientTransform="scale(.26458)"
       gradientUnits="userSpaceOnUse">
      <stop
         offset="0"
         id="stop2"
         style="stop-color:#282a36;stop-opacity:1;" />
      <stop
         offset="1"
         stop-opacity="0"
         id="stop4"
         style="stop-color:#282a36;stop-opacity:0;" />
    </linearGradient>
  </defs>
  <circle
     cx="8.466"
     cy="8.466"
     r="7.144"
     fill="#717380"
     style="paint-order:stroke fill markers;fill:#44475a"
     id="circle9" />
  <rect
     width="4.233"
     height=".529"
     x="5.821"
     y="9.525"
     fill="#f8f8f2"
     ry=".265"
     style="paint-order:stroke markers fill;fill:#f8f8f2"
     id="rect11" />
  <path
     fill="#f8f8f2"
     d="M4.502 4.725a.264.264 0 0 0-.262.13.264.264 0 0 0 .097.362l2.842 1.64-2.842 1.641a.264.264 0 0 0-.097.362c.074.127.235.17.362.097l3.207-1.852a.26.26 0 0 0 .127-.225c.002-.008.001-.015.002-.022 0-.008 0-.015-.002-.023a.26.26 0 0 0-.127-.224L4.602 4.758a.266.266 0 0 0-.1-.033z"
     style="paint-order:stroke markers fill;fill:#f8f8f2"
     id="path13" />
  <path
     fill="url(#a)"
     d="m15.582 9.024-6.563 6.562a7.144 7.144 0 0 0 6.563-6.562z"
     opacity=".25"
     style="paint-order:stroke fill markers"
     id="path15" />
</svg>
