<?xml version="1.0" encoding="UTF-8" standalone="no"?>
<svg
   width="64"
   height="64"
   viewBox="0 0 16.933 16.933"
   version="1.1"
   id="svg7484"
   sodipodi:docname="upbge.svg"
   inkscape:version="1.2.2 (b0a8486541, 2022-12-01)"
   xmlns:inkscape="http://www.inkscape.org/namespaces/inkscape"
   xmlns:sodipodi="http://sodipodi.sourceforge.net/DTD/sodipodi-0.dtd"
   xmlns="http://www.w3.org/2000/svg"
   xmlns:svg="http://www.w3.org/2000/svg">
  <defs
     id="defs7488" />
  <sodipodi:namedview
     id="namedview7486"
     pagecolor="#505050"
     bordercolor="#eeeeee"
     borderopacity="1"
     inkscape:showpageshadow="0"
     inkscape:pageopacity="0"
     inkscape:pagecheckerboard="0"
     inkscape:deskcolor="#505050"
     showgrid="false"
     inkscape:zoom="15.921875"
     inkscape:cx="29.83317"
     inkscape:cy="32.031403"
     inkscape:window-width="1280"
     inkscape:window-height="1361"
     inkscape:window-x="0"
     inkscape:window-y="0"
     inkscape:window-maximized="0"
     inkscape:current-layer="svg7484" />
  <circle
     cx="8.466"
     cy="8.466"
     r="7.144"
     fill="#f8f8f2"
     style="paint-order:stroke fill markers"
     id="circle7466" />
  <g
     fill="#ff8a2c"
     transform="translate(-.163 -.542)"
     id="g7476"
     style="fill:#fd7e7c">
    <circle
       cx="-.263"
       cy="12.466"
       r="3.175"
       transform="rotate(-45)"
       id="circle7468"
       style="fill:#fd7e7c" />
    <rect
       width="6.35"
       height="1.323"
       x="-6.084"
       y="9.291"
       rx=".661"
       ry=".661"
       transform="rotate(-45)"
       id="rect7470"
       style="fill:#fd7e7c" />
    <rect
       width="6.35"
       height="1.323"
       x="5.606"
       y="-9.153"
       rx=".661"
       ry=".661"
       transform="rotate(75)"
       id="rect7472"
       style="fill:#fd7e7c" />
    <rect
       width="6.35"
       height="1.323"
       x="-16.516"
       y="-9.621"
       rx=".661"
       ry=".661"
       transform="rotate(195)"
       id="rect7474"
       style="fill:#fd7e7c" />
  </g>
  <path
     fill="#f8f8f2"
     fill-opacity=".099"
     d="M8.467 5.82A2.646 2.646 0 0 0 5.82 8.467a2.646 2.646 0 0 0 2.646 2.646 2.646 2.646 0 0 0 2.645-2.646A2.646 2.646 0 0 0 8.467 5.82zm0 1.612A1.035 1.035 0 0 1 9.5 8.466a1.035 1.035 0 0 1-1.034 1.035A1.035 1.035 0 0 1 7.43 8.467a1.035 1.035 0 0 1 1.036-1.035z"
     id="path7478" />
  <path
     fill="#f8f8f2"
     d="M8.467 6.35A2.117 2.117 0 0 0 6.35 8.466a2.117 2.117 0 0 0 2.117 2.117 2.117 2.117 0 0 0 2.116-2.117A2.117 2.117 0 0 0 8.467 6.35zm0 1.289a.828.828 0 0 1 .827.827.828.828 0 0 1-.827.828.828.828 0 0 1-.829-.828.828.828 0 0 1 .829-.827z"
     id="path7480" />
  <circle
     cx="8.466"
     cy="8.466"
     r="1.058"
     fill="#2e57b1"
     color="#282a36"
     display="block"
     overflow="visible"
     style="isolation:auto;mix-blend-mode:normal;paint-order:fill markers stroke;fill:#515d85"
     id="circle7482" />
</svg>
