<?xml version="1.0" encoding="UTF-8" standalone="no"?>
<svg
   width="64"
   height="64"
   version="1"
   id="svg22"
   sodipodi:docname="usb-creator.svg"
   inkscape:version="1.2.2 (b0a8486541, 2022-12-01)"
   xmlns:inkscape="http://www.inkscape.org/namespaces/inkscape"
   xmlns:sodipodi="http://sodipodi.sourceforge.net/DTD/sodipodi-0.dtd"
   xmlns="http://www.w3.org/2000/svg"
   xmlns:svg="http://www.w3.org/2000/svg">
  <defs
     id="defs26" />
  <sodipodi:namedview
     id="namedview24"
     pagecolor="#505050"
     bordercolor="#eeeeee"
     borderopacity="1"
     inkscape:showpageshadow="0"
     inkscape:pageopacity="0"
     inkscape:pagecheckerboard="0"
     inkscape:deskcolor="#505050"
     showgrid="false"
     inkscape:zoom="15.921875"
     inkscape:cx="29.895976"
     inkscape:cy="32.031403"
     inkscape:window-width="2560"
     inkscape:window-height="1361"
     inkscape:window-x="0"
     inkscape:window-y="0"
     inkscape:window-maximized="1"
     inkscape:current-layer="svg22" />
  <circle
     cx="32"
     cy="32"
     r="27"
     fill="#f8f8f2"
     stroke-width="3.7796"
     style="paint-order:stroke fill markers;fill:#f8f8f2"
     id="circle2" />
  <path
     d="m20 10h24v16h-24z"
     fill="#9ea0a6"
     stroke-width=".69282"
     id="path4"
     style="fill:#9ea0a6" />
  <path
     d="m13 26v11c0 10.526 8.474 19 19 19s19-8.474 19-19v-11z"
     fill="#282a36"
     stroke-width=".99895"
     id="path6"
     style="fill:#44475a" />
  <rect
     x="21"
     y="42"
     width="22"
     height="2"
     rx="1"
     ry="1"
     opacity=".4"
     stroke-width=".5863"
     id="rect8" />
  <rect
     x="23"
     y="46"
     width="18"
     height="2"
     rx="1"
     ry="1"
     opacity=".4"
     stroke-width=".61237"
     id="rect10" />
  <rect
     x="25"
     y="50"
     width="14"
     height="2"
     rx="1"
     ry="1"
     opacity=".4"
     stroke-width=".66144"
     id="rect12" />
  <path
     d="m23 14h7v3h-7z"
     opacity=".35"
     stroke-width=".59161"
     id="path14" />
  <path
     d="m34 14h7v3h-7z"
     opacity=".35"
     stroke-width=".59161"
     id="path16" />
  <circle
     cx="48"
     cy="48"
     r="14"
     fill="#45d157"
     id="circle18"
     style="fill:#44c367" />
  <path
     d="M41 49l7 8 7-8h-4V39h-6v10z"
     fill="#f8f8f2"
     id="path20"
     style="fill:#f8f8f2" />
</svg>
