<?xml version="1.0" encoding="UTF-8" standalone="no"?>
<svg
   width="64"
   height="64"
   version="1.1"
   viewBox="0 0 64 64"
   id="svg14"
   sodipodi:docname="utilities-energy-monitor.svg"
   inkscape:version="1.2.2 (b0a8486541, 2022-12-01)"
   xmlns:inkscape="http://www.inkscape.org/namespaces/inkscape"
   xmlns:sodipodi="http://sodipodi.sourceforge.net/DTD/sodipodi-0.dtd"
   xmlns="http://www.w3.org/2000/svg"
   xmlns:svg="http://www.w3.org/2000/svg">
  <defs
     id="defs18" />
  <sodipodi:namedview
     id="namedview16"
     pagecolor="#505050"
     bordercolor="#eeeeee"
     borderopacity="1"
     inkscape:showpageshadow="0"
     inkscape:pageopacity="0"
     inkscape:pagecheckerboard="0"
     inkscape:deskcolor="#505050"
     showgrid="false"
     inkscape:zoom="15.921875"
     inkscape:cx="29.83317"
     inkscape:cy="32.031403"
     inkscape:window-width="1280"
     inkscape:window-height="1361"
     inkscape:window-x="0"
     inkscape:window-y="0"
     inkscape:window-maximized="0"
     inkscape:current-layer="svg14" />
  <g
     transform="matrix(.44021 0 0 .44021 -167.87 -184.02)"
     stroke-width=".74077"
     id="g12">
    <rect
       x="392.7"
       y="429.4"
       width="122.67"
       height="122.67"
       rx="61.33"
       fill="#276262"
       stroke-opacity=".55"
       stroke-width="6.361"
       id="rect2"
       style="fill:#44c367" />
    <g
       fill-rule="evenodd"
       id="g10">
      <g
         stroke-width=".24149"
         id="g6">
        <path
           transform="matrix(3.0667 0 0 3.0667 380.44 417.13)"
           d="m13.723 22.416c-0.368-0.019-0.76 1e-3 -1.178 0.063-4.302 0.63-4.655 5.31-7.158 8.828 2.909 7.441 10.118 12.693 18.613 12.693 6.59 0 12.398-3.17 16.04-8.06-7.483-9.356-9.804 1.271-16.04-1.725-4.474-2.751-4.754-11.521-10.277-11.801"
           fill="#24b97a"
           stroke-width=".24149"
           id="path4"
           style="fill:#50fa7b" />
      </g>
      <path
         d="m457.44 461.2-17.038 27.26h10.222v20.445l17.038-27.26h-10.222z"
         fill="#f8f8f2"
         stroke-width="2.2717"
         id="path8" />
    </g>
  </g>
</svg>
