<?xml version="1.0" encoding="UTF-8" standalone="no"?>
<svg
   width="64"
   height="64"
   version="1.1"
   viewBox="0 0 16.933 16.933"
   id="svg17506"
   sodipodi:docname="utilities-log-viewer.svg"
   inkscape:version="1.2.2 (b0a8486541, 2022-12-01)"
   xmlns:inkscape="http://www.inkscape.org/namespaces/inkscape"
   xmlns:sodipodi="http://sodipodi.sourceforge.net/DTD/sodipodi-0.dtd"
   xmlns="http://www.w3.org/2000/svg"
   xmlns:svg="http://www.w3.org/2000/svg">
  <defs
     id="defs17510" />
  <sodipodi:namedview
     id="namedview17508"
     pagecolor="#505050"
     bordercolor="#eeeeee"
     borderopacity="1"
     inkscape:showpageshadow="0"
     inkscape:pageopacity="0"
     inkscape:pagecheckerboard="0"
     inkscape:deskcolor="#505050"
     showgrid="false"
     inkscape:zoom="15.921875"
     inkscape:cx="29.895976"
     inkscape:cy="32.031403"
     inkscape:window-width="2560"
     inkscape:window-height="1361"
     inkscape:window-x="0"
     inkscape:window-y="0"
     inkscape:window-maximized="1"
     inkscape:current-layer="svg17506" />
  <g
     transform="translate(0 -280.07)"
     id="g17504">
    <rect
       transform="matrix(0,-1,-1,0,0,0)"
       x="-295.68"
       y="-15.61"
       width="14.287"
       height="14.287"
       rx="7.1436"
       ry="7.1436"
       fill="#46d177"
       id="rect17498"
       style="fill:#44c367" />
    <path
       d="m12.583 284.42c-0.24172-0.24172-0.50022-0.45592-0.7699-0.64639h-1.0465c-1.4511-0.70371-3.1486-0.70371-4.5997 0h-1.0472c-0.26951 0.19039-0.52758 0.40481-0.76917 0.64639-2.2803 2.2803-2.2803 5.9522 0 8.2325 0.24159 0.24158 0.49966 0.456 0.76917 0.64639h1.0472c1.451 0.70371 3.1486 0.70371 4.5997 0h1.0465c0.26968-0.19047 0.52818-0.40467 0.7699-0.64639 2.2803-2.2803 2.2803-5.9522 0-8.2325z"
       opacity=".15"
       id="path17500" />
    <path
       d="M9.15 285.358c-1.372 0-2.505 1.123-2.505 2.495 0 .521.176 1 .453 1.403l-1.67 1.672a.455.456 0 0 0 .636.652l1.67-1.673c.403.277.894.44 1.416.44a2.499 2.499 0 0 0 2.492-2.494 2.499 2.499 0 0 0-2.492-2.495zm0 .907c.882 0 1.586.705 1.586 1.588 0 .882-.704 1.587-1.586 1.587a1.579 1.579 0 0 1-1.585-1.587c0-.883.703-1.588 1.585-1.588z"
       fill="#f8f8f2"
       id="path17502"
       style="fill:#f8f8f2" />
  </g>
</svg>
