<?xml version="1.0" encoding="UTF-8" standalone="no"?>
<svg
   width="64"
   height="64"
   version="1.1"
   id="svg5"
   sodipodi:docname="variety-slideshow.svg"
   inkscape:version="1.3.2 (091e20ef0f, 2023-11-25, custom)"
   xmlns:inkscape="http://www.inkscape.org/namespaces/inkscape"
   xmlns:sodipodi="http://sodipodi.sourceforge.net/DTD/sodipodi-0.dtd"
   xmlns="http://www.w3.org/2000/svg"
   xmlns:svg="http://www.w3.org/2000/svg">
  <defs
     id="defs5" />
  <sodipodi:namedview
     id="namedview5"
     pagecolor="#505050"
     bordercolor="#ffffff"
     borderopacity="1"
     inkscape:showpageshadow="0"
     inkscape:pageopacity="0"
     inkscape:pagecheckerboard="1"
     inkscape:deskcolor="#505050"
     inkscape:zoom="13.5"
     inkscape:cx="32.037037"
     inkscape:cy="32.037037"
     inkscape:window-width="1920"
     inkscape:window-height="1013"
     inkscape:window-x="0"
     inkscape:window-y="0"
     inkscape:window-maximized="1"
     inkscape:current-layer="svg5" />
  <path
     fill="#c4c7cc"
     d="M25.9 43.834c-.52 0-.9.378-.9.834v10.955L20.922 56H20.9c-.52 0-.9.378-.9.834V58h24v-1.166c0-.456-.381-.834-.9-.834h-.024L39 55.623V44.668c0-.456-.38-.834-.9-.834z"
     id="path1" />
  <rect
     width="60"
     height="40"
     x="2"
     y="6"
     fill="#2f3337"
     rx="2"
     ry="2"
     id="rect1" />
  <path
     fill="#6272a4"
     fill-rule="evenodd"
     d="M5 9h54v34H5z"
     id="path2"
     style="fill:#9576c5" />
  <path
     fill="#f8f8f2"
     d="M9.477 20A43.979 43.979 0 0 0 5 20.277V43h43.08A43.979 43.979 0 0 0 9.478 20z"
     opacity=".15"
     style="paint-order:stroke markers fill"
     id="path3" />
  <path
     fill="#f8f8f2"
     d="M59 28.787A43.979 43.979 0 0 0 33.092 43H59z"
     opacity=".15"
     style="paint-order:stroke markers fill"
     id="path4" />
  <circle
     cx="50.501"
     cy="17.499"
     r="5.499"
     fill="#ffdb8a"
     style="paint-order:stroke markers fill"
     id="circle4" />
  <path
     fill="#f8f8f2"
     d="m39 26-12 6V20z"
     id="path5" />
</svg>
