<?xml version="1.0" encoding="UTF-8" standalone="no"?>
<svg
   width="64"
   height="64"
   version="1.1"
   id="svg20"
   sodipodi:docname="variety-slideshow.svg"
   inkscape:version="1.2.2 (b0a8486541, 2022-12-01)"
   xmlns:inkscape="http://www.inkscape.org/namespaces/inkscape"
   xmlns:sodipodi="http://sodipodi.sourceforge.net/DTD/sodipodi-0.dtd"
   xmlns="http://www.w3.org/2000/svg"
   xmlns:svg="http://www.w3.org/2000/svg">
  <defs
     id="defs24" />
  <sodipodi:namedview
     id="namedview22"
     pagecolor="#505050"
     bordercolor="#eeeeee"
     borderopacity="1"
     inkscape:showpageshadow="0"
     inkscape:pageopacity="0"
     inkscape:pagecheckerboard="0"
     inkscape:deskcolor="#505050"
     showgrid="false"
     inkscape:zoom="15.921875"
     inkscape:cx="27.76055"
     inkscape:cy="32.031403"
     inkscape:window-width="1280"
     inkscape:window-height="1361"
     inkscape:window-x="0"
     inkscape:window-y="0"
     inkscape:window-maximized="0"
     inkscape:current-layer="svg20" />
  <circle
     cx="32"
     cy="32"
     r="27"
     fill="#f8f8f2"
     style="paint-order:stroke fill markers"
     id="circle2" />
  <path
     d="m28.442 39c-0.30333 0-0.44163 0.21347-0.44166 0.47099v6.1866l-2.4622 0.2129h-0.01283c-0.30333 0-0.525 0.21347-0.525 0.47099v0.65848h14v-0.65848c0-0.25752-0.22225-0.47099-0.525-0.47099h-0.014l-2.461-0.2129v-6.1866c-1e-6 -0.25752-0.13834-0.47099-0.44167-0.47099z"
     fill="#c4c7cc"
     stroke-width=".57396"
     id="path4"
     style="fill:#cbcccc" />
  <rect
     x="15"
     y="18"
     width="34"
     height="22"
     rx="1"
     ry="1"
     fill="#2f3337"
     stroke-width=".55827"
     id="rect6"
     style="fill:#44475a" />
  <path
     d="m16 19h32v20h-32z"
     fill="#6272a4"
     fill-rule="evenodd"
     stroke-width=".59041"
     id="path8"
     style="fill:#9576c5" />
  <g
     transform="matrix(.59259 0 0 .58823 13.037 13.706)"
     id="g16">
    <path
       d="m9.4766 20a43.979 43.979 0 0 0-4.4766 0.27734v22.723h43.08a43.979 43.979 0 0 0-38.602-23h-0.00195z"
       fill="#f8f8f2"
       opacity=".15"
       style="paint-order:stroke markers fill"
       id="path10" />
    <path
       d="M 59,28.787 A 43.979,43.979 0 0 0 33.092,43 H 59 Z"
       fill="#f8f8f2"
       opacity=".15"
       style="paint-order:stroke markers fill"
       id="path12" />
    <ellipse
       cx="48.875"
       cy="17.5"
       rx="5.0625"
       ry="5.1001"
       fill="#ffdb8a"
       stroke-width="3.8408"
       style="paint-order:stroke markers fill;fill:#fdc88e"
       id="ellipse14" />
  </g>
  <path
     d="m39 29-12 6v-12z"
     fill="#f8f8f2"
     stroke-width="1.5"
     id="path18" />
</svg>
