<?xml version="1.0" encoding="UTF-8" standalone="no"?>
<svg
   width="64"
   height="64"
   version="1.1"
   id="svg3"
   sodipodi:docname="variety.svg"
   inkscape:version="1.3.2 (091e20ef0f, 2023-11-25, custom)"
   xmlns:inkscape="http://www.inkscape.org/namespaces/inkscape"
   xmlns:sodipodi="http://sodipodi.sourceforge.net/DTD/sodipodi-0.dtd"
   xmlns="http://www.w3.org/2000/svg"
   xmlns:svg="http://www.w3.org/2000/svg">
  <defs
     id="defs3" />
  <sodipodi:namedview
     id="namedview3"
     pagecolor="#505050"
     bordercolor="#ffffff"
     borderopacity="1"
     inkscape:showpageshadow="0"
     inkscape:pageopacity="0"
     inkscape:pagecheckerboard="1"
     inkscape:deskcolor="#505050"
     inkscape:zoom="12.453125"
     inkscape:cx="32"
     inkscape:cy="31.919699"
     inkscape:window-width="1920"
     inkscape:window-height="1013"
     inkscape:window-x="0"
     inkscape:window-y="0"
     inkscape:window-maximized="1"
     inkscape:current-layer="svg3" />
  <path
     fill="#c4c7cc"
     d="M25.9 43.834c-.52 0-.9.378-.9.834v10.955L20.922 56H20.9c-.52 0-.9.378-.9.834V58h24v-1.166c0-.456-.381-.834-.9-.834h-.024L39 55.623V44.668c0-.456-.38-.834-.9-.834z"
     id="path1" />
  <rect
     width="60"
     height="40"
     x="2"
     y="6"
     fill="#2f3337"
     rx="6"
     ry="6"
     id="rect1" />
  <rect
     width="54"
     height="34"
     x="5"
     y="9"
     fill="#6272a4"
     rx="3"
     ry="3"
     id="rect2"
     style="fill:#9576c5" />
  <path
     fill="#f8f8f2"
     d="M9.477 20A43.979 43.979 0 0 0 5 20.277V40c0 1.662 1.338 3 3 3h40.08A43.979 43.979 0 0 0 9.478 20h-.002z"
     opacity=".15"
     style="paint-order:stroke markers fill"
     id="path2" />
  <path
     fill="#f8f8f2"
     d="M59 28.787A43.979 43.979 0 0 0 33.092 43H56c1.662 0 3-1.338 3-3V28.787z"
     opacity=".15"
     style="paint-order:stroke markers fill"
     id="path3" />
  <circle
     cx="50.501"
     cy="17.499"
     r="5.499"
     fill="#ffdb8a"
     style="paint-order:stroke markers fill"
     id="circle3" />
</svg>
