<?xml version="1.0" encoding="UTF-8" standalone="no"?>
<svg
   width="64"
   height="64"
   version="1"
   id="svg6465"
   sodipodi:docname="ventoy.svg"
   inkscape:version="1.2.2 (b0a8486541, 2022-12-01)"
   xmlns:inkscape="http://www.inkscape.org/namespaces/inkscape"
   xmlns:sodipodi="http://sodipodi.sourceforge.net/DTD/sodipodi-0.dtd"
   xmlns="http://www.w3.org/2000/svg"
   xmlns:svg="http://www.w3.org/2000/svg">
  <defs
     id="defs6469" />
  <sodipodi:namedview
     id="namedview6467"
     pagecolor="#505050"
     bordercolor="#eeeeee"
     borderopacity="1"
     inkscape:showpageshadow="0"
     inkscape:pageopacity="0"
     inkscape:pagecheckerboard="0"
     inkscape:deskcolor="#505050"
     showgrid="false"
     inkscape:zoom="15.921875"
     inkscape:cx="29.895976"
     inkscape:cy="32.031403"
     inkscape:window-width="2560"
     inkscape:window-height="1361"
     inkscape:window-x="0"
     inkscape:window-y="0"
     inkscape:window-maximized="1"
     inkscape:current-layer="svg6465" />
  <circle
     cx="32"
     cy="32"
     r="27"
     fill="#f8f8f2"
     style="paint-order:stroke fill markers"
     id="circle6445" />
  <path
     fill="#9ea0a6"
     d="M23 10c-1.662 0-3 1.338-3 3v13h24V13c0-1.662-1.338-3-3-3z"
     id="path6447" />
  <path
     fill="#44475a"
     d="M16 26c-1.662 0-3 1.338-3 3v8c0 10.526 8.474 19 19 19s19-8.474 19-19v-8c0-1.662-1.338-3-3-3z"
     id="path6449" />
  <rect
     width="22"
     height="2"
     x="21"
     y="42"
     opacity=".4"
     rx="1"
     ry="1"
     id="rect6451" />
  <rect
     width="18"
     height="2"
     x="23"
     y="46"
     opacity=".4"
     rx="1"
     ry="1"
     id="rect6453" />
  <rect
     width="14"
     height="2"
     x="25"
     y="50"
     opacity=".4"
     rx="1"
     ry="1"
     id="rect6455" />
  <path
     d="M23 14h7v3h-7zm11 0h7v3h-7z"
     opacity=".35"
     id="path6457" />
  <path
     fill="#fb5"
     d="M25 14h3v3h-3zm11 0h3v3h-3z"
     id="path6459"
     style="fill:#ffb86c" />
  <circle
     cx="48"
     cy="48"
     r="14"
     fill="#2596be"
     id="circle6461"
     style="fill:#168daa" />
  <path
     fill="#f8f8f2"
     d="m41 49 7 8 7-8h-4V39h-6v10z"
     id="path6463" />
</svg>
