<svg xmlns="http://www.w3.org/2000/svg" width="64" height="64"><g stroke-width=".741" transform="matrix(1.35 0 0 1.35 -.4 -22)"><circle cx="24" cy="40" r="20" fill="#cbcccc"/><path fill="#ff5555" d="M7 33h3l3.5 10L17 33h3l-5 14h-3z"/><path fill="#44475a" d="m18 47 5-14h3l-5 14zm10 0 5-14h3l-5 14z"/><path fill="#9ea0a6" d="m15 47 5-14h3l-5 14zm10 0 5-14h3l-5 14z"/><path fill="#cbcccc" d="M28 47h-3l-5-14h3zm10 0h-3l-5-14h3z"/><path fill="#44475a" d="m23 33 5 14h3l-5-14zm10 0 5 14h3l-5-14z"/></g></svg>