<?xml version="1.0" encoding="UTF-8" standalone="no"?>
<svg
   width="64"
   height="64"
   version="1.1"
   viewBox="0 0 64 64"
   id="svg18"
   sodipodi:docname="virt-manager.svg"
   inkscape:version="1.2.2 (b0a8486541, 2022-12-01)"
   xmlns:inkscape="http://www.inkscape.org/namespaces/inkscape"
   xmlns:sodipodi="http://sodipodi.sourceforge.net/DTD/sodipodi-0.dtd"
   xmlns="http://www.w3.org/2000/svg"
   xmlns:svg="http://www.w3.org/2000/svg">
  <defs
     id="defs22" />
  <sodipodi:namedview
     id="namedview20"
     pagecolor="#505050"
     bordercolor="#eeeeee"
     borderopacity="1"
     inkscape:showpageshadow="0"
     inkscape:pageopacity="0"
     inkscape:pagecheckerboard="0"
     inkscape:deskcolor="#505050"
     showgrid="false"
     inkscape:zoom="15.921875"
     inkscape:cx="29.83317"
     inkscape:cy="32.031403"
     inkscape:window-width="1280"
     inkscape:window-height="1361"
     inkscape:window-x="0"
     inkscape:window-y="0"
     inkscape:window-maximized="0"
     inkscape:current-layer="svg18" />
  <g
     transform="matrix(1.35 0 0 1.35 -.4 -22)"
     stroke-width=".74074"
     id="g16">
    <circle
       cx="24"
       cy="40"
       r="20"
       fill="#cbcccc"
       id="circle2"
       style="fill:#f8f8f2" />
    <g
       id="g14">
      <path
         d="m7 33h3l3.5 10 3.5-10h3l-5 14-3-6.6e-5z"
         fill="#f54c5d"
         id="path4"
         style="fill:#ff5555" />
      <path
         d="m18 47 5-14h3l-5 14zm10 0 5-14h3l-5 14z"
         fill="#44475a"
         id="path6"
         style="fill:#282a36" />
      <path
         d="m15 47 5-14h3l-5 14zm10 0 5-14h3l-5 14z"
         fill="#9ea0a6"
         id="path8"
         style="fill:#9ea0a6" />
      <path
         d="m28 47h-3l-5-14h3zm10 0h-3l-5-14h3z"
         fill="#cbcccc"
         id="path10"
         style="fill:#cbcccc" />
      <path
         d="m23 33 5 14h3l-5-14zm10 0 5 14h3l-5-14z"
         fill="#44475a"
         id="path12"
         style="fill:#44475a" />
    </g>
  </g>
</svg>
