<?xml version="1.0" encoding="UTF-8" standalone="no"?>
<svg
   width="64"
   height="64"
   viewBox="0 0 16.933 16.933"
   version="1.1"
   id="svg3"
   sodipodi:docname="visualstudiocode.svg"
   inkscape:version="1.3.2 (091e20ef0f, 2023-11-25, custom)"
   xmlns:inkscape="http://www.inkscape.org/namespaces/inkscape"
   xmlns:sodipodi="http://sodipodi.sourceforge.net/DTD/sodipodi-0.dtd"
   xmlns="http://www.w3.org/2000/svg"
   xmlns:svg="http://www.w3.org/2000/svg">
  <defs
     id="defs3" />
  <sodipodi:namedview
     id="namedview3"
     pagecolor="#505050"
     bordercolor="#ffffff"
     borderopacity="1"
     inkscape:showpageshadow="0"
     inkscape:pageopacity="0"
     inkscape:pagecheckerboard="1"
     inkscape:deskcolor="#505050"
     inkscape:zoom="12.453125"
     inkscape:cx="32"
     inkscape:cy="32"
     inkscape:window-width="1920"
     inkscape:window-height="1013"
     inkscape:window-x="0"
     inkscape:window-y="0"
     inkscape:window-maximized="1"
     inkscape:current-layer="g3" />
  <g
     fill-rule="evenodd"
     stroke-width=".265"
     id="g3">
    <path
       fill="#35a0f3"
       d="M21.068 2.602a.596.596 0 0 0-.267.1c.138.171-.14 1.785.208 2.004l.272.17v3.892l-.427.32c-.329.247.03 1.666-.056 1.849.095.058.237.12.362.105a.375.375 0 0 0 .12-.036l1.737-.851c.19-.093.38-.17.38-.38V3.87c0-.21-.19-.287-.38-.38l-1.737-.852a.374.374 0 0 0-.212-.035z"
       style="paint-order:stroke fill markers;fill:#13b1d5"
       transform="translate(-22.765 -2.648) scale(1.6292)"
       id="path1" />
    <path
       fill="#115fb7"
       d="m15.041 8.004 5.651-5.223c.257-.237.589-.153.589.337v1.758l-5.224 3.996c-.092.071-.33.243-.538.045l-.528-.502c-.139-.132-.06-.31.05-.411z"
       style="paint-order:stroke fill markers;fill:#12768f;fill-opacity:1"
       transform="translate(-22.765 -2.648) scale(1.6292)"
       id="path2" />
    <path
       fill="#1a81da"
       d="m15.041 5.638 5.651 5.223c.257.237.589.153.589-.338V8.766L16.057 4.77c-.092-.072-.33-.243-.538-.046l-.528.503c-.139.132-.06.31.05.411z"
       style="paint-order:stroke fill markers;fill:#168daa"
       transform="translate(-22.765 -2.648) scale(1.6292)"
       id="path3" />
  </g>
</svg>
