<?xml version="1.0" encoding="UTF-8" standalone="no"?>
<svg
   width="64"
   height="64"
   viewBox="0 0 16.933 16.933"
   version="1.1"
   id="svg1"
   sodipodi:docname="web-yahoo.svg"
   inkscape:version="1.3.2 (091e20ef0f, 2023-11-25, custom)"
   xmlns:inkscape="http://www.inkscape.org/namespaces/inkscape"
   xmlns:sodipodi="http://sodipodi.sourceforge.net/DTD/sodipodi-0.dtd"
   xmlns="http://www.w3.org/2000/svg"
   xmlns:svg="http://www.w3.org/2000/svg">
  <defs
     id="defs1" />
  <sodipodi:namedview
     id="namedview1"
     pagecolor="#f8f8f2"
     bordercolor="#282a36"
     borderopacity="0.25"
     inkscape:showpageshadow="2"
     inkscape:pageopacity="0.0"
     inkscape:pagecheckerboard="0"
     inkscape:deskcolor="#d1d1d1"
     inkscape:zoom="12.875"
     inkscape:cx="31.961165"
     inkscape:cy="32"
     inkscape:window-width="1920"
     inkscape:window-height="1040"
     inkscape:window-x="0"
     inkscape:window-y="0"
     inkscape:window-maximized="1"
     inkscape:current-layer="g1" />
  <g
     transform="translate(0 -280.07)"
     id="g1">
    <circle
       cx="8.466"
       cy="288.53"
       r="7.144"
       fill="#c7639f"
       style="paint-order:stroke markers fill;fill:#c7639f"
       id="circle1" />
    <path
       fill="#f8f8f2"
       stroke-width=".37"
       d="M11.145 287.117c-.134.013-.69.138-.876.178-.2.054-2.028 1.465-2.144 1.812a2.48 2.48 0 0 0-.04.478l-.014.28c0 .2.056.522.082.695.12.027.99.004 1.15.03l-.02.359c-.157-.012-1.261-.009-1.891-.009-.32 0-1.35.035-1.666.026l.06-.34c.173-.014.89.03 1.049-.137.078-.083.053-.171.053-.65v-.227c0-.107 0-.307-.026-.494-.066-.2-1.676-2.21-2.09-2.53-.12-.04-.872-.115-1.059-.155l-.009-.307c.093-.046.93.011 1.742-.019.533-.02 1.75 0 1.9.018l-.038.271c-.16.04-.93.055-1.13.108.52.773 1.342 1.77 1.609 2.158.146-.214 1.436-1.1 1.475-1.407-.2-.04-.862-.136-.969-.136l-.063-.35c.181-.028 1.136 0 1.61 0 .41 0 1.285 0 1.534.022l-.227.328m.869 3.571-.309-.026-.004-.67.392.048.351.016-.097.656-.333-.025m.399-1.184-.578-.055c.06-.293.008-2.534.004-2.773l-.03-.471c.16.031.136.015.815.086.413.044.467.063.603.068l-.177.558c-.152.446-.59 2.438-.637 2.587z"
       id="path1" />
  </g>
</svg>
