<?xml version="1.0" encoding="UTF-8" standalone="no"?>
<svg
   width="64"
   height="64"
   viewBox="0 0 16.933 16.933"
   version="1.1"
   id="svg4"
   sodipodi:docname="web-browser.svg"
   inkscape:version="1.3.2 (091e20ef0f, 2023-11-25, custom)"
   xmlns:inkscape="http://www.inkscape.org/namespaces/inkscape"
   xmlns:sodipodi="http://sodipodi.sourceforge.net/DTD/sodipodi-0.dtd"
   xmlns="http://www.w3.org/2000/svg"
   xmlns:svg="http://www.w3.org/2000/svg">
  <defs
     id="defs4" />
  <sodipodi:namedview
     id="namedview4"
     pagecolor="#f8f8f2"
     bordercolor="#282a36"
     borderopacity="0.25"
     inkscape:showpageshadow="2"
     inkscape:pageopacity="0.0"
     inkscape:pagecheckerboard="0"
     inkscape:deskcolor="#d1d1d1"
     inkscape:zoom="12.875"
     inkscape:cx="31.961165"
     inkscape:cy="32"
     inkscape:window-width="1920"
     inkscape:window-height="1040"
     inkscape:window-x="0"
     inkscape:window-y="0"
     inkscape:window-maximized="1"
     inkscape:current-layer="svg4" />
  <circle
     cx="8.466"
     cy="8.46"
     r="7.144"
     fill="#6272a4"
     style="paint-order:stroke markers fill"
     id="circle1" />
  <circle
     cx="8.466"
     cy="8.46"
     r="7.144"
     fill="#f8f8f2"
     opacity=".1"
     style="paint-order:stroke markers fill;fill:#515d85"
     id="circle2" />
  <path
     d="M8.466 5.295A3.175 3.175 0 0 0 5.291 8.47a3.175 3.175 0 0 0 3.175 3.175 3.175 3.175 0 0 0 3.175-3.175 3.175 3.175 0 0 0-3.175-3.175zm0 1.323a1.852 1.852 0 0 1 1.852 1.852 1.852 1.852 0 0 1-1.852 1.852A1.852 1.852 0 0 1 6.614 8.47a1.852 1.852 0 0 1 1.852-1.852z"
     opacity=".15"
     style="paint-order:stroke markers fill"
     id="path2" />
  <path
     fill="#f8f8f2"
     d="m4.498 4.5 4.498 3.436-1.059 1.058z"
     style="paint-order:stroke markers fill"
     id="path3" />
  <path
     fill="#cbcccc"
     d="M12.435 12.44 7.937 9l1.059-1.06Z"
     style="paint-order:stroke markers fill"
     id="path4" />
</svg>
