<?xml version="1.0" encoding="UTF-8" standalone="no"?>
<svg
   width="64"
   height="64"
   viewBox="0 0 16.933 16.933"
   version="1.1"
   id="svg1"
   sodipodi:docname="web-facebook.svg"
   inkscape:version="1.3.2 (091e20ef0f, 2023-11-25, custom)"
   xmlns:inkscape="http://www.inkscape.org/namespaces/inkscape"
   xmlns:sodipodi="http://sodipodi.sourceforge.net/DTD/sodipodi-0.dtd"
   xmlns="http://www.w3.org/2000/svg"
   xmlns:svg="http://www.w3.org/2000/svg">
  <defs
     id="defs1" />
  <sodipodi:namedview
     id="namedview1"
     pagecolor="#f8f8f2"
     bordercolor="#282a36"
     borderopacity="0.25"
     inkscape:showpageshadow="2"
     inkscape:pageopacity="0.0"
     inkscape:pagecheckerboard="0"
     inkscape:deskcolor="#d1d1d1"
     inkscape:zoom="12.875"
     inkscape:cx="31.961165"
     inkscape:cy="32"
     inkscape:window-width="1920"
     inkscape:window-height="1040"
     inkscape:window-x="0"
     inkscape:window-y="0"
     inkscape:window-maximized="1"
     inkscape:current-layer="g1" />
  <g
     transform="translate(0 -280.07)"
     id="g1">
    <circle
       cx="8.732"
       cy="288.53"
       r="7.144"
       fill="#515d85"
       style="paint-order:stroke markers fill;fill:#515d85"
       id="circle1" />
    <path
       fill="#f8f8f2"
       d="M6.085 286.831h1.021v-.68c0-.53.076-.896.2-1.157.128-.26.36-.472.696-.635.34-.165.77-.249 1.287-.249.53 0 1.087.137 1.559.34l-.34 1.021a3.255 3.255 0 0 0-.768-.08c-.27 0-.464.058-.584.173-.115.11-.35.267-.35.589v.68h1.702v1.02H8.807v5.103H7.119l-.013-5.102h-1.02"
       id="path1" />
  </g>
</svg>
