<?xml version="1.0" encoding="UTF-8" standalone="no"?>
<svg
   width="64"
   height="64"
   viewBox="0 0 16.933 16.933"
   version="1.1"
   id="svg12"
   sodipodi:docname="web-browser.svg"
   inkscape:version="1.2.2 (b0a8486541, 2022-12-01)"
   xmlns:inkscape="http://www.inkscape.org/namespaces/inkscape"
   xmlns:sodipodi="http://sodipodi.sourceforge.net/DTD/sodipodi-0.dtd"
   xmlns="http://www.w3.org/2000/svg"
   xmlns:svg="http://www.w3.org/2000/svg">
  <defs
     id="defs16" />
  <sodipodi:namedview
     id="namedview14"
     pagecolor="#505050"
     bordercolor="#eeeeee"
     borderopacity="1"
     inkscape:showpageshadow="0"
     inkscape:pageopacity="0"
     inkscape:pagecheckerboard="0"
     inkscape:deskcolor="#505050"
     showgrid="false"
     inkscape:zoom="15.921875"
     inkscape:cx="27.76055"
     inkscape:cy="32.031403"
     inkscape:window-width="2560"
     inkscape:window-height="1361"
     inkscape:window-x="0"
     inkscape:window-y="0"
     inkscape:window-maximized="1"
     inkscape:current-layer="svg12" />
  <circle
     cx="8.466"
     cy="8.46"
     r="7.144"
     fill="#44475a"
     style="paint-order:stroke markers fill;fill:#168daa"
     id="circle2" />
  <circle
     cx="8.466"
     cy="8.46"
     r="7.144"
     fill="#f8f8f2"
     opacity=".1"
     style="paint-order:stroke markers fill;fill:#f8f8f2"
     id="circle4" />
  <path
     d="M8.466 5.295A3.175 3.175 0 0 0 5.291 8.47a3.175 3.175 0 0 0 3.175 3.175 3.175 3.175 0 0 0 3.175-3.175 3.175 3.175 0 0 0-3.175-3.175zm0 1.323a1.852 1.852 0 0 1 1.852 1.852 1.852 1.852 0 0 1-1.852 1.852A1.852 1.852 0 0 1 6.614 8.47a1.852 1.852 0 0 1 1.852-1.852z"
     opacity=".15"
     style="paint-order:stroke markers fill"
     id="path6" />
  <path
     fill="#f8f8f2"
     d="m4.498 4.5 4.498 3.436-1.059 1.058z"
     style="paint-order:stroke markers fill;fill:#f8f8f2"
     id="path8" />
  <path
     fill="#cbcccc"
     d="M12.435 12.44 7.937 9l1.059-1.06Z"
     style="paint-order:stroke markers fill;fill:#cbcccc"
     id="path10" />
</svg>
