<?xml version="1.0" encoding="UTF-8" standalone="no"?>
<svg
   width="64"
   height="64"
   viewBox="0 0 16.933 16.933"
   version="1.1"
   id="svg2"
   sodipodi:docname="web-twitter.svg"
   inkscape:version="1.3.2 (091e20ef0f, 2023-11-25, custom)"
   xmlns:inkscape="http://www.inkscape.org/namespaces/inkscape"
   xmlns:sodipodi="http://sodipodi.sourceforge.net/DTD/sodipodi-0.dtd"
   xmlns="http://www.w3.org/2000/svg"
   xmlns:svg="http://www.w3.org/2000/svg">
  <defs
     id="defs2" />
  <sodipodi:namedview
     id="namedview2"
     pagecolor="#f8f8f2"
     bordercolor="#282a36"
     borderopacity="0.25"
     inkscape:showpageshadow="2"
     inkscape:pageopacity="0.0"
     inkscape:pagecheckerboard="0"
     inkscape:deskcolor="#d1d1d1"
     inkscape:zoom="12.875"
     inkscape:cx="31.961165"
     inkscape:cy="32"
     inkscape:window-width="1920"
     inkscape:window-height="1040"
     inkscape:window-x="0"
     inkscape:window-y="0"
     inkscape:window-maximized="1"
     inkscape:current-layer="g2" />
  <g
     transform="translate(0 -280.07)"
     id="g2">
    <circle
       cx="8.466"
       cy="288.53"
       r="7.144"
       fill="#13b1d5"
       style="paint-order:stroke markers fill;fill:#13b1d5"
       id="circle1" />
    <circle
       cx="8.467"
       cy="288.53"
       r="5.821"
       fill="#f8f8f2"
       opacity=".15"
       paint-order="stroke markers fill"
       id="circle2" />
    <path
       fill="#f8f8f2"
       d="M9.402 285.472c-.669.25-1.091.89-1.044 1.594l.017.271-.268-.033c-.973-.127-1.824-.558-2.547-1.283l-.353-.36-.091.267c-.193.591-.07 1.217.331 1.637.214.232.166.265-.204.127-.128-.044-.241-.077-.252-.06-.037.039.092.542.193.742.139.277.423.548.733.708l.263.127-.31.006c-.3 0-.31.006-.28.122.107.36.53.742 1.001.908l.332.116-.289.177a2.96 2.96 0 0 1-1.433.41c-.241.005-.438.027-.438.043 0 .055.652.364 1.032.486 1.14.36 2.494.205 3.512-.409.722-.437 1.445-1.305 1.782-2.146.182-.449.364-1.267.364-1.663 0-.254.016-.288.316-.592.177-.177.343-.37.375-.426.054-.106.048-.106-.225-.01-.455.166-.52.145-.294-.105.166-.177.364-.497.364-.591 0-.016-.08.009-.171.06a2.88 2.88 0 0 1-.471.187l-.29.094-.262-.182c-.144-.1-.348-.21-.455-.244a1.795 1.795 0 0 0-.936.022"
       id="path2" />
  </g>
</svg>
