<?xml version="1.0" encoding="UTF-8" standalone="no"?>
<svg
   width="64"
   height="64"
   version="1.1"
   id="svg1569"
   sodipodi:docname="whalebird.svg"
   inkscape:version="1.2.2 (b0a8486541, 2022-12-01)"
   xmlns:inkscape="http://www.inkscape.org/namespaces/inkscape"
   xmlns:sodipodi="http://sodipodi.sourceforge.net/DTD/sodipodi-0.dtd"
   xmlns="http://www.w3.org/2000/svg"
   xmlns:svg="http://www.w3.org/2000/svg">
  <defs
     id="defs1573" />
  <sodipodi:namedview
     id="namedview1571"
     pagecolor="#505050"
     bordercolor="#eeeeee"
     borderopacity="1"
     inkscape:showpageshadow="0"
     inkscape:pageopacity="0"
     inkscape:pagecheckerboard="0"
     inkscape:deskcolor="#505050"
     showgrid="false"
     inkscape:zoom="15.921875"
     inkscape:cx="29.895976"
     inkscape:cy="32.031403"
     inkscape:window-width="2560"
     inkscape:window-height="1361"
     inkscape:window-x="0"
     inkscape:window-y="0"
     inkscape:window-maximized="1"
     inkscape:current-layer="svg1569" />
  <g
     transform="translate(3.826 3.826) scale(1.1739)"
     id="g1567">
    <circle
       cx="24"
       cy="24"
       r="23"
       fill="#74b1f2"
       id="circle1563"
       style="fill:#13b1d5" />
    <path
       fill="#acf5ec"
       d="M37 26c0 4.97-2.686 9-6 9-2.283 0-3-1-4-2.5-.6.745-.688 1.5-5 1.5 0 0 2-2 2-4 0-3-1-4-2-4-4 0-5 1-6 2-.186-.156 2 0 2 2s-1 3-1 3 0-2-2-2c-2.719 0-3 3-3 3s-1 0-1-2c0-4 3-5 3-5 0-8 5-11 8-12 0-2.32-.38-2.64-1-3.5.59-.328 1.164-.5 2-.5 4 0 5.5 2 6.5 4C35 17.688 37 22 37 26z"
       style="paint-order:normal;fill:#a6edfa"
       id="path1565" />
  </g>
</svg>
