<?xml version="1.0" encoding="UTF-8" standalone="no"?>
<svg
   width="64"
   height="64"
   viewBox="0 0 16.933 16.933"
   version="1.1"
   id="svg6"
   sodipodi:docname="wine-winefile.svg"
   inkscape:version="1.3.2 (091e20ef0f, 2023-11-25, custom)"
   xmlns:inkscape="http://www.inkscape.org/namespaces/inkscape"
   xmlns:sodipodi="http://sodipodi.sourceforge.net/DTD/sodipodi-0.dtd"
   xmlns="http://www.w3.org/2000/svg"
   xmlns:svg="http://www.w3.org/2000/svg">
  <sodipodi:namedview
     id="namedview6"
     pagecolor="#f8f8f2"
     bordercolor="#282a36"
     borderopacity="0.25"
     inkscape:showpageshadow="2"
     inkscape:pageopacity="0.0"
     inkscape:pagecheckerboard="0"
     inkscape:deskcolor="#d1d1d1"
     inkscape:zoom="12.875"
     inkscape:cx="31.961165"
     inkscape:cy="32"
     inkscape:window-width="1920"
     inkscape:window-height="1040"
     inkscape:window-x="0"
     inkscape:window-y="0"
     inkscape:window-maximized="1"
     inkscape:current-layer="svg6" />
  <defs
     id="defs2">
    <linearGradient
       id="a"
       x1="-197.72"
       x2="-197.72"
       y1="263.86"
       y2="273.76"
       gradientTransform="matrix(.18709 -.18709 .18709 .18709 1.12 -74.45)"
       gradientUnits="userSpaceOnUse">
      <stop
         offset="0"
         id="stop1" />
      <stop
         offset="1"
         stop-opacity="0"
         id="stop2" />
    </linearGradient>
  </defs>
  <path
     fill="currentColor"
     d="m7.144 2.377-3.704.001c-.294 0-.395.268-.53.529v.003h-.264c-.586 0-1.058.472-1.058 1.059v1.323C1 5.292.529 5.764.529 6.35v7.408c0 .586.472 1.058 1.059 1.058h13.758c.586 0 1.058-.472 1.058-1.058V5.291c0-.586-.472-1.058-1.058-1.058V3.97c0-.587-.472-1.059-1.059-1.059h-4.46c-.013 0-.025-.003-.038-.003H7.674c-.155-.25-.236-.53-.53-.53z"
     class="ColorScheme-Highlight"
     color="#6272a4"
     id="path2"
     style="fill:#44475a" />
  <path
     d="m7.144 2.377-3.704.001c-.294 0-.395.268-.53.529v.003h-.264c-.587 0-1.059.472-1.059 1.059v1.323h6.615l.794-1.059h6.35V3.97c0-.587-.472-1.059-1.059-1.059l-6.613-.003c-.155-.25-.236-.53-.53-.53z"
     opacity=".2"
     id="path3" />
  <path
     fill="#f8f8f2"
     d="M2.915 3.7a.532.532 0 0 0-.534.533v1.058h5.821l.794-1.058h5.556a.532.532 0 0 0-.533-.533H2.915z"
     id="path4" />
  <rect
     width="3.175"
     height=".529"
     x="3.704"
     y="2.64"
     opacity=".25"
     rx=".265"
     ry=".265"
     id="rect4" />
  <path
     fill="url(#a)"
     d="m16.404 10.583-4.233 4.233h3.175c.586 0 1.058-.472 1.058-1.058z"
     opacity=".2"
     id="path5" />
  <rect
     width="4.233"
     height=".529"
     x="10.318"
     y="4.762"
     opacity=".25"
     ry=".265"
     id="rect5" />
  <path
     fill="#f8f8f2"
     d="m6.034 9.441-.002-1.699 1.905-.284v1.983zm2.22-2.033 2.54-.406v2.439h-2.54zm2.54 2.381v2.439l-2.54-.392V9.789zm-2.857 2.002-1.903-.286V9.789h1.903z"
     id="path6" />
</svg>
