<?xml version="1.0" encoding="UTF-8" standalone="no"?>
<svg
   width="64"
   height="64"
   version="1.1"
   viewBox="0 0 16.933 16.933"
   id="svg14"
   sodipodi:docname="workspace-switcher.svg"
   inkscape:version="1.2.2 (b0a8486541, 2022-12-01)"
   xmlns:inkscape="http://www.inkscape.org/namespaces/inkscape"
   xmlns:sodipodi="http://sodipodi.sourceforge.net/DTD/sodipodi-0.dtd"
   xmlns="http://www.w3.org/2000/svg"
   xmlns:svg="http://www.w3.org/2000/svg">
  <defs
     id="defs18" />
  <sodipodi:namedview
     id="namedview16"
     pagecolor="#505050"
     bordercolor="#eeeeee"
     borderopacity="1"
     inkscape:showpageshadow="0"
     inkscape:pageopacity="0"
     inkscape:pagecheckerboard="0"
     inkscape:deskcolor="#505050"
     showgrid="false"
     inkscape:zoom="15.921875"
     inkscape:cx="29.895976"
     inkscape:cy="32.031403"
     inkscape:window-width="2560"
     inkscape:window-height="1361"
     inkscape:window-x="0"
     inkscape:window-y="0"
     inkscape:window-maximized="1"
     inkscape:current-layer="svg14" />
  <g
     id="g12">
    <path
       transform="scale(.26458)"
       d="m32 5v27h-27a27 27 0 0 0 27 27 27 27 0 0 0 27-27 27 27 0 0 0-27-27z"
       fill="#6272a4"
       stroke-width="3.7796"
       style="paint-order:stroke fill markers;fill:#6272a4"
       id="path2" />
    <path
       transform="scale(.26458)"
       d="m32 5a27 27 0 0 0-27 27h27v-27z"
       fill="#f8f8f2"
       opacity=".5"
       stroke-width="3.7796"
       style="paint-order:stroke fill markers;fill:#cbcccc"
       id="path4" />
    <path
       transform="scale(.26458)"
       d="m32 5v27h-27a27 27 0 0 0 0.035156 1h26.965v26a27 27 0 0 0 1-0.035156v-25.965h25.949a27 27 0 0 0 0.050781-1h-26v-26.949a27 27 0 0 0-1-0.050781z"
       opacity=".15"
       stroke-width=".43759"
       style="paint-order:stroke fill markers;opacity:0.2"
       id="path6" />
    <path
       d="m8.4665 2.3812a6.0853 6.0853 0 0 0-6.0853 6.0853h6.0853z"
       fill="#f8f8f2"
       stroke-width=".85185"
       style="paint-order:stroke fill markers;fill:#cbcccc"
       id="path8" />
    <path
       d="m8.7311 14.816a6.0853 6.0853 0 0 0 6.0853-6.0853h-6.0853z"
       opacity=".1"
       stroke-width=".85185"
       style="paint-order:stroke fill markers"
       id="path10" />
  </g>
</svg>
