<?xml version="1.0" encoding="UTF-8" standalone="no"?>
<svg
   width="64"
   height="64"
   version="1.1"
   viewBox="0 0 16.933 16.933"
   id="svg6173"
   sodipodi:docname="workspace-switcher-left-bottom.svg"
   inkscape:version="1.2.2 (b0a8486541, 2022-12-01)"
   xmlns:inkscape="http://www.inkscape.org/namespaces/inkscape"
   xmlns:sodipodi="http://sodipodi.sourceforge.net/DTD/sodipodi-0.dtd"
   xmlns="http://www.w3.org/2000/svg"
   xmlns:svg="http://www.w3.org/2000/svg">
  <defs
     id="defs6177" />
  <sodipodi:namedview
     id="namedview6175"
     pagecolor="#505050"
     bordercolor="#eeeeee"
     borderopacity="1"
     inkscape:showpageshadow="0"
     inkscape:pageopacity="0"
     inkscape:pagecheckerboard="0"
     inkscape:deskcolor="#505050"
     showgrid="false"
     inkscape:zoom="15.921875"
     inkscape:cx="29.83317"
     inkscape:cy="32.031403"
     inkscape:window-width="1280"
     inkscape:window-height="1361"
     inkscape:window-x="0"
     inkscape:window-y="0"
     inkscape:window-maximized="0"
     inkscape:current-layer="svg6173" />
  <g
     transform="rotate(-90 8.4665 8.4665)"
     id="g6171">
    <path
       d="m8.4665 1.3229v7.1436h-7.1436a7.1436 7.1436 0 0 0 7.1436 7.1436 7.1436 7.1436 0 0 0 7.1436-7.1436 7.1436 7.1436 0 0 0-7.1436-7.1436z"
       fill="#6272a4"
       style="paint-order:stroke fill markers;fill:#6272a4"
       id="path6163" />
    <path
       d="m8.4665 1.3229a7.1436 7.1436 0 0 0-7.1436 7.1436h7.1436z"
       fill="#f8f8f2"
       opacity=".5"
       style="paint-order:stroke fill markers;fill:#cbcccc"
       id="path6165" />
    <path
       d="m8.4665 1.3229v7.1436h-7.1436a7.1436 7.1436 0 0 0 0.0093 0.26458h7.1343v6.879a7.1436 7.1436 0 0 0 0.26458-0.0093v-6.8697h6.8656a7.1436 7.1436 0 0 0 0.01344-0.26458h-6.879v-7.1302a7.1436 7.1436 0 0 0-0.26458-0.013436z"
       opacity=".15"
       stroke-width=".11578"
       style="paint-order:stroke fill markers"
       id="path6167" />
    <path
       d="m8.4665 2.3812a6.0853 6.0853 0 0 0-6.0853 6.0853h6.0853z"
       fill="#f8f8f2"
       stroke-width=".85185"
       style="paint-order:stroke fill markers;fill:#cbcccc"
       id="path6169" />
  </g>
</svg>
