<?xml version="1.0" encoding="UTF-8" standalone="no"?>
<svg
   width="64"
   height="64"
   viewBox="0 0 16.933 16.933"
   version="1.1"
   id="svg3"
   sodipodi:docname="wps-office2019-pdfmain.svg"
   inkscape:version="1.3.2 (091e20ef0f, 2023-11-25, custom)"
   xmlns:inkscape="http://www.inkscape.org/namespaces/inkscape"
   xmlns:sodipodi="http://sodipodi.sourceforge.net/DTD/sodipodi-0.dtd"
   xmlns="http://www.w3.org/2000/svg"
   xmlns:svg="http://www.w3.org/2000/svg">
  <defs
     id="defs3" />
  <sodipodi:namedview
     id="namedview3"
     pagecolor="#505050"
     bordercolor="#f8f8f2"
     borderopacity="1"
     inkscape:showpageshadow="0"
     inkscape:pageopacity="0"
     inkscape:pagecheckerboard="1"
     inkscape:deskcolor="#505050"
     inkscape:zoom="12.453125"
     inkscape:cx="32"
     inkscape:cy="32"
     inkscape:window-width="1920"
     inkscape:window-height="1013"
     inkscape:window-x="0"
     inkscape:window-y="0"
     inkscape:window-maximized="1"
     inkscape:current-layer="svg3" />
  <path
     fill="#c7484a"
     fill-rule="evenodd"
     d="M3.44 1.058a1.32 1.32 0 0 0-1.323 1.323v12.171c0 .733.59 1.323 1.323 1.323h10.053a1.32 1.32 0 0 0 1.323-1.323V4.233l-3.174-3.175z"
     style="paint-order:stroke fill markers;fill:#c7484a"
     id="path1" />
  <path
     fill="#e78275"
     fill-rule="evenodd"
     d="m14.816 4.233-3.175-3.175V2.91c0 .733.59 1.323 1.323 1.323z"
     style="paint-order:stroke fill markers"
     id="path2" />
  <path
     fill="#f8f8f2"
     fill-rule="evenodd"
     d="M7.805 5.556a.396.396 0 0 0-.397.397v3.175a.396.396 0 1 0 .794 0V6.35h1.323a1.852 1.852 0 0 1 1.852 1.852 1.852 1.852 0 0 1-1.852 1.852h-2.91v.006a1.72 1.72 0 0 0-1.588 1.713 1.72 1.72 0 0 0 1.72 1.72h1.058c.22 0 .397-.177.397-.397v-1.323a.396.396 0 1 0-.794 0v.927h-.661a.926.926 0 0 1-.926-.927.926.926 0 0 1 .926-.926h2.778a2.646 2.646 0 0 0 2.646-2.645 2.646 2.646 0 0 0-2.646-2.646z"
     style="paint-order:stroke fill markers"
     id="path3" />
</svg>
