<?xml version="1.0" encoding="UTF-8" standalone="no"?>
<svg
   width="64"
   height="64"
   viewBox="0 0 16.933 16.933"
   version="1.1"
   id="svg1"
   sodipodi:docname="wps-office-kingsoft.svg"
   inkscape:version="1.3.2 (091e20ef0f, 2023-11-25, custom)"
   xmlns:inkscape="http://www.inkscape.org/namespaces/inkscape"
   xmlns:sodipodi="http://sodipodi.sourceforge.net/DTD/sodipodi-0.dtd"
   xmlns="http://www.w3.org/2000/svg"
   xmlns:svg="http://www.w3.org/2000/svg">
  <defs
     id="defs1" />
  <sodipodi:namedview
     id="namedview1"
     pagecolor="#505050"
     bordercolor="#f8f8f2"
     borderopacity="1"
     inkscape:showpageshadow="0"
     inkscape:pageopacity="0"
     inkscape:pagecheckerboard="1"
     inkscape:deskcolor="#505050"
     inkscape:zoom="12.453125"
     inkscape:cx="32"
     inkscape:cy="32"
     inkscape:window-width="1920"
     inkscape:window-height="1013"
     inkscape:window-x="0"
     inkscape:window-y="0"
     inkscape:window-maximized="1"
     inkscape:current-layer="g1" />
  <g
     paint-order="stroke markers fill"
     transform="translate(0 -280.07)"
     id="g1">
    <circle
       cx="8.466"
       cy="288.53"
       r="7.144"
       fill="#515d85"
       id="circle1"
       style="fill:#6272a4" />
    <path
       fill="#f8f8f2"
       d="M3.696 285.646c-.274 0-.449.246-.334.494l2.721 5.891.245.53c.113.246.306.488.576.493.27-.005.463-.247.576-.493l1.381-2.99 1.092-2.36c.076-.166.253-.33.436-.33h1.156a.378.378 0 0 1 .06.008c.005 0 .01.004.014.006a.222.222 0 0 1 .14.316l-.864 1.872-.109.234-.108.234-.108.234-.108.234-.108.234-.109.234-.055.12-.053.114c-.02.05-.041.111-.108.11-.068.001-.09-.066-.108-.11l-.108-.234-.108-.234-.108-.234-.108-.234-.109-.234-.052-.113-.66 1.424.785 1.7c.114.246.307.488.576.492.27-.005.463-.246.577-.493l.244-.53 2.721-5.89c.115-.249-.06-.495-.334-.495H9.781c-.274 0-.54.246-.654.494l-1.585 3.431h.002l-.1.214-.107.234-.108.234-.109.234-.108.234c-.018.044-.04.111-.108.11-.066.001-.088-.06-.108-.11l-.052-.113-.056-.12-.108-.235-.109-.234-.108-.234-.108-.234-.108-.234-.108-.234-.865-1.872c-.077-.166.04-.33.223-.33h1.149c.182 0 .36.164.436.33l.667 1.444.661-1.426-.502-1.09c-.115-.247-.38-.493-.655-.493H5.916z"
       id="path1" />
  </g>
</svg>
