<?xml version="1.0" encoding="UTF-8" standalone="no"?>
<svg
   width="64"
   height="64"
   viewBox="0 0 16.933 16.933"
   version="1.1"
   id="svg1"
   sodipodi:docname="xfce4-whiskermenu.svg"
   inkscape:version="1.3.2 (091e20ef0f, 2023-11-25, custom)"
   xmlns:inkscape="http://www.inkscape.org/namespaces/inkscape"
   xmlns:sodipodi="http://sodipodi.sourceforge.net/DTD/sodipodi-0.dtd"
   xmlns="http://www.w3.org/2000/svg"
   xmlns:svg="http://www.w3.org/2000/svg">
  <defs
     id="defs1" />
  <sodipodi:namedview
     id="namedview1"
     pagecolor="#505050"
     bordercolor="#f8f8f2"
     borderopacity="1"
     inkscape:showpageshadow="0"
     inkscape:pageopacity="0"
     inkscape:pagecheckerboard="1"
     inkscape:deskcolor="#505050"
     inkscape:zoom="12.453125"
     inkscape:cx="32"
     inkscape:cy="32"
     inkscape:window-width="1920"
     inkscape:window-height="1013"
     inkscape:window-x="0"
     inkscape:window-y="0"
     inkscape:window-maximized="1"
     inkscape:current-layer="g1" />
  <g
     transform="translate(0 -280.07)"
     id="g1">
    <circle
       cx="8.466"
       cy="288.53"
       r="7.144"
       fill="#13b1d5"
       style="paint-order:stroke markers fill;fill:#13b1d5"
       id="circle1" />
    <path
       fill="#f8f8f2"
       fill-rule="evenodd"
       d="M11.174 284.3c-.44.067-.654 2.79-.458 3.158.337-.22.838-1.27.995-1.627-.122.332-.275 1.906-.212 1.925.132.178 1.935-2.794 1.411-3.006-.075-.03-.581.899-1.003 1.846.005-.405.333-1.63.2-2.002-.268-.079-.775 1.084-.983 1.629-.065-.277.285-1.789.05-1.923zm-3.976.287c-.134.003-.238.044-.275.043-.854.12-.598 1.317-.236 2.439.03.287-.268.167-.462-.134-.656-1.605-.945-1.553-1.128-1.6-.175-.036-.784.284-.77.933.002.187.234 1.066.236 1.338-.769 1.32-1.082 2.627-.118 3.978.971 1.288 3.863 1.33 4.38 1.027.197-.138 3.148-1.592 3.828-2.156 1.014-.839-.026-1.895-.27-2.042-2.101-1.374-4.248-1.088-4.276-1.306-.015-.252-.006-.952-.043-1.2-.142-1.158-.573-1.327-.866-1.32zm2.848 4.295c-.074.404-.885 1.306-1.137 1.568.19-.214 1.672-1.015 1.714-.962.216.054-1.76 2.618-2.158 2.217-.058-.058.437-.77 1.247-1.392-.372.16-1.452.753-1.846.773-.177-.215.957-.935 1.199-1.35-.28.047-1.759.742-1.973.578-.109-.432 2.484-1.187 2.954-1.432z"
       id="path1" />
  </g>
</svg>
