<?xml version="1.0" encoding="UTF-8" standalone="no"?>
<svg
   width="64"
   height="64"
   version="1.1"
   id="svg531"
   sodipodi:docname="xfce4-taskbar.svg"
   inkscape:version="1.2.2 (b0a8486541, 2022-12-01)"
   xmlns:inkscape="http://www.inkscape.org/namespaces/inkscape"
   xmlns:sodipodi="http://sodipodi.sourceforge.net/DTD/sodipodi-0.dtd"
   xmlns="http://www.w3.org/2000/svg"
   xmlns:svg="http://www.w3.org/2000/svg">
  <defs
     id="defs535" />
  <sodipodi:namedview
     id="namedview533"
     pagecolor="#505050"
     bordercolor="#eeeeee"
     borderopacity="1"
     inkscape:showpageshadow="0"
     inkscape:pageopacity="0"
     inkscape:pagecheckerboard="0"
     inkscape:deskcolor="#505050"
     showgrid="false"
     inkscape:zoom="15.921875"
     inkscape:cx="29.83317"
     inkscape:cy="32.031403"
     inkscape:window-width="1280"
     inkscape:window-height="1361"
     inkscape:window-x="0"
     inkscape:window-y="0"
     inkscape:window-maximized="0"
     inkscape:current-layer="svg531" />
  <path
     fill="#f8f8f2"
     d="M8.953 46.002A27 27 0 0 1 5 32 27 27 0 0 1 32 5a27 27 0 0 1 27 27 27 27 0 0 1-3.943 14.002 27 27 0 0 1-.002 0z"
     style="paint-order:stroke fill markers;fill:#f8f8f2"
     id="path513" />
  <path
     fill="#717380"
     d="M32 59A27 27 0 0 1 8.953 46.002h46.104A27 27 0 0 1 32.002 59z"
     style="paint-order:stroke markers fill;fill:#717380"
     id="path515" />
  <g
     fill="#cbcccc"
     id="g523"
     style="fill:#cbcccc">
    <path
       d="M8.467 6.238a3.44 3.44 0 0 0-3.44 3.44 3.44 3.44 0 0 0 3.44 3.439 3.44 3.44 0 0 0 3.44-3.44 3.44 3.44 0 0 0-3.44-3.44zm0 1.393a2.046 2.046 0 0 1 2.046 2.046 2.046 2.046 0 0 1-2.046 2.045 2.046 2.046 0 0 1-2.046-2.045 2.046 2.046 0 0 1 2.046-2.046z"
       opacity=".15"
       style="paint-order:stroke markers fill;fill:#cbcccc"
       transform="matrix(3.7796 0 0 -3.7796 0 64)"
       id="path517" />
    <path
       d="M8.467 6.766a2.91 2.91 0 0 0-2.91 2.91 2.91 2.91 0 0 0 2.91 2.911 2.91 2.91 0 0 0 2.91-2.91 2.91 2.91 0 0 0-2.91-2.91zm0 1.323a1.587 1.587 0 0 1 1.587 1.588 1.587 1.587 0 0 1-1.587 1.587 1.587 1.587 0 0 1-1.588-1.587 1.587 1.587 0 0 1 1.588-1.588z"
       style="paint-order:stroke markers fill;fill:#cbcccc"
       transform="matrix(3.7796 0 0 -3.7796 0 64)"
       id="path519" />
    <path
       d="M7.938 5.576h1.058v1.852H7.938zm0 6.35h1.058v1.852H7.938zm4.63-2.778v1.058h-1.852V9.148zm-6.35 0v1.058H4.366V9.148zm5.522 3.055-.747.748-1.31-1.31.748-.748zm-4.49-4.49-.747.748-1.31-1.31.748-.748zm-1.309 5.238-.748-.748 1.31-1.31.748.748zm4.49-4.49-.748-.748 1.31-1.31.748.748z"
       style="paint-order:stroke markers fill;fill:#cbcccc"
       transform="matrix(3.7796 0 0 -3.7796 0 64)"
       id="path521" />
  </g>
  <path
     d="M20 48a3 3 0 0 0-3 3 3 3 0 0 0 3 3 3 3 0 0 0 3-3 3 3 0 0 0-3-3zm0 1a2 2 0 0 1 2 2 2 2 0 0 1-2 2 2 2 0 0 1-2-2 2 2 0 0 1 2-2z"
     opacity=".35"
     style="paint-order:fill markers stroke"
     id="path525" />
  <rect
     width="10"
     height="4"
     x="25"
     y="49"
     opacity=".35"
     rx="1"
     ry="1"
     style="paint-order:fill markers stroke"
     id="rect527" />
  <rect
     width="10"
     height="4"
     x="36"
     y="49"
     opacity=".5"
     rx="1"
     ry="1"
     style="paint-order:fill markers stroke"
     id="rect529" />
</svg>
