<?xml version="1.0" encoding="UTF-8" standalone="no"?>
<svg
   width="64"
   height="64"
   version="1.1"
   id="svg24"
   sodipodi:docname="xfce4-fsguard-plugin-warning.svg"
   inkscape:version="1.3.2 (091e20ef0f, 2023-11-25, custom)"
   xmlns:inkscape="http://www.inkscape.org/namespaces/inkscape"
   xmlns:sodipodi="http://sodipodi.sourceforge.net/DTD/sodipodi-0.dtd"
   xmlns:xlink="http://www.w3.org/1999/xlink"
   xmlns="http://www.w3.org/2000/svg"
   xmlns:svg="http://www.w3.org/2000/svg">
  <sodipodi:namedview
     id="namedview24"
     pagecolor="#505050"
     bordercolor="#f8f8f2"
     borderopacity="1"
     inkscape:showpageshadow="0"
     inkscape:pageopacity="0"
     inkscape:pagecheckerboard="1"
     inkscape:deskcolor="#505050"
     inkscape:zoom="12.453125"
     inkscape:cx="32"
     inkscape:cy="32"
     inkscape:window-width="1920"
     inkscape:window-height="1013"
     inkscape:window-x="0"
     inkscape:window-y="0"
     inkscape:window-maximized="1"
     inkscape:current-layer="g24" />
  <defs
     id="defs4">
    <linearGradient
       id="a">
      <stop
         offset="0"
         id="stop1" />
      <stop
         offset="1"
         stop-color="#282a36"
         id="stop2" />
    </linearGradient>
    <linearGradient
       id="b"
       x1="5"
       x2="5"
       y1="6"
       y2="4"
       gradientTransform="translate(27 22)"
       gradientUnits="userSpaceOnUse">
      <stop
         offset="0"
         stop-color="#E2E096"
         id="stop3" />
      <stop
         offset="1"
         stop-color="#F9F8D2"
         id="stop4" />
    </linearGradient>
  </defs>
  <path
     fill="#cbcccc"
     d="M54 53c0 2.991-2.121 5-5 5H15c-2.878 0-5-2.009-5-5V11c0-2.991 2.122-5 5-5h34c2.878 0 5 2.009 5 5z"
     id="path4" />
  <path
     fill="#717380"
     d="M51 11a2 2 0 1 1-4 0 2 2 0 0 1 4 0z"
     id="path5" />
  <path
     fill="#f8f8f2"
     d="M50 11a1 1 0 1 0-2 0 1 1 0 0 0 2 0z"
     id="path6" />
  <path
     fill="#717380"
     d="M17 11a2 2 0 1 1-4 0 2 2 0 0 1 4 0z"
     id="path7" />
  <path
     fill="#f8f8f2"
     d="M16 11a1 1 0 1 0-2 0 1 1 0 0 0 2 0z"
     id="path8" />
  <path
     fill="#9ea0a6"
     d="M14 39h-4v14c0 2.873 2.169 5 5 5h18v-9c-7.752-.5-14.611-4.25-19-10z"
     id="path9" />
  <path
     fill="#44475a"
     fill-rule="evenodd"
     d="M48 27.122C48 35.837 40.837 43 32 43s-16-7.163-16-15.878C16 18.164 23.163 11 32 11s16 7.164 16 16.122"
     id="path10" />
  <path
     fill="#f8f8f2"
     fill-rule="evenodd"
     d="M18.292 17.277 25 12l14.387 30.27 6.486-5.495Z"
     opacity=".1"
     id="path11" />
  <use
     xlink:href="#a"
     width="100%"
     height="100%"
     fill="#1a1a1a"
     fill-rule="evenodd"
     transform="translate(27 22)"
     id="use11" />
  <path
     fill="#f8f8f2"
     fill-rule="evenodd"
     d="M29.432 31.297a5.023 5.023 0 0 1-1.922-2.094l8.979-4.408a5.02 5.02 0 0 0-1.399-1.722l-5.657 8.223z"
     opacity=".1"
     id="path12" />
  <path
     fill="#717380"
     fill-rule="evenodd"
     d="M32 30a3 3 0 1 1 0-6 3 3 0 0 1 0 6z"
     id="path13" />
  <path
     fill="url(#b)"
     fill-rule="evenodd"
     d="M33 27a1 1 0 1 1-2 0 1 1 0 0 1 2 0"
     id="path14" />
  <path
     fill="gray"
     d="M32 10c-9.388 0-17 7.61-17 17 0 9.388 7.612 17 17 17s17-7.612 17-17c0-9.39-7.612-17-17-17zm10.417 27.418a14.714 14.714 0 0 1-4.683 3.159A14.646 14.646 0 0 1 32 41.732c-1.99 0-3.92-.388-5.734-1.155a14.714 14.714 0 0 1-4.683-3.16A14.67 14.67 0 0 1 17.266 27a14.676 14.676 0 0 1 4.316-10.417 14.658 14.658 0 0 1 4.684-3.16A14.632 14.632 0 0 1 32 12.268c1.99 0 3.92.39 5.734 1.157a14.655 14.655 0 0 1 4.683 3.158A14.676 14.676 0 0 1 46.734 27a14.673 14.673 0 0 1-4.316 10.418z"
     id="path15" />
  <path
     fill="#f8f8f2"
     d="m25.298 50.578 12.326-15.323c.176-.205.282-.468.282-.755 0-.643-.533-1.165-1.191-1.165-.293 0-.562.102-.77.276L20.301 45.685a3.47 3.47 0 0 0-1.452 2.815c0 1.935 1.6 3.5 3.574 3.5a3.59 3.59 0 0 0 2.875-1.422z"
     id="path16" />
  <g
     fill="#9ea0a6"
     fill-rule="evenodd"
     transform="matrix(-1 0 0 1 44.75 49.25)"
     id="g20">
    <rect
       width="1"
       height="7"
       rx=".5"
       id="rect16" />
    <rect
       width="1"
       height="7"
       x="2"
       rx=".5"
       id="rect17" />
    <rect
       width="1"
       height="7"
       x="4"
       rx=".5"
       id="rect18" />
    <rect
       width="1"
       height="7"
       x="6"
       rx=".5"
       id="rect19" />
    <rect
       width="1"
       height="7"
       x="8"
       rx=".5"
       id="rect20" />
  </g>
  <path
     fill="#717380"
     d="M51 53a2 2 0 1 1-4 0 2 2 0 0 1 4 0z"
     id="path20" />
  <path
     fill="#f8f8f2"
     d="M50 53a1 1 0 1 0-2 0 1 1 0 0 0 2 0z"
     id="path21" />
  <path
     fill="#717380"
     d="M17 53a2 2 0 1 1-4 0 2 2 0 0 1 4 0z"
     id="path22" />
  <path
     fill="#f8f8f2"
     d="M16 53a1 1 0 1 0-2 0 1 1 0 0 0 2 0z"
     id="path23" />
  <g
     stroke-linecap="square"
     transform="translate(-2 2)"
     id="g24">
    <circle
       cx="48"
       cy="48"
       r="14"
       fill="#fd7e7c"
       style="paint-order:stroke fill markers;fill:#ff5555"
       id="circle23" />
    <rect
       width="2"
       height="12"
       x="47"
       y="40"
       fill="#f8f8f2"
       rx="1"
       ry="1"
       style="paint-order:stroke fill markers"
       id="rect23" />
    <circle
       cx="48"
       cy="55"
       r="1"
       fill="#f8f8f2"
       style="paint-order:stroke fill markers"
       id="circle24" />
  </g>
</svg>
