<?xml version="1.0" encoding="UTF-8" standalone="no"?>
<svg
   width="64"
   height="64"
   version="1.1"
   id="svg4"
   sodipodi:docname="xfce4-taskbar.svg"
   inkscape:version="1.3.2 (091e20ef0f, 2023-11-25, custom)"
   xmlns:inkscape="http://www.inkscape.org/namespaces/inkscape"
   xmlns:sodipodi="http://sodipodi.sourceforge.net/DTD/sodipodi-0.dtd"
   xmlns="http://www.w3.org/2000/svg"
   xmlns:svg="http://www.w3.org/2000/svg">
  <defs
     id="defs4" />
  <sodipodi:namedview
     id="namedview4"
     pagecolor="#505050"
     bordercolor="#f8f8f2"
     borderopacity="1"
     inkscape:showpageshadow="0"
     inkscape:pageopacity="0"
     inkscape:pagecheckerboard="1"
     inkscape:deskcolor="#505050"
     inkscape:zoom="12.453125"
     inkscape:cx="32"
     inkscape:cy="32"
     inkscape:window-width="1920"
     inkscape:window-height="1013"
     inkscape:window-x="0"
     inkscape:window-y="0"
     inkscape:window-maximized="1"
     inkscape:current-layer="svg4" />
  <rect
     x="2"
     y="8"
     width="60"
     height="48"
     rx="7"
     ry="7"
     fill="#f8f8f2"
     fill-rule="evenodd"
     id="rect1" />
  <path
     d="M2 46.002V50c0 3.324 2.676 6 6 6h48c3.324 0 6-2.676 6-6v-3.998z"
     fill="#717380"
     stroke-width="3.78"
     style="paint-order:stroke markers fill;fill:#717380"
     id="path1" />
  <path
     d="m10 48a3 3 0 0 0-3 3 3 3 0 0 0 3 3 3 3 0 0 0 3-3 3 3 0 0 0-3-3zm0 1a2 2 0 0 1 2 2 2 2 0 0 1-2 2 2 2 0 0 1-2-2 2 2 0 0 1 2-2z"
     opacity=".35"
     style="paint-order:fill markers stroke"
     id="path2" />
  <rect
     x="45"
     y="49"
     width="11"
     height="4"
     rx="1"
     ry="1"
     opacity=".35"
     stroke-width=".82916"
     style="paint-order:fill markers stroke"
     id="rect2" />
  <rect
     x="31"
     y="49"
     width="11"
     height="4"
     rx="1"
     ry="1"
     opacity=".35"
     stroke-width=".82916"
     style="paint-order:fill markers stroke"
     id="rect3" />
  <rect
     x="17"
     y="49"
     width="11"
     height="4"
     rx="1"
     ry="1"
     opacity=".35"
     stroke-width=".82916"
     style="paint-order:fill markers stroke"
     id="rect4" />
</svg>
