<?xml version="1.0" encoding="UTF-8" standalone="no"?>
<svg
   width="64"
   height="64"
   version="1.1"
   viewBox="0 0 64 64"
   id="svg14"
   sodipodi:docname="xournal.svg"
   inkscape:version="1.2.2 (732a01da63, 2022-12-09)"
   xmlns:inkscape="http://www.inkscape.org/namespaces/inkscape"
   xmlns:sodipodi="http://sodipodi.sourceforge.net/DTD/sodipodi-0.dtd"
   xmlns="http://www.w3.org/2000/svg"
   xmlns:svg="http://www.w3.org/2000/svg">
  <defs
     id="defs18" />
  <sodipodi:namedview
     id="namedview16"
     pagecolor="#505050"
     bordercolor="#eeeeee"
     borderopacity="1"
     inkscape:showpageshadow="0"
     inkscape:pageopacity="0"
     inkscape:pagecheckerboard="0"
     inkscape:deskcolor="#505050"
     showgrid="false"
     inkscape:zoom="15.921875"
     inkscape:cx="28.98528"
     inkscape:cy="32.062807"
     inkscape:window-width="2560"
     inkscape:window-height="1373"
     inkscape:window-x="-9"
     inkscape:window-y="-9"
     inkscape:window-maximized="1"
     inkscape:current-layer="svg14" />
  <path
     d="m32 5c14.912 0 27 12.088 27 27s-12.088 27-27 27-27-12.088-27-27 12.088-27 27-27z"
     fill="#f8f8f2"
     stroke-width=".99999"
     id="path2"
     style="fill:#f8f8f2" />
  <g
     transform="matrix(1.3333 0 0 1.3333 .0034045 .0014748)"
     id="g12">
    <path
       d="m19.598 12.742 13.813 15.75c2.035 2.449-1.773 2.801-2.605 2.59l-14.406-16.496c-1.895-2.078 1.93-2.852 3.199-1.844"
       fill="#2d2d2d"
       id="path4"
       style="fill:#282a36" />
    <path
       d="m28.21 14.617-5.676 6.453-7.762 11.211c-2.559 5.863 1.937 3.457 2.781 1.742l6.645-10.91 8.04-8.336c1.559-2.449-1.012-4.707-4.04-0.16"
       fill="#2d2d2d"
       id="path6"
       style="fill:#282a36" />
    <path
       d="m16.555 33.922c1.168 0.223 1.582 0.313 2.305-0.133-0.074 0.43-0.148 0.855-0.223 1.285-0.707 0.223-1.418 0.488-2.125-0.133"
       fill="#2d2d2d"
       id="path8"
       style="fill:#282a36" />
    <path
       d="m31.27 20.01-11.697 10.734-1.57 4.258 4.367-1.289 0.012 0.012 0.023-0.023h4e-3l11.578-10.75s0.192-0.637-0.979-1.883c-0.85-0.899-1.478-1.043-1.738-1.059z"
       fill="#3686dd"
       id="path10"
       style="fill:#168daa" />
  </g>
</svg>
