<?xml version="1.0" encoding="UTF-8" standalone="no"?>
<svg
   width="64"
   height="64"
   viewBox="0 0 16.933 16.933"
   version="1.1"
   id="svg3"
   sodipodi:docname="xterm-color.svg"
   inkscape:version="1.3.2 (091e20ef0f, 2023-11-25, custom)"
   xmlns:inkscape="http://www.inkscape.org/namespaces/inkscape"
   xmlns:sodipodi="http://sodipodi.sourceforge.net/DTD/sodipodi-0.dtd"
   xmlns="http://www.w3.org/2000/svg"
   xmlns:svg="http://www.w3.org/2000/svg">
  <sodipodi:namedview
     id="namedview3"
     pagecolor="#505050"
     bordercolor="#ffffff"
     borderopacity="1"
     inkscape:showpageshadow="0"
     inkscape:pageopacity="0"
     inkscape:pagecheckerboard="1"
     inkscape:deskcolor="#505050"
     inkscape:zoom="12.453125"
     inkscape:cx="32"
     inkscape:cy="32"
     inkscape:window-width="1920"
     inkscape:window-height="1013"
     inkscape:window-x="0"
     inkscape:window-y="0"
     inkscape:window-maximized="1"
     inkscape:current-layer="svg3" />
  <defs
     id="defs2">
    <linearGradient
       id="a"
       x1="47"
       x2="59.998"
       y1="41"
       y2="53.978"
       gradientTransform="translate(-.004 .27) scale(.26458)"
       gradientUnits="userSpaceOnUse">
      <stop
         offset="0"
         id="stop1" />
      <stop
         offset="1"
         stop-color="#242424"
         stop-opacity="0"
         id="stop2" />
    </linearGradient>
  </defs>
  <rect
     width="14.816"
     height="12.171"
     x="1.058"
     y="2.381"
     fill="#5d6065"
     rx="1.372"
     ry="1.323"
     id="rect2"
     style="fill:#717380" />
  <path
     fill="url(#a)"
     d="m15.872 9.215-5.337 5.337h4.767c.316 0 .57-.238.57-.535z"
     opacity=".15"
     id="path2" />
  <rect
     width="4.233"
     height=".529"
     x="5.292"
     y="9.526"
     fill="#3faec7"
     ry=".265"
     style="paint-order:stroke markers fill;fill:#8be9fd"
     id="rect3" />
  <path
     fill="#3faec7"
     d="M3.973 4.726a.264.264 0 0 0-.262.13.264.264 0 0 0 .097.362l2.842 1.64-2.842 1.64a.264.264 0 0 0-.097.363c.074.127.235.17.362.097L7.28 7.106a.26.26 0 0 0 .127-.225c.002-.008 0-.015.002-.022 0-.008 0-.015-.002-.023a.26.26 0 0 0-.127-.224L4.073 4.759a.266.266 0 0 0-.1-.033z"
     style="paint-order:stroke markers fill;fill:#8be9fd"
     id="path3" />
</svg>
