<?xml version="1.0" encoding="UTF-8" standalone="no"?>
<svg
   width="64"
   height="64"
   version="1.1"
   id="svg39053"
   sodipodi:docname="yast-software-group.svg"
   inkscape:version="1.2.2 (b0a8486541, 2022-12-01)"
   xmlns:inkscape="http://www.inkscape.org/namespaces/inkscape"
   xmlns:sodipodi="http://sodipodi.sourceforge.net/DTD/sodipodi-0.dtd"
   xmlns="http://www.w3.org/2000/svg"
   xmlns:svg="http://www.w3.org/2000/svg">
  <defs
     id="defs39057" />
  <sodipodi:namedview
     id="namedview39055"
     pagecolor="#505050"
     bordercolor="#eeeeee"
     borderopacity="1"
     inkscape:showpageshadow="0"
     inkscape:pageopacity="0"
     inkscape:pagecheckerboard="0"
     inkscape:deskcolor="#505050"
     showgrid="false"
     inkscape:zoom="15.921875"
     inkscape:cx="27.76055"
     inkscape:cy="32.031403"
     inkscape:window-width="2560"
     inkscape:window-height="1361"
     inkscape:window-x="0"
     inkscape:window-y="0"
     inkscape:window-maximized="1"
     inkscape:current-layer="svg39053" />
  <g
     id="g39047">
    <circle
       cx="32"
       cy="32"
       r="27"
       fill="#44c367"
       stroke-width="3.7796"
       style="paint-order:stroke fill markers"
       id="circle39041" />
    <path
       d="m32 5a27 27 0 0 0-27 27 27 27 0 0 0 18.699 25.678 38.322 38.322 0 0 0 35.086-28.803 27 27 0 0 0-26.785-23.875z"
       fill="#50fa7b"
       stroke-width="5.3645"
       style="paint-order:stroke fill markers;fill:#f8f8f2;opacity:0.25"
       id="path39043" />
    <path
       d="m32 5a27 27 0 0 0-24.553 15.832 33.136 33.136 0 0 0 32.859 29.199 33.136 33.136 0 0 0 14.271-3.2656 27 27 0 0 0 4.4218-14.766 27 27 0 0 0-27-27z"
       fill="#44c367"
       opacity=".1"
       stroke-width="4.6387"
       style="paint-order:stroke fill markers;opacity:0.8"
       id="path39045" />
  </g>
  <path
     d="m20.002 15.001a12 12 0 0 0 12 12 12 12 0 0 0 12-12h-3.001a8.9992 8.9992 0 0 1-8.9992 8.9992 8.9992 8.9992 0 0 1-9.003-8.9992z"
     fill="#f8f8f2"
     stroke-width="3.7796"
     style="paint-order:stroke markers fill"
     id="path39049" />
  <path
     d="m37 40v10h10v-10zm2 2h2v2h2v-2h2v4h-2v2h-2v-2h-2z"
     fill="#f8f8f2"
     id="path39051" />
</svg>
