<?xml version="1.0" encoding="UTF-8" standalone="no"?>
<svg
   width="64"
   height="64"
   version="1.1"
   id="svg5"
   sodipodi:docname="yast-upgrade.svg"
   inkscape:version="1.3.2 (091e20ef0f, 2023-11-25, custom)"
   xmlns:inkscape="http://www.inkscape.org/namespaces/inkscape"
   xmlns:sodipodi="http://sodipodi.sourceforge.net/DTD/sodipodi-0.dtd"
   xmlns="http://www.w3.org/2000/svg"
   xmlns:svg="http://www.w3.org/2000/svg">
  <defs
     id="defs5" />
  <sodipodi:namedview
     id="namedview5"
     pagecolor="#505050"
     bordercolor="#f8f8f2"
     borderopacity="1"
     inkscape:showpageshadow="0"
     inkscape:pageopacity="0"
     inkscape:pagecheckerboard="1"
     inkscape:deskcolor="#505050"
     inkscape:zoom="12.453125"
     inkscape:cx="32"
     inkscape:cy="32"
     inkscape:window-width="1920"
     inkscape:window-height="1013"
     inkscape:window-x="0"
     inkscape:window-y="0"
     inkscape:window-maximized="1"
     inkscape:current-layer="svg5" />
  <rect
     width="52"
     height="52"
     x="6"
     y="6"
     fill="#44c367"
     fill-rule="evenodd"
     rx="8"
     ry="8"
     id="rect1"
     style="fill:#44c367" />
  <path
     fill="#f8f8f2"
     d="M6 41v9c0 4.432 3.568 8 8 8h36c4.432 0 8-3.568 8-8v-9z"
     opacity=".5"
     style="paint-order:stroke fill markers"
     id="path1" />
  <path
     fill="#282a36"
     d="M32 45c-1.662 0-3 1.338-3 3s1.338 3 3 3a2.993 2.993 0 0 0 2.813-2h8.375A2.99 2.99 0 0 0 49 48c0-1.662-1.338-3-3-3a2.993 2.993 0 0 0-2.813 2h-8.375A2.99 2.99 0 0 0 32 45"
     opacity=".2"
     id="path2" />
  <path
     d="M34.81 49h8.375a2.99 2.99 0 0 0 5.813-1c0-1.662-1.338-3-3-3a2.993 2.993 0 0 0-2.813 2H34.81c.188 1 .188 1 0 2"
     opacity=".5"
     id="path3" />
  <path
     fill="#44c367"
     d="M18 45c-1.662 0-3 1.338-3 3s1.338 3 3 3a2.993 2.993 0 0 0 2.813-2h8.375A2.99 2.99 0 0 0 35 48c0-1.662-1.338-3-3-3a2.993 2.993 0 0 0-2.813 2h-8.375A2.99 2.99 0 0 0 18 45"
     id="path4"
     style="fill:#44c367" />
  <path
     fill="#f8f8f2"
     d="M30.286 38V20.857l-7.714 7.714L20 26l12-12 12 12-2.571 2.571-7.714-7.714V38z"
     id="path5" />
</svg>
