<?xml version="1.0" encoding="UTF-8" standalone="no"?>
<svg
   xml:space="preserve"
   width="64"
   height="64"
   version="1.1"
   id="svg17"
   sodipodi:docname="yuzu.svg"
   inkscape:version="1.2.2 (b0a8486541, 2022-12-01)"
   xmlns:inkscape="http://www.inkscape.org/namespaces/inkscape"
   xmlns:sodipodi="http://sodipodi.sourceforge.net/DTD/sodipodi-0.dtd"
   xmlns="http://www.w3.org/2000/svg"
   xmlns:svg="http://www.w3.org/2000/svg"><sodipodi:namedview
     id="namedview19"
     pagecolor="#505050"
     bordercolor="#eeeeee"
     borderopacity="1"
     inkscape:showpageshadow="0"
     inkscape:pageopacity="0"
     inkscape:pagecheckerboard="0"
     inkscape:deskcolor="#505050"
     showgrid="false"
     inkscape:zoom="15.921875"
     inkscape:cx="29.895976"
     inkscape:cy="32.031403"
     inkscape:window-width="2560"
     inkscape:window-height="1361"
     inkscape:window-x="0"
     inkscape:window-y="0"
     inkscape:window-maximized="1"
     inkscape:current-layer="svg17" /><defs
     id="defs5"><clipPath
       id="a"><path
         fill="none"
         d="M-43-46.67h699.6v777.33H-43Z"
         id="path2" /></clipPath></defs><rect
     width="54"
     height="54"
     x="5"
     y="5"
     fill="#f8f8f2"
     ry="27"
     style="fill:#44475a;fill-opacity:1;stroke:none"
     id="rect7" /><g
     class="cls-2"
     clip-path="url(#a)"
     transform="translate(12.126 9.845) scale(.06478)"
     id="g11"><path
       fill="#ff3c28"
       d="M340.81 138v544.08c150.26 0 272.06-121.81 272.06-272.06S491.07 138 340.81 138M394 197.55a219.06 219.06 0 0 1 0 424.94V197.55"
       id="path9"
       style="fill:#ff5555" /></g><g
     class="cls-2"
     clip-path="url(#a)"
     transform="translate(12.126 9.845) scale(.06478)"
     id="g15"><path
       fill="#0ab9e6"
       d="M272.79 1.92C122.53 1.92.73 123.73.73 274c0 150.27 121.8 272.07 272.06 272.07zm-53.14 59.59v425A219 219 0 0 1 118 119.18a217.51 217.51 0 0 1 101.65-57.67"
       id="path13"
       style="fill:#13b1d5" /></g></svg>
