<?xml version="1.0" encoding="UTF-8" standalone="no"?>
<svg
   width="64"
   height="64"
   version="1.1"
   id="svg6"
   sodipodi:docname="Zoom.svg"
   inkscape:version="1.2.2 (b0a8486541, 2022-12-01)"
   xmlns:inkscape="http://www.inkscape.org/namespaces/inkscape"
   xmlns:sodipodi="http://sodipodi.sourceforge.net/DTD/sodipodi-0.dtd"
   xmlns="http://www.w3.org/2000/svg"
   xmlns:svg="http://www.w3.org/2000/svg">
  <defs
     id="defs10" />
  <sodipodi:namedview
     id="namedview8"
     pagecolor="#505050"
     bordercolor="#eeeeee"
     borderopacity="1"
     inkscape:showpageshadow="0"
     inkscape:pageopacity="0"
     inkscape:pagecheckerboard="0"
     inkscape:deskcolor="#505050"
     showgrid="false"
     inkscape:zoom="15.921875"
     inkscape:cx="29.895976"
     inkscape:cy="32.031403"
     inkscape:window-width="2560"
     inkscape:window-height="1361"
     inkscape:window-x="0"
     inkscape:window-y="0"
     inkscape:window-maximized="1"
     inkscape:current-layer="svg6" />
  <rect
     x="4"
     y="4"
     width="56"
     height="56"
     rx="28"
     ry="28"
     fill="#4992fd"
     id="rect2"
     style="fill:#6272a4" />
  <path
     d="m17.166 22c-1.2003 0-2.166 0.95547-2.166 2.1426v12.143c0 3.1656 2.5765 5.7148 5.7773 5.7148h18.057c1.2003 0 2.166-0.95547 2.166-2.1426v-12.143c0-3.1656-2.5765-5.7148-5.7773-5.7148h-14.445zm31.564 0.0039c-0.42486-0.03143-0.90846 0.17568-1.3691 0.63477-1.6201 1.6144-3.5196 2.9767-4.8477 4.9062-0.54689 0.7946-0.50937 1.8466-0.51367 2.8359-0.0024 0.54283 0.0028 1.0835 0 1.6191 0.0028 0.53569-0.0024 1.0763 0 1.6191 0.0043 0.98936-0.03322 2.0413 0.51367 2.8359 1.328 1.9296 3.2276 3.2918 4.8477 4.9062 0.46068 0.45908 0.94428 0.66619 1.3691 0.63477 0.70809-0.05239 1.252-0.77105 1.252-2.1035 0-2.6086 0.0382-5.2482 0-7.8926 0.0382-2.6443 0-5.284 0-7.8926 0-1.3325-0.54386-2.0511-1.252-2.1035z"
     fill="#f8f8f2"
     id="path4"
     style="fill:#f8f8f2" />
</svg>
