<?xml version="1.0" encoding="UTF-8" standalone="no"?>
<svg
   width="16"
   height="16"
   version="1.1"
   id="svg2"
   sodipodi:docname="call-stop-symbolic.svg"
   inkscape:version="1.3.2 (091e20ef0f, 2023-11-25, custom)"
   xmlns:inkscape="http://www.inkscape.org/namespaces/inkscape"
   xmlns:sodipodi="http://sodipodi.sourceforge.net/DTD/sodipodi-0.dtd"
   xmlns="http://www.w3.org/2000/svg"
   xmlns:svg="http://www.w3.org/2000/svg">
  <defs
     id="defs2" />
  <sodipodi:namedview
     id="namedview2"
     pagecolor="#505050"
     bordercolor="#ffffff"
     borderopacity="1"
     inkscape:showpageshadow="0"
     inkscape:pageopacity="0"
     inkscape:pagecheckerboard="1"
     inkscape:deskcolor="#505050"
     inkscape:zoom="49.8125"
     inkscape:cx="8"
     inkscape:cy="8"
     inkscape:window-width="1920"
     inkscape:window-height="1013"
     inkscape:window-x="0"
     inkscape:window-y="0"
     inkscape:window-maximized="1"
     inkscape:current-layer="svg2" />
  <path
     style="fill:#f8f8f2"
     d="M 4.5,11 7.5,14 C 7.5,14 8,14.5 8.5,14 L 11.5,11 Z"
     id="path1" />
  <path
     style="fill:#13b1d5"
     class="warning"
     d="M 8.14,2.0141 C 5.47,1.9741 2.89,3.0211 0.99,4.9141 L 0.29,5.6151 C -0.1,6.0031 -0.1,6.6291 0.29,7.0181 L 2.39,9.1191 C 2.78,9.5071 3.41,9.5071 3.8,9.1191 L 5,7.9161 V 5.6581 5.6581 L 5.2,5.5761 C 6.98,4.7911 9.02,4.7941 10.801,5.5861 L 11.001,5.6591 V 5.6591 7.9161 L 12.211,9.1191 C 12.59,9.5081 13.221,9.5081 13.61,9.1191 L 15.711,7.0181 C 16.1,6.6301 16.1,6.0041 15.711,5.6161 L 15.01,4.9141 C 13.18,3.0921 10.721,2.0511 8.14,2.0141 Z"
     id="path2" />
</svg>
