<?xml version="1.0" encoding="UTF-8" standalone="no"?>
<svg
   width="64"
   height="64"
   version="1"
   id="svg3"
   sodipodi:docname="smartphone.svg"
   inkscape:version="1.3.2 (091e20ef0f, 2023-11-25, custom)"
   xmlns:inkscape="http://www.inkscape.org/namespaces/inkscape"
   xmlns:sodipodi="http://sodipodi.sourceforge.net/DTD/sodipodi-0.dtd"
   xmlns="http://www.w3.org/2000/svg"
   xmlns:svg="http://www.w3.org/2000/svg">
  <defs
     id="defs3" />
  <sodipodi:namedview
     id="namedview3"
     pagecolor="#505050"
     bordercolor="#ffffff"
     borderopacity="1"
     inkscape:showpageshadow="0"
     inkscape:pageopacity="0"
     inkscape:pagecheckerboard="1"
     inkscape:deskcolor="#505050"
     inkscape:zoom="12.453125"
     inkscape:cx="32"
     inkscape:cy="32"
     inkscape:window-width="1920"
     inkscape:window-height="1013"
     inkscape:window-x="0"
     inkscape:window-y="0"
     inkscape:window-maximized="1"
     inkscape:current-layer="svg3" />
  <rect
     x="13"
     width="38"
     height="64"
     rx="5"
     ry="5"
     fill="#44475a"
     stroke-linecap="round"
     stroke-linejoin="round"
     stroke-width="10.902"
     style="paint-order:stroke fill markers"
     id="rect1" />
  <rect
     x="15"
     y="2"
     width="34"
     height="60"
     rx="3"
     ry="3"
     fill="#6272a4"
     stroke-linecap="round"
     stroke-linejoin="round"
     stroke-width="9.9852"
     style="paint-order:stroke fill markers;fill:#9576c5"
     id="rect2" />
  <circle
     cx="32"
     cy="4"
     r="1"
     fill="#282a36"
     stroke-linecap="round"
     stroke-linejoin="round"
     stroke-width="10"
     style="paint-order:stroke fill markers"
     id="circle2" />
  <rect
     x="23"
     y="59"
     width="18"
     height="1"
     rx=".5"
     ry=".5"
     fill="#f8f8f2"
     opacity=".5"
     stroke-linecap="round"
     stroke-linejoin="round"
     stroke-width="10.29"
     style="paint-order:stroke fill markers"
     id="rect3" />
  <path
     d="M27.86 15.418l-1.36.786 1.881 3.26C24.943 21.123 24.929 25 24.929 25H39.07s-.015-3.876-3.452-5.537l1.881-3.26-1.36-.785-2.034 3.523a9.502 9.502 0 0 0-2.103-.227c-.792 0-1.483.088-2.109.227zm1 6.44a.78.78 0 0 1 .783.782.79.79 0 0 1-.783.789.786.786 0 0 1 0-1.571zm6.286 0a.78.78 0 0 1 .783.782.79.79 0 0 1-.783.789.786.786 0 0 1 0-1.571zm6.352 3.925c-.904 0-1.64.833-1.64 1.86v7.276c0 1.026.736 1.864 1.64 1.864.903 0 1.502-.838 1.502-1.864v-7.277c0-1.027-.597-1.86-1.502-1.86m-16.57.001v13.358c0 .37.416.785.786.785h2.357v2.947c0 .978.623 1.768 1.572 1.768.943 0 1.603-.792 1.571-1.768v-2.946h1.572v2.946c0 .978.622 1.768 1.571 1.768.943 0 1.572-.803 1.572-1.768v-2.946h2.357c.37 0 .785-.415.785-.786V25.784zm-2.287 0c-.904 0-1.641.833-1.641 1.86v7.276c0 1.026.737 1.864 1.64 1.864.905 0 1.503-.838 1.503-1.864v-7.277c0-1.027-.597-1.86-1.502-1.86M21.918 25.059"
     fill="#f8f8f2"
     id="path3" />
</svg>
