<?xml version="1.0" encoding="UTF-8" standalone="no"?>
<svg
   width="64"
   height="64"
   version="1.1"
   viewBox="0 0 64 64"
   id="svg5"
   sodipodi:docname="folder-torrent2.svg"
   inkscape:version="1.4.2 (ebf0e940d0, 2025-05-08)"
   xmlns:inkscape="http://www.inkscape.org/namespaces/inkscape"
   xmlns:sodipodi="http://sodipodi.sourceforge.net/DTD/sodipodi-0.dtd"
   xmlns="http://www.w3.org/2000/svg"
   xmlns:svg="http://www.w3.org/2000/svg">
  <sodipodi:namedview
     id="namedview5"
     pagecolor="#ffffff"
     bordercolor="#000000"
     borderopacity="0.25"
     inkscape:showpageshadow="2"
     inkscape:pageopacity="0.0"
     inkscape:pagecheckerboard="0"
     inkscape:deskcolor="#d1d1d1"
     inkscape:zoom="11.313709"
     inkscape:cx="33.499184"
     inkscape:cy="29.43332"
     inkscape:window-width="1920"
     inkscape:window-height="1011"
     inkscape:window-x="0"
     inkscape:window-y="32"
     inkscape:window-maximized="1"
     inkscape:current-layer="svg5" />
  <defs
     id="defs2">
    <style
       id="current-color-scheme"
       type="text/css">.ColorScheme-Text {
        color:#333333;
      }
      .ColorScheme-Background{
        color:#f8f8f2;
      }
      .ColorScheme-Highlight {
        color:#44475a;
      }</style>
    <linearGradient
       id="linearGradient892"
       x1="-197.72"
       x2="-197.72"
       y1="263.86"
       y2="273.76"
       gradientTransform="rotate(-45,-337.55,-145.8)"
       gradientUnits="userSpaceOnUse">
      <stop
         offset="0"
         id="stop1" />
      <stop
         stop-opacity="0"
         offset="1"
         id="stop2" />
    </linearGradient>
  </defs>
  <g
     transform="scale(3.7796)"
     id="g4">
    <path
       class="ColorScheme-Highlight"
       transform="scale(.26458)"
       d="m27.002 8.9844-14 0.00391c-1.1097 0-1.4926 1.0128-2.002 1.998v0.01367h-1c-2.216 0-4 1.784-4 4v5c-2.216 0-4 1.784-4 4v28c0 2.216 1.784 4 4 4h52c2.216 0 4-1.784 4-4v-32c0-2.216-1.784-4-4-4v-1c0-2.216-1.784-4-4-4h-16.859c-0.04729-0.0032-0.09249-0.01387-0.14062-0.01367h-7.9961c-0.58584-0.94113-0.8907-2.002-2.002-2.002z"
       fill="#44475a"
       id="path2" />
    <path
       id="shadow"
       d="m7.1441 2.3771-3.7041 0.00103c-0.2936 0-0.39492 0.26798-0.52967 0.52864v0.00362h-0.26458c-0.58631 0-1.0583 0.472-1.0583 1.0583v1.3229h6.6145l0.79373-1.0583h6.3499v-0.26458c0-0.58631-0.472-1.0583-1.0583-1.0583l-6.6134-0.00362c-0.155-0.249-0.23566-0.52967-0.52967-0.52967z"
       fill="#bd93f9" />
    <path
       transform="scale(.26458)"
       d="m11.016 13.984c-1.1166 0-2.0156 0.89903-2.0156 2.0156v4h22l3-4h21c0-1.1166-0.89903-2.0156-2.0156-2.0156h-41.969z"
       fill="#f8f8f2"
       id="path3" />
    <rect
       x="3.704"
       y="2.64"
       width="3.175"
       height=".529"
       rx=".2645"
       ry=".2645"
       opacity=".25"
       id="rect3" />
    <path
       transform="scale(.26458)"
       d="m62 40-16 16h12c2.216 0 4-1.784 4-4z"
       fill="url(#linearGradient892)"
       opacity=".2"
       style="fill:url(#linearGradient892)"
       id="path4" />
  </g>
  <path
     style="fill:#f8f8f2;fill-opacity:1"
     d="m 37.001691,27.52 a 12,12 0 0 0 -12,12 12,12 0 0 0 12,12 h 25 v -2 H 43.620832 37.001691 a 10,10 0 0 1 -10,-10 10,10 0 0 1 10,-10 z m 0,3 c -4.970563,0 -9,4.029437 -9,9 0,4.970563 4.029437,9 9,9 h 25 v -2 h -25 c -3.865993,0 -7,-3.134007 -7,-7 0,-3.865993 3.134007,-7 7,-7 1.038472,0.0032 2.063232,0.23733 3,0.685547 v -2.160156 c -0.96289,-0.344291 -1.977414,-0.521964 -3,-0.525391 z m 0,3 a 6,6 0 0 0 -6,6 6,6 0 0 0 6,6 h 25 v -2 h -25 a 4,4 0 0 1 -4,-4 4,4 0 0 1 4,-4 4,4 0 0 1 3.458984,2 h 2.189454 a 6,6 0 0 0 -5.648438,-4 z"
     id="path5" />
</svg>
