<?xml version="1.0" encoding="UTF-8" standalone="no"?>
<svg
   width="64"
   height="64"
   version="1.1"
   id="svg5"
   sodipodi:docname="folder-obsidian2.svg"
   inkscape:version="1.4.2 (ebf0e940d0, 2025-05-08)"
   xmlns:inkscape="http://www.inkscape.org/namespaces/inkscape"
   xmlns:sodipodi="http://sodipodi.sourceforge.net/DTD/sodipodi-0.dtd"
   xmlns="http://www.w3.org/2000/svg"
   xmlns:svg="http://www.w3.org/2000/svg">
  <sodipodi:namedview
     id="namedview5"
     pagecolor="#ffffff"
     bordercolor="#000000"
     borderopacity="0.25"
     inkscape:showpageshadow="2"
     inkscape:pageopacity="0.0"
     inkscape:pagecheckerboard="0"
     inkscape:deskcolor="#d1d1d1"
     inkscape:zoom="12.5"
     inkscape:cx="32"
     inkscape:cy="32"
     inkscape:window-width="1920"
     inkscape:window-height="1011"
     inkscape:window-x="0"
     inkscape:window-y="32"
     inkscape:window-maximized="1"
     inkscape:current-layer="svg5" />
  <defs
     id="defs2">
    <style
       id="current-color-scheme"
       type="text/css">.ColorScheme-Text {
        color:#333333;
      }
      .ColorScheme-Background{
        color:#f8f8f2;
      }
      .ColorScheme-Highlight {
        color:#44475a;
      }</style>
    <style
       type="text/css"
       id="style1" />
    <linearGradient
       id="linearGradient892"
       x1="-197.72"
       x2="-197.72"
       y1="263.86"
       y2="273.76"
       gradientTransform="rotate(-45,-337.55,-145.8)"
       gradientUnits="userSpaceOnUse">
      <stop
         offset="0"
         id="stop1" />
      <stop
         stop-opacity="0"
         offset="1"
         id="stop2" />
    </linearGradient>
  </defs>
  <g
     transform="scale(3.7796)"
     id="g4">
    <path
       class="ColorScheme-Highlight"
       transform="scale(.26458)"
       d="m27.002 8.9844-14 0.00391c-1.1097 0-1.4926 1.0128-2.002 1.998v0.01367h-1c-2.216 0-4 1.784-4 4v5c-2.216 0-4 1.784-4 4v28c0 2.216 1.784 4 4 4h52c2.216 0 4-1.784 4-4v-32c0-2.216-1.784-4-4-4v-1c0-2.216-1.784-4-4-4h-16.859c-0.04729-0.0032-0.09249-0.01387-0.14062-0.01367h-7.9961c-0.58584-0.94113-0.8907-2.002-2.002-2.002z"
       fill="#44475a"
       id="path2" />
    <path
       id="shadow"
       d="m7.1441 2.3771-3.7041 0.00103c-0.2936 0-0.39492 0.26798-0.52967 0.52864v0.00362h-0.26458c-0.58631 0-1.0583 0.472-1.0583 1.0583v1.3229h6.6145l0.79373-1.0583h6.3499v-0.26458c0-0.58631-0.472-1.0583-1.0583-1.0583l-6.6134-0.00362c-0.155-0.249-0.23566-0.52967-0.52967-0.52967z"
       fill="#bd93f9" />
    <path
       transform="scale(.26458)"
       d="m11.016 13.984c-1.1166 0-2.0156 0.89903-2.0156 2.0156v4h22l3-4h21c0-1.1166-0.89903-2.0156-2.0156-2.0156h-41.969z"
       fill="#f8f8f2"
       id="path3" />
    <rect
       x="3.704"
       y="2.64"
       width="3.175"
       height=".529"
       rx=".2645"
       ry=".2645"
       opacity=".25"
       id="rect3" />
    <path
       transform="scale(.26458)"
       d="m62 40-16 16h12c2.216 0 4-1.784 4-4z"
       fill="url(#linearGradient892)"
       opacity=".2"
       style="fill:url(#linearGradient892)"
       id="path4" />
  </g>
  <path
     style="fill:#f8f8f2;fill-opacity:1"
     d="m 32.673341,26.00141 c -0.383,0.015 -0.764,0.155 -1.074,0.426 l -5.336,4.541 c -0.292,0.261 -0.489,0.61 -0.549,0.992 l -0.52,3.361 0.44,0.24 c 1.226,0.785 2.881,2.072 3.75,4.151 v 0.002 c 0.08,0.191 0.152,0.387 0.219,0.586 0.746,-0.152 1.496,-0.258 2.24,-0.289 -0.665,-1.915 -0.891,-3.453 -0.834,-4.739 0.068,-1.533 0.534,-2.698 1.023,-3.679 0,0 0.246,-0.477 0.367,-0.705 0.36,-0.681 0.679,-1.289 0.848,-1.924 0.181,-0.695 0.207,-1.296 -0.094,-2.26 l -0.277,-0.699 c -0.067,-0.005 -0.136,-0.007 -0.203,-0.004 z m 1.547,0.795 c 0.228,0.929 0.185,1.696 -0.004,2.424 v 0.002 c -0.207,0.781 -0.574,1.453 -0.932,2.132 -0.118,0.222 -0.357,0.688 -0.357,0.688 -0.462,0.927 -0.858,1.919 -0.918,3.273 -0.053,1.205 0.181,2.726 0.91,4.709 0.683,0.049 1.358,0.177 2.018,0.418 1.83,0.667 3.485,2.186 4.802,4.944 0.556,-0.883 1.831,-2.905 2.147,-3.424 0.178,-0.296 0.141,-0.667 -0.069,-0.942 -0.55,-0.715 -1.839,-1.966 -2.414,-3.306 -0.59,-1.383 -0.397,-3.534 -0.404,-4.576 0,-0.399 -0.115,-0.797 -0.381,-1.098 z m -9.203,9.566 -2.868,6.287 c -0.285,0.626 -0.156,1.36 0.334,1.852 l 4.723,4.16 0.158,-0.31 c 2.036,-4.04 1.932,-6.265 1.098,-8.25 l -0.002,-0.002 c -0.748,-1.792 -2.205,-2.951 -3.356,-3.688 z m 7.293,4.639 c -0.114,-10e-4 -0.228,0.002 -0.342,0.006 -0.684,0.023 -1.39,0.122 -2.11,0.267 0.372,1.926 0.041,4.266 -1.601,7.526 l -0.102,0.199 c 0.05,0 1.225,-0.01 2.655,0.092 1.463,0.1 3.615,0.45 5.082,0.847 1.14,0.308 1.781,-0.587 2.443,-1.734 0.35,-0.607 0.63,-1.28 0.799,-1.703 l -0.281,-0.65 c -1.244,-2.621 -2.689,-3.897 -4.258,-4.469 -0.726,-0.264 -1.491,-0.377 -2.285,-0.381 z"
     id="path5-6" />
</svg>
