<?xml version="1.0" encoding="UTF-8" standalone="no"?>
<svg
   width="64"
   height="64"
   version="1.1"
   id="svg5"
   sodipodi:docname="folder-arduino2.svg"
   inkscape:version="1.4.2 (ebf0e940d0, 2025-05-08)"
   xmlns:inkscape="http://www.inkscape.org/namespaces/inkscape"
   xmlns:sodipodi="http://sodipodi.sourceforge.net/DTD/sodipodi-0.dtd"
   xmlns="http://www.w3.org/2000/svg"
   xmlns:svg="http://www.w3.org/2000/svg">
  <sodipodi:namedview
     id="namedview5"
     pagecolor="#ffffff"
     bordercolor="#000000"
     borderopacity="0.25"
     inkscape:showpageshadow="2"
     inkscape:pageopacity="0.0"
     inkscape:pagecheckerboard="0"
     inkscape:deskcolor="#d1d1d1"
     inkscape:zoom="12.5"
     inkscape:cx="32"
     inkscape:cy="32"
     inkscape:window-width="1920"
     inkscape:window-height="1011"
     inkscape:window-x="0"
     inkscape:window-y="32"
     inkscape:window-maximized="1"
     inkscape:current-layer="svg5" />
  <defs
     id="defs2">
    <style
       id="current-color-scheme"
       type="text/css">.ColorScheme-Text {
        color:#333333;
      }
      .ColorScheme-Background{
        color:#f8f8f2;
      }
      .ColorScheme-Highlight {
        color:#44475a;
      }</style>
    <linearGradient
       id="linearGradient892"
       x1="-197.72"
       x2="-197.72"
       y1="263.86"
       y2="273.76"
       gradientTransform="rotate(-45,-337.55,-145.8)"
       gradientUnits="userSpaceOnUse">
      <stop
         offset="0"
         id="stop1" />
      <stop
         stop-opacity="0"
         offset="1"
         id="stop2" />
    </linearGradient>
  </defs>
  <g
     transform="scale(3.7796)"
     id="g4">
    <path
       class="ColorScheme-Highlight"
       transform="scale(.26458)"
       d="m27.002 8.9844-14 0.00391c-1.1097 0-1.4926 1.0128-2.002 1.998v0.01367h-1c-2.216 0-4 1.784-4 4v5c-2.216 0-4 1.784-4 4v28c0 2.216 1.784 4 4 4h52c2.216 0 4-1.784 4-4v-32c0-2.216-1.784-4-4-4v-1c0-2.216-1.784-4-4-4h-16.859c-0.04729-0.0032-0.09249-0.01387-0.14062-0.01367h-7.9961c-0.58584-0.94113-0.8907-2.002-2.002-2.002z"
       fill="#44475a"
       id="path2" />
    <path
       id="shadow"
       d="m7.1441 2.3771-3.7041 0.00103c-0.2936 0-0.39492 0.26798-0.52967 0.52864v0.00362h-0.26458c-0.58631 0-1.0583 0.472-1.0583 1.0583v1.3229h6.6145l0.79373-1.0583h6.3499v-0.26458c0-0.58631-0.472-1.0583-1.0583-1.0583l-6.6134-0.00362c-0.155-0.249-0.23566-0.52967-0.52967-0.52967z"
       fill="#bd93f9" />
    <path
       transform="scale(.26458)"
       d="m11.016 13.984c-1.1166 0-2.0156 0.89903-2.0156 2.0156v4h22l3-4h21c0-1.1166-0.89903-2.0156-2.0156-2.0156h-41.969z"
       fill="#f8f8f2"
       id="path3" />
    <rect
       x="3.704"
       y="2.64"
       width="3.175"
       height=".529"
       rx=".2645"
       ry=".2645"
       opacity=".25"
       id="rect3" />
    <path
       transform="scale(.26458)"
       d="m62 40-16 16h12c2.216 0 4-1.784 4-4z"
       fill="url(#linearGradient892)"
       opacity=".2"
       style="fill:url(#linearGradient892)"
       id="path4" />
  </g>
  <path
     style="fill:#f8f8f2;fill-opacity:1;stroke-width:0.916606"
     d="m 25.185634,31.800381 c -0.842653,0 -1.681531,0.157543 -2.462205,0.465348 -0.780683,0.307813 -1.493619,0.761009 -2.095393,1.333803 -0.601697,0.572768 -1.083647,1.257987 -1.411757,2.01191 -0.327257,0.753747 -0.496104,1.566837 -0.496104,2.385241 0,0.818687 0.168447,1.631582 0.49652,2.385594 0.328093,0.753933 0.810041,1.439116 1.411758,2.01191 0.601716,0.57275 1.314719,1.025928 2.095393,1.333804 0.76284,0.30079 1.581646,0.456562 2.404816,0.463621 0.01945,6.57e-4 0.03808,0.0011 0.05744,0.0018 2.001579,0.08852 3.61434,-0.653146 4.794741,-1.729897 0.806902,-0.736059 1.440879,-1.605276 2.019413,-2.491084 0.578561,0.885808 1.212462,1.755052 2.019412,2.491084 1.180402,1.076768 2.793162,1.818381 4.794741,1.729897 0.01935,-6.57e-4 0.03799,-8.69e-4 0.05744,-0.0018 0.823141,-0.0066 1.640079,-0.162831 2.40292,-0.463621 0.780683,-0.307805 1.495516,-0.761009 2.097195,-1.333804 l 0.0037,-0.0069 c 0.599222,-0.571723 1.080896,-1.253292 1.408058,-2.005002 0.327257,-0.753746 0.496103,-1.566836 0.496103,-2.38524 0,-0.818696 -0.168457,-1.631671 -0.49652,-2.385595 l -0.0056,-0.01038 c -0.328206,-0.749318 -0.808183,-1.431322 -1.406731,-2.001724 -0.601394,-0.572175 -1.314719,-1.025663 -2.095393,-1.333893 -0.780673,-0.307344 -1.61921,-0.465002 -2.461541,-0.465002 -2.108768,0 -3.774173,0.809768 -5.00409,1.935738 -0.711428,0.650118 -1.288159,1.394121 -1.810822,2.154954 C 31.476461,35.130302 30.89973,34.386299 30.18925,33.736181 28.958954,32.609547 27.293264,31.8 25.184591,31.8 Z m -0.02223,1.771437 c 1.68229,0 2.756831,0.562919 3.742396,1.494651 0.781262,0.738556 1.466301,1.743271 2.145383,2.838816 -0.775021,1.279953 -1.524069,2.449013 -2.365831,3.241908 -0.927949,0.874045 -1.889553,1.356035 -3.460765,1.271449 h -0.06114 c -0.599203,0 -1.203262,-0.118084 -1.754476,-0.342525 -0.543854,-0.22143 -1.045706,-0.55043 -1.459946,-0.95321 l -0.01668,-0.01557 c -0.417371,-0.409202 -0.753166,-0.903433 -0.977028,-1.433093 -0.222914,-0.530546 -0.33864,-1.108034 -0.33864,-1.678437 0,-0.57066 0.115716,-1.148157 0.339038,-1.677994 0.223303,-0.529917 0.558917,-1.022119 0.976364,-1.432384 l 0.01668,-0.0173 c 0.414203,-0.402754 0.916063,-0.731764 1.459945,-0.953211 0.55112,-0.224087 1.154411,-0.341887 1.753908,-0.341887 z m 13.672699,0 c 0.599212,0 1.203262,0.118084 1.754475,0.342525 0.543844,0.22143 1.045705,0.55043 1.459947,0.953211 l 0.01668,0.0173 c 0.417447,0.410291 0.753059,0.902459 0.976363,1.432384 0.222915,0.52966 0.338639,1.107149 0.338639,1.677551 0,0.570678 -0.115716,1.148069 -0.339038,1.677994 -0.223303,0.529908 -0.558907,1.023803 -0.976364,1.434068 l -0.01668,0.01557 c -0.414203,0.402754 -0.916063,0.731755 -1.459944,0.953211 -0.551252,0.224441 -1.155265,0.342525 -1.754478,0.342525 h -0.06114 c -1.570833,0.08414 -2.532684,-0.397688 -3.460386,-1.271892 -0.841382,-0.792718 -1.590753,-1.961867 -2.365735,-3.24173 0.679177,-1.095634 1.364044,-2.100925 2.145668,-2.838729 0.985565,-0.931776 2.060295,-1.495093 3.742111,-1.495093 z m -1.144925,1.771438 v 1.771437 h -1.897142 v 1.771437 h 1.897142 v 1.771438 h 1.897138 V 38.88613 h 1.897141 v -1.771437 h -1.897141 v -1.771437 z m -15.177132,1.771437 v 1.771437 h 5.691424 v -1.771437 z"
     id="path5-6" />
</svg>
