<?xml version="1.0" encoding="UTF-8" standalone="no"?>
<svg
   width="64"
   height="64"
   version="1.1"
   id="svg5"
   sodipodi:docname="folder-linux2.svg"
   inkscape:version="1.4.2 (ebf0e940d0, 2025-05-08)"
   xmlns:inkscape="http://www.inkscape.org/namespaces/inkscape"
   xmlns:sodipodi="http://sodipodi.sourceforge.net/DTD/sodipodi-0.dtd"
   xmlns="http://www.w3.org/2000/svg"
   xmlns:svg="http://www.w3.org/2000/svg">
  <sodipodi:namedview
     id="namedview5"
     pagecolor="#ffffff"
     bordercolor="#000000"
     borderopacity="0.25"
     inkscape:showpageshadow="2"
     inkscape:pageopacity="0.0"
     inkscape:pagecheckerboard="0"
     inkscape:deskcolor="#d1d1d1"
     inkscape:zoom="12.5"
     inkscape:cx="32"
     inkscape:cy="32"
     inkscape:window-width="1920"
     inkscape:window-height="1011"
     inkscape:window-x="0"
     inkscape:window-y="32"
     inkscape:window-maximized="1"
     inkscape:current-layer="svg5" />
  <defs
     id="defs2">
    <style
       id="current-color-scheme"
       type="text/css">.ColorScheme-Text {
        color:#333333;
      }
      .ColorScheme-Background{
        color:#f8f8f2;
      }
      .ColorScheme-Highlight {
        color:#44475a;
      }</style>
    <style
       type="text/css"
       id="style1" />
    <linearGradient
       id="linearGradient892"
       x1="-197.72"
       x2="-197.72"
       y1="263.86"
       y2="273.76"
       gradientTransform="rotate(-45,-337.55,-145.8)"
       gradientUnits="userSpaceOnUse">
      <stop
         offset="0"
         id="stop1" />
      <stop
         stop-opacity="0"
         offset="1"
         id="stop2" />
    </linearGradient>
  </defs>
  <g
     transform="scale(3.7796)"
     id="g4">
    <path
       class="ColorScheme-Highlight"
       transform="scale(.26458)"
       d="m27.002 8.9844-14 0.00391c-1.1097 0-1.4926 1.0128-2.002 1.998v0.01367h-1c-2.216 0-4 1.784-4 4v5c-2.216 0-4 1.784-4 4v28c0 2.216 1.784 4 4 4h52c2.216 0 4-1.784 4-4v-32c0-2.216-1.784-4-4-4v-1c0-2.216-1.784-4-4-4h-16.859c-0.04729-0.0032-0.09249-0.01387-0.14062-0.01367h-7.9961c-0.58584-0.94113-0.8907-2.002-2.002-2.002z"
       fill="#44475a"
       id="path2" />
    <path
       id="shadow"
       d="m7.1441 2.3771-3.7041 0.00103c-0.2936 0-0.39492 0.26798-0.52967 0.52864v0.00362h-0.26458c-0.58631 0-1.0583 0.472-1.0583 1.0583v1.3229h6.6145l0.79373-1.0583h6.3499v-0.26458c0-0.58631-0.472-1.0583-1.0583-1.0583l-6.6134-0.00362c-0.155-0.249-0.23566-0.52967-0.52967-0.52967z"
       fill="#bd93f9" />
    <path
       transform="scale(.26458)"
       d="m11.016 13.984c-1.1166 0-2.0156 0.89903-2.0156 2.0156v4h22l3-4h21c0-1.1166-0.89903-2.0156-2.0156-2.0156h-41.969z"
       fill="#f8f8f2"
       id="path3" />
    <rect
       x="3.704"
       y="2.64"
       width="3.175"
       height=".529"
       rx=".2645"
       ry=".2645"
       opacity=".25"
       id="rect3" />
    <path
       transform="scale(.26458)"
       d="m62 40-16 16h12c2.216 0 4-1.784 4-4z"
       fill="url(#linearGradient892)"
       opacity=".2"
       style="fill:url(#linearGradient892)"
       id="path4" />
  </g>
  <path
     style="fill:#f8f8f2;fill-opacity:1"
     d="m 33.087,41.31309 c -1.601,0.744 -3.089,0.736 -4.089,0.664 -1.192,-0.086 -2.152,-0.412 -2.573,-0.698 -0.26,-0.176 -0.613,-0.108 -0.789,0.152 -0.176,0.26 -0.108,0.613 0.152,0.789 0.678,0.459 1.876,0.8 3.128,0.89 0.212,0.016 0.445,0.025 0.696,0.025 1.09,0 2.474,-0.104 3.954,-0.792 0.284,-0.133 0.408,-0.47 0.275,-0.755 -0.132,-0.284 -0.47,-0.408 -0.754,-0.275 z m 6.314,-0.842 c 0.054,-4.936 0.562,-14.262 -8.886,-13.508 -9.328,0.751 -6.855,10.605 -6.994,13.905 -0.123,1.746 -0.702,3.88 -1.521,6.052 h 2.521 c 0.26,-0.92 0.45,-1.831 0.532,-2.698 0.152,0.106 0.315,0.208 0.489,0.306 0.282,0.167 0.525,0.388 0.782,0.622 0.6,0.547 1.281,1.168 2.611,1.245 0.089,0.005 0.179,0.008 0.267,0.008 1.346,0 2.266,-0.589 3.006,-1.062 0.354,-0.227 0.66,-0.423 0.948,-0.517 0.819,-0.256 1.534,-0.67 2.068,-1.196 0.084,-0.082 0.161,-0.167 0.234,-0.253 0.298,1.091 0.706,2.32 1.158,3.545 H 42 c -1.294,-1.996 -2.627,-3.953 -2.599,-6.449 z m -14.977,-2.685 c 0,0 0,-0.001 0,-0.001 -0.093,-1.611 0.678,-2.965 1.721,-3.026 1.043,-0.061 1.964,1.196 2.057,2.806 0,0.001 0,0.001 0,0.001 0.005,0.087 0.007,0.173 0.007,0.258 -0.33,0.083 -0.629,0.204 -0.896,0.345 -10e-4,-0.012 -0.002,-0.024 -0.003,-0.036 v -0.001 c -0.089,-0.914 -0.577,-1.604 -1.091,-1.542 -0.513,0.063 -0.857,0.855 -0.767,1.769 0,0 0,0 0,0 0.039,0.399 0.153,0.755 0.313,1.025 -0.04,0.031 -0.152,0.113 -0.281,0.208 -0.097,0.071 -0.216,0.157 -0.358,0.262 -0.388,-0.51 -0.654,-1.242 -0.702,-2.068 z m 10.569,3.981 c -0.037,0.851 -1.151,1.652 -2.179,1.973 l -0.006,0.002 c -0.428,0.139 -0.809,0.383 -1.213,0.641 -0.678,0.434 -1.38,0.883 -2.393,0.883 -0.067,0 -0.135,-0.002 -0.202,-0.006 -0.928,-0.054 -1.362,-0.449 -1.911,-0.95 -0.29,-0.264 -0.59,-0.538 -0.976,-0.764 l -0.009,-0.005 c -0.834,-0.471 -1.352,-1.056 -1.385,-1.567 -0.016,-0.253 0.097,-0.473 0.336,-0.652 0.52,-0.39 0.869,-0.645 1.099,-0.814 0.256,-0.187 0.334,-0.243 0.391,-0.298 0.041,-0.038 0.085,-0.081 0.133,-0.128 0.477,-0.464 1.276,-1.241 2.503,-1.241 0.75,0 1.58,0.289 2.464,0.857 0.416,0.271 0.779,0.396 1.238,0.555 0.315,0.109 0.673,0.232 1.152,0.437 l 0.008,0.004 c 0.446,0.183 0.974,0.518 0.95,1.072 z m -0.246,-2 c -0.086,-0.043 -0.176,-0.084 -0.269,-0.123 -0.432,-0.184 -0.778,-0.31 -1.065,-0.41 0.159,-0.31 0.257,-0.697 0.266,-1.118 v 0 c 0.022,-1.023 -0.494,-1.854 -1.152,-1.855 -0.659,-0.002 -1.21,0.826 -1.232,1.849 v 0 c -0.001,0.034 -0.001,0.067 0,0.1 -0.406,-0.186 -0.805,-0.322 -1.195,-0.405 -0.002,-0.039 -0.004,-0.077 -0.005,-0.116 v -10e-4 c -0.038,-1.863 1.106,-3.406 2.554,-3.445 1.448,-0.039 2.653,1.439 2.691,3.303 v 10e-4 c 0.017,0.843 -0.208,1.618 -0.593,2.22 z"
     id="path5-6" />
</svg>
