<?xml version="1.0" encoding="UTF-8" standalone="no"?>
<svg
   width="64"
   height="64"
   version="1.1"
   viewBox="0 0 64 64"
   id="svg6"
   sodipodi:docname="folder-steam.svg"
   inkscape:version="1.4.2 (ebf0e940d0, 2025-05-08)"
   xmlns:inkscape="http://www.inkscape.org/namespaces/inkscape"
   xmlns:sodipodi="http://sodipodi.sourceforge.net/DTD/sodipodi-0.dtd"
   xmlns="http://www.w3.org/2000/svg"
   xmlns:svg="http://www.w3.org/2000/svg">
  <sodipodi:namedview
     id="namedview6"
     pagecolor="#ffffff"
     bordercolor="#000000"
     borderopacity="0.25"
     inkscape:showpageshadow="2"
     inkscape:pageopacity="0.0"
     inkscape:pagecheckerboard="0"
     inkscape:deskcolor="#d1d1d1"
     inkscape:zoom="11.313709"
     inkscape:cx="22.627416"
     inkscape:cy="30.93592"
     inkscape:window-width="1920"
     inkscape:window-height="1011"
     inkscape:window-x="0"
     inkscape:window-y="32"
     inkscape:window-maximized="1"
     inkscape:current-layer="svg6" />
  <defs
     id="defs2">
    <style
       id="current-color-scheme"
       type="text/css">.ColorScheme-Text {
        color:#333333;
      }
      .ColorScheme-Background{
        color:#f8f8f2;
      }
      .ColorScheme-Highlight {
        color:#44475a;
      }</style>
    <linearGradient
       id="linearGradient892"
       x1="-197.72"
       x2="-197.72"
       y1="263.86"
       y2="273.76"
       gradientTransform="rotate(-45,-337.55,-145.8)"
       gradientUnits="userSpaceOnUse">
      <stop
         offset="0"
         id="stop1" />
      <stop
         stop-opacity="0"
         offset="1"
         id="stop2" />
    </linearGradient>
  </defs>
  <g
     transform="scale(3.7796)"
     id="g4">
    <path
       class="ColorScheme-Highlight"
       transform="scale(.26458)"
       d="m27.002 8.9844-14 0.00391c-1.1097 0-1.4926 1.0128-2.002 1.998v0.01367h-1c-2.216 0-4 1.784-4 4v5c-2.216 0-4 1.784-4 4v28c0 2.216 1.784 4 4 4h52c2.216 0 4-1.784 4-4v-32c0-2.216-1.784-4-4-4v-1c0-2.216-1.784-4-4-4h-16.859c-0.04729-0.0032-0.09249-0.01387-0.14062-0.01367h-7.9961c-0.58584-0.94113-0.8907-2.002-2.002-2.002z"
       fill="#44475a"
       id="path2" />
    <path
       id="shadow"
       d="m7.1441 2.3771-3.7041 0.00103c-0.2936 0-0.39492 0.26798-0.52967 0.52864v0.00362h-0.26458c-0.58631 0-1.0583 0.472-1.0583 1.0583v1.3229h6.6145l0.79373-1.0583h6.3499v-0.26458c0-0.58631-0.472-1.0583-1.0583-1.0583l-6.6134-0.00362c-0.155-0.249-0.23566-0.52967-0.52967-0.52967z"
       fill="#bd93f9" />
    <path
       transform="scale(.26458)"
       d="m11.016 13.984c-1.1166 0-2.0156 0.89903-2.0156 2.0156v4h22l3-4h21c0-1.1166-0.89903-2.0156-2.0156-2.0156h-41.969z"
       fill="#f8f8f2"
       id="path3" />
    <rect
       x="3.704"
       y="2.64"
       width="3.175"
       height=".529"
       rx=".2645"
       ry=".2645"
       opacity=".25"
       id="rect3" />
    <path
       transform="scale(.26458)"
       d="m62 40-16 16h12c2.216 0 4-1.784 4-4z"
       fill="url(#linearGradient892)"
       opacity=".2"
       style="fill:url(#linearGradient892)"
       id="path4" />
  </g>
  <path
     style="fill:#f8f8f2;fill-opacity:1"
     d="m 16,41.053904 6.015999,3.474 c -0.01,0.138 -0.016,0.276 -0.016,0.414 0,3.314 2.686001,6 6.000001,6 3.314,0 5.999999,-2.686 5.999999,-6 -0.004,-0.274 -0.026,-0.546 -0.066,-0.816 l 7.276001,-5.196 c 3.78,-0.114 6.786,-3.208 6.789999,-6.988 0,-3.866 -3.134,-7 -7,-7 -3.866,0 -7.001999,3.134 -7,7.028 l -4.643999,7.136 c -0.444,-0.106 -0.9,-0.162 -1.356,-0.164 -0.906,0.002 -1.8,0.21 -2.614,0.606 L 16,34.129904 m 25,-7.188 c 2.762,0 5,2.238 5,5 0,2.762 -2.238,5 -5,5 -2.762,0 -5,-2.238 -5,-5 0,-2.762 2.238,-5 5,-5 z m 0,2 c -1.655999,0 -3,1.344 -3,3 0,1.656 1.344001,3 3,3 1.656001,0 3,-1.344 3,-3 0,-1.656 -1.343999,-3 -3,-3 z m -12.999999,12 c 2.21,0 3.999999,1.79 3.999999,4 0,2.21 -1.789999,4 -3.999999,4 -1.908001,-0.002 -3.548001,-1.352 -3.918,-3.222 l 1.41,0.816 c 1.44,0.83 3.266,0.342 4.098,-1.098 0.829999,-1.44 0.341999,-3.266 -1.098,-4.098 l -0.676,-0.39 c 0.062,-0.004 0.122,-0.006 0.184,-0.008 z"
     id="path5-6" />
</svg>
