<?xml version="1.0" encoding="UTF-8" standalone="no"?>
<svg
   width="64"
   height="64"
   version="1.1"
   id="svg5"
   sodipodi:docname="folder-backup.svg"
   inkscape:version="1.4.2 (ebf0e940d0, 2025-05-08)"
   xmlns:inkscape="http://www.inkscape.org/namespaces/inkscape"
   xmlns:sodipodi="http://sodipodi.sourceforge.net/DTD/sodipodi-0.dtd"
   xmlns="http://www.w3.org/2000/svg"
   xmlns:svg="http://www.w3.org/2000/svg">
  <sodipodi:namedview
     id="namedview5"
     pagecolor="#ffffff"
     bordercolor="#000000"
     borderopacity="0.25"
     inkscape:showpageshadow="2"
     inkscape:pageopacity="0.0"
     inkscape:pagecheckerboard="0"
     inkscape:deskcolor="#d1d1d1"
     inkscape:zoom="12.5"
     inkscape:cx="36.04"
     inkscape:cy="35.68"
     inkscape:window-width="1920"
     inkscape:window-height="1011"
     inkscape:window-x="0"
     inkscape:window-y="32"
     inkscape:window-maximized="1"
     inkscape:current-layer="svg5" />
  <defs
     id="defs2">
    <style
       id="current-color-scheme"
       type="text/css">.ColorScheme-Text {
        color:#333333;
      }
      .ColorScheme-Background{
        color:#f8f8f2;
      }
      .ColorScheme-Highlight {
        color:#44475a;
      }</style>
    <linearGradient
       id="linearGradient892"
       x1="-197.72"
       x2="-197.72"
       y1="263.86"
       y2="273.76"
       gradientTransform="rotate(-45,-337.55,-145.8)"
       gradientUnits="userSpaceOnUse">
      <stop
         offset="0"
         id="stop1" />
      <stop
         stop-opacity="0"
         offset="1"
         id="stop2" />
    </linearGradient>
  </defs>
  <g
     transform="scale(3.7796)"
     id="g4">
    <path
       class="ColorScheme-Highlight"
       transform="scale(.26458)"
       d="m27.002 8.9844-14 0.00391c-1.1097 0-1.4926 1.0128-2.002 1.998v0.01367h-1c-2.216 0-4 1.784-4 4v5c-2.216 0-4 1.784-4 4v28c0 2.216 1.784 4 4 4h52c2.216 0 4-1.784 4-4v-32c0-2.216-1.784-4-4-4v-1c0-2.216-1.784-4-4-4h-16.859c-0.04729-0.0032-0.09249-0.01387-0.14062-0.01367h-7.9961c-0.58584-0.94113-0.8907-2.002-2.002-2.002z"
       fill="#44475a"
       id="path2" />
    <path
       id="shadow"
       d="m7.1441 2.3771-3.7041 0.00103c-0.2936 0-0.39492 0.26798-0.52967 0.52864v0.00362h-0.26458c-0.58631 0-1.0583 0.472-1.0583 1.0583v1.3229h6.6145l0.79373-1.0583h6.3499v-0.26458c0-0.58631-0.472-1.0583-1.0583-1.0583l-6.6134-0.00362c-0.155-0.249-0.23566-0.52967-0.52967-0.52967z"
       fill="#bd93f9" />
    <path
       transform="scale(.26458)"
       d="m11.016 13.984c-1.1166 0-2.0156 0.89903-2.0156 2.0156v4h22l3-4h21c0-1.1166-0.89903-2.0156-2.0156-2.0156h-41.969z"
       fill="#f8f8f2"
       id="path3" />
    <rect
       x="3.704"
       y="2.64"
       width="3.175"
       height=".529"
       rx=".2645"
       ry=".2645"
       opacity=".25"
       id="rect3" />
    <path
       transform="scale(.26458)"
       d="m62 40-16 16h12c2.216 0 4-1.784 4-4z"
       fill="url(#linearGradient892)"
       opacity=".2"
       style="fill:url(#linearGradient892)"
       id="path4" />
  </g>
  <path
     style="fill:#f8f8f2;fill-opacity:1;stroke-width:0.89307"
     d="m 32.989984,29.127859 c -0.761469,-0.03186 -1.53668,0.03271 -2.308586,0.201187 -4.111086,0.897287 -7.045229,4.510999 -7.045051,8.671828 H 21.84 l 2.694521,2.663984 2.694521,-2.663984 h -1.796348 c -1.93e-4,-3.337774 2.338469,-6.217657 5.636392,-6.937463 3.302525,-0.720811 6.655286,0.923815 8.073036,3.959557 1.41775,3.035741 0.509244,6.624501 -2.187543,8.642343 -2.696787,2.017843 -6.43809,1.90652 -9.00805,-0.267092 -0.911038,-0.768902 -2.077611,0.582169 -1.166573,1.351071 3.203637,2.70956 7.897012,2.84838 11.258747,0.332997 3.361735,-2.51538 4.50044,-7.019096 2.733114,-10.803362 -1.325495,-2.8382 -4.023038,-4.708368 -7.025754,-5.086895 -0.250225,-0.03154 -0.502256,-0.05354 -0.756079,-0.06418 z m -0.385934,3.532903 a 0.89826348,0.88808394 0 0 0 -0.88414,0.900136 v 4.318569 a 0.89826348,0.88808394 0 0 0 0.03684,0.38503 0.89826348,0.88808394 0 0 0 0.02456,0.06591 0.89826348,0.88808394 0 0 0 0.187704,0.294843 l 2.624352,3.460059 a 0.89852456,0.88834205 0 0 0 1.438481,-1.0649 L 33.516257,37.7043 V 33.560899 A 0.89826348,0.88808394 0 0 0 32.60405,32.660763 Z"
     id="path5-6" />
</svg>
