<?xml version="1.0" encoding="UTF-8" standalone="no"?>
<svg
   width="64"
   height="64"
   version="1.1"
   id="svg11"
   sodipodi:docname="image-loading.svg"
   inkscape:version="1.4.2 (ebf0e940d0, 2025-05-08)"
   xmlns:inkscape="http://www.inkscape.org/namespaces/inkscape"
   xmlns:sodipodi="http://sodipodi.sourceforge.net/DTD/sodipodi-0.dtd"
   xmlns:xlink="http://www.w3.org/1999/xlink"
   xmlns="http://www.w3.org/2000/svg"
   xmlns:svg="http://www.w3.org/2000/svg">
  <sodipodi:namedview
     id="namedview11"
     pagecolor="#f8f8f2"
     bordercolor="#000000"
     borderopacity="0.25"
     inkscape:showpageshadow="2"
     inkscape:pageopacity="0.0"
     inkscape:pagecheckerboard="0"
     inkscape:deskcolor="#d1d1d1"
     inkscape:zoom="12.5"
     inkscape:cx="31.92"
     inkscape:cy="34.72"
     inkscape:window-width="1920"
     inkscape:window-height="1011"
     inkscape:window-x="0"
     inkscape:window-y="32"
     inkscape:window-maximized="1"
     inkscape:current-layer="svg11" />
  <defs
     id="defs6">
    <linearGradient
       id="c">
      <stop
         offset="0"
         stop-color="#dcdcdc"
         id="stop1" />
      <stop
         offset="1"
         stop-color="#d3d3d3"
         id="stop2" />
    </linearGradient>
    <linearGradient
       id="b">
      <stop
         offset="0"
         stop-color="#dbdbdb"
         id="stop3" />
      <stop
         offset="1"
         stop-color="#f3f3f3"
         id="stop4" />
    </linearGradient>
    <linearGradient
       id="a">
      <stop
         offset="0"
         id="stop5" />
      <stop
         offset="1"
         stop-opacity="0"
         id="stop6" />
    </linearGradient>
    <linearGradient
       xlink:href="#a"
       id="d"
       x1="11"
       y1="32"
       x2="53"
       y2="32"
       gradientUnits="userSpaceOnUse" />
    <linearGradient
       xlink:href="#b"
       id="e"
       x1="11"
       y1="32"
       x2="32"
       y2="32"
       gradientUnits="userSpaceOnUse" />
    <linearGradient
       xlink:href="#c"
       id="f"
       gradientUnits="userSpaceOnUse"
       x1="11"
       y1="32"
       x2="11"
       y2="11" />
  </defs>
  <circle
     cx="32"
     cy="32"
     r="26"
     fill="#fff"
     stroke="#000"
     stroke-width="1.857"
     stroke-opacity=".039"
     paint-order="stroke markers fill"
     id="circle6"
     style="fill:#f8f8f2;fill-opacity:1" />
  <path
     fill="#333"
     paint-order="stroke markers fill"
     d="M31 16h2v16h-2z"
     id="path6"
     style="fill:#44475a;fill-opacity:1" />
  <path
     fill="#c08589"
     paint-order="stroke markers fill"
     d="m32.707 32 15.557 15.556-.708.708L32 32.707z"
     id="path7"
     style="fill:#ff5555;fill-opacity:1" />
  <circle
     cx="32"
     cy="32"
     fill="#333"
     paint-order="stroke markers fill"
     r="1"
     id="circle7" />
  <path
     d="M32 11a21 21 0 0 0-21 21 21 21 0 0 0 21 21 21 21 0 0 0 21-21h-2a19 19 0 0 1-19 19 19 19 0 0 1-19-19 19 19 0 0 1 19-19v-2z"
     opacity=".1"
     fill="url(#d)"
     paint-order="stroke markers fill"
     id="path8" />
  <path
     d="m32 9 5 3-5 3z"
     fill="#d3d3d3"
     paint-order="markers stroke fill"
     id="path9" />
  <path
     d="M32 11a21 21 0 0 0-21 21 21 21 0 0 0 21 21v-2a19 19 0 0 1-19-19 19 19 0 0 1 19-19v-2z"
     fill="url(#e)"
     paint-order="stroke markers fill"
     id="path10" />
  <path
     d="M32 11a21 21 0 0 0-21 21h2a19 19 0 0 1 19-19v-2z"
     fill="url(#f)"
     paint-order="stroke markers fill"
     id="path11" />
</svg>
