<?xml version="1.0" encoding="UTF-8" standalone="no"?>
<svg
   width="64"
   height="64"
   version="1"
   id="svg4"
   sodipodi:docname="library-podcast.svg"
   inkscape:version="1.4.2 (ebf0e940d0, 2025-05-08)"
   xmlns:inkscape="http://www.inkscape.org/namespaces/inkscape"
   xmlns:sodipodi="http://sodipodi.sourceforge.net/DTD/sodipodi-0.dtd"
   xmlns="http://www.w3.org/2000/svg"
   xmlns:svg="http://www.w3.org/2000/svg">
  <defs
     id="defs4" />
  <sodipodi:namedview
     id="namedview4"
     pagecolor="#f8f8f2"
     bordercolor="#000000"
     borderopacity="0.25"
     inkscape:showpageshadow="2"
     inkscape:pageopacity="0.0"
     inkscape:pagecheckerboard="0"
     inkscape:deskcolor="#d1d1d1"
     inkscape:zoom="12.5"
     inkscape:cx="31.96"
     inkscape:cy="32"
     inkscape:window-width="1920"
     inkscape:window-height="1011"
     inkscape:window-x="0"
     inkscape:window-y="32"
     inkscape:window-maximized="1"
     inkscape:current-layer="svg4" />
  <circle
     cx="32"
     cy="32"
     r="26"
     fill="#1c7cbf"
     paint-order="markers stroke fill"
     id="circle1"
     style="fill:#44475a;fill-opacity:1" />
  <g
     fill="#fff"
     id="g4"
     style="fill:#f8f8f2;fill-opacity:1"
     inkscape:label="g4">
    <path
       d="M32.062 20.5C25.994 20.5 20.531 22.656 16 26l16.062 17.5L48 25.937C43.487 22.63 38.085 20.5 32.062 20.5z"
       opacity=".5"
       id="path1"
       style="fill:#f8f8f2;fill-opacity:1" />
    <path
       d="M32 25.1a21.632 21.632 0 0 0-12.925 4.262L32.068 43.5l12.857-14.138A21.632 21.632 0 0 0 32 25.1z"
       opacity=".5"
       id="path2"
       style="fill:#f8f8f2;fill-opacity:1" />
    <path
       d="M32 29.7c-3.626 0-6.99 1.189-9.693 3.196l9.744 10.605 9.643-10.604A16.222 16.222 0 0 0 32 29.701z"
       id="path3"
       style="fill:#f8f8f2;fill-opacity:1" />
    <path
       d="M32.002 29.695a16.22 16.22 0 0 0-9.695 3.199l.325.353a16.213 16.213 0 0 1 9.37-2.977 16.2 16.2 0 0 1 9.369 2.979l.322-.355a16.213 16.213 0 0 0-9.691-3.199z"
       opacity=".1"
       id="path4"
       style="fill:#f8f8f2;fill-opacity:1" />
  </g>
</svg>
