<?xml version="1.0" encoding="UTF-8" standalone="no"?>
<svg
   width="64"
   height="64"
   version="1.1"
   viewBox="0 0 64 64"
   id="svg8"
   sodipodi:docname="default-user-desktop.svg"
   inkscape:version="1.4.2 (ebf0e940d0, 2025-05-08)"
   xmlns:inkscape="http://www.inkscape.org/namespaces/inkscape"
   xmlns:sodipodi="http://sodipodi.sourceforge.net/DTD/sodipodi-0.dtd"
   xmlns="http://www.w3.org/2000/svg"
   xmlns:svg="http://www.w3.org/2000/svg">
  <sodipodi:namedview
     id="namedview8"
     pagecolor="#f8f8f2"
     bordercolor="#000000"
     borderopacity="0.25"
     inkscape:showpageshadow="2"
     inkscape:pageopacity="0.0"
     inkscape:pagecheckerboard="0"
     inkscape:deskcolor="#d1d1d1"
     inkscape:zoom="12.5"
     inkscape:cx="31.96"
     inkscape:cy="32"
     inkscape:window-width="1920"
     inkscape:window-height="1011"
     inkscape:window-x="0"
     inkscape:window-y="32"
     inkscape:window-maximized="1"
     inkscape:current-layer="svg8" />
  <defs
     id="defs1">
    <style
       id="current-color-scheme"
       type="text/css">.ColorScheme-Text {
        color:#333333;
      }
      .ColorScheme-Background {
        color:#f8f8f2;
      }
      .ColorScheme-Highlight {
        color:#dd86e0;
      }</style>
  </defs>
  <rect
     class="ColorScheme-Highlight"
     x="2"
     y="9"
     width="60"
     height="46"
     rx="4"
     ry="4"
     fill="#dd86e0"
     id="rect1"
     style="fill:#bd93f9;fill-opacity:1" />
  <rect
     id="highlight"
     x="2"
     y="9"
     width="60"
     height="46"
     rx="4"
     ry="4"
     fill="#f8f8f2"
     opacity="0" />
  <path
     class="ColorScheme-Background"
     d="m15.003 50.998c-1.1077 0-1.9999 0.89231-1.9999 1.9999v2.0019h37.999v-2.0019c0-1.1077-0.89231-1.9999-1.9999-1.9999z"
     fill="#f8f8f2"
     opacity=".35"
     id="path1"
     style="fill:#f8f8f2;fill-opacity:1" />
  <path
     class="ColorScheme-Highlight"
     d="m 18.002,47 c -0.554,0 -1,0.446 -1,1 v 4 c 0,0.554 0.446,1 1,1 h 4 c 0.554,0 1,-0.446 1,-1 v -4 c 0,-0.554 -0.446,-1 -1,-1 z m 7.9961,0 c -0.554,0 -1,0.446 -1,1 v 4 c 0,0.554 0.446,1 1,1 h 4 c 0.554,0 1,-0.446 1,-1 v -4 c 0,-0.554 -0.446,-1 -1,-1 z m 8,0 c -0.554,0 -1,0.446 -1,1 v 4 c 0,0.554 0.446,1 1,1 h 4 c 0.554,0 1,-0.446 1,-1 v -4 c 0,-0.554 -0.446,-1 -1,-1 z m 8,0 c -0.554,0 -1,0.446 -1,1 v 4 c 0,0.554 0.446,1 1,1 h 4 c 0.554,0 1,-0.446 1,-1 v -4 c 0,-0.554 -0.446,-1 -1,-1 z"
     fill="#dd86e0"
     id="path2"
     style="display:inline;fill:#bd93f9;fill-opacity:1" />
  <path
     class="ColorScheme-Background"
     d="m 18.002,47 c -0.554,0 -1,0.446 -1,1 v 4 c 0,0.554 0.446,1 1,1 h 4 c 0.554,0 1,-0.446 1,-1 v -4 c 0,-0.554 -0.446,-1 -1,-1 z m 7.9961,0 c -0.554,0 -1,0.446 -1,1 v 4 c 0,0.554 0.446,1 1,1 h 4 c 0.554,0 1,-0.446 1,-1 v -4 c 0,-0.554 -0.446,-1 -1,-1 z m 8,0 c -0.554,0 -1,0.446 -1,1 v 4 c 0,0.554 0.446,1 1,1 h 4 c 0.554,0 1,-0.446 1,-1 v -4 c 0,-0.554 -0.446,-1 -1,-1 z m 8,0 c -0.554,0 -1,0.446 -1,1 v 4 c 0,0.554 0.446,1 1,1 h 4 c 0.554,0 1,-0.446 1,-1 v -4 c 0,-0.554 -0.446,-1 -1,-1 z"
     fill="#f8f8f2"
     opacity="0.65"
     id="path3"
     style="display:inline;fill:#f8f8f2;fill-opacity:1" />
  <path
     d="m6 9c-2.2153 0-3.9989 1.783-4 3.998h60c-0.001059-2.2151-1.7847-3.998-4-3.998z"
     opacity=".25"
     id="path4" />
  <rect
     x="5.9991"
     y="9.9978"
     width="3.9987"
     height="1.9993"
     ry="1.0016"
     opacity=".35"
     id="rect4" />
  <rect
     x="27.002"
     y="9.9978"
     width="10"
     height="1.9993"
     ry="1.0016"
     opacity=".35"
     id="rect5" />
  <rect
     x="56.999"
     y="9.9978"
     width="1.9993"
     height="1.9993"
     ry="1.0016"
     opacity=".35"
     id="rect6" />
  <rect
     x="53.001"
     y="9.9978"
     width="3.0009"
     height="1.9993"
     ry="1.0016"
     opacity=".35"
     id="rect7" />
  <rect
     x="50"
     y="9.9978"
     width="1.9993"
     height="1.9993"
     ry="1.0016"
     opacity=".35"
     id="rect8" />
</svg>
