<?xml version="1.0" encoding="UTF-8" standalone="no"?>
<svg
   width="64"
   height="64"
   version="1.1"
   id="svg68"
   sodipodi:docname="user-trash-full.svg"
   inkscape:version="1.4.2 (ebf0e940d0, 2025-05-08)"
   xmlns:inkscape="http://www.inkscape.org/namespaces/inkscape"
   xmlns:sodipodi="http://sodipodi.sourceforge.net/DTD/sodipodi-0.dtd"
   xmlns:xlink="http://www.w3.org/1999/xlink"
   xmlns="http://www.w3.org/2000/svg"
   xmlns:svg="http://www.w3.org/2000/svg">
  <sodipodi:namedview
     id="namedview68"
     pagecolor="#f8f8f2"
     bordercolor="#000000"
     borderopacity="0.25"
     inkscape:showpageshadow="2"
     inkscape:pageopacity="0.0"
     inkscape:pagecheckerboard="0"
     inkscape:deskcolor="#d1d1d1"
     inkscape:zoom="12.5"
     inkscape:cx="31.96"
     inkscape:cy="32"
     inkscape:window-width="1920"
     inkscape:window-height="1011"
     inkscape:window-x="0"
     inkscape:window-y="32"
     inkscape:window-maximized="1"
     inkscape:current-layer="svg68" />
  <defs
     id="defs10">
    <linearGradient
       id="b">
      <stop
         offset="0"
         id="stop1" />
      <stop
         offset="1"
         stop-opacity="0"
         id="stop2" />
    </linearGradient>
    <linearGradient
       id="d">
      <stop
         offset="0"
         stop-color="#fff"
         id="stop3" />
      <stop
         offset="1"
         stop-color="#aeaea3"
         id="stop4" />
    </linearGradient>
    <linearGradient
       id="e">
      <stop
         offset="0"
         stop-color="#dfe2dc"
         id="stop5" />
      <stop
         offset="1"
         stop-color="#86917a"
         id="stop6" />
    </linearGradient>
    <linearGradient
       x1="22.009"
       y1="36.51"
       x2="23.585"
       y2="14.412"
       id="U"
       xlink:href="#a"
       gradientUnits="userSpaceOnUse"
       gradientTransform="matrix(-1 0 0 1 -164.713 28.24)" />
    <linearGradient
       id="a">
      <stop
         offset="0"
         stop-color="#babdb6"
         id="stop7" />
      <stop
         offset="1"
         stop-color="#fff"
         id="stop8" />
    </linearGradient>
    <linearGradient
       x1="24.366"
       y1="20.246"
       x2="32.601"
       y2="28.555"
       id="V"
       xlink:href="#a"
       gradientUnits="userSpaceOnUse"
       gradientTransform="matrix(-1 0 0 1 -164.713 28.24)" />
    <linearGradient
       x1="25.633"
       y1="10.612"
       x2="38.714"
       y2="18.39"
       id="W"
       xlink:href="#b"
       gradientUnits="userSpaceOnUse"
       gradientTransform="matrix(-1 0 0 1 -164.713 28.24)" />
    <linearGradient
       x1="22.009"
       y1="36.51"
       x2="23.585"
       y2="14.412"
       id="o"
       xlink:href="#a"
       gradientUnits="userSpaceOnUse"
       gradientTransform="translate(116.969 34.748) scale(.50094)" />
    <linearGradient
       x1="24.366"
       y1="20.246"
       x2="32.601"
       y2="28.555"
       id="p"
       xlink:href="#a"
       gradientUnits="userSpaceOnUse"
       gradientTransform="translate(122.338 34.748) scale(.50094)" />
    <linearGradient
       x1="73.374"
       y1="82.789"
       x2="89.456"
       y2="82.789"
       id="q"
       xlink:href="#c"
       gradientUnits="userSpaceOnUse"
       gradientTransform="matrix(.51208 0 0 .49005 90.554 .024)" />
    <linearGradient
       id="c">
      <stop
         offset="0"
         stop-color="#555753"
         id="stop9" />
      <stop
         offset="1"
         stop-color="#d3d7cf"
         stop-opacity="0"
         id="stop10" />
    </linearGradient>
    <linearGradient
       x1="22.009"
       y1="36.51"
       x2="23.585"
       y2="14.412"
       id="A"
       xlink:href="#a"
       gradientUnits="userSpaceOnUse"
       gradientTransform="matrix(-.50094 0 0 .50094 127.797 34.543)" />
    <linearGradient
       x1="24.366"
       y1="20.246"
       x2="32.601"
       y2="28.555"
       id="B"
       xlink:href="#a"
       gradientUnits="userSpaceOnUse"
       gradientTransform="matrix(-.50094 0 0 .50094 127.797 34.543)" />
    <linearGradient
       x1="25.633"
       y1="10.612"
       x2="38.714"
       y2="18.39"
       id="C"
       xlink:href="#b"
       gradientUnits="userSpaceOnUse"
       gradientTransform="matrix(-.50094 0 0 .50094 127.797 34.543)" />
    <linearGradient
       xlink:href="#a"
       id="i"
       gradientUnits="userSpaceOnUse"
       gradientTransform="matrix(-1 0 0 1 -164.713 28.24)"
       x1="22.009"
       y1="36.51"
       x2="23.585"
       y2="14.412" />
    <linearGradient
       xlink:href="#a"
       id="j"
       gradientUnits="userSpaceOnUse"
       gradientTransform="matrix(-1 0 0 1 -164.713 28.24)"
       x1="24.366"
       y1="20.246"
       x2="32.601"
       y2="28.555" />
    <linearGradient
       xlink:href="#b"
       id="k"
       gradientUnits="userSpaceOnUse"
       gradientTransform="matrix(-1 0 0 1 -164.713 28.24)"
       x1="25.633"
       y1="10.612"
       x2="38.714"
       y2="18.39" />
    <linearGradient
       xlink:href="#a"
       id="u"
       gradientUnits="userSpaceOnUse"
       gradientTransform="matrix(-1 0 0 1 -164.713 28.24)"
       x1="22.009"
       y1="36.51"
       x2="23.585"
       y2="14.412" />
    <linearGradient
       xlink:href="#a"
       id="v"
       gradientUnits="userSpaceOnUse"
       gradientTransform="matrix(-1 0 0 1 -164.713 28.24)"
       x1="24.366"
       y1="20.246"
       x2="32.601"
       y2="28.555" />
    <linearGradient
       xlink:href="#b"
       id="w"
       gradientUnits="userSpaceOnUse"
       gradientTransform="matrix(-1 0 0 1 -164.713 28.24)"
       x1="25.633"
       y1="10.612"
       x2="38.714"
       y2="18.39" />
    <linearGradient
       xlink:href="#a"
       id="F"
       gradientUnits="userSpaceOnUse"
       gradientTransform="matrix(-1 0 0 1 -164.713 28.24)"
       x1="22.009"
       y1="36.51"
       x2="23.585"
       y2="14.412" />
    <linearGradient
       xlink:href="#a"
       id="G"
       gradientUnits="userSpaceOnUse"
       gradientTransform="matrix(-1 0 0 1 -164.713 28.24)"
       x1="24.366"
       y1="20.246"
       x2="32.601"
       y2="28.555" />
    <linearGradient
       xlink:href="#b"
       id="H"
       gradientUnits="userSpaceOnUse"
       gradientTransform="matrix(-1 0 0 1 -164.713 28.24)"
       x1="25.633"
       y1="10.612"
       x2="38.714"
       y2="18.39" />
    <linearGradient
       xlink:href="#a"
       id="K"
       gradientUnits="userSpaceOnUse"
       gradientTransform="matrix(-1 0 0 1 -164.713 28.24)"
       x1="22.009"
       y1="36.51"
       x2="23.585"
       y2="14.412" />
    <linearGradient
       xlink:href="#a"
       id="L"
       gradientUnits="userSpaceOnUse"
       gradientTransform="matrix(-1 0 0 1 -164.713 28.24)"
       x1="24.366"
       y1="20.246"
       x2="32.601"
       y2="28.555" />
    <linearGradient
       xlink:href="#b"
       id="M"
       gradientUnits="userSpaceOnUse"
       gradientTransform="matrix(-1 0 0 1 -164.713 28.24)"
       x1="25.633"
       y1="10.612"
       x2="38.714"
       y2="18.39" />
    <linearGradient
       xlink:href="#a"
       id="P"
       gradientUnits="userSpaceOnUse"
       gradientTransform="matrix(-1 0 0 1 -164.713 28.24)"
       x1="22.009"
       y1="36.51"
       x2="23.585"
       y2="14.412" />
    <linearGradient
       xlink:href="#a"
       id="Q"
       gradientUnits="userSpaceOnUse"
       gradientTransform="matrix(-1 0 0 1 -164.713 28.24)"
       x1="24.366"
       y1="20.246"
       x2="32.601"
       y2="28.555" />
    <linearGradient
       xlink:href="#b"
       id="R"
       gradientUnits="userSpaceOnUse"
       gradientTransform="matrix(-1 0 0 1 -164.713 28.24)"
       x1="25.633"
       y1="10.612"
       x2="38.714"
       y2="18.39" />
    <radialGradient
       cx="23.688"
       cy="14.211"
       r="22.597"
       fx="23.688"
       fy="14.211"
       id="g"
       xlink:href="#d"
       gradientUnits="userSpaceOnUse"
       gradientTransform="matrix(-2.13567 0 0 2.1106 -137.811 12.57)" />
    <radialGradient
       cx="20.09"
       cy="10.854"
       r="22.597"
       fx="20.09"
       fy="10.854"
       id="h"
       xlink:href="#e"
       gradientUnits="userSpaceOnUse"
       gradientTransform="matrix(-1.79027 0 0 1.76926 -148.9 16.29)" />
    <radialGradient
       cx="24.837"
       cy="40.664"
       r="21.478"
       fx="24.837"
       fy="40.664"
       id="l"
       xlink:href="#b"
       gradientUnits="userSpaceOnUse"
       gradientTransform="matrix(1 0 0 .3251 0 27.444)" />
    <radialGradient
       cx="23.688"
       cy="14.211"
       r="22.597"
       fx="23.688"
       fy="14.211"
       id="m"
       xlink:href="#d"
       gradientUnits="userSpaceOnUse"
       gradientTransform="matrix(1.79463 0 0 1.29198 86.35 19.966)" />
    <radialGradient
       cx="20.09"
       cy="10.854"
       r="22.597"
       fx="20.09"
       fy="10.854"
       id="n"
       xlink:href="#e"
       gradientUnits="userSpaceOnUse"
       gradientTransform="matrix(1.50438 0 0 1.08303 95.667 22.243)" />
    <radialGradient
       cx="24.837"
       cy="40.664"
       r="21.478"
       fx="24.837"
       fy="40.664"
       id="r"
       xlink:href="#b"
       gradientUnits="userSpaceOnUse"
       gradientTransform="matrix(1 0 0 .3251 0 27.444)" />
    <radialGradient
       cx="23.688"
       cy="14.211"
       r="22.597"
       fx="23.688"
       fy="14.211"
       id="s"
       xlink:href="#d"
       gradientUnits="userSpaceOnUse"
       gradientTransform="matrix(-2.13567 0 0 2.1106 -137.811 12.57)" />
    <radialGradient
       cx="20.09"
       cy="10.854"
       r="22.597"
       fx="20.09"
       fy="10.854"
       id="t"
       xlink:href="#e"
       gradientUnits="userSpaceOnUse"
       gradientTransform="matrix(-1.79027 0 0 1.76926 -148.9 16.29)" />
    <radialGradient
       cx="24.837"
       cy="40.664"
       r="21.478"
       fx="24.837"
       fy="40.664"
       id="x"
       xlink:href="#b"
       gradientUnits="userSpaceOnUse"
       gradientTransform="matrix(1 0 0 .3251 0 27.444)" />
    <radialGradient
       cx="23.688"
       cy="14.211"
       r="22.597"
       fx="23.688"
       fy="14.211"
       id="y"
       xlink:href="#d"
       gradientUnits="userSpaceOnUse"
       gradientTransform="matrix(-1.06985 0 0 1.0573 141.274 26.694)" />
    <radialGradient
       cx="20.09"
       cy="10.854"
       r="22.597"
       fx="20.09"
       fy="10.854"
       id="z"
       xlink:href="#e"
       gradientUnits="userSpaceOnUse"
       gradientTransform="matrix(-.89682 0 0 .8863 135.72 28.557)" />
    <radialGradient
       cx="23.688"
       cy="14.211"
       r="22.597"
       fx="23.688"
       fy="14.211"
       id="D"
       xlink:href="#d"
       gradientUnits="userSpaceOnUse"
       gradientTransform="matrix(-2.13567 0 0 2.1106 -137.811 12.57)" />
    <radialGradient
       cx="20.09"
       cy="10.854"
       r="22.597"
       fx="20.09"
       fy="10.854"
       id="E"
       xlink:href="#e"
       gradientUnits="userSpaceOnUse"
       gradientTransform="matrix(-1.79027 0 0 1.76926 -148.9 16.29)" />
    <radialGradient
       cx="23.688"
       cy="14.211"
       r="22.597"
       fx="23.688"
       fy="14.211"
       id="I"
       xlink:href="#d"
       gradientUnits="userSpaceOnUse"
       gradientTransform="matrix(-2.13567 0 0 2.1106 -137.811 12.57)" />
    <radialGradient
       cx="20.09"
       cy="10.854"
       r="22.597"
       fx="20.09"
       fy="10.854"
       id="J"
       xlink:href="#e"
       gradientUnits="userSpaceOnUse"
       gradientTransform="matrix(-1.79027 0 0 1.76926 -148.9 16.29)" />
    <radialGradient
       cx="23.688"
       cy="14.211"
       r="22.597"
       fx="23.688"
       fy="14.211"
       id="N"
       xlink:href="#d"
       gradientUnits="userSpaceOnUse"
       gradientTransform="matrix(-2.13567 0 0 2.1106 -137.811 12.57)" />
    <radialGradient
       cx="20.09"
       cy="10.854"
       r="22.597"
       fx="20.09"
       fy="10.854"
       id="O"
       xlink:href="#e"
       gradientUnits="userSpaceOnUse"
       gradientTransform="matrix(-1.79027 0 0 1.76926 -148.9 16.29)" />
    <radialGradient
       cx="23.688"
       cy="14.211"
       r="22.597"
       fx="23.688"
       fy="14.211"
       id="S"
       xlink:href="#d"
       gradientUnits="userSpaceOnUse"
       gradientTransform="matrix(-2.13567 0 0 2.1106 -137.811 12.57)" />
    <radialGradient
       cx="20.09"
       cy="10.854"
       r="22.597"
       fx="20.09"
       fy="10.854"
       id="T"
       xlink:href="#e"
       gradientUnits="userSpaceOnUse"
       gradientTransform="matrix(-1.79027 0 0 1.76926 -148.9 16.29)" />
    <filter
       id="f"
       x="-0.016976033"
       width="1.0339521"
       y="-0.01845325"
       height="1.0356842"
       color-interpolation-filters="sRGB">
      <feGaussianBlur
         stdDeviation=".244"
         id="feGaussianBlur10" />
    </filter>
  </defs>
  <path
     d="M53.828 56.682 56.556 4.84H7.444l2.728 51.84c.08 1.51 1.217 2.73 2.729 2.73h38.198a2.722 2.722 0 0 0 2.729-2.73z"
     fill="#fff"
     stroke="#000"
     enable-background="new"
     stroke-opacity=".039"
     paint-order="markers stroke fill"
     id="path10"
     style="fill:#f8f8f2;fill-opacity:1" />
  <g
     transform="matrix(0.74507,0,0,0.74507,-62.694,12.515)"
     opacity="0.25"
     filter="url(#f)"
     color="#000000"
     fill-rule="evenodd"
     id="g61"
     inkscape:label="g61"
     style="display:inline">
    <path
       style="marker:none"
       d="m -173.729,65.81 1.768,2.828 -3.712,1.591 -2.652,-2.121 -11.844,0.884 -3.712,4.95 -3.359,-5.48 -4.243,2.297 -5.656,-0.707 1.414,-3.005 -3.89,-3.889 5.48,-6.187 -5.303,0.707 -2.298,-2.121 3.006,0.53 3.182,-5.48 4.596,-1.06 -3.713,-1.238 -0.176,-3.182 7.248,-6.364 2.651,-8.485 12.021,3.535 3.005,7.071 1.06,-2.298 3.006,0.177 v 2.828 l 3.536,-4.066 4.773,5.127 V 49.9 l -8.309,7.248 5.303,3.005 -0.176,3.005 z"
       overflow="visible"
       fill="url(#g)"
       stroke="url(#h)"
       transform="matrix(-0.50094,0,0,0.50094,18.809,-1.829)"
       id="path11" />
    <path
       style="marker:none"
       d="m -184.158,50.96 0.883,6.541 -2.12,3.359 4.595,1.414 2.652,5.303 -12.02,0.884 -2.83,4.066 -2.297,-6.187 4.419,-2.828 6.718,1.944 -2.652,-3.535 1.414,-6.188 z"
       overflow="visible"
       opacity="0.77"
       fill="url(#i)"
       transform="matrix(-0.50094,0,0,0.50094,18.809,-1.829)"
       id="path12" />
    <path
       style="marker:none"
       d="m -185.22,52.021 -4.419,6.894 -7.247,-4.95 -4.42,2.475 -3.535,-3.005 -3.182,2.829 3.005,-4.95 6.894,-1.591 8.662,-4.243 c 0,0 12.375,3.713 11.667,3.713 -0.707,0 -10.253,0.176 -10.253,0.176 l -1.59,-2.298 -4.243,1.945 z"
       overflow="visible"
       opacity="0.618"
       fill="url(#j)"
       transform="matrix(-0.50094,0,0,0.50094,18.809,-1.829)"
       id="path13" />
    <path
       style="marker:none"
       d="m 116.11,14.047 -5.225,1.771 -0.709,1.948 3.01,2.126 2.835,-2.745 z"
       overflow="visible"
       fill="#f8f8f2"
       id="path14" />
    <path
       style="marker:none"
       d="m -194.412,32.045 -2.298,7.425 -4.242,3.712 8.662,-1.944 c 0,0 2.475,2.828 1.414,2.828 -1.06,0 -12.551,1.414 -12.551,1.414 l 0.177,2.298 16.263,-3.005 -7.071,-6.54 z"
       overflow="visible"
       opacity="0.135"
       fill="url(#k)"
       transform="matrix(-0.50094,0,0,0.50094,18.809,-1.829)"
       id="path15" />
    <path
       style="marker:none"
       d="m 105.04,19.449 -0.443,4.428 0.974,-3.011 2.568,0.797 0.62,-1.328 3.1,0.442 0.708,-0.62 -4.516,-0.177 -0.443,1.24 -1.948,-0.974 z m 7.527,6.553 1.505,1.771 3.454,-2.302 2.125,1.151 3.454,3.277 -3.808,-2.923 -1.86,-0.531 -3.63,2.48 z"
       overflow="visible"
       fill="#f8f8f2"
       id="path16" />
    <path
       style="marker:none"
       transform="matrix(0.55454,0,0,0.55454,115.284,32.037)"
       d="m 46.315,40.664 a 21.478,6.983 0 1 1 -42.956,0 21.478,6.983 0 1 1 42.956,0 z"
       overflow="visible"
       opacity="0.326"
       fill="url(#l)"
       id="path17" />
    <path
       style="marker:none"
       d="m 116.532,52.556 -1.486,1.731 3.12,0.974 2.228,-1.299 9.953,0.541 3.12,3.03 2.821,-3.354 3.566,1.407 4.753,-0.433 -1.188,-1.84 3.268,-2.38 -4.605,-3.788 4.456,0.433 1.931,-1.299 -2.525,0.325 -2.674,-3.355 -3.862,-0.649 3.12,-0.757 0.148,-1.948 -6.09,-3.896 -2.229,-5.194 -10.1,2.164 -2.526,4.329 -0.892,-1.407 -2.525,0.108 v 1.732 l -2.97,-2.49 -4.012,3.139 v 4.437 l 6.982,4.436 -4.456,1.84 0.148,1.84 z"
       overflow="visible"
       fill="url(#m)"
       stroke="url(#n)"
       stroke-width="0.717"
       id="path18" />
    <path
       style="marker:none"
       d="m 126.71,46.13 -0.443,3.276 1.063,1.682 -2.303,0.709 -1.328,2.657 6.022,0.442 1.417,2.037 1.151,-3.1 -2.214,-1.416 -3.365,0.974 1.328,-1.771 -0.708,-3.1 z"
       overflow="visible"
       opacity="0.77"
       fill="url(#o)"
       id="path19" />
    <path
       style="marker:none"
       d="m 132.61,46.66 2.214,3.454 3.63,-2.48 2.214,1.24 1.772,-1.505 1.594,1.417 -1.506,-2.48 -3.454,-0.796 -4.339,-2.126 c 0,0 -6.199,1.86 -5.844,1.86 0.354,0 5.136,0.088 5.136,0.088 l 0.797,-1.15 2.125,0.973 -4.339,1.506 z"
       overflow="visible"
       opacity="0.618"
       fill="url(#p)"
       id="path20" />
    <path
       style="marker:none"
       d="m 131.758,36.477 -5.225,1.771 -0.709,1.948 3.011,2.126 2.834,-2.746 0.089,-3.1 z"
       overflow="visible"
       fill="#f8f8f2"
       id="path21" />
    <path
       style="marker:none"
       d="m 131.846,36.654 1.151,3.72 2.126,1.859 -4.34,-0.974 c 0,0 -1.24,1.417 -0.708,1.417 0.531,0 6.287,0.708 6.287,0.708 l -0.088,1.151 -8.147,-1.505 3.542,-3.277 z"
       overflow="visible"
       opacity="0.135"
       fill="url(#q)"
       id="path22" />
    <path
       style="marker:none"
       d="m 120.688,41.879 -0.442,4.428 0.974,-3.011 2.568,0.797 0.62,-1.329 3.099,0.443 0.708,-0.62 -4.516,-0.177 -0.443,1.24 -1.948,-0.974 z m 12.896,6.553 1.506,1.77 3.453,-2.301 2.125,1.15 3.454,3.277 -3.808,-2.922 -1.86,-0.531 -3.63,2.48 z"
       overflow="visible"
       fill="#f8f8f2"
       id="path23" />
    <path
       style="marker:none"
       transform="matrix(-0.55454,0,0,0.55454,134.443,32.718)"
       d="m 46.315,40.664 a 21.478,6.983 0 1 1 -42.956,0 21.478,6.983 0 1 1 42.956,0 z"
       overflow="visible"
       opacity="0.326"
       fill="url(#r)"
       id="path24" />
    <path
       style="marker:none"
       d="m -173.729,65.81 1.768,2.828 -3.712,1.591 -2.652,-2.121 -11.844,0.884 -3.712,4.95 -3.359,-5.48 -4.243,2.297 -5.656,-0.707 1.414,-3.005 -3.89,-3.889 5.48,-6.187 -5.303,0.707 -2.298,-2.121 3.006,0.53 3.182,-5.48 4.596,-1.06 -3.713,-1.238 -0.176,-3.182 7.248,-6.364 2.651,-8.485 12.021,3.535 3.005,7.071 1.06,-2.298 3.006,0.177 v 2.828 l 3.536,-4.066 4.773,5.127 V 49.9 l -8.309,7.248 5.303,3.005 -0.176,3.005 z"
       overflow="visible"
       fill="url(#s)"
       stroke="url(#t)"
       transform="matrix(-0.50094,0,0,0.50094,18.542,6.402)"
       id="path25" />
    <path
       style="marker:none"
       d="m -184.158,50.96 0.883,6.541 -2.12,3.359 4.595,1.414 2.652,5.303 -12.02,0.884 -2.83,4.066 -2.297,-6.187 4.419,-2.828 6.718,1.944 -2.652,-3.535 1.414,-6.188 z"
       overflow="visible"
       opacity="0.77"
       fill="url(#u)"
       transform="matrix(-0.50094,0,0,0.50094,18.542,6.402)"
       id="path26" />
    <path
       style="marker:none"
       d="m -185.22,52.021 -4.419,6.894 -7.247,-4.95 -4.42,2.475 -3.535,-3.005 -3.182,2.829 3.005,-4.95 6.894,-1.591 8.662,-4.243 c 0,0 12.375,3.713 11.667,3.713 -0.707,0 -10.253,0.176 -10.253,0.176 l -1.59,-2.298 -4.243,1.945 z"
       overflow="visible"
       opacity="0.618"
       fill="url(#v)"
       transform="matrix(-0.50094,0,0,0.50094,18.542,6.402)"
       id="path27" />
    <path
       style="marker:none"
       d="m 115.842,22.277 -5.225,1.771 -0.708,1.949 3.01,2.125 2.835,-2.745 z"
       overflow="visible"
       fill="#f8f8f2"
       id="path28" />
    <path
       style="marker:none"
       d="m -194.412,32.045 -2.298,7.425 -4.242,3.712 8.662,-1.944 c 0,0 2.475,2.828 1.414,2.828 -1.06,0 -12.551,1.414 -12.551,1.414 l 0.177,2.298 16.263,-3.005 -7.071,-6.54 z"
       overflow="visible"
       opacity="0.135"
       fill="url(#w)"
       transform="matrix(-0.50094,0,0,0.50094,18.542,6.402)"
       id="path29" />
    <path
       style="marker:none"
       d="m 104.773,27.68 -0.443,4.427 0.974,-3.011 2.568,0.797 0.62,-1.328 3.1,0.442 0.708,-0.62 -4.516,-0.177 -0.443,1.24 -1.948,-0.974 z m 7.527,6.552 1.505,1.771 3.454,-2.302 2.125,1.151 3.454,3.277 -3.808,-2.923 -1.86,-0.531 -3.63,2.48 z"
       overflow="visible"
       fill="#f8f8f2"
       id="path30" />
    <path
       style="marker:none"
       transform="matrix(-0.55454,0,0,0.55454,129.483,31.832)"
       d="m 46.315,40.664 a 21.478,6.983 0 1 1 -42.956,0 21.478,6.983 0 1 1 42.956,0 z"
       overflow="visible"
       opacity="0.326"
       fill="url(#x)"
       id="path31" />
    <path
       style="marker:none"
       d="m 123.281,53.363 0.886,1.417 -1.86,0.797 -1.328,-1.062 -5.933,0.442 -1.86,2.48 -1.683,-2.745 -2.125,1.151 -2.834,-0.354 0.709,-1.506 -1.948,-1.948 2.745,-3.1 -2.657,0.355 -1.151,-1.063 1.505,0.266 1.594,-2.745 2.303,-0.532 -1.86,-0.62 -0.089,-1.593 3.631,-3.188 1.329,-4.251 6.021,1.771 1.506,3.542 0.531,-1.151 1.505,0.089 v 1.416 l 1.772,-2.036 2.39,2.568 v 3.63 l -4.162,3.631 2.657,1.506 -0.088,1.505 z"
       overflow="visible"
       fill="url(#y)"
       stroke="url(#z)"
       stroke-width="0.501"
       id="path32" />
    <path
       style="marker:none"
       d="m 118.056,45.925 0.443,3.276 -1.062,1.683 2.302,0.708 1.328,2.657 -6.021,0.443 -1.417,2.037 -1.152,-3.1 2.214,-1.417 3.365,0.974 -1.328,-1.77 0.709,-3.1 z"
       overflow="visible"
       opacity="0.77"
       fill="url(#A)"
       id="path33" />
    <path
       style="marker:none"
       d="m 117.525,46.456 -2.214,3.454 -3.63,-2.48 -2.214,1.24 -1.771,-1.505 -1.594,1.416 1.505,-2.48 3.454,-0.796 4.339,-2.125 c 0,0 6.199,1.86 5.844,1.86 -0.354,0 -5.136,0.088 -5.136,0.088 l -0.797,-1.151 -2.125,0.974 4.34,1.505 z"
       overflow="visible"
       opacity="0.618"
       fill="url(#B)"
       id="path34" />
    <path
       style="marker:none"
       d="m 113.009,36.272 5.225,1.771 0.708,1.949 -3.01,2.125 -2.835,-2.745 z"
       overflow="visible"
       fill="#f8f8f2"
       id="path35" />
    <path
       style="marker:none"
       d="m 112.92,36.45 -1.15,3.719 -2.126,1.86 4.339,-0.975 c 0,0 1.24,1.417 0.708,1.417 -0.531,0 -6.287,0.709 -6.287,0.709 l 0.088,1.15 8.148,-1.505 -3.543,-3.276 -0.177,-3.1 z"
       overflow="visible"
       opacity="0.135"
       fill="url(#C)"
       id="path36" />
    <path
       style="marker:none"
       d="m 124.078,41.674 0.443,4.428 -0.974,-3.01 -2.568,0.796 -0.62,-1.328 -3.1,0.443 -0.708,-0.62 4.516,-0.177 0.443,1.24 1.948,-0.975 z m -7.527,6.553 -1.505,1.771 -3.454,-2.302 -2.125,1.151 -3.454,3.277 3.808,-2.923 1.86,-0.531 3.63,2.48 z"
       overflow="visible"
       fill="#f8f8f2"
       id="path37" />
    <path
       style="marker:none"
       d="m -173.729,65.81 1.768,2.828 -3.712,1.591 -2.652,-2.121 -11.844,0.884 -3.712,4.95 -3.359,-5.48 -4.243,2.297 -5.656,-0.707 1.414,-3.005 -3.89,-3.889 5.48,-6.187 -5.303,0.707 -2.298,-2.121 3.006,0.53 3.182,-5.48 4.596,-1.06 -3.713,-1.238 -0.176,-3.182 7.248,-6.364 2.651,-8.485 12.021,3.535 3.005,7.071 1.06,-2.298 3.006,0.177 v 2.828 l 3.536,-4.066 4.773,5.127 V 49.9 l -8.309,7.248 5.303,3.005 -0.176,3.005 z"
       overflow="visible"
       fill="url(#D)"
       stroke="url(#E)"
       transform="matrix(0.50094,0,0,0.50094,235.648,-4.513)"
       id="path38" />
    <path
       style="marker:none"
       d="m -184.158,50.96 0.883,6.541 -2.12,3.359 4.595,1.414 2.652,5.303 -12.02,0.884 -2.83,4.066 -2.297,-6.187 4.419,-2.828 6.718,1.944 -2.652,-3.535 1.414,-6.188 z"
       overflow="visible"
       opacity="0.77"
       fill="url(#F)"
       transform="matrix(0.50094,0,0,0.50094,235.648,-4.513)"
       id="path39" />
    <path
       style="marker:none"
       d="m -185.22,52.021 -4.419,6.894 -7.247,-4.95 -4.42,2.475 -3.535,-3.005 -3.182,2.829 3.005,-4.95 6.894,-1.591 8.662,-4.243 c 0,0 12.375,3.713 11.667,3.713 -0.707,0 -10.253,0.176 -10.253,0.176 l -1.59,-2.298 -4.243,1.945 z"
       overflow="visible"
       opacity="0.618"
       fill="url(#G)"
       transform="matrix(0.50094,0,0,0.50094,235.648,-4.513)"
       id="path40" />
    <path
       style="marker:none"
       d="m 138.348,11.363 5.224,1.771 0.709,1.948 -3.011,2.125 -2.834,-2.745 z"
       overflow="visible"
       fill="#f8f8f2"
       id="path41" />
    <path
       style="marker:none"
       d="m -194.412,32.045 -2.298,7.425 -4.242,3.712 8.662,-1.944 c 0,0 2.475,2.828 1.414,2.828 -1.06,0 -12.551,1.414 -12.551,1.414 l 0.177,2.298 16.263,-3.005 -7.071,-6.54 z"
       overflow="visible"
       opacity="0.135"
       fill="url(#H)"
       transform="matrix(0.50094,0,0,0.50094,235.648,-4.513)"
       id="path42" />
    <path
       style="marker:none"
       d="m 149.417,16.765 0.443,4.427 -0.974,-3.01 -2.568,0.797 -0.62,-1.329 -3.1,0.443 -0.708,-0.62 4.516,-0.177 0.443,1.24 1.948,-0.974 z m -7.527,6.553 -1.506,1.77 -3.453,-2.302 -2.126,1.152 -3.453,3.276 3.808,-2.922 1.86,-0.531 3.63,2.48 z"
       overflow="visible"
       fill="#f8f8f2"
       id="path43" />
    <path
       style="marker:none"
       d="m -173.729,65.81 1.768,2.828 -3.712,1.591 -2.652,-2.121 -11.844,0.884 -3.712,4.95 -3.359,-5.48 -4.243,2.297 -5.656,-0.707 1.414,-3.005 -3.89,-3.889 5.48,-6.187 -5.303,0.707 -2.298,-2.121 3.006,0.53 3.182,-5.48 4.596,-1.06 -3.713,-1.238 -0.176,-3.182 7.248,-6.364 2.651,-8.485 12.021,3.535 3.005,7.071 1.06,-2.298 3.006,0.177 v 2.828 l 3.536,-4.066 4.773,5.127 V 49.9 l -8.309,7.248 5.303,3.005 -0.176,3.005 z"
       overflow="visible"
       fill="url(#I)"
       stroke="url(#J)"
       transform="matrix(0,-0.50094,-0.50094,0,151.613,-70.805)"
       id="path44" />
    <path
       style="marker:none"
       d="m -184.158,50.96 0.883,6.541 -2.12,3.359 4.595,1.414 2.652,5.303 -12.02,0.884 -2.83,4.066 -2.297,-6.187 4.419,-2.828 6.718,1.944 -2.652,-3.535 1.414,-6.188 z"
       overflow="visible"
       opacity="0.77"
       fill="url(#K)"
       transform="matrix(0,-0.50094,-0.50094,0,151.613,-70.805)"
       id="path45" />
    <path
       style="marker:none"
       d="m -185.22,52.021 -4.419,6.894 -7.247,-4.95 -4.42,2.475 -3.535,-3.005 -3.182,2.829 3.005,-4.95 6.894,-1.591 8.662,-4.243 c 0,0 12.375,3.713 11.667,3.713 -0.707,0 -10.253,0.176 -10.253,0.176 l -1.59,-2.298 -4.243,1.945 z"
       overflow="visible"
       opacity="0.618"
       fill="url(#L)"
       transform="matrix(0,-0.50094,-0.50094,0,151.613,-70.805)"
       id="path46" />
    <path
       style="marker:none"
       d="m 135.738,26.495 -1.772,-5.224 -1.948,-0.709 -2.125,3.011 2.745,2.834 z"
       overflow="visible"
       fill="#f8f8f2"
       id="path47" />
    <path
       style="marker:none"
       d="m -194.412,32.045 -2.298,7.425 -4.242,3.712 8.662,-1.944 c 0,0 2.475,2.828 1.414,2.828 -1.06,0 -12.551,1.414 -12.551,1.414 l 0.177,2.298 16.263,-3.005 -7.071,-6.54 z"
       overflow="visible"
       opacity="0.135"
       fill="url(#M)"
       transform="matrix(0,-0.50094,-0.50094,0,151.613,-70.805)"
       id="path48" />
    <path
       style="marker:none"
       d="m 130.336,15.426 -4.428,-0.443 3.01,0.974 -0.796,2.568 1.328,0.62 -0.443,3.1 0.62,0.708 0.177,-4.516 -1.24,-0.443 0.975,-1.948 z m -6.553,7.527 -1.771,1.506 2.302,3.453 -1.151,2.126 -3.277,3.453 2.923,-3.808 0.53,-1.86 -2.479,-3.63 z"
       overflow="visible"
       fill="#f8f8f2"
       id="path49" />
    <path
       style="marker:none"
       d="m -173.729,65.81 1.768,2.828 -3.712,1.591 -2.652,-2.121 -11.844,0.884 -3.712,4.95 -3.359,-5.48 -4.243,2.297 -5.656,-0.707 1.414,-3.005 -3.89,-3.889 5.48,-6.187 -5.303,0.707 -2.298,-2.121 3.006,0.53 3.182,-5.48 4.596,-1.06 -3.713,-1.238 -0.176,-3.182 7.248,-6.364 2.651,-8.485 12.021,3.535 3.005,7.071 1.06,-2.298 3.006,0.177 v 2.828 l 3.536,-4.066 4.773,5.127 V 49.9 l -8.309,7.248 5.303,3.005 -0.176,3.005 z"
       overflow="visible"
       fill="url(#N)"
       stroke="url(#O)"
       transform="matrix(0.50094,0,0,0.50094,231.622,8.909)"
       id="path50" />
    <path
       style="marker:none"
       d="m -184.158,50.96 0.883,6.541 -2.12,3.359 4.595,1.414 2.652,5.303 -12.02,0.884 -2.83,4.066 -2.297,-6.187 4.419,-2.828 6.718,1.944 -2.652,-3.535 1.414,-6.188 z"
       overflow="visible"
       opacity="0.77"
       fill="url(#P)"
       transform="matrix(0.50094,0,0,0.50094,231.622,8.909)"
       id="path51" />
    <path
       style="marker:none"
       d="m -185.22,52.021 -4.419,6.894 -7.247,-4.95 -4.42,2.475 -3.535,-3.005 -3.182,2.829 3.005,-4.95 6.894,-1.591 8.662,-4.243 c 0,0 12.375,3.713 11.667,3.713 -0.707,0 -10.253,0.176 -10.253,0.176 l -1.59,-2.298 -4.243,1.945 z"
       overflow="visible"
       opacity="0.618"
       fill="url(#Q)"
       transform="matrix(0.50094,0,0,0.50094,231.622,8.909)"
       id="path52" />
    <path
       style="marker:none"
       d="m 134.321,24.784 5.225,1.772 0.708,1.948 -3.01,2.125 -2.834,-2.745 z"
       overflow="visible"
       fill="#f8f8f2"
       id="path53" />
    <path
       style="marker:none"
       d="m -194.412,32.045 -2.298,7.425 -4.242,3.712 8.662,-1.944 c 0,0 2.475,2.828 1.414,2.828 -1.06,0 -12.551,1.414 -12.551,1.414 l 0.177,2.298 16.263,-3.005 -7.071,-6.54 z"
       overflow="visible"
       opacity="0.135"
       fill="url(#R)"
       transform="matrix(0.50094,0,0,0.50094,231.622,8.909)"
       id="path54" />
    <path
       style="marker:none"
       d="m 145.39,30.186 0.443,4.428 -0.974,-3.01 -2.568,0.796 -0.62,-1.328 -3.1,0.443 -0.708,-0.62 4.517,-0.177 0.442,1.24 1.949,-0.975 z m -7.527,6.554 -1.505,1.77 -3.454,-2.302 -2.125,1.151 -3.454,3.277 3.808,-2.923 1.86,-0.53 3.63,2.479 z"
       overflow="visible"
       fill="#f8f8f2"
       id="path55" />
    <path
       style="marker:none"
       d="m -173.729,65.81 1.768,2.828 -3.712,1.591 -2.652,-2.121 -11.844,0.884 -3.712,4.95 -3.359,-5.48 -4.243,2.297 -5.656,-0.707 1.414,-3.005 -3.89,-3.889 5.48,-6.187 -5.303,0.707 -2.298,-2.121 3.006,0.53 3.182,-5.48 4.596,-1.06 -3.713,-1.238 -0.176,-3.182 7.248,-6.364 2.651,-8.485 12.021,3.535 3.005,7.071 1.06,-2.298 3.006,0.177 v 2.828 l 3.536,-4.066 4.773,5.127 V 49.9 l -8.309,7.248 5.303,3.005 -0.176,3.005 z"
       overflow="visible"
       fill="url(#S)"
       stroke="url(#T)"
       transform="matrix(0,0.50094,0.50094,0,97.571,143.104)"
       id="path56" />
    <path
       style="marker:none"
       d="m -184.158,50.96 0.883,6.541 -2.12,3.359 4.595,1.414 2.652,5.303 -12.02,0.884 -2.83,4.066 -2.297,-6.187 4.419,-2.828 6.718,1.944 -2.652,-3.535 1.414,-6.188 z"
       overflow="visible"
       opacity="0.77"
       fill="url(#U)"
       transform="matrix(0,0.50094,0.50094,0,97.571,143.104)"
       id="path57" />
    <path
       style="marker:none"
       d="m -185.22,52.021 -4.419,6.894 -7.247,-4.95 -4.42,2.475 -3.535,-3.005 -3.182,2.829 3.005,-4.95 6.894,-1.591 8.662,-4.243 c 0,0 12.375,3.713 11.667,3.713 -0.707,0 -10.253,0.176 -10.253,0.176 l -1.59,-2.298 -4.243,1.945 z"
       overflow="visible"
       opacity="0.618"
       fill="url(#V)"
       transform="matrix(0,0.50094,0.50094,0,97.571,143.104)"
       id="path58" />
    <path
       style="marker:none"
       d="m 113.447,45.804 1.77,5.225 1.95,0.708 2.124,-3.01 -2.745,-2.834 z"
       overflow="visible"
       fill="#f8f8f2"
       id="path59" />
    <path
       style="marker:none"
       d="m -194.412,32.045 -2.298,7.425 -4.242,3.712 8.662,-1.944 c 0,0 2.475,2.828 1.414,2.828 -1.06,0 -12.551,1.414 -12.551,1.414 l 0.177,2.298 16.263,-3.005 -7.071,-6.54 z"
       overflow="visible"
       opacity="0.135"
       fill="url(#W)"
       transform="matrix(0,0.50094,0.50094,0,97.571,143.104)"
       id="path60" />
    <path
       style="marker:none"
       d="m 118.849,56.873 4.427,0.443 -3.01,-0.974 0.797,-2.568 -1.329,-0.62 0.443,-3.1 -0.62,-0.708 -0.177,4.516 1.24,0.443 -0.974,1.948 z m 6.553,-7.527 1.77,-1.505 -2.302,-3.454 1.152,-2.125 3.276,-3.454 -2.922,3.808 -0.531,1.86 2.48,3.63 z"
       overflow="visible"
       fill="#f8f8f2"
       id="path61" />
  </g>
  <path
     d="m 33.755,12.34 -8.774,5.582 h 5.264 z"
     fill="none"
     id="path62"
     style="display:inline" />
  <path
     d="M 29.599,43.43 29.59,35.327 h -5.554 l -6.63,-1.2 4.37,7.839 c 0.215,0.38 1.499,1.465 3.667,1.465 z"
     fill="#df5656"
     id="path63"
     style="display:inline;fill:#44475a;fill-opacity:1" />
  <path
     d="m 24.036,35.327 1.424,-2.558 1.821,1.085 -1.291,-3.734 -1.292,-3.725 -3.774,0.704 -3.767,0.703 1.523,0.911 -1.241,2.218 c -0.588,1.06 -0.696,2.012 -0.033,3.196 l 4.37,7.839 c 0.108,0.19 0.489,0.554 1.11,0.877 -2.12,-1.531 -0.895,-3.915 1.15,-7.516 z"
     fill="#ff9292"
     id="path64"
     style="display:inline;fill:#7e82a0;fill-opacity:1" />
  <path
     d="m 21.644,23.266 6.788,4.056 a 1452.98,1452.98 0 0 0 2.773,-4.991 L 35.534,17 h -8.75 c -0.43,0 -1.978,0.604 -3.062,2.541 z"
     fill="#df5656"
     id="path65"
     style="display:inline;fill:#44475a;fill-opacity:1" />
  <path
     d="m 31.205,22.34 1.432,2.557 -1.821,1.093 3.774,0.703 3.767,0.704 1.3,-3.725 1.29,-3.733 -1.523,0.91 -1.241,-2.227 C 37.595,17.562 36.85,17 35.533,17 h -8.749 c -0.215,0 -0.712,0.149 -1.291,0.546 2.334,-1.125 3.725,1.16 5.712,4.793 z"
     fill="#ff9292"
     id="path66"
     style="display:inline;fill:#7e82a0;fill-opacity:1" />
  <path
     d="m 44.2,26.346 -7.027,4.056 a 910.902,910.902 0 0 0 2.79,4.81 l 2.268,6.34 4.602,-7.707 c 0.224,-0.372 0.522,-2.028 -0.555,-3.907 z"
     fill="#df5656"
     id="path67"
     style="display:inline;fill:#44475a;fill-opacity:1" />
  <path
     d="m 39.963,35.211 -2.94,0.041 0.034,-2.119 -5.165,5.977 2.491,2.905 2.5,2.914 0.025,-1.771 2.55,-0.042 c 1.208,-0.016 2.077,-0.397 2.773,-1.564 l 4.602,-7.707 c 0.116,-0.19 0.248,-0.695 0.207,-1.399 -0.265,2.6 -2.939,2.732 -7.077,2.765 z"
     fill="#ff9292"
     id="path68"
     style="display:inline;fill:#7e82a0;fill-opacity:1" />
</svg>
