<svg width="64" height="64" version="1.1" xmlns="http://www.w3.org/2000/svg">
 <rect x="4.5" y="4.5" width="55" height="55" rx="3" ry="3" fill="#44c367" overflow="visible"/>
 <path d="m14 18v2h36v-2zm0 4v2h36v-2zm0 4v2h36v-2zm0 4v2h36v-2zm0 4v2h36v-2zm0 4v2h36v-2zm0 4v2h36v-2zm0 4v2h36v-2z" fill="#f8f8f2" font-family="sans-serif" font-weight="400" opacity=".5" overflow="visible" style="isolation:auto;mix-blend-mode:normal;text-decoration-color:#282a36;text-decoration-line:none;text-decoration-style:solid;text-indent:0;text-transform:none;white-space:normal"/>
 <path d="M18 13.5h28c.277 0 .5.223.5.5v37c0 .277-.223.5-.5.5H18a.499.499 0 0 1-.5-.5V14c0-.277.223-.5.5-.5z" fill="#44475a" overflow="visible" stroke="#282a36" stroke-linecap="round" stroke-linejoin="round" stroke-opacity=".498" stroke-width="0"/>
</svg>
