<svg width="32" height="32" version="1" xmlns="http://www.w3.org/2000/svg" xmlns:xlink="http://www.w3.org/1999/xlink">
 <g transform="translate(-1.23 -1.23) scale(.53846)" stroke-width="1.857">
  <rect transform="matrix(0,-1,-1,0,0,0)" x="-58" y="-58" width="52" height="52" rx="11.144" ry="11.144" fill="#717380"/>
  <path d="m31.999 13.427a18.571 18.571 0 0 0-18.571 18.571 18.571 18.571 0 0 0 18.571 18.571 18.571 18.571 0 0 0 18.571-18.571 18.571 18.571 0 0 0-18.571-18.571zm0 11.143a7.4286 7.4286 0 0 1 7.4286 7.4286 7.4286 7.4286 0 0 1-7.4286 7.4286 7.4286 7.4286 0 0 1-7.4286-7.4286 7.4286 7.4286 0 0 1 7.4286-7.4286z" fill="#44475a" stroke-width="1.916"/>
  <circle cx="32" cy="32" r="13" fill="#f8f8f2" paint-order="markers stroke fill"/>
  <circle cx="31.999" cy="31.999" r="9.2857" fill="#ed5f6c" stroke-width="2.1554" paint-order="markers stroke fill"/>
 </g>
</svg>
